G75*
G70*
%OFA0B0*%
%FSLAX24Y24*%
%IPPOS*%
%LPD*%
%AMOC8*
5,1,8,0,0,1.08239X$1,22.5*
%
%ADD10C,0.0189*%
%ADD11R,0.0335X0.0413*%
%ADD12R,0.0413X0.0335*%
%ADD13R,0.0531X0.0374*%
%ADD14C,0.0138*%
%ADD15R,0.0492X0.0492*%
%ADD16R,0.0571X0.0807*%
%ADD17R,0.0610X0.0512*%
%ADD18C,0.0034*%
%ADD19R,0.0571X0.0512*%
%ADD20R,0.0453X0.0492*%
%ADD21R,0.0374X0.0177*%
%ADD22R,0.1988X0.0886*%
%ADD23R,0.0689X0.2028*%
%ADD24R,0.0374X0.0531*%
%ADD25R,0.0531X0.0531*%
%ADD26R,0.0453X0.0531*%
%ADD27R,0.0413X0.0256*%
%ADD28R,0.0846X0.0413*%
%ADD29R,0.0236X0.0413*%
%ADD30R,0.0650X0.0492*%
%ADD31R,0.0453X0.0638*%
%ADD32R,0.0374X0.0728*%
%ADD33R,0.0374X0.0492*%
%ADD34R,0.0374X0.0217*%
%ADD35C,0.0799*%
%ADD36C,0.1159*%
%ADD37C,0.1359*%
%ADD38C,0.1209*%
%ADD39C,0.0453*%
%ADD40C,0.0531*%
%ADD41R,0.0768X0.0650*%
%ADD42R,0.0217X0.0689*%
%ADD43R,0.0177X0.0264*%
%ADD44R,0.1240X0.0846*%
%ADD45C,0.1122*%
%ADD46C,0.0579*%
%ADD47C,0.0239*%
%ADD48C,0.0237*%
%ADD49C,0.1509*%
D10*
X012751Y016759D03*
X013066Y016759D03*
X013381Y016759D03*
X013696Y016759D03*
X014011Y016759D03*
X014326Y016759D03*
X014641Y016759D03*
X014956Y016759D03*
X015271Y016759D03*
X015586Y016759D03*
X015900Y016759D03*
X015900Y017074D03*
X015586Y017074D03*
X015586Y017389D03*
X015900Y017389D03*
X015900Y017704D03*
X015586Y017704D03*
X015586Y018019D03*
X015900Y018019D03*
X015900Y018334D03*
X015586Y018334D03*
X015586Y018649D03*
X015900Y018649D03*
X015900Y018964D03*
X015586Y018964D03*
X015586Y019279D03*
X015900Y019279D03*
X015900Y019594D03*
X015586Y019594D03*
X015586Y019909D03*
X015900Y019909D03*
X015900Y020224D03*
X015586Y020224D03*
X015586Y020539D03*
X015900Y020539D03*
X015900Y020854D03*
X015586Y020854D03*
X015586Y021169D03*
X015900Y021169D03*
X015900Y021484D03*
X015586Y021484D03*
X015586Y021799D03*
X015900Y021799D03*
X015900Y022114D03*
X015586Y022114D03*
X015271Y022114D03*
X015271Y021799D03*
X015271Y021484D03*
X015271Y021169D03*
X015271Y020854D03*
X015271Y020539D03*
X015271Y020224D03*
X015271Y019909D03*
X015271Y019594D03*
X015271Y019279D03*
X015271Y018964D03*
X015271Y018649D03*
X015271Y018334D03*
X015271Y018019D03*
X015271Y017704D03*
X015271Y017389D03*
X015271Y017074D03*
X014956Y017074D03*
X014641Y017074D03*
X014326Y017074D03*
X014011Y017074D03*
X013696Y017074D03*
X013381Y017074D03*
X013066Y017074D03*
X012751Y017074D03*
X012751Y017389D03*
X013066Y017389D03*
X013381Y017389D03*
X013696Y017389D03*
X014011Y017389D03*
X014326Y017389D03*
X014641Y017389D03*
X014956Y017389D03*
X014956Y017704D03*
X014956Y018019D03*
X014956Y018334D03*
X014956Y018649D03*
X014956Y018964D03*
X014956Y019279D03*
X014956Y019594D03*
X014956Y019909D03*
X014956Y020224D03*
X014956Y020539D03*
X014956Y020854D03*
X014956Y021169D03*
X014956Y021484D03*
X014956Y021799D03*
X014956Y022114D03*
X014641Y022114D03*
X014641Y021799D03*
X014641Y021484D03*
X014641Y021169D03*
X014641Y020854D03*
X014641Y020539D03*
X014641Y020224D03*
X014641Y019909D03*
X014641Y019594D03*
X014641Y019279D03*
X014641Y018964D03*
X014641Y018649D03*
X014641Y018334D03*
X014641Y018019D03*
X014641Y017704D03*
X014326Y017704D03*
X014011Y017704D03*
X013696Y017704D03*
X013381Y017704D03*
X013066Y017704D03*
X012751Y017704D03*
X012751Y018019D03*
X013066Y018019D03*
X013381Y018019D03*
X013696Y018019D03*
X014011Y018019D03*
X014326Y018019D03*
X014326Y018334D03*
X014326Y018649D03*
X014326Y018964D03*
X014326Y019279D03*
X014326Y019594D03*
X014326Y019909D03*
X014326Y020224D03*
X014326Y020539D03*
X014326Y020854D03*
X014326Y021169D03*
X014326Y021484D03*
X014326Y021799D03*
X014326Y022114D03*
X014011Y022114D03*
X014011Y021799D03*
X014011Y021484D03*
X014011Y021169D03*
X014011Y020854D03*
X014011Y020539D03*
X014011Y020224D03*
X014011Y019909D03*
X014011Y019594D03*
X014011Y019279D03*
X014011Y018964D03*
X014011Y018649D03*
X014011Y018334D03*
X013696Y018334D03*
X013381Y018334D03*
X013066Y018334D03*
X012751Y018334D03*
X012751Y018649D03*
X013066Y018649D03*
X013381Y018649D03*
X013696Y018649D03*
X013696Y018964D03*
X013696Y019279D03*
X013696Y019594D03*
X013696Y019909D03*
X013696Y020224D03*
X013696Y020539D03*
X013696Y020854D03*
X013696Y021169D03*
X013696Y021484D03*
X013696Y021799D03*
X013696Y022114D03*
X013381Y022114D03*
X013381Y021799D03*
X013381Y021484D03*
X013381Y021169D03*
X013381Y020854D03*
X013381Y020539D03*
X013381Y020224D03*
X013381Y019909D03*
X013381Y019594D03*
X013381Y019279D03*
X013381Y018964D03*
X013066Y018964D03*
X012751Y018964D03*
X012751Y019279D03*
X013066Y019279D03*
X013066Y019594D03*
X013066Y019909D03*
X013066Y020224D03*
X013066Y020539D03*
X013066Y020854D03*
X013066Y021169D03*
X013066Y021484D03*
X013066Y021799D03*
X013066Y022114D03*
X012751Y022114D03*
X012751Y021799D03*
X012751Y021484D03*
X012751Y021169D03*
X012751Y020854D03*
X012751Y020539D03*
X012751Y020224D03*
X012751Y019909D03*
X012751Y019594D03*
X016215Y019594D03*
X016215Y019279D03*
X016215Y018964D03*
X016215Y018649D03*
X016215Y018334D03*
X016215Y018019D03*
X016215Y017704D03*
X016215Y017389D03*
X016215Y017074D03*
X016215Y016759D03*
X016530Y016759D03*
X016845Y016759D03*
X017160Y016759D03*
X017475Y016759D03*
X017790Y016759D03*
X018105Y016759D03*
X018105Y017074D03*
X017790Y017074D03*
X017475Y017074D03*
X017160Y017074D03*
X016845Y017074D03*
X016530Y017074D03*
X016530Y017389D03*
X016845Y017389D03*
X017160Y017389D03*
X017475Y017389D03*
X017790Y017389D03*
X018105Y017389D03*
X018105Y017704D03*
X017790Y017704D03*
X017475Y017704D03*
X017160Y017704D03*
X016845Y017704D03*
X016530Y017704D03*
X016530Y018019D03*
X016530Y018334D03*
X016530Y018649D03*
X016530Y018964D03*
X016530Y019279D03*
X016530Y019594D03*
X016530Y019909D03*
X016215Y019909D03*
X016215Y020224D03*
X016215Y020539D03*
X016215Y020854D03*
X016215Y021169D03*
X016215Y021484D03*
X016215Y021799D03*
X016215Y022114D03*
X016530Y022114D03*
X016530Y021799D03*
X016530Y021484D03*
X016530Y021169D03*
X016530Y020854D03*
X016530Y020539D03*
X016530Y020224D03*
X016845Y020224D03*
X016845Y019909D03*
X016845Y019594D03*
X016845Y019279D03*
X016845Y018964D03*
X016845Y018649D03*
X016845Y018334D03*
X016845Y018019D03*
X017160Y018019D03*
X017160Y018334D03*
X017160Y018649D03*
X017160Y018964D03*
X017160Y019279D03*
X017160Y019594D03*
X017160Y019909D03*
X017160Y020224D03*
X017160Y020539D03*
X016845Y020539D03*
X016845Y020854D03*
X016845Y021169D03*
X016845Y021484D03*
X016845Y021799D03*
X016845Y022114D03*
X017160Y022114D03*
X017160Y021799D03*
X017160Y021484D03*
X017160Y021169D03*
X017160Y020854D03*
X017475Y020854D03*
X017475Y021169D03*
X017475Y021484D03*
X017475Y021799D03*
X017475Y022114D03*
X017790Y022114D03*
X017790Y021799D03*
X017790Y021484D03*
X017790Y021169D03*
X017790Y020854D03*
X017790Y020539D03*
X017475Y020539D03*
X017475Y020224D03*
X017475Y019909D03*
X017475Y019594D03*
X017475Y019279D03*
X017475Y018964D03*
X017475Y018649D03*
X017475Y018334D03*
X017475Y018019D03*
X017790Y018019D03*
X018105Y018019D03*
X018105Y018334D03*
X017790Y018334D03*
X017790Y018649D03*
X017790Y018964D03*
X017790Y019279D03*
X017790Y019594D03*
X017790Y019909D03*
X017790Y020224D03*
X018105Y020224D03*
X018105Y019909D03*
X018105Y019594D03*
X018105Y019279D03*
X018105Y018964D03*
X018105Y018649D03*
X018105Y020539D03*
X018105Y020854D03*
X018105Y021169D03*
X018105Y021484D03*
X018105Y021799D03*
X018105Y022114D03*
X023379Y021722D03*
X023379Y021407D03*
X023379Y021093D03*
X023694Y021093D03*
X023694Y021407D03*
X024009Y021407D03*
X024009Y021093D03*
X024009Y020778D03*
X024009Y020463D03*
X024009Y020148D03*
X024009Y019833D03*
X024009Y019518D03*
X024009Y019203D03*
X024009Y018888D03*
X024009Y018573D03*
X024009Y018258D03*
X024009Y017943D03*
X024009Y017628D03*
X024009Y017313D03*
X023694Y017313D03*
X023694Y017628D03*
X023694Y017943D03*
X023694Y018258D03*
X023694Y018573D03*
X023694Y018888D03*
X023694Y019203D03*
X023694Y019518D03*
X023694Y019833D03*
X023694Y020148D03*
X023694Y020463D03*
X023694Y020778D03*
X023379Y020778D03*
X023379Y020463D03*
X023379Y020148D03*
X023379Y019833D03*
X023379Y019518D03*
X023379Y019203D03*
X023379Y018573D03*
X023379Y017943D03*
X023379Y017313D03*
X025268Y017313D03*
X025268Y017628D03*
X025268Y017943D03*
X025268Y018258D03*
X025268Y018573D03*
X025268Y018888D03*
X025268Y019203D03*
X025268Y019518D03*
X025268Y019833D03*
X025268Y020148D03*
X025268Y020463D03*
X025268Y020778D03*
X025268Y021093D03*
X025268Y021407D03*
X025583Y021407D03*
X025583Y021093D03*
X025898Y021093D03*
X025898Y021407D03*
X025898Y021722D03*
X025583Y021722D03*
X025268Y021722D03*
X025583Y020778D03*
X025898Y020778D03*
X025898Y020463D03*
X025583Y020463D03*
X025583Y020148D03*
X025583Y019833D03*
X025583Y019518D03*
X025583Y019203D03*
X025583Y018888D03*
X025583Y018573D03*
X025583Y018258D03*
X025583Y017943D03*
X025583Y017628D03*
X025583Y017313D03*
X025898Y017628D03*
X025898Y018258D03*
X025898Y018888D03*
X025898Y019203D03*
X025898Y019518D03*
X025898Y019833D03*
X025898Y020148D03*
X024009Y021722D03*
X023694Y021722D03*
D11*
X021683Y021678D03*
X021683Y021228D03*
X021683Y020778D03*
X021683Y020328D03*
X021683Y019878D03*
X021683Y019428D03*
X021683Y018978D03*
X021683Y018528D03*
X021683Y018078D03*
X021683Y017628D03*
X021683Y017178D03*
X021683Y016728D03*
X021683Y016278D03*
X021683Y015828D03*
X021683Y015378D03*
X021683Y014928D03*
X021683Y014478D03*
X021683Y014028D03*
X021171Y014028D03*
X021171Y014478D03*
X021171Y014928D03*
X021171Y015378D03*
X021171Y015828D03*
X021171Y016278D03*
X021171Y016728D03*
X021171Y017178D03*
X021171Y017628D03*
X021171Y018078D03*
X021171Y018528D03*
X021171Y018978D03*
X021171Y019428D03*
X021171Y019878D03*
X021171Y020328D03*
X021171Y020778D03*
X021171Y021228D03*
X021171Y021678D03*
X021171Y022128D03*
X021171Y022578D03*
X021171Y023028D03*
X021171Y023478D03*
X021171Y023928D03*
X021171Y024378D03*
X021171Y024828D03*
X021683Y024828D03*
X021683Y024378D03*
X021683Y023928D03*
X021683Y023478D03*
X021683Y023028D03*
X021683Y022578D03*
X021683Y022128D03*
X027311Y020168D03*
X027311Y019688D03*
X027823Y019688D03*
X027823Y020168D03*
X027823Y019208D03*
X027311Y019208D03*
X017653Y008968D03*
X017653Y008318D03*
X017141Y008318D03*
X017141Y008968D03*
X017141Y007718D03*
X017653Y007718D03*
X017553Y006818D03*
X017041Y006818D03*
X016453Y006818D03*
X015941Y006818D03*
X014523Y007328D03*
X014011Y007328D03*
X024611Y008338D03*
X025123Y008338D03*
X014903Y023048D03*
X014391Y023048D03*
X014401Y024958D03*
X014913Y024958D03*
X009133Y020908D03*
X008621Y020908D03*
X008621Y020388D03*
X009133Y020388D03*
D12*
X010077Y021562D03*
X010077Y022074D03*
X007727Y022074D03*
X007727Y021562D03*
X007677Y023662D03*
X007677Y024174D03*
X012577Y024512D03*
X012577Y025024D03*
X013987Y026382D03*
X014487Y026382D03*
X014487Y026894D03*
X013987Y026894D03*
X015177Y026894D03*
X015677Y026894D03*
X015677Y026382D03*
X015177Y026382D03*
X016387Y026382D03*
X016887Y026382D03*
X016887Y026894D03*
X016387Y026894D03*
X017447Y026894D03*
X017447Y026382D03*
X010327Y029512D03*
X010327Y030024D03*
X008127Y031612D03*
X008127Y032124D03*
X008077Y030024D03*
X008077Y029512D03*
X009827Y017774D03*
X009827Y017262D03*
X010427Y017262D03*
X010427Y017774D03*
X014477Y012634D03*
X014957Y012624D03*
X014957Y012112D03*
X014477Y012122D03*
X015457Y012102D03*
X015957Y012102D03*
X016457Y012102D03*
X016457Y012614D03*
X015957Y012614D03*
X015457Y012614D03*
X016957Y012614D03*
X017457Y012614D03*
X017957Y012614D03*
X017957Y012102D03*
X017457Y012102D03*
X016957Y012102D03*
X018547Y011064D03*
X019047Y011064D03*
X019537Y011074D03*
X019537Y010562D03*
X019047Y010552D03*
X018547Y010552D03*
X019147Y012092D03*
X019147Y012604D03*
X017947Y014972D03*
X017477Y014972D03*
X017477Y015484D03*
X017947Y015484D03*
X026697Y013874D03*
X026697Y013362D03*
X027177Y013362D03*
X027677Y013362D03*
X028177Y013362D03*
X028177Y013874D03*
X027677Y013874D03*
X027177Y013874D03*
X028677Y013874D03*
X029177Y013874D03*
X029677Y013874D03*
X029677Y013362D03*
X029177Y013362D03*
X028677Y013362D03*
X030177Y013362D03*
X030677Y013362D03*
X031177Y013362D03*
X031177Y013874D03*
X030677Y013874D03*
X030177Y013874D03*
X031677Y013874D03*
X032177Y013874D03*
X032177Y013362D03*
X031677Y013362D03*
X031637Y011794D03*
X032137Y011794D03*
X032137Y011282D03*
X031637Y011282D03*
X031127Y011282D03*
X030647Y011282D03*
X030127Y011282D03*
X029647Y011282D03*
X029127Y011282D03*
X029127Y011794D03*
X029647Y011794D03*
X030127Y011794D03*
X030647Y011794D03*
X031127Y011794D03*
X031107Y010084D03*
X030627Y010084D03*
X030127Y010084D03*
X030127Y009572D03*
X030627Y009572D03*
X031107Y009572D03*
X031627Y009572D03*
X032127Y009572D03*
X032127Y010084D03*
X031627Y010084D03*
X029627Y010084D03*
X029127Y010084D03*
X029127Y009572D03*
X029627Y009572D03*
X029837Y015412D03*
X030337Y015412D03*
X030837Y015412D03*
X031337Y015412D03*
X031837Y015412D03*
X032337Y015412D03*
X032837Y015412D03*
X033317Y015402D03*
X033317Y015914D03*
X032837Y015924D03*
X032337Y015924D03*
X031837Y015924D03*
X031337Y015924D03*
X030837Y015924D03*
X030337Y015924D03*
X029837Y015924D03*
X029337Y015924D03*
X028837Y015924D03*
X028837Y015412D03*
X029337Y015412D03*
X029147Y017522D03*
X029627Y017522D03*
X029627Y018034D03*
X029147Y018034D03*
X030147Y018034D03*
X030627Y018034D03*
X030627Y017522D03*
X030147Y017522D03*
X031147Y017522D03*
X031147Y018034D03*
X031647Y018034D03*
X032147Y018034D03*
X032147Y017522D03*
X031647Y017522D03*
X031647Y019522D03*
X032147Y019522D03*
X032147Y020034D03*
X031647Y020034D03*
X031127Y020034D03*
X030647Y020034D03*
X030147Y020034D03*
X030147Y019522D03*
X030647Y019522D03*
X031127Y019522D03*
X029647Y019522D03*
X029147Y019522D03*
X029147Y020034D03*
X029647Y020034D03*
X029687Y021272D03*
X029187Y021272D03*
X029187Y021784D03*
X029687Y021784D03*
X030187Y021784D03*
X030697Y021784D03*
X031197Y021784D03*
X031197Y021272D03*
X030697Y021272D03*
X030187Y021272D03*
X031697Y021272D03*
X032177Y021272D03*
X032177Y021784D03*
X031697Y021784D03*
X019927Y005684D03*
X019927Y005172D03*
X020897Y005112D03*
X020897Y005624D03*
X011857Y004654D03*
X011357Y004654D03*
X010867Y004654D03*
X010367Y004654D03*
X009867Y004654D03*
X009367Y004654D03*
X008867Y004654D03*
X008367Y004654D03*
X007877Y004654D03*
X007377Y004654D03*
X007377Y004142D03*
X007877Y004142D03*
X008367Y004142D03*
X008867Y004142D03*
X009367Y004142D03*
X009867Y004142D03*
X010367Y004142D03*
X010867Y004142D03*
X011357Y004142D03*
X011857Y004142D03*
X006827Y004142D03*
X006317Y004152D03*
X006317Y004664D03*
X006827Y004654D03*
D13*
X004507Y008704D03*
X004507Y009413D03*
X004537Y009944D03*
X004537Y010653D03*
X014987Y010704D03*
X014987Y011413D03*
X016427Y011413D03*
X016427Y010704D03*
X017997Y010454D03*
X017997Y011163D03*
X018557Y011904D03*
X018557Y012613D03*
X019757Y012613D03*
X019757Y011904D03*
X016937Y014284D03*
X016937Y014993D03*
X016297Y014994D03*
X016297Y015703D03*
X013177Y023164D03*
X013177Y023873D03*
X013177Y024414D03*
X013177Y025123D03*
X028237Y016023D03*
X028237Y015314D03*
X028397Y017424D03*
X028397Y018133D03*
X032897Y018133D03*
X032897Y017424D03*
X030617Y008143D03*
X029917Y008143D03*
X029247Y008143D03*
X029247Y007434D03*
X029917Y007434D03*
X030617Y007434D03*
X021837Y005733D03*
X021837Y005024D03*
D14*
X021824Y006639D02*
X021824Y006895D01*
X021667Y006895D02*
X021667Y006639D01*
X021509Y006639D02*
X021509Y006895D01*
X021352Y006895D02*
X021352Y006639D01*
X021194Y006639D02*
X021194Y006895D01*
X021037Y006895D02*
X021037Y006639D01*
X020879Y006639D02*
X020879Y006895D01*
X020722Y006895D02*
X020722Y006639D01*
X020546Y007071D02*
X020290Y007071D01*
X020290Y007229D02*
X020546Y007229D01*
X020546Y007386D02*
X020290Y007386D01*
X020290Y007544D02*
X020546Y007544D01*
X020546Y007701D02*
X020290Y007701D01*
X020290Y007859D02*
X020546Y007859D01*
X020546Y008016D02*
X020290Y008016D01*
X020290Y008174D02*
X020546Y008174D01*
X020546Y008331D02*
X020290Y008331D01*
X020290Y008489D02*
X020546Y008489D01*
X020546Y008646D02*
X020290Y008646D01*
X020290Y008804D02*
X020546Y008804D01*
X020722Y008982D02*
X020722Y009238D01*
X020879Y009238D02*
X020879Y008982D01*
X021037Y008982D02*
X021037Y009238D01*
X021194Y009238D02*
X021194Y008982D01*
X021352Y008982D02*
X021352Y009238D01*
X021509Y009238D02*
X021509Y008982D01*
X021667Y008982D02*
X021667Y009238D01*
X021824Y009238D02*
X021824Y008982D01*
X021982Y008982D02*
X021982Y009238D01*
X022139Y009238D02*
X022139Y008982D01*
X022297Y008982D02*
X022297Y009238D01*
X022454Y009238D02*
X022454Y008982D01*
X022632Y008804D02*
X022888Y008804D01*
X022888Y008646D02*
X022632Y008646D01*
X022632Y008489D02*
X022888Y008489D01*
X022888Y008331D02*
X022632Y008331D01*
X022632Y008174D02*
X022888Y008174D01*
X022888Y008016D02*
X022632Y008016D01*
X022632Y007859D02*
X022888Y007859D01*
X022888Y007701D02*
X022632Y007701D01*
X022632Y007544D02*
X022888Y007544D01*
X022888Y007386D02*
X022632Y007386D01*
X022632Y007229D02*
X022888Y007229D01*
X022888Y007071D02*
X022632Y007071D01*
X022454Y006895D02*
X022454Y006639D01*
X022297Y006639D02*
X022297Y006895D01*
X022139Y006895D02*
X022139Y006639D01*
X021982Y006639D02*
X021982Y006895D01*
D15*
X022080Y007268D03*
X022084Y007863D03*
X022086Y008430D03*
X021509Y008430D03*
X021509Y007863D03*
X021513Y007280D03*
X020919Y007272D03*
X020919Y007859D03*
X020923Y008430D03*
D16*
X015240Y013806D03*
X015242Y015068D03*
X012995Y015068D03*
X012995Y013808D03*
D17*
X014237Y023669D03*
X014237Y024299D03*
X015104Y024299D03*
X015104Y023669D03*
D18*
X027672Y004178D02*
X027672Y003984D01*
X027672Y004178D02*
X027828Y004178D01*
X027828Y003984D01*
X027672Y003984D01*
X027672Y004017D02*
X027828Y004017D01*
X027828Y004050D02*
X027672Y004050D01*
X027672Y004083D02*
X027828Y004083D01*
X027828Y004116D02*
X027672Y004116D01*
X027672Y004149D02*
X027828Y004149D01*
X027869Y004178D02*
X027869Y003984D01*
X027869Y004178D02*
X028025Y004178D01*
X028025Y003984D01*
X027869Y003984D01*
X027869Y004017D02*
X028025Y004017D01*
X028025Y004050D02*
X027869Y004050D01*
X027869Y004083D02*
X028025Y004083D01*
X028025Y004116D02*
X027869Y004116D01*
X027869Y004149D02*
X028025Y004149D01*
X028066Y004178D02*
X028066Y003984D01*
X028066Y004178D02*
X028222Y004178D01*
X028222Y003984D01*
X028066Y003984D01*
X028066Y004017D02*
X028222Y004017D01*
X028222Y004050D02*
X028066Y004050D01*
X028066Y004083D02*
X028222Y004083D01*
X028222Y004116D02*
X028066Y004116D01*
X028066Y004149D02*
X028222Y004149D01*
X028066Y003430D02*
X028066Y003236D01*
X028066Y003430D02*
X028222Y003430D01*
X028222Y003236D01*
X028066Y003236D01*
X028066Y003269D02*
X028222Y003269D01*
X028222Y003302D02*
X028066Y003302D01*
X028066Y003335D02*
X028222Y003335D01*
X028222Y003368D02*
X028066Y003368D01*
X028066Y003401D02*
X028222Y003401D01*
X027869Y003430D02*
X027869Y003236D01*
X027869Y003430D02*
X028025Y003430D01*
X028025Y003236D01*
X027869Y003236D01*
X027869Y003269D02*
X028025Y003269D01*
X028025Y003302D02*
X027869Y003302D01*
X027869Y003335D02*
X028025Y003335D01*
X028025Y003368D02*
X027869Y003368D01*
X027869Y003401D02*
X028025Y003401D01*
X027672Y003430D02*
X027672Y003236D01*
X027672Y003430D02*
X027828Y003430D01*
X027828Y003236D01*
X027672Y003236D01*
X027672Y003269D02*
X027828Y003269D01*
X027828Y003302D02*
X027672Y003302D01*
X027672Y003335D02*
X027828Y003335D01*
X027828Y003368D02*
X027672Y003368D01*
X027672Y003401D02*
X027828Y003401D01*
D19*
X027947Y003708D03*
D20*
X026947Y004033D03*
X026947Y003364D03*
D21*
X014865Y007922D03*
X014865Y008119D03*
X014865Y008315D03*
X014865Y008512D03*
X013644Y008512D03*
X013644Y008315D03*
X013644Y008119D03*
X013644Y007922D03*
D22*
X025412Y007167D03*
X025408Y005828D03*
X025422Y009020D03*
X025426Y010358D03*
D23*
X022767Y011249D03*
X021389Y011249D03*
D24*
X017701Y009668D03*
X016993Y009668D03*
X016411Y008968D03*
X015703Y008968D03*
X015723Y007798D03*
X016431Y007798D03*
X016843Y006118D03*
X016843Y005418D03*
X017551Y005418D03*
X017551Y006118D03*
X007241Y010938D03*
X006533Y010938D03*
D25*
X019917Y004522D03*
X019917Y003695D03*
D26*
X007027Y015705D03*
X007027Y018067D03*
D27*
X006751Y019071D03*
X006751Y015233D03*
D28*
X005353Y013865D03*
X005865Y019573D03*
D29*
X002857Y019573D03*
X002582Y019573D03*
X002306Y019573D03*
X002030Y019573D03*
X002030Y013865D03*
X002306Y013865D03*
X002582Y013865D03*
X002853Y013865D03*
D30*
X001534Y013904D03*
X001534Y019534D03*
D31*
X009851Y019309D03*
X010501Y019309D03*
X010501Y018559D03*
X009851Y018559D03*
D32*
X007226Y001914D03*
X005887Y001907D03*
D33*
X006556Y002560D03*
D34*
X005695Y008643D03*
X005695Y008899D03*
X005695Y009155D03*
X005695Y009411D03*
X005695Y009667D03*
X005695Y009923D03*
X005695Y010179D03*
X005695Y010435D03*
X008077Y010435D03*
X008077Y010179D03*
X008077Y009923D03*
X008077Y009667D03*
X008077Y009411D03*
X008077Y009155D03*
X008077Y008899D03*
X008077Y008643D03*
D35*
X002207Y008418D03*
X002207Y009418D03*
X002207Y010418D03*
X002227Y006268D03*
X002227Y005268D03*
X012877Y002068D03*
X013877Y002068D03*
X014877Y002068D03*
X015877Y002068D03*
X016877Y002068D03*
X017877Y002068D03*
X018877Y002068D03*
X019877Y002068D03*
X020877Y002068D03*
X021877Y002068D03*
X022877Y002068D03*
X023877Y002068D03*
X024877Y002068D03*
X025877Y002068D03*
X016877Y033068D03*
X015877Y033068D03*
X014877Y033068D03*
X013877Y033068D03*
X012877Y033068D03*
X012877Y034068D03*
X013877Y034068D03*
X013877Y035068D03*
X012877Y035068D03*
X014877Y035068D03*
X014877Y034068D03*
X015877Y034068D03*
X016877Y034068D03*
X016877Y035068D03*
X015877Y035068D03*
X017877Y035068D03*
X017877Y034068D03*
X018877Y034068D03*
X018877Y035068D03*
X019877Y035068D03*
X019877Y034068D03*
X020877Y034068D03*
X020877Y035068D03*
X021877Y035068D03*
X021877Y034068D03*
X022877Y034068D03*
X022877Y035068D03*
X023877Y035068D03*
X023877Y034068D03*
D36*
X030789Y005574D02*
X031889Y005574D01*
D37*
X030158Y004370D02*
X030158Y003070D01*
D38*
X032520Y003145D02*
X032520Y004295D01*
D39*
X032520Y004311D03*
X032520Y004271D03*
X032520Y004212D03*
X032520Y004173D03*
X032520Y004133D03*
X032520Y004074D03*
X032520Y004015D03*
X032520Y003956D03*
X032520Y003897D03*
X032520Y003838D03*
X032520Y003779D03*
X032520Y003661D03*
X032520Y003602D03*
X032520Y003543D03*
X032520Y003484D03*
X032520Y003425D03*
X032520Y003366D03*
X032520Y003307D03*
X032520Y003248D03*
X032520Y003189D03*
X032520Y003129D03*
X032520Y003070D03*
X032520Y003031D03*
X032520Y004370D03*
X032520Y004409D03*
X032028Y005570D03*
X032008Y005570D03*
X031969Y005570D03*
X031929Y005570D03*
X031890Y005570D03*
X031850Y005570D03*
X031811Y005570D03*
X031772Y005570D03*
X031732Y005570D03*
X031693Y005570D03*
X031654Y005570D03*
X031614Y005570D03*
X031575Y005570D03*
X031536Y005570D03*
X031496Y005570D03*
X031457Y005570D03*
X031417Y005570D03*
X031378Y005570D03*
X031299Y005570D03*
X031260Y005570D03*
X031221Y005570D03*
X031181Y005570D03*
X031142Y005570D03*
X031102Y005570D03*
X031063Y005570D03*
X031024Y005570D03*
X030984Y005570D03*
X030945Y005570D03*
X030906Y005570D03*
X030866Y005570D03*
X030827Y005570D03*
X030787Y005570D03*
X030748Y005570D03*
X030709Y005570D03*
X030669Y005570D03*
X030650Y005570D03*
D40*
X030158Y004507D03*
X030158Y004468D03*
X030158Y004429D03*
X030158Y004389D03*
X030158Y004350D03*
X030158Y004311D03*
X030158Y004271D03*
X030158Y004232D03*
X030158Y004192D03*
X030158Y004153D03*
X030158Y004114D03*
X030158Y004074D03*
X030158Y004035D03*
X030158Y003996D03*
X030158Y003956D03*
X030158Y003917D03*
X030158Y003877D03*
X030158Y003838D03*
X030158Y003799D03*
X030158Y003759D03*
X030158Y003681D03*
X030158Y003641D03*
X030158Y003602D03*
X030158Y003563D03*
X030158Y003523D03*
X030158Y003484D03*
X030158Y003444D03*
X030158Y003405D03*
X030158Y003366D03*
X030158Y003326D03*
X030158Y003287D03*
X030158Y003248D03*
X030158Y003208D03*
X030158Y003169D03*
X030158Y003129D03*
X030158Y003090D03*
X030158Y003051D03*
X030158Y003011D03*
X030158Y002972D03*
X030158Y002933D03*
D41*
X008907Y022838D03*
X009217Y030778D03*
D42*
X009335Y029991D03*
X009591Y029991D03*
X009079Y029991D03*
X008823Y029991D03*
X008823Y031605D03*
X009079Y031605D03*
X009355Y031605D03*
X009611Y031605D03*
X009301Y023665D03*
X009045Y023665D03*
X008769Y023665D03*
X008513Y023665D03*
X008513Y022051D03*
X008769Y022051D03*
X009025Y022051D03*
X009281Y022051D03*
D43*
X007574Y022715D03*
X007377Y022715D03*
X007180Y022715D03*
X007180Y023022D03*
X007377Y023022D03*
X007574Y023022D03*
X007577Y030715D03*
X007774Y030715D03*
X007774Y031022D03*
X007577Y031022D03*
X007380Y031022D03*
X007380Y030715D03*
D44*
X009216Y032884D03*
X009216Y034892D03*
X008966Y026942D03*
X008966Y024934D03*
D45*
X004966Y026057D03*
X004946Y027720D03*
X004946Y032917D03*
X004966Y020860D03*
D46*
X006029Y022080D03*
X006029Y023065D03*
X006029Y023852D03*
X006029Y024836D03*
X006009Y028940D03*
X006009Y029925D03*
X006009Y030712D03*
X006009Y031696D03*
D47*
X007067Y031338D03*
X007767Y031298D03*
X007477Y030208D03*
X008077Y029168D03*
X008827Y029388D03*
X009547Y029388D03*
X010307Y029178D03*
X009397Y030608D03*
X009387Y030928D03*
X009047Y030918D03*
X009047Y030608D03*
X009627Y032128D03*
X009177Y032218D03*
X008807Y032198D03*
X008117Y032438D03*
X008357Y034898D03*
X013587Y028728D03*
X014387Y028748D03*
X014697Y029028D03*
X015447Y028728D03*
X016037Y028738D03*
X016597Y028728D03*
X016592Y029088D03*
X016547Y029388D03*
X016477Y029698D03*
X017597Y028708D03*
X016297Y027288D03*
X015277Y027258D03*
X014487Y027228D03*
X013597Y026888D03*
X012577Y025308D03*
X012027Y025068D03*
X011777Y024768D03*
X011477Y025068D03*
X011477Y024418D03*
X012077Y024418D03*
X012747Y022368D03*
X013237Y021638D03*
X013227Y021328D03*
X013547Y021318D03*
X013547Y020998D03*
X013537Y020688D03*
X013547Y020378D03*
X013847Y020378D03*
X013857Y019748D03*
X014177Y019758D03*
X014487Y020048D03*
X014477Y020378D03*
X014487Y020998D03*
X014477Y021338D03*
X014487Y021648D03*
X014487Y021948D03*
X014167Y021958D03*
X014057Y022368D03*
X014497Y022273D03*
X015117Y021648D03*
X015427Y021638D03*
X015427Y021958D03*
X015107Y021318D03*
X015117Y020998D03*
X015427Y020698D03*
X015117Y020388D03*
X015117Y020078D03*
X015127Y019748D03*
X015117Y019428D03*
X015127Y019118D03*
X014787Y018798D03*
X014477Y018798D03*
X014477Y018488D03*
X014167Y018498D03*
X013857Y018498D03*
X013547Y018488D03*
X013227Y018498D03*
X013237Y018178D03*
X013542Y017868D03*
X013857Y018178D03*
X013847Y017538D03*
X013227Y017228D03*
X013207Y017538D03*
X012887Y017548D03*
X012897Y016928D03*
X012737Y016468D03*
X013037Y015838D03*
X013757Y014398D03*
X013497Y013828D03*
X014587Y013668D03*
X015187Y013288D03*
X014477Y012948D03*
X014977Y011818D03*
X015452Y011728D03*
X015922Y011463D03*
X016447Y011738D03*
X016957Y011453D03*
X016827Y010698D03*
X017507Y010488D03*
X016637Y009638D03*
X016787Y008968D03*
X016827Y008318D03*
X016797Y007738D03*
X015607Y006818D03*
X015387Y007778D03*
X015267Y008768D03*
X014977Y009228D03*
X014947Y009558D03*
X014887Y009898D03*
X014557Y009558D03*
X014607Y009218D03*
X014647Y008888D03*
X014187Y009188D03*
X015327Y009578D03*
X014967Y010368D03*
X016477Y012918D03*
X016957Y012918D03*
X016787Y013638D03*
X017277Y013668D03*
X017747Y013308D03*
X017957Y012968D03*
X018257Y013028D03*
X018557Y013073D03*
X018377Y013368D03*
X018077Y013568D03*
X017857Y013798D03*
X018237Y014108D03*
X018377Y013768D03*
X019147Y012968D03*
X019757Y012968D03*
X019467Y012208D03*
X019167Y011758D03*
X019047Y011388D03*
X018547Y011378D03*
X017987Y011488D03*
X017707Y011768D03*
X018277Y012258D03*
X019527Y011378D03*
X019862Y010973D03*
X019907Y010568D03*
X020387Y009678D03*
X020687Y009708D03*
X020917Y009528D03*
X021197Y009418D03*
X021277Y008808D03*
X020797Y008808D03*
X020917Y007878D03*
X020917Y007268D03*
X021507Y007268D03*
X021507Y007878D03*
X022067Y007258D03*
X022462Y008098D03*
X022467Y008408D03*
X022447Y008798D03*
X022372Y009418D03*
X022017Y009618D03*
X021797Y009838D03*
X021887Y008798D03*
X023102Y007543D03*
X023357Y007813D03*
X023602Y007228D03*
X023117Y006928D03*
X022047Y006118D03*
X021127Y006358D03*
X020867Y006148D03*
X020907Y004808D03*
X021077Y004228D03*
X021417Y004228D03*
X021717Y003918D03*
X022097Y003933D03*
X022767Y003888D03*
X023127Y003878D03*
X023247Y003188D03*
X023927Y004578D03*
X024637Y004578D03*
X025357Y004578D03*
X025767Y003548D03*
X026927Y002968D03*
X027827Y003068D03*
X028227Y004368D03*
X029277Y007018D03*
X029927Y007018D03*
X030627Y007018D03*
X030627Y008518D03*
X029927Y008518D03*
X029227Y008518D03*
X029127Y009218D03*
X029627Y009218D03*
X030127Y009218D03*
X030627Y009218D03*
X031127Y009218D03*
X031627Y009218D03*
X032177Y009218D03*
X032127Y010418D03*
X031627Y010418D03*
X031077Y010418D03*
X030627Y010418D03*
X030127Y010418D03*
X029627Y010418D03*
X029127Y010418D03*
X029127Y010968D03*
X029627Y010968D03*
X030127Y010968D03*
X030677Y010968D03*
X031127Y010968D03*
X031627Y010968D03*
X032177Y010968D03*
X032127Y012118D03*
X031627Y012118D03*
X031127Y012118D03*
X030627Y012118D03*
X030127Y012118D03*
X029627Y012118D03*
X029127Y012118D03*
X029177Y013018D03*
X029677Y013018D03*
X030177Y013018D03*
X030677Y013018D03*
X031177Y013018D03*
X031677Y013018D03*
X032177Y013018D03*
X032157Y014238D03*
X031667Y014248D03*
X031157Y014218D03*
X030667Y014228D03*
X030157Y014228D03*
X029687Y014228D03*
X029177Y014218D03*
X028657Y014208D03*
X028167Y014228D03*
X027667Y014218D03*
X027167Y014218D03*
X026697Y014218D03*
X027677Y013018D03*
X028177Y013018D03*
X028677Y013018D03*
X026977Y012168D03*
X026677Y011868D03*
X026377Y012168D03*
X026077Y011868D03*
X025777Y012168D03*
X025377Y011868D03*
X025777Y011468D03*
X026377Y011468D03*
X026977Y011468D03*
X028247Y014968D03*
X028837Y015048D03*
X029357Y015068D03*
X029837Y015058D03*
X030347Y015058D03*
X030847Y015068D03*
X031347Y015068D03*
X031847Y015068D03*
X032357Y015058D03*
X032857Y015068D03*
X033327Y015078D03*
X033277Y016218D03*
X032827Y016218D03*
X032327Y016218D03*
X031827Y016218D03*
X031327Y016218D03*
X030827Y016218D03*
X030327Y016218D03*
X029827Y016218D03*
X029327Y016218D03*
X028827Y016218D03*
X028227Y016368D03*
X028377Y017068D03*
X029127Y017218D03*
X029627Y017218D03*
X030177Y017218D03*
X030627Y017218D03*
X031127Y017218D03*
X031677Y017218D03*
X032177Y017218D03*
X032877Y017068D03*
X032897Y018458D03*
X032147Y018368D03*
X031647Y018358D03*
X031147Y018358D03*
X030627Y018348D03*
X030147Y018358D03*
X029627Y018358D03*
X029147Y018358D03*
X028397Y018498D03*
X028177Y019218D03*
X028177Y019668D03*
X028187Y020168D03*
X029147Y020348D03*
X029647Y020358D03*
X030147Y020348D03*
X030647Y020358D03*
X031127Y020358D03*
X031647Y020358D03*
X032147Y020358D03*
X032177Y020968D03*
X031677Y020968D03*
X031177Y020968D03*
X030677Y020968D03*
X030177Y020968D03*
X029677Y020968D03*
X029177Y020968D03*
X029187Y022098D03*
X029687Y022098D03*
X030187Y022098D03*
X030697Y022108D03*
X031197Y022108D03*
X031697Y022098D03*
X032177Y022108D03*
X032177Y019168D03*
X031627Y019168D03*
X031127Y019168D03*
X030627Y019168D03*
X030177Y019168D03*
X029627Y019168D03*
X029127Y019168D03*
X026907Y019688D03*
X026072Y019673D03*
X026072Y019368D03*
X025727Y019368D03*
X025427Y019368D03*
X025417Y019688D03*
X025437Y019993D03*
X025437Y020308D03*
X025447Y020618D03*
X025427Y020913D03*
X025427Y021233D03*
X025422Y021583D03*
X026057Y021858D03*
X026067Y021238D03*
X025757Y020928D03*
X026112Y020608D03*
X026107Y020298D03*
X026077Y019978D03*
X025747Y019678D03*
X024977Y020468D03*
X024662Y020778D03*
X024277Y020893D03*
X024222Y021408D03*
X023867Y021248D03*
X023857Y021568D03*
X023557Y021568D03*
X023242Y021253D03*
X022977Y021133D03*
X022847Y020793D03*
X023227Y020608D03*
X023537Y020618D03*
X023852Y020623D03*
X023852Y020288D03*
X023537Y019968D03*
X023537Y019668D03*
X023547Y019358D03*
X023547Y019058D03*
X023217Y019338D03*
X022937Y019688D03*
X023187Y019943D03*
X023857Y019683D03*
X023857Y019368D03*
X024267Y019368D03*
X024427Y019678D03*
X024357Y020018D03*
X024997Y018568D03*
X024902Y018168D03*
X024572Y017943D03*
X024702Y017568D03*
X024487Y016923D03*
X023892Y017068D03*
X023667Y016858D03*
X023252Y017473D03*
X022967Y017408D03*
X022672Y017398D03*
X022182Y017578D03*
X021967Y017318D03*
X021962Y016763D03*
X022277Y017958D03*
X021992Y018148D03*
X022187Y018368D03*
X022142Y018668D03*
X022412Y018808D03*
X021967Y018948D03*
X022617Y018078D03*
X022922Y018048D03*
X023217Y018088D03*
X023542Y017798D03*
X023852Y017798D03*
X024162Y018108D03*
X023867Y018408D03*
X023537Y018438D03*
X024442Y018483D03*
X025427Y018398D03*
X025727Y018408D03*
X025897Y018673D03*
X026107Y018888D03*
X026147Y018398D03*
X026077Y017768D03*
X025767Y017788D03*
X025727Y017478D03*
X025427Y017468D03*
X025427Y018708D03*
X022762Y020388D03*
X022302Y020503D03*
X021982Y020343D03*
X022322Y020128D03*
X021972Y020773D03*
X021967Y021218D03*
X022337Y021363D03*
X022157Y021663D03*
X022047Y022218D03*
X021997Y022518D03*
X022277Y022738D03*
X022507Y022533D03*
X022707Y022308D03*
X022897Y022608D03*
X023482Y022633D03*
X024372Y022473D03*
X024792Y022238D03*
X024577Y021763D03*
X020827Y018288D03*
X020797Y016238D03*
X020712Y015783D03*
X020417Y015458D03*
X022102Y014928D03*
X018307Y014978D03*
X017082Y015298D03*
X017107Y016098D03*
X016287Y016548D03*
X016387Y016918D03*
X016367Y017548D03*
X016687Y017568D03*
X016997Y017548D03*
X016987Y017238D03*
X017317Y017218D03*
X017637Y017223D03*
X017637Y016908D03*
X018117Y016508D03*
X017312Y017558D03*
X017317Y017868D03*
X017317Y018178D03*
X017007Y018168D03*
X017317Y018488D03*
X017632Y018513D03*
X017627Y018808D03*
X017317Y019118D03*
X017327Y019438D03*
X017637Y019438D03*
X017317Y019748D03*
X017317Y020068D03*
X017317Y020378D03*
X017317Y020688D03*
X017628Y020708D03*
X017633Y021037D03*
X017323Y021000D03*
X017007Y021330D03*
X016697Y021318D03*
X016377Y021328D03*
X016057Y021008D03*
X016377Y020688D03*
X016377Y020378D03*
X016687Y020698D03*
X016387Y019748D03*
X016067Y019438D03*
X016377Y019118D03*
X016377Y018488D03*
X016377Y018168D03*
X016047Y017858D03*
X015747Y017858D03*
X015737Y017558D03*
X015747Y017218D03*
X015427Y017248D03*
X015127Y017228D03*
X015427Y016928D03*
X015592Y016243D03*
X014777Y014958D03*
X014807Y017548D03*
X015127Y017868D03*
X015437Y017858D03*
X015747Y018168D03*
X015757Y018488D03*
X015737Y019108D03*
X015747Y019758D03*
X015737Y020068D03*
X015747Y020378D03*
X014487Y019438D03*
X013857Y019118D03*
X013527Y019118D03*
X012917Y018808D03*
X011623Y017825D03*
X011629Y017536D03*
X011327Y017518D03*
X011327Y017818D03*
X010827Y017718D03*
X010847Y017128D03*
X011237Y016998D03*
X009547Y015788D03*
X009407Y017248D03*
X009157Y017838D03*
X009297Y019628D03*
X009497Y020388D03*
X010067Y021198D03*
X010917Y021058D03*
X011217Y019918D03*
X010977Y018938D03*
X009067Y021398D03*
X008297Y020638D03*
X007727Y021218D03*
X007192Y022323D03*
X007577Y023298D03*
X007177Y023428D03*
X007697Y024488D03*
X008507Y024228D03*
X008917Y024258D03*
X009307Y024208D03*
X009087Y022978D03*
X009087Y022678D03*
X008717Y022678D03*
X008717Y022988D03*
X008107Y026918D03*
X013857Y020998D03*
X013227Y020698D03*
X014797Y018478D03*
X014487Y017868D03*
X017017Y018808D03*
X017007Y019428D03*
X017635Y020045D03*
X017633Y020377D03*
X017957Y021328D03*
X017967Y021638D03*
X017633Y021961D03*
X017297Y021638D03*
X017007Y021648D03*
X016597Y022788D03*
X016637Y023208D03*
X018107Y022358D03*
X018007Y024308D03*
X018297Y024468D03*
X019247Y024788D03*
X020067Y023148D03*
X020267Y022708D03*
X020287Y021198D03*
X017637Y018178D03*
X017627Y017848D03*
X012207Y014158D03*
X011647Y013668D03*
X010797Y012748D03*
X009807Y012778D03*
X008377Y010468D03*
X008597Y009748D03*
X007777Y009178D03*
X007617Y008718D03*
X007597Y010258D03*
X007637Y010968D03*
X006177Y010968D03*
X005252Y010298D03*
X005287Y009063D03*
X003757Y009068D03*
X003777Y010418D03*
X003357Y014248D03*
X003477Y014868D03*
X002977Y014878D03*
X002477Y014908D03*
X002037Y014348D03*
X003977Y015168D03*
X004567Y015068D03*
X004547Y016708D03*
X003987Y016718D03*
X003487Y016718D03*
X002987Y016728D03*
X002487Y016708D03*
X002477Y018518D03*
X002977Y018528D03*
X003477Y018478D03*
X004567Y018068D03*
X004797Y018728D03*
X005707Y018558D03*
X002307Y020008D03*
X007247Y015168D03*
X011427Y015068D03*
X013577Y007568D03*
X011877Y004968D03*
X011377Y004968D03*
X010877Y004968D03*
X010377Y004968D03*
X009877Y004968D03*
X009377Y004968D03*
X008877Y004968D03*
X008377Y004968D03*
X007877Y004968D03*
X007377Y004968D03*
X007377Y003788D03*
X007867Y003808D03*
X008357Y003798D03*
X008867Y003788D03*
X009377Y003778D03*
X009867Y003788D03*
X010367Y003788D03*
X010887Y003808D03*
X011367Y003768D03*
X011887Y003798D03*
X016467Y005428D03*
X016457Y006118D03*
X017837Y005778D03*
X018097Y005648D03*
X017977Y005198D03*
X018577Y005168D03*
X018892Y005183D03*
X019217Y005558D03*
X018077Y007068D03*
X018457Y008398D03*
X019512Y008803D03*
X019757Y008613D03*
X019767Y007908D03*
X021837Y004638D03*
X022377Y004668D03*
X021397Y003538D03*
X019817Y003098D03*
X025132Y007893D03*
X026577Y007868D03*
X017447Y027198D03*
X020187Y029928D03*
X019827Y030268D03*
X018397Y030388D03*
X018087Y030538D03*
X017787Y030598D03*
X018637Y033088D03*
X018657Y033388D03*
X019177Y033368D03*
X019427Y033118D03*
X017957Y033358D03*
X015077Y030488D03*
X026807Y027718D03*
X006837Y003748D03*
X005437Y001878D03*
D48*
X017322Y021308D03*
D49*
X002377Y002568D03*
X002377Y034568D03*
X034377Y034568D03*
X034377Y007568D03*
M02*
