%
M48
M72
T01C0.0080
T02C0.0362
T03C0.0394
T04C0.0400
T05C0.0472
T06C0.0906
T07C0.1250
%
T01
X5437Y1878
X6837Y3748
X7377Y3788
X7867Y3808
X8357Y3798
X8867Y3788
X9377Y3778
X9867Y3788
X10367Y3788
X10887Y3808
X11367Y3768
X11887Y3798
X11877Y4968
X11377Y4968
X10877Y4968
X10377Y4968
X9877Y4968
X9377Y4968
X8877Y4968
X8377Y4968
X7877Y4968
X7377Y4968
X7617Y8718
X7777Y9178
X8597Y9748
X8377Y10468
X7597Y10258
X7637Y10968
X6177Y10968
X5252Y10298
X5287Y9063
X3757Y9068
X3777Y10418
X3357Y14248
X3477Y14868
X2977Y14878
X2477Y14908
X2037Y14348
X3977Y15168
X4567Y15068
X4547Y16708
X3987Y16718
X3487Y16718
X2987Y16728
X2487Y16708
X2477Y18518
X2977Y18528
X3477Y18478
X4567Y18068
X4797Y18728
X5707Y18558
X8297Y20638
X7727Y21218
X7192Y22323
X7577Y23298
X7177Y23428
X7697Y24488
X8507Y24228
X8917Y24258
X9307Y24208
X9087Y22978
X9087Y22678
X8717Y22678
X8717Y22988
X9067Y21398
X10067Y21198
X10917Y21058
X11217Y19918
X10977Y18938
X11327Y17818
X11623Y17825
X11629Y17536
X11327Y17518
X10827Y17718
X10847Y17128
X11237Y16998
X12737Y16468
X12897Y16928
X13227Y17228
X13207Y17538
X12887Y17548
X13542Y17868
X13237Y18178
X13227Y18498
X13547Y18488
X13857Y18498
X14167Y18498
X14477Y18488
X14477Y18798
X14787Y18798
X14797Y18478
X14487Y17868
X14807Y17548
X15127Y17228
X15427Y17248
X15427Y16928
X15747Y17218
X15737Y17558
X15747Y17858
X16047Y17858
X15747Y18168
X15757Y18488
X15437Y17858
X15127Y17868
X15127Y19118
X15117Y19428
X15127Y19748
X15117Y20078
X15117Y20388
X15427Y20698
X15117Y20998
X15107Y21318
X15117Y21648
X15427Y21638
X15427Y21958
X16377Y21328
X16697Y21318
X17007Y21330
X17322Y21308
X17323Y21000
X17317Y20688
X17317Y20378
X17317Y20068
X17635Y20045
X17633Y20377
X17628Y20708
X17633Y21037
X17957Y21328
X17967Y21638
X17633Y21961
X17297Y21638
X17007Y21648
X16687Y20698
X16377Y20688
X16377Y20378
X16387Y19748
X16067Y19438
X16377Y19118
X16377Y18488
X16377Y18168
X16367Y17548
X16687Y17568
X16997Y17548
X16987Y17238
X17317Y17218
X17637Y17223
X17637Y16908
X18117Y16508
X17107Y16098
X17082Y15298
X18307Y14978
X18237Y14108
X18377Y13768
X18077Y13568
X17857Y13798
X17747Y13308
X17957Y12968
X18257Y13028
X18557Y13073
X18377Y13368
X19147Y12968
X19757Y12968
X19467Y12208
X19167Y11758
X19047Y11388
X18547Y11378
X17987Y11488
X17707Y11768
X18277Y12258
X16957Y12918
X16477Y12918
X16787Y13638
X17277Y13668
X16447Y11738
X15922Y11463
X15452Y11728
X14977Y11818
X14477Y12948
X14587Y13668
X15187Y13288
X14777Y14958
X13757Y14398
X13497Y13828
X12207Y14158
X11647Y13668
X10797Y12748
X9807Y12778
X11427Y15068
X13037Y15838
X13847Y17538
X13857Y18178
X13857Y19118
X13527Y19118
X12917Y18808
X13857Y19748
X14177Y19758
X14487Y20048
X14477Y20378
X14487Y20998
X14477Y21338
X14487Y21648
X14487Y21948
X14167Y21958
X14057Y22368
X14497Y22273
X13547Y21318
X13547Y20998
X13537Y20688
X13547Y20378
X13847Y20378
X13227Y20698
X13857Y20998
X13227Y21328
X13237Y21638
X12747Y22368
X12077Y24418
X11777Y24768
X12027Y25068
X11477Y25068
X11477Y24418
X12577Y25308
X13597Y26888
X14487Y27228
X15277Y27258
X16297Y27288
X17447Y27198
X17597Y28708
X16597Y28728
X16592Y29088
X16547Y29388
X16477Y29698
X16037Y28738
X15447Y28728
X14697Y29028
X14387Y28748
X13587Y28728
X15077Y30488
X17787Y30598
X18087Y30538
X18397Y30388
X19827Y30268
X20187Y29928
X19427Y33118
X19177Y33368
X18657Y33388
X18637Y33088
X17957Y33358
X10307Y29178
X9547Y29388
X8827Y29388
X8077Y29168
X7477Y30208
X7767Y31298
X7067Y31338
X8117Y32438
X8807Y32198
X9177Y32218
X9627Y32128
X9387Y30928
X9397Y30608
X9047Y30608
X9047Y30918
X8107Y26918
X9497Y20388
X9297Y19628
X9157Y17838
X9407Y17248
X9547Y15788
X7247Y15168
X2307Y20008
X14187Y9188
X14607Y9218
X14647Y8888
X14977Y9228
X14947Y9558
X14887Y9898
X14557Y9558
X15327Y9578
X15267Y8768
X15387Y7778
X15607Y6818
X16457Y6118
X16467Y5428
X17837Y5778
X18097Y5648
X17977Y5198
X18577Y5168
X18892Y5183
X19217Y5558
X20867Y6148
X21127Y6358
X20917Y7268
X20917Y7878
X21507Y7878
X21507Y7268
X22067Y7258
X22462Y8098
X22467Y8408
X22447Y8798
X22372Y9418
X22017Y9618
X21797Y9838
X21197Y9418
X20917Y9528
X20687Y9708
X20387Y9678
X20797Y8808
X21277Y8808
X21887Y8798
X23102Y7543
X23357Y7813
X23602Y7228
X23117Y6928
X22047Y6118
X22377Y4668
X21837Y4638
X21417Y4228
X21077Y4228
X20907Y4808
X21717Y3918
X22097Y3933
X22767Y3888
X23127Y3878
X23247Y3188
X23927Y4578
X24637Y4578
X25357Y4578
X25767Y3548
X26927Y2968
X27827Y3068
X28227Y4368
X29277Y7018
X29927Y7018
X30627Y7018
X30627Y8518
X29927Y8518
X29227Y8518
X29127Y9218
X29627Y9218
X30127Y9218
X30627Y9218
X31127Y9218
X31627Y9218
X32177Y9218
X32127Y10418
X31627Y10418
X31077Y10418
X30627Y10418
X30127Y10418
X29627Y10418
X29127Y10418
X29127Y10968
X29627Y10968
X30127Y10968
X30677Y10968
X31127Y10968
X31627Y10968
X32177Y10968
X32127Y12118
X31627Y12118
X31127Y12118
X30627Y12118
X30127Y12118
X29627Y12118
X29127Y12118
X29177Y13018
X29677Y13018
X30177Y13018
X30677Y13018
X31177Y13018
X31677Y13018
X32177Y13018
X32157Y14238
X31667Y14248
X31157Y14218
X30667Y14228
X30157Y14228
X29687Y14228
X29177Y14218
X28657Y14208
X28167Y14228
X27667Y14218
X27167Y14218
X26697Y14218
X27677Y13018
X28177Y13018
X28677Y13018
X26977Y12168
X26677Y11868
X26377Y12168
X26077Y11868
X25777Y12168
X25377Y11868
X25777Y11468
X26377Y11468
X26977Y11468
X28247Y14968
X28837Y15048
X29357Y15068
X29837Y15058
X30347Y15058
X30847Y15068
X31347Y15068
X31847Y15068
X32357Y15058
X32857Y15068
X33327Y15078
X33277Y16218
X32827Y16218
X32327Y16218
X31827Y16218
X31327Y16218
X30827Y16218
X30327Y16218
X29827Y16218
X29327Y16218
X28827Y16218
X28227Y16368
X28377Y17068
X29127Y17218
X29627Y17218
X30177Y17218
X30627Y17218
X31127Y17218
X31677Y17218
X32177Y17218
X32877Y17068
X32897Y18458
X32147Y18368
X31647Y18358
X31147Y18358
X30627Y18348
X30147Y18358
X29627Y18358
X29147Y18358
X28397Y18498
X28177Y19218
X28177Y19668
X28187Y20168
X29147Y20348
X29647Y20358
X30147Y20348
X30647Y20358
X31127Y20358
X31647Y20358
X32147Y20358
X32177Y20968
X31677Y20968
X31177Y20968
X30677Y20968
X30177Y20968
X29677Y20968
X29177Y20968
X29187Y22098
X29687Y22098
X30187Y22098
X30697Y22108
X31197Y22108
X31697Y22098
X32177Y22108
X32177Y19168
X31627Y19168
X31127Y19168
X30627Y19168
X30177Y19168
X29627Y19168
X29127Y19168
X26907Y19688
X26072Y19673
X26072Y19368
X25727Y19368
X25427Y19368
X25417Y19688
X25437Y19993
X25437Y20308
X25447Y20618
X25427Y20913
X25427Y21233
X25422Y21583
X26057Y21858
X26067Y21238
X25757Y20928
X26112Y20608
X26107Y20298
X26077Y19978
X25747Y19678
X24977Y20468
X24662Y20778
X24277Y20893
X24222Y21408
X23867Y21248
X23857Y21568
X23557Y21568
X23242Y21253
X22977Y21133
X22847Y20793
X23227Y20608
X23537Y20618
X23852Y20623
X23852Y20288
X23537Y19968
X23537Y19668
X23547Y19358
X23547Y19058
X23217Y19338
X22937Y19688
X23187Y19943
X23857Y19683
X23857Y19368
X24267Y19368
X24427Y19678
X24357Y20018
X24997Y18568
X24902Y18168
X24572Y17943
X24702Y17568
X24487Y16923
X23892Y17068
X23667Y16858
X23252Y17473
X22967Y17408
X22672Y17398
X22182Y17578
X21967Y17318
X21962Y16763
X22277Y17958
X21992Y18148
X22187Y18368
X22142Y18668
X22412Y18808
X21967Y18948
X22617Y18078
X22922Y18048
X23217Y18088
X23542Y17798
X23852Y17798
X24162Y18108
X23867Y18408
X23537Y18438
X24442Y18483
X25427Y18398
X25727Y18408
X25897Y18673
X26107Y18888
X26147Y18398
X26077Y17768
X25767Y17788
X25727Y17478
X25427Y17468
X25427Y18708
X22762Y20388
X22302Y20503
X21982Y20343
X22322Y20128
X21972Y20773
X21967Y21218
X22337Y21363
X22157Y21663
X22047Y22218
X21997Y22518
X22277Y22738
X22507Y22533
X22707Y22308
X22897Y22608
X23482Y22633
X24372Y22473
X24792Y22238
X24577Y21763
X20827Y18288
X20797Y16238
X20712Y15783
X20417Y15458
X22102Y14928
X19527Y11378
X19862Y10973
X19907Y10568
X19512Y8803
X19757Y8613
X19767Y7908
X18457Y8398
X18077Y7068
X16797Y7738
X16827Y8318
X16787Y8968
X16637Y9638
X17507Y10488
X16827Y10698
X16957Y11453
X14967Y10368
X13577Y7568
X19817Y3098
X21397Y3538
X25132Y7893
X26577Y7868
X17312Y17558
X17317Y17868
X17317Y18178
X17007Y18168
X17317Y18488
X17632Y18513
X17627Y18808
X17317Y19118
X17327Y19438
X17637Y19438
X17317Y19748
X17007Y19428
X17017Y18808
X17637Y18178
X17627Y17848
X16387Y16918
X16287Y16548
X15592Y16243
X15737Y19108
X15747Y19758
X15737Y20068
X15747Y20378
X16057Y21008
X14487Y19438
X16597Y22788
X16637Y23208
X18107Y22358
X18007Y24308
X18297Y24468
X19247Y24788
X20067Y23148
X20267Y22708
X20287Y21198
X26807Y27718
X8357Y34898
T02
X6009Y31696
X6009Y30712
X6009Y29925
X6009Y28940
X6029Y24836
X6029Y23852
X6029Y23065
X6029Y22080
T03
X30650Y5570
X30669Y5570
X30709Y5570
X30748Y5570
X30787Y5570
X30827Y5570
X30866Y5570
X30906Y5570
X30945Y5570
X30984Y5570
X31024Y5570
X31063Y5570
X31102Y5570
X31142Y5570
X31181Y5570
X31221Y5570
X31260Y5570
X31299Y5570
X31339Y5574
X31378Y5570
X31417Y5570
X31457Y5570
X31496Y5570
X31536Y5570
X31575Y5570
X31614Y5570
X31654Y5570
X31693Y5570
X31732Y5570
X31772Y5570
X31811Y5570
X31850Y5570
X31890Y5570
X31929Y5570
X31969Y5570
X32008Y5570
X32028Y5570
X32520Y4409
X32520Y4370
X32520Y4311
X32520Y4271
X32520Y4212
X32520Y4173
X32520Y4133
X32520Y4074
X32520Y4015
X32520Y3956
X32520Y3897
X32520Y3838
X32520Y3779
X32520Y3720
X32520Y3661
X32520Y3602
X32520Y3543
X32520Y3484
X32520Y3425
X32520Y3366
X32520Y3307
X32520Y3248
X32520Y3189
X32520Y3129
X32520Y3070
X32520Y3031
T04
X25877Y2068
X24877Y2068
X23877Y2068
X22877Y2068
X21877Y2068
X20877Y2068
X19877Y2068
X18877Y2068
X17877Y2068
X16877Y2068
X15877Y2068
X14877Y2068
X13877Y2068
X12877Y2068
X2227Y5268
X2227Y6268
X2207Y8418
X2207Y9418
X2207Y10418
X12877Y33068
X13877Y33068
X14877Y33068
X15877Y33068
X16877Y33068
X16877Y34068
X15877Y34068
X15877Y35068
X16877Y35068
X17877Y35068
X17877Y34068
X18877Y34068
X18877Y35068
X19877Y35068
X19877Y34068
X20877Y34068
X20877Y35068
X21877Y35068
X21877Y34068
X22877Y34068
X22877Y35068
X23877Y35068
X23877Y34068
X14877Y34068
X14877Y35068
X13877Y35068
X13877Y34068
X12877Y34068
X12877Y35068
T05
X30158Y4507
X30158Y4468
X30158Y4429
X30158Y4389
X30158Y4350
X30158Y4311
X30158Y4271
X30158Y4232
X30158Y4192
X30158Y4153
X30158Y4114
X30158Y4074
X30158Y4035
X30158Y3996
X30158Y3956
X30158Y3917
X30158Y3877
X30158Y3838
X30158Y3799
X30158Y3759
X30158Y3720
X30158Y3681
X30158Y3641
X30158Y3602
X30158Y3563
X30158Y3523
X30158Y3484
X30158Y3444
X30158Y3405
X30158Y3366
X30158Y3326
X30158Y3287
X30158Y3248
X30158Y3208
X30158Y3169
X30158Y3129
X30158Y3090
X30158Y3051
X30158Y3011
X30158Y2972
X30158Y2933
T06
X4966Y20860
X4966Y26057
X4946Y27720
X4946Y32917
T07
X2377Y2568
X2377Y34568
X34377Y34568
X34377Y7568
M30
