G75*
G70*
%OFA0B0*%
%FSLAX24Y24*%
%IPPOS*%
%LPD*%
%AMOC8*
5,1,8,0,0,1.08239X$1,22.5*
%
%ADD10C,0.0557*%
%ADD11C,0.0551*%
%ADD12C,0.0630*%
%ADD13C,0.1063*%
%ADD14C,0.0520*%
%ADD15C,0.0237*%
%ADD16C,0.0050*%
%ADD17C,0.0160*%
%ADD18C,0.0080*%
%ADD19C,0.0120*%
%ADD20C,0.1407*%
D10*
X002227Y005268D03*
X002227Y006268D03*
X002207Y008418D03*
X002207Y009418D03*
X002207Y010418D03*
X012877Y002068D03*
X013877Y002068D03*
X014877Y002068D03*
X015877Y002068D03*
X016877Y002068D03*
X017877Y002068D03*
X018877Y002068D03*
X019877Y002068D03*
X020877Y002068D03*
X021877Y002068D03*
X022877Y002068D03*
X023877Y002068D03*
X024877Y002068D03*
X025877Y002068D03*
X016877Y033068D03*
X015877Y033068D03*
X014877Y033068D03*
X013877Y033068D03*
X012877Y033068D03*
X012877Y034068D03*
X013877Y034068D03*
X013877Y035068D03*
X012877Y035068D03*
X014877Y035068D03*
X014877Y034068D03*
X015877Y034068D03*
X016877Y034068D03*
X016877Y035068D03*
X015877Y035068D03*
X017877Y035068D03*
X017877Y034068D03*
X018877Y034068D03*
X018877Y035068D03*
X019877Y035068D03*
X019877Y034068D03*
X020877Y034068D03*
X020877Y035068D03*
X021877Y035068D03*
X021877Y034068D03*
X022877Y034068D03*
X022877Y035068D03*
X023877Y035068D03*
X023877Y034068D03*
D11*
X031339Y005574D03*
X032520Y003720D03*
D12*
X030158Y003720D03*
D13*
X004966Y020860D03*
X004966Y026057D03*
X004946Y027720D03*
X004946Y032917D03*
D14*
X006009Y031696D03*
X006009Y030712D03*
X006009Y029925D03*
X006009Y028940D03*
X006029Y024836D03*
X006029Y023852D03*
X006029Y023065D03*
X006029Y022080D03*
D15*
X007192Y022323D03*
X007577Y023298D03*
X007177Y023428D03*
X007697Y024488D03*
X008507Y024228D03*
X008917Y024258D03*
X009307Y024208D03*
X009087Y022978D03*
X009087Y022678D03*
X008717Y022678D03*
X008717Y022988D03*
X009067Y021398D03*
X008297Y020638D03*
X007727Y021218D03*
X009497Y020388D03*
X009297Y019628D03*
X009157Y017838D03*
X009407Y017248D03*
X010847Y017128D03*
X011237Y016998D03*
X011327Y017518D03*
X011327Y017818D03*
X011623Y017825D03*
X011629Y017536D03*
X010827Y017718D03*
X010977Y018938D03*
X011217Y019918D03*
X010917Y021058D03*
X010067Y021198D03*
X012747Y022368D03*
X013237Y021638D03*
X013227Y021328D03*
X013547Y021318D03*
X013547Y020998D03*
X013537Y020688D03*
X013547Y020378D03*
X013847Y020378D03*
X013857Y019748D03*
X014177Y019758D03*
X014487Y020048D03*
X014477Y020378D03*
X014487Y020998D03*
X014477Y021338D03*
X014487Y021648D03*
X014487Y021948D03*
X014167Y021958D03*
X014057Y022368D03*
X014497Y022273D03*
X015117Y021648D03*
X015427Y021638D03*
X015427Y021958D03*
X015107Y021318D03*
X015117Y020998D03*
X015427Y020698D03*
X015117Y020388D03*
X015117Y020078D03*
X015127Y019748D03*
X015117Y019428D03*
X015127Y019118D03*
X014787Y018798D03*
X014477Y018798D03*
X014477Y018488D03*
X014167Y018498D03*
X013857Y018498D03*
X013547Y018488D03*
X013227Y018498D03*
X013237Y018178D03*
X013542Y017868D03*
X013857Y018178D03*
X013847Y017538D03*
X013227Y017228D03*
X013207Y017538D03*
X012887Y017548D03*
X012897Y016928D03*
X012737Y016468D03*
X013037Y015838D03*
X013757Y014398D03*
X013497Y013828D03*
X014587Y013668D03*
X015187Y013288D03*
X014477Y012948D03*
X014977Y011818D03*
X015452Y011728D03*
X015922Y011463D03*
X016447Y011738D03*
X016957Y011453D03*
X016827Y010698D03*
X017507Y010488D03*
X016637Y009638D03*
X016787Y008968D03*
X016827Y008318D03*
X016797Y007738D03*
X015607Y006818D03*
X015387Y007778D03*
X015267Y008768D03*
X014977Y009228D03*
X014947Y009558D03*
X014887Y009898D03*
X014557Y009558D03*
X014607Y009218D03*
X014647Y008888D03*
X014187Y009188D03*
X015327Y009578D03*
X014967Y010368D03*
X016477Y012918D03*
X016957Y012918D03*
X016787Y013638D03*
X017277Y013668D03*
X017747Y013308D03*
X017957Y012968D03*
X018257Y013028D03*
X018557Y013073D03*
X018377Y013368D03*
X018077Y013568D03*
X017857Y013798D03*
X018237Y014108D03*
X018377Y013768D03*
X019147Y012968D03*
X019757Y012968D03*
X019467Y012208D03*
X019167Y011758D03*
X019047Y011388D03*
X018547Y011378D03*
X017987Y011488D03*
X017707Y011768D03*
X018277Y012258D03*
X019527Y011378D03*
X019862Y010973D03*
X019907Y010568D03*
X020387Y009678D03*
X020687Y009708D03*
X020917Y009528D03*
X021197Y009418D03*
X021277Y008808D03*
X020797Y008808D03*
X020917Y007878D03*
X020917Y007268D03*
X021507Y007268D03*
X021507Y007878D03*
X022067Y007258D03*
X022462Y008098D03*
X022467Y008408D03*
X022447Y008798D03*
X022372Y009418D03*
X022017Y009618D03*
X021797Y009838D03*
X021887Y008798D03*
X023102Y007543D03*
X023357Y007813D03*
X023602Y007228D03*
X023117Y006928D03*
X022047Y006118D03*
X021127Y006358D03*
X020867Y006148D03*
X020907Y004808D03*
X021077Y004228D03*
X021417Y004228D03*
X021717Y003918D03*
X022097Y003933D03*
X022767Y003888D03*
X023127Y003878D03*
X023247Y003188D03*
X023927Y004578D03*
X024637Y004578D03*
X025357Y004578D03*
X025767Y003548D03*
X026927Y002968D03*
X027827Y003068D03*
X028227Y004368D03*
X029277Y007018D03*
X029927Y007018D03*
X030627Y007018D03*
X030627Y008518D03*
X029927Y008518D03*
X029227Y008518D03*
X029127Y009218D03*
X029627Y009218D03*
X030127Y009218D03*
X030627Y009218D03*
X031127Y009218D03*
X031627Y009218D03*
X032177Y009218D03*
X032127Y010418D03*
X031627Y010418D03*
X031077Y010418D03*
X030627Y010418D03*
X030127Y010418D03*
X029627Y010418D03*
X029127Y010418D03*
X029127Y010968D03*
X029627Y010968D03*
X030127Y010968D03*
X030677Y010968D03*
X031127Y010968D03*
X031627Y010968D03*
X032177Y010968D03*
X032127Y012118D03*
X031627Y012118D03*
X031127Y012118D03*
X030627Y012118D03*
X030127Y012118D03*
X029627Y012118D03*
X029127Y012118D03*
X029177Y013018D03*
X029677Y013018D03*
X030177Y013018D03*
X030677Y013018D03*
X031177Y013018D03*
X031677Y013018D03*
X032177Y013018D03*
X032157Y014238D03*
X031667Y014248D03*
X031157Y014218D03*
X030667Y014228D03*
X030157Y014228D03*
X029687Y014228D03*
X029177Y014218D03*
X028657Y014208D03*
X028167Y014228D03*
X027667Y014218D03*
X027167Y014218D03*
X026697Y014218D03*
X027677Y013018D03*
X028177Y013018D03*
X028677Y013018D03*
X026977Y012168D03*
X026677Y011868D03*
X026377Y012168D03*
X026077Y011868D03*
X025777Y012168D03*
X025377Y011868D03*
X025777Y011468D03*
X026377Y011468D03*
X026977Y011468D03*
X028247Y014968D03*
X028837Y015048D03*
X029357Y015068D03*
X029837Y015058D03*
X030347Y015058D03*
X030847Y015068D03*
X031347Y015068D03*
X031847Y015068D03*
X032357Y015058D03*
X032857Y015068D03*
X033327Y015078D03*
X033277Y016218D03*
X032827Y016218D03*
X032327Y016218D03*
X031827Y016218D03*
X031327Y016218D03*
X030827Y016218D03*
X030327Y016218D03*
X029827Y016218D03*
X029327Y016218D03*
X028827Y016218D03*
X028227Y016368D03*
X028377Y017068D03*
X029127Y017218D03*
X029627Y017218D03*
X030177Y017218D03*
X030627Y017218D03*
X031127Y017218D03*
X031677Y017218D03*
X032177Y017218D03*
X032877Y017068D03*
X032897Y018458D03*
X032147Y018368D03*
X031647Y018358D03*
X031147Y018358D03*
X030627Y018348D03*
X030147Y018358D03*
X029627Y018358D03*
X029147Y018358D03*
X028397Y018498D03*
X028177Y019218D03*
X028177Y019668D03*
X028187Y020168D03*
X029147Y020348D03*
X029647Y020358D03*
X030147Y020348D03*
X030647Y020358D03*
X031127Y020358D03*
X031647Y020358D03*
X032147Y020358D03*
X032177Y020968D03*
X031677Y020968D03*
X031177Y020968D03*
X030677Y020968D03*
X030177Y020968D03*
X029677Y020968D03*
X029177Y020968D03*
X029187Y022098D03*
X029687Y022098D03*
X030187Y022098D03*
X030697Y022108D03*
X031197Y022108D03*
X031697Y022098D03*
X032177Y022108D03*
X032177Y019168D03*
X031627Y019168D03*
X031127Y019168D03*
X030627Y019168D03*
X030177Y019168D03*
X029627Y019168D03*
X029127Y019168D03*
X026907Y019688D03*
X026072Y019673D03*
X026072Y019368D03*
X025727Y019368D03*
X025427Y019368D03*
X025417Y019688D03*
X025437Y019993D03*
X025437Y020308D03*
X025447Y020618D03*
X025427Y020913D03*
X025427Y021233D03*
X025422Y021583D03*
X026057Y021858D03*
X026067Y021238D03*
X025757Y020928D03*
X026112Y020608D03*
X026107Y020298D03*
X026077Y019978D03*
X025747Y019678D03*
X024977Y020468D03*
X024662Y020778D03*
X024277Y020893D03*
X024222Y021408D03*
X023867Y021248D03*
X023857Y021568D03*
X023557Y021568D03*
X023242Y021253D03*
X022977Y021133D03*
X022847Y020793D03*
X023227Y020608D03*
X023537Y020618D03*
X023852Y020623D03*
X023852Y020288D03*
X023537Y019968D03*
X023537Y019668D03*
X023547Y019358D03*
X023547Y019058D03*
X023217Y019338D03*
X022937Y019688D03*
X023187Y019943D03*
X023857Y019683D03*
X023857Y019368D03*
X024267Y019368D03*
X024427Y019678D03*
X024357Y020018D03*
X024997Y018568D03*
X024902Y018168D03*
X024572Y017943D03*
X024702Y017568D03*
X024487Y016923D03*
X023892Y017068D03*
X023667Y016858D03*
X023252Y017473D03*
X022967Y017408D03*
X022672Y017398D03*
X022182Y017578D03*
X021967Y017318D03*
X021962Y016763D03*
X022277Y017958D03*
X021992Y018148D03*
X022187Y018368D03*
X022142Y018668D03*
X022412Y018808D03*
X021967Y018948D03*
X022617Y018078D03*
X022922Y018048D03*
X023217Y018088D03*
X023542Y017798D03*
X023852Y017798D03*
X024162Y018108D03*
X023867Y018408D03*
X023537Y018438D03*
X024442Y018483D03*
X025427Y018398D03*
X025727Y018408D03*
X025897Y018673D03*
X026107Y018888D03*
X026147Y018398D03*
X026077Y017768D03*
X025767Y017788D03*
X025727Y017478D03*
X025427Y017468D03*
X025427Y018708D03*
X022762Y020388D03*
X022302Y020503D03*
X021982Y020343D03*
X022322Y020128D03*
X021972Y020773D03*
X021967Y021218D03*
X022337Y021363D03*
X022157Y021663D03*
X022047Y022218D03*
X021997Y022518D03*
X022277Y022738D03*
X022507Y022533D03*
X022707Y022308D03*
X022897Y022608D03*
X023482Y022633D03*
X024372Y022473D03*
X024792Y022238D03*
X024577Y021763D03*
X020827Y018288D03*
X020797Y016238D03*
X020712Y015783D03*
X020417Y015458D03*
X022102Y014928D03*
X018307Y014978D03*
X017082Y015298D03*
X017107Y016098D03*
X016287Y016548D03*
X016387Y016918D03*
X016367Y017548D03*
X016687Y017568D03*
X016997Y017548D03*
X016987Y017238D03*
X017317Y017218D03*
X017637Y017223D03*
X017637Y016908D03*
X018117Y016508D03*
X017312Y017558D03*
X017317Y017868D03*
X017317Y018178D03*
X017007Y018168D03*
X017317Y018488D03*
X017632Y018513D03*
X017627Y018808D03*
X017317Y019118D03*
X017327Y019438D03*
X017637Y019438D03*
X017317Y019748D03*
X017317Y020068D03*
X017317Y020378D03*
X017317Y020688D03*
X017628Y020708D03*
X017633Y021037D03*
X017323Y021000D03*
X017322Y021308D03*
X017007Y021330D03*
X016697Y021318D03*
X016377Y021328D03*
X016057Y021008D03*
X016377Y020688D03*
X016377Y020378D03*
X016687Y020698D03*
X016387Y019748D03*
X016067Y019438D03*
X016377Y019118D03*
X016377Y018488D03*
X016377Y018168D03*
X016047Y017858D03*
X015747Y017858D03*
X015737Y017558D03*
X015747Y017218D03*
X015427Y017248D03*
X015127Y017228D03*
X015427Y016928D03*
X015592Y016243D03*
X014777Y014958D03*
X014807Y017548D03*
X015127Y017868D03*
X015437Y017858D03*
X015747Y018168D03*
X015757Y018488D03*
X015737Y019108D03*
X015747Y019758D03*
X015737Y020068D03*
X015747Y020378D03*
X014487Y019438D03*
X013857Y019118D03*
X013527Y019118D03*
X012917Y018808D03*
X014487Y017868D03*
X014797Y018478D03*
X017017Y018808D03*
X017007Y019428D03*
X017635Y020045D03*
X017633Y020377D03*
X017957Y021328D03*
X017967Y021638D03*
X017633Y021961D03*
X017297Y021638D03*
X017007Y021648D03*
X016597Y022788D03*
X016637Y023208D03*
X018107Y022358D03*
X018007Y024308D03*
X018297Y024468D03*
X019247Y024788D03*
X020067Y023148D03*
X020267Y022708D03*
X020287Y021198D03*
X017637Y018178D03*
X017627Y017848D03*
X013857Y020998D03*
X013227Y020698D03*
X012077Y024418D03*
X011777Y024768D03*
X012027Y025068D03*
X011477Y025068D03*
X011477Y024418D03*
X012577Y025308D03*
X013597Y026888D03*
X014487Y027228D03*
X015277Y027258D03*
X016297Y027288D03*
X017447Y027198D03*
X017597Y028708D03*
X016597Y028728D03*
X016592Y029088D03*
X016547Y029388D03*
X016477Y029698D03*
X016037Y028738D03*
X015447Y028728D03*
X014697Y029028D03*
X014387Y028748D03*
X013587Y028728D03*
X015077Y030488D03*
X017787Y030598D03*
X018087Y030538D03*
X018397Y030388D03*
X019827Y030268D03*
X020187Y029928D03*
X019427Y033118D03*
X019177Y033368D03*
X018657Y033388D03*
X018637Y033088D03*
X017957Y033358D03*
X010307Y029178D03*
X009547Y029388D03*
X008827Y029388D03*
X008077Y029168D03*
X007477Y030208D03*
X007767Y031298D03*
X007067Y031338D03*
X008117Y032438D03*
X008807Y032198D03*
X009177Y032218D03*
X009627Y032128D03*
X009387Y030928D03*
X009397Y030608D03*
X009047Y030608D03*
X009047Y030918D03*
X008107Y026918D03*
X002307Y020008D03*
X002977Y018528D03*
X003477Y018478D03*
X002477Y018518D03*
X002487Y016708D03*
X002987Y016728D03*
X003487Y016718D03*
X003987Y016718D03*
X004547Y016708D03*
X004567Y018068D03*
X004797Y018728D03*
X005707Y018558D03*
X007247Y015168D03*
X009547Y015788D03*
X011427Y015068D03*
X012207Y014158D03*
X011647Y013668D03*
X010797Y012748D03*
X009807Y012778D03*
X008377Y010468D03*
X008597Y009748D03*
X007777Y009178D03*
X007617Y008718D03*
X007597Y010258D03*
X007637Y010968D03*
X006177Y010968D03*
X005252Y010298D03*
X005287Y009063D03*
X003757Y009068D03*
X003777Y010418D03*
X003357Y014248D03*
X003477Y014868D03*
X002977Y014878D03*
X002477Y014908D03*
X002037Y014348D03*
X003977Y015168D03*
X004567Y015068D03*
X013577Y007568D03*
X011877Y004968D03*
X011377Y004968D03*
X010877Y004968D03*
X010377Y004968D03*
X009877Y004968D03*
X009377Y004968D03*
X008877Y004968D03*
X008377Y004968D03*
X007877Y004968D03*
X007377Y004968D03*
X007377Y003788D03*
X007867Y003808D03*
X008357Y003798D03*
X008867Y003788D03*
X009377Y003778D03*
X009867Y003788D03*
X010367Y003788D03*
X010887Y003808D03*
X011367Y003768D03*
X011887Y003798D03*
X016467Y005428D03*
X016457Y006118D03*
X017837Y005778D03*
X018097Y005648D03*
X017977Y005198D03*
X018577Y005168D03*
X018892Y005183D03*
X019217Y005558D03*
X018077Y007068D03*
X018457Y008398D03*
X019512Y008803D03*
X019757Y008613D03*
X019767Y007908D03*
X021837Y004638D03*
X022377Y004668D03*
X021397Y003538D03*
X019817Y003098D03*
X025132Y007893D03*
X026577Y007868D03*
X026807Y027718D03*
X008357Y034898D03*
X006837Y003748D03*
X005437Y001878D03*
D16*
X004077Y009968D02*
X003477Y010568D01*
X003477Y014095D01*
X003550Y014168D01*
X003550Y014328D01*
X003477Y014401D01*
X003477Y014675D01*
X003557Y014675D01*
X003670Y014788D01*
X003670Y014948D01*
X003557Y015061D01*
X003477Y015061D01*
X003477Y016525D01*
X003567Y016525D01*
X003680Y016638D01*
X003680Y016798D01*
X003567Y016911D01*
X003477Y016911D01*
X003477Y018285D01*
X003557Y018285D01*
X003670Y018398D01*
X005594Y018398D01*
X005627Y018365D02*
X005787Y018365D01*
X005900Y018478D01*
X005900Y018638D01*
X005787Y018751D01*
X005627Y018751D01*
X005514Y018638D01*
X005514Y018478D01*
X005627Y018365D01*
X005545Y018447D02*
X003670Y018447D01*
X003670Y018495D02*
X005514Y018495D01*
X005514Y018544D02*
X004885Y018544D01*
X004877Y018535D02*
X004990Y018648D01*
X004990Y018808D01*
X004877Y018921D01*
X004717Y018921D01*
X004604Y018808D01*
X004604Y018648D01*
X004717Y018535D01*
X004877Y018535D01*
X004934Y018592D02*
X005514Y018592D01*
X005517Y018641D02*
X004982Y018641D01*
X004990Y018690D02*
X005565Y018690D01*
X005614Y018738D02*
X004990Y018738D01*
X004990Y018787D02*
X008377Y018787D01*
X008377Y018835D02*
X004963Y018835D01*
X004914Y018884D02*
X008377Y018884D01*
X008377Y018932D02*
X003477Y018932D01*
X003477Y018884D02*
X004679Y018884D01*
X004631Y018835D02*
X003477Y018835D01*
X003477Y018787D02*
X004604Y018787D01*
X004604Y018738D02*
X003477Y018738D01*
X003477Y018690D02*
X004604Y018690D01*
X004611Y018641D02*
X003587Y018641D01*
X003557Y018671D02*
X003477Y018671D01*
X003477Y026268D01*
X004509Y027300D01*
X004603Y027206D01*
X004826Y027114D01*
X005067Y027114D01*
X005289Y027206D01*
X005460Y027377D01*
X005552Y027599D01*
X005552Y027840D01*
X005460Y028063D01*
X005366Y028157D01*
X005852Y028644D01*
X005943Y028606D01*
X006076Y028606D01*
X006198Y028657D01*
X006292Y028751D01*
X006343Y028874D01*
X006343Y029007D01*
X006306Y029097D01*
X007077Y029868D01*
X008277Y029868D01*
X008377Y029468D01*
X008377Y024371D01*
X008314Y024308D01*
X008314Y024148D01*
X008377Y024085D01*
X008377Y020831D01*
X008377Y020831D01*
X008217Y020831D01*
X008104Y020718D01*
X008104Y020558D01*
X008217Y020445D01*
X008377Y020445D01*
X008377Y020445D01*
X008377Y016968D01*
X009415Y015930D01*
X009354Y015868D01*
X009354Y015708D01*
X009467Y015595D01*
X009627Y015595D01*
X009740Y015708D01*
X009740Y015868D01*
X009740Y015868D01*
X011577Y015868D01*
X011577Y014268D01*
X011477Y014068D01*
X009577Y014068D01*
X008477Y012968D01*
X008477Y010268D01*
X008177Y009968D01*
X004077Y009968D01*
X004045Y010000D02*
X008209Y010000D01*
X008257Y010049D02*
X003996Y010049D01*
X003948Y010097D02*
X007485Y010097D01*
X007517Y010065D02*
X007677Y010065D01*
X007790Y010178D01*
X007790Y010338D01*
X007677Y010451D01*
X007517Y010451D01*
X007404Y010338D01*
X007404Y010178D01*
X007517Y010065D01*
X007436Y010146D02*
X005372Y010146D01*
X005332Y010105D02*
X005445Y010218D01*
X005445Y010378D01*
X005332Y010491D01*
X005172Y010491D01*
X005059Y010378D01*
X005059Y010218D01*
X005172Y010105D01*
X005332Y010105D01*
X005421Y010194D02*
X007404Y010194D01*
X007404Y010243D02*
X005445Y010243D01*
X005445Y010292D02*
X007404Y010292D01*
X007406Y010340D02*
X005445Y010340D01*
X005434Y010389D02*
X007454Y010389D01*
X007503Y010437D02*
X005386Y010437D01*
X005337Y010486D02*
X008477Y010486D01*
X008477Y010534D02*
X003511Y010534D01*
X003477Y010583D02*
X008477Y010583D01*
X008477Y010631D02*
X003477Y010631D01*
X003477Y010680D02*
X008477Y010680D01*
X008477Y010728D02*
X003477Y010728D01*
X003477Y010777D02*
X007555Y010777D01*
X007557Y010775D02*
X007717Y010775D01*
X007830Y010888D01*
X007830Y011048D01*
X007717Y011161D01*
X007557Y011161D01*
X007444Y011048D01*
X007444Y010888D01*
X007557Y010775D01*
X007507Y010826D02*
X003477Y010826D01*
X003477Y010874D02*
X007458Y010874D01*
X007444Y010923D02*
X003477Y010923D01*
X003477Y010971D02*
X007444Y010971D01*
X007444Y011020D02*
X003477Y011020D01*
X003477Y011068D02*
X007464Y011068D01*
X007512Y011117D02*
X003477Y011117D01*
X003477Y011165D02*
X008477Y011165D01*
X008477Y011117D02*
X007761Y011117D01*
X007810Y011068D02*
X008477Y011068D01*
X008477Y011020D02*
X007830Y011020D01*
X007830Y010971D02*
X008477Y010971D01*
X008477Y010923D02*
X007830Y010923D01*
X007815Y010874D02*
X008477Y010874D01*
X008477Y010826D02*
X007767Y010826D01*
X007718Y010777D02*
X008477Y010777D01*
X008477Y010437D02*
X007691Y010437D01*
X007739Y010389D02*
X008477Y010389D01*
X008477Y010340D02*
X007788Y010340D01*
X007790Y010292D02*
X008477Y010292D01*
X008452Y010243D02*
X007790Y010243D01*
X007790Y010194D02*
X008403Y010194D01*
X008354Y010146D02*
X007757Y010146D01*
X007709Y010097D02*
X008306Y010097D01*
X008477Y011214D02*
X003477Y011214D01*
X003477Y011262D02*
X008477Y011262D01*
X008477Y011311D02*
X003477Y011311D01*
X003477Y011360D02*
X008477Y011360D01*
X008477Y011408D02*
X003477Y011408D01*
X003477Y011457D02*
X008477Y011457D01*
X008477Y011505D02*
X003477Y011505D01*
X003477Y011554D02*
X008477Y011554D01*
X008477Y011602D02*
X003477Y011602D01*
X003477Y011651D02*
X008477Y011651D01*
X008477Y011699D02*
X003477Y011699D01*
X003477Y011748D02*
X008477Y011748D01*
X008477Y011796D02*
X003477Y011796D01*
X003477Y011845D02*
X008477Y011845D01*
X008477Y011894D02*
X003477Y011894D01*
X003477Y011942D02*
X008477Y011942D01*
X008477Y011991D02*
X003477Y011991D01*
X003477Y012039D02*
X008477Y012039D01*
X008477Y012088D02*
X003477Y012088D01*
X003477Y012136D02*
X008477Y012136D01*
X008477Y012185D02*
X003477Y012185D01*
X003477Y012233D02*
X008477Y012233D01*
X008477Y012282D02*
X003477Y012282D01*
X003477Y012330D02*
X008477Y012330D01*
X008477Y012379D02*
X003477Y012379D01*
X003477Y012427D02*
X008477Y012427D01*
X008477Y012476D02*
X003477Y012476D01*
X003477Y012525D02*
X008477Y012525D01*
X008477Y012573D02*
X003477Y012573D01*
X003477Y012622D02*
X008477Y012622D01*
X008477Y012670D02*
X003477Y012670D01*
X003477Y012719D02*
X008477Y012719D01*
X008477Y012767D02*
X003477Y012767D01*
X003477Y012816D02*
X008477Y012816D01*
X008477Y012864D02*
X003477Y012864D01*
X003477Y012913D02*
X008477Y012913D01*
X008477Y012961D02*
X003477Y012961D01*
X003477Y013010D02*
X008519Y013010D01*
X008567Y013059D02*
X003477Y013059D01*
X003477Y013107D02*
X008616Y013107D01*
X008664Y013156D02*
X003477Y013156D01*
X003477Y013204D02*
X008713Y013204D01*
X008761Y013253D02*
X003477Y013253D01*
X003477Y013301D02*
X008810Y013301D01*
X008858Y013350D02*
X003477Y013350D01*
X003477Y013398D02*
X008907Y013398D01*
X008955Y013447D02*
X003477Y013447D01*
X003477Y013495D02*
X009004Y013495D01*
X009052Y013544D02*
X003477Y013544D01*
X003477Y013593D02*
X009101Y013593D01*
X009150Y013641D02*
X003477Y013641D01*
X003477Y013690D02*
X009198Y013690D01*
X009247Y013738D02*
X003477Y013738D01*
X003477Y013787D02*
X009295Y013787D01*
X009344Y013835D02*
X003477Y013835D01*
X003477Y013884D02*
X009392Y013884D01*
X009441Y013932D02*
X003477Y013932D01*
X003477Y013981D02*
X009489Y013981D01*
X009538Y014029D02*
X003477Y014029D01*
X003477Y014078D02*
X011482Y014078D01*
X011506Y014126D02*
X003508Y014126D01*
X003550Y014175D02*
X011530Y014175D01*
X011554Y014224D02*
X003550Y014224D01*
X003550Y014272D02*
X011577Y014272D01*
X011577Y014321D02*
X003550Y014321D01*
X003509Y014369D02*
X011577Y014369D01*
X011577Y014418D02*
X003477Y014418D01*
X003477Y014466D02*
X011577Y014466D01*
X011577Y014515D02*
X003477Y014515D01*
X003477Y014563D02*
X011577Y014563D01*
X011577Y014612D02*
X003477Y014612D01*
X003477Y014660D02*
X011577Y014660D01*
X011577Y014709D02*
X003590Y014709D01*
X003639Y014758D02*
X011577Y014758D01*
X011577Y014806D02*
X003670Y014806D01*
X003670Y014855D02*
X011577Y014855D01*
X011577Y014903D02*
X004675Y014903D01*
X004647Y014875D02*
X004760Y014988D01*
X004760Y015148D01*
X004647Y015261D01*
X004487Y015261D01*
X004374Y015148D01*
X004374Y014988D01*
X004487Y014875D01*
X004647Y014875D01*
X004723Y014952D02*
X011577Y014952D01*
X011577Y015000D02*
X007352Y015000D01*
X007327Y014975D02*
X007440Y015088D01*
X007440Y015248D01*
X007327Y015361D01*
X007167Y015361D01*
X007054Y015248D01*
X007054Y015088D01*
X007167Y014975D01*
X007327Y014975D01*
X007400Y015049D02*
X011577Y015049D01*
X011577Y015097D02*
X007440Y015097D01*
X007440Y015146D02*
X011577Y015146D01*
X011577Y015194D02*
X007440Y015194D01*
X007440Y015243D02*
X011577Y015243D01*
X011577Y015292D02*
X007396Y015292D01*
X007348Y015340D02*
X011577Y015340D01*
X011577Y015389D02*
X003477Y015389D01*
X003477Y015437D02*
X011577Y015437D01*
X011577Y015486D02*
X003477Y015486D01*
X003477Y015534D02*
X011577Y015534D01*
X011577Y015583D02*
X003477Y015583D01*
X003477Y015631D02*
X009431Y015631D01*
X009382Y015680D02*
X003477Y015680D01*
X003477Y015728D02*
X009354Y015728D01*
X009354Y015777D02*
X003477Y015777D01*
X003477Y015826D02*
X009354Y015826D01*
X009360Y015874D02*
X003477Y015874D01*
X003477Y015923D02*
X009408Y015923D01*
X009374Y015971D02*
X003477Y015971D01*
X003477Y016020D02*
X009325Y016020D01*
X009277Y016068D02*
X003477Y016068D01*
X003477Y016117D02*
X009228Y016117D01*
X009180Y016165D02*
X003477Y016165D01*
X003477Y016214D02*
X009131Y016214D01*
X009083Y016262D02*
X003477Y016262D01*
X003477Y016311D02*
X009034Y016311D01*
X008986Y016359D02*
X003477Y016359D01*
X003477Y016408D02*
X008937Y016408D01*
X008889Y016457D02*
X003477Y016457D01*
X003477Y016505D02*
X008840Y016505D01*
X008791Y016554D02*
X004665Y016554D01*
X004627Y016515D02*
X004740Y016628D01*
X004740Y016788D01*
X004627Y016901D01*
X004467Y016901D01*
X004354Y016788D01*
X004354Y016628D01*
X004467Y016515D01*
X004627Y016515D01*
X004714Y016602D02*
X008743Y016602D01*
X008694Y016651D02*
X004740Y016651D01*
X004740Y016699D02*
X008646Y016699D01*
X008597Y016748D02*
X004740Y016748D01*
X004732Y016796D02*
X008549Y016796D01*
X008500Y016845D02*
X004683Y016845D01*
X004635Y016893D02*
X008452Y016893D01*
X008403Y016942D02*
X003477Y016942D01*
X003477Y016991D02*
X008377Y016991D01*
X008377Y017039D02*
X003477Y017039D01*
X003477Y017088D02*
X008377Y017088D01*
X008377Y017136D02*
X003477Y017136D01*
X003477Y017185D02*
X008377Y017185D01*
X008377Y017233D02*
X003477Y017233D01*
X003477Y017282D02*
X008377Y017282D01*
X008377Y017330D02*
X003477Y017330D01*
X003477Y017379D02*
X008377Y017379D01*
X008377Y017427D02*
X003477Y017427D01*
X003477Y017476D02*
X008377Y017476D01*
X008377Y017525D02*
X003477Y017525D01*
X003477Y017573D02*
X008377Y017573D01*
X008377Y017622D02*
X003477Y017622D01*
X003477Y017670D02*
X008377Y017670D01*
X008377Y017719D02*
X003477Y017719D01*
X003477Y017767D02*
X008377Y017767D01*
X008377Y017816D02*
X003477Y017816D01*
X003477Y017864D02*
X008377Y017864D01*
X008377Y017913D02*
X004684Y017913D01*
X004647Y017875D02*
X004760Y017988D01*
X004760Y018148D01*
X004647Y018261D01*
X004487Y018261D01*
X004374Y018148D01*
X004374Y017988D01*
X004487Y017875D01*
X004647Y017875D01*
X004733Y017961D02*
X008377Y017961D01*
X008377Y018010D02*
X004760Y018010D01*
X004760Y018059D02*
X008377Y018059D01*
X008377Y018107D02*
X004760Y018107D01*
X004752Y018156D02*
X008377Y018156D01*
X008377Y018204D02*
X004704Y018204D01*
X004655Y018253D02*
X008377Y018253D01*
X008377Y018301D02*
X003573Y018301D01*
X003621Y018350D02*
X008377Y018350D01*
X008377Y018398D02*
X005820Y018398D01*
X005868Y018447D02*
X008377Y018447D01*
X008377Y018495D02*
X005900Y018495D01*
X005900Y018544D02*
X008377Y018544D01*
X008377Y018592D02*
X005900Y018592D01*
X005897Y018641D02*
X008377Y018641D01*
X008377Y018690D02*
X005848Y018690D01*
X005800Y018738D02*
X008377Y018738D01*
X008377Y018981D02*
X003477Y018981D01*
X003477Y019029D02*
X008377Y019029D01*
X008377Y019078D02*
X003477Y019078D01*
X003477Y019126D02*
X008377Y019126D01*
X008377Y019175D02*
X003477Y019175D01*
X003477Y019224D02*
X008377Y019224D01*
X008377Y019272D02*
X003477Y019272D01*
X003477Y019321D02*
X008377Y019321D01*
X008377Y019369D02*
X003477Y019369D01*
X003477Y019418D02*
X008377Y019418D01*
X008377Y019466D02*
X003477Y019466D01*
X003477Y019515D02*
X008377Y019515D01*
X008377Y019563D02*
X003477Y019563D01*
X003477Y019612D02*
X008377Y019612D01*
X008377Y019660D02*
X003477Y019660D01*
X003477Y019709D02*
X008377Y019709D01*
X008377Y019758D02*
X003477Y019758D01*
X003477Y019806D02*
X008377Y019806D01*
X008377Y019855D02*
X003477Y019855D01*
X003477Y019903D02*
X008377Y019903D01*
X008377Y019952D02*
X003477Y019952D01*
X003477Y020000D02*
X008377Y020000D01*
X008377Y020049D02*
X003477Y020049D01*
X003477Y020097D02*
X008377Y020097D01*
X008377Y020146D02*
X003477Y020146D01*
X003477Y020194D02*
X008377Y020194D01*
X008377Y020243D02*
X003477Y020243D01*
X003477Y020291D02*
X004756Y020291D01*
X004846Y020254D02*
X004623Y020346D01*
X004453Y020517D01*
X004360Y020739D01*
X004360Y020980D01*
X004453Y021203D01*
X004623Y021373D01*
X004846Y021466D01*
X005087Y021466D01*
X005309Y021373D01*
X005480Y021203D01*
X005572Y020980D01*
X005572Y020739D01*
X005480Y020517D01*
X005309Y020346D01*
X005087Y020254D01*
X004846Y020254D01*
X004638Y020340D02*
X003477Y020340D01*
X003477Y020389D02*
X004581Y020389D01*
X004532Y020437D02*
X003477Y020437D01*
X003477Y020486D02*
X004484Y020486D01*
X004445Y020534D02*
X003477Y020534D01*
X003477Y020583D02*
X004425Y020583D01*
X004405Y020631D02*
X003477Y020631D01*
X003477Y020680D02*
X004385Y020680D01*
X004365Y020728D02*
X003477Y020728D01*
X003477Y020777D02*
X004360Y020777D01*
X004360Y020825D02*
X003477Y020825D01*
X003477Y020874D02*
X004360Y020874D01*
X004360Y020923D02*
X003477Y020923D01*
X003477Y020971D02*
X004360Y020971D01*
X004377Y021020D02*
X003477Y021020D01*
X003477Y021068D02*
X004397Y021068D01*
X004417Y021117D02*
X003477Y021117D01*
X003477Y021165D02*
X004437Y021165D01*
X004463Y021214D02*
X003477Y021214D01*
X003477Y021262D02*
X004512Y021262D01*
X004560Y021311D02*
X003477Y021311D01*
X003477Y021359D02*
X004609Y021359D01*
X004707Y021408D02*
X003477Y021408D01*
X003477Y021457D02*
X004824Y021457D01*
X005108Y021457D02*
X008377Y021457D01*
X008377Y021505D02*
X003477Y021505D01*
X003477Y021554D02*
X008377Y021554D01*
X008377Y021602D02*
X003477Y021602D01*
X003477Y021651D02*
X008377Y021651D01*
X008377Y021699D02*
X003477Y021699D01*
X003477Y021748D02*
X005959Y021748D01*
X005963Y021746D02*
X006096Y021746D01*
X006218Y021797D01*
X006312Y021891D01*
X006363Y022014D01*
X006363Y022147D01*
X006312Y022270D01*
X006218Y022364D01*
X006096Y022414D01*
X005963Y022414D01*
X005840Y022364D01*
X005746Y022270D01*
X005695Y022147D01*
X005695Y022014D01*
X005746Y021891D01*
X005840Y021797D01*
X005963Y021746D01*
X005842Y021796D02*
X003477Y021796D01*
X003477Y021845D02*
X005792Y021845D01*
X005745Y021893D02*
X003477Y021893D01*
X003477Y021942D02*
X005725Y021942D01*
X005705Y021991D02*
X003477Y021991D01*
X003477Y022039D02*
X005695Y022039D01*
X005695Y022088D02*
X003477Y022088D01*
X003477Y022136D02*
X005695Y022136D01*
X005711Y022185D02*
X003477Y022185D01*
X003477Y022233D02*
X005731Y022233D01*
X005758Y022282D02*
X003477Y022282D01*
X003477Y022330D02*
X005807Y022330D01*
X005877Y022379D02*
X003477Y022379D01*
X003477Y022427D02*
X007023Y022427D01*
X006999Y022403D02*
X006999Y022243D01*
X007112Y022130D01*
X007272Y022130D01*
X007385Y022243D01*
X007385Y022403D01*
X007272Y022516D01*
X007112Y022516D01*
X006999Y022403D01*
X006999Y022379D02*
X006181Y022379D01*
X006251Y022330D02*
X006999Y022330D01*
X006999Y022282D02*
X006300Y022282D01*
X006327Y022233D02*
X007009Y022233D01*
X007058Y022185D02*
X006347Y022185D01*
X006363Y022136D02*
X007106Y022136D01*
X007278Y022136D02*
X008377Y022136D01*
X008377Y022088D02*
X006363Y022088D01*
X006363Y022039D02*
X008377Y022039D01*
X008377Y021991D02*
X006353Y021991D01*
X006333Y021942D02*
X008377Y021942D01*
X008377Y021893D02*
X006313Y021893D01*
X006266Y021845D02*
X008377Y021845D01*
X008377Y021796D02*
X006216Y021796D01*
X006099Y021748D02*
X008377Y021748D01*
X008377Y021408D02*
X005226Y021408D01*
X005323Y021359D02*
X008377Y021359D01*
X008377Y021311D02*
X005372Y021311D01*
X005420Y021262D02*
X008377Y021262D01*
X008377Y021214D02*
X005469Y021214D01*
X005495Y021165D02*
X008377Y021165D01*
X008377Y021117D02*
X005515Y021117D01*
X005535Y021068D02*
X008377Y021068D01*
X008377Y021020D02*
X005556Y021020D01*
X005572Y020971D02*
X008377Y020971D01*
X008377Y020923D02*
X005572Y020923D01*
X005572Y020874D02*
X008377Y020874D01*
X008211Y020825D02*
X005572Y020825D01*
X005572Y020777D02*
X008163Y020777D01*
X008114Y020728D02*
X005567Y020728D01*
X005547Y020680D02*
X008104Y020680D01*
X008104Y020631D02*
X005527Y020631D01*
X005507Y020583D02*
X008104Y020583D01*
X008128Y020534D02*
X005487Y020534D01*
X005448Y020486D02*
X008177Y020486D01*
X008377Y020437D02*
X005400Y020437D01*
X005351Y020389D02*
X008377Y020389D01*
X008377Y020340D02*
X005294Y020340D01*
X005177Y020291D02*
X008377Y020291D01*
X008377Y022185D02*
X007326Y022185D01*
X007375Y022233D02*
X008377Y022233D01*
X008377Y022282D02*
X007385Y022282D01*
X007385Y022330D02*
X008377Y022330D01*
X008377Y022379D02*
X007385Y022379D01*
X007361Y022427D02*
X008377Y022427D01*
X008377Y022476D02*
X007312Y022476D01*
X007072Y022476D02*
X003477Y022476D01*
X003477Y022524D02*
X008377Y022524D01*
X008377Y022573D02*
X003477Y022573D01*
X003477Y022622D02*
X008377Y022622D01*
X008377Y022670D02*
X003477Y022670D01*
X003477Y022719D02*
X008377Y022719D01*
X008377Y022767D02*
X006184Y022767D01*
X006218Y022781D02*
X006312Y022875D01*
X006363Y022998D01*
X006363Y023131D01*
X006312Y023254D01*
X006218Y023348D01*
X006096Y023399D01*
X005963Y023399D01*
X005840Y023348D01*
X005746Y023254D01*
X005695Y023131D01*
X005695Y022998D01*
X005746Y022875D01*
X005840Y022781D01*
X005963Y022731D01*
X006096Y022731D01*
X006218Y022781D01*
X006253Y022816D02*
X008377Y022816D01*
X008377Y022864D02*
X006301Y022864D01*
X006328Y022913D02*
X008377Y022913D01*
X008377Y022961D02*
X006348Y022961D01*
X006363Y023010D02*
X008377Y023010D01*
X008377Y023058D02*
X006363Y023058D01*
X006363Y023107D02*
X007495Y023107D01*
X007497Y023105D02*
X007657Y023105D01*
X007770Y023218D01*
X007770Y023378D01*
X007657Y023491D01*
X007497Y023491D01*
X007384Y023378D01*
X007384Y023218D01*
X007497Y023105D01*
X007447Y023156D02*
X006353Y023156D01*
X006333Y023204D02*
X007398Y023204D01*
X007384Y023253D02*
X007274Y023253D01*
X007257Y023235D02*
X007370Y023348D01*
X007370Y023508D01*
X007257Y023621D01*
X007097Y023621D01*
X006984Y023508D01*
X006984Y023348D01*
X007097Y023235D01*
X007257Y023235D01*
X007323Y023301D02*
X007384Y023301D01*
X007384Y023350D02*
X007370Y023350D01*
X007370Y023398D02*
X007404Y023398D01*
X007370Y023447D02*
X007452Y023447D01*
X007370Y023495D02*
X008377Y023495D01*
X008377Y023447D02*
X007701Y023447D01*
X007750Y023398D02*
X008377Y023398D01*
X008377Y023350D02*
X007770Y023350D01*
X007770Y023301D02*
X008377Y023301D01*
X008377Y023253D02*
X007770Y023253D01*
X007755Y023204D02*
X008377Y023204D01*
X008377Y023156D02*
X007707Y023156D01*
X007658Y023107D02*
X008377Y023107D01*
X008377Y023544D02*
X007334Y023544D01*
X007286Y023592D02*
X008377Y023592D01*
X008377Y023641D02*
X006290Y023641D01*
X006312Y023663D02*
X006363Y023786D01*
X006363Y023919D01*
X006312Y024041D01*
X006218Y024135D01*
X006096Y024186D01*
X005963Y024186D01*
X005840Y024135D01*
X005746Y024041D01*
X005695Y023919D01*
X005695Y023786D01*
X005746Y023663D01*
X005840Y023569D01*
X005963Y023518D01*
X006096Y023518D01*
X006218Y023569D01*
X006312Y023663D01*
X006323Y023690D02*
X008377Y023690D01*
X008377Y023738D02*
X006343Y023738D01*
X006363Y023787D02*
X008377Y023787D01*
X008377Y023835D02*
X006363Y023835D01*
X006363Y023884D02*
X008377Y023884D01*
X008377Y023932D02*
X006357Y023932D01*
X006337Y023981D02*
X008377Y023981D01*
X008377Y024029D02*
X006317Y024029D01*
X006276Y024078D02*
X008377Y024078D01*
X008336Y024126D02*
X006227Y024126D01*
X006122Y024175D02*
X008314Y024175D01*
X008314Y024224D02*
X003477Y024224D01*
X003477Y024272D02*
X008314Y024272D01*
X008326Y024321D02*
X007802Y024321D01*
X007777Y024295D02*
X007890Y024408D01*
X007890Y024568D01*
X007777Y024681D01*
X007617Y024681D01*
X007504Y024568D01*
X007504Y024408D01*
X007617Y024295D01*
X007777Y024295D01*
X007851Y024369D02*
X008375Y024369D01*
X008377Y024418D02*
X007890Y024418D01*
X007890Y024466D02*
X008377Y024466D01*
X008377Y024515D02*
X007890Y024515D01*
X007890Y024563D02*
X008377Y024563D01*
X008377Y024612D02*
X007846Y024612D01*
X007798Y024660D02*
X008377Y024660D01*
X008377Y024709D02*
X006338Y024709D01*
X006358Y024757D02*
X008377Y024757D01*
X008377Y024806D02*
X006363Y024806D01*
X006363Y024770D02*
X006312Y024647D01*
X006218Y024553D01*
X006096Y024502D01*
X005963Y024502D01*
X005840Y024553D01*
X005746Y024647D01*
X005695Y024770D01*
X005695Y024903D01*
X003477Y024903D01*
X003477Y024855D02*
X005695Y024855D01*
X005695Y024903D02*
X005746Y025026D01*
X005840Y025119D01*
X005963Y025170D01*
X006096Y025170D01*
X006218Y025119D01*
X006312Y025026D01*
X006363Y024903D01*
X008377Y024903D01*
X008377Y024855D02*
X006363Y024855D01*
X006363Y024903D02*
X006363Y024770D01*
X006318Y024660D02*
X007596Y024660D01*
X007547Y024612D02*
X006277Y024612D01*
X006228Y024563D02*
X007504Y024563D01*
X007504Y024515D02*
X006126Y024515D01*
X005932Y024515D02*
X003477Y024515D01*
X003477Y024563D02*
X005830Y024563D01*
X005781Y024612D02*
X003477Y024612D01*
X003477Y024660D02*
X005740Y024660D01*
X005720Y024709D02*
X003477Y024709D01*
X003477Y024757D02*
X005700Y024757D01*
X005695Y024806D02*
X003477Y024806D01*
X003477Y024952D02*
X005715Y024952D01*
X005735Y025000D02*
X003477Y025000D01*
X003477Y025049D02*
X005769Y025049D01*
X005818Y025097D02*
X003477Y025097D01*
X003477Y025146D02*
X005903Y025146D01*
X006155Y025146D02*
X008377Y025146D01*
X008377Y025194D02*
X003477Y025194D01*
X003477Y025243D02*
X008377Y025243D01*
X008377Y025291D02*
X003477Y025291D01*
X003477Y025340D02*
X008377Y025340D01*
X008377Y025389D02*
X003477Y025389D01*
X003477Y025437D02*
X008377Y025437D01*
X008377Y025486D02*
X005170Y025486D01*
X005087Y025451D02*
X005309Y025543D01*
X005480Y025714D01*
X005572Y025936D01*
X005572Y026177D01*
X005480Y026400D01*
X005309Y026570D01*
X005087Y026662D01*
X004846Y026662D01*
X004623Y026570D01*
X004453Y026400D01*
X004360Y026177D01*
X004360Y025936D01*
X004453Y025714D01*
X004623Y025543D01*
X004846Y025451D01*
X005087Y025451D01*
X005287Y025534D02*
X008377Y025534D01*
X008377Y025583D02*
X005349Y025583D01*
X005397Y025631D02*
X008377Y025631D01*
X008377Y025680D02*
X005446Y025680D01*
X005486Y025728D02*
X008377Y025728D01*
X008377Y025777D02*
X005506Y025777D01*
X005526Y025825D02*
X008377Y025825D01*
X008377Y025874D02*
X005546Y025874D01*
X005566Y025923D02*
X008377Y025923D01*
X008377Y025971D02*
X005572Y025971D01*
X005572Y026020D02*
X008377Y026020D01*
X008377Y026068D02*
X005572Y026068D01*
X005572Y026117D02*
X008377Y026117D01*
X008377Y026165D02*
X005572Y026165D01*
X005557Y026214D02*
X008377Y026214D01*
X008377Y026262D02*
X005536Y026262D01*
X005516Y026311D02*
X008377Y026311D01*
X008377Y026359D02*
X005496Y026359D01*
X005471Y026408D02*
X008377Y026408D01*
X008377Y026456D02*
X005423Y026456D01*
X005374Y026505D02*
X008377Y026505D01*
X008377Y026554D02*
X005326Y026554D01*
X005232Y026602D02*
X008377Y026602D01*
X008377Y026651D02*
X005115Y026651D01*
X004817Y026651D02*
X003859Y026651D01*
X003908Y026699D02*
X008377Y026699D01*
X008377Y026748D02*
X008209Y026748D01*
X008187Y026725D02*
X008300Y026838D01*
X008300Y026998D01*
X008187Y027111D01*
X008027Y027111D01*
X007914Y026998D01*
X007914Y026838D01*
X008027Y026725D01*
X008187Y026725D01*
X008258Y026796D02*
X008377Y026796D01*
X008377Y026845D02*
X008300Y026845D01*
X008300Y026893D02*
X008377Y026893D01*
X008377Y026942D02*
X008300Y026942D01*
X008300Y026990D02*
X008377Y026990D01*
X008377Y027039D02*
X008259Y027039D01*
X008210Y027088D02*
X008377Y027088D01*
X008377Y027136D02*
X005119Y027136D01*
X005237Y027185D02*
X008377Y027185D01*
X008377Y027233D02*
X005316Y027233D01*
X005364Y027282D02*
X008377Y027282D01*
X008377Y027330D02*
X005413Y027330D01*
X005460Y027379D02*
X008377Y027379D01*
X008377Y027427D02*
X005480Y027427D01*
X005501Y027476D02*
X008377Y027476D01*
X008377Y027524D02*
X005521Y027524D01*
X005541Y027573D02*
X008377Y027573D01*
X008377Y027622D02*
X005552Y027622D01*
X005552Y027670D02*
X008377Y027670D01*
X008377Y027719D02*
X005552Y027719D01*
X005552Y027767D02*
X008377Y027767D01*
X008377Y027816D02*
X005552Y027816D01*
X005542Y027864D02*
X008377Y027864D01*
X008377Y027913D02*
X005522Y027913D01*
X005502Y027961D02*
X008377Y027961D01*
X008377Y028010D02*
X005482Y028010D01*
X005461Y028058D02*
X008377Y028058D01*
X008377Y028107D02*
X005416Y028107D01*
X005367Y028156D02*
X008377Y028156D01*
X008377Y028204D02*
X005413Y028204D01*
X005461Y028253D02*
X008377Y028253D01*
X008377Y028301D02*
X005510Y028301D01*
X005558Y028350D02*
X008377Y028350D01*
X008377Y028398D02*
X005607Y028398D01*
X005655Y028447D02*
X008377Y028447D01*
X008377Y028495D02*
X005704Y028495D01*
X005752Y028544D02*
X008377Y028544D01*
X008377Y028592D02*
X005801Y028592D01*
X005849Y028641D02*
X005859Y028641D01*
X006159Y028641D02*
X008377Y028641D01*
X008377Y028689D02*
X006231Y028689D01*
X006279Y028738D02*
X008377Y028738D01*
X008377Y028787D02*
X006307Y028787D01*
X006327Y028835D02*
X008377Y028835D01*
X008377Y028884D02*
X006343Y028884D01*
X006343Y028932D02*
X008377Y028932D01*
X008377Y028981D02*
X006343Y028981D01*
X006334Y029029D02*
X008377Y029029D01*
X008377Y029078D02*
X006314Y029078D01*
X006335Y029126D02*
X008377Y029126D01*
X008377Y029175D02*
X006383Y029175D01*
X006432Y029223D02*
X008377Y029223D01*
X008377Y029272D02*
X006481Y029272D01*
X006529Y029321D02*
X008377Y029321D01*
X008377Y029369D02*
X006578Y029369D01*
X006626Y029418D02*
X008377Y029418D01*
X008377Y029466D02*
X006675Y029466D01*
X006723Y029515D02*
X008365Y029515D01*
X008353Y029563D02*
X006772Y029563D01*
X006820Y029612D02*
X008341Y029612D01*
X008329Y029660D02*
X006869Y029660D01*
X006917Y029709D02*
X008317Y029709D01*
X008305Y029757D02*
X006966Y029757D01*
X007014Y029806D02*
X008292Y029806D01*
X008280Y029855D02*
X007063Y029855D01*
X008003Y027088D02*
X004296Y027088D01*
X004345Y027136D02*
X004773Y027136D01*
X004656Y027185D02*
X004393Y027185D01*
X004442Y027233D02*
X004576Y027233D01*
X004528Y027282D02*
X004490Y027282D01*
X004248Y027039D02*
X007955Y027039D01*
X007914Y026990D02*
X004199Y026990D01*
X004150Y026942D02*
X007914Y026942D01*
X007914Y026893D02*
X004102Y026893D01*
X004053Y026845D02*
X007914Y026845D01*
X007956Y026796D02*
X004005Y026796D01*
X003956Y026748D02*
X008005Y026748D01*
X008377Y025097D02*
X006240Y025097D01*
X006289Y025049D02*
X008377Y025049D01*
X008377Y025000D02*
X006323Y025000D01*
X006343Y024952D02*
X008377Y024952D01*
X007504Y024466D02*
X003477Y024466D01*
X003477Y024418D02*
X007504Y024418D01*
X007543Y024369D02*
X003477Y024369D01*
X003477Y024321D02*
X007592Y024321D01*
X007068Y023592D02*
X006242Y023592D01*
X006158Y023544D02*
X007020Y023544D01*
X006984Y023495D02*
X003477Y023495D01*
X003477Y023447D02*
X006984Y023447D01*
X006984Y023398D02*
X006096Y023398D01*
X006214Y023350D02*
X006984Y023350D01*
X007031Y023301D02*
X006265Y023301D01*
X006313Y023253D02*
X007080Y023253D01*
X005962Y023398D02*
X003477Y023398D01*
X003477Y023350D02*
X005844Y023350D01*
X005793Y023301D02*
X003477Y023301D01*
X003477Y023253D02*
X005745Y023253D01*
X005725Y023204D02*
X003477Y023204D01*
X003477Y023156D02*
X005705Y023156D01*
X005695Y023107D02*
X003477Y023107D01*
X003477Y023058D02*
X005695Y023058D01*
X005695Y023010D02*
X003477Y023010D01*
X003477Y022961D02*
X005710Y022961D01*
X005730Y022913D02*
X003477Y022913D01*
X003477Y022864D02*
X005757Y022864D01*
X005806Y022816D02*
X003477Y022816D01*
X003477Y022767D02*
X005874Y022767D01*
X005900Y023544D02*
X003477Y023544D01*
X003477Y023592D02*
X005816Y023592D01*
X005768Y023641D02*
X003477Y023641D01*
X003477Y023690D02*
X005735Y023690D01*
X005715Y023738D02*
X003477Y023738D01*
X003477Y023787D02*
X005695Y023787D01*
X005695Y023835D02*
X003477Y023835D01*
X003477Y023884D02*
X005695Y023884D01*
X005701Y023932D02*
X003477Y023932D01*
X003477Y023981D02*
X005721Y023981D01*
X005741Y024029D02*
X003477Y024029D01*
X003477Y024078D02*
X005782Y024078D01*
X005831Y024126D02*
X003477Y024126D01*
X003477Y024175D02*
X005936Y024175D01*
X004762Y025486D02*
X003477Y025486D01*
X003477Y025534D02*
X004645Y025534D01*
X004584Y025583D02*
X003477Y025583D01*
X003477Y025631D02*
X004535Y025631D01*
X004486Y025680D02*
X003477Y025680D01*
X003477Y025728D02*
X004446Y025728D01*
X004426Y025777D02*
X003477Y025777D01*
X003477Y025825D02*
X004406Y025825D01*
X004386Y025874D02*
X003477Y025874D01*
X003477Y025923D02*
X004366Y025923D01*
X004360Y025971D02*
X003477Y025971D01*
X003477Y026020D02*
X004360Y026020D01*
X004360Y026068D02*
X003477Y026068D01*
X003477Y026117D02*
X004360Y026117D01*
X004360Y026165D02*
X003477Y026165D01*
X003477Y026214D02*
X004376Y026214D01*
X004396Y026262D02*
X003477Y026262D01*
X003519Y026311D02*
X004416Y026311D01*
X004436Y026359D02*
X003568Y026359D01*
X003616Y026408D02*
X004461Y026408D01*
X004509Y026456D02*
X003665Y026456D01*
X003714Y026505D02*
X004558Y026505D01*
X004606Y026554D02*
X003762Y026554D01*
X003811Y026602D02*
X004700Y026602D01*
X010727Y020068D02*
X010977Y020168D01*
X011337Y020168D01*
X011617Y020048D01*
X011937Y019908D01*
X011827Y019718D01*
X011917Y019388D01*
X013044Y018204D01*
X012441Y018204D01*
X012490Y018156D02*
X013044Y018156D01*
X013044Y018204D02*
X013044Y018098D01*
X013157Y017985D01*
X013252Y017985D01*
X013349Y017884D01*
X013349Y017788D01*
X013462Y017675D01*
X013547Y017675D01*
X013654Y017563D01*
X013654Y017458D01*
X013767Y017345D01*
X013861Y017345D01*
X015077Y016068D01*
X014577Y016068D01*
X014626Y016020D02*
X015247Y016020D01*
X015417Y015971D02*
X014674Y015971D01*
X014723Y015923D02*
X015473Y015923D01*
X015427Y015968D02*
X015627Y015768D01*
X014877Y015768D01*
X013420Y017225D01*
X013420Y017308D01*
X013335Y017393D01*
X013400Y017458D01*
X013400Y017618D01*
X013287Y017731D01*
X013127Y017731D01*
X013052Y017656D01*
X012967Y017741D01*
X012904Y017741D01*
X010877Y019768D01*
X010727Y019818D01*
X010727Y020068D01*
X010727Y020049D02*
X011616Y020049D01*
X011727Y020000D02*
X010727Y020000D01*
X010727Y019952D02*
X011838Y019952D01*
X011934Y019903D02*
X010727Y019903D01*
X010727Y019855D02*
X011906Y019855D01*
X011878Y019806D02*
X010764Y019806D01*
X010888Y019758D02*
X011850Y019758D01*
X011829Y019709D02*
X010936Y019709D01*
X010985Y019660D02*
X011843Y019660D01*
X011856Y019612D02*
X011033Y019612D01*
X011082Y019563D02*
X011869Y019563D01*
X011882Y019515D02*
X011130Y019515D01*
X011179Y019466D02*
X011896Y019466D01*
X011909Y019418D02*
X011227Y019418D01*
X011276Y019369D02*
X011935Y019369D01*
X011981Y019321D02*
X011325Y019321D01*
X011373Y019272D02*
X012027Y019272D01*
X012074Y019224D02*
X011422Y019224D01*
X011470Y019175D02*
X012120Y019175D01*
X012166Y019126D02*
X011519Y019126D01*
X011567Y019078D02*
X012212Y019078D01*
X012259Y019029D02*
X011616Y019029D01*
X011664Y018981D02*
X012305Y018981D01*
X012351Y018932D02*
X011713Y018932D01*
X011761Y018884D02*
X012397Y018884D01*
X012443Y018835D02*
X011810Y018835D01*
X011859Y018787D02*
X012489Y018787D01*
X012536Y018738D02*
X011907Y018738D01*
X011956Y018690D02*
X012582Y018690D01*
X012628Y018641D02*
X012004Y018641D01*
X012053Y018592D02*
X012674Y018592D01*
X012721Y018544D02*
X012101Y018544D01*
X012150Y018495D02*
X012767Y018495D01*
X012813Y018447D02*
X012198Y018447D01*
X012247Y018398D02*
X012859Y018398D01*
X012905Y018350D02*
X012295Y018350D01*
X012344Y018301D02*
X012951Y018301D01*
X012998Y018253D02*
X012393Y018253D01*
X012538Y018107D02*
X013044Y018107D01*
X013084Y018059D02*
X012587Y018059D01*
X012635Y018010D02*
X013132Y018010D01*
X013275Y017961D02*
X012684Y017961D01*
X012732Y017913D02*
X013321Y017913D01*
X013349Y017864D02*
X012781Y017864D01*
X012829Y017816D02*
X013349Y017816D01*
X013370Y017767D02*
X012878Y017767D01*
X012989Y017719D02*
X013114Y017719D01*
X013066Y017670D02*
X013038Y017670D01*
X012887Y017548D02*
X012877Y017548D01*
X012327Y016998D01*
X011237Y016998D01*
X011147Y016788D02*
X010847Y017128D01*
X011147Y016788D02*
X011367Y016788D01*
X011477Y016888D01*
X012377Y016888D01*
X012837Y017348D01*
X013017Y017348D01*
X013207Y017538D01*
X013348Y017670D02*
X013552Y017670D01*
X013598Y017622D02*
X013396Y017622D01*
X013400Y017573D02*
X013645Y017573D01*
X013654Y017525D02*
X013400Y017525D01*
X013400Y017476D02*
X013654Y017476D01*
X013685Y017427D02*
X013369Y017427D01*
X013349Y017379D02*
X013733Y017379D01*
X013876Y017330D02*
X013398Y017330D01*
X013420Y017282D02*
X013922Y017282D01*
X013968Y017233D02*
X013420Y017233D01*
X013460Y017185D02*
X014014Y017185D01*
X014060Y017136D02*
X013509Y017136D01*
X013558Y017088D02*
X014107Y017088D01*
X014153Y017039D02*
X013606Y017039D01*
X013655Y016991D02*
X014199Y016991D01*
X014245Y016942D02*
X013703Y016942D01*
X013752Y016893D02*
X014291Y016893D01*
X014338Y016845D02*
X013800Y016845D01*
X013849Y016796D02*
X014384Y016796D01*
X014430Y016748D02*
X013897Y016748D01*
X013946Y016699D02*
X014476Y016699D01*
X014522Y016651D02*
X013994Y016651D01*
X014043Y016602D02*
X014569Y016602D01*
X014615Y016554D02*
X014092Y016554D01*
X014140Y016505D02*
X014661Y016505D01*
X014707Y016457D02*
X014189Y016457D01*
X014237Y016408D02*
X014754Y016408D01*
X014800Y016359D02*
X014286Y016359D01*
X014334Y016311D02*
X014846Y016311D01*
X014892Y016262D02*
X014383Y016262D01*
X014431Y016214D02*
X014938Y016214D01*
X014985Y016165D02*
X014480Y016165D01*
X014528Y016117D02*
X015031Y016117D01*
X015077Y016068D02*
X015427Y015968D01*
X015521Y015874D02*
X014771Y015874D01*
X014820Y015826D02*
X015570Y015826D01*
X015618Y015777D02*
X014868Y015777D01*
X015117Y016458D02*
X013827Y017868D01*
X013839Y017985D01*
X013937Y017985D01*
X014050Y018098D01*
X014050Y018258D01*
X013970Y018338D01*
X014012Y018380D01*
X014087Y018305D01*
X014247Y018305D01*
X014360Y018418D01*
X014360Y018578D01*
X014247Y018691D01*
X014087Y018691D01*
X014012Y018616D01*
X013937Y018691D01*
X013909Y018691D01*
X013927Y018868D01*
X014177Y019118D01*
X014227Y019118D01*
X014594Y018751D01*
X014594Y018718D01*
X014707Y018605D01*
X014740Y018605D01*
X015325Y018020D01*
X015287Y017981D01*
X015207Y018061D01*
X015047Y018061D01*
X014934Y017948D01*
X014934Y017788D01*
X015047Y017675D01*
X015207Y017675D01*
X015277Y017745D01*
X015357Y017665D01*
X015517Y017665D01*
X015592Y017740D01*
X015619Y017713D01*
X015544Y017638D01*
X015544Y017478D01*
X015639Y017383D01*
X015602Y017346D01*
X015507Y017441D01*
X015347Y017441D01*
X015267Y017361D01*
X015207Y017421D01*
X015047Y017421D01*
X014934Y017308D01*
X014934Y017148D01*
X015047Y017035D01*
X015207Y017035D01*
X015287Y017115D01*
X015314Y017088D01*
X015234Y017008D01*
X015234Y016848D01*
X015347Y016735D01*
X015507Y016735D01*
X015620Y016848D01*
X015620Y017008D01*
X015540Y017088D01*
X015572Y017120D01*
X015667Y017025D01*
X015827Y017025D01*
X015940Y017138D01*
X015940Y017298D01*
X015845Y017393D01*
X015898Y017447D01*
X016270Y017075D01*
X016194Y016998D01*
X016194Y016838D01*
X016291Y016741D01*
X016207Y016741D01*
X016094Y016628D01*
X016094Y016468D01*
X016207Y016355D01*
X016367Y016355D01*
X016480Y016468D01*
X016480Y016628D01*
X016383Y016725D01*
X016467Y016725D01*
X016543Y016802D01*
X016827Y016518D01*
X016827Y016018D01*
X018477Y014318D01*
X018477Y013318D01*
X018377Y013218D01*
X018340Y013218D01*
X018337Y013221D01*
X018177Y013221D01*
X018174Y013218D01*
X017727Y013218D01*
X017677Y013268D01*
X017677Y014268D01*
X016277Y015668D01*
X016177Y015918D01*
X016177Y015928D01*
X015785Y016320D01*
X015785Y016323D01*
X015672Y016436D01*
X015669Y016436D01*
X015647Y016458D01*
X015117Y016458D01*
X015074Y016505D02*
X016094Y016505D01*
X016094Y016554D02*
X015030Y016554D01*
X014985Y016602D02*
X016094Y016602D01*
X016116Y016651D02*
X014941Y016651D01*
X014896Y016699D02*
X016165Y016699D01*
X016236Y016796D02*
X015568Y016796D01*
X015519Y016748D02*
X016284Y016748D01*
X016194Y016845D02*
X015616Y016845D01*
X015620Y016893D02*
X016194Y016893D01*
X016194Y016942D02*
X015620Y016942D01*
X015620Y016991D02*
X016194Y016991D01*
X016235Y017039D02*
X015840Y017039D01*
X015889Y017088D02*
X016258Y017088D01*
X016209Y017136D02*
X015938Y017136D01*
X015940Y017185D02*
X016160Y017185D01*
X016112Y017233D02*
X015940Y017233D01*
X015940Y017282D02*
X016063Y017282D01*
X016015Y017330D02*
X015908Y017330D01*
X015859Y017379D02*
X015966Y017379D01*
X015918Y017427D02*
X015879Y017427D01*
X015635Y017379D02*
X015569Y017379D01*
X015595Y017427D02*
X015521Y017427D01*
X015546Y017476D02*
X015000Y017476D01*
X015000Y017468D02*
X014887Y017355D01*
X014727Y017355D01*
X014614Y017468D01*
X014614Y017628D01*
X014727Y017741D01*
X014887Y017741D01*
X015000Y017628D01*
X015000Y017468D01*
X015000Y017525D02*
X015544Y017525D01*
X015544Y017573D02*
X015000Y017573D01*
X015000Y017622D02*
X015544Y017622D01*
X015521Y017670D02*
X015576Y017670D01*
X015570Y017719D02*
X015614Y017719D01*
X015352Y017670D02*
X014958Y017670D01*
X015004Y017719D02*
X014909Y017719D01*
X014955Y017767D02*
X014659Y017767D01*
X014680Y017788D02*
X014567Y017675D01*
X014407Y017675D01*
X014294Y017788D01*
X014294Y017948D01*
X014407Y018061D01*
X014567Y018061D01*
X014680Y017948D01*
X014680Y017788D01*
X014680Y017816D02*
X014934Y017816D01*
X014934Y017864D02*
X014680Y017864D01*
X014680Y017913D02*
X014934Y017913D01*
X014947Y017961D02*
X014667Y017961D01*
X014618Y018010D02*
X014996Y018010D01*
X015044Y018059D02*
X014570Y018059D01*
X014404Y018059D02*
X014010Y018059D01*
X014050Y018107D02*
X015238Y018107D01*
X015210Y018059D02*
X015287Y018059D01*
X015258Y018010D02*
X015316Y018010D01*
X015190Y018156D02*
X014050Y018156D01*
X014050Y018204D02*
X015141Y018204D01*
X015092Y018253D02*
X014050Y018253D01*
X014007Y018301D02*
X015044Y018301D01*
X014995Y018350D02*
X014291Y018350D01*
X014340Y018398D02*
X014947Y018398D01*
X014898Y018447D02*
X014360Y018447D01*
X014360Y018495D02*
X014850Y018495D01*
X014801Y018544D02*
X014360Y018544D01*
X014346Y018592D02*
X014753Y018592D01*
X014671Y018641D02*
X014297Y018641D01*
X014248Y018690D02*
X014623Y018690D01*
X014594Y018738D02*
X013914Y018738D01*
X013919Y018787D02*
X014559Y018787D01*
X014510Y018835D02*
X013924Y018835D01*
X013942Y018884D02*
X014461Y018884D01*
X014413Y018932D02*
X013991Y018932D01*
X014039Y018981D02*
X014364Y018981D01*
X014316Y019029D02*
X014088Y019029D01*
X014136Y019078D02*
X014267Y019078D01*
X014480Y019272D02*
X015000Y019272D01*
X014506Y019272D01*
X014532Y019224D02*
X015579Y019224D01*
X014558Y019224D01*
X014565Y019193D02*
X014201Y019534D01*
X014177Y019558D01*
X014177Y019565D01*
X014257Y019565D01*
X014370Y019678D01*
X014370Y019838D01*
X014257Y019951D01*
X014171Y019951D01*
X014177Y020568D01*
X014277Y020668D01*
X015237Y020615D01*
X015347Y020505D01*
X015507Y020505D01*
X015596Y020595D01*
X016077Y020568D01*
X016196Y020471D01*
X016184Y020458D01*
X016184Y020298D01*
X016297Y020185D01*
X016457Y020185D01*
X016496Y020225D01*
X016627Y020118D01*
X016814Y019509D01*
X016814Y019508D01*
X016814Y019348D01*
X016927Y019235D01*
X017087Y019235D01*
X017172Y019320D01*
X017209Y019283D01*
X017124Y019198D01*
X017124Y019038D01*
X017237Y018925D01*
X017397Y018925D01*
X017510Y019038D01*
X017510Y019198D01*
X017435Y019273D01*
X017482Y019320D01*
X017557Y019245D01*
X017717Y019245D01*
X017830Y019358D01*
X017830Y019468D01*
X019627Y019468D01*
X020077Y019268D01*
X020227Y014668D01*
X021877Y013668D01*
X026677Y013668D01*
X027027Y013168D01*
X027027Y011468D01*
X026927Y011368D01*
X025427Y011368D01*
X024677Y012118D01*
X020127Y012118D01*
X019827Y012418D01*
X020127Y012118D01*
X024677Y012118D01*
X025427Y011368D01*
X026927Y011368D01*
X027027Y011468D01*
X027027Y012168D01*
X026827Y012368D01*
X025777Y012368D01*
X025577Y012568D01*
X020577Y012618D01*
X019877Y013218D01*
X019277Y013218D01*
X019027Y013518D01*
X020077Y016318D01*
X020157Y021055D01*
X020094Y021118D01*
X020094Y021278D01*
X020162Y021346D01*
X020177Y022218D01*
X018627Y023118D01*
X016830Y023168D01*
X016830Y023128D01*
X016717Y023015D01*
X016671Y023015D01*
X016636Y022981D01*
X016677Y022981D01*
X016790Y022868D01*
X016790Y022708D01*
X016677Y022595D01*
X016517Y022595D01*
X016404Y022708D01*
X016404Y022754D01*
X015620Y021985D01*
X015620Y021878D01*
X015540Y021798D01*
X015620Y021718D01*
X015620Y021558D01*
X015507Y021445D01*
X015347Y021445D01*
X015267Y021525D01*
X015220Y021478D01*
X015300Y021398D01*
X015300Y021238D01*
X015225Y021163D01*
X015310Y021078D01*
X015310Y020918D01*
X015197Y020805D01*
X015037Y020805D01*
X014924Y020918D01*
X014924Y021078D01*
X014999Y021153D01*
X014914Y021238D01*
X014914Y021293D01*
X014680Y021063D01*
X014680Y020918D01*
X014567Y020805D01*
X014417Y020805D01*
X014277Y020668D01*
X014177Y020568D01*
X014177Y019951D01*
X014257Y019951D01*
X014370Y019838D01*
X014370Y019678D01*
X014257Y019565D01*
X014191Y019565D01*
X014591Y019193D01*
X014801Y019193D01*
X014912Y019193D01*
X015141Y018964D01*
X015180Y018926D01*
X015180Y018925D01*
X015181Y018924D01*
X015181Y018870D01*
X015185Y018639D01*
X015497Y018348D01*
X015587Y018368D01*
X015634Y018328D01*
X015639Y018333D01*
X015564Y018408D01*
X015564Y018568D01*
X015677Y018681D01*
X015837Y018681D01*
X015950Y018568D01*
X015950Y018408D01*
X015865Y018323D01*
X015940Y018248D01*
X015940Y018088D01*
X015926Y018075D01*
X015960Y018045D01*
X015967Y018051D01*
X016127Y018051D01*
X016240Y017938D01*
X016240Y017803D01*
X016311Y017741D01*
X016447Y017741D01*
X016517Y017671D01*
X016607Y017761D01*
X016767Y017761D01*
X016852Y017676D01*
X016917Y017741D01*
X017077Y017741D01*
X017149Y017669D01*
X017196Y017716D01*
X017124Y017788D01*
X017124Y017948D01*
X017199Y018023D01*
X017167Y018055D01*
X017087Y017975D01*
X016927Y017975D01*
X016814Y018088D01*
X016814Y018248D01*
X016927Y018361D01*
X017087Y018361D01*
X017157Y018291D01*
X017199Y018333D01*
X017124Y018408D01*
X017124Y018568D01*
X017237Y018681D01*
X017397Y018681D01*
X017462Y018616D01*
X017504Y018658D01*
X017434Y018728D01*
X017434Y018888D01*
X017547Y019001D01*
X017707Y019001D01*
X017820Y018888D01*
X017820Y018728D01*
X017755Y018663D01*
X017825Y018593D01*
X017825Y018433D01*
X017740Y018348D01*
X017830Y018258D01*
X017830Y018098D01*
X017740Y018008D01*
X017820Y017928D01*
X017820Y017768D01*
X017707Y017655D01*
X017547Y017655D01*
X017462Y017740D01*
X017432Y017711D01*
X017505Y017638D01*
X017505Y017478D01*
X017417Y017391D01*
X017474Y017334D01*
X017557Y017416D01*
X017717Y017416D01*
X017830Y017303D01*
X017830Y017143D01*
X017752Y017066D01*
X017830Y016988D01*
X017830Y016828D01*
X017717Y016715D01*
X017557Y016715D01*
X017444Y016828D01*
X017444Y016988D01*
X017521Y017066D01*
X017479Y017108D01*
X017397Y017025D01*
X017237Y017025D01*
X017142Y017120D01*
X017089Y017067D01*
X018877Y015518D01*
X018909Y014586D01*
X018961Y014534D01*
X018961Y013077D01*
X018977Y012618D01*
X019077Y012418D01*
X019827Y012418D01*
X018877Y012418D01*
X018977Y012518D01*
X018977Y015718D01*
X018263Y016382D01*
X018310Y016428D01*
X018197Y016315D01*
X018037Y016315D01*
X017924Y016428D01*
X017924Y016588D01*
X018037Y016701D01*
X018197Y016701D01*
X018310Y016588D01*
X018310Y016428D01*
X018310Y016588D01*
X018197Y016701D01*
X018037Y016701D01*
X017980Y016645D01*
X017807Y016806D01*
X017830Y016828D01*
X017830Y016988D01*
X017752Y017066D01*
X017830Y017143D01*
X017830Y017303D01*
X017717Y017416D01*
X017557Y017416D01*
X017474Y017334D01*
X017417Y017391D01*
X017505Y017478D01*
X017505Y017638D01*
X017432Y017711D01*
X017462Y017740D01*
X017547Y017655D01*
X017707Y017655D01*
X017820Y017768D01*
X017820Y017928D01*
X017740Y018008D01*
X017830Y018098D01*
X017830Y018258D01*
X017740Y018348D01*
X017825Y018433D01*
X017825Y018593D01*
X017755Y018663D01*
X017820Y018728D01*
X017820Y018888D01*
X017707Y019001D01*
X017547Y019001D01*
X017434Y018888D01*
X017434Y018728D01*
X017504Y018658D01*
X017462Y018616D01*
X017397Y018681D01*
X017237Y018681D01*
X017124Y018568D01*
X017124Y018408D01*
X017199Y018333D01*
X017157Y018291D01*
X017087Y018361D01*
X016927Y018361D01*
X016814Y018248D01*
X016814Y018088D01*
X016927Y017975D01*
X017087Y017975D01*
X017167Y018055D01*
X017199Y018023D01*
X017124Y017948D01*
X017124Y017788D01*
X017196Y017716D01*
X017149Y017669D01*
X017077Y017741D01*
X016917Y017741D01*
X016861Y017686D01*
X016501Y018020D01*
X016570Y018088D01*
X016457Y017975D01*
X016297Y017975D01*
X016184Y018088D01*
X016184Y018248D01*
X016297Y018361D01*
X016457Y018361D01*
X016570Y018248D01*
X016570Y018088D01*
X016570Y018248D01*
X016457Y018361D01*
X016297Y018361D01*
X016219Y018283D01*
X016127Y018368D01*
X015903Y018362D01*
X015950Y018408D01*
X015950Y018568D01*
X015837Y018681D01*
X015677Y018681D01*
X015564Y018568D01*
X015564Y018408D01*
X015619Y018353D01*
X015463Y018349D01*
X015185Y018638D01*
X015181Y018870D01*
X015181Y018924D01*
X015180Y018925D01*
X015180Y018926D01*
X015141Y018964D01*
X014912Y019193D01*
X014801Y019193D01*
X014565Y019193D01*
X014454Y019321D02*
X014952Y019321D01*
X014428Y019321D01*
X014402Y019369D02*
X014924Y019369D01*
X014377Y019369D01*
X014350Y019418D02*
X014924Y019418D01*
X014325Y019418D01*
X014298Y019466D02*
X014924Y019466D01*
X014273Y019466D01*
X014246Y019515D02*
X014930Y019515D01*
X014221Y019515D01*
X014194Y019563D02*
X014979Y019563D01*
X014177Y019563D01*
X014303Y019612D02*
X014990Y019612D01*
X014303Y019612D01*
X014352Y019660D02*
X014942Y019660D01*
X014352Y019660D01*
X014370Y019709D02*
X014934Y019709D01*
X014370Y019709D01*
X014370Y019758D02*
X014934Y019758D01*
X014370Y019758D01*
X014370Y019806D02*
X014934Y019806D01*
X014370Y019806D01*
X014353Y019855D02*
X014960Y019855D01*
X014353Y019855D01*
X014359Y019903D02*
X014305Y019903D01*
X014359Y019903D01*
X014407Y019855D02*
X014567Y019855D01*
X014680Y019968D01*
X014680Y020128D01*
X014567Y020241D01*
X014407Y020241D01*
X014294Y020128D01*
X014294Y019968D01*
X014407Y019855D01*
X014567Y019855D01*
X014680Y019968D01*
X014680Y020128D01*
X014567Y020241D01*
X014407Y020241D01*
X014294Y020128D01*
X014294Y019968D01*
X014407Y019855D01*
X014311Y019952D02*
X014171Y019952D01*
X014177Y019952D02*
X014311Y019952D01*
X014294Y020000D02*
X014171Y020000D01*
X014177Y020000D02*
X014294Y020000D01*
X014294Y020049D02*
X014172Y020049D01*
X014177Y020049D02*
X014294Y020049D01*
X014294Y020097D02*
X014172Y020097D01*
X014177Y020097D02*
X014294Y020097D01*
X014311Y020146D02*
X014173Y020146D01*
X014177Y020146D02*
X014311Y020146D01*
X014360Y020194D02*
X014173Y020194D01*
X014177Y020194D02*
X014360Y020194D01*
X014177Y020243D02*
X014989Y020243D01*
X014174Y020243D01*
X014174Y020291D02*
X014941Y020291D01*
X014177Y020291D01*
X014177Y020340D02*
X014924Y020340D01*
X014174Y020340D01*
X014175Y020389D02*
X014924Y020389D01*
X014177Y020389D01*
X014175Y020437D02*
X014924Y020437D01*
X014177Y020437D01*
X014176Y020486D02*
X014941Y020486D01*
X014177Y020486D01*
X014176Y020534D02*
X014990Y020534D01*
X014177Y020534D01*
X014191Y020583D02*
X015270Y020583D01*
X014191Y020583D01*
X014240Y020631D02*
X014943Y020631D01*
X015037Y020581D02*
X014924Y020468D01*
X014924Y020308D01*
X015037Y020195D01*
X015197Y020195D01*
X015310Y020308D01*
X015310Y020468D01*
X015197Y020581D01*
X015037Y020581D01*
X014924Y020468D01*
X014924Y020308D01*
X015037Y020195D01*
X015197Y020195D01*
X015310Y020308D01*
X015310Y020468D01*
X015197Y020581D01*
X015037Y020581D01*
X015234Y020618D02*
X015347Y020505D01*
X015507Y020505D01*
X015620Y020618D01*
X015620Y020778D01*
X015507Y020891D01*
X015347Y020891D01*
X015234Y020778D01*
X015234Y020618D01*
X015234Y020631D02*
X014240Y020631D01*
X014289Y020680D02*
X015234Y020680D01*
X015234Y020728D02*
X014338Y020728D01*
X014388Y020777D02*
X015234Y020777D01*
X015217Y020825D02*
X015281Y020825D01*
X015265Y020874D02*
X015330Y020874D01*
X015310Y020923D02*
X015870Y020923D01*
X015864Y020928D02*
X015977Y020815D01*
X016137Y020815D01*
X016250Y020928D01*
X016250Y021088D01*
X016137Y021201D01*
X015977Y021201D01*
X015864Y021088D01*
X015864Y020928D01*
X015864Y020971D02*
X015310Y020971D01*
X015310Y021020D02*
X015864Y021020D01*
X015864Y021068D02*
X015310Y021068D01*
X015271Y021117D02*
X015892Y021117D01*
X015941Y021165D02*
X015227Y021165D01*
X015275Y021214D02*
X016218Y021214D01*
X016184Y021248D02*
X016297Y021135D01*
X016457Y021135D01*
X016532Y021210D01*
X016617Y021125D01*
X016777Y021125D01*
X016858Y021206D01*
X016927Y021137D01*
X017087Y021137D01*
X017153Y021204D01*
X017203Y021154D01*
X017130Y021080D01*
X017130Y020920D01*
X017203Y020847D01*
X017124Y020768D01*
X017124Y020608D01*
X017199Y020533D01*
X017124Y020458D01*
X017124Y020298D01*
X017199Y020223D01*
X017124Y020148D01*
X017124Y019988D01*
X017204Y019908D01*
X017124Y019828D01*
X017124Y019668D01*
X017204Y019588D01*
X017162Y019546D01*
X017087Y019621D01*
X016927Y019621D01*
X016814Y019508D01*
X016814Y019348D01*
X016927Y019235D01*
X017087Y019235D01*
X017172Y019320D01*
X017209Y019283D01*
X017124Y019198D01*
X017124Y019038D01*
X017237Y018925D01*
X017397Y018925D01*
X017510Y019038D01*
X017510Y019198D01*
X017435Y019273D01*
X017482Y019320D01*
X017557Y019245D01*
X017717Y019245D01*
X017830Y019358D01*
X017830Y019518D01*
X017717Y019631D01*
X017557Y019631D01*
X017482Y019556D01*
X017440Y019598D01*
X017510Y019668D01*
X017510Y019828D01*
X017430Y019908D01*
X017464Y019943D01*
X017555Y019852D01*
X017715Y019852D01*
X017828Y019965D01*
X017828Y020125D01*
X017741Y020212D01*
X017826Y020297D01*
X017826Y020457D01*
X017738Y020545D01*
X017821Y020628D01*
X017821Y020788D01*
X017738Y020870D01*
X017826Y020957D01*
X017826Y021117D01*
X020096Y021117D01*
X020094Y021165D02*
X018067Y021165D01*
X018037Y021135D02*
X018150Y021248D01*
X018150Y021408D01*
X020163Y021408D01*
X020164Y021457D02*
X018101Y021457D01*
X018080Y021478D02*
X018160Y021558D01*
X018160Y021718D01*
X018047Y021831D01*
X017887Y021831D01*
X017774Y021718D01*
X017774Y021558D01*
X017844Y021488D01*
X017764Y021408D01*
X017495Y021408D01*
X017515Y021388D02*
X017417Y021486D01*
X017490Y021558D01*
X017490Y021718D01*
X017377Y021831D01*
X017217Y021831D01*
X017157Y021771D01*
X017087Y021841D01*
X016927Y021841D01*
X016814Y021728D01*
X016814Y021568D01*
X016893Y021489D01*
X016846Y021442D01*
X016777Y021511D01*
X016617Y021511D01*
X016542Y021436D01*
X016457Y021521D01*
X016297Y021521D01*
X016184Y021408D01*
X015290Y021408D01*
X015300Y021359D02*
X016184Y021359D01*
X016184Y021311D02*
X015300Y021311D01*
X015300Y021262D02*
X016184Y021262D01*
X016184Y021248D02*
X016184Y021408D01*
X016232Y021457D02*
X015518Y021457D01*
X015566Y021505D02*
X016281Y021505D01*
X016473Y021505D02*
X016611Y021505D01*
X016562Y021457D02*
X016521Y021457D01*
X016783Y021505D02*
X016877Y021505D01*
X016860Y021457D02*
X016831Y021457D01*
X016829Y021554D02*
X015615Y021554D01*
X015620Y021602D02*
X016814Y021602D01*
X016814Y021651D02*
X015620Y021651D01*
X015620Y021699D02*
X016814Y021699D01*
X016833Y021748D02*
X015590Y021748D01*
X015542Y021796D02*
X016882Y021796D01*
X017132Y021796D02*
X017182Y021796D01*
X017412Y021796D02*
X017525Y021796D01*
X017553Y021768D02*
X017713Y021768D01*
X017826Y021881D01*
X017826Y022041D01*
X017713Y022154D01*
X017553Y022154D01*
X017440Y022041D01*
X017440Y021881D01*
X017553Y021768D01*
X017490Y021699D02*
X017774Y021699D01*
X017774Y021651D02*
X017490Y021651D01*
X017490Y021602D02*
X017774Y021602D01*
X017779Y021554D02*
X017485Y021554D01*
X017436Y021505D02*
X017827Y021505D01*
X017812Y021457D02*
X017446Y021457D01*
X017515Y021388D02*
X017515Y021228D01*
X017441Y021155D01*
X017459Y021137D01*
X017553Y021230D01*
X017713Y021230D01*
X017826Y021117D01*
X017826Y021068D02*
X020144Y021068D01*
X020157Y021020D02*
X017826Y021020D01*
X017826Y020971D02*
X020156Y020971D01*
X020155Y020923D02*
X017791Y020923D01*
X017742Y020874D02*
X020154Y020874D01*
X020153Y020825D02*
X017783Y020825D01*
X017821Y020777D02*
X020152Y020777D01*
X020152Y020728D02*
X017821Y020728D01*
X017821Y020680D02*
X020151Y020680D01*
X020150Y020631D02*
X017821Y020631D01*
X017776Y020583D02*
X020149Y020583D01*
X020148Y020534D02*
X017749Y020534D01*
X017797Y020486D02*
X020147Y020486D01*
X020147Y020437D02*
X017826Y020437D01*
X017826Y020389D02*
X020146Y020389D01*
X020145Y020340D02*
X017826Y020340D01*
X017820Y020291D02*
X020144Y020291D01*
X020143Y020243D02*
X017771Y020243D01*
X017759Y020194D02*
X020143Y020194D01*
X020142Y020146D02*
X017807Y020146D01*
X017828Y020097D02*
X020141Y020097D01*
X020140Y020049D02*
X017828Y020049D01*
X017828Y020000D02*
X020139Y020000D01*
X020138Y019952D02*
X017814Y019952D01*
X017766Y019903D02*
X020138Y019903D01*
X020137Y019855D02*
X017717Y019855D01*
X017553Y019855D02*
X017483Y019855D01*
X017504Y019903D02*
X017435Y019903D01*
X017510Y019806D02*
X020136Y019806D01*
X020135Y019758D02*
X017510Y019758D01*
X017510Y019709D02*
X020134Y019709D01*
X020134Y019660D02*
X017502Y019660D01*
X017538Y019612D02*
X017453Y019612D01*
X017475Y019563D02*
X017489Y019563D01*
X017736Y019612D02*
X020133Y019612D01*
X020132Y019563D02*
X017785Y019563D01*
X017830Y019515D02*
X020131Y019515D01*
X020130Y019466D02*
X017830Y019466D01*
X019632Y019466D01*
X019741Y019418D02*
X017830Y019418D01*
X020129Y019418D01*
X020129Y019369D02*
X017830Y019369D01*
X019850Y019369D01*
X019959Y019321D02*
X017792Y019321D01*
X020128Y019321D01*
X020127Y019272D02*
X017743Y019272D01*
X020068Y019272D01*
X020078Y019224D02*
X017484Y019224D01*
X020126Y019224D01*
X020125Y019175D02*
X017510Y019175D01*
X020080Y019175D01*
X020081Y019126D02*
X017510Y019126D01*
X020124Y019126D01*
X020124Y019078D02*
X017510Y019078D01*
X020083Y019078D01*
X020085Y019029D02*
X017501Y019029D01*
X020123Y019029D01*
X020122Y018981D02*
X017727Y018981D01*
X020086Y018981D01*
X020088Y018932D02*
X017776Y018932D01*
X020121Y018932D01*
X020120Y018884D02*
X017820Y018884D01*
X020089Y018884D01*
X020091Y018835D02*
X017820Y018835D01*
X020120Y018835D01*
X020119Y018787D02*
X017820Y018787D01*
X020093Y018787D01*
X020094Y018738D02*
X017820Y018738D01*
X020118Y018738D01*
X020117Y018690D02*
X017781Y018690D01*
X020096Y018690D01*
X020097Y018641D02*
X017777Y018641D01*
X020116Y018641D01*
X020115Y018592D02*
X017825Y018592D01*
X020099Y018592D01*
X020100Y018544D02*
X017825Y018544D01*
X020115Y018544D01*
X020114Y018495D02*
X017825Y018495D01*
X020102Y018495D01*
X020104Y018447D02*
X017825Y018447D01*
X020113Y018447D01*
X020112Y018398D02*
X017790Y018398D01*
X020105Y018398D01*
X020107Y018350D02*
X017741Y018350D01*
X020111Y018350D01*
X020110Y018301D02*
X017787Y018301D01*
X020108Y018301D01*
X020110Y018253D02*
X017830Y018253D01*
X020110Y018253D01*
X020112Y018204D02*
X017830Y018204D01*
X020109Y018204D01*
X020108Y018156D02*
X017830Y018156D01*
X020113Y018156D01*
X020115Y018107D02*
X017830Y018107D01*
X020107Y018107D01*
X020106Y018059D02*
X017790Y018059D01*
X020116Y018059D01*
X020118Y018010D02*
X017741Y018010D01*
X020106Y018010D01*
X020105Y017961D02*
X017787Y017961D01*
X020119Y017961D01*
X020121Y017913D02*
X017820Y017913D01*
X020104Y017913D01*
X020103Y017864D02*
X017820Y017864D01*
X020123Y017864D01*
X020124Y017816D02*
X017820Y017816D01*
X020102Y017816D01*
X020101Y017767D02*
X017819Y017767D01*
X020126Y017767D01*
X020127Y017719D02*
X017770Y017719D01*
X020101Y017719D01*
X020100Y017670D02*
X017722Y017670D01*
X020129Y017670D01*
X020131Y017622D02*
X017505Y017622D01*
X020099Y017622D01*
X020098Y017573D02*
X017505Y017573D01*
X020132Y017573D01*
X020134Y017525D02*
X017505Y017525D01*
X020097Y017525D01*
X020096Y017476D02*
X017502Y017476D01*
X020135Y017476D01*
X020137Y017427D02*
X017454Y017427D01*
X020096Y017427D01*
X020095Y017379D02*
X017754Y017379D01*
X020138Y017379D01*
X020140Y017330D02*
X017803Y017330D01*
X020094Y017330D01*
X020093Y017282D02*
X017830Y017282D01*
X020142Y017282D01*
X020143Y017233D02*
X017830Y017233D01*
X020092Y017233D01*
X020092Y017185D02*
X017830Y017185D01*
X020145Y017185D01*
X020146Y017136D02*
X017823Y017136D01*
X020091Y017136D01*
X020090Y017088D02*
X017774Y017088D01*
X020148Y017088D01*
X020150Y017039D02*
X017779Y017039D01*
X020089Y017039D01*
X020088Y016991D02*
X017827Y016991D01*
X020151Y016991D01*
X020153Y016942D02*
X017830Y016942D01*
X020087Y016942D01*
X020087Y016893D02*
X017830Y016893D01*
X020154Y016893D01*
X020156Y016845D02*
X017830Y016845D01*
X020086Y016845D01*
X020085Y016796D02*
X017817Y016796D01*
X017798Y016796D02*
X020157Y016796D01*
X020159Y016748D02*
X017749Y016748D01*
X017870Y016748D02*
X020084Y016748D01*
X020083Y016699D02*
X018199Y016699D01*
X020161Y016699D01*
X020162Y016651D02*
X018247Y016651D01*
X020083Y016651D01*
X020082Y016602D02*
X018296Y016602D01*
X020164Y016602D01*
X020165Y016554D02*
X018310Y016554D01*
X020081Y016554D01*
X020080Y016505D02*
X018310Y016505D01*
X020167Y016505D01*
X020169Y016457D02*
X018310Y016457D01*
X020079Y016457D01*
X020078Y016408D02*
X018289Y016408D01*
X020170Y016408D01*
X020172Y016359D02*
X018241Y016359D01*
X018287Y016359D02*
X020078Y016359D01*
X020074Y016311D02*
X018340Y016311D01*
X018392Y016262D02*
X020056Y016262D01*
X020038Y016214D02*
X018444Y016214D01*
X018496Y016165D02*
X020019Y016165D01*
X020001Y016117D02*
X018548Y016117D01*
X018601Y016068D02*
X019983Y016068D01*
X019965Y016020D02*
X018653Y016020D01*
X018705Y015971D02*
X019947Y015971D01*
X019928Y015923D02*
X018757Y015923D01*
X018809Y015874D02*
X019910Y015874D01*
X019892Y015826D02*
X018862Y015826D01*
X018914Y015777D02*
X019874Y015777D01*
X019856Y015728D02*
X018966Y015728D01*
X018977Y015680D02*
X019837Y015680D01*
X019819Y015631D02*
X018977Y015631D01*
X018977Y015583D02*
X019801Y015583D01*
X019783Y015534D02*
X018977Y015534D01*
X018977Y015486D02*
X019765Y015486D01*
X019746Y015437D02*
X018977Y015437D01*
X018977Y015389D02*
X019728Y015389D01*
X019710Y015340D02*
X018977Y015340D01*
X018977Y015292D02*
X019692Y015292D01*
X019674Y015243D02*
X018977Y015243D01*
X018977Y015194D02*
X019655Y015194D01*
X019637Y015146D02*
X018977Y015146D01*
X018977Y015097D02*
X019619Y015097D01*
X019601Y015049D02*
X018977Y015049D01*
X018977Y015000D02*
X019583Y015000D01*
X019564Y014952D02*
X018977Y014952D01*
X018977Y014903D02*
X019546Y014903D01*
X019528Y014855D02*
X018977Y014855D01*
X018977Y014806D02*
X019510Y014806D01*
X019492Y014758D02*
X018977Y014758D01*
X018977Y014709D02*
X019473Y014709D01*
X019455Y014660D02*
X018977Y014660D01*
X018977Y014612D02*
X019437Y014612D01*
X019419Y014563D02*
X018977Y014563D01*
X018932Y014563D02*
X020400Y014563D01*
X020480Y014515D02*
X018961Y014515D01*
X018977Y014515D02*
X019401Y014515D01*
X019382Y014466D02*
X018977Y014466D01*
X018961Y014466D02*
X020560Y014466D01*
X020640Y014418D02*
X018961Y014418D01*
X018977Y014418D02*
X019364Y014418D01*
X019346Y014369D02*
X018977Y014369D01*
X018961Y014369D02*
X020720Y014369D01*
X020801Y014321D02*
X018961Y014321D01*
X018977Y014321D02*
X019328Y014321D01*
X019310Y014272D02*
X018977Y014272D01*
X018961Y014272D02*
X020881Y014272D01*
X020961Y014224D02*
X018961Y014224D01*
X018977Y014224D02*
X019291Y014224D01*
X019273Y014175D02*
X018977Y014175D01*
X018961Y014175D02*
X021041Y014175D01*
X021121Y014126D02*
X018961Y014126D01*
X018977Y014126D02*
X019255Y014126D01*
X019237Y014078D02*
X018977Y014078D01*
X018961Y014078D02*
X021201Y014078D01*
X021281Y014029D02*
X018961Y014029D01*
X018977Y014029D02*
X019219Y014029D01*
X019200Y013981D02*
X018977Y013981D01*
X018961Y013981D02*
X021361Y013981D01*
X021441Y013932D02*
X018961Y013932D01*
X018977Y013932D02*
X019182Y013932D01*
X019164Y013884D02*
X018977Y013884D01*
X018961Y013884D02*
X021521Y013884D01*
X021601Y013835D02*
X018961Y013835D01*
X018977Y013835D02*
X019146Y013835D01*
X019127Y013787D02*
X018977Y013787D01*
X018961Y013787D02*
X021682Y013787D01*
X021762Y013738D02*
X018961Y013738D01*
X018977Y013738D02*
X019109Y013738D01*
X019091Y013690D02*
X018977Y013690D01*
X018961Y013690D02*
X021842Y013690D01*
X020573Y012622D02*
X018977Y012622D01*
X027027Y012622D01*
X027027Y012670D02*
X018975Y012670D01*
X018977Y012670D02*
X020516Y012670D01*
X020460Y012719D02*
X018977Y012719D01*
X018973Y012719D02*
X027027Y012719D01*
X027027Y012767D02*
X018972Y012767D01*
X018977Y012767D02*
X020403Y012767D01*
X020346Y012816D02*
X018977Y012816D01*
X018970Y012816D02*
X027027Y012816D01*
X027027Y012864D02*
X018968Y012864D01*
X018977Y012864D02*
X020290Y012864D01*
X020233Y012913D02*
X018977Y012913D01*
X018967Y012913D02*
X027027Y012913D01*
X027027Y012961D02*
X018965Y012961D01*
X018977Y012961D02*
X020177Y012961D01*
X020120Y013010D02*
X018977Y013010D01*
X018963Y013010D02*
X027027Y013010D01*
X027027Y013059D02*
X018962Y013059D01*
X018977Y013059D02*
X020063Y013059D01*
X020007Y013107D02*
X018977Y013107D01*
X018961Y013107D02*
X027027Y013107D01*
X027027Y013156D02*
X018961Y013156D01*
X018977Y013156D02*
X019950Y013156D01*
X019893Y013204D02*
X018977Y013204D01*
X018961Y013204D02*
X027002Y013204D01*
X026968Y013253D02*
X018961Y013253D01*
X018977Y013253D02*
X019248Y013253D01*
X019208Y013301D02*
X018977Y013301D01*
X018961Y013301D02*
X026934Y013301D01*
X026900Y013350D02*
X018961Y013350D01*
X018977Y013350D02*
X019167Y013350D01*
X019127Y013398D02*
X018977Y013398D01*
X018961Y013398D02*
X026866Y013398D01*
X026832Y013447D02*
X018961Y013447D01*
X018977Y013447D02*
X019086Y013447D01*
X019046Y013495D02*
X018977Y013495D01*
X018961Y013495D02*
X026798Y013495D01*
X026764Y013544D02*
X018961Y013544D01*
X018977Y013544D02*
X019036Y013544D01*
X019055Y013593D02*
X018977Y013593D01*
X018961Y013593D02*
X026730Y013593D01*
X026696Y013641D02*
X018961Y013641D01*
X018977Y013641D02*
X019073Y013641D01*
X018477Y013641D02*
X017677Y013641D01*
X017677Y013593D02*
X018477Y013593D01*
X018477Y013544D02*
X017677Y013544D01*
X017677Y013495D02*
X018477Y013495D01*
X018477Y013447D02*
X017677Y013447D01*
X017677Y013398D02*
X018477Y013398D01*
X018477Y013350D02*
X017677Y013350D01*
X017677Y013301D02*
X018460Y013301D01*
X018411Y013253D02*
X017692Y013253D01*
X017677Y013690D02*
X018477Y013690D01*
X018477Y013738D02*
X017677Y013738D01*
X017677Y013787D02*
X018477Y013787D01*
X018477Y013835D02*
X017677Y013835D01*
X017677Y013884D02*
X018477Y013884D01*
X018477Y013932D02*
X018334Y013932D01*
X018317Y013915D02*
X018430Y014028D01*
X018430Y014188D01*
X018317Y014301D01*
X018157Y014301D01*
X018044Y014188D01*
X018044Y014028D01*
X018157Y013915D01*
X018317Y013915D01*
X018382Y013981D02*
X018477Y013981D01*
X018477Y014029D02*
X018430Y014029D01*
X018430Y014078D02*
X018477Y014078D01*
X018477Y014126D02*
X018430Y014126D01*
X018430Y014175D02*
X018477Y014175D01*
X018477Y014224D02*
X018394Y014224D01*
X018346Y014272D02*
X018477Y014272D01*
X018475Y014321D02*
X017625Y014321D01*
X017673Y014272D02*
X018128Y014272D01*
X018079Y014224D02*
X017677Y014224D01*
X017677Y014175D02*
X018044Y014175D01*
X018044Y014126D02*
X017677Y014126D01*
X017677Y014078D02*
X018044Y014078D01*
X018044Y014029D02*
X017677Y014029D01*
X017677Y013981D02*
X018091Y013981D01*
X018140Y013932D02*
X017677Y013932D01*
X017576Y014369D02*
X018427Y014369D01*
X018380Y014418D02*
X017527Y014418D01*
X017479Y014466D02*
X018333Y014466D01*
X018286Y014515D02*
X017430Y014515D01*
X017382Y014563D02*
X018239Y014563D01*
X018192Y014612D02*
X017333Y014612D01*
X017285Y014660D02*
X018145Y014660D01*
X018098Y014709D02*
X017236Y014709D01*
X017188Y014758D02*
X018051Y014758D01*
X018003Y014806D02*
X017139Y014806D01*
X017091Y014855D02*
X017956Y014855D01*
X017909Y014903D02*
X017042Y014903D01*
X016993Y014952D02*
X017862Y014952D01*
X017815Y015000D02*
X016945Y015000D01*
X016896Y015049D02*
X017768Y015049D01*
X017721Y015097D02*
X016848Y015097D01*
X016799Y015146D02*
X016961Y015146D01*
X017002Y015105D02*
X017162Y015105D01*
X017275Y015218D01*
X017275Y015378D01*
X017162Y015491D01*
X017002Y015491D01*
X016889Y015378D01*
X016889Y015218D01*
X017002Y015105D01*
X016913Y015194D02*
X016751Y015194D01*
X016702Y015243D02*
X016889Y015243D01*
X016889Y015292D02*
X016654Y015292D01*
X016605Y015340D02*
X016889Y015340D01*
X016899Y015389D02*
X016557Y015389D01*
X016508Y015437D02*
X016948Y015437D01*
X016996Y015486D02*
X016459Y015486D01*
X016411Y015534D02*
X017297Y015534D01*
X017344Y015486D02*
X017167Y015486D01*
X017216Y015437D02*
X017391Y015437D01*
X017438Y015389D02*
X017264Y015389D01*
X017275Y015340D02*
X017485Y015340D01*
X017532Y015292D02*
X017275Y015292D01*
X017275Y015243D02*
X017579Y015243D01*
X017626Y015194D02*
X017251Y015194D01*
X017202Y015146D02*
X017674Y015146D01*
X017250Y015583D02*
X016362Y015583D01*
X016314Y015631D02*
X017202Y015631D01*
X017155Y015680D02*
X016272Y015680D01*
X016253Y015728D02*
X017108Y015728D01*
X017061Y015777D02*
X016233Y015777D01*
X016214Y015826D02*
X017014Y015826D01*
X016967Y015874D02*
X016195Y015874D01*
X016177Y015923D02*
X016920Y015923D01*
X016873Y015971D02*
X016134Y015971D01*
X016086Y016020D02*
X016827Y016020D01*
X016827Y016068D02*
X016037Y016068D01*
X015988Y016117D02*
X016827Y016117D01*
X016827Y016165D02*
X015940Y016165D01*
X015891Y016214D02*
X016827Y016214D01*
X016827Y016262D02*
X015843Y016262D01*
X015794Y016311D02*
X016827Y016311D01*
X016827Y016359D02*
X016371Y016359D01*
X016419Y016408D02*
X016827Y016408D01*
X016827Y016457D02*
X016468Y016457D01*
X016480Y016505D02*
X016827Y016505D01*
X016791Y016554D02*
X016480Y016554D01*
X016480Y016602D02*
X016743Y016602D01*
X016694Y016651D02*
X016457Y016651D01*
X016409Y016699D02*
X016646Y016699D01*
X016597Y016748D02*
X016489Y016748D01*
X016538Y016796D02*
X016549Y016796D01*
X016203Y016359D02*
X015749Y016359D01*
X015700Y016408D02*
X016154Y016408D01*
X016106Y016457D02*
X015649Y016457D01*
X015334Y016748D02*
X014852Y016748D01*
X014808Y016796D02*
X015286Y016796D01*
X015237Y016845D02*
X014763Y016845D01*
X014719Y016893D02*
X015234Y016893D01*
X015234Y016942D02*
X014674Y016942D01*
X014630Y016991D02*
X015234Y016991D01*
X015210Y017039D02*
X015265Y017039D01*
X015259Y017088D02*
X015313Y017088D01*
X015540Y017088D02*
X015605Y017088D01*
X015589Y017039D02*
X015653Y017039D01*
X015285Y017379D02*
X015249Y017379D01*
X015333Y017427D02*
X014959Y017427D01*
X015005Y017379D02*
X014910Y017379D01*
X014956Y017330D02*
X014319Y017330D01*
X014364Y017282D02*
X014934Y017282D01*
X014934Y017233D02*
X014408Y017233D01*
X014452Y017185D02*
X014934Y017185D01*
X014946Y017136D02*
X014497Y017136D01*
X014541Y017088D02*
X014995Y017088D01*
X015043Y017039D02*
X014586Y017039D01*
X014703Y017379D02*
X014275Y017379D01*
X014230Y017427D02*
X014655Y017427D01*
X014614Y017476D02*
X014186Y017476D01*
X014141Y017525D02*
X014614Y017525D01*
X014614Y017573D02*
X014097Y017573D01*
X014053Y017622D02*
X014614Y017622D01*
X014656Y017670D02*
X014008Y017670D01*
X013964Y017719D02*
X014364Y017719D01*
X014315Y017767D02*
X013919Y017767D01*
X013875Y017816D02*
X014294Y017816D01*
X014294Y017864D02*
X013831Y017864D01*
X013831Y017913D02*
X014294Y017913D01*
X014307Y017961D02*
X013836Y017961D01*
X013961Y018010D02*
X014356Y018010D01*
X014610Y017719D02*
X014704Y017719D01*
X015250Y017719D02*
X015304Y017719D01*
X015462Y018350D02*
X015496Y018350D01*
X015495Y018350D02*
X015503Y018350D01*
X015443Y018398D02*
X015574Y018398D01*
X015415Y018398D01*
X015391Y018447D02*
X015564Y018447D01*
X015369Y018447D01*
X015339Y018495D02*
X015564Y018495D01*
X015322Y018495D01*
X015287Y018544D02*
X015564Y018544D01*
X015276Y018544D01*
X015235Y018592D02*
X015588Y018592D01*
X015229Y018592D01*
X015185Y018641D02*
X015637Y018641D01*
X015185Y018641D01*
X015184Y018690D02*
X016863Y018690D01*
X015184Y018690D01*
X015183Y018738D02*
X016824Y018738D01*
X015183Y018738D01*
X015182Y018787D02*
X016824Y018787D01*
X015182Y018787D01*
X015182Y018835D02*
X016824Y018835D01*
X015182Y018835D01*
X015181Y018884D02*
X016824Y018884D01*
X015181Y018884D01*
X015174Y018932D02*
X015640Y018932D01*
X015174Y018932D01*
X015124Y018981D02*
X015591Y018981D01*
X015124Y018981D01*
X015076Y019029D02*
X015544Y019029D01*
X015076Y019029D01*
X015027Y019078D02*
X015544Y019078D01*
X015027Y019078D01*
X014979Y019126D02*
X015544Y019126D01*
X014979Y019126D01*
X014930Y019175D02*
X015544Y019175D01*
X014930Y019175D01*
X015037Y019235D02*
X015197Y019235D01*
X015310Y019348D01*
X015310Y019508D01*
X015235Y019583D01*
X015320Y019668D01*
X015320Y019828D01*
X015207Y019941D01*
X015047Y019941D01*
X014934Y019828D01*
X014934Y019668D01*
X015009Y019593D01*
X014924Y019508D01*
X014924Y019348D01*
X015037Y019235D01*
X015197Y019235D01*
X015310Y019348D01*
X015310Y019508D01*
X015235Y019583D01*
X015320Y019668D01*
X015320Y019828D01*
X015207Y019941D01*
X015047Y019941D01*
X014934Y019828D01*
X014934Y019668D01*
X015009Y019593D01*
X014924Y019508D01*
X014924Y019348D01*
X015037Y019235D01*
X015233Y019272D02*
X015628Y019272D01*
X015233Y019272D01*
X015282Y019321D02*
X015912Y019321D01*
X015282Y019321D01*
X015310Y019369D02*
X015874Y019369D01*
X015310Y019369D01*
X015310Y019418D02*
X015874Y019418D01*
X015310Y019418D01*
X015310Y019466D02*
X015874Y019466D01*
X015310Y019466D01*
X015303Y019515D02*
X015874Y019515D01*
X015303Y019515D01*
X015255Y019563D02*
X015919Y019563D01*
X015255Y019563D01*
X015263Y019612D02*
X015968Y019612D01*
X015263Y019612D01*
X015312Y019660D02*
X016768Y019660D01*
X016783Y019612D02*
X016166Y019612D01*
X016918Y019612D01*
X016869Y019563D02*
X016215Y019563D01*
X016798Y019563D01*
X016813Y019515D02*
X016260Y019515D01*
X016820Y019515D01*
X016814Y019466D02*
X016260Y019466D01*
X016814Y019466D01*
X016814Y019418D02*
X016260Y019418D01*
X016814Y019418D01*
X016814Y019369D02*
X016260Y019369D01*
X016814Y019369D01*
X016842Y019321D02*
X016222Y019321D01*
X016842Y019321D01*
X016890Y019272D02*
X016496Y019272D01*
X016890Y019272D01*
X017123Y019272D02*
X017198Y019272D01*
X017123Y019272D01*
X017149Y019224D02*
X016544Y019224D01*
X017149Y019224D01*
X017124Y019175D02*
X016570Y019175D01*
X017124Y019175D01*
X017124Y019126D02*
X016570Y019126D01*
X017124Y019126D01*
X017124Y019078D02*
X016570Y019078D01*
X017124Y019078D01*
X017133Y019029D02*
X016561Y019029D01*
X017133Y019029D01*
X017097Y019001D02*
X016937Y019001D01*
X016824Y018888D01*
X016824Y018728D01*
X016937Y018615D01*
X017097Y018615D01*
X017210Y018728D01*
X017210Y018888D01*
X017097Y019001D01*
X016937Y019001D01*
X016824Y018888D01*
X016824Y018728D01*
X016937Y018615D01*
X017097Y018615D01*
X017210Y018728D01*
X017210Y018888D01*
X017097Y019001D01*
X017117Y018981D02*
X017181Y018981D01*
X017117Y018981D01*
X017166Y018932D02*
X017230Y018932D01*
X017166Y018932D01*
X017210Y018884D02*
X017434Y018884D01*
X017210Y018884D01*
X017210Y018835D02*
X017434Y018835D01*
X017210Y018835D01*
X017210Y018787D02*
X017434Y018787D01*
X017210Y018787D01*
X017210Y018738D02*
X017434Y018738D01*
X017210Y018738D01*
X017171Y018690D02*
X017473Y018690D01*
X017171Y018690D01*
X017197Y018641D02*
X017122Y018641D01*
X017197Y018641D01*
X017148Y018592D02*
X015926Y018592D01*
X017148Y018592D01*
X017124Y018544D02*
X015950Y018544D01*
X017124Y018544D01*
X017124Y018495D02*
X015950Y018495D01*
X017124Y018495D01*
X017124Y018447D02*
X015950Y018447D01*
X017124Y018447D01*
X017134Y018398D02*
X015940Y018398D01*
X017134Y018398D01*
X017098Y018350D02*
X017183Y018350D01*
X017098Y018350D01*
X017147Y018301D02*
X017167Y018301D01*
X017147Y018301D01*
X016915Y018350D02*
X016468Y018350D01*
X016915Y018350D01*
X016867Y018301D02*
X016517Y018301D01*
X016867Y018301D01*
X016818Y018253D02*
X016565Y018253D01*
X016818Y018253D01*
X016814Y018204D02*
X016570Y018204D01*
X016814Y018204D01*
X016814Y018156D02*
X016570Y018156D01*
X016814Y018156D01*
X016814Y018107D02*
X016570Y018107D01*
X016814Y018107D01*
X016844Y018059D02*
X016540Y018059D01*
X016844Y018059D01*
X016892Y018010D02*
X016491Y018010D01*
X016512Y018010D02*
X016892Y018010D01*
X017121Y018010D02*
X017186Y018010D01*
X017121Y018010D01*
X017137Y017961D02*
X016217Y017961D01*
X016240Y017913D02*
X017124Y017913D01*
X016617Y017913D01*
X016669Y017864D02*
X017124Y017864D01*
X016240Y017864D01*
X016240Y017816D02*
X017124Y017816D01*
X016721Y017816D01*
X016773Y017767D02*
X017145Y017767D01*
X016281Y017767D01*
X016469Y017719D02*
X016564Y017719D01*
X016564Y017961D02*
X017137Y017961D01*
X017099Y017719D02*
X017194Y017719D01*
X017099Y017719D01*
X017148Y017670D02*
X017151Y017670D01*
X017148Y017670D01*
X016894Y017719D02*
X016826Y017719D01*
X016809Y017719D02*
X016894Y017719D01*
X017440Y017719D02*
X017484Y017719D01*
X017440Y017719D01*
X017473Y017670D02*
X017532Y017670D01*
X017473Y017670D01*
X017429Y017379D02*
X017520Y017379D01*
X017429Y017379D01*
X017459Y017088D02*
X017500Y017088D01*
X017495Y017039D02*
X017410Y017039D01*
X017446Y016991D02*
X017177Y016991D01*
X017223Y017039D02*
X017121Y017039D01*
X017109Y017088D02*
X017175Y017088D01*
X017233Y016942D02*
X017444Y016942D01*
X017444Y016893D02*
X017289Y016893D01*
X017345Y016845D02*
X017444Y016845D01*
X017476Y016796D02*
X017401Y016796D01*
X017458Y016748D02*
X017524Y016748D01*
X017514Y016699D02*
X018035Y016699D01*
X017922Y016699D01*
X017974Y016651D02*
X017986Y016651D01*
X017570Y016651D01*
X017626Y016602D02*
X017938Y016602D01*
X017924Y016554D02*
X017682Y016554D01*
X017738Y016505D02*
X017924Y016505D01*
X017924Y016457D02*
X017794Y016457D01*
X017850Y016408D02*
X017944Y016408D01*
X017906Y016359D02*
X017993Y016359D01*
X017962Y016311D02*
X020173Y016311D01*
X020175Y016262D02*
X018018Y016262D01*
X018074Y016214D02*
X020176Y016214D01*
X020178Y016165D02*
X018130Y016165D01*
X018186Y016117D02*
X020180Y016117D01*
X020181Y016068D02*
X018242Y016068D01*
X018298Y016020D02*
X020183Y016020D01*
X020184Y015971D02*
X018354Y015971D01*
X018410Y015923D02*
X020186Y015923D01*
X020188Y015874D02*
X018466Y015874D01*
X018522Y015826D02*
X020189Y015826D01*
X020191Y015777D02*
X018578Y015777D01*
X018634Y015728D02*
X020192Y015728D01*
X020194Y015680D02*
X018690Y015680D01*
X018746Y015631D02*
X020195Y015631D01*
X020197Y015583D02*
X018802Y015583D01*
X018859Y015534D02*
X020199Y015534D01*
X020200Y015486D02*
X018878Y015486D01*
X018880Y015437D02*
X020202Y015437D01*
X020203Y015389D02*
X018881Y015389D01*
X018883Y015340D02*
X020205Y015340D01*
X020206Y015292D02*
X018885Y015292D01*
X018886Y015243D02*
X020208Y015243D01*
X020210Y015194D02*
X018888Y015194D01*
X018890Y015146D02*
X020211Y015146D01*
X020213Y015097D02*
X018891Y015097D01*
X018893Y015049D02*
X020214Y015049D01*
X020216Y015000D02*
X018895Y015000D01*
X018896Y014952D02*
X020218Y014952D01*
X020219Y014903D02*
X018898Y014903D01*
X018900Y014855D02*
X020221Y014855D01*
X020222Y014806D02*
X018901Y014806D01*
X018903Y014758D02*
X020224Y014758D01*
X020226Y014709D02*
X018905Y014709D01*
X018906Y014660D02*
X020240Y014660D01*
X020320Y014612D02*
X018908Y014612D01*
X020417Y015458D02*
X020417Y015738D01*
X020637Y015998D01*
X020867Y015998D01*
X021472Y016603D01*
X021472Y016733D01*
X021707Y016968D01*
X022177Y016968D01*
X022227Y016918D01*
X022227Y016768D01*
X022277Y016718D01*
X022377Y016718D01*
X022427Y016768D01*
X022427Y016818D01*
X022477Y016868D01*
X022577Y016868D01*
X022627Y016818D01*
X022627Y016768D01*
X022677Y016718D01*
X022777Y016718D01*
X022827Y016768D01*
X022827Y016818D01*
X022877Y016868D01*
X022977Y016868D01*
X023027Y016818D01*
X023227Y016818D01*
X023397Y016988D01*
X023482Y016988D01*
X024177Y017688D01*
X024257Y017688D01*
X024507Y017938D01*
X024572Y017943D01*
X024377Y017968D02*
X024377Y018163D01*
X024462Y018248D01*
X024602Y018248D01*
X024682Y018168D01*
X024902Y018168D01*
X024852Y018368D02*
X025082Y018368D01*
X025427Y018023D01*
X025427Y017468D01*
X025727Y017478D02*
X025727Y017263D01*
X025192Y016728D01*
X023857Y016728D01*
X023577Y016538D01*
X021657Y016538D01*
X020902Y015783D01*
X020712Y015783D01*
X020797Y016238D02*
X020877Y016318D01*
X020877Y017418D01*
X020927Y017468D01*
X021027Y017468D01*
X021077Y017418D01*
X021077Y017118D01*
X021127Y017068D01*
X021227Y017068D01*
X021277Y017118D01*
X021277Y017418D01*
X021327Y017468D01*
X021427Y017468D01*
X021477Y017418D01*
X021477Y017278D01*
X021657Y017088D01*
X023427Y017088D01*
X024132Y017798D01*
X024207Y017798D01*
X024377Y017968D01*
X024852Y018368D02*
X024767Y018453D01*
X024767Y018558D01*
X024567Y018758D01*
X023377Y018758D01*
X023177Y018558D01*
X022907Y018558D01*
X022717Y018368D01*
X022187Y018368D01*
X022357Y018478D02*
X022142Y018668D01*
X022357Y018478D02*
X022667Y018478D01*
X022857Y018668D01*
X023127Y018668D01*
X023322Y018863D01*
X023707Y018863D01*
X023767Y018928D01*
X023767Y019068D01*
X023797Y019098D01*
X023887Y019098D01*
X023917Y019068D01*
X023917Y018918D01*
X023947Y018888D01*
X024037Y018888D01*
X024067Y018918D01*
X024067Y019068D01*
X024097Y019098D01*
X024187Y019098D01*
X024217Y019068D01*
X024217Y018918D01*
X024247Y018888D01*
X024337Y018888D01*
X024367Y018918D01*
X024367Y019068D01*
X024397Y019098D01*
X024487Y019098D01*
X024517Y019068D01*
X024517Y018918D01*
X024547Y018888D01*
X024637Y018888D01*
X024667Y018918D01*
X024667Y019068D01*
X024697Y019098D01*
X024787Y019098D01*
X024817Y019068D01*
X024817Y018918D01*
X024847Y018888D01*
X024937Y018888D01*
X024967Y018918D01*
X024967Y019068D01*
X024997Y019098D01*
X025087Y019098D01*
X025117Y019068D01*
X025117Y018918D01*
X025147Y018888D01*
X025237Y018888D01*
X025267Y018918D01*
X025267Y019068D01*
X025297Y019098D01*
X025387Y019098D01*
X025417Y019068D01*
X025417Y018933D01*
X025447Y018903D01*
X025542Y018903D01*
X025567Y018938D01*
X025567Y019068D01*
X025597Y019098D01*
X025897Y019098D01*
X026107Y018888D01*
X026072Y019673D02*
X025867Y019878D01*
X025867Y020703D01*
X025967Y020803D01*
X025967Y021023D01*
X025862Y021128D01*
X025862Y021518D01*
X025577Y021803D01*
X024842Y021803D01*
X024522Y022053D01*
X024342Y022053D01*
X024307Y022088D01*
X023602Y022798D01*
X023457Y022943D01*
X022212Y022943D01*
X022087Y022828D01*
X020387Y022828D01*
X020267Y022708D01*
X019984Y022330D02*
X018300Y022330D01*
X018300Y022282D02*
X020068Y022282D01*
X020151Y022233D02*
X018255Y022233D01*
X018300Y022278D02*
X018187Y022165D01*
X018027Y022165D01*
X017914Y022278D01*
X017914Y022438D01*
X018027Y022551D01*
X018187Y022551D01*
X018300Y022438D01*
X018300Y022278D01*
X018300Y022379D02*
X019900Y022379D01*
X019817Y022427D02*
X018300Y022427D01*
X018262Y022476D02*
X019733Y022476D01*
X019650Y022524D02*
X018214Y022524D01*
X018000Y022524D02*
X016170Y022524D01*
X016121Y022476D02*
X017952Y022476D01*
X017914Y022427D02*
X016071Y022427D01*
X016022Y022379D02*
X017914Y022379D01*
X017914Y022330D02*
X015972Y022330D01*
X015923Y022282D02*
X017914Y022282D01*
X017959Y022233D02*
X015873Y022233D01*
X015824Y022185D02*
X018008Y022185D01*
X018206Y022185D02*
X020176Y022185D01*
X020175Y022136D02*
X017731Y022136D01*
X017779Y022088D02*
X020175Y022088D01*
X020174Y022039D02*
X017826Y022039D01*
X017826Y021991D02*
X020173Y021991D01*
X020172Y021942D02*
X017826Y021942D01*
X017826Y021893D02*
X020171Y021893D01*
X020171Y021845D02*
X017789Y021845D01*
X017741Y021796D02*
X017852Y021796D01*
X017803Y021748D02*
X017460Y021748D01*
X017476Y021845D02*
X015586Y021845D01*
X015620Y021893D02*
X017440Y021893D01*
X017440Y021942D02*
X015620Y021942D01*
X015625Y021991D02*
X017440Y021991D01*
X017440Y022039D02*
X015675Y022039D01*
X015724Y022088D02*
X017486Y022088D01*
X017535Y022136D02*
X015774Y022136D01*
X016220Y022573D02*
X019566Y022573D01*
X019482Y022622D02*
X016703Y022622D01*
X016751Y022670D02*
X019399Y022670D01*
X019315Y022719D02*
X016790Y022719D01*
X016790Y022767D02*
X019232Y022767D01*
X019148Y022816D02*
X016790Y022816D01*
X016790Y022864D02*
X019064Y022864D01*
X018981Y022913D02*
X016745Y022913D01*
X016697Y022961D02*
X018897Y022961D01*
X018814Y023010D02*
X016665Y023010D01*
X016760Y023058D02*
X018730Y023058D01*
X018646Y023107D02*
X016808Y023107D01*
X016830Y023156D02*
X017286Y023156D01*
X016491Y022622D02*
X016269Y022622D01*
X016319Y022670D02*
X016442Y022670D01*
X016404Y022719D02*
X016368Y022719D01*
X015287Y021505D02*
X015246Y021505D01*
X015241Y021457D02*
X015336Y021457D01*
X014987Y021165D02*
X014784Y021165D01*
X014833Y021214D02*
X014938Y021214D01*
X014914Y021262D02*
X014883Y021262D01*
X014962Y021117D02*
X014734Y021117D01*
X014685Y021068D02*
X014924Y021068D01*
X014924Y021020D02*
X014680Y021020D01*
X014680Y020971D02*
X014924Y020971D01*
X014924Y020923D02*
X014680Y020923D01*
X014635Y020874D02*
X014968Y020874D01*
X015017Y020825D02*
X014587Y020825D01*
X014477Y021338D02*
X014957Y021818D01*
X014957Y024668D01*
X016507Y026218D01*
X016717Y026218D01*
X017127Y026628D01*
X017567Y026628D01*
X017987Y027048D01*
X017987Y029978D01*
X018397Y030388D01*
X018087Y030538D02*
X017817Y030268D01*
X017817Y028538D01*
X017607Y028328D01*
X017607Y027638D01*
X014812Y024833D01*
X014817Y021928D01*
X014542Y021653D01*
X014487Y021648D01*
X014487Y021948D02*
X014697Y022133D01*
X014692Y024988D01*
X017317Y027628D01*
X017317Y030128D01*
X017787Y030598D01*
X017047Y030268D02*
X019917Y033138D01*
X019917Y034028D01*
X019877Y034068D01*
X020227Y034418D02*
X020227Y034718D01*
X019877Y035068D01*
X020227Y034418D02*
X020347Y034298D01*
X020347Y033768D01*
X020187Y033608D01*
X020187Y029928D01*
X018917Y032568D02*
X018917Y034028D01*
X018877Y034068D01*
X019427Y034518D02*
X018877Y035068D01*
X019427Y034518D02*
X019427Y033118D01*
X018917Y032568D02*
X016817Y030363D01*
X016817Y028218D01*
X014157Y025668D01*
X014057Y025568D01*
X014057Y022368D01*
X014287Y022208D02*
X014287Y024998D01*
X017047Y027758D01*
X017047Y030268D01*
X016477Y029698D02*
X015357Y029698D01*
X014697Y029028D01*
X015077Y030488D02*
X017677Y033088D01*
X018637Y033088D01*
X020077Y023158D02*
X023397Y023158D01*
X024382Y022173D01*
X024537Y022173D01*
X024867Y021923D01*
X025702Y021923D01*
X026137Y021488D01*
X026312Y021328D01*
X026312Y020488D01*
X026107Y020298D01*
X026107Y020338D01*
X025447Y020618D02*
X023497Y022568D01*
X023482Y022633D01*
X023737Y022168D02*
X023117Y022168D01*
X022847Y021898D01*
X021997Y021898D01*
X021807Y022088D01*
X021807Y022198D01*
X021767Y022238D01*
X021677Y022238D01*
X021637Y022198D01*
X021637Y021968D01*
X021607Y021938D01*
X021507Y021938D01*
X021477Y021968D01*
X021477Y022198D01*
X021447Y022228D01*
X021347Y022228D01*
X021317Y022198D01*
X021317Y021968D01*
X021287Y021938D01*
X021207Y021938D01*
X021177Y021968D01*
X021177Y022198D01*
X021137Y022238D01*
X021047Y022238D01*
X021007Y022198D01*
X021007Y021938D01*
X020287Y021218D01*
X020287Y021198D01*
X020094Y021214D02*
X018115Y021214D01*
X018150Y021262D02*
X020094Y021262D01*
X020127Y021311D02*
X018150Y021311D01*
X018150Y021359D02*
X020162Y021359D01*
X020165Y021505D02*
X018106Y021505D01*
X018080Y021478D02*
X018150Y021408D01*
X018155Y021554D02*
X020166Y021554D01*
X020166Y021602D02*
X018160Y021602D01*
X018160Y021651D02*
X020167Y021651D01*
X020168Y021699D02*
X018160Y021699D01*
X018130Y021748D02*
X020169Y021748D01*
X020170Y021796D02*
X018082Y021796D01*
X017764Y021408D02*
X017764Y021248D01*
X017877Y021135D01*
X018037Y021135D01*
X017847Y021165D02*
X017778Y021165D01*
X017798Y021214D02*
X017729Y021214D01*
X017764Y021262D02*
X017515Y021262D01*
X017515Y021311D02*
X017764Y021311D01*
X017764Y021359D02*
X017515Y021359D01*
X017500Y021214D02*
X017536Y021214D01*
X017488Y021165D02*
X017452Y021165D01*
X017192Y021165D02*
X017115Y021165D01*
X017166Y021117D02*
X016221Y021117D01*
X016250Y021068D02*
X017130Y021068D01*
X017130Y021020D02*
X016250Y021020D01*
X016250Y020971D02*
X017130Y020971D01*
X017130Y020923D02*
X016244Y020923D01*
X016290Y020874D02*
X016195Y020874D01*
X016241Y020825D02*
X016147Y020825D01*
X016193Y020777D02*
X015620Y020777D01*
X015620Y020728D02*
X016184Y020728D01*
X016184Y020768D02*
X016184Y020608D01*
X016259Y020533D01*
X016184Y020458D01*
X016184Y020298D01*
X016297Y020185D01*
X016457Y020185D01*
X016570Y020298D01*
X016570Y020458D01*
X016495Y020533D01*
X016537Y020575D01*
X016607Y020505D01*
X016767Y020505D01*
X016880Y020618D01*
X016880Y020778D01*
X016767Y020891D01*
X016607Y020891D01*
X016527Y020811D01*
X016457Y020881D01*
X016297Y020881D01*
X016184Y020768D01*
X016184Y020680D02*
X015620Y020680D01*
X015620Y020631D02*
X016184Y020631D01*
X016210Y020583D02*
X015584Y020583D01*
X015817Y020583D01*
X015967Y020825D02*
X015573Y020825D01*
X015524Y020874D02*
X015918Y020874D01*
X016173Y021165D02*
X016267Y021165D01*
X016487Y021165D02*
X016577Y021165D01*
X016817Y021165D02*
X016899Y021165D01*
X016784Y020874D02*
X017176Y020874D01*
X017181Y020825D02*
X016833Y020825D01*
X016880Y020777D02*
X017133Y020777D01*
X017124Y020728D02*
X016880Y020728D01*
X016880Y020680D02*
X017124Y020680D01*
X017124Y020631D02*
X016880Y020631D01*
X016844Y020583D02*
X017150Y020583D01*
X017198Y020534D02*
X016796Y020534D01*
X016578Y020534D02*
X016496Y020534D01*
X016542Y020486D02*
X017151Y020486D01*
X017124Y020437D02*
X016570Y020437D01*
X016570Y020389D02*
X017124Y020389D01*
X017124Y020340D02*
X016570Y020340D01*
X016563Y020291D02*
X017131Y020291D01*
X017179Y020243D02*
X016514Y020243D01*
X016534Y020194D02*
X016466Y020194D01*
X017170Y020194D01*
X017124Y020146D02*
X015930Y020146D01*
X016593Y020146D01*
X016633Y020097D02*
X015930Y020097D01*
X017124Y020097D01*
X017124Y020049D02*
X015930Y020049D01*
X016648Y020049D01*
X016663Y020000D02*
X015930Y020000D01*
X017124Y020000D01*
X017161Y019952D02*
X015893Y019952D01*
X016678Y019952D01*
X016693Y019903D02*
X015845Y019903D01*
X017199Y019903D01*
X017150Y019855D02*
X015293Y019855D01*
X016708Y019855D01*
X016723Y019806D02*
X015320Y019806D01*
X017124Y019806D01*
X017124Y019758D02*
X015320Y019758D01*
X016738Y019758D01*
X016753Y019709D02*
X015320Y019709D01*
X017124Y019709D01*
X017132Y019660D02*
X015312Y019660D01*
X015245Y019903D02*
X015629Y019903D01*
X015245Y019903D01*
X015009Y019903D02*
X014615Y019903D01*
X015009Y019903D01*
X014680Y020000D02*
X015544Y020000D01*
X014680Y020000D01*
X014680Y020049D02*
X015544Y020049D01*
X014680Y020049D01*
X014680Y020097D02*
X015544Y020097D01*
X014680Y020097D01*
X014662Y020146D02*
X015544Y020146D01*
X014662Y020146D01*
X014614Y020194D02*
X015590Y020194D01*
X014614Y020194D01*
X014663Y019952D02*
X015581Y019952D01*
X014663Y019952D01*
X015244Y020243D02*
X015639Y020243D01*
X015244Y020243D01*
X015293Y020291D02*
X016191Y020291D01*
X015293Y020291D01*
X015310Y020340D02*
X016184Y020340D01*
X015310Y020340D01*
X015310Y020389D02*
X016184Y020389D01*
X015310Y020389D01*
X015310Y020437D02*
X016184Y020437D01*
X015310Y020437D01*
X015292Y020486D02*
X016178Y020486D01*
X016211Y020486D02*
X015292Y020486D01*
X015318Y020534D02*
X015244Y020534D01*
X015318Y020534D01*
X015536Y020534D02*
X016119Y020534D01*
X016258Y020534D02*
X015536Y020534D01*
X015657Y020261D02*
X015544Y020148D01*
X015544Y019988D01*
X015657Y019875D01*
X015817Y019875D01*
X015930Y019988D01*
X015930Y020148D01*
X015817Y020261D01*
X015657Y020261D01*
X015544Y020148D01*
X015544Y019988D01*
X015657Y019875D01*
X015817Y019875D01*
X015930Y019988D01*
X015930Y020148D01*
X015817Y020261D01*
X015657Y020261D01*
X015835Y020243D02*
X016239Y020243D01*
X015835Y020243D01*
X015884Y020194D02*
X016288Y020194D01*
X015884Y020194D01*
X015987Y019631D02*
X015874Y019518D01*
X015874Y019358D01*
X015987Y019245D01*
X016147Y019245D01*
X016260Y019358D01*
X016260Y019518D01*
X016147Y019631D01*
X015987Y019631D01*
X015874Y019518D01*
X015874Y019358D01*
X015987Y019245D01*
X016147Y019245D01*
X016260Y019358D01*
X016260Y019518D01*
X016147Y019631D01*
X015987Y019631D01*
X015960Y019272D02*
X015846Y019272D01*
X015960Y019272D01*
X015894Y019224D02*
X016209Y019224D01*
X015894Y019224D01*
X015930Y019188D02*
X015817Y019301D01*
X015657Y019301D01*
X015544Y019188D01*
X015544Y019028D01*
X015657Y018915D01*
X015817Y018915D01*
X015930Y019028D01*
X015930Y019188D01*
X015817Y019301D01*
X015657Y019301D01*
X015544Y019188D01*
X015544Y019028D01*
X015657Y018915D01*
X015817Y018915D01*
X015930Y019028D01*
X015930Y019188D01*
X015930Y019175D02*
X016184Y019175D01*
X015930Y019175D01*
X015930Y019126D02*
X016184Y019126D01*
X015930Y019126D01*
X015930Y019078D02*
X016184Y019078D01*
X015930Y019078D01*
X015930Y019029D02*
X016193Y019029D01*
X015930Y019029D01*
X015882Y018981D02*
X016241Y018981D01*
X015882Y018981D01*
X015834Y018932D02*
X016290Y018932D01*
X015834Y018932D01*
X015877Y018641D02*
X016911Y018641D01*
X015877Y018641D01*
X015891Y018350D02*
X016285Y018350D01*
X016147Y018350D01*
X016199Y018301D02*
X016237Y018301D01*
X015887Y018301D01*
X015935Y018253D02*
X016188Y018253D01*
X016184Y018204D02*
X015940Y018204D01*
X015940Y018156D02*
X016184Y018156D01*
X016184Y018107D02*
X015940Y018107D01*
X015944Y018059D02*
X016214Y018059D01*
X016168Y018010D02*
X016262Y018010D01*
X015623Y018350D02*
X015608Y018350D01*
X016184Y019038D02*
X016297Y018925D01*
X016457Y018925D01*
X016570Y019038D01*
X016570Y019198D01*
X016457Y019311D01*
X016297Y019311D01*
X016184Y019198D01*
X016184Y019038D01*
X016297Y018925D01*
X016457Y018925D01*
X016570Y019038D01*
X016570Y019198D01*
X016457Y019311D01*
X016297Y019311D01*
X016184Y019198D01*
X016184Y019038D01*
X016173Y019272D02*
X016258Y019272D01*
X016173Y019272D01*
X016512Y018981D02*
X016916Y018981D01*
X016512Y018981D01*
X016464Y018932D02*
X016868Y018932D01*
X016464Y018932D01*
X017096Y019612D02*
X017180Y019612D01*
X017179Y019563D02*
X017145Y019563D01*
X017436Y019272D02*
X017530Y019272D01*
X017436Y019272D01*
X017452Y018981D02*
X017526Y018981D01*
X017452Y018981D01*
X017478Y018932D02*
X017404Y018932D01*
X017478Y018932D01*
X017487Y018641D02*
X017437Y018641D01*
X017487Y018641D01*
X016541Y020825D02*
X016513Y020825D01*
X016464Y020874D02*
X016590Y020874D01*
X014167Y021958D02*
X014167Y022008D01*
X014287Y022208D01*
X011503Y020097D02*
X010799Y020097D01*
X010921Y020146D02*
X011389Y020146D01*
X013938Y018690D02*
X014085Y018690D01*
X014037Y018641D02*
X013987Y018641D01*
X013981Y018350D02*
X014043Y018350D01*
X013419Y017719D02*
X013299Y017719D01*
X011577Y015826D02*
X009740Y015826D01*
X009740Y015777D02*
X011577Y015777D01*
X011577Y015728D02*
X009740Y015728D01*
X009711Y015680D02*
X011577Y015680D01*
X011577Y015631D02*
X009663Y015631D01*
X007146Y015340D02*
X003477Y015340D01*
X003477Y015292D02*
X007097Y015292D01*
X007054Y015243D02*
X004665Y015243D01*
X004714Y015194D02*
X007054Y015194D01*
X007054Y015146D02*
X004760Y015146D01*
X004760Y015097D02*
X007054Y015097D01*
X007093Y015049D02*
X004760Y015049D01*
X004760Y015000D02*
X007142Y015000D01*
X004469Y015243D02*
X003477Y015243D01*
X003477Y015194D02*
X004420Y015194D01*
X004374Y015146D02*
X003477Y015146D01*
X003477Y015097D02*
X004374Y015097D01*
X004374Y015049D02*
X003569Y015049D01*
X003618Y015000D02*
X004374Y015000D01*
X004411Y014952D02*
X003666Y014952D01*
X003670Y014903D02*
X004459Y014903D01*
X004429Y016554D02*
X004095Y016554D01*
X004067Y016525D02*
X004180Y016638D01*
X004180Y016798D01*
X004067Y016911D01*
X003907Y016911D01*
X003794Y016798D01*
X003794Y016638D01*
X003907Y016525D01*
X004067Y016525D01*
X004144Y016602D02*
X004380Y016602D01*
X004354Y016651D02*
X004180Y016651D01*
X004180Y016699D02*
X004354Y016699D01*
X004354Y016748D02*
X004180Y016748D01*
X004180Y016796D02*
X004362Y016796D01*
X004411Y016845D02*
X004133Y016845D01*
X004085Y016893D02*
X004459Y016893D01*
X003889Y016893D02*
X003585Y016893D01*
X003633Y016845D02*
X003841Y016845D01*
X003794Y016796D02*
X003680Y016796D01*
X003680Y016748D02*
X003794Y016748D01*
X003794Y016699D02*
X003680Y016699D01*
X003680Y016651D02*
X003794Y016651D01*
X003830Y016602D02*
X003644Y016602D01*
X003595Y016554D02*
X003879Y016554D01*
X003477Y017913D02*
X004449Y017913D01*
X004401Y017961D02*
X003477Y017961D01*
X003477Y018010D02*
X004374Y018010D01*
X004374Y018059D02*
X003477Y018059D01*
X003477Y018107D02*
X004374Y018107D01*
X004381Y018156D02*
X003477Y018156D01*
X003477Y018204D02*
X004430Y018204D01*
X004478Y018253D02*
X003477Y018253D01*
X003670Y018398D02*
X003670Y018558D01*
X003557Y018671D01*
X003636Y018592D02*
X004660Y018592D01*
X004708Y018544D02*
X003670Y018544D01*
X003559Y010486D02*
X005166Y010486D01*
X005118Y010437D02*
X003608Y010437D01*
X003657Y010389D02*
X005069Y010389D01*
X005059Y010340D02*
X003705Y010340D01*
X003754Y010292D02*
X005059Y010292D01*
X005059Y010243D02*
X003802Y010243D01*
X003851Y010194D02*
X005083Y010194D01*
X005131Y010146D02*
X003899Y010146D01*
X013757Y014398D02*
X014167Y013988D01*
X014167Y012783D01*
X014557Y012393D01*
X014812Y012393D01*
X014947Y012258D01*
X018277Y012258D01*
X018360Y012068D02*
X018357Y012065D01*
X018197Y012065D01*
X018194Y012068D01*
X014877Y012068D01*
X014677Y011868D01*
X014677Y011768D01*
X014977Y010768D01*
X016634Y010768D01*
X016634Y010778D01*
X016747Y010891D01*
X016907Y010891D01*
X017020Y010778D01*
X017020Y010768D01*
X018827Y010768D01*
X018777Y011718D01*
X018777Y011968D01*
X018677Y012068D01*
X018360Y012068D01*
X018706Y012039D02*
X014848Y012039D01*
X014799Y011991D02*
X018755Y011991D01*
X018777Y011942D02*
X017806Y011942D01*
X017787Y011961D02*
X017627Y011961D01*
X017514Y011848D01*
X017514Y011688D01*
X017627Y011575D01*
X017787Y011575D01*
X017900Y011688D01*
X017900Y011848D01*
X017787Y011961D01*
X017855Y011894D02*
X018777Y011894D01*
X018777Y011845D02*
X017900Y011845D01*
X017900Y011796D02*
X018777Y011796D01*
X018777Y011748D02*
X017900Y011748D01*
X017900Y011699D02*
X018778Y011699D01*
X018780Y011651D02*
X018097Y011651D01*
X018067Y011681D02*
X017907Y011681D01*
X017794Y011568D01*
X017794Y011408D01*
X017150Y011408D01*
X017150Y011373D02*
X017037Y011260D01*
X016877Y011260D01*
X016764Y011373D01*
X016764Y011533D01*
X016877Y011646D01*
X017037Y011646D01*
X017150Y011533D01*
X017150Y011373D01*
X017136Y011360D02*
X017843Y011360D01*
X017891Y011311D02*
X017087Y011311D01*
X017039Y011262D02*
X018390Y011262D01*
X018354Y011298D02*
X018467Y011185D01*
X018627Y011185D01*
X018740Y011298D01*
X018740Y011458D01*
X018627Y011571D01*
X018467Y011571D01*
X018354Y011458D01*
X018354Y011298D01*
X018354Y011311D02*
X018082Y011311D01*
X018067Y011295D02*
X018180Y011408D01*
X018180Y011568D01*
X018067Y011681D01*
X018146Y011602D02*
X018783Y011602D01*
X018786Y011554D02*
X018644Y011554D01*
X018693Y011505D02*
X018788Y011505D01*
X018791Y011457D02*
X018740Y011457D01*
X018740Y011408D02*
X018793Y011408D01*
X018796Y011360D02*
X018740Y011360D01*
X018740Y011311D02*
X018798Y011311D01*
X018801Y011262D02*
X018704Y011262D01*
X018655Y011214D02*
X018803Y011214D01*
X018806Y011165D02*
X014858Y011165D01*
X014872Y011117D02*
X018809Y011117D01*
X018811Y011068D02*
X014887Y011068D01*
X014901Y011020D02*
X018814Y011020D01*
X018816Y010971D02*
X014916Y010971D01*
X014931Y010923D02*
X018819Y010923D01*
X018821Y010874D02*
X016924Y010874D01*
X016972Y010826D02*
X018824Y010826D01*
X018826Y010777D02*
X017020Y010777D01*
X016730Y010874D02*
X014945Y010874D01*
X014960Y010826D02*
X016681Y010826D01*
X016634Y010777D02*
X014974Y010777D01*
X014843Y011214D02*
X018438Y011214D01*
X018354Y011360D02*
X018131Y011360D01*
X018179Y011408D02*
X018354Y011408D01*
X018354Y011457D02*
X018180Y011457D01*
X018180Y011505D02*
X018401Y011505D01*
X018449Y011554D02*
X018180Y011554D01*
X018067Y011295D02*
X017907Y011295D01*
X017794Y011408D01*
X017794Y011457D02*
X017150Y011457D01*
X017150Y011505D02*
X017794Y011505D01*
X017794Y011554D02*
X017129Y011554D01*
X017081Y011602D02*
X017600Y011602D01*
X017551Y011651D02*
X016632Y011651D01*
X016640Y011658D02*
X016527Y011545D01*
X016367Y011545D01*
X016254Y011658D01*
X016254Y011818D01*
X016367Y011931D01*
X016527Y011931D01*
X016640Y011818D01*
X016640Y011658D01*
X016640Y011699D02*
X017514Y011699D01*
X017514Y011748D02*
X016640Y011748D01*
X016640Y011796D02*
X017514Y011796D01*
X017514Y011845D02*
X016613Y011845D01*
X016565Y011894D02*
X017559Y011894D01*
X017608Y011942D02*
X014751Y011942D01*
X014702Y011894D02*
X015344Y011894D01*
X015372Y011921D02*
X015259Y011808D01*
X015259Y011648D01*
X015372Y011535D01*
X015532Y011535D01*
X015645Y011648D01*
X015645Y011808D01*
X015532Y011921D01*
X015372Y011921D01*
X015296Y011845D02*
X014677Y011845D01*
X014677Y011796D02*
X015259Y011796D01*
X015259Y011748D02*
X014683Y011748D01*
X014698Y011699D02*
X015259Y011699D01*
X015259Y011651D02*
X014712Y011651D01*
X014727Y011602D02*
X015305Y011602D01*
X015354Y011554D02*
X014741Y011554D01*
X014756Y011505D02*
X015729Y011505D01*
X015729Y011543D02*
X015729Y011383D01*
X015842Y011270D01*
X016002Y011270D01*
X016115Y011383D01*
X016115Y011543D01*
X016002Y011656D01*
X015842Y011656D01*
X015729Y011543D01*
X015739Y011554D02*
X015550Y011554D01*
X015599Y011602D02*
X015788Y011602D01*
X015836Y011651D02*
X015645Y011651D01*
X015645Y011699D02*
X016254Y011699D01*
X016261Y011651D02*
X016007Y011651D01*
X016056Y011602D02*
X016310Y011602D01*
X016359Y011554D02*
X016104Y011554D01*
X016115Y011505D02*
X016764Y011505D01*
X016764Y011457D02*
X016115Y011457D01*
X016115Y011408D02*
X016764Y011408D01*
X016778Y011360D02*
X016091Y011360D01*
X016042Y011311D02*
X016826Y011311D01*
X016875Y011262D02*
X014829Y011262D01*
X014814Y011311D02*
X015801Y011311D01*
X015753Y011360D02*
X014800Y011360D01*
X014785Y011408D02*
X015729Y011408D01*
X015729Y011457D02*
X014770Y011457D01*
X015560Y011894D02*
X016329Y011894D01*
X016281Y011845D02*
X015608Y011845D01*
X015645Y011796D02*
X016254Y011796D01*
X016254Y011748D02*
X015645Y011748D01*
X016535Y011554D02*
X016784Y011554D01*
X016833Y011602D02*
X016584Y011602D01*
X017814Y011602D02*
X017828Y011602D01*
X017862Y011651D02*
X017876Y011651D01*
X018886Y012427D02*
X025718Y012427D01*
X025766Y012379D02*
X019866Y012379D01*
X027027Y012379D01*
X027027Y012427D02*
X019072Y012427D01*
X019048Y012476D02*
X027027Y012476D01*
X027027Y012525D02*
X019024Y012525D01*
X018977Y012525D02*
X025621Y012525D01*
X025669Y012476D02*
X018935Y012476D01*
X018977Y012573D02*
X025100Y012573D01*
X024708Y012088D02*
X027027Y012088D01*
X024708Y012088D01*
X024756Y012039D02*
X027027Y012039D01*
X024756Y012039D01*
X024805Y011991D02*
X027027Y011991D01*
X024805Y011991D01*
X024853Y011942D02*
X027027Y011942D01*
X024853Y011942D01*
X024902Y011894D02*
X027027Y011894D01*
X024902Y011894D01*
X024950Y011845D02*
X027027Y011845D01*
X024950Y011845D01*
X024999Y011796D02*
X027027Y011796D01*
X024999Y011796D01*
X025047Y011748D02*
X027027Y011748D01*
X025047Y011748D01*
X025096Y011699D02*
X027027Y011699D01*
X025096Y011699D01*
X025144Y011651D02*
X027027Y011651D01*
X025144Y011651D01*
X025193Y011602D02*
X027027Y011602D01*
X025193Y011602D01*
X025241Y011554D02*
X027027Y011554D01*
X025241Y011554D01*
X025290Y011505D02*
X027027Y011505D01*
X025290Y011505D01*
X025339Y011457D02*
X027015Y011457D01*
X025339Y011457D01*
X025387Y011408D02*
X026967Y011408D01*
X025387Y011408D01*
X026865Y012330D02*
X019915Y012330D01*
X027027Y012330D01*
X027027Y012282D02*
X019963Y012282D01*
X026913Y012282D01*
X026962Y012233D02*
X020012Y012233D01*
X027027Y012233D01*
X027027Y012185D02*
X020060Y012185D01*
X027010Y012185D01*
X027027Y012136D02*
X020109Y012136D01*
X027027Y012136D01*
X027027Y012573D02*
X018999Y012573D01*
X022077Y017193D02*
X021967Y017318D01*
X022077Y017193D02*
X023352Y017193D01*
X023857Y017708D01*
X023852Y017798D01*
X023537Y018103D02*
X022967Y017533D01*
X022967Y017408D01*
X022672Y017398D02*
X022672Y018023D01*
X022617Y018078D01*
X022412Y018808D02*
X021792Y019428D01*
X021497Y019428D01*
X021427Y019358D01*
X021427Y018318D01*
X021397Y018288D01*
X021307Y018288D01*
X021277Y018318D01*
X021277Y019398D01*
X021247Y019428D01*
X021157Y019428D01*
X021127Y019398D01*
X021127Y018318D01*
X021097Y018288D01*
X020827Y018288D01*
X022762Y020388D02*
X022777Y020428D01*
X022207Y020998D01*
X022207Y021193D01*
X022107Y021388D01*
X022107Y021613D01*
X022157Y021663D01*
X022337Y021363D02*
X022338Y021046D01*
X022642Y020742D01*
X022642Y020723D01*
X022777Y020588D01*
X022897Y020588D01*
X022997Y020488D01*
X022997Y020213D01*
X022937Y020153D01*
X022937Y019688D01*
X022847Y020793D02*
X022537Y021083D01*
X022537Y021723D01*
X022562Y021768D01*
X022657Y021768D01*
X022687Y021728D01*
X022687Y021348D01*
X022717Y021318D01*
X022807Y021318D01*
X022837Y021348D01*
X022837Y021738D01*
X022867Y021768D01*
X022957Y021768D01*
X022987Y021738D01*
X022987Y021468D01*
X023017Y021438D01*
X023107Y021438D01*
X023137Y021468D01*
X023137Y021678D01*
X023167Y021708D01*
X023217Y021708D01*
X023247Y021678D01*
X023247Y021488D01*
X023277Y021458D01*
X023317Y021458D01*
X023347Y021488D01*
X023347Y021838D01*
X023437Y021918D01*
X023807Y021918D01*
X024222Y021503D01*
X024222Y021408D01*
X023737Y022168D02*
X025242Y020658D01*
X025242Y019868D01*
X025417Y019688D01*
X023537Y018438D02*
X023537Y018103D01*
X020067Y023148D02*
X020077Y023158D01*
D17*
X012277Y023968D02*
X010277Y021968D01*
X010277Y021339D01*
X010207Y021409D01*
X010116Y021446D01*
X010017Y021446D01*
X009926Y021409D01*
X009857Y021339D01*
X009819Y021248D01*
X009819Y021149D01*
X009857Y021058D01*
X009926Y020988D01*
X010017Y020950D01*
X010116Y020950D01*
X010207Y020988D01*
X010277Y021058D01*
X010277Y019318D01*
X010745Y018850D01*
X010767Y018798D01*
X010836Y018728D01*
X010889Y018706D01*
X011877Y017718D01*
X011877Y017418D01*
X011777Y017318D01*
X011007Y017318D01*
X010987Y017339D01*
X010896Y017376D01*
X010797Y017376D01*
X010706Y017339D01*
X010686Y017318D01*
X010327Y017318D01*
X009577Y018918D01*
X009577Y020153D01*
X009637Y020178D01*
X009707Y020248D01*
X009745Y020339D01*
X009745Y020438D01*
X009707Y020529D01*
X009637Y020599D01*
X009577Y020624D01*
X009577Y025168D01*
X012027Y025168D01*
X012277Y024768D01*
X012277Y023968D01*
X012277Y024057D02*
X009577Y024057D01*
X009577Y023899D02*
X012207Y023899D01*
X012049Y023740D02*
X009577Y023740D01*
X009577Y023581D02*
X011890Y023581D01*
X011731Y023423D02*
X009577Y023423D01*
X009577Y023264D02*
X011573Y023264D01*
X011414Y023106D02*
X009577Y023106D01*
X009577Y022947D02*
X011256Y022947D01*
X011097Y022789D02*
X009577Y022789D01*
X009577Y022630D02*
X010939Y022630D01*
X010780Y022472D02*
X009577Y022472D01*
X009577Y022313D02*
X010622Y022313D01*
X010463Y022155D02*
X009577Y022155D01*
X009577Y021996D02*
X010305Y021996D01*
X010277Y021838D02*
X009577Y021838D01*
X009577Y021679D02*
X010277Y021679D01*
X010277Y021520D02*
X009577Y021520D01*
X009577Y021362D02*
X009880Y021362D01*
X009819Y021203D02*
X009577Y021203D01*
X009577Y021045D02*
X009870Y021045D01*
X009577Y020886D02*
X010277Y020886D01*
X010277Y020728D02*
X009577Y020728D01*
X009667Y020569D02*
X010277Y020569D01*
X010277Y020411D02*
X009745Y020411D01*
X009709Y020252D02*
X010277Y020252D01*
X010277Y020094D02*
X009577Y020094D01*
X009577Y019935D02*
X010277Y019935D01*
X010277Y019776D02*
X009577Y019776D01*
X009577Y019618D02*
X010277Y019618D01*
X010277Y019459D02*
X009577Y019459D01*
X009577Y019301D02*
X010294Y019301D01*
X010453Y019142D02*
X009577Y019142D01*
X009577Y018984D02*
X010611Y018984D01*
X010755Y018825D02*
X009621Y018825D01*
X009695Y018667D02*
X010929Y018667D01*
X011087Y018508D02*
X009769Y018508D01*
X009844Y018350D02*
X011246Y018350D01*
X011404Y018191D02*
X009918Y018191D01*
X009992Y018032D02*
X011563Y018032D01*
X011721Y017874D02*
X010066Y017874D01*
X010141Y017715D02*
X011877Y017715D01*
X011877Y017557D02*
X010215Y017557D01*
X010289Y017398D02*
X011857Y017398D01*
X011567Y015418D02*
X011570Y013905D01*
X011506Y013879D01*
X011437Y013809D01*
X011399Y013718D01*
X011399Y013619D01*
X011437Y013528D01*
X011506Y013458D01*
X011571Y013431D01*
X011577Y010618D01*
X013897Y008048D01*
X014297Y007898D01*
X014257Y007238D01*
X013457Y007208D01*
X013397Y007148D01*
X013107Y007148D01*
X009727Y008278D01*
X008077Y008268D01*
X005877Y008318D01*
X005335Y008815D01*
X005336Y008815D01*
X005427Y008853D01*
X005497Y008923D01*
X005535Y009014D01*
X005535Y009113D01*
X005497Y009204D01*
X005427Y009274D01*
X005336Y009311D01*
X005237Y009311D01*
X005146Y009274D01*
X005077Y009204D01*
X005039Y009113D01*
X005039Y009088D01*
X004047Y009998D01*
X011567Y015418D01*
X011567Y015337D02*
X011454Y015337D01*
X011567Y015179D02*
X011234Y015179D01*
X011014Y015020D02*
X011568Y015020D01*
X011568Y014862D02*
X010794Y014862D01*
X010574Y014703D02*
X011568Y014703D01*
X011569Y014545D02*
X010354Y014545D01*
X010134Y014386D02*
X011569Y014386D01*
X011569Y014227D02*
X009914Y014227D01*
X009695Y014069D02*
X011570Y014069D01*
X011570Y013910D02*
X009475Y013910D01*
X009255Y013752D02*
X011413Y013752D01*
X011410Y013593D02*
X009035Y013593D01*
X008815Y013435D02*
X011563Y013435D01*
X011571Y013276D02*
X008595Y013276D01*
X008375Y013118D02*
X011572Y013118D01*
X011572Y012959D02*
X010936Y012959D01*
X010937Y012959D02*
X010846Y012996D01*
X010747Y012996D01*
X010656Y012959D01*
X010587Y012889D01*
X010549Y012798D01*
X010549Y012699D01*
X010587Y012608D01*
X010656Y012538D01*
X010747Y012500D01*
X010846Y012500D01*
X010937Y012538D01*
X011007Y012608D01*
X011045Y012699D01*
X011045Y012798D01*
X011007Y012889D01*
X010937Y012959D01*
X011044Y012801D02*
X011572Y012801D01*
X011573Y012642D02*
X011021Y012642D01*
X010658Y012959D02*
X009977Y012959D01*
X009947Y012989D02*
X009856Y013026D01*
X009757Y013026D01*
X009666Y012989D01*
X009597Y012919D01*
X009559Y012828D01*
X009559Y012729D01*
X009597Y012638D01*
X009666Y012568D01*
X009757Y012530D01*
X009856Y012530D01*
X009947Y012568D01*
X010017Y012638D01*
X010055Y012729D01*
X010055Y012828D01*
X010017Y012919D01*
X009947Y012989D01*
X010055Y012801D02*
X010550Y012801D01*
X010572Y012642D02*
X010019Y012642D01*
X009595Y012642D02*
X007715Y012642D01*
X007935Y012801D02*
X009559Y012801D01*
X009637Y012959D02*
X008155Y012959D01*
X007495Y012483D02*
X011573Y012483D01*
X011573Y012325D02*
X007275Y012325D01*
X007055Y012166D02*
X011574Y012166D01*
X011574Y012008D02*
X006835Y012008D01*
X006615Y011849D02*
X011574Y011849D01*
X011575Y011691D02*
X006395Y011691D01*
X006175Y011532D02*
X011575Y011532D01*
X011575Y011374D02*
X005955Y011374D01*
X005735Y011215D02*
X007585Y011215D01*
X007587Y011216D02*
X007496Y011179D01*
X007427Y011109D01*
X007389Y011018D01*
X007389Y010919D01*
X007427Y010828D01*
X007496Y010758D01*
X007587Y010720D01*
X007686Y010720D01*
X007777Y010758D01*
X007847Y010828D01*
X007885Y010919D01*
X007885Y011018D01*
X007847Y011109D01*
X007777Y011179D01*
X007686Y011216D01*
X007587Y011216D01*
X007689Y011215D02*
X011576Y011215D01*
X011576Y011057D02*
X007869Y011057D01*
X007876Y010898D02*
X011576Y010898D01*
X011577Y010739D02*
X007732Y010739D01*
X007541Y010739D02*
X005075Y010739D01*
X005202Y010546D02*
X005111Y010509D01*
X005042Y010439D01*
X005004Y010348D01*
X005004Y010249D01*
X005042Y010158D01*
X005111Y010088D01*
X005202Y010050D01*
X005301Y010050D01*
X005392Y010088D01*
X005462Y010158D01*
X005500Y010249D01*
X005500Y010348D01*
X005462Y010439D01*
X005392Y010509D01*
X005301Y010546D01*
X005202Y010546D01*
X005035Y010422D02*
X004635Y010422D01*
X004415Y010264D02*
X005004Y010264D01*
X005094Y010105D02*
X004195Y010105D01*
X004103Y009947D02*
X008445Y009947D01*
X008456Y009959D02*
X008387Y009889D01*
X008349Y009798D01*
X008349Y009699D01*
X008387Y009608D01*
X008456Y009538D01*
X008547Y009500D01*
X008646Y009500D01*
X008737Y009538D01*
X008807Y009608D01*
X008845Y009699D01*
X008845Y009798D01*
X008807Y009889D01*
X008737Y009959D01*
X008646Y009996D01*
X008547Y009996D01*
X008456Y009959D01*
X008349Y009788D02*
X004276Y009788D01*
X004448Y009630D02*
X008378Y009630D01*
X008749Y009947D02*
X012183Y009947D01*
X012040Y010105D02*
X007794Y010105D01*
X007807Y010118D02*
X007845Y010209D01*
X007845Y010308D01*
X007807Y010399D01*
X007737Y010469D01*
X007646Y010506D01*
X007547Y010506D01*
X007456Y010469D01*
X007387Y010399D01*
X007349Y010308D01*
X007349Y010209D01*
X007387Y010118D01*
X007456Y010048D01*
X007547Y010010D01*
X007646Y010010D01*
X007737Y010048D01*
X007807Y010118D01*
X007845Y010264D02*
X011897Y010264D01*
X011754Y010422D02*
X007783Y010422D01*
X007410Y010422D02*
X005469Y010422D01*
X005500Y010264D02*
X007349Y010264D01*
X007399Y010105D02*
X005409Y010105D01*
X004855Y010581D02*
X011611Y010581D01*
X012326Y009788D02*
X008845Y009788D01*
X008816Y009630D02*
X012469Y009630D01*
X012612Y009471D02*
X004621Y009471D01*
X004794Y009313D02*
X007564Y009313D01*
X007567Y009319D02*
X007529Y009228D01*
X007529Y009129D01*
X007567Y009038D01*
X007636Y008968D01*
X007641Y008966D01*
X007567Y008966D01*
X007476Y008929D01*
X007407Y008859D01*
X007369Y008768D01*
X007369Y008669D01*
X007407Y008578D01*
X007476Y008508D01*
X007567Y008470D01*
X007666Y008470D01*
X007757Y008508D01*
X007827Y008578D01*
X007865Y008669D01*
X007865Y008768D01*
X007827Y008859D01*
X007757Y008929D01*
X007753Y008930D01*
X007826Y008930D01*
X007917Y008968D01*
X007987Y009038D01*
X008025Y009129D01*
X008025Y009228D01*
X007987Y009319D01*
X007917Y009389D01*
X007826Y009426D01*
X007727Y009426D01*
X007636Y009389D01*
X007567Y009319D01*
X007529Y009154D02*
X005518Y009154D01*
X005527Y008996D02*
X007609Y008996D01*
X007398Y008837D02*
X005388Y008837D01*
X005485Y008678D02*
X007369Y008678D01*
X007465Y008520D02*
X005657Y008520D01*
X005830Y008361D02*
X013614Y008361D01*
X013757Y008203D02*
X009953Y008203D01*
X010427Y008044D02*
X013908Y008044D01*
X014296Y007886D02*
X010901Y007886D01*
X011376Y007727D02*
X014286Y007727D01*
X014277Y007569D02*
X011850Y007569D01*
X012324Y007410D02*
X014267Y007410D01*
X014258Y007252D02*
X012798Y007252D01*
X013177Y007368D02*
X013177Y007868D01*
X013377Y008068D01*
X016977Y008068D01*
X017277Y007768D01*
X017277Y007368D01*
X017077Y007168D01*
X013377Y007168D01*
X013177Y007368D01*
X013177Y007410D02*
X017277Y007410D01*
X017277Y007569D02*
X015528Y007569D01*
X015527Y007568D02*
X015597Y007638D01*
X015635Y007729D01*
X015635Y007828D01*
X015597Y007919D01*
X015527Y007989D01*
X015436Y008026D01*
X015337Y008026D01*
X015246Y007989D01*
X015177Y007919D01*
X015139Y007828D01*
X015139Y007729D01*
X015177Y007638D01*
X015246Y007568D01*
X015337Y007530D01*
X015436Y007530D01*
X015527Y007568D01*
X015634Y007727D02*
X017277Y007727D01*
X017159Y007886D02*
X015611Y007886D01*
X015163Y007886D02*
X013194Y007886D01*
X013177Y007727D02*
X015140Y007727D01*
X015246Y007569D02*
X013177Y007569D01*
X013294Y007252D02*
X017160Y007252D01*
X017001Y008044D02*
X013353Y008044D01*
X013471Y008520D02*
X007769Y008520D01*
X007865Y008678D02*
X013328Y008678D01*
X013185Y008837D02*
X007836Y008837D01*
X007945Y008996D02*
X013042Y008996D01*
X012899Y009154D02*
X008025Y009154D01*
X007990Y009313D02*
X012756Y009313D01*
X007398Y010898D02*
X005295Y010898D01*
X005515Y011057D02*
X007405Y011057D01*
X005056Y009154D02*
X004966Y009154D01*
X010264Y021045D02*
X010277Y021045D01*
X010254Y021362D02*
X010277Y021362D01*
X009577Y024216D02*
X012277Y024216D01*
X012277Y024374D02*
X009577Y024374D01*
X009577Y024533D02*
X012277Y024533D01*
X012277Y024691D02*
X009577Y024691D01*
X009577Y024850D02*
X012226Y024850D01*
X012127Y025008D02*
X009577Y025008D01*
X009577Y025167D02*
X012028Y025167D01*
X023377Y007838D02*
X023487Y007838D01*
X023927Y007398D01*
X023927Y005718D01*
X022432Y004223D01*
X022432Y003563D01*
X021877Y003008D01*
X021877Y002068D01*
X023357Y007813D02*
X023377Y007838D01*
D18*
X022047Y006118D02*
X021327Y006118D01*
X021077Y005868D01*
X020677Y005868D01*
X020577Y005968D01*
X020577Y006278D01*
X018457Y008398D01*
X019766Y009630D02*
X020179Y009630D01*
X020179Y009592D02*
X020301Y009470D01*
X020473Y009470D01*
X020552Y009549D01*
X020601Y009500D01*
X020709Y009500D01*
X020709Y009442D01*
X020831Y009320D01*
X021001Y009320D01*
X021111Y009210D01*
X021283Y009210D01*
X021377Y009304D01*
X021377Y009002D01*
X021363Y009016D01*
X021191Y009016D01*
X021069Y008894D01*
X021069Y008722D01*
X021191Y008600D01*
X021363Y008600D01*
X021377Y008614D01*
X021377Y008042D01*
X021299Y007964D01*
X021299Y007792D01*
X021377Y007714D01*
X021377Y007432D01*
X021299Y007354D01*
X021299Y007182D01*
X021377Y007104D01*
X021377Y006368D01*
X021277Y006268D01*
X021077Y006268D01*
X020477Y006868D01*
X020477Y008918D01*
X018527Y010868D01*
X017527Y010868D01*
X017939Y011280D01*
X018073Y011280D01*
X018195Y011402D01*
X018195Y011536D01*
X018727Y012068D01*
X018827Y012068D01*
X019005Y011890D01*
X018959Y011844D01*
X018959Y011672D01*
X019035Y011596D01*
X018961Y011596D01*
X018839Y011474D01*
X018839Y011302D01*
X018961Y011180D01*
X019133Y011180D01*
X019255Y011302D01*
X019255Y011474D01*
X019179Y011550D01*
X019253Y011550D01*
X019299Y011596D01*
X019375Y011520D01*
X019319Y011464D01*
X019319Y011292D01*
X019441Y011170D01*
X019613Y011170D01*
X019669Y011226D01*
X019745Y011150D01*
X019654Y011059D01*
X019654Y010887D01*
X019776Y010765D01*
X019810Y010765D01*
X019699Y010654D01*
X019699Y010482D01*
X019821Y010360D01*
X019993Y010360D01*
X020115Y010482D01*
X020115Y010654D01*
X019993Y010776D01*
X019959Y010776D01*
X020039Y010856D01*
X021269Y009626D01*
X021113Y009626D01*
X021003Y009736D01*
X020895Y009736D01*
X020895Y009794D01*
X020773Y009916D01*
X020601Y009916D01*
X020522Y009837D01*
X020473Y009886D01*
X020301Y009886D01*
X020179Y009764D01*
X020179Y009592D01*
X020220Y009551D02*
X019844Y009551D01*
X019923Y009472D02*
X020299Y009472D01*
X020475Y009472D02*
X020709Y009472D01*
X020757Y009394D02*
X020001Y009394D01*
X020080Y009315D02*
X021006Y009315D01*
X021084Y009237D02*
X020158Y009237D01*
X020237Y009158D02*
X021377Y009158D01*
X021377Y009080D02*
X020315Y009080D01*
X020394Y009001D02*
X020696Y009001D01*
X020711Y009016D02*
X020589Y008894D01*
X020589Y008722D01*
X020711Y008600D01*
X020883Y008600D01*
X021005Y008722D01*
X021005Y008894D01*
X020883Y009016D01*
X020711Y009016D01*
X020617Y008923D02*
X020473Y008923D01*
X020477Y008844D02*
X020589Y008844D01*
X020589Y008766D02*
X020477Y008766D01*
X020477Y008687D02*
X020624Y008687D01*
X020703Y008609D02*
X020477Y008609D01*
X020477Y008530D02*
X021377Y008530D01*
X021371Y008609D02*
X021377Y008609D01*
X021377Y008451D02*
X020477Y008451D01*
X020477Y008373D02*
X021377Y008373D01*
X021377Y008294D02*
X020477Y008294D01*
X020477Y008216D02*
X021377Y008216D01*
X021377Y008137D02*
X020477Y008137D01*
X020477Y008059D02*
X020803Y008059D01*
X020831Y008086D02*
X020709Y007964D01*
X020709Y007792D01*
X020831Y007670D01*
X021003Y007670D01*
X021125Y007792D01*
X021125Y007964D01*
X021003Y008086D01*
X020831Y008086D01*
X020725Y007980D02*
X020477Y007980D01*
X020477Y007902D02*
X020709Y007902D01*
X020709Y007823D02*
X020477Y007823D01*
X020477Y007745D02*
X020757Y007745D01*
X020831Y007476D02*
X020709Y007354D01*
X020709Y007182D01*
X020831Y007060D01*
X021003Y007060D01*
X021125Y007182D01*
X021125Y007354D01*
X021003Y007476D01*
X020831Y007476D01*
X020785Y007430D02*
X020477Y007430D01*
X020477Y007352D02*
X020709Y007352D01*
X020709Y007273D02*
X020477Y007273D01*
X020477Y007195D02*
X020709Y007195D01*
X020775Y007116D02*
X020477Y007116D01*
X020477Y007038D02*
X021377Y007038D01*
X021377Y006959D02*
X020477Y006959D01*
X020477Y006881D02*
X021377Y006881D01*
X021377Y006802D02*
X020543Y006802D01*
X020622Y006723D02*
X021377Y006723D01*
X021377Y006645D02*
X020700Y006645D01*
X020779Y006566D02*
X021377Y006566D01*
X021377Y006488D02*
X020857Y006488D01*
X020936Y006409D02*
X021377Y006409D01*
X021339Y006331D02*
X021014Y006331D01*
X021059Y007116D02*
X021365Y007116D01*
X021299Y007195D02*
X021125Y007195D01*
X021125Y007273D02*
X021299Y007273D01*
X021299Y007352D02*
X021125Y007352D01*
X021049Y007430D02*
X021375Y007430D01*
X021377Y007509D02*
X020477Y007509D01*
X020477Y007587D02*
X021377Y007587D01*
X021377Y007666D02*
X020477Y007666D01*
X021077Y007745D02*
X021347Y007745D01*
X021299Y007823D02*
X021125Y007823D01*
X021125Y007902D02*
X021299Y007902D01*
X021315Y007980D02*
X021109Y007980D01*
X021031Y008059D02*
X021377Y008059D01*
X021183Y008609D02*
X020891Y008609D01*
X020970Y008687D02*
X021104Y008687D01*
X021069Y008766D02*
X021005Y008766D01*
X021005Y008844D02*
X021069Y008844D01*
X021097Y008923D02*
X020977Y008923D01*
X020898Y009001D02*
X021176Y009001D01*
X021309Y009237D02*
X021377Y009237D01*
X021266Y009630D02*
X021110Y009630D01*
X021187Y009708D02*
X021031Y009708D01*
X021109Y009787D02*
X020895Y009787D01*
X020824Y009865D02*
X021030Y009865D01*
X020951Y009944D02*
X019451Y009944D01*
X019373Y010022D02*
X020873Y010022D01*
X020794Y010101D02*
X019294Y010101D01*
X019216Y010179D02*
X020716Y010179D01*
X020637Y010258D02*
X019137Y010258D01*
X019059Y010336D02*
X020559Y010336D01*
X020480Y010415D02*
X020048Y010415D01*
X020115Y010494D02*
X020402Y010494D01*
X020323Y010572D02*
X020115Y010572D01*
X020115Y010651D02*
X020245Y010651D01*
X020166Y010729D02*
X020040Y010729D01*
X020087Y010808D02*
X019990Y010808D01*
X019774Y010729D02*
X018666Y010729D01*
X018745Y010651D02*
X019699Y010651D01*
X019699Y010572D02*
X018823Y010572D01*
X018902Y010494D02*
X019699Y010494D01*
X019766Y010415D02*
X018980Y010415D01*
X018587Y010808D02*
X019733Y010808D01*
X019655Y010886D02*
X017545Y010886D01*
X017623Y010965D02*
X019654Y010965D01*
X019654Y011043D02*
X017702Y011043D01*
X017780Y011122D02*
X019716Y011122D01*
X019695Y011200D02*
X019643Y011200D01*
X019411Y011200D02*
X019153Y011200D01*
X019232Y011279D02*
X019332Y011279D01*
X019319Y011358D02*
X019255Y011358D01*
X019255Y011436D02*
X019319Y011436D01*
X019369Y011515D02*
X019215Y011515D01*
X019296Y011593D02*
X019302Y011593D01*
X018958Y011593D02*
X018252Y011593D01*
X018195Y011515D02*
X018389Y011515D01*
X018339Y011464D02*
X018461Y011586D01*
X018633Y011586D01*
X018755Y011464D01*
X018755Y011292D01*
X018633Y011170D01*
X018461Y011170D01*
X018339Y011292D01*
X018339Y011464D01*
X018339Y011436D02*
X018195Y011436D01*
X018150Y011358D02*
X018339Y011358D01*
X018352Y011279D02*
X017937Y011279D01*
X017859Y011200D02*
X018431Y011200D01*
X018663Y011200D02*
X018941Y011200D01*
X018862Y011279D02*
X018742Y011279D01*
X018755Y011358D02*
X018839Y011358D01*
X018839Y011436D02*
X018755Y011436D01*
X018705Y011515D02*
X018879Y011515D01*
X018959Y011672D02*
X018330Y011672D01*
X018409Y011750D02*
X018959Y011750D01*
X018959Y011829D02*
X018487Y011829D01*
X018566Y011907D02*
X018988Y011907D01*
X018909Y011986D02*
X018644Y011986D01*
X018723Y012064D02*
X018831Y012064D01*
X018817Y012064D02*
X018437Y012064D01*
X018388Y011986D02*
X018866Y011986D01*
X018877Y011968D02*
X018377Y011968D01*
X018627Y012368D01*
X018877Y011968D01*
X018768Y012143D02*
X018486Y012143D01*
X018535Y012221D02*
X018719Y012221D01*
X018670Y012300D02*
X018584Y012300D01*
X019530Y009865D02*
X020280Y009865D01*
X020201Y009787D02*
X019609Y009787D01*
X019687Y009708D02*
X020179Y009708D01*
X020494Y009865D02*
X020550Y009865D01*
X017837Y005778D02*
X017667Y005608D01*
X017667Y005133D01*
X015212Y002678D01*
X014487Y002678D01*
X013877Y002068D01*
X014877Y002068D02*
X017977Y005198D01*
X018097Y005018D02*
X017977Y004963D01*
X015877Y002863D01*
X015877Y002068D01*
X016877Y002068D02*
X016877Y002778D01*
X018157Y004058D01*
X018157Y004868D01*
X018367Y005078D01*
X018367Y005318D01*
X018607Y005558D01*
X019217Y005558D01*
X018892Y005183D02*
X018857Y005078D01*
X018537Y004758D01*
X018537Y004088D01*
X018887Y003738D01*
X018887Y002078D01*
X018877Y002068D01*
X017887Y002078D02*
X017877Y002068D01*
X017887Y002078D02*
X017887Y003518D01*
X018347Y003978D01*
X018347Y004808D01*
X018557Y005018D01*
X018577Y005168D01*
X018227Y005148D02*
X018227Y005308D01*
X018097Y005438D01*
X018097Y005648D01*
X018227Y005148D02*
X018097Y005018D01*
X014477Y012948D02*
X014477Y013338D01*
X014297Y013518D01*
X014297Y015538D01*
X012897Y016928D01*
X015527Y018088D02*
X015657Y017948D01*
X013557Y020998D02*
X013817Y021258D01*
X013817Y021388D01*
X013347Y021858D01*
X013037Y021858D01*
X012437Y021258D01*
X011117Y021258D01*
X010917Y021058D01*
X013547Y020998D02*
X013557Y020998D01*
D19*
X013357Y019918D02*
X011217Y019918D01*
X013357Y019918D02*
X013837Y019438D01*
X014107Y019438D01*
X014512Y019058D01*
X014857Y019058D01*
X015047Y018868D01*
X015052Y018583D01*
X015527Y018088D01*
X015657Y017948D02*
X015747Y017858D01*
X015737Y017858D01*
X016367Y017548D02*
X016367Y017398D01*
X017497Y016268D01*
X017497Y015748D01*
X017977Y015268D01*
X018377Y015268D01*
X018577Y015068D01*
X018577Y014728D01*
X018827Y014478D01*
X018827Y012568D01*
X018627Y012368D01*
X018627Y011808D01*
X018497Y011808D01*
X017377Y013468D02*
X016939Y013468D01*
X017015Y013544D01*
X017015Y013733D01*
X016881Y013866D01*
X016692Y013866D01*
X016559Y013733D01*
X016559Y013544D01*
X016634Y013468D01*
X015329Y013468D01*
X015281Y013516D01*
X015092Y013516D01*
X015044Y013468D01*
X014577Y013468D01*
X014477Y013568D01*
X014477Y016268D01*
X015377Y016018D01*
X015727Y015668D01*
X015977Y015368D01*
X017377Y014118D01*
X017377Y013468D01*
X017377Y013515D02*
X016986Y013515D01*
X017015Y013634D02*
X017377Y013634D01*
X017377Y013752D02*
X016995Y013752D01*
X017377Y013871D02*
X014477Y013871D01*
X014477Y013752D02*
X016579Y013752D01*
X016559Y013634D02*
X014477Y013634D01*
X014530Y013515D02*
X015092Y013515D01*
X015282Y013515D02*
X016587Y013515D01*
X017377Y013990D02*
X014477Y013990D01*
X014477Y014108D02*
X017377Y014108D01*
X017256Y014227D02*
X014477Y014227D01*
X014477Y014345D02*
X017123Y014345D01*
X016990Y014464D02*
X014477Y014464D01*
X014477Y014582D02*
X016857Y014582D01*
X016724Y014701D02*
X014477Y014701D01*
X014477Y014819D02*
X014593Y014819D01*
X014549Y014864D02*
X014682Y014730D01*
X014871Y014730D01*
X015005Y014864D01*
X015005Y015053D01*
X014871Y015186D01*
X014682Y015186D01*
X014549Y015053D01*
X014549Y014864D01*
X014549Y014938D02*
X014477Y014938D01*
X014477Y015056D02*
X014553Y015056D01*
X014477Y015175D02*
X014671Y015175D01*
X014883Y015175D02*
X016193Y015175D01*
X016061Y015294D02*
X014477Y015294D01*
X014477Y015412D02*
X015940Y015412D01*
X015842Y015531D02*
X014477Y015531D01*
X014477Y015649D02*
X015743Y015649D01*
X015627Y015768D02*
X014477Y015768D01*
X014477Y015886D02*
X015509Y015886D01*
X015390Y016005D02*
X014477Y016005D01*
X014477Y016123D02*
X014999Y016123D01*
X014572Y016242D02*
X014477Y016242D01*
X015001Y015056D02*
X016326Y015056D01*
X016459Y014938D02*
X015005Y014938D01*
X014960Y014819D02*
X016592Y014819D01*
D20*
X002377Y002568D03*
X002377Y034568D03*
X034377Y034568D03*
X034377Y007568D03*
M02*
