G75*
G70*
%OFA0B0*%
%FSLAX24Y24*%
%IPPOS*%
%LPD*%
%AMOC8*
5,1,8,0,0,1.08239X$1,22.5*
%
%ADD10C,0.0046*%
%ADD11R,0.0413X0.0335*%
%ADD12R,0.0531X0.0374*%
%ADD13R,0.0335X0.0413*%
%ADD14R,0.0638X0.0453*%
%ADD15C,0.0799*%
%ADD16R,0.0374X0.0531*%
%ADD17R,0.1609X0.2359*%
%ADD18C,0.1159*%
%ADD19C,0.1359*%
%ADD20C,0.1209*%
%ADD21C,0.0453*%
%ADD22C,0.0531*%
%ADD23C,0.1122*%
%ADD24C,0.0579*%
%ADD25C,0.0239*%
%ADD26C,0.0237*%
%ADD27C,0.1509*%
D10*
X009436Y013467D02*
X009646Y013467D01*
X009646Y012983D01*
X009436Y012983D01*
X009436Y013467D01*
X009436Y013028D02*
X009646Y013028D01*
X009646Y013073D02*
X009436Y013073D01*
X009436Y013118D02*
X009646Y013118D01*
X009646Y013163D02*
X009436Y013163D01*
X009436Y013208D02*
X009646Y013208D01*
X009646Y013253D02*
X009436Y013253D01*
X009436Y013298D02*
X009646Y013298D01*
X009646Y013343D02*
X009436Y013343D01*
X009436Y013388D02*
X009646Y013388D01*
X009646Y013433D02*
X009436Y013433D01*
X009940Y013467D02*
X010150Y013467D01*
X010150Y012983D01*
X009940Y012983D01*
X009940Y013467D01*
X009940Y013028D02*
X010150Y013028D01*
X010150Y013073D02*
X009940Y013073D01*
X009940Y013118D02*
X010150Y013118D01*
X010150Y013163D02*
X009940Y013163D01*
X009940Y013208D02*
X010150Y013208D01*
X010150Y013253D02*
X009940Y013253D01*
X009940Y013298D02*
X010150Y013298D01*
X010150Y013343D02*
X009940Y013343D01*
X009940Y013388D02*
X010150Y013388D01*
X010150Y013433D02*
X009940Y013433D01*
X010444Y013467D02*
X010654Y013467D01*
X010654Y012983D01*
X010444Y012983D01*
X010444Y013467D01*
X010444Y013028D02*
X010654Y013028D01*
X010654Y013073D02*
X010444Y013073D01*
X010444Y013118D02*
X010654Y013118D01*
X010654Y013163D02*
X010444Y013163D01*
X010444Y013208D02*
X010654Y013208D01*
X010654Y013253D02*
X010444Y013253D01*
X010444Y013298D02*
X010654Y013298D01*
X010654Y013343D02*
X010444Y013343D01*
X010444Y013388D02*
X010654Y013388D01*
X010654Y013433D02*
X010444Y013433D01*
X010948Y013467D02*
X011158Y013467D01*
X011158Y012983D01*
X010948Y012983D01*
X010948Y013467D01*
X010948Y013028D02*
X011158Y013028D01*
X011158Y013073D02*
X010948Y013073D01*
X010948Y013118D02*
X011158Y013118D01*
X011158Y013163D02*
X010948Y013163D01*
X010948Y013208D02*
X011158Y013208D01*
X011158Y013253D02*
X010948Y013253D01*
X010948Y013298D02*
X011158Y013298D01*
X011158Y013343D02*
X010948Y013343D01*
X010948Y013388D02*
X011158Y013388D01*
X011158Y013433D02*
X010948Y013433D01*
X010948Y015538D02*
X011158Y015538D01*
X011158Y015054D01*
X010948Y015054D01*
X010948Y015538D01*
X010948Y015099D02*
X011158Y015099D01*
X011158Y015144D02*
X010948Y015144D01*
X010948Y015189D02*
X011158Y015189D01*
X011158Y015234D02*
X010948Y015234D01*
X010948Y015279D02*
X011158Y015279D01*
X011158Y015324D02*
X010948Y015324D01*
X010948Y015369D02*
X011158Y015369D01*
X011158Y015414D02*
X010948Y015414D01*
X010948Y015459D02*
X011158Y015459D01*
X011158Y015504D02*
X010948Y015504D01*
X010654Y015538D02*
X010444Y015538D01*
X010654Y015538D02*
X010654Y015054D01*
X010444Y015054D01*
X010444Y015538D01*
X010444Y015099D02*
X010654Y015099D01*
X010654Y015144D02*
X010444Y015144D01*
X010444Y015189D02*
X010654Y015189D01*
X010654Y015234D02*
X010444Y015234D01*
X010444Y015279D02*
X010654Y015279D01*
X010654Y015324D02*
X010444Y015324D01*
X010444Y015369D02*
X010654Y015369D01*
X010654Y015414D02*
X010444Y015414D01*
X010444Y015459D02*
X010654Y015459D01*
X010654Y015504D02*
X010444Y015504D01*
X010150Y015538D02*
X009940Y015538D01*
X010150Y015538D02*
X010150Y015054D01*
X009940Y015054D01*
X009940Y015538D01*
X009940Y015099D02*
X010150Y015099D01*
X010150Y015144D02*
X009940Y015144D01*
X009940Y015189D02*
X010150Y015189D01*
X010150Y015234D02*
X009940Y015234D01*
X009940Y015279D02*
X010150Y015279D01*
X010150Y015324D02*
X009940Y015324D01*
X009940Y015369D02*
X010150Y015369D01*
X010150Y015414D02*
X009940Y015414D01*
X009940Y015459D02*
X010150Y015459D01*
X010150Y015504D02*
X009940Y015504D01*
X009646Y015538D02*
X009436Y015538D01*
X009646Y015538D02*
X009646Y015054D01*
X009436Y015054D01*
X009436Y015538D01*
X009436Y015099D02*
X009646Y015099D01*
X009646Y015144D02*
X009436Y015144D01*
X009436Y015189D02*
X009646Y015189D01*
X009646Y015234D02*
X009436Y015234D01*
X009436Y015279D02*
X009646Y015279D01*
X009646Y015324D02*
X009436Y015324D01*
X009436Y015369D02*
X009646Y015369D01*
X009646Y015414D02*
X009436Y015414D01*
X009436Y015459D02*
X009646Y015459D01*
X009646Y015504D02*
X009436Y015504D01*
D11*
X011647Y014534D03*
X011647Y014022D03*
X012577Y014162D03*
X013027Y014162D03*
X013477Y014162D03*
X013477Y014674D03*
X013027Y014674D03*
X012577Y014674D03*
X014577Y014674D03*
X015027Y014674D03*
X015027Y014162D03*
X014577Y014162D03*
X017877Y014112D03*
X017877Y014624D03*
X017597Y027882D03*
X017177Y027882D03*
X016597Y027882D03*
X016597Y028394D03*
X017177Y028394D03*
X017597Y028394D03*
X016027Y028384D03*
X015447Y028384D03*
X015447Y027872D03*
X016027Y027872D03*
X014847Y027872D03*
X014347Y027872D03*
X014347Y028384D03*
X014847Y028384D03*
X013597Y028394D03*
X013097Y028394D03*
X013097Y027882D03*
X013597Y027882D03*
X004577Y017724D03*
X004577Y017212D03*
X003977Y017212D03*
X003477Y017212D03*
X002977Y017212D03*
X002977Y017724D03*
X003477Y017724D03*
X003977Y017724D03*
X002477Y017724D03*
X002477Y017212D03*
X002477Y016074D03*
X002477Y015562D03*
X002977Y015562D03*
X003477Y015562D03*
X003977Y015562D03*
X003977Y016074D03*
X003477Y016074D03*
X002977Y016074D03*
D12*
X004577Y016133D03*
X004577Y015424D03*
X014027Y014773D03*
X014027Y014064D03*
X017327Y014014D03*
X017327Y014723D03*
X021837Y004253D03*
X022537Y004253D03*
X023237Y004253D03*
X023937Y004253D03*
X024637Y004253D03*
X025337Y004253D03*
X025337Y003544D03*
X024637Y003544D03*
X023937Y003544D03*
X023237Y003544D03*
X022537Y003544D03*
X021837Y003544D03*
D13*
X025721Y007888D03*
X026233Y007888D03*
X019763Y013708D03*
X019763Y014148D03*
X019763Y014598D03*
X019763Y015058D03*
X019763Y015498D03*
X019251Y015498D03*
X019251Y015058D03*
X019251Y014598D03*
X019251Y014148D03*
X019251Y013708D03*
X019251Y015948D03*
X019251Y016398D03*
X019251Y016838D03*
X019251Y017288D03*
X019251Y017738D03*
X019763Y017738D03*
X019763Y017288D03*
X019763Y016838D03*
X019763Y016398D03*
X019763Y015948D03*
X019763Y018188D03*
X019763Y018648D03*
X019763Y019098D03*
X019763Y019548D03*
X019763Y019998D03*
X019251Y019998D03*
X019251Y019548D03*
X019251Y019098D03*
X019251Y018648D03*
X019251Y018188D03*
X020221Y018648D03*
X020733Y018648D03*
X019763Y020448D03*
X019763Y020898D03*
X019763Y021348D03*
X019763Y021798D03*
X019763Y022248D03*
X019251Y022248D03*
X019251Y021798D03*
X019251Y021348D03*
X019251Y020898D03*
X019251Y020448D03*
X019251Y022698D03*
X019251Y023148D03*
X019763Y023148D03*
X019763Y022698D03*
X016033Y014668D03*
X015521Y014668D03*
X015531Y014148D03*
X015531Y013658D03*
X016043Y013658D03*
X016043Y014148D03*
D14*
X016637Y014045D03*
X016637Y014694D03*
D15*
X016877Y002068D03*
X015877Y002068D03*
X014877Y002068D03*
X013877Y002068D03*
X012877Y002068D03*
X017877Y002068D03*
X018877Y002068D03*
X019877Y002068D03*
X020877Y002068D03*
X021877Y002068D03*
X022877Y002068D03*
X023877Y002068D03*
X024877Y002068D03*
X025877Y002068D03*
X002227Y005268D03*
X002227Y006268D03*
X002207Y008418D03*
X002207Y009418D03*
X002207Y010418D03*
X012877Y033068D03*
X013877Y033068D03*
X014877Y033068D03*
X015877Y033068D03*
X016877Y033068D03*
X016877Y034068D03*
X015877Y034068D03*
X015877Y035068D03*
X016877Y035068D03*
X017877Y035068D03*
X017877Y034068D03*
X018877Y034068D03*
X018877Y035068D03*
X019877Y035068D03*
X019877Y034068D03*
X020877Y034068D03*
X020877Y035068D03*
X021877Y035068D03*
X021877Y034068D03*
X022877Y034068D03*
X022877Y035068D03*
X023877Y035068D03*
X023877Y034068D03*
X014877Y034068D03*
X014877Y035068D03*
X013877Y035068D03*
X013877Y034068D03*
X012877Y034068D03*
X012877Y035068D03*
D16*
X004901Y010288D03*
X004193Y010288D03*
X004133Y009068D03*
X004841Y009068D03*
D17*
X022082Y027728D03*
X025632Y027728D03*
D18*
X030789Y005574D02*
X031889Y005574D01*
D19*
X030158Y004370D02*
X030158Y003070D01*
D20*
X032520Y003145D02*
X032520Y004295D01*
D21*
X032520Y004311D03*
X032520Y004271D03*
X032520Y004212D03*
X032520Y004173D03*
X032520Y004133D03*
X032520Y004074D03*
X032520Y004015D03*
X032520Y003956D03*
X032520Y003897D03*
X032520Y003838D03*
X032520Y003779D03*
X032520Y003661D03*
X032520Y003602D03*
X032520Y003543D03*
X032520Y003484D03*
X032520Y003425D03*
X032520Y003366D03*
X032520Y003307D03*
X032520Y003248D03*
X032520Y003189D03*
X032520Y003129D03*
X032520Y003070D03*
X032520Y003031D03*
X032520Y004370D03*
X032520Y004409D03*
X032028Y005570D03*
X032008Y005570D03*
X031969Y005570D03*
X031929Y005570D03*
X031890Y005570D03*
X031850Y005570D03*
X031811Y005570D03*
X031772Y005570D03*
X031732Y005570D03*
X031693Y005570D03*
X031654Y005570D03*
X031614Y005570D03*
X031575Y005570D03*
X031536Y005570D03*
X031496Y005570D03*
X031457Y005570D03*
X031417Y005570D03*
X031378Y005570D03*
X031299Y005570D03*
X031260Y005570D03*
X031221Y005570D03*
X031181Y005570D03*
X031142Y005570D03*
X031102Y005570D03*
X031063Y005570D03*
X031024Y005570D03*
X030984Y005570D03*
X030945Y005570D03*
X030906Y005570D03*
X030866Y005570D03*
X030827Y005570D03*
X030787Y005570D03*
X030748Y005570D03*
X030709Y005570D03*
X030669Y005570D03*
X030650Y005570D03*
D22*
X030158Y004507D03*
X030158Y004468D03*
X030158Y004429D03*
X030158Y004389D03*
X030158Y004350D03*
X030158Y004311D03*
X030158Y004271D03*
X030158Y004232D03*
X030158Y004192D03*
X030158Y004153D03*
X030158Y004114D03*
X030158Y004074D03*
X030158Y004035D03*
X030158Y003996D03*
X030158Y003956D03*
X030158Y003917D03*
X030158Y003877D03*
X030158Y003838D03*
X030158Y003799D03*
X030158Y003759D03*
X030158Y003681D03*
X030158Y003641D03*
X030158Y003602D03*
X030158Y003563D03*
X030158Y003523D03*
X030158Y003484D03*
X030158Y003444D03*
X030158Y003405D03*
X030158Y003366D03*
X030158Y003326D03*
X030158Y003287D03*
X030158Y003248D03*
X030158Y003208D03*
X030158Y003169D03*
X030158Y003129D03*
X030158Y003090D03*
X030158Y003051D03*
X030158Y003011D03*
X030158Y002972D03*
X030158Y002933D03*
D23*
X004966Y020860D03*
X004966Y026057D03*
X004946Y027720D03*
X004946Y032917D03*
D24*
X006009Y031696D03*
X006009Y030712D03*
X006009Y029925D03*
X006009Y028940D03*
X006029Y024836D03*
X006029Y023852D03*
X006029Y023065D03*
X006029Y022080D03*
D25*
X007192Y022323D03*
X007577Y023298D03*
X007177Y023428D03*
X007697Y024488D03*
X008507Y024228D03*
X008917Y024258D03*
X009307Y024208D03*
X009087Y022978D03*
X009087Y022678D03*
X008717Y022678D03*
X008717Y022988D03*
X009067Y021398D03*
X008297Y020638D03*
X007727Y021218D03*
X009497Y020388D03*
X009297Y019628D03*
X009157Y017838D03*
X009407Y017248D03*
X010847Y017128D03*
X011237Y016998D03*
X011327Y017518D03*
X011327Y017818D03*
X011623Y017825D03*
X011629Y017536D03*
X010827Y017718D03*
X010977Y018938D03*
X011217Y019918D03*
X010917Y021058D03*
X010067Y021198D03*
X012747Y022368D03*
X013237Y021638D03*
X013227Y021328D03*
X013547Y021318D03*
X013547Y020998D03*
X013537Y020688D03*
X013547Y020378D03*
X013847Y020378D03*
X013857Y019748D03*
X014177Y019758D03*
X014487Y020048D03*
X014477Y020378D03*
X014487Y020998D03*
X014477Y021338D03*
X014487Y021648D03*
X014487Y021948D03*
X014167Y021958D03*
X014057Y022368D03*
X014497Y022273D03*
X015117Y021648D03*
X015427Y021638D03*
X015427Y021958D03*
X015107Y021318D03*
X015117Y020998D03*
X015427Y020698D03*
X015117Y020388D03*
X015117Y020078D03*
X015127Y019748D03*
X015117Y019428D03*
X015127Y019118D03*
X014787Y018798D03*
X014477Y018798D03*
X014477Y018488D03*
X014167Y018498D03*
X013857Y018498D03*
X013547Y018488D03*
X013227Y018498D03*
X013237Y018178D03*
X013542Y017868D03*
X013857Y018178D03*
X013847Y017538D03*
X013227Y017228D03*
X013207Y017538D03*
X012887Y017548D03*
X012897Y016928D03*
X012737Y016468D03*
X013037Y015838D03*
X013757Y014398D03*
X013497Y013828D03*
X014587Y013668D03*
X015187Y013288D03*
X014477Y012948D03*
X014977Y011818D03*
X015452Y011728D03*
X015922Y011463D03*
X016447Y011738D03*
X016957Y011453D03*
X016827Y010698D03*
X017507Y010488D03*
X016637Y009638D03*
X016787Y008968D03*
X016827Y008318D03*
X016797Y007738D03*
X015607Y006818D03*
X015387Y007778D03*
X015267Y008768D03*
X014977Y009228D03*
X014947Y009558D03*
X014887Y009898D03*
X014557Y009558D03*
X014607Y009218D03*
X014647Y008888D03*
X014187Y009188D03*
X015327Y009578D03*
X014967Y010368D03*
X016477Y012918D03*
X016957Y012918D03*
X016787Y013638D03*
X017277Y013668D03*
X017747Y013308D03*
X017957Y012968D03*
X018257Y013028D03*
X018557Y013073D03*
X018377Y013368D03*
X018077Y013568D03*
X017857Y013798D03*
X018237Y014108D03*
X018377Y013768D03*
X019147Y012968D03*
X019757Y012968D03*
X019467Y012208D03*
X019167Y011758D03*
X019047Y011388D03*
X018547Y011378D03*
X017987Y011488D03*
X017707Y011768D03*
X018277Y012258D03*
X019527Y011378D03*
X019862Y010973D03*
X019907Y010568D03*
X020387Y009678D03*
X020687Y009708D03*
X020917Y009528D03*
X021197Y009418D03*
X021277Y008808D03*
X020797Y008808D03*
X020917Y007878D03*
X020917Y007268D03*
X021507Y007268D03*
X021507Y007878D03*
X022067Y007258D03*
X022462Y008098D03*
X022467Y008408D03*
X022447Y008798D03*
X022372Y009418D03*
X022017Y009618D03*
X021797Y009838D03*
X021887Y008798D03*
X023102Y007543D03*
X023357Y007813D03*
X023602Y007228D03*
X023117Y006928D03*
X022047Y006118D03*
X021127Y006358D03*
X020867Y006148D03*
X020907Y004808D03*
X021077Y004228D03*
X021417Y004228D03*
X021717Y003918D03*
X022097Y003933D03*
X022767Y003888D03*
X023127Y003878D03*
X023247Y003188D03*
X023927Y004578D03*
X024637Y004578D03*
X025357Y004578D03*
X025767Y003548D03*
X026927Y002968D03*
X027827Y003068D03*
X028227Y004368D03*
X029277Y007018D03*
X029927Y007018D03*
X030627Y007018D03*
X030627Y008518D03*
X029927Y008518D03*
X029227Y008518D03*
X029127Y009218D03*
X029627Y009218D03*
X030127Y009218D03*
X030627Y009218D03*
X031127Y009218D03*
X031627Y009218D03*
X032177Y009218D03*
X032127Y010418D03*
X031627Y010418D03*
X031077Y010418D03*
X030627Y010418D03*
X030127Y010418D03*
X029627Y010418D03*
X029127Y010418D03*
X029127Y010968D03*
X029627Y010968D03*
X030127Y010968D03*
X030677Y010968D03*
X031127Y010968D03*
X031627Y010968D03*
X032177Y010968D03*
X032127Y012118D03*
X031627Y012118D03*
X031127Y012118D03*
X030627Y012118D03*
X030127Y012118D03*
X029627Y012118D03*
X029127Y012118D03*
X029177Y013018D03*
X029677Y013018D03*
X030177Y013018D03*
X030677Y013018D03*
X031177Y013018D03*
X031677Y013018D03*
X032177Y013018D03*
X032157Y014238D03*
X031667Y014248D03*
X031157Y014218D03*
X030667Y014228D03*
X030157Y014228D03*
X029687Y014228D03*
X029177Y014218D03*
X028657Y014208D03*
X028167Y014228D03*
X027667Y014218D03*
X027167Y014218D03*
X026697Y014218D03*
X027677Y013018D03*
X028177Y013018D03*
X028677Y013018D03*
X026977Y012168D03*
X026677Y011868D03*
X026377Y012168D03*
X026077Y011868D03*
X025777Y012168D03*
X025377Y011868D03*
X025777Y011468D03*
X026377Y011468D03*
X026977Y011468D03*
X028247Y014968D03*
X028837Y015048D03*
X029357Y015068D03*
X029837Y015058D03*
X030347Y015058D03*
X030847Y015068D03*
X031347Y015068D03*
X031847Y015068D03*
X032357Y015058D03*
X032857Y015068D03*
X033327Y015078D03*
X033277Y016218D03*
X032827Y016218D03*
X032327Y016218D03*
X031827Y016218D03*
X031327Y016218D03*
X030827Y016218D03*
X030327Y016218D03*
X029827Y016218D03*
X029327Y016218D03*
X028827Y016218D03*
X028227Y016368D03*
X028377Y017068D03*
X029127Y017218D03*
X029627Y017218D03*
X030177Y017218D03*
X030627Y017218D03*
X031127Y017218D03*
X031677Y017218D03*
X032177Y017218D03*
X032877Y017068D03*
X032897Y018458D03*
X032147Y018368D03*
X031647Y018358D03*
X031147Y018358D03*
X030627Y018348D03*
X030147Y018358D03*
X029627Y018358D03*
X029147Y018358D03*
X028397Y018498D03*
X028177Y019218D03*
X028177Y019668D03*
X028187Y020168D03*
X029147Y020348D03*
X029647Y020358D03*
X030147Y020348D03*
X030647Y020358D03*
X031127Y020358D03*
X031647Y020358D03*
X032147Y020358D03*
X032177Y020968D03*
X031677Y020968D03*
X031177Y020968D03*
X030677Y020968D03*
X030177Y020968D03*
X029677Y020968D03*
X029177Y020968D03*
X029187Y022098D03*
X029687Y022098D03*
X030187Y022098D03*
X030697Y022108D03*
X031197Y022108D03*
X031697Y022098D03*
X032177Y022108D03*
X032177Y019168D03*
X031627Y019168D03*
X031127Y019168D03*
X030627Y019168D03*
X030177Y019168D03*
X029627Y019168D03*
X029127Y019168D03*
X026907Y019688D03*
X026072Y019673D03*
X026072Y019368D03*
X025727Y019368D03*
X025427Y019368D03*
X025417Y019688D03*
X025437Y019993D03*
X025437Y020308D03*
X025447Y020618D03*
X025427Y020913D03*
X025427Y021233D03*
X025422Y021583D03*
X026057Y021858D03*
X026067Y021238D03*
X025757Y020928D03*
X026112Y020608D03*
X026107Y020298D03*
X026077Y019978D03*
X025747Y019678D03*
X024977Y020468D03*
X024662Y020778D03*
X024277Y020893D03*
X024222Y021408D03*
X023867Y021248D03*
X023857Y021568D03*
X023557Y021568D03*
X023242Y021253D03*
X022977Y021133D03*
X022847Y020793D03*
X023227Y020608D03*
X023537Y020618D03*
X023852Y020623D03*
X023852Y020288D03*
X023537Y019968D03*
X023537Y019668D03*
X023547Y019358D03*
X023547Y019058D03*
X023217Y019338D03*
X022937Y019688D03*
X023187Y019943D03*
X023857Y019683D03*
X023857Y019368D03*
X024267Y019368D03*
X024427Y019678D03*
X024357Y020018D03*
X024997Y018568D03*
X024902Y018168D03*
X024572Y017943D03*
X024702Y017568D03*
X024487Y016923D03*
X023892Y017068D03*
X023667Y016858D03*
X023252Y017473D03*
X022967Y017408D03*
X022672Y017398D03*
X022182Y017578D03*
X021967Y017318D03*
X021962Y016763D03*
X022277Y017958D03*
X021992Y018148D03*
X022187Y018368D03*
X022142Y018668D03*
X022412Y018808D03*
X021967Y018948D03*
X022617Y018078D03*
X022922Y018048D03*
X023217Y018088D03*
X023542Y017798D03*
X023852Y017798D03*
X024162Y018108D03*
X023867Y018408D03*
X023537Y018438D03*
X024442Y018483D03*
X025427Y018398D03*
X025727Y018408D03*
X025897Y018673D03*
X026107Y018888D03*
X026147Y018398D03*
X026077Y017768D03*
X025767Y017788D03*
X025727Y017478D03*
X025427Y017468D03*
X025427Y018708D03*
X022762Y020388D03*
X022302Y020503D03*
X021982Y020343D03*
X022322Y020128D03*
X021972Y020773D03*
X021967Y021218D03*
X022337Y021363D03*
X022157Y021663D03*
X022047Y022218D03*
X021997Y022518D03*
X022277Y022738D03*
X022507Y022533D03*
X022707Y022308D03*
X022897Y022608D03*
X023482Y022633D03*
X024372Y022473D03*
X024792Y022238D03*
X024577Y021763D03*
X020827Y018288D03*
X020797Y016238D03*
X020712Y015783D03*
X020417Y015458D03*
X022102Y014928D03*
X018307Y014978D03*
X017082Y015298D03*
X017107Y016098D03*
X016287Y016548D03*
X016387Y016918D03*
X016367Y017548D03*
X016687Y017568D03*
X016997Y017548D03*
X016987Y017238D03*
X017317Y017218D03*
X017637Y017223D03*
X017637Y016908D03*
X018117Y016508D03*
X017312Y017558D03*
X017317Y017868D03*
X017317Y018178D03*
X017007Y018168D03*
X017317Y018488D03*
X017632Y018513D03*
X017627Y018808D03*
X017317Y019118D03*
X017327Y019438D03*
X017637Y019438D03*
X017317Y019748D03*
X017317Y020068D03*
X017317Y020378D03*
X017317Y020688D03*
X017628Y020708D03*
X017633Y021037D03*
X017323Y021000D03*
X017007Y021330D03*
X016697Y021318D03*
X016377Y021328D03*
X016057Y021008D03*
X016377Y020688D03*
X016377Y020378D03*
X016687Y020698D03*
X016387Y019748D03*
X016067Y019438D03*
X016377Y019118D03*
X016377Y018488D03*
X016377Y018168D03*
X016047Y017858D03*
X015747Y017858D03*
X015737Y017558D03*
X015747Y017218D03*
X015427Y017248D03*
X015127Y017228D03*
X015427Y016928D03*
X015592Y016243D03*
X014777Y014958D03*
X014807Y017548D03*
X015127Y017868D03*
X015437Y017858D03*
X015747Y018168D03*
X015757Y018488D03*
X015737Y019108D03*
X015747Y019758D03*
X015737Y020068D03*
X015747Y020378D03*
X014487Y019438D03*
X013857Y019118D03*
X013527Y019118D03*
X012917Y018808D03*
X014487Y017868D03*
X014797Y018478D03*
X017017Y018808D03*
X017007Y019428D03*
X017635Y020045D03*
X017633Y020377D03*
X017957Y021328D03*
X017967Y021638D03*
X017633Y021961D03*
X017297Y021638D03*
X017007Y021648D03*
X016597Y022788D03*
X016637Y023208D03*
X018107Y022358D03*
X018007Y024308D03*
X018297Y024468D03*
X019247Y024788D03*
X020067Y023148D03*
X020267Y022708D03*
X020287Y021198D03*
X017637Y018178D03*
X017627Y017848D03*
X013857Y020998D03*
X013227Y020698D03*
X012077Y024418D03*
X011777Y024768D03*
X012027Y025068D03*
X011477Y025068D03*
X011477Y024418D03*
X012577Y025308D03*
X013597Y026888D03*
X014487Y027228D03*
X015277Y027258D03*
X016297Y027288D03*
X017447Y027198D03*
X017597Y028708D03*
X016597Y028728D03*
X016592Y029088D03*
X016547Y029388D03*
X016477Y029698D03*
X016037Y028738D03*
X015447Y028728D03*
X014697Y029028D03*
X014387Y028748D03*
X013587Y028728D03*
X015077Y030488D03*
X017787Y030598D03*
X018087Y030538D03*
X018397Y030388D03*
X019827Y030268D03*
X020187Y029928D03*
X019427Y033118D03*
X019177Y033368D03*
X018657Y033388D03*
X018637Y033088D03*
X017957Y033358D03*
X010307Y029178D03*
X009547Y029388D03*
X008827Y029388D03*
X008077Y029168D03*
X007477Y030208D03*
X007767Y031298D03*
X007067Y031338D03*
X008117Y032438D03*
X008807Y032198D03*
X009177Y032218D03*
X009627Y032128D03*
X009387Y030928D03*
X009397Y030608D03*
X009047Y030608D03*
X009047Y030918D03*
X008107Y026918D03*
X002307Y020008D03*
X002977Y018528D03*
X003477Y018478D03*
X002477Y018518D03*
X002487Y016708D03*
X002987Y016728D03*
X003487Y016718D03*
X003987Y016718D03*
X004547Y016708D03*
X004567Y018068D03*
X004797Y018728D03*
X005707Y018558D03*
X007247Y015168D03*
X009547Y015788D03*
X011427Y015068D03*
X012207Y014158D03*
X011647Y013668D03*
X010797Y012748D03*
X009807Y012778D03*
X008377Y010468D03*
X008597Y009748D03*
X007777Y009178D03*
X007617Y008718D03*
X007597Y010258D03*
X007637Y010968D03*
X006177Y010968D03*
X005252Y010298D03*
X005287Y009063D03*
X003757Y009068D03*
X003777Y010418D03*
X003357Y014248D03*
X003477Y014868D03*
X002977Y014878D03*
X002477Y014908D03*
X002037Y014348D03*
X003977Y015168D03*
X004567Y015068D03*
X013577Y007568D03*
X011877Y004968D03*
X011377Y004968D03*
X010877Y004968D03*
X010377Y004968D03*
X009877Y004968D03*
X009377Y004968D03*
X008877Y004968D03*
X008377Y004968D03*
X007877Y004968D03*
X007377Y004968D03*
X007377Y003788D03*
X007867Y003808D03*
X008357Y003798D03*
X008867Y003788D03*
X009377Y003778D03*
X009867Y003788D03*
X010367Y003788D03*
X010887Y003808D03*
X011367Y003768D03*
X011887Y003798D03*
X016467Y005428D03*
X016457Y006118D03*
X017837Y005778D03*
X018097Y005648D03*
X017977Y005198D03*
X018577Y005168D03*
X018892Y005183D03*
X019217Y005558D03*
X018077Y007068D03*
X018457Y008398D03*
X019512Y008803D03*
X019757Y008613D03*
X019767Y007908D03*
X021837Y004638D03*
X022377Y004668D03*
X021397Y003538D03*
X019817Y003098D03*
X025132Y007893D03*
X026577Y007868D03*
X026807Y027718D03*
X008357Y034898D03*
X006837Y003748D03*
X005437Y001878D03*
D26*
X017322Y021308D03*
D27*
X002377Y002568D03*
X002377Y034568D03*
X034377Y034568D03*
X034377Y007568D03*
M02*
