G75*
G70*
%OFA0B0*%
%FSLAX24Y24*%
%IPPOS*%
%LPD*%
%AMOC8*
5,1,8,0,0,1.08239X$1,22.5*
%
%ADD10C,0.0557*%
%ADD11C,0.0551*%
%ADD12C,0.0630*%
%ADD13C,0.1063*%
%ADD14C,0.0520*%
%ADD15C,0.0050*%
%ADD16C,0.0237*%
%ADD17C,0.0080*%
%ADD18C,0.0160*%
%ADD19C,0.0320*%
%ADD20C,0.1407*%
D10*
X002227Y005268D03*
X002227Y006268D03*
X002207Y008418D03*
X002207Y009418D03*
X002207Y010418D03*
X012877Y002068D03*
X013877Y002068D03*
X014877Y002068D03*
X015877Y002068D03*
X016877Y002068D03*
X017877Y002068D03*
X018877Y002068D03*
X019877Y002068D03*
X020877Y002068D03*
X021877Y002068D03*
X022877Y002068D03*
X023877Y002068D03*
X024877Y002068D03*
X025877Y002068D03*
X016877Y033068D03*
X015877Y033068D03*
X014877Y033068D03*
X013877Y033068D03*
X012877Y033068D03*
X012877Y034068D03*
X013877Y034068D03*
X013877Y035068D03*
X012877Y035068D03*
X014877Y035068D03*
X014877Y034068D03*
X015877Y034068D03*
X016877Y034068D03*
X016877Y035068D03*
X015877Y035068D03*
X017877Y035068D03*
X017877Y034068D03*
X018877Y034068D03*
X018877Y035068D03*
X019877Y035068D03*
X019877Y034068D03*
X020877Y034068D03*
X020877Y035068D03*
X021877Y035068D03*
X021877Y034068D03*
X022877Y034068D03*
X022877Y035068D03*
X023877Y035068D03*
X023877Y034068D03*
D11*
X031339Y005574D03*
X032520Y003720D03*
D12*
X030158Y003720D03*
D13*
X004966Y020860D03*
X004966Y026057D03*
X004946Y027720D03*
X004946Y032917D03*
D14*
X006009Y031696D03*
X006009Y030712D03*
X006009Y029925D03*
X006009Y028940D03*
X006029Y024836D03*
X006029Y023852D03*
X006029Y023065D03*
X006029Y022080D03*
D15*
X007022Y022088D02*
X009240Y022088D01*
X009259Y022136D02*
X007278Y022136D01*
X007272Y022130D02*
X007385Y022243D01*
X007385Y022403D01*
X007272Y022516D01*
X007112Y022516D01*
X007017Y022422D01*
X007004Y023328D01*
X007097Y023235D01*
X007257Y023235D01*
X007370Y023348D01*
X007370Y023508D01*
X007257Y023621D01*
X007097Y023621D01*
X007001Y023526D01*
X006977Y025218D01*
X008375Y024369D01*
X007851Y024369D01*
X008375Y024369D01*
X008314Y024308D01*
X008314Y024148D01*
X008427Y024035D01*
X008587Y024035D01*
X008700Y024148D01*
X008700Y024172D01*
X009777Y023518D01*
X009054Y021591D01*
X008987Y021591D01*
X008874Y021478D01*
X008874Y021318D01*
X008931Y021262D01*
X008877Y021118D01*
X008877Y010268D01*
X015827Y004918D01*
X020744Y004918D01*
X020714Y004888D01*
X020714Y004728D01*
X020827Y004615D01*
X020987Y004615D01*
X021100Y004728D01*
X021100Y004888D01*
X021070Y004918D01*
X022227Y004918D01*
X024227Y003468D01*
X024227Y002223D01*
X024216Y002249D01*
X024174Y002312D01*
X024121Y002365D01*
X024058Y002407D01*
X023988Y002436D01*
X023915Y002451D01*
X023902Y002451D01*
X023902Y002094D01*
X023852Y002094D01*
X023852Y002451D01*
X023839Y002451D01*
X023765Y002436D01*
X023696Y002407D01*
X023633Y002365D01*
X023580Y002312D01*
X023538Y002249D01*
X023509Y002180D01*
X023494Y002106D01*
X023494Y002093D01*
X023852Y002093D01*
X023852Y002043D01*
X023902Y002043D01*
X023902Y001686D01*
X023915Y001686D01*
X023988Y001701D01*
X024058Y001729D01*
X024121Y001771D01*
X024174Y001825D01*
X024216Y001887D01*
X024227Y001914D01*
X024227Y001818D01*
X024027Y001568D01*
X023727Y001568D01*
X023427Y001868D01*
X023427Y002668D01*
X022077Y003418D01*
X021550Y003418D01*
X021590Y003458D01*
X021590Y003618D01*
X021477Y003731D01*
X021317Y003731D01*
X021204Y003618D01*
X021204Y003458D01*
X021244Y003418D01*
X013827Y003418D01*
X012013Y004832D01*
X012070Y004888D01*
X012070Y005048D01*
X011957Y005161D01*
X011797Y005161D01*
X011707Y005071D01*
X007027Y008718D01*
X007027Y021768D01*
X007020Y022222D01*
X007112Y022130D01*
X007272Y022130D01*
X007326Y022185D02*
X009277Y022185D01*
X009295Y022233D02*
X007375Y022233D01*
X007385Y022282D02*
X009313Y022282D01*
X009331Y022330D02*
X007385Y022330D01*
X007385Y022379D02*
X009350Y022379D01*
X009368Y022427D02*
X007361Y022427D01*
X007312Y022476D02*
X009386Y022476D01*
X009404Y022524D02*
X009206Y022524D01*
X009167Y022485D02*
X009280Y022598D01*
X009280Y022758D01*
X009210Y022828D01*
X009280Y022898D01*
X009280Y023058D01*
X009167Y023171D01*
X009007Y023171D01*
X008907Y023071D01*
X008797Y023181D01*
X008637Y023181D01*
X008524Y023068D01*
X008524Y022908D01*
X008599Y022833D01*
X008524Y022758D01*
X008524Y022598D01*
X008637Y022485D01*
X008797Y022485D01*
X008902Y022590D01*
X009007Y022485D01*
X009167Y022485D01*
X009254Y022573D02*
X009422Y022573D01*
X009441Y022622D02*
X009280Y022622D01*
X009280Y022670D02*
X009459Y022670D01*
X009477Y022719D02*
X009280Y022719D01*
X009271Y022767D02*
X009495Y022767D01*
X009513Y022816D02*
X009222Y022816D01*
X009246Y022864D02*
X009532Y022864D01*
X009550Y022913D02*
X009280Y022913D01*
X009280Y022961D02*
X009568Y022961D01*
X009586Y023010D02*
X009280Y023010D01*
X009280Y023058D02*
X009604Y023058D01*
X009623Y023107D02*
X009231Y023107D01*
X009182Y023156D02*
X009641Y023156D01*
X009659Y023204D02*
X007755Y023204D01*
X007770Y023218D02*
X007657Y023105D01*
X007497Y023105D01*
X007384Y023218D01*
X007384Y023378D01*
X007497Y023491D01*
X007657Y023491D01*
X007770Y023378D01*
X007770Y023218D01*
X007770Y023253D02*
X009677Y023253D01*
X009695Y023301D02*
X007770Y023301D01*
X007770Y023350D02*
X009714Y023350D01*
X009732Y023398D02*
X007750Y023398D01*
X007701Y023447D02*
X009750Y023447D01*
X009768Y023495D02*
X007370Y023495D01*
X007370Y023447D02*
X007452Y023447D01*
X007404Y023398D02*
X007370Y023398D01*
X007370Y023350D02*
X007384Y023350D01*
X007384Y023301D02*
X007323Y023301D01*
X007274Y023253D02*
X007384Y023253D01*
X007398Y023204D02*
X007006Y023204D01*
X007007Y023156D02*
X007447Y023156D01*
X007495Y023107D02*
X007007Y023107D01*
X007008Y023058D02*
X008524Y023058D01*
X008524Y023010D02*
X007009Y023010D01*
X007010Y022961D02*
X008524Y022961D01*
X008524Y022913D02*
X007010Y022913D01*
X007011Y022864D02*
X008568Y022864D01*
X008581Y022816D02*
X007012Y022816D01*
X007012Y022767D02*
X008533Y022767D01*
X008524Y022719D02*
X007013Y022719D01*
X007014Y022670D02*
X008524Y022670D01*
X008524Y022622D02*
X007014Y022622D01*
X007015Y022573D02*
X008549Y022573D01*
X008598Y022524D02*
X007016Y022524D01*
X007017Y022476D02*
X007072Y022476D01*
X007023Y022427D02*
X007017Y022427D01*
X007021Y022185D02*
X007058Y022185D01*
X007021Y022136D02*
X007106Y022136D01*
X007023Y022039D02*
X009222Y022039D01*
X009204Y021991D02*
X007024Y021991D01*
X007024Y021942D02*
X009186Y021942D01*
X009168Y021893D02*
X007025Y021893D01*
X007026Y021845D02*
X009149Y021845D01*
X009131Y021796D02*
X007026Y021796D01*
X007027Y021748D02*
X009113Y021748D01*
X009095Y021699D02*
X007027Y021699D01*
X007027Y021651D02*
X009076Y021651D01*
X009058Y021602D02*
X007027Y021602D01*
X007027Y021554D02*
X008949Y021554D01*
X008901Y021505D02*
X007027Y021505D01*
X007027Y021457D02*
X008874Y021457D01*
X008874Y021408D02*
X007810Y021408D01*
X007807Y021411D02*
X007647Y021411D01*
X007534Y021298D01*
X007534Y021138D01*
X007647Y021025D01*
X007807Y021025D01*
X007920Y021138D01*
X007920Y021298D01*
X007807Y021411D01*
X007859Y021359D02*
X008874Y021359D01*
X008881Y021311D02*
X007907Y021311D01*
X007920Y021262D02*
X008930Y021262D01*
X008913Y021214D02*
X007920Y021214D01*
X007920Y021165D02*
X008894Y021165D01*
X008877Y021117D02*
X007898Y021117D01*
X007850Y021068D02*
X008877Y021068D01*
X008877Y021020D02*
X007027Y021020D01*
X007027Y021068D02*
X007604Y021068D01*
X007556Y021117D02*
X007027Y021117D01*
X007027Y021165D02*
X007534Y021165D01*
X007534Y021214D02*
X007027Y021214D01*
X007027Y021262D02*
X007534Y021262D01*
X007547Y021311D02*
X007027Y021311D01*
X007027Y021359D02*
X007595Y021359D01*
X007644Y021408D02*
X007027Y021408D01*
X007027Y020971D02*
X008877Y020971D01*
X008877Y020923D02*
X007027Y020923D01*
X007027Y020874D02*
X008877Y020874D01*
X008877Y020825D02*
X008383Y020825D01*
X008377Y020831D02*
X008217Y020831D01*
X008104Y020718D01*
X008104Y020558D01*
X008217Y020445D01*
X008377Y020445D01*
X008490Y020558D01*
X008490Y020718D01*
X008377Y020831D01*
X008431Y020777D02*
X008877Y020777D01*
X008877Y020728D02*
X008480Y020728D01*
X008490Y020680D02*
X008877Y020680D01*
X008877Y020631D02*
X008490Y020631D01*
X008490Y020583D02*
X008877Y020583D01*
X008877Y020534D02*
X008466Y020534D01*
X008417Y020486D02*
X008877Y020486D01*
X008877Y020437D02*
X007027Y020437D01*
X007027Y020389D02*
X008877Y020389D01*
X008877Y020340D02*
X007027Y020340D01*
X007027Y020291D02*
X008877Y020291D01*
X008877Y020243D02*
X007027Y020243D01*
X007027Y020194D02*
X008877Y020194D01*
X008877Y020146D02*
X007027Y020146D01*
X007027Y020097D02*
X008877Y020097D01*
X008877Y020049D02*
X007027Y020049D01*
X007027Y020000D02*
X008877Y020000D01*
X008877Y019952D02*
X007027Y019952D01*
X007027Y019903D02*
X008877Y019903D01*
X008877Y019855D02*
X007027Y019855D01*
X007027Y019806D02*
X008877Y019806D01*
X008877Y019758D02*
X007027Y019758D01*
X007027Y019709D02*
X008877Y019709D01*
X008877Y019660D02*
X007027Y019660D01*
X007027Y019612D02*
X008877Y019612D01*
X008877Y019563D02*
X007027Y019563D01*
X007027Y019515D02*
X008877Y019515D01*
X008877Y019466D02*
X007027Y019466D01*
X007027Y019418D02*
X008877Y019418D01*
X008877Y019369D02*
X007027Y019369D01*
X007027Y019321D02*
X008877Y019321D01*
X008877Y019272D02*
X007027Y019272D01*
X007027Y019224D02*
X008877Y019224D01*
X008877Y019175D02*
X007027Y019175D01*
X007027Y019126D02*
X008877Y019126D01*
X008877Y019078D02*
X007027Y019078D01*
X007027Y019029D02*
X008877Y019029D01*
X008877Y018981D02*
X007027Y018981D01*
X007027Y018932D02*
X008877Y018932D01*
X008877Y018884D02*
X007027Y018884D01*
X007027Y018835D02*
X008877Y018835D01*
X008877Y018787D02*
X007027Y018787D01*
X007027Y018738D02*
X008877Y018738D01*
X008877Y018690D02*
X007027Y018690D01*
X007027Y018641D02*
X008877Y018641D01*
X008877Y018592D02*
X007027Y018592D01*
X007027Y018544D02*
X008877Y018544D01*
X008877Y018495D02*
X007027Y018495D01*
X007027Y018447D02*
X008877Y018447D01*
X008877Y018398D02*
X007027Y018398D01*
X007027Y018350D02*
X008877Y018350D01*
X008877Y018301D02*
X007027Y018301D01*
X007027Y018253D02*
X008877Y018253D01*
X008877Y018204D02*
X007027Y018204D01*
X007027Y018156D02*
X008877Y018156D01*
X008877Y018107D02*
X007027Y018107D01*
X007027Y018059D02*
X008877Y018059D01*
X008877Y018010D02*
X007027Y018010D01*
X007027Y017961D02*
X008877Y017961D01*
X008877Y017913D02*
X007027Y017913D01*
X007027Y017864D02*
X008877Y017864D01*
X008877Y017816D02*
X007027Y017816D01*
X007027Y017767D02*
X008877Y017767D01*
X008877Y017719D02*
X007027Y017719D01*
X007027Y017670D02*
X008877Y017670D01*
X008877Y017622D02*
X007027Y017622D01*
X007027Y017573D02*
X008877Y017573D01*
X008877Y017525D02*
X007027Y017525D01*
X007027Y017476D02*
X008877Y017476D01*
X008877Y017427D02*
X007027Y017427D01*
X007027Y017379D02*
X008877Y017379D01*
X008877Y017330D02*
X007027Y017330D01*
X007027Y017282D02*
X008877Y017282D01*
X008877Y017233D02*
X007027Y017233D01*
X007027Y017185D02*
X008877Y017185D01*
X008877Y017136D02*
X007027Y017136D01*
X007027Y017088D02*
X008877Y017088D01*
X008877Y017039D02*
X007027Y017039D01*
X007027Y016991D02*
X008877Y016991D01*
X008877Y016942D02*
X007027Y016942D01*
X007027Y016893D02*
X008877Y016893D01*
X008877Y016845D02*
X007027Y016845D01*
X007027Y016796D02*
X008877Y016796D01*
X008877Y016748D02*
X007027Y016748D01*
X007027Y016699D02*
X008877Y016699D01*
X008877Y016651D02*
X007027Y016651D01*
X007027Y016602D02*
X008877Y016602D01*
X008877Y016554D02*
X007027Y016554D01*
X007027Y016505D02*
X008877Y016505D01*
X008877Y016457D02*
X007027Y016457D01*
X007027Y016408D02*
X008877Y016408D01*
X008877Y016359D02*
X007027Y016359D01*
X007027Y016311D02*
X008877Y016311D01*
X008877Y016262D02*
X007027Y016262D01*
X007027Y016214D02*
X008877Y016214D01*
X008877Y016165D02*
X007027Y016165D01*
X007027Y016117D02*
X008877Y016117D01*
X008877Y016068D02*
X007027Y016068D01*
X007027Y016020D02*
X008877Y016020D01*
X008877Y015971D02*
X007027Y015971D01*
X007027Y015923D02*
X008877Y015923D01*
X008877Y015874D02*
X007027Y015874D01*
X007027Y015826D02*
X008877Y015826D01*
X008877Y015777D02*
X007027Y015777D01*
X007027Y015728D02*
X008877Y015728D01*
X008877Y015680D02*
X007027Y015680D01*
X007027Y015631D02*
X008877Y015631D01*
X008877Y015583D02*
X007027Y015583D01*
X007027Y015534D02*
X008877Y015534D01*
X008877Y015486D02*
X007027Y015486D01*
X007027Y015437D02*
X008877Y015437D01*
X008877Y015389D02*
X007027Y015389D01*
X007027Y015340D02*
X007146Y015340D01*
X007167Y015361D02*
X007054Y015248D01*
X007054Y015088D01*
X007167Y014975D01*
X007327Y014975D01*
X007440Y015088D01*
X007440Y015248D01*
X007327Y015361D01*
X007167Y015361D01*
X007097Y015292D02*
X007027Y015292D01*
X007027Y015243D02*
X007054Y015243D01*
X007054Y015194D02*
X007027Y015194D01*
X007027Y015146D02*
X007054Y015146D01*
X007054Y015097D02*
X007027Y015097D01*
X007027Y015049D02*
X007093Y015049D01*
X007142Y015000D02*
X007027Y015000D01*
X007027Y014952D02*
X008877Y014952D01*
X008877Y015000D02*
X007352Y015000D01*
X007400Y015049D02*
X008877Y015049D01*
X008877Y015097D02*
X007440Y015097D01*
X007440Y015146D02*
X008877Y015146D01*
X008877Y015194D02*
X007440Y015194D01*
X007440Y015243D02*
X008877Y015243D01*
X008877Y015292D02*
X007396Y015292D01*
X007348Y015340D02*
X008877Y015340D01*
X008877Y014903D02*
X007027Y014903D01*
X007027Y014855D02*
X008877Y014855D01*
X008877Y014806D02*
X007027Y014806D01*
X007027Y014758D02*
X008877Y014758D01*
X008877Y014709D02*
X007027Y014709D01*
X007027Y014660D02*
X008877Y014660D01*
X008877Y014612D02*
X007027Y014612D01*
X007027Y014563D02*
X008877Y014563D01*
X008877Y014515D02*
X007027Y014515D01*
X007027Y014466D02*
X008877Y014466D01*
X008877Y014418D02*
X007027Y014418D01*
X007027Y014369D02*
X008877Y014369D01*
X008877Y014321D02*
X007027Y014321D01*
X007027Y014272D02*
X008877Y014272D01*
X008877Y014224D02*
X007027Y014224D01*
X007027Y014175D02*
X008877Y014175D01*
X008877Y014126D02*
X007027Y014126D01*
X007027Y014078D02*
X008877Y014078D01*
X008877Y014029D02*
X007027Y014029D01*
X007027Y013981D02*
X008877Y013981D01*
X008877Y013932D02*
X007027Y013932D01*
X007027Y013884D02*
X008877Y013884D01*
X008877Y013835D02*
X007027Y013835D01*
X007027Y013787D02*
X008877Y013787D01*
X008877Y013738D02*
X007027Y013738D01*
X007027Y013690D02*
X008877Y013690D01*
X008877Y013641D02*
X007027Y013641D01*
X007027Y013593D02*
X008877Y013593D01*
X008877Y013544D02*
X007027Y013544D01*
X007027Y013495D02*
X008877Y013495D01*
X008877Y013447D02*
X007027Y013447D01*
X007027Y013398D02*
X008877Y013398D01*
X008877Y013350D02*
X007027Y013350D01*
X007027Y013301D02*
X008877Y013301D01*
X008877Y013253D02*
X007027Y013253D01*
X007027Y013204D02*
X008877Y013204D01*
X008877Y013156D02*
X007027Y013156D01*
X007027Y013107D02*
X008877Y013107D01*
X008877Y013059D02*
X007027Y013059D01*
X007027Y013010D02*
X008877Y013010D01*
X008877Y012961D02*
X007027Y012961D01*
X007027Y012913D02*
X008877Y012913D01*
X008877Y012864D02*
X007027Y012864D01*
X007027Y012816D02*
X008877Y012816D01*
X008877Y012767D02*
X007027Y012767D01*
X007027Y012719D02*
X008877Y012719D01*
X008877Y012670D02*
X007027Y012670D01*
X007027Y012622D02*
X008877Y012622D01*
X008877Y012573D02*
X007027Y012573D01*
X007027Y012525D02*
X008877Y012525D01*
X008877Y012476D02*
X007027Y012476D01*
X007027Y012427D02*
X008877Y012427D01*
X008877Y012379D02*
X007027Y012379D01*
X007027Y012330D02*
X008877Y012330D01*
X008877Y012282D02*
X007027Y012282D01*
X007027Y012233D02*
X008877Y012233D01*
X008877Y012185D02*
X007027Y012185D01*
X007027Y012136D02*
X008877Y012136D01*
X008877Y012088D02*
X007027Y012088D01*
X007027Y012039D02*
X008877Y012039D01*
X008877Y011991D02*
X007027Y011991D01*
X007027Y011942D02*
X008877Y011942D01*
X008877Y011894D02*
X007027Y011894D01*
X007027Y011845D02*
X008877Y011845D01*
X008877Y011796D02*
X007027Y011796D01*
X007027Y011748D02*
X008877Y011748D01*
X008877Y011699D02*
X007027Y011699D01*
X007027Y011651D02*
X008877Y011651D01*
X008877Y011602D02*
X007027Y011602D01*
X007027Y011554D02*
X008877Y011554D01*
X008877Y011505D02*
X007027Y011505D01*
X007027Y011457D02*
X008877Y011457D01*
X008877Y011408D02*
X007027Y011408D01*
X007027Y011360D02*
X008877Y011360D01*
X008877Y011311D02*
X007027Y011311D01*
X007027Y011262D02*
X008877Y011262D01*
X008877Y011214D02*
X007027Y011214D01*
X007027Y011165D02*
X008877Y011165D01*
X008877Y011117D02*
X007761Y011117D01*
X007717Y011161D02*
X007557Y011161D01*
X007444Y011048D01*
X007444Y010888D01*
X007557Y010775D01*
X007717Y010775D01*
X007830Y010888D01*
X007830Y011048D01*
X007717Y011161D01*
X007810Y011068D02*
X008877Y011068D01*
X008877Y011020D02*
X007830Y011020D01*
X007830Y010971D02*
X008877Y010971D01*
X008877Y010923D02*
X007830Y010923D01*
X007815Y010874D02*
X008877Y010874D01*
X008877Y010826D02*
X007767Y010826D01*
X007718Y010777D02*
X008877Y010777D01*
X008877Y010728D02*
X007027Y010728D01*
X007027Y010680D02*
X008877Y010680D01*
X008877Y010631D02*
X008487Y010631D01*
X008457Y010661D02*
X008297Y010661D01*
X008184Y010548D01*
X008184Y010388D01*
X008297Y010275D01*
X008457Y010275D01*
X008570Y010388D01*
X008570Y010548D01*
X008457Y010661D01*
X008535Y010583D02*
X008877Y010583D01*
X008877Y010534D02*
X008570Y010534D01*
X008570Y010486D02*
X008877Y010486D01*
X008877Y010437D02*
X008570Y010437D01*
X008570Y010389D02*
X008877Y010389D01*
X008877Y010340D02*
X008521Y010340D01*
X008473Y010292D02*
X008877Y010292D01*
X008910Y010243D02*
X007790Y010243D01*
X007790Y010194D02*
X008973Y010194D01*
X009036Y010146D02*
X007757Y010146D01*
X007790Y010178D02*
X007677Y010065D01*
X007517Y010065D01*
X007404Y010178D01*
X007404Y010338D01*
X007517Y010451D01*
X007677Y010451D01*
X007790Y010338D01*
X007790Y010178D01*
X007790Y010292D02*
X008281Y010292D01*
X008232Y010340D02*
X007788Y010340D01*
X007739Y010389D02*
X008184Y010389D01*
X008184Y010437D02*
X007691Y010437D01*
X007503Y010437D02*
X007027Y010437D01*
X007027Y010389D02*
X007454Y010389D01*
X007406Y010340D02*
X007027Y010340D01*
X007027Y010292D02*
X007404Y010292D01*
X007404Y010243D02*
X007027Y010243D01*
X007027Y010194D02*
X007404Y010194D01*
X007436Y010146D02*
X007027Y010146D01*
X007027Y010097D02*
X007485Y010097D01*
X007709Y010097D02*
X009099Y010097D01*
X009162Y010049D02*
X007027Y010049D01*
X007027Y010000D02*
X009225Y010000D01*
X009288Y009952D02*
X007027Y009952D01*
X007027Y009903D02*
X008479Y009903D01*
X008517Y009941D02*
X008404Y009828D01*
X008404Y009668D01*
X008517Y009555D01*
X008677Y009555D01*
X008790Y009668D01*
X008790Y009828D01*
X008677Y009941D01*
X008517Y009941D01*
X008430Y009855D02*
X007027Y009855D01*
X007027Y009806D02*
X008404Y009806D01*
X008404Y009758D02*
X007027Y009758D01*
X007027Y009709D02*
X008404Y009709D01*
X008412Y009661D02*
X007027Y009661D01*
X007027Y009612D02*
X008460Y009612D01*
X008509Y009563D02*
X007027Y009563D01*
X007027Y009515D02*
X009856Y009515D01*
X009919Y009466D02*
X007027Y009466D01*
X007027Y009418D02*
X009982Y009418D01*
X010045Y009369D02*
X007859Y009369D01*
X007857Y009371D02*
X007697Y009371D01*
X007584Y009258D01*
X007584Y009098D01*
X007697Y008985D01*
X007857Y008985D01*
X007970Y009098D01*
X007970Y009258D01*
X007857Y009371D01*
X007907Y009321D02*
X010108Y009321D01*
X010171Y009272D02*
X007956Y009272D01*
X007970Y009224D02*
X010234Y009224D01*
X010297Y009175D02*
X007970Y009175D01*
X007970Y009127D02*
X010360Y009127D01*
X010423Y009078D02*
X007949Y009078D01*
X007901Y009029D02*
X010486Y009029D01*
X010549Y008981D02*
X007027Y008981D01*
X007027Y009029D02*
X007653Y009029D01*
X007604Y009078D02*
X007027Y009078D01*
X007027Y009127D02*
X007584Y009127D01*
X007584Y009175D02*
X007027Y009175D01*
X007027Y009224D02*
X007584Y009224D01*
X007598Y009272D02*
X007027Y009272D01*
X007027Y009321D02*
X007646Y009321D01*
X007695Y009369D02*
X007027Y009369D01*
X007027Y008932D02*
X010612Y008932D01*
X010675Y008884D02*
X007724Y008884D01*
X007697Y008911D02*
X007810Y008798D01*
X007810Y008638D01*
X007697Y008525D01*
X007537Y008525D01*
X007424Y008638D01*
X007424Y008798D01*
X007537Y008911D01*
X007697Y008911D01*
X007773Y008835D02*
X010738Y008835D01*
X010802Y008787D02*
X007810Y008787D01*
X007810Y008738D02*
X010865Y008738D01*
X010928Y008690D02*
X007810Y008690D01*
X007810Y008641D02*
X010991Y008641D01*
X011054Y008593D02*
X007764Y008593D01*
X007715Y008544D02*
X011117Y008544D01*
X011180Y008495D02*
X007313Y008495D01*
X007375Y008447D02*
X011243Y008447D01*
X011306Y008398D02*
X007437Y008398D01*
X007500Y008350D02*
X011369Y008350D01*
X011432Y008301D02*
X007562Y008301D01*
X007624Y008253D02*
X011495Y008253D01*
X011558Y008204D02*
X007686Y008204D01*
X007749Y008156D02*
X011621Y008156D01*
X011684Y008107D02*
X007811Y008107D01*
X007873Y008059D02*
X011747Y008059D01*
X011811Y008010D02*
X007936Y008010D01*
X007998Y007961D02*
X011874Y007961D01*
X011937Y007913D02*
X008060Y007913D01*
X008122Y007864D02*
X012000Y007864D01*
X012063Y007816D02*
X008185Y007816D01*
X008247Y007767D02*
X012126Y007767D01*
X012189Y007719D02*
X008309Y007719D01*
X008372Y007670D02*
X012252Y007670D01*
X012315Y007622D02*
X008434Y007622D01*
X008496Y007573D02*
X012378Y007573D01*
X012441Y007525D02*
X008558Y007525D01*
X008621Y007476D02*
X012504Y007476D01*
X012567Y007428D02*
X008683Y007428D01*
X008745Y007379D02*
X012630Y007379D01*
X012693Y007330D02*
X008808Y007330D01*
X008870Y007282D02*
X012756Y007282D01*
X012819Y007233D02*
X008932Y007233D01*
X008994Y007185D02*
X012883Y007185D01*
X012946Y007136D02*
X009057Y007136D01*
X009119Y007088D02*
X013009Y007088D01*
X013072Y007039D02*
X009181Y007039D01*
X009244Y006991D02*
X013135Y006991D01*
X013198Y006942D02*
X009306Y006942D01*
X009368Y006894D02*
X013261Y006894D01*
X013324Y006845D02*
X009430Y006845D01*
X009493Y006796D02*
X013387Y006796D01*
X013450Y006748D02*
X009555Y006748D01*
X009617Y006699D02*
X013513Y006699D01*
X013576Y006651D02*
X009680Y006651D01*
X009742Y006602D02*
X013639Y006602D01*
X013702Y006554D02*
X009804Y006554D01*
X009866Y006505D02*
X013765Y006505D01*
X013828Y006457D02*
X009929Y006457D01*
X009991Y006408D02*
X013892Y006408D01*
X013955Y006360D02*
X010053Y006360D01*
X010115Y006311D02*
X014018Y006311D01*
X014081Y006262D02*
X010178Y006262D01*
X010240Y006214D02*
X014144Y006214D01*
X014207Y006165D02*
X010302Y006165D01*
X010365Y006117D02*
X014270Y006117D01*
X014333Y006068D02*
X010427Y006068D01*
X010489Y006020D02*
X014396Y006020D01*
X014459Y005971D02*
X010551Y005971D01*
X010614Y005923D02*
X014522Y005923D01*
X014585Y005874D02*
X010676Y005874D01*
X010738Y005826D02*
X014648Y005826D01*
X014711Y005777D02*
X010801Y005777D01*
X010863Y005729D02*
X014774Y005729D01*
X014837Y005680D02*
X010925Y005680D01*
X010987Y005631D02*
X014901Y005631D01*
X014964Y005583D02*
X011050Y005583D01*
X011112Y005534D02*
X015027Y005534D01*
X015090Y005486D02*
X011174Y005486D01*
X011237Y005437D02*
X015153Y005437D01*
X015216Y005389D02*
X011299Y005389D01*
X011361Y005340D02*
X015279Y005340D01*
X015342Y005292D02*
X011423Y005292D01*
X011486Y005243D02*
X015405Y005243D01*
X015468Y005195D02*
X011548Y005195D01*
X011610Y005146D02*
X011782Y005146D01*
X011733Y005097D02*
X011673Y005097D01*
X011972Y005146D02*
X015531Y005146D01*
X015594Y005097D02*
X012021Y005097D01*
X012069Y005049D02*
X015657Y005049D01*
X015720Y005000D02*
X012070Y005000D01*
X012070Y004952D02*
X015783Y004952D01*
X013790Y003447D02*
X021215Y003447D01*
X021204Y003496D02*
X013728Y003496D01*
X013666Y003544D02*
X021204Y003544D01*
X021204Y003593D02*
X013603Y003593D01*
X013541Y003641D02*
X021227Y003641D01*
X021275Y003690D02*
X013479Y003690D01*
X013416Y003738D02*
X023855Y003738D01*
X023922Y003690D02*
X021518Y003690D01*
X021567Y003641D02*
X023989Y003641D01*
X024055Y003593D02*
X021590Y003593D01*
X021590Y003544D02*
X024122Y003544D01*
X024189Y003496D02*
X021590Y003496D01*
X021578Y003447D02*
X024227Y003447D01*
X024227Y003398D02*
X022113Y003398D01*
X022200Y003350D02*
X023136Y003350D01*
X023167Y003381D02*
X023054Y003268D01*
X023054Y003108D01*
X023167Y002995D01*
X023327Y002995D01*
X023440Y003108D01*
X023440Y003268D01*
X023327Y003381D01*
X023167Y003381D01*
X023087Y003301D02*
X022287Y003301D01*
X022375Y003253D02*
X023054Y003253D01*
X023054Y003204D02*
X022462Y003204D01*
X022550Y003156D02*
X023054Y003156D01*
X023055Y003107D02*
X022637Y003107D01*
X022724Y003059D02*
X023104Y003059D01*
X023152Y003010D02*
X022812Y003010D01*
X022899Y002962D02*
X024227Y002962D01*
X024227Y003010D02*
X023341Y003010D01*
X023390Y003059D02*
X024227Y003059D01*
X024227Y003107D02*
X023439Y003107D01*
X023440Y003156D02*
X024227Y003156D01*
X024227Y003204D02*
X023440Y003204D01*
X023440Y003253D02*
X024227Y003253D01*
X024227Y003301D02*
X023407Y003301D01*
X023358Y003350D02*
X024227Y003350D01*
X024227Y002913D02*
X022986Y002913D01*
X023074Y002864D02*
X024227Y002864D01*
X024227Y002816D02*
X023161Y002816D01*
X023249Y002767D02*
X024227Y002767D01*
X024227Y002719D02*
X023336Y002719D01*
X023423Y002670D02*
X024227Y002670D01*
X024227Y002622D02*
X023427Y002622D01*
X023427Y002573D02*
X024227Y002573D01*
X024227Y002525D02*
X023427Y002525D01*
X023427Y002476D02*
X024227Y002476D01*
X024227Y002428D02*
X024009Y002428D01*
X024100Y002379D02*
X024227Y002379D01*
X024227Y002330D02*
X024156Y002330D01*
X024194Y002282D02*
X024227Y002282D01*
X024222Y002233D02*
X024227Y002233D01*
X023902Y002233D02*
X023852Y002233D01*
X023852Y002185D02*
X023902Y002185D01*
X023902Y002136D02*
X023852Y002136D01*
X023852Y002088D02*
X023427Y002088D01*
X023427Y002136D02*
X023500Y002136D01*
X023511Y002185D02*
X023427Y002185D01*
X023427Y002233D02*
X023531Y002233D01*
X023560Y002282D02*
X023427Y002282D01*
X023427Y002330D02*
X023598Y002330D01*
X023653Y002379D02*
X023427Y002379D01*
X023427Y002428D02*
X023745Y002428D01*
X023852Y002428D02*
X023902Y002428D01*
X023902Y002379D02*
X023852Y002379D01*
X023852Y002330D02*
X023902Y002330D01*
X023902Y002282D02*
X023852Y002282D01*
X023852Y002043D02*
X023494Y002043D01*
X023494Y002031D01*
X023509Y001957D01*
X023538Y001887D01*
X023580Y001825D01*
X023633Y001771D01*
X023696Y001729D01*
X023765Y001701D01*
X023839Y001686D01*
X023852Y001686D01*
X023852Y002043D01*
X023852Y002039D02*
X023902Y002039D01*
X023902Y001991D02*
X023852Y001991D01*
X023852Y001942D02*
X023902Y001942D01*
X023902Y001894D02*
X023852Y001894D01*
X023852Y001845D02*
X023902Y001845D01*
X023902Y001796D02*
X023852Y001796D01*
X023852Y001748D02*
X023902Y001748D01*
X023902Y001699D02*
X023852Y001699D01*
X023771Y001699D02*
X023596Y001699D01*
X023644Y001651D02*
X024093Y001651D01*
X024132Y001699D02*
X023983Y001699D01*
X024086Y001748D02*
X024171Y001748D01*
X024146Y001796D02*
X024209Y001796D01*
X024227Y001845D02*
X024188Y001845D01*
X024218Y001894D02*
X024227Y001894D01*
X024054Y001602D02*
X023693Y001602D01*
X023668Y001748D02*
X023547Y001748D01*
X023499Y001796D02*
X023608Y001796D01*
X023566Y001845D02*
X023450Y001845D01*
X023427Y001894D02*
X023535Y001894D01*
X023515Y001942D02*
X023427Y001942D01*
X023427Y001991D02*
X023502Y001991D01*
X023494Y002039D02*
X023427Y002039D01*
X023788Y003787D02*
X013354Y003787D01*
X013292Y003835D02*
X023721Y003835D01*
X023654Y003884D02*
X013230Y003884D01*
X013167Y003932D02*
X023587Y003932D01*
X023520Y003981D02*
X013105Y003981D01*
X013043Y004029D02*
X023453Y004029D01*
X023386Y004078D02*
X012980Y004078D01*
X012918Y004127D02*
X023319Y004127D01*
X023252Y004175D02*
X012856Y004175D01*
X012794Y004224D02*
X023185Y004224D01*
X023118Y004272D02*
X012731Y004272D01*
X012669Y004321D02*
X023051Y004321D01*
X022984Y004369D02*
X012607Y004369D01*
X012544Y004418D02*
X022917Y004418D01*
X022850Y004466D02*
X021938Y004466D01*
X021917Y004445D02*
X022030Y004558D01*
X022030Y004718D01*
X021917Y004831D01*
X021757Y004831D01*
X021644Y004718D01*
X021644Y004558D01*
X021757Y004445D01*
X021917Y004445D01*
X021986Y004515D02*
X022783Y004515D01*
X022716Y004563D02*
X022030Y004563D01*
X022030Y004612D02*
X022649Y004612D01*
X022582Y004661D02*
X022030Y004661D01*
X022030Y004709D02*
X022515Y004709D01*
X022449Y004758D02*
X021990Y004758D01*
X021942Y004806D02*
X022382Y004806D01*
X022315Y004855D02*
X021100Y004855D01*
X021100Y004806D02*
X021732Y004806D01*
X021683Y004758D02*
X021100Y004758D01*
X021080Y004709D02*
X021644Y004709D01*
X021644Y004661D02*
X021032Y004661D01*
X021085Y004903D02*
X022248Y004903D01*
X021736Y004466D02*
X012482Y004466D01*
X012420Y004515D02*
X021687Y004515D01*
X021644Y004563D02*
X012358Y004563D01*
X012295Y004612D02*
X021644Y004612D01*
X020782Y004661D02*
X012233Y004661D01*
X012171Y004709D02*
X020733Y004709D01*
X020714Y004758D02*
X012108Y004758D01*
X012046Y004806D02*
X020714Y004806D01*
X020714Y004855D02*
X012036Y004855D01*
X012070Y004903D02*
X020729Y004903D01*
X018077Y007068D02*
X018077Y010963D01*
X017342Y011698D01*
X017342Y013168D01*
X017037Y013473D01*
X017037Y014298D01*
X016877Y014458D01*
X016877Y016128D01*
X016637Y016368D01*
X016637Y016668D01*
X016387Y016918D01*
X016687Y016778D02*
X016747Y016718D01*
X016747Y016478D01*
X017107Y016098D01*
X016687Y016778D02*
X016687Y017568D01*
X016521Y017864D02*
X016240Y017864D01*
X016240Y017816D02*
X016448Y017816D01*
X016377Y017768D02*
X016230Y017768D01*
X016240Y017778D01*
X016240Y017938D01*
X016127Y018051D01*
X015967Y018051D01*
X015897Y017981D01*
X015827Y018051D01*
X015667Y018051D01*
X015554Y017938D01*
X015554Y017778D01*
X015619Y017713D01*
X015544Y017638D01*
X015544Y017635D01*
X015477Y017568D01*
X015506Y017441D01*
X015347Y017441D01*
X015267Y017361D01*
X015207Y017421D01*
X015047Y017421D01*
X014934Y017308D01*
X014934Y017148D01*
X015047Y017035D01*
X015207Y017035D01*
X015287Y017115D01*
X015314Y017088D01*
X015234Y017008D01*
X015234Y016848D01*
X015347Y016735D01*
X015507Y016735D01*
X015620Y016848D01*
X015620Y016949D01*
X015707Y016571D01*
X015569Y016436D01*
X015512Y016436D01*
X015399Y016323D01*
X015399Y016163D01*
X015512Y016050D01*
X015672Y016050D01*
X015785Y016163D01*
X015785Y016216D01*
X015788Y016220D01*
X016077Y014968D01*
X016772Y013831D01*
X016707Y013831D01*
X016594Y013718D01*
X016594Y013558D01*
X016707Y013445D01*
X016867Y013445D01*
X016938Y013516D01*
X016938Y013432D01*
X016996Y013374D01*
X017138Y013232D01*
X017177Y013168D01*
X017177Y011168D01*
X016900Y010891D01*
X016747Y010891D01*
X016634Y010778D01*
X016634Y010625D01*
X014777Y008768D01*
X013977Y008768D01*
X013977Y014468D01*
X013877Y015068D01*
X013477Y015568D01*
X013230Y015914D01*
X013230Y015918D01*
X013220Y015928D01*
X012977Y016268D01*
X012918Y016376D01*
X012930Y016388D01*
X012930Y016548D01*
X012817Y016661D01*
X012763Y016661D01*
X012377Y017368D01*
X012277Y017768D01*
X012251Y017794D01*
X013255Y017794D01*
X013300Y017793D01*
X013302Y017794D01*
X013304Y017794D01*
X013336Y017826D01*
X013349Y017838D01*
X013349Y017788D01*
X013462Y017675D01*
X013622Y017675D01*
X013732Y017786D01*
X013732Y017696D01*
X013654Y017618D01*
X013654Y017458D01*
X013767Y017345D01*
X013927Y017345D01*
X014040Y017458D01*
X014040Y017618D01*
X013961Y017698D01*
X013960Y017852D01*
X013964Y017894D01*
X013960Y017898D01*
X013960Y017905D01*
X013930Y017934D01*
X013752Y018151D01*
X013752Y018157D01*
X013722Y018187D01*
X013696Y018219D01*
X013689Y018219D01*
X013684Y018224D01*
X013643Y018224D01*
X013602Y018228D01*
X013596Y018223D01*
X013473Y018223D01*
X013430Y018224D01*
X013430Y018258D01*
X013345Y018343D01*
X013382Y018380D01*
X013467Y018295D01*
X013627Y018295D01*
X013707Y018375D01*
X013777Y018305D01*
X013937Y018305D01*
X014012Y018380D01*
X014087Y018305D01*
X014247Y018305D01*
X014317Y018375D01*
X014397Y018295D01*
X014540Y018295D01*
X014477Y018168D01*
X014577Y018068D01*
X015001Y018015D01*
X014934Y017948D01*
X014934Y017788D01*
X015047Y017675D01*
X015207Y017675D01*
X015320Y017788D01*
X015320Y017948D01*
X015289Y017979D01*
X015377Y017968D01*
X015477Y018468D01*
X015564Y018468D01*
X015564Y018408D01*
X015677Y018295D01*
X015758Y018295D01*
X015787Y018268D01*
X016487Y018268D01*
X016677Y017968D01*
X016377Y017768D01*
X016240Y017913D02*
X016594Y017913D01*
X016666Y017961D02*
X016217Y017961D01*
X016168Y018010D02*
X016650Y018010D01*
X016620Y018059D02*
X015395Y018059D01*
X015405Y018107D02*
X016589Y018107D01*
X016558Y018156D02*
X015414Y018156D01*
X015424Y018204D02*
X016527Y018204D01*
X016497Y018253D02*
X015434Y018253D01*
X015443Y018301D02*
X015671Y018301D01*
X015623Y018350D02*
X015453Y018350D01*
X015463Y018398D02*
X015574Y018398D01*
X015564Y018447D02*
X015473Y018447D01*
X015361Y018592D02*
X014956Y018592D01*
X014990Y018558D02*
X014905Y018643D01*
X014980Y018718D01*
X014980Y018878D01*
X014867Y018991D01*
X014707Y018991D01*
X014632Y018916D01*
X014557Y018991D01*
X014397Y018991D01*
X014284Y018878D01*
X014284Y018718D01*
X014359Y018643D01*
X014327Y018611D01*
X014247Y018691D01*
X014087Y018691D01*
X014012Y018616D01*
X013937Y018691D01*
X013777Y018691D01*
X013697Y018611D01*
X013627Y018681D01*
X013467Y018681D01*
X013392Y018606D01*
X013307Y018691D01*
X013147Y018691D01*
X013034Y018578D01*
X013034Y018418D01*
X013119Y018333D01*
X013078Y018293D01*
X011566Y018293D01*
X011377Y018368D01*
X010277Y018368D01*
X010177Y018468D01*
X010177Y019368D01*
X010477Y019668D01*
X011777Y019668D01*
X012677Y021368D01*
X013354Y021368D01*
X013354Y021238D01*
X013434Y021158D01*
X013354Y021078D01*
X013354Y020918D01*
X013424Y020848D01*
X013387Y020811D01*
X013307Y020891D01*
X013147Y020891D01*
X013034Y020778D01*
X013034Y020618D01*
X013147Y020505D01*
X013307Y020505D01*
X013377Y020575D01*
X013457Y020495D01*
X013617Y020495D01*
X013730Y020608D01*
X013730Y020768D01*
X013660Y020838D01*
X013740Y020918D01*
X013740Y021078D01*
X013660Y021158D01*
X013740Y021238D01*
X013740Y021305D01*
X014077Y020968D01*
X014294Y020968D01*
X014294Y020918D01*
X014407Y020805D01*
X014567Y020805D01*
X014680Y020918D01*
X014680Y020968D01*
X014924Y020968D01*
X014924Y020918D01*
X015037Y020805D01*
X015197Y020805D01*
X015310Y020918D01*
X015310Y020968D01*
X015864Y020968D01*
X015864Y020928D01*
X015977Y020815D01*
X016137Y020815D01*
X016250Y020928D01*
X016250Y020968D01*
X016377Y020968D01*
X016530Y020815D01*
X016494Y020778D01*
X016494Y020618D01*
X016607Y020505D01*
X016677Y020505D01*
X016677Y018968D01*
X014990Y018486D01*
X014990Y018558D01*
X014990Y018544D02*
X015191Y018544D01*
X015022Y018495D02*
X014990Y018495D01*
X014907Y018641D02*
X015531Y018641D01*
X015701Y018690D02*
X014951Y018690D01*
X014980Y018738D02*
X015871Y018738D01*
X016041Y018787D02*
X014980Y018787D01*
X014980Y018835D02*
X016211Y018835D01*
X016297Y018925D02*
X016457Y018925D01*
X016570Y019038D01*
X016570Y019198D01*
X016457Y019311D01*
X016297Y019311D01*
X016184Y019198D01*
X016184Y019038D01*
X016297Y018925D01*
X016290Y018932D02*
X015834Y018932D01*
X015817Y018915D02*
X015930Y019028D01*
X015930Y019188D01*
X015817Y019301D01*
X015657Y019301D01*
X015544Y019188D01*
X015544Y019028D01*
X015657Y018915D01*
X015817Y018915D01*
X015882Y018981D02*
X016241Y018981D01*
X016193Y019029D02*
X015930Y019029D01*
X015930Y019078D02*
X016184Y019078D01*
X016184Y019126D02*
X015930Y019126D01*
X015930Y019175D02*
X016184Y019175D01*
X016209Y019224D02*
X015894Y019224D01*
X015846Y019272D02*
X015960Y019272D01*
X015987Y019245D02*
X016147Y019245D01*
X016260Y019358D01*
X016260Y019518D01*
X016147Y019631D01*
X015987Y019631D01*
X015874Y019518D01*
X015874Y019358D01*
X015987Y019245D01*
X015912Y019321D02*
X015282Y019321D01*
X015310Y019348D02*
X015310Y019508D01*
X015235Y019583D01*
X015320Y019668D01*
X015320Y019828D01*
X015230Y019918D01*
X015310Y019998D01*
X015310Y020158D01*
X015235Y020233D01*
X015310Y020308D01*
X015310Y020468D01*
X015197Y020581D01*
X015037Y020581D01*
X014924Y020468D01*
X014924Y020308D01*
X014999Y020233D01*
X014924Y020158D01*
X014924Y019998D01*
X015014Y019908D01*
X014934Y019828D01*
X014934Y019668D01*
X015009Y019593D01*
X014924Y019508D01*
X014924Y019348D01*
X015004Y019268D01*
X014934Y019198D01*
X014934Y019038D01*
X015047Y018925D01*
X015207Y018925D01*
X015320Y019038D01*
X015320Y019198D01*
X015240Y019278D01*
X015310Y019348D01*
X015310Y019369D02*
X015874Y019369D01*
X015874Y019418D02*
X015310Y019418D01*
X015310Y019466D02*
X015874Y019466D01*
X015874Y019515D02*
X015303Y019515D01*
X015255Y019563D02*
X015919Y019563D01*
X015873Y019612D02*
X015968Y019612D01*
X015922Y019660D02*
X016202Y019660D01*
X016194Y019668D02*
X016307Y019555D01*
X016467Y019555D01*
X016580Y019668D01*
X016580Y019828D01*
X016467Y019941D01*
X016307Y019941D01*
X016194Y019828D01*
X016194Y019668D01*
X016194Y019709D02*
X015940Y019709D01*
X015940Y019678D02*
X015940Y019838D01*
X015860Y019918D01*
X015930Y019988D01*
X015930Y020148D01*
X015860Y020218D01*
X015940Y020298D01*
X015940Y020458D01*
X015827Y020571D01*
X015667Y020571D01*
X015554Y020458D01*
X015554Y020298D01*
X015624Y020228D01*
X015544Y020148D01*
X015544Y019988D01*
X015624Y019908D01*
X015554Y019838D01*
X015554Y019678D01*
X015667Y019565D01*
X015827Y019565D01*
X015940Y019678D01*
X015940Y019758D02*
X016194Y019758D01*
X016194Y019806D02*
X015940Y019806D01*
X015923Y019855D02*
X016220Y019855D01*
X016269Y019903D02*
X015875Y019903D01*
X015893Y019952D02*
X016677Y019952D01*
X016677Y020000D02*
X015930Y020000D01*
X015930Y020049D02*
X016677Y020049D01*
X016677Y020097D02*
X015930Y020097D01*
X015930Y020146D02*
X016677Y020146D01*
X016677Y020194D02*
X016466Y020194D01*
X016457Y020185D02*
X016570Y020298D01*
X016570Y020458D01*
X016457Y020571D01*
X016297Y020571D01*
X016184Y020458D01*
X016184Y020298D01*
X016297Y020185D01*
X016457Y020185D01*
X016514Y020243D02*
X016677Y020243D01*
X016677Y020291D02*
X016563Y020291D01*
X016570Y020340D02*
X016677Y020340D01*
X016677Y020389D02*
X016570Y020389D01*
X016570Y020437D02*
X016677Y020437D01*
X016677Y020486D02*
X016542Y020486D01*
X016578Y020534D02*
X016494Y020534D01*
X016530Y020583D02*
X013704Y020583D01*
X013730Y020631D02*
X016494Y020631D01*
X016494Y020680D02*
X013730Y020680D01*
X013730Y020728D02*
X016494Y020728D01*
X016494Y020777D02*
X013721Y020777D01*
X013673Y020825D02*
X014387Y020825D01*
X014338Y020874D02*
X013695Y020874D01*
X013740Y020923D02*
X014294Y020923D01*
X014074Y020971D02*
X013740Y020971D01*
X013740Y021020D02*
X014026Y021020D01*
X013977Y021068D02*
X013740Y021068D01*
X013701Y021117D02*
X013928Y021117D01*
X013880Y021165D02*
X013667Y021165D01*
X013715Y021214D02*
X013831Y021214D01*
X013783Y021262D02*
X013740Y021262D01*
X013427Y021165D02*
X012569Y021165D01*
X012544Y021117D02*
X013392Y021117D01*
X013354Y021068D02*
X012518Y021068D01*
X012492Y021020D02*
X013354Y021020D01*
X013354Y020971D02*
X012467Y020971D01*
X012441Y020923D02*
X013354Y020923D01*
X013324Y020874D02*
X013398Y020874D01*
X013401Y020825D02*
X013373Y020825D01*
X013130Y020874D02*
X012415Y020874D01*
X012389Y020825D02*
X013081Y020825D01*
X013034Y020777D02*
X012364Y020777D01*
X012338Y020728D02*
X013034Y020728D01*
X013034Y020680D02*
X012312Y020680D01*
X012287Y020631D02*
X013034Y020631D01*
X013070Y020583D02*
X012261Y020583D01*
X012235Y020534D02*
X013118Y020534D01*
X013336Y020534D02*
X013418Y020534D01*
X013656Y020534D02*
X013730Y020534D01*
X013767Y020571D02*
X013654Y020458D01*
X013654Y020298D01*
X013767Y020185D01*
X013927Y020185D01*
X014040Y020298D01*
X014040Y020458D01*
X013927Y020571D01*
X013767Y020571D01*
X013681Y020486D02*
X012210Y020486D01*
X012184Y020437D02*
X013654Y020437D01*
X013654Y020389D02*
X012158Y020389D01*
X012132Y020340D02*
X013654Y020340D01*
X013661Y020291D02*
X012107Y020291D01*
X012081Y020243D02*
X013709Y020243D01*
X013758Y020194D02*
X012055Y020194D01*
X012030Y020146D02*
X014311Y020146D01*
X014294Y020128D02*
X014294Y019968D01*
X014407Y019855D01*
X014567Y019855D01*
X014680Y019968D01*
X014680Y020128D01*
X014590Y020218D01*
X014670Y020298D01*
X014670Y020458D01*
X014557Y020571D01*
X014397Y020571D01*
X014284Y020458D01*
X014284Y020298D01*
X014374Y020208D01*
X014294Y020128D01*
X014294Y020097D02*
X012004Y020097D01*
X011978Y020049D02*
X014294Y020049D01*
X014294Y020000D02*
X011953Y020000D01*
X011927Y019952D02*
X014311Y019952D01*
X014359Y019903D02*
X013975Y019903D01*
X013937Y019941D02*
X014050Y019828D01*
X014050Y019668D01*
X013937Y019555D01*
X013777Y019555D01*
X013664Y019668D01*
X013664Y019828D01*
X013777Y019941D01*
X013937Y019941D01*
X014023Y019855D02*
X014960Y019855D01*
X014934Y019806D02*
X014050Y019806D01*
X014050Y019758D02*
X014934Y019758D01*
X014934Y019709D02*
X014050Y019709D01*
X014042Y019660D02*
X014942Y019660D01*
X014990Y019612D02*
X014586Y019612D01*
X014567Y019631D02*
X014407Y019631D01*
X014294Y019518D01*
X014294Y019358D01*
X014407Y019245D01*
X014567Y019245D01*
X014680Y019358D01*
X014680Y019518D01*
X014567Y019631D01*
X014635Y019563D02*
X014979Y019563D01*
X014930Y019515D02*
X014680Y019515D01*
X014680Y019466D02*
X014924Y019466D01*
X014924Y019418D02*
X014680Y019418D01*
X014680Y019369D02*
X014924Y019369D01*
X014952Y019321D02*
X014642Y019321D01*
X014593Y019272D02*
X015000Y019272D01*
X014959Y019224D02*
X014024Y019224D01*
X014050Y019198D02*
X013937Y019311D01*
X013777Y019311D01*
X013692Y019226D01*
X013607Y019311D01*
X013447Y019311D01*
X013334Y019198D01*
X013334Y019038D01*
X013447Y018925D01*
X013607Y018925D01*
X013692Y019010D01*
X013777Y018925D01*
X013937Y018925D01*
X014050Y019038D01*
X014050Y019198D01*
X014050Y019175D02*
X014934Y019175D01*
X014934Y019126D02*
X014050Y019126D01*
X014050Y019078D02*
X014934Y019078D01*
X014943Y019029D02*
X014041Y019029D01*
X013992Y018981D02*
X014386Y018981D01*
X014338Y018932D02*
X013944Y018932D01*
X013770Y018932D02*
X013614Y018932D01*
X013662Y018981D02*
X013721Y018981D01*
X013440Y018932D02*
X013066Y018932D01*
X013110Y018888D02*
X012997Y019001D01*
X012837Y019001D01*
X012724Y018888D01*
X012724Y018728D01*
X012837Y018615D01*
X012997Y018615D01*
X013110Y018728D01*
X013110Y018888D01*
X013110Y018884D02*
X014289Y018884D01*
X014284Y018835D02*
X013110Y018835D01*
X013110Y018787D02*
X014284Y018787D01*
X014284Y018738D02*
X013110Y018738D01*
X013145Y018690D02*
X013071Y018690D01*
X013097Y018641D02*
X013022Y018641D01*
X013048Y018592D02*
X010177Y018592D01*
X010177Y018544D02*
X013034Y018544D01*
X013034Y018495D02*
X010177Y018495D01*
X010198Y018447D02*
X013034Y018447D01*
X013054Y018398D02*
X010247Y018398D01*
X010177Y018641D02*
X012811Y018641D01*
X012763Y018690D02*
X010177Y018690D01*
X010177Y018738D02*
X012724Y018738D01*
X012724Y018787D02*
X010177Y018787D01*
X010177Y018835D02*
X012724Y018835D01*
X012724Y018884D02*
X010177Y018884D01*
X010177Y018932D02*
X012768Y018932D01*
X012816Y018981D02*
X010177Y018981D01*
X010177Y019029D02*
X013343Y019029D01*
X013334Y019078D02*
X010177Y019078D01*
X010177Y019126D02*
X013334Y019126D01*
X013334Y019175D02*
X010177Y019175D01*
X010177Y019224D02*
X013359Y019224D01*
X013408Y019272D02*
X010177Y019272D01*
X010177Y019321D02*
X014332Y019321D01*
X014294Y019369D02*
X010178Y019369D01*
X010226Y019418D02*
X014294Y019418D01*
X014294Y019466D02*
X010275Y019466D01*
X010323Y019515D02*
X014294Y019515D01*
X014339Y019563D02*
X013945Y019563D01*
X013993Y019612D02*
X014388Y019612D01*
X014380Y019272D02*
X013976Y019272D01*
X013738Y019272D02*
X013646Y019272D01*
X013769Y019563D02*
X010372Y019563D01*
X010420Y019612D02*
X013720Y019612D01*
X013672Y019660D02*
X010469Y019660D01*
X011798Y019709D02*
X013664Y019709D01*
X013664Y019758D02*
X011824Y019758D01*
X011850Y019806D02*
X013664Y019806D01*
X013690Y019855D02*
X011875Y019855D01*
X011901Y019903D02*
X013739Y019903D01*
X013936Y020194D02*
X014360Y020194D01*
X014339Y020243D02*
X013984Y020243D01*
X014033Y020291D02*
X014291Y020291D01*
X014284Y020340D02*
X014040Y020340D01*
X014040Y020389D02*
X014284Y020389D01*
X014284Y020437D02*
X014040Y020437D01*
X014012Y020486D02*
X014311Y020486D01*
X014360Y020534D02*
X013964Y020534D01*
X014594Y020534D02*
X014990Y020534D01*
X014941Y020486D02*
X014642Y020486D01*
X014670Y020437D02*
X014924Y020437D01*
X014924Y020389D02*
X014670Y020389D01*
X014670Y020340D02*
X014924Y020340D01*
X014941Y020291D02*
X014663Y020291D01*
X014614Y020243D02*
X014989Y020243D01*
X014960Y020194D02*
X014614Y020194D01*
X014662Y020146D02*
X014924Y020146D01*
X014924Y020097D02*
X014680Y020097D01*
X014680Y020049D02*
X014924Y020049D01*
X014924Y020000D02*
X014680Y020000D01*
X014663Y019952D02*
X014971Y019952D01*
X015009Y019903D02*
X014615Y019903D01*
X015245Y019903D02*
X015619Y019903D01*
X015581Y019952D02*
X015263Y019952D01*
X015310Y020000D02*
X015544Y020000D01*
X015544Y020049D02*
X015310Y020049D01*
X015310Y020097D02*
X015544Y020097D01*
X015544Y020146D02*
X015310Y020146D01*
X015274Y020194D02*
X015590Y020194D01*
X015609Y020243D02*
X015244Y020243D01*
X015293Y020291D02*
X015561Y020291D01*
X015554Y020340D02*
X015310Y020340D01*
X015310Y020389D02*
X015554Y020389D01*
X015554Y020437D02*
X015310Y020437D01*
X015292Y020486D02*
X015581Y020486D01*
X015630Y020534D02*
X015244Y020534D01*
X015217Y020825D02*
X015967Y020825D01*
X015918Y020874D02*
X015265Y020874D01*
X015310Y020923D02*
X015870Y020923D01*
X016147Y020825D02*
X016520Y020825D01*
X016471Y020874D02*
X016195Y020874D01*
X016244Y020923D02*
X016423Y020923D01*
X016377Y021328D02*
X016377Y022418D01*
X016197Y022598D01*
X016197Y022798D01*
X016097Y022898D01*
X016097Y024738D01*
X016307Y024948D01*
X016307Y026988D01*
X016707Y027388D01*
X016707Y028138D01*
X016802Y028263D01*
X016797Y031653D01*
X016367Y032068D01*
X015427Y032068D01*
X015047Y032448D01*
X014497Y032448D01*
X013877Y033068D01*
X013447Y032688D02*
X013447Y033628D01*
X013877Y034058D01*
X013877Y034068D01*
X014377Y034568D02*
X014877Y034068D01*
X014377Y034568D02*
X012647Y034568D01*
X012207Y034128D01*
X012207Y032748D01*
X012967Y031988D01*
X012967Y028448D01*
X013427Y027988D01*
X013427Y027588D01*
X014047Y026968D01*
X014047Y025508D01*
X014767Y024788D01*
X014767Y023288D01*
X015117Y022938D01*
X015117Y021648D01*
X014987Y021505D02*
X014616Y021505D01*
X014600Y021488D02*
X014680Y021568D01*
X014680Y021728D01*
X014610Y021798D01*
X014680Y021868D01*
X014680Y022028D01*
X014602Y022106D01*
X014690Y022193D01*
X014690Y022353D01*
X014577Y022466D01*
X014417Y022466D01*
X014304Y022353D01*
X014304Y022193D01*
X014381Y022116D01*
X014332Y022066D01*
X014247Y022151D01*
X014087Y022151D01*
X013974Y022038D01*
X013974Y021878D01*
X014087Y021765D01*
X014247Y021765D01*
X014322Y021840D01*
X014364Y021798D01*
X014294Y021728D01*
X014294Y021568D01*
X014364Y021498D01*
X014284Y021418D01*
X014284Y021258D01*
X014374Y021168D01*
X014277Y021168D01*
X011327Y024418D01*
X011327Y025368D01*
X012977Y025368D01*
X013777Y023968D01*
X015018Y021874D01*
X015018Y021822D01*
X014924Y021728D01*
X014924Y021568D01*
X015037Y021455D01*
X015197Y021455D01*
X015240Y021499D01*
X015377Y021268D01*
X015377Y021168D01*
X015220Y021168D01*
X015197Y021191D01*
X015037Y021191D01*
X015014Y021168D01*
X014590Y021168D01*
X014585Y021173D01*
X014670Y021258D01*
X014670Y021418D01*
X014600Y021488D01*
X014631Y021457D02*
X015036Y021457D01*
X014939Y021554D02*
X014665Y021554D01*
X014680Y021602D02*
X014924Y021602D01*
X014924Y021651D02*
X014680Y021651D01*
X014680Y021699D02*
X014924Y021699D01*
X014943Y021748D02*
X014660Y021748D01*
X014612Y021796D02*
X014992Y021796D01*
X015018Y021845D02*
X014656Y021845D01*
X014680Y021893D02*
X015006Y021893D01*
X014978Y021942D02*
X014680Y021942D01*
X014680Y021991D02*
X014949Y021991D01*
X014920Y022039D02*
X014669Y022039D01*
X014620Y022088D02*
X014891Y022088D01*
X014863Y022136D02*
X014632Y022136D01*
X014681Y022185D02*
X014834Y022185D01*
X014805Y022233D02*
X014690Y022233D01*
X014690Y022282D02*
X014776Y022282D01*
X014747Y022330D02*
X014690Y022330D01*
X014664Y022379D02*
X014719Y022379D01*
X014690Y022427D02*
X014616Y022427D01*
X014661Y022476D02*
X014222Y022476D01*
X014250Y022448D02*
X014137Y022561D01*
X013977Y022561D01*
X013864Y022448D01*
X013864Y022288D01*
X013977Y022175D01*
X014137Y022175D01*
X014250Y022288D01*
X014250Y022448D01*
X014250Y022427D02*
X014378Y022427D01*
X014329Y022379D02*
X014250Y022379D01*
X014250Y022330D02*
X014304Y022330D01*
X014304Y022282D02*
X014243Y022282D01*
X014195Y022233D02*
X014304Y022233D01*
X014313Y022185D02*
X014146Y022185D01*
X014072Y022136D02*
X013398Y022136D01*
X013354Y022185D02*
X013968Y022185D01*
X013919Y022233D02*
X013310Y022233D01*
X013266Y022282D02*
X013871Y022282D01*
X013864Y022330D02*
X013222Y022330D01*
X013178Y022379D02*
X013864Y022379D01*
X013864Y022427D02*
X013134Y022427D01*
X013090Y022476D02*
X013892Y022476D01*
X013940Y022524D02*
X013046Y022524D01*
X013002Y022573D02*
X014604Y022573D01*
X014632Y022524D02*
X014174Y022524D01*
X014517Y022719D02*
X012870Y022719D01*
X012826Y022767D02*
X014489Y022767D01*
X014460Y022816D02*
X012782Y022816D01*
X012737Y022864D02*
X014431Y022864D01*
X014402Y022913D02*
X012693Y022913D01*
X012649Y022961D02*
X014374Y022961D01*
X014345Y023010D02*
X012605Y023010D01*
X012561Y023058D02*
X014316Y023058D01*
X014287Y023107D02*
X012517Y023107D01*
X012473Y023156D02*
X014258Y023156D01*
X014230Y023204D02*
X012429Y023204D01*
X012385Y023253D02*
X014201Y023253D01*
X014172Y023301D02*
X012341Y023301D01*
X012297Y023350D02*
X014143Y023350D01*
X014115Y023398D02*
X012253Y023398D01*
X012209Y023447D02*
X014086Y023447D01*
X014057Y023495D02*
X012165Y023495D01*
X012121Y023544D02*
X014028Y023544D01*
X014000Y023592D02*
X012077Y023592D01*
X012032Y023641D02*
X013971Y023641D01*
X013942Y023690D02*
X011988Y023690D01*
X011944Y023738D02*
X013913Y023738D01*
X013885Y023787D02*
X011900Y023787D01*
X011856Y023835D02*
X013856Y023835D01*
X013827Y023884D02*
X011812Y023884D01*
X011768Y023932D02*
X013798Y023932D01*
X013770Y023981D02*
X011724Y023981D01*
X011680Y024029D02*
X013742Y024029D01*
X013714Y024078D02*
X011636Y024078D01*
X011592Y024126D02*
X013686Y024126D01*
X013659Y024175D02*
X011548Y024175D01*
X011504Y024224D02*
X013631Y024224D01*
X013603Y024272D02*
X011460Y024272D01*
X011416Y024321D02*
X013576Y024321D01*
X013548Y024369D02*
X011372Y024369D01*
X011327Y024418D02*
X013520Y024418D01*
X013492Y024466D02*
X011327Y024466D01*
X011327Y024515D02*
X013465Y024515D01*
X013437Y024563D02*
X011327Y024563D01*
X011327Y024612D02*
X013409Y024612D01*
X013381Y024660D02*
X011327Y024660D01*
X011327Y024709D02*
X013354Y024709D01*
X013326Y024757D02*
X011327Y024757D01*
X011327Y024806D02*
X013298Y024806D01*
X013270Y024855D02*
X011327Y024855D01*
X011327Y024903D02*
X013243Y024903D01*
X013215Y024952D02*
X011327Y024952D01*
X011327Y025000D02*
X013187Y025000D01*
X013159Y025049D02*
X011327Y025049D01*
X011327Y025097D02*
X013132Y025097D01*
X013104Y025146D02*
X011327Y025146D01*
X011327Y025194D02*
X013076Y025194D01*
X013049Y025243D02*
X011327Y025243D01*
X011327Y025291D02*
X013021Y025291D01*
X012993Y025340D02*
X011327Y025340D01*
X009727Y025340D02*
X007027Y025340D01*
X007027Y025389D02*
X009727Y025389D01*
X009727Y025437D02*
X007027Y025437D01*
X007027Y025486D02*
X009727Y025486D01*
X009727Y025534D02*
X007027Y025534D01*
X007027Y025583D02*
X009727Y025583D01*
X009727Y025631D02*
X007027Y025631D01*
X007027Y025680D02*
X009727Y025680D01*
X009727Y025728D02*
X007027Y025728D01*
X007027Y025777D02*
X009727Y025777D01*
X009727Y025825D02*
X007027Y025825D01*
X007027Y025874D02*
X009727Y025874D01*
X009727Y025923D02*
X007027Y025923D01*
X007027Y025971D02*
X009727Y025971D01*
X009727Y026020D02*
X007027Y026020D01*
X007027Y026068D02*
X009727Y026068D01*
X009727Y026117D02*
X007027Y026117D01*
X007027Y026165D02*
X009727Y026165D01*
X009727Y026214D02*
X007027Y026214D01*
X007027Y026262D02*
X009727Y026262D01*
X009727Y026311D02*
X007027Y026311D01*
X007027Y026359D02*
X009727Y026359D01*
X009727Y026408D02*
X007027Y026408D01*
X007027Y026456D02*
X009727Y026456D01*
X009727Y026505D02*
X007027Y026505D01*
X007027Y026554D02*
X009727Y026554D01*
X009727Y026602D02*
X007027Y026602D01*
X007027Y026651D02*
X009727Y026651D01*
X009727Y026699D02*
X007027Y026699D01*
X007027Y026748D02*
X008005Y026748D01*
X008027Y026725D02*
X008187Y026725D01*
X008300Y026838D01*
X008300Y026998D01*
X008187Y027111D01*
X008027Y027111D01*
X007914Y026998D01*
X007914Y026838D01*
X008027Y026725D01*
X007956Y026796D02*
X007027Y026796D01*
X007027Y026845D02*
X007914Y026845D01*
X007914Y026893D02*
X007027Y026893D01*
X007027Y026942D02*
X007914Y026942D01*
X007914Y026990D02*
X007027Y026990D01*
X007027Y027039D02*
X007955Y027039D01*
X008003Y027088D02*
X007027Y027088D01*
X007027Y027136D02*
X009727Y027136D01*
X009727Y027088D02*
X008210Y027088D01*
X008259Y027039D02*
X009727Y027039D01*
X009727Y026990D02*
X008300Y026990D01*
X008300Y026942D02*
X009727Y026942D01*
X009727Y026893D02*
X008300Y026893D01*
X008300Y026845D02*
X009727Y026845D01*
X009727Y026796D02*
X008258Y026796D01*
X008209Y026748D02*
X009727Y026748D01*
X009727Y027185D02*
X007027Y027185D01*
X007027Y027233D02*
X009727Y027233D01*
X009727Y027282D02*
X007027Y027282D01*
X007027Y027330D02*
X009727Y027330D01*
X009727Y027379D02*
X007027Y027379D01*
X007027Y027427D02*
X009727Y027427D01*
X009727Y027476D02*
X007027Y027476D01*
X007027Y027524D02*
X009727Y027524D01*
X009727Y027573D02*
X007027Y027573D01*
X007027Y027622D02*
X009727Y027622D01*
X009727Y027670D02*
X007027Y027670D01*
X007027Y027719D02*
X009727Y027719D01*
X009727Y027767D02*
X007027Y027767D01*
X007027Y027816D02*
X009727Y027816D01*
X009727Y027864D02*
X007027Y027864D01*
X007027Y027913D02*
X009727Y027913D01*
X009727Y027961D02*
X007027Y027961D01*
X007027Y028010D02*
X009727Y028010D01*
X009727Y028058D02*
X007027Y028058D01*
X007027Y028107D02*
X009727Y028107D01*
X009727Y028156D02*
X007027Y028156D01*
X007027Y028204D02*
X009727Y028204D01*
X009727Y028253D02*
X007027Y028253D01*
X007027Y028301D02*
X009727Y028301D01*
X009727Y028350D02*
X007027Y028350D01*
X007027Y028398D02*
X009727Y028398D01*
X009727Y028447D02*
X007027Y028447D01*
X007027Y028495D02*
X009727Y028495D01*
X009727Y028544D02*
X007027Y028544D01*
X007027Y028592D02*
X009727Y028592D01*
X009727Y028641D02*
X007027Y028641D01*
X007027Y028689D02*
X009727Y028689D01*
X009727Y028738D02*
X007027Y028738D01*
X007027Y028787D02*
X009727Y028787D01*
X009727Y028835D02*
X007027Y028835D01*
X007027Y028884D02*
X009727Y028884D01*
X009727Y028932D02*
X007027Y028932D01*
X007027Y028981D02*
X007992Y028981D01*
X007997Y028975D02*
X008157Y028975D01*
X008270Y029088D01*
X008270Y029248D01*
X008157Y029361D01*
X007997Y029361D01*
X007884Y029248D01*
X007884Y029088D01*
X007997Y028975D01*
X007943Y029029D02*
X007027Y029029D01*
X007027Y029078D02*
X007894Y029078D01*
X007884Y029126D02*
X007027Y029126D01*
X007027Y029175D02*
X007884Y029175D01*
X007884Y029223D02*
X007027Y029223D01*
X007027Y029272D02*
X007908Y029272D01*
X007956Y029321D02*
X007027Y029321D01*
X007027Y029369D02*
X008634Y029369D01*
X008634Y029321D02*
X008197Y029321D01*
X008246Y029272D02*
X008670Y029272D01*
X008634Y029308D02*
X008747Y029195D01*
X008907Y029195D01*
X009020Y029308D01*
X009020Y029468D01*
X008907Y029581D01*
X008747Y029581D01*
X008634Y029468D01*
X008634Y029308D01*
X008634Y029418D02*
X007027Y029418D01*
X007027Y029466D02*
X008634Y029466D01*
X008680Y029515D02*
X007027Y029515D01*
X007027Y029563D02*
X008729Y029563D01*
X008925Y029563D02*
X009449Y029563D01*
X009467Y029581D02*
X009354Y029468D01*
X009354Y029308D01*
X009467Y029195D01*
X009627Y029195D01*
X009727Y029295D01*
X009727Y023568D01*
X009377Y023218D01*
X008577Y023218D01*
X007721Y024295D01*
X007777Y024295D01*
X007890Y024408D01*
X007890Y024568D01*
X007777Y024681D01*
X007617Y024681D01*
X007504Y024568D01*
X007027Y025168D01*
X007027Y031145D01*
X007147Y031145D01*
X007260Y031258D01*
X007260Y031418D01*
X007147Y031531D01*
X007027Y031531D01*
X007027Y033218D01*
X007377Y033668D01*
X009277Y033668D01*
X009677Y033168D01*
X009727Y032918D01*
X009727Y032301D01*
X009707Y032321D01*
X009547Y032321D01*
X009434Y032208D01*
X009434Y032048D01*
X009547Y031935D01*
X009707Y031935D01*
X009727Y031955D01*
X009727Y029481D01*
X009627Y029581D01*
X009467Y029581D01*
X009400Y029515D02*
X008973Y029515D01*
X009020Y029466D02*
X009354Y029466D01*
X009354Y029418D02*
X009020Y029418D01*
X009020Y029369D02*
X009354Y029369D01*
X009354Y029321D02*
X009020Y029321D01*
X008983Y029272D02*
X009390Y029272D01*
X009439Y029223D02*
X008935Y029223D01*
X008719Y029223D02*
X008270Y029223D01*
X008270Y029175D02*
X009727Y029175D01*
X009727Y029223D02*
X009655Y029223D01*
X009703Y029272D02*
X009727Y029272D01*
X009727Y029126D02*
X008270Y029126D01*
X008259Y029078D02*
X009727Y029078D01*
X009727Y029029D02*
X008211Y029029D01*
X008162Y028981D02*
X009727Y028981D01*
X009727Y029515D02*
X009693Y029515D01*
X009727Y029563D02*
X009645Y029563D01*
X009727Y029612D02*
X007027Y029612D01*
X007027Y029660D02*
X009727Y029660D01*
X009727Y029709D02*
X007027Y029709D01*
X007027Y029757D02*
X009727Y029757D01*
X009727Y029806D02*
X007027Y029806D01*
X007027Y029855D02*
X009727Y029855D01*
X009727Y029903D02*
X007027Y029903D01*
X007027Y029952D02*
X009727Y029952D01*
X009727Y030000D02*
X007027Y030000D01*
X007027Y030049D02*
X007364Y030049D01*
X007397Y030015D02*
X007557Y030015D01*
X007670Y030128D01*
X007670Y030288D01*
X007557Y030401D01*
X007397Y030401D01*
X007284Y030288D01*
X007284Y030128D01*
X007397Y030015D01*
X007315Y030097D02*
X007027Y030097D01*
X007027Y030146D02*
X007284Y030146D01*
X007284Y030194D02*
X007027Y030194D01*
X007027Y030243D02*
X007284Y030243D01*
X007287Y030291D02*
X007027Y030291D01*
X007027Y030340D02*
X007336Y030340D01*
X007384Y030389D02*
X007027Y030389D01*
X007027Y030437D02*
X008945Y030437D01*
X008967Y030415D02*
X009127Y030415D01*
X009222Y030510D01*
X009317Y030415D01*
X009477Y030415D01*
X009590Y030528D01*
X009590Y030688D01*
X009505Y030773D01*
X009580Y030848D01*
X009580Y031008D01*
X009467Y031121D01*
X009307Y031121D01*
X009212Y031026D01*
X009127Y031111D01*
X008967Y031111D01*
X008854Y030998D01*
X008854Y030838D01*
X008929Y030763D01*
X008854Y030688D01*
X008854Y030528D01*
X008967Y030415D01*
X008897Y030486D02*
X007027Y030486D01*
X007027Y030534D02*
X008854Y030534D01*
X008854Y030583D02*
X007027Y030583D01*
X007027Y030631D02*
X008854Y030631D01*
X008854Y030680D02*
X007027Y030680D01*
X007027Y030728D02*
X008894Y030728D01*
X008915Y030777D02*
X007027Y030777D01*
X007027Y030825D02*
X008867Y030825D01*
X008854Y030874D02*
X007027Y030874D01*
X007027Y030922D02*
X008854Y030922D01*
X008854Y030971D02*
X007027Y030971D01*
X007027Y031020D02*
X008875Y031020D01*
X008924Y031068D02*
X007027Y031068D01*
X007027Y031117D02*
X007676Y031117D01*
X007687Y031105D02*
X007847Y031105D01*
X007960Y031218D01*
X007960Y031378D01*
X007847Y031491D01*
X007687Y031491D01*
X007574Y031378D01*
X007574Y031218D01*
X007687Y031105D01*
X007627Y031165D02*
X007167Y031165D01*
X007215Y031214D02*
X007579Y031214D01*
X007574Y031262D02*
X007260Y031262D01*
X007260Y031311D02*
X007574Y031311D01*
X007574Y031359D02*
X007260Y031359D01*
X007260Y031408D02*
X007604Y031408D01*
X007652Y031456D02*
X007222Y031456D01*
X007173Y031505D02*
X009727Y031505D01*
X009727Y031554D02*
X007027Y031554D01*
X007027Y031602D02*
X009727Y031602D01*
X009727Y031651D02*
X007027Y031651D01*
X007027Y031699D02*
X009727Y031699D01*
X009727Y031748D02*
X007027Y031748D01*
X007027Y031796D02*
X009727Y031796D01*
X009727Y031845D02*
X007027Y031845D01*
X007027Y031893D02*
X009727Y031893D01*
X009727Y031942D02*
X009713Y031942D01*
X009540Y031942D02*
X007027Y031942D01*
X007027Y031990D02*
X009492Y031990D01*
X009443Y032039D02*
X008920Y032039D01*
X008887Y032005D02*
X009000Y032118D01*
X009000Y032278D01*
X008887Y032391D01*
X008727Y032391D01*
X008614Y032278D01*
X008614Y032118D01*
X008727Y032005D01*
X008887Y032005D01*
X008969Y032088D02*
X009434Y032088D01*
X009434Y032136D02*
X009000Y032136D01*
X009000Y032185D02*
X009434Y032185D01*
X009459Y032233D02*
X009000Y032233D01*
X008996Y032282D02*
X009507Y032282D01*
X009727Y032330D02*
X008948Y032330D01*
X008899Y032379D02*
X009727Y032379D01*
X009727Y032427D02*
X008310Y032427D01*
X008310Y032379D02*
X008714Y032379D01*
X008666Y032330D02*
X008282Y032330D01*
X008310Y032358D02*
X008197Y032245D01*
X008037Y032245D01*
X007924Y032358D01*
X007924Y032518D01*
X008037Y032631D01*
X008197Y032631D01*
X008310Y032518D01*
X008310Y032358D01*
X008233Y032282D02*
X008617Y032282D01*
X008614Y032233D02*
X007027Y032233D01*
X007027Y032185D02*
X008614Y032185D01*
X008614Y032136D02*
X007027Y032136D01*
X007027Y032088D02*
X008645Y032088D01*
X008693Y032039D02*
X007027Y032039D01*
X007027Y032282D02*
X008001Y032282D01*
X007952Y032330D02*
X007027Y032330D01*
X007027Y032379D02*
X007924Y032379D01*
X007924Y032427D02*
X007027Y032427D01*
X007027Y032476D02*
X007924Y032476D01*
X007930Y032524D02*
X007027Y032524D01*
X007027Y032573D02*
X007979Y032573D01*
X008027Y032621D02*
X007027Y032621D01*
X007027Y032670D02*
X009727Y032670D01*
X009727Y032621D02*
X008207Y032621D01*
X008255Y032573D02*
X009727Y032573D01*
X009727Y032524D02*
X008304Y032524D01*
X008310Y032476D02*
X009727Y032476D01*
X009727Y032719D02*
X007027Y032719D01*
X007027Y032767D02*
X009727Y032767D01*
X009727Y032816D02*
X007027Y032816D01*
X007027Y032864D02*
X009727Y032864D01*
X009727Y032913D02*
X007027Y032913D01*
X007027Y032961D02*
X009718Y032961D01*
X009709Y033010D02*
X007027Y033010D01*
X007027Y033058D02*
X009699Y033058D01*
X009689Y033107D02*
X007027Y033107D01*
X007027Y033155D02*
X009679Y033155D01*
X009648Y033204D02*
X007027Y033204D01*
X007053Y033253D02*
X009609Y033253D01*
X009571Y033301D02*
X007091Y033301D01*
X007129Y033350D02*
X009532Y033350D01*
X009493Y033398D02*
X007167Y033398D01*
X007204Y033447D02*
X009454Y033447D01*
X009415Y033495D02*
X007242Y033495D01*
X007280Y033544D02*
X009376Y033544D01*
X009338Y033592D02*
X007318Y033592D01*
X007355Y033641D02*
X009299Y033641D01*
X009727Y031456D02*
X007882Y031456D01*
X007930Y031408D02*
X009727Y031408D01*
X009727Y031359D02*
X007960Y031359D01*
X007960Y031311D02*
X009727Y031311D01*
X009727Y031262D02*
X007960Y031262D01*
X007955Y031214D02*
X009727Y031214D01*
X009727Y031165D02*
X007907Y031165D01*
X007858Y031117D02*
X009302Y031117D01*
X009254Y031068D02*
X009170Y031068D01*
X009471Y031117D02*
X009727Y031117D01*
X009727Y031068D02*
X009520Y031068D01*
X009568Y031020D02*
X009727Y031020D01*
X009727Y030971D02*
X009580Y030971D01*
X009580Y030922D02*
X009727Y030922D01*
X009727Y030874D02*
X009580Y030874D01*
X009557Y030825D02*
X009727Y030825D01*
X009727Y030777D02*
X009508Y030777D01*
X009550Y030728D02*
X009727Y030728D01*
X009727Y030680D02*
X009590Y030680D01*
X009590Y030631D02*
X009727Y030631D01*
X009727Y030583D02*
X009590Y030583D01*
X009590Y030534D02*
X009727Y030534D01*
X009727Y030486D02*
X009547Y030486D01*
X009498Y030437D02*
X009727Y030437D01*
X009727Y030389D02*
X007570Y030389D01*
X007618Y030340D02*
X009727Y030340D01*
X009727Y030291D02*
X007667Y030291D01*
X007670Y030243D02*
X009727Y030243D01*
X009727Y030194D02*
X007670Y030194D01*
X007670Y030146D02*
X009727Y030146D01*
X009727Y030097D02*
X007639Y030097D01*
X007590Y030049D02*
X009727Y030049D01*
X009295Y030437D02*
X009148Y030437D01*
X009197Y030486D02*
X009247Y030486D01*
X013187Y028498D02*
X013187Y032668D01*
X013317Y032798D01*
X013317Y033628D01*
X012877Y034068D01*
X013447Y032688D02*
X014327Y031808D01*
X014327Y029038D01*
X014187Y028898D01*
X014187Y028268D01*
X014727Y027728D01*
X014727Y025608D01*
X015187Y025148D01*
X015187Y023348D01*
X015637Y022903D01*
X015637Y021833D01*
X015427Y021638D01*
X015265Y021457D02*
X015198Y021457D01*
X015294Y021408D02*
X014670Y021408D01*
X014670Y021359D02*
X015323Y021359D01*
X015352Y021311D02*
X014670Y021311D01*
X014670Y021262D02*
X015377Y021262D01*
X015377Y021214D02*
X014625Y021214D01*
X014328Y021214D02*
X014236Y021214D01*
X014192Y021262D02*
X014284Y021262D01*
X014284Y021311D02*
X014147Y021311D01*
X014103Y021359D02*
X014284Y021359D01*
X014284Y021408D02*
X014059Y021408D01*
X014015Y021457D02*
X014322Y021457D01*
X014357Y021505D02*
X013971Y021505D01*
X013927Y021554D02*
X014309Y021554D01*
X014294Y021602D02*
X013883Y021602D01*
X013839Y021651D02*
X014294Y021651D01*
X014294Y021699D02*
X013795Y021699D01*
X013751Y021748D02*
X014313Y021748D01*
X014278Y021796D02*
X014362Y021796D01*
X014353Y022088D02*
X014310Y022088D01*
X014262Y022136D02*
X014361Y022136D01*
X014023Y022088D02*
X013442Y022088D01*
X013487Y022039D02*
X013975Y022039D01*
X013974Y021991D02*
X013531Y021991D01*
X013575Y021942D02*
X013974Y021942D01*
X013974Y021893D02*
X013619Y021893D01*
X013663Y021845D02*
X014007Y021845D01*
X014056Y021796D02*
X013707Y021796D01*
X013354Y021359D02*
X012672Y021359D01*
X012646Y021311D02*
X013354Y021311D01*
X013354Y021262D02*
X012621Y021262D01*
X012595Y021214D02*
X013378Y021214D01*
X014587Y020825D02*
X015017Y020825D01*
X014968Y020874D02*
X014635Y020874D01*
X014680Y020923D02*
X014924Y020923D01*
X015864Y020534D02*
X016260Y020534D01*
X016211Y020486D02*
X015912Y020486D01*
X015940Y020437D02*
X016184Y020437D01*
X016184Y020389D02*
X015940Y020389D01*
X015940Y020340D02*
X016184Y020340D01*
X016191Y020291D02*
X015933Y020291D01*
X015884Y020243D02*
X016239Y020243D01*
X016288Y020194D02*
X015884Y020194D01*
X015570Y019855D02*
X015293Y019855D01*
X015320Y019806D02*
X015554Y019806D01*
X015554Y019758D02*
X015320Y019758D01*
X015320Y019709D02*
X015554Y019709D01*
X015572Y019660D02*
X015312Y019660D01*
X015263Y019612D02*
X015620Y019612D01*
X015628Y019272D02*
X015246Y019272D01*
X015294Y019224D02*
X015579Y019224D01*
X015544Y019175D02*
X015320Y019175D01*
X015320Y019126D02*
X015544Y019126D01*
X015544Y019078D02*
X015320Y019078D01*
X015311Y019029D02*
X015544Y019029D01*
X015591Y018981D02*
X015262Y018981D01*
X015214Y018932D02*
X015640Y018932D01*
X015040Y018932D02*
X014926Y018932D01*
X014974Y018884D02*
X016381Y018884D01*
X016464Y018932D02*
X016551Y018932D01*
X016512Y018981D02*
X016677Y018981D01*
X016677Y019029D02*
X016561Y019029D01*
X016570Y019078D02*
X016677Y019078D01*
X016677Y019126D02*
X016570Y019126D01*
X016570Y019175D02*
X016677Y019175D01*
X016677Y019224D02*
X016544Y019224D01*
X016496Y019272D02*
X016677Y019272D01*
X016677Y019321D02*
X016222Y019321D01*
X016258Y019272D02*
X016173Y019272D01*
X016260Y019369D02*
X016677Y019369D01*
X016677Y019418D02*
X016260Y019418D01*
X016260Y019466D02*
X016677Y019466D01*
X016677Y019515D02*
X016260Y019515D01*
X016299Y019563D02*
X016215Y019563D01*
X016250Y019612D02*
X016166Y019612D01*
X016475Y019563D02*
X016677Y019563D01*
X016677Y019612D02*
X016523Y019612D01*
X016572Y019660D02*
X016677Y019660D01*
X016677Y019709D02*
X016580Y019709D01*
X016580Y019758D02*
X016677Y019758D01*
X016677Y019806D02*
X016580Y019806D01*
X016553Y019855D02*
X016677Y019855D01*
X016677Y019903D02*
X016505Y019903D01*
X016697Y021318D02*
X016697Y022388D01*
X016397Y022688D01*
X016397Y022918D01*
X016267Y023048D01*
X016267Y024548D01*
X016497Y024778D01*
X016497Y026928D01*
X016877Y027308D01*
X016877Y027938D01*
X016967Y028028D01*
X016967Y031738D01*
X016437Y032268D01*
X015677Y032268D01*
X014877Y033068D01*
X015877Y033068D02*
X017147Y031798D01*
X017147Y027898D01*
X017097Y027828D01*
X017097Y027288D01*
X016707Y026838D01*
X016707Y024668D01*
X016437Y024398D01*
X016437Y023108D01*
X016597Y022948D01*
X016597Y022788D01*
X016637Y023208D02*
X016637Y024328D01*
X016907Y024598D01*
X016907Y026843D01*
X017227Y027218D01*
X017227Y027693D01*
X017327Y027838D01*
X017327Y031928D01*
X016877Y032378D01*
X016877Y033068D01*
X017097Y033528D02*
X016417Y033528D01*
X015877Y034068D01*
X016877Y034068D02*
X018087Y032858D01*
X018087Y030538D01*
X017787Y030598D02*
X017787Y032838D01*
X017097Y033528D01*
X017357Y033868D02*
X017357Y034548D01*
X017877Y035068D01*
X017877Y034068D02*
X018377Y033568D01*
X018397Y030388D01*
X019827Y030268D02*
X020177Y030268D01*
X023387Y033478D01*
X023387Y034558D01*
X022877Y035068D01*
X022387Y034458D02*
X021877Y034968D01*
X021877Y035068D01*
X022387Y034458D02*
X022387Y033588D01*
X022297Y033498D01*
X019307Y033498D01*
X019177Y033368D01*
X018907Y033388D02*
X019417Y033898D01*
X019417Y034348D01*
X019687Y034618D01*
X020397Y034618D01*
X020847Y035068D01*
X020877Y035068D01*
X018907Y033388D02*
X018657Y033388D01*
X017957Y033358D02*
X017857Y033458D01*
X017767Y033458D01*
X017357Y033868D01*
X013187Y028498D02*
X013657Y028028D01*
X013657Y027648D01*
X014307Y026998D01*
X014307Y025508D01*
X015017Y024798D01*
X015017Y023298D01*
X015427Y022888D01*
X015427Y021958D01*
X014575Y022622D02*
X012958Y022622D01*
X012914Y022670D02*
X014546Y022670D01*
X014567Y018981D02*
X014696Y018981D01*
X014648Y018932D02*
X014616Y018932D01*
X014877Y018981D02*
X014991Y018981D01*
X014357Y018641D02*
X014297Y018641D01*
X014313Y018690D02*
X014248Y018690D01*
X014085Y018690D02*
X013938Y018690D01*
X013987Y018641D02*
X014037Y018641D01*
X013775Y018690D02*
X013308Y018690D01*
X013357Y018641D02*
X013427Y018641D01*
X013667Y018641D02*
X013727Y018641D01*
X013733Y018350D02*
X013681Y018350D01*
X013633Y018301D02*
X014391Y018301D01*
X014343Y018350D02*
X014291Y018350D01*
X014519Y018253D02*
X013430Y018253D01*
X013461Y018301D02*
X013387Y018301D01*
X013413Y018350D02*
X013351Y018350D01*
X013103Y018350D02*
X011423Y018350D01*
X011545Y018301D02*
X013087Y018301D01*
X013326Y017816D02*
X013349Y017816D01*
X013370Y017767D02*
X012277Y017767D01*
X012289Y017719D02*
X012784Y017719D01*
X012807Y017741D02*
X012694Y017628D01*
X012694Y017468D01*
X012807Y017355D01*
X012967Y017355D01*
X013042Y017430D01*
X013099Y017373D01*
X013034Y017308D01*
X013034Y017148D01*
X013147Y017035D01*
X013307Y017035D01*
X013420Y017148D01*
X013420Y017308D01*
X013335Y017393D01*
X013400Y017458D01*
X013400Y017618D01*
X013287Y017731D01*
X013127Y017731D01*
X013052Y017656D01*
X012967Y017741D01*
X012807Y017741D01*
X012736Y017670D02*
X012301Y017670D01*
X012314Y017622D02*
X012694Y017622D01*
X012694Y017573D02*
X012326Y017573D01*
X012338Y017525D02*
X012694Y017525D01*
X012694Y017476D02*
X012350Y017476D01*
X012362Y017427D02*
X012735Y017427D01*
X012783Y017379D02*
X012374Y017379D01*
X012398Y017330D02*
X013056Y017330D01*
X013034Y017282D02*
X012424Y017282D01*
X012451Y017233D02*
X013034Y017233D01*
X013034Y017185D02*
X012477Y017185D01*
X012504Y017136D02*
X013046Y017136D01*
X013010Y017088D02*
X013095Y017088D01*
X013059Y017039D02*
X013143Y017039D01*
X013090Y017008D02*
X012977Y017121D01*
X012817Y017121D01*
X012704Y017008D01*
X012704Y016848D01*
X012817Y016735D01*
X012977Y016735D01*
X013090Y016848D01*
X013090Y017008D01*
X013090Y016991D02*
X015234Y016991D01*
X015234Y016942D02*
X013090Y016942D01*
X013090Y016893D02*
X015234Y016893D01*
X015237Y016845D02*
X013086Y016845D01*
X013038Y016796D02*
X015286Y016796D01*
X015334Y016748D02*
X012989Y016748D01*
X012876Y016602D02*
X015700Y016602D01*
X015689Y016554D02*
X012924Y016554D01*
X012930Y016505D02*
X015639Y016505D01*
X015589Y016457D02*
X012930Y016457D01*
X012930Y016408D02*
X015484Y016408D01*
X015435Y016359D02*
X012927Y016359D01*
X012954Y016311D02*
X015399Y016311D01*
X015399Y016262D02*
X012981Y016262D01*
X013016Y016214D02*
X015399Y016214D01*
X015399Y016165D02*
X013050Y016165D01*
X013085Y016117D02*
X015446Y016117D01*
X015494Y016068D02*
X013120Y016068D01*
X013154Y016020D02*
X015834Y016020D01*
X015823Y016068D02*
X015690Y016068D01*
X015738Y016117D02*
X015812Y016117D01*
X015801Y016165D02*
X015785Y016165D01*
X015785Y016214D02*
X015789Y016214D01*
X015845Y015971D02*
X013189Y015971D01*
X013225Y015923D02*
X015857Y015923D01*
X015868Y015874D02*
X013258Y015874D01*
X013293Y015826D02*
X015879Y015826D01*
X015890Y015777D02*
X013328Y015777D01*
X013363Y015728D02*
X015901Y015728D01*
X015913Y015680D02*
X013397Y015680D01*
X013432Y015631D02*
X015924Y015631D01*
X015935Y015583D02*
X013467Y015583D01*
X013504Y015534D02*
X015946Y015534D01*
X015957Y015486D02*
X013543Y015486D01*
X013582Y015437D02*
X015969Y015437D01*
X015980Y015389D02*
X013621Y015389D01*
X013659Y015340D02*
X015991Y015340D01*
X016002Y015292D02*
X013698Y015292D01*
X013737Y015243D02*
X016013Y015243D01*
X016025Y015194D02*
X013776Y015194D01*
X013815Y015146D02*
X014692Y015146D01*
X014697Y015151D02*
X014584Y015038D01*
X014584Y014878D01*
X014697Y014765D01*
X014857Y014765D01*
X014970Y014878D01*
X014970Y015038D01*
X014857Y015151D01*
X014697Y015151D01*
X014643Y015097D02*
X013854Y015097D01*
X013880Y015049D02*
X014594Y015049D01*
X014584Y015000D02*
X013888Y015000D01*
X013896Y014952D02*
X014584Y014952D01*
X014584Y014903D02*
X013904Y014903D01*
X013912Y014855D02*
X014608Y014855D01*
X014656Y014806D02*
X013921Y014806D01*
X013929Y014758D02*
X016206Y014758D01*
X016176Y014806D02*
X014897Y014806D01*
X014946Y014855D02*
X016146Y014855D01*
X016117Y014903D02*
X014970Y014903D01*
X014970Y014952D02*
X016087Y014952D01*
X016069Y015000D02*
X014970Y015000D01*
X014959Y015049D02*
X016058Y015049D01*
X016047Y015097D02*
X014911Y015097D01*
X014862Y015146D02*
X016036Y015146D01*
X016235Y014709D02*
X013937Y014709D01*
X013945Y014660D02*
X016265Y014660D01*
X016295Y014612D02*
X013953Y014612D01*
X013961Y014563D02*
X016324Y014563D01*
X016354Y014515D02*
X013969Y014515D01*
X013977Y014466D02*
X016384Y014466D01*
X016413Y014418D02*
X013977Y014418D01*
X013977Y014369D02*
X016443Y014369D01*
X016473Y014321D02*
X013977Y014321D01*
X013977Y014272D02*
X016502Y014272D01*
X016532Y014224D02*
X013977Y014224D01*
X013977Y014175D02*
X016562Y014175D01*
X016591Y014126D02*
X013977Y014126D01*
X013977Y014078D02*
X016621Y014078D01*
X016651Y014029D02*
X013977Y014029D01*
X013977Y013981D02*
X016680Y013981D01*
X016710Y013932D02*
X013977Y013932D01*
X013977Y013884D02*
X016740Y013884D01*
X016769Y013835D02*
X014693Y013835D01*
X014667Y013861D02*
X014780Y013748D01*
X014780Y013588D01*
X014667Y013475D01*
X014507Y013475D01*
X014394Y013588D01*
X014394Y013748D01*
X014507Y013861D01*
X014667Y013861D01*
X014741Y013787D02*
X016662Y013787D01*
X016614Y013738D02*
X014780Y013738D01*
X014780Y013690D02*
X016594Y013690D01*
X016594Y013641D02*
X014780Y013641D01*
X014780Y013593D02*
X016594Y013593D01*
X016608Y013544D02*
X014735Y013544D01*
X014687Y013495D02*
X016657Y013495D01*
X016705Y013447D02*
X015301Y013447D01*
X015267Y013481D02*
X015107Y013481D01*
X014994Y013368D01*
X014994Y013208D01*
X015107Y013095D01*
X015267Y013095D01*
X015380Y013208D01*
X015380Y013368D01*
X015267Y013481D01*
X015350Y013398D02*
X016972Y013398D01*
X016938Y013447D02*
X016868Y013447D01*
X016917Y013495D02*
X016938Y013495D01*
X017020Y013350D02*
X015380Y013350D01*
X015380Y013301D02*
X017069Y013301D01*
X017117Y013253D02*
X015380Y013253D01*
X015376Y013204D02*
X017155Y013204D01*
X017177Y013156D02*
X015327Y013156D01*
X015278Y013107D02*
X016393Y013107D01*
X016397Y013111D02*
X016284Y012998D01*
X016284Y012838D01*
X016397Y012725D01*
X016557Y012725D01*
X016670Y012838D01*
X016670Y012998D01*
X016557Y013111D01*
X016397Y013111D01*
X016344Y013059D02*
X014639Y013059D01*
X014670Y013028D02*
X014557Y013141D01*
X014397Y013141D01*
X014284Y013028D01*
X014284Y012868D01*
X014397Y012755D01*
X014557Y012755D01*
X014670Y012868D01*
X014670Y013028D01*
X014670Y013010D02*
X016296Y013010D01*
X016284Y012961D02*
X014670Y012961D01*
X014670Y012913D02*
X016284Y012913D01*
X016284Y012864D02*
X014666Y012864D01*
X014617Y012816D02*
X016306Y012816D01*
X016355Y012767D02*
X014569Y012767D01*
X014385Y012767D02*
X013977Y012767D01*
X013977Y012719D02*
X017177Y012719D01*
X017177Y012767D02*
X016599Y012767D01*
X016647Y012816D02*
X017177Y012816D01*
X017177Y012864D02*
X016670Y012864D01*
X016670Y012913D02*
X017177Y012913D01*
X017177Y012961D02*
X016670Y012961D01*
X016658Y013010D02*
X017177Y013010D01*
X017177Y013059D02*
X016609Y013059D01*
X016561Y013107D02*
X017177Y013107D01*
X017177Y012670D02*
X013977Y012670D01*
X013977Y012622D02*
X017177Y012622D01*
X017177Y012573D02*
X013977Y012573D01*
X013977Y012525D02*
X017177Y012525D01*
X017177Y012476D02*
X013977Y012476D01*
X013977Y012427D02*
X017177Y012427D01*
X017177Y012379D02*
X013977Y012379D01*
X013977Y012330D02*
X017177Y012330D01*
X017177Y012282D02*
X013977Y012282D01*
X013977Y012233D02*
X017177Y012233D01*
X017177Y012185D02*
X013977Y012185D01*
X013977Y012136D02*
X017177Y012136D01*
X017177Y012088D02*
X013977Y012088D01*
X013977Y012039D02*
X017177Y012039D01*
X017177Y011991D02*
X015077Y011991D01*
X015057Y012011D02*
X014897Y012011D01*
X014784Y011898D01*
X014784Y011738D01*
X014897Y011625D01*
X015057Y011625D01*
X015170Y011738D01*
X015170Y011898D01*
X015057Y012011D01*
X015126Y011942D02*
X017177Y011942D01*
X017177Y011894D02*
X015560Y011894D01*
X015532Y011921D02*
X015372Y011921D01*
X015259Y011808D01*
X015259Y011648D01*
X015372Y011535D01*
X015532Y011535D01*
X015645Y011648D01*
X015645Y011808D01*
X015532Y011921D01*
X015608Y011845D02*
X017177Y011845D01*
X017177Y011796D02*
X015645Y011796D01*
X015645Y011748D02*
X017177Y011748D01*
X017177Y011699D02*
X015645Y011699D01*
X015645Y011651D02*
X015836Y011651D01*
X015842Y011656D02*
X015729Y011543D01*
X015729Y011383D01*
X015842Y011270D01*
X016002Y011270D01*
X016115Y011383D01*
X016115Y011543D01*
X016002Y011656D01*
X015842Y011656D01*
X015788Y011602D02*
X015599Y011602D01*
X015550Y011554D02*
X015739Y011554D01*
X015729Y011505D02*
X013977Y011505D01*
X013977Y011457D02*
X015729Y011457D01*
X015729Y011408D02*
X013977Y011408D01*
X013977Y011360D02*
X015753Y011360D01*
X015801Y011311D02*
X013977Y011311D01*
X013977Y011262D02*
X016875Y011262D01*
X016877Y011260D02*
X017037Y011260D01*
X017150Y011373D01*
X017150Y011533D01*
X017037Y011646D01*
X016877Y011646D01*
X016764Y011533D01*
X016764Y011373D01*
X016877Y011260D01*
X016826Y011311D02*
X016042Y011311D01*
X016091Y011360D02*
X016778Y011360D01*
X016764Y011408D02*
X016115Y011408D01*
X016115Y011457D02*
X016764Y011457D01*
X016764Y011505D02*
X016115Y011505D01*
X016104Y011554D02*
X016784Y011554D01*
X016833Y011602D02*
X016056Y011602D01*
X016007Y011651D02*
X017177Y011651D01*
X017177Y011602D02*
X017081Y011602D01*
X017129Y011554D02*
X017177Y011554D01*
X017177Y011505D02*
X017150Y011505D01*
X017150Y011457D02*
X017177Y011457D01*
X017177Y011408D02*
X017150Y011408D01*
X017136Y011360D02*
X017177Y011360D01*
X017177Y011311D02*
X017087Y011311D01*
X017039Y011262D02*
X017177Y011262D01*
X017177Y011214D02*
X013977Y011214D01*
X013977Y011165D02*
X017174Y011165D01*
X017125Y011117D02*
X013977Y011117D01*
X013977Y011068D02*
X017077Y011068D01*
X017028Y011020D02*
X013977Y011020D01*
X013977Y010971D02*
X016980Y010971D01*
X016931Y010923D02*
X013977Y010923D01*
X013977Y010874D02*
X016730Y010874D01*
X016681Y010826D02*
X013977Y010826D01*
X013977Y010777D02*
X016634Y010777D01*
X016634Y010728D02*
X013977Y010728D01*
X013977Y010680D02*
X016634Y010680D01*
X016634Y010631D02*
X013977Y010631D01*
X013977Y010583D02*
X016591Y010583D01*
X016543Y010534D02*
X015074Y010534D01*
X015047Y010561D02*
X015160Y010448D01*
X015160Y010288D01*
X015047Y010175D01*
X014887Y010175D01*
X014774Y010288D01*
X014774Y010448D01*
X014887Y010561D01*
X015047Y010561D01*
X015122Y010486D02*
X016494Y010486D01*
X016446Y010437D02*
X015160Y010437D01*
X015160Y010389D02*
X016397Y010389D01*
X016349Y010340D02*
X015160Y010340D01*
X015160Y010292D02*
X016300Y010292D01*
X016252Y010243D02*
X015114Y010243D01*
X015066Y010194D02*
X016203Y010194D01*
X016154Y010146D02*
X013977Y010146D01*
X013977Y010194D02*
X014868Y010194D01*
X014819Y010243D02*
X013977Y010243D01*
X013977Y010292D02*
X014774Y010292D01*
X014774Y010340D02*
X013977Y010340D01*
X013977Y010389D02*
X014774Y010389D01*
X014774Y010437D02*
X013977Y010437D01*
X013977Y010486D02*
X014811Y010486D01*
X014860Y010534D02*
X013977Y010534D01*
X013977Y010097D02*
X016106Y010097D01*
X016057Y010049D02*
X013977Y010049D01*
X013977Y010000D02*
X016009Y010000D01*
X015960Y009952D02*
X013977Y009952D01*
X013977Y009903D02*
X015912Y009903D01*
X015863Y009855D02*
X013977Y009855D01*
X013977Y009806D02*
X015815Y009806D01*
X015766Y009758D02*
X013977Y009758D01*
X013977Y009709D02*
X015718Y009709D01*
X015669Y009661D02*
X013977Y009661D01*
X013977Y009612D02*
X015620Y009612D01*
X015572Y009563D02*
X013977Y009563D01*
X013977Y009515D02*
X015523Y009515D01*
X015475Y009466D02*
X013977Y009466D01*
X013977Y009418D02*
X015426Y009418D01*
X015378Y009369D02*
X013977Y009369D01*
X013977Y009321D02*
X015329Y009321D01*
X015281Y009272D02*
X013977Y009272D01*
X013977Y009224D02*
X015232Y009224D01*
X015184Y009175D02*
X013977Y009175D01*
X013977Y009127D02*
X015135Y009127D01*
X015086Y009078D02*
X013977Y009078D01*
X013977Y009029D02*
X015038Y009029D01*
X014989Y008981D02*
X013977Y008981D01*
X013977Y008932D02*
X014941Y008932D01*
X014892Y008884D02*
X013977Y008884D01*
X013977Y008835D02*
X014844Y008835D01*
X014795Y008787D02*
X013977Y008787D01*
X013977Y011554D02*
X015354Y011554D01*
X015305Y011602D02*
X013977Y011602D01*
X013977Y011651D02*
X014871Y011651D01*
X014823Y011699D02*
X013977Y011699D01*
X013977Y011748D02*
X014784Y011748D01*
X014784Y011796D02*
X013977Y011796D01*
X013977Y011845D02*
X014784Y011845D01*
X014784Y011894D02*
X013977Y011894D01*
X013977Y011942D02*
X014828Y011942D01*
X014876Y011991D02*
X013977Y011991D01*
X013977Y012816D02*
X014336Y012816D01*
X014288Y012864D02*
X013977Y012864D01*
X013977Y012913D02*
X014284Y012913D01*
X014284Y012961D02*
X013977Y012961D01*
X013977Y013010D02*
X014284Y013010D01*
X014314Y013059D02*
X013977Y013059D01*
X013977Y013107D02*
X014363Y013107D01*
X014591Y013107D02*
X015095Y013107D01*
X015047Y013156D02*
X013977Y013156D01*
X013977Y013204D02*
X014998Y013204D01*
X014994Y013253D02*
X013977Y013253D01*
X013977Y013301D02*
X014994Y013301D01*
X014994Y013350D02*
X013977Y013350D01*
X013977Y013398D02*
X015024Y013398D01*
X015073Y013447D02*
X013977Y013447D01*
X013977Y013495D02*
X014487Y013495D01*
X014438Y013544D02*
X013977Y013544D01*
X013977Y013593D02*
X014394Y013593D01*
X014394Y013641D02*
X013977Y013641D01*
X013977Y013690D02*
X014394Y013690D01*
X014394Y013738D02*
X013977Y013738D01*
X013977Y013787D02*
X014432Y013787D01*
X014481Y013835D02*
X013977Y013835D01*
X015170Y011894D02*
X015344Y011894D01*
X015296Y011845D02*
X015170Y011845D01*
X015170Y011796D02*
X015259Y011796D01*
X015259Y011748D02*
X015170Y011748D01*
X015131Y011699D02*
X015259Y011699D01*
X015259Y011651D02*
X015082Y011651D01*
X017527Y012348D02*
X017527Y013973D01*
X017257Y014243D01*
X017257Y014368D01*
X017082Y014543D01*
X017082Y015298D01*
X017082Y015223D01*
X015689Y016651D02*
X012827Y016651D01*
X012742Y016699D02*
X015677Y016699D01*
X015666Y016748D02*
X015519Y016748D01*
X015568Y016796D02*
X015655Y016796D01*
X015644Y016845D02*
X015616Y016845D01*
X015620Y016893D02*
X015633Y016893D01*
X015620Y016942D02*
X015621Y016942D01*
X015313Y017088D02*
X015259Y017088D01*
X015265Y017039D02*
X015210Y017039D01*
X015043Y017039D02*
X013310Y017039D01*
X013359Y017088D02*
X014995Y017088D01*
X014946Y017136D02*
X013408Y017136D01*
X013420Y017185D02*
X014934Y017185D01*
X014934Y017233D02*
X013420Y017233D01*
X013420Y017282D02*
X014934Y017282D01*
X014956Y017330D02*
X013398Y017330D01*
X013349Y017379D02*
X013733Y017379D01*
X013685Y017427D02*
X013369Y017427D01*
X013400Y017476D02*
X013654Y017476D01*
X013654Y017525D02*
X013400Y017525D01*
X013400Y017573D02*
X013654Y017573D01*
X013657Y017622D02*
X013396Y017622D01*
X013348Y017670D02*
X013706Y017670D01*
X013732Y017719D02*
X013665Y017719D01*
X013714Y017767D02*
X013732Y017767D01*
X013960Y017767D02*
X014315Y017767D01*
X014294Y017788D02*
X014407Y017675D01*
X014567Y017675D01*
X014680Y017788D01*
X014680Y017948D01*
X014567Y018061D01*
X014407Y018061D01*
X014294Y017948D01*
X014294Y017788D01*
X014294Y017816D02*
X013960Y017816D01*
X013961Y017864D02*
X014294Y017864D01*
X014294Y017913D02*
X013952Y017913D01*
X013908Y017961D02*
X014307Y017961D01*
X014356Y018010D02*
X013868Y018010D01*
X013828Y018059D02*
X014404Y018059D01*
X014490Y018156D02*
X013752Y018156D01*
X013788Y018107D02*
X014538Y018107D01*
X014570Y018059D02*
X014656Y018059D01*
X014618Y018010D02*
X014996Y018010D01*
X014947Y017961D02*
X014667Y017961D01*
X014680Y017913D02*
X014934Y017913D01*
X014934Y017864D02*
X014680Y017864D01*
X014680Y017816D02*
X014934Y017816D01*
X014955Y017767D02*
X014659Y017767D01*
X014704Y017719D02*
X014610Y017719D01*
X014656Y017670D02*
X013988Y017670D01*
X013960Y017719D02*
X014364Y017719D01*
X014614Y017628D02*
X014614Y017468D01*
X014727Y017355D01*
X014887Y017355D01*
X015000Y017468D01*
X015000Y017628D01*
X014887Y017741D01*
X014727Y017741D01*
X014614Y017628D01*
X014614Y017622D02*
X014036Y017622D01*
X014040Y017573D02*
X014614Y017573D01*
X014614Y017525D02*
X014040Y017525D01*
X014040Y017476D02*
X014614Y017476D01*
X014655Y017427D02*
X014009Y017427D01*
X013960Y017379D02*
X014703Y017379D01*
X014910Y017379D02*
X015005Y017379D01*
X014959Y017427D02*
X015333Y017427D01*
X015285Y017379D02*
X015249Y017379D01*
X015000Y017476D02*
X015498Y017476D01*
X015487Y017525D02*
X015000Y017525D01*
X015000Y017573D02*
X015482Y017573D01*
X015530Y017622D02*
X015000Y017622D01*
X014958Y017670D02*
X015576Y017670D01*
X015614Y017719D02*
X015250Y017719D01*
X015299Y017767D02*
X015565Y017767D01*
X015554Y017816D02*
X015320Y017816D01*
X015320Y017864D02*
X015554Y017864D01*
X015554Y017913D02*
X015320Y017913D01*
X015307Y017961D02*
X015577Y017961D01*
X015626Y018010D02*
X015385Y018010D01*
X015004Y017719D02*
X014909Y017719D01*
X014495Y018204D02*
X013708Y018204D01*
X013981Y018350D02*
X014043Y018350D01*
X013419Y017719D02*
X013299Y017719D01*
X013114Y017719D02*
X012989Y017719D01*
X013038Y017670D02*
X013066Y017670D01*
X013045Y017427D02*
X013039Y017427D01*
X012990Y017379D02*
X013093Y017379D01*
X012783Y017088D02*
X012530Y017088D01*
X012556Y017039D02*
X012735Y017039D01*
X012704Y016991D02*
X012583Y016991D01*
X012609Y016942D02*
X012704Y016942D01*
X012704Y016893D02*
X012636Y016893D01*
X012662Y016845D02*
X012707Y016845D01*
X012689Y016796D02*
X012756Y016796D01*
X012715Y016748D02*
X012804Y016748D01*
X013017Y018981D02*
X013391Y018981D01*
X015868Y018010D02*
X015926Y018010D01*
X020487Y019948D02*
X020517Y019918D01*
X022707Y019918D01*
X022972Y020173D01*
X023642Y020173D01*
X023742Y020083D01*
X024072Y020083D01*
X024342Y020353D01*
X024527Y020353D01*
X024632Y020458D01*
X025082Y020913D01*
X025427Y020913D01*
X025237Y021308D02*
X024662Y020778D01*
X024477Y020748D02*
X024477Y021128D01*
X024617Y021268D01*
X024677Y021268D01*
X024737Y021328D01*
X024737Y021488D01*
X024777Y021528D01*
X024857Y021528D01*
X024897Y021488D01*
X024897Y021398D01*
X024937Y021368D01*
X024997Y021368D01*
X025037Y021398D01*
X025037Y021488D01*
X025077Y021528D01*
X025197Y021528D01*
X025237Y021488D01*
X025237Y021308D01*
X024577Y021443D02*
X024277Y021158D01*
X024277Y020893D01*
X024477Y020748D02*
X024417Y020688D01*
X024417Y020628D01*
X024367Y020578D01*
X024232Y020578D01*
X023807Y021003D01*
X023077Y021003D01*
X023012Y021068D01*
X022977Y021133D01*
X023187Y020843D02*
X022927Y020583D01*
X022382Y020583D01*
X022302Y020503D01*
X022322Y020128D02*
X020527Y020128D01*
X020487Y020088D01*
X020487Y019948D01*
X021972Y020773D02*
X021987Y020768D01*
X022342Y021123D01*
X022567Y021123D01*
X022992Y021548D01*
X023127Y021548D01*
X023797Y022218D01*
X024792Y022238D01*
X024577Y021763D02*
X024577Y021443D01*
X023852Y020623D02*
X023817Y020623D01*
X023597Y020843D01*
X023187Y020843D01*
X022827Y021678D02*
X022757Y021678D01*
X022717Y021718D01*
X022717Y021998D01*
X022677Y022038D01*
X022607Y022038D01*
X022567Y021998D01*
X022567Y021728D01*
X022527Y021678D01*
X022457Y021678D01*
X022417Y021718D01*
X022417Y022148D01*
X022377Y022188D01*
X022307Y022188D01*
X022267Y022148D01*
X022267Y021923D01*
X022232Y021868D01*
X022077Y021868D01*
X022047Y021913D01*
X022047Y022218D01*
X021997Y022518D02*
X022492Y022518D01*
X022507Y022533D01*
X022707Y022308D02*
X022867Y022138D01*
X022867Y021718D01*
X022827Y021678D01*
X022542Y019008D02*
X022307Y019008D01*
X022257Y018948D01*
X021967Y018948D01*
X022542Y019008D02*
X022607Y018943D01*
X022607Y018468D01*
X022637Y018438D01*
X022697Y018438D01*
X022727Y018468D01*
X022727Y018918D01*
X022757Y018948D01*
X022847Y018948D01*
X022877Y018918D01*
X022877Y018468D01*
X022907Y018438D01*
X022997Y018438D01*
X023027Y018468D01*
X023027Y018918D01*
X023057Y018948D01*
X023147Y018948D01*
X023177Y018918D01*
X023177Y018468D01*
X023207Y018438D01*
X023297Y018438D01*
X023327Y018468D01*
X023327Y018818D01*
X023377Y018868D01*
X023477Y018868D01*
X023527Y018818D01*
X023527Y018673D01*
X023557Y018643D01*
X023647Y018643D01*
X023677Y018673D01*
X023677Y018868D01*
X023707Y018898D01*
X023797Y018898D01*
X023827Y018868D01*
X023827Y018668D01*
X023857Y018638D01*
X023947Y018638D01*
X023977Y018668D01*
X023977Y018868D01*
X024007Y018898D01*
X024097Y018898D01*
X024127Y018868D01*
X024127Y018618D01*
X023917Y018408D01*
X023867Y018408D01*
X023952Y018188D02*
X023652Y018188D01*
X023247Y017798D01*
X022067Y017798D01*
X021902Y017608D01*
X020637Y017608D01*
X020567Y017658D01*
X020567Y017908D01*
X020627Y017958D01*
X021422Y017958D01*
X021482Y017898D01*
X022217Y017898D01*
X022277Y017958D01*
X022182Y017578D02*
X022272Y017488D01*
X022272Y016303D01*
X022337Y016248D01*
X022437Y016248D01*
X022497Y016308D01*
X022497Y017088D01*
X022537Y017128D01*
X022657Y017128D01*
X022697Y017088D01*
X022697Y016308D01*
X022757Y016248D01*
X022857Y016248D01*
X022917Y016308D01*
X022917Y017088D01*
X022957Y017128D01*
X023477Y017128D01*
X023917Y017558D01*
X024702Y017568D01*
X024637Y017758D02*
X024712Y017783D01*
X024942Y017783D01*
X025427Y018268D01*
X025427Y018398D01*
X025167Y018293D02*
X025082Y018368D01*
X024872Y018368D01*
X024747Y018488D01*
X024437Y018488D01*
X024442Y018483D01*
X024597Y018368D02*
X024617Y018393D01*
X024672Y018393D01*
X024692Y018363D01*
X024692Y018113D01*
X024827Y017958D01*
X024972Y017958D01*
X025167Y018163D01*
X025167Y018293D01*
X025412Y018093D02*
X025727Y018408D01*
X025937Y018318D02*
X025937Y018633D01*
X025897Y018673D01*
X025892Y018673D01*
X025877Y018918D02*
X025207Y018918D01*
X025177Y018888D01*
X025177Y018738D01*
X025207Y018708D01*
X025427Y018708D01*
X024997Y018828D02*
X024997Y019008D01*
X025027Y019038D01*
X025877Y019038D01*
X025912Y019013D01*
X025912Y018943D01*
X025877Y018918D01*
X025937Y018318D02*
X025802Y018188D01*
X025552Y017938D01*
X025437Y017938D01*
X025042Y017538D01*
X025042Y017408D01*
X024902Y017268D01*
X024337Y017268D01*
X024147Y017068D01*
X023892Y017068D01*
X023667Y017168D02*
X023667Y016858D01*
X023667Y017168D02*
X023832Y017333D01*
X024227Y017333D01*
X024262Y017368D01*
X024827Y017368D01*
X024932Y017473D01*
X024932Y017578D01*
X025412Y018058D01*
X025412Y018093D01*
X025437Y017783D02*
X025762Y017783D01*
X025767Y017788D01*
X025437Y017783D02*
X025167Y017513D01*
X025167Y017348D01*
X024977Y017158D01*
X024397Y017158D01*
X023477Y016238D01*
X023477Y015818D01*
X023427Y015768D01*
X023277Y015768D01*
X023227Y015818D01*
X023227Y015968D01*
X023177Y016018D01*
X023027Y016018D01*
X022977Y015968D01*
X022977Y015818D01*
X022927Y015768D01*
X022777Y015768D01*
X022727Y015818D01*
X022727Y015908D01*
X022677Y015958D01*
X022527Y015958D01*
X022477Y015908D01*
X022477Y015288D01*
X022102Y014928D01*
X023957Y017668D02*
X023852Y017798D01*
X023957Y017668D02*
X024487Y017668D01*
X024637Y017758D01*
X024377Y017818D02*
X024377Y018248D01*
X024407Y018278D01*
X024457Y018278D01*
X024487Y018248D01*
X024487Y018218D01*
X024517Y018183D01*
X024567Y018183D01*
X024597Y018213D01*
X024597Y018368D01*
X024227Y018398D02*
X024227Y018618D01*
X024292Y018683D01*
X024857Y018683D01*
X024997Y018568D01*
X024967Y018798D02*
X024997Y018828D01*
X024967Y018798D02*
X024877Y018798D01*
X024847Y018828D01*
X024847Y019008D01*
X024817Y019038D01*
X024727Y019038D01*
X024697Y019008D01*
X024697Y018828D01*
X024667Y018798D01*
X024577Y018798D01*
X024547Y018828D01*
X024547Y019008D01*
X024517Y019038D01*
X024427Y019038D01*
X024397Y019008D01*
X024397Y018828D01*
X024367Y018798D01*
X024277Y018798D01*
X024247Y018828D01*
X024247Y018948D01*
X024157Y019038D01*
X023537Y019038D01*
X023547Y019058D01*
X024087Y018323D02*
X024152Y018323D01*
X024227Y018398D01*
X024087Y018323D02*
X023952Y018188D01*
X023952Y017998D02*
X023712Y017998D01*
X023577Y017838D01*
X023542Y017798D01*
X023952Y017998D02*
X024047Y017908D01*
X024047Y017813D01*
X024072Y017788D01*
X024112Y017788D01*
X024137Y017818D01*
X024137Y017888D01*
X024157Y017908D01*
X024227Y017908D01*
X024247Y017888D01*
X024247Y017818D01*
X024277Y017788D01*
X024347Y017788D01*
X024377Y017818D01*
X018792Y011743D02*
X018792Y011278D01*
X018937Y011133D01*
X019592Y011133D01*
X019752Y011293D01*
X019862Y011293D01*
X021737Y009418D01*
X022372Y009418D01*
X022017Y009618D02*
X021697Y009618D01*
X018287Y013028D01*
X018257Y013028D01*
X018277Y012258D02*
X018792Y011743D01*
X018267Y011608D02*
X017527Y012348D01*
X018267Y011608D02*
X018267Y008588D01*
X018457Y008398D01*
X009793Y009563D02*
X008685Y009563D01*
X008733Y009612D02*
X009730Y009612D01*
X009666Y009661D02*
X008782Y009661D01*
X008790Y009709D02*
X009603Y009709D01*
X009540Y009758D02*
X008790Y009758D01*
X008790Y009806D02*
X009477Y009806D01*
X009414Y009855D02*
X008763Y009855D01*
X008715Y009903D02*
X009351Y009903D01*
X008184Y010486D02*
X007027Y010486D01*
X007027Y010534D02*
X008184Y010534D01*
X008218Y010583D02*
X007027Y010583D01*
X007027Y010631D02*
X008267Y010631D01*
X007555Y010777D02*
X007027Y010777D01*
X007027Y010826D02*
X007507Y010826D01*
X007458Y010874D02*
X007027Y010874D01*
X007027Y010923D02*
X007444Y010923D01*
X007444Y010971D02*
X007027Y010971D01*
X007027Y011020D02*
X007444Y011020D01*
X007464Y011068D02*
X007027Y011068D01*
X007027Y011117D02*
X007512Y011117D01*
X007509Y008884D02*
X007027Y008884D01*
X007027Y008835D02*
X007461Y008835D01*
X007424Y008787D02*
X007027Y008787D01*
X007027Y008738D02*
X007424Y008738D01*
X007424Y008690D02*
X007064Y008690D01*
X007126Y008641D02*
X007424Y008641D01*
X007470Y008593D02*
X007188Y008593D01*
X007251Y008544D02*
X007518Y008544D01*
X007027Y020486D02*
X008177Y020486D01*
X008128Y020534D02*
X007027Y020534D01*
X007027Y020583D02*
X008104Y020583D01*
X008104Y020631D02*
X007027Y020631D01*
X007027Y020680D02*
X008104Y020680D01*
X008114Y020728D02*
X007027Y020728D01*
X007027Y020777D02*
X008163Y020777D01*
X008211Y020825D02*
X007027Y020825D01*
X008836Y022524D02*
X008968Y022524D01*
X008919Y022573D02*
X008884Y022573D01*
X008871Y023107D02*
X008943Y023107D01*
X008991Y023156D02*
X008822Y023156D01*
X008611Y023156D02*
X007707Y023156D01*
X007658Y023107D02*
X008563Y023107D01*
X008550Y023253D02*
X009411Y023253D01*
X009460Y023301D02*
X008511Y023301D01*
X008472Y023350D02*
X009508Y023350D01*
X009557Y023398D02*
X008434Y023398D01*
X008395Y023447D02*
X009605Y023447D01*
X009654Y023495D02*
X008357Y023495D01*
X008318Y023544D02*
X009702Y023544D01*
X009735Y023544D02*
X007334Y023544D01*
X007286Y023592D02*
X009655Y023592D01*
X009727Y023592D02*
X008279Y023592D01*
X008241Y023641D02*
X009727Y023641D01*
X009727Y023690D02*
X008202Y023690D01*
X008164Y023738D02*
X009727Y023738D01*
X009727Y023787D02*
X008125Y023787D01*
X008087Y023835D02*
X009727Y023835D01*
X009727Y023884D02*
X008048Y023884D01*
X008009Y023932D02*
X009727Y023932D01*
X009727Y023981D02*
X007971Y023981D01*
X007932Y024029D02*
X009213Y024029D01*
X009227Y024015D02*
X009387Y024015D01*
X009500Y024128D01*
X009500Y024288D01*
X009387Y024401D01*
X009227Y024401D01*
X009114Y024288D01*
X009114Y024128D01*
X009227Y024015D01*
X009164Y024078D02*
X008629Y024078D01*
X008855Y024078D01*
X008775Y024126D02*
X008678Y024126D01*
X009116Y024126D01*
X009114Y024175D02*
X008700Y024175D01*
X008700Y024148D02*
X008587Y024035D01*
X008427Y024035D01*
X008314Y024148D01*
X008314Y024308D01*
X008427Y024421D01*
X008587Y024421D01*
X008700Y024308D01*
X008700Y024148D01*
X008700Y024224D02*
X009114Y024224D01*
X009114Y024272D02*
X008700Y024272D01*
X008687Y024321D02*
X009146Y024321D01*
X009195Y024369D02*
X008639Y024369D01*
X008590Y024418D02*
X009727Y024418D01*
X009727Y024466D02*
X007890Y024466D01*
X008216Y024466D01*
X008296Y024418D02*
X007890Y024418D01*
X008423Y024418D01*
X008326Y024321D02*
X007802Y024321D01*
X008326Y024321D01*
X008314Y024272D02*
X006991Y024272D01*
X006991Y024224D02*
X008314Y024224D01*
X007778Y024224D01*
X007739Y024272D02*
X008314Y024272D01*
X008314Y024175D02*
X007816Y024175D01*
X007855Y024126D02*
X008336Y024126D01*
X006993Y024126D01*
X006993Y024078D02*
X008384Y024078D01*
X007894Y024078D01*
X007777Y024295D02*
X007617Y024295D01*
X007504Y024408D01*
X007504Y024568D01*
X007504Y024568D01*
X007617Y024681D01*
X007777Y024681D01*
X007890Y024568D01*
X007890Y024408D01*
X007777Y024295D01*
X007592Y024321D02*
X006990Y024321D01*
X006989Y024369D02*
X007543Y024369D01*
X007504Y024418D02*
X006988Y024418D01*
X006988Y024466D02*
X007504Y024466D01*
X007504Y024515D02*
X006987Y024515D01*
X006986Y024563D02*
X007504Y024563D01*
X007469Y024612D02*
X007547Y024612D01*
X006986Y024612D01*
X006985Y024660D02*
X007596Y024660D01*
X007431Y024660D01*
X007392Y024709D02*
X009727Y024709D01*
X009727Y024757D02*
X007353Y024757D01*
X007315Y024806D02*
X009727Y024806D01*
X009727Y024855D02*
X007276Y024855D01*
X007238Y024903D02*
X009727Y024903D01*
X009727Y024952D02*
X007199Y024952D01*
X007161Y025000D02*
X009727Y025000D01*
X009727Y025049D02*
X007122Y025049D01*
X007083Y025097D02*
X009727Y025097D01*
X009727Y025146D02*
X007045Y025146D01*
X007096Y025146D02*
X006978Y025146D01*
X006977Y025194D02*
X007016Y025194D01*
X007027Y025194D02*
X009727Y025194D01*
X009727Y025243D02*
X007027Y025243D01*
X007027Y025291D02*
X009727Y025291D01*
X009727Y024660D02*
X007798Y024660D01*
X007896Y024660D01*
X007846Y024612D02*
X007976Y024612D01*
X008056Y024563D02*
X007890Y024563D01*
X009727Y024563D01*
X009727Y024515D02*
X007890Y024515D01*
X008136Y024515D01*
X007846Y024612D02*
X009727Y024612D01*
X009727Y024369D02*
X009419Y024369D01*
X009467Y024321D02*
X009727Y024321D01*
X009727Y024272D02*
X009500Y024272D01*
X009500Y024224D02*
X009727Y024224D01*
X009727Y024175D02*
X009500Y024175D01*
X009498Y024126D02*
X009727Y024126D01*
X009727Y024078D02*
X009449Y024078D01*
X009401Y024029D02*
X009727Y024029D01*
X009495Y023690D02*
X006999Y023690D01*
X006998Y023738D02*
X009415Y023738D01*
X009335Y023787D02*
X006998Y023787D01*
X006997Y023835D02*
X009255Y023835D01*
X009175Y023884D02*
X006996Y023884D01*
X006996Y023932D02*
X009095Y023932D01*
X009015Y023981D02*
X006995Y023981D01*
X006994Y024029D02*
X008935Y024029D01*
X008314Y024175D02*
X006992Y024175D01*
X007000Y023641D02*
X009575Y023641D01*
X007816Y024709D02*
X006984Y024709D01*
X006984Y024757D02*
X007736Y024757D01*
X007656Y024806D02*
X006983Y024806D01*
X006982Y024855D02*
X007576Y024855D01*
X007496Y024903D02*
X006981Y024903D01*
X006981Y024952D02*
X007416Y024952D01*
X007336Y025000D02*
X006980Y025000D01*
X006979Y025049D02*
X007256Y025049D01*
X007176Y025097D02*
X006979Y025097D01*
X007000Y023592D02*
X007068Y023592D01*
X007020Y023544D02*
X007001Y023544D01*
X007005Y023301D02*
X007031Y023301D01*
X007005Y023253D02*
X007080Y023253D01*
D16*
X007177Y023428D03*
X007577Y023298D03*
X007192Y022323D03*
X007727Y021218D03*
X008297Y020638D03*
X009067Y021398D03*
X010067Y021198D03*
X010917Y021058D03*
X011217Y019918D03*
X010977Y018938D03*
X011327Y017818D03*
X011623Y017825D03*
X011629Y017536D03*
X011327Y017518D03*
X010827Y017718D03*
X010847Y017128D03*
X011237Y016998D03*
X012737Y016468D03*
X012897Y016928D03*
X013227Y017228D03*
X013207Y017538D03*
X012887Y017548D03*
X013542Y017868D03*
X013237Y018178D03*
X013227Y018498D03*
X013547Y018488D03*
X013857Y018498D03*
X014167Y018498D03*
X014477Y018488D03*
X014477Y018798D03*
X014787Y018798D03*
X014797Y018478D03*
X014487Y017868D03*
X014807Y017548D03*
X015127Y017228D03*
X015427Y017248D03*
X015427Y016928D03*
X015747Y017218D03*
X015737Y017558D03*
X015747Y017858D03*
X016047Y017858D03*
X015747Y018168D03*
X015757Y018488D03*
X015437Y017858D03*
X015127Y017868D03*
X015127Y019118D03*
X015117Y019428D03*
X015127Y019748D03*
X015117Y020078D03*
X015117Y020388D03*
X015427Y020698D03*
X015117Y020998D03*
X015107Y021318D03*
X015117Y021648D03*
X015427Y021638D03*
X015427Y021958D03*
X016377Y021328D03*
X016697Y021318D03*
X017007Y021330D03*
X017322Y021308D03*
X017323Y021000D03*
X017317Y020688D03*
X017317Y020378D03*
X017317Y020068D03*
X017635Y020045D03*
X017633Y020377D03*
X017628Y020708D03*
X017633Y021037D03*
X017957Y021328D03*
X017967Y021638D03*
X017633Y021961D03*
X017297Y021638D03*
X017007Y021648D03*
X016687Y020698D03*
X016377Y020688D03*
X016377Y020378D03*
X016387Y019748D03*
X016067Y019438D03*
X016377Y019118D03*
X016377Y018488D03*
X016377Y018168D03*
X016367Y017548D03*
X016687Y017568D03*
X016997Y017548D03*
X016987Y017238D03*
X017317Y017218D03*
X017637Y017223D03*
X017637Y016908D03*
X018117Y016508D03*
X017107Y016098D03*
X017082Y015298D03*
X018307Y014978D03*
X018237Y014108D03*
X018377Y013768D03*
X018077Y013568D03*
X017857Y013798D03*
X017747Y013308D03*
X017957Y012968D03*
X018257Y013028D03*
X018557Y013073D03*
X018377Y013368D03*
X019147Y012968D03*
X019757Y012968D03*
X019467Y012208D03*
X019167Y011758D03*
X019047Y011388D03*
X018547Y011378D03*
X017987Y011488D03*
X017707Y011768D03*
X018277Y012258D03*
X016957Y012918D03*
X016477Y012918D03*
X016787Y013638D03*
X017277Y013668D03*
X016447Y011738D03*
X015922Y011463D03*
X015452Y011728D03*
X014977Y011818D03*
X014477Y012948D03*
X014587Y013668D03*
X015187Y013288D03*
X014777Y014958D03*
X013757Y014398D03*
X013497Y013828D03*
X012207Y014158D03*
X011647Y013668D03*
X010797Y012748D03*
X009807Y012778D03*
X008377Y010468D03*
X008597Y009748D03*
X007777Y009178D03*
X007617Y008718D03*
X007597Y010258D03*
X007637Y010968D03*
X006177Y010968D03*
X005252Y010298D03*
X005287Y009063D03*
X003757Y009068D03*
X003777Y010418D03*
X003357Y014248D03*
X003477Y014868D03*
X002977Y014878D03*
X002477Y014908D03*
X002037Y014348D03*
X003977Y015168D03*
X004567Y015068D03*
X004547Y016708D03*
X003987Y016718D03*
X003487Y016718D03*
X002987Y016728D03*
X002487Y016708D03*
X002477Y018518D03*
X002977Y018528D03*
X003477Y018478D03*
X004567Y018068D03*
X004797Y018728D03*
X005707Y018558D03*
X009157Y017838D03*
X009407Y017248D03*
X009547Y015788D03*
X011427Y015068D03*
X013037Y015838D03*
X013847Y017538D03*
X013857Y018178D03*
X013857Y019118D03*
X013527Y019118D03*
X012917Y018808D03*
X013857Y019748D03*
X014177Y019758D03*
X014487Y020048D03*
X014477Y020378D03*
X014487Y020998D03*
X014477Y021338D03*
X014487Y021648D03*
X014487Y021948D03*
X014167Y021958D03*
X014057Y022368D03*
X014497Y022273D03*
X013547Y021318D03*
X013547Y020998D03*
X013537Y020688D03*
X013547Y020378D03*
X013847Y020378D03*
X013227Y020698D03*
X013857Y020998D03*
X013227Y021328D03*
X013237Y021638D03*
X012747Y022368D03*
X012077Y024418D03*
X011777Y024768D03*
X012027Y025068D03*
X011477Y025068D03*
X011477Y024418D03*
X012577Y025308D03*
X013597Y026888D03*
X014487Y027228D03*
X015277Y027258D03*
X016297Y027288D03*
X017447Y027198D03*
X017597Y028708D03*
X016597Y028728D03*
X016592Y029088D03*
X016547Y029388D03*
X016477Y029698D03*
X016037Y028738D03*
X015447Y028728D03*
X014697Y029028D03*
X014387Y028748D03*
X013587Y028728D03*
X015077Y030488D03*
X017787Y030598D03*
X018087Y030538D03*
X018397Y030388D03*
X019827Y030268D03*
X020187Y029928D03*
X019427Y033118D03*
X019177Y033368D03*
X018657Y033388D03*
X018637Y033088D03*
X017957Y033358D03*
X010307Y029178D03*
X009547Y029388D03*
X008827Y029388D03*
X008077Y029168D03*
X007477Y030208D03*
X007767Y031298D03*
X007067Y031338D03*
X008117Y032438D03*
X008807Y032198D03*
X009177Y032218D03*
X009627Y032128D03*
X009387Y030928D03*
X009397Y030608D03*
X009047Y030608D03*
X009047Y030918D03*
X008107Y026918D03*
X007697Y024488D03*
X008507Y024228D03*
X008917Y024258D03*
X009307Y024208D03*
X009087Y022978D03*
X009087Y022678D03*
X008717Y022678D03*
X008717Y022988D03*
X009497Y020388D03*
X009297Y019628D03*
X007247Y015168D03*
X002307Y020008D03*
X014187Y009188D03*
X014607Y009218D03*
X014647Y008888D03*
X014977Y009228D03*
X014947Y009558D03*
X014887Y009898D03*
X014557Y009558D03*
X015327Y009578D03*
X015267Y008768D03*
X015387Y007778D03*
X015607Y006818D03*
X016457Y006118D03*
X016467Y005428D03*
X017837Y005778D03*
X018097Y005648D03*
X017977Y005198D03*
X018577Y005168D03*
X018892Y005183D03*
X019217Y005558D03*
X020867Y006148D03*
X021127Y006358D03*
X020917Y007268D03*
X020917Y007878D03*
X021507Y007878D03*
X021507Y007268D03*
X022067Y007258D03*
X022462Y008098D03*
X022467Y008408D03*
X022447Y008798D03*
X022372Y009418D03*
X022017Y009618D03*
X021797Y009838D03*
X021197Y009418D03*
X020917Y009528D03*
X020687Y009708D03*
X020387Y009678D03*
X020797Y008808D03*
X021277Y008808D03*
X021887Y008798D03*
X023102Y007543D03*
X023357Y007813D03*
X023602Y007228D03*
X023117Y006928D03*
X022047Y006118D03*
X022377Y004668D03*
X021837Y004638D03*
X021417Y004228D03*
X021077Y004228D03*
X020907Y004808D03*
X021717Y003918D03*
X022097Y003933D03*
X022767Y003888D03*
X023127Y003878D03*
X023247Y003188D03*
X023927Y004578D03*
X024637Y004578D03*
X025357Y004578D03*
X025767Y003548D03*
X026927Y002968D03*
X027827Y003068D03*
X028227Y004368D03*
X029277Y007018D03*
X029927Y007018D03*
X030627Y007018D03*
X030627Y008518D03*
X029927Y008518D03*
X029227Y008518D03*
X029127Y009218D03*
X029627Y009218D03*
X030127Y009218D03*
X030627Y009218D03*
X031127Y009218D03*
X031627Y009218D03*
X032177Y009218D03*
X032127Y010418D03*
X031627Y010418D03*
X031077Y010418D03*
X030627Y010418D03*
X030127Y010418D03*
X029627Y010418D03*
X029127Y010418D03*
X029127Y010968D03*
X029627Y010968D03*
X030127Y010968D03*
X030677Y010968D03*
X031127Y010968D03*
X031627Y010968D03*
X032177Y010968D03*
X032127Y012118D03*
X031627Y012118D03*
X031127Y012118D03*
X030627Y012118D03*
X030127Y012118D03*
X029627Y012118D03*
X029127Y012118D03*
X029177Y013018D03*
X029677Y013018D03*
X030177Y013018D03*
X030677Y013018D03*
X031177Y013018D03*
X031677Y013018D03*
X032177Y013018D03*
X032157Y014238D03*
X031667Y014248D03*
X031157Y014218D03*
X030667Y014228D03*
X030157Y014228D03*
X029687Y014228D03*
X029177Y014218D03*
X028657Y014208D03*
X028167Y014228D03*
X027667Y014218D03*
X027167Y014218D03*
X026697Y014218D03*
X027677Y013018D03*
X028177Y013018D03*
X028677Y013018D03*
X026977Y012168D03*
X026677Y011868D03*
X026377Y012168D03*
X026077Y011868D03*
X025777Y012168D03*
X025377Y011868D03*
X025777Y011468D03*
X026377Y011468D03*
X026977Y011468D03*
X028247Y014968D03*
X028837Y015048D03*
X029357Y015068D03*
X029837Y015058D03*
X030347Y015058D03*
X030847Y015068D03*
X031347Y015068D03*
X031847Y015068D03*
X032357Y015058D03*
X032857Y015068D03*
X033327Y015078D03*
X033277Y016218D03*
X032827Y016218D03*
X032327Y016218D03*
X031827Y016218D03*
X031327Y016218D03*
X030827Y016218D03*
X030327Y016218D03*
X029827Y016218D03*
X029327Y016218D03*
X028827Y016218D03*
X028227Y016368D03*
X028377Y017068D03*
X029127Y017218D03*
X029627Y017218D03*
X030177Y017218D03*
X030627Y017218D03*
X031127Y017218D03*
X031677Y017218D03*
X032177Y017218D03*
X032877Y017068D03*
X032897Y018458D03*
X032147Y018368D03*
X031647Y018358D03*
X031147Y018358D03*
X030627Y018348D03*
X030147Y018358D03*
X029627Y018358D03*
X029147Y018358D03*
X028397Y018498D03*
X028177Y019218D03*
X028177Y019668D03*
X028187Y020168D03*
X029147Y020348D03*
X029647Y020358D03*
X030147Y020348D03*
X030647Y020358D03*
X031127Y020358D03*
X031647Y020358D03*
X032147Y020358D03*
X032177Y020968D03*
X031677Y020968D03*
X031177Y020968D03*
X030677Y020968D03*
X030177Y020968D03*
X029677Y020968D03*
X029177Y020968D03*
X029187Y022098D03*
X029687Y022098D03*
X030187Y022098D03*
X030697Y022108D03*
X031197Y022108D03*
X031697Y022098D03*
X032177Y022108D03*
X032177Y019168D03*
X031627Y019168D03*
X031127Y019168D03*
X030627Y019168D03*
X030177Y019168D03*
X029627Y019168D03*
X029127Y019168D03*
X026907Y019688D03*
X026072Y019673D03*
X026072Y019368D03*
X025727Y019368D03*
X025427Y019368D03*
X025417Y019688D03*
X025437Y019993D03*
X025437Y020308D03*
X025447Y020618D03*
X025427Y020913D03*
X025427Y021233D03*
X025422Y021583D03*
X026057Y021858D03*
X026067Y021238D03*
X025757Y020928D03*
X026112Y020608D03*
X026107Y020298D03*
X026077Y019978D03*
X025747Y019678D03*
X024977Y020468D03*
X024662Y020778D03*
X024277Y020893D03*
X024222Y021408D03*
X023867Y021248D03*
X023857Y021568D03*
X023557Y021568D03*
X023242Y021253D03*
X022977Y021133D03*
X022847Y020793D03*
X023227Y020608D03*
X023537Y020618D03*
X023852Y020623D03*
X023852Y020288D03*
X023537Y019968D03*
X023537Y019668D03*
X023547Y019358D03*
X023547Y019058D03*
X023217Y019338D03*
X022937Y019688D03*
X023187Y019943D03*
X023857Y019683D03*
X023857Y019368D03*
X024267Y019368D03*
X024427Y019678D03*
X024357Y020018D03*
X024997Y018568D03*
X024902Y018168D03*
X024572Y017943D03*
X024702Y017568D03*
X024487Y016923D03*
X023892Y017068D03*
X023667Y016858D03*
X023252Y017473D03*
X022967Y017408D03*
X022672Y017398D03*
X022182Y017578D03*
X021967Y017318D03*
X021962Y016763D03*
X022277Y017958D03*
X021992Y018148D03*
X022187Y018368D03*
X022142Y018668D03*
X022412Y018808D03*
X021967Y018948D03*
X022617Y018078D03*
X022922Y018048D03*
X023217Y018088D03*
X023542Y017798D03*
X023852Y017798D03*
X024162Y018108D03*
X023867Y018408D03*
X023537Y018438D03*
X024442Y018483D03*
X025427Y018398D03*
X025727Y018408D03*
X025897Y018673D03*
X026107Y018888D03*
X026147Y018398D03*
X026077Y017768D03*
X025767Y017788D03*
X025727Y017478D03*
X025427Y017468D03*
X025427Y018708D03*
X022762Y020388D03*
X022302Y020503D03*
X021982Y020343D03*
X022322Y020128D03*
X021972Y020773D03*
X021967Y021218D03*
X022337Y021363D03*
X022157Y021663D03*
X022047Y022218D03*
X021997Y022518D03*
X022277Y022738D03*
X022507Y022533D03*
X022707Y022308D03*
X022897Y022608D03*
X023482Y022633D03*
X024372Y022473D03*
X024792Y022238D03*
X024577Y021763D03*
X020827Y018288D03*
X020797Y016238D03*
X020712Y015783D03*
X020417Y015458D03*
X022102Y014928D03*
X019527Y011378D03*
X019862Y010973D03*
X019907Y010568D03*
X019512Y008803D03*
X019757Y008613D03*
X019767Y007908D03*
X018457Y008398D03*
X018077Y007068D03*
X016797Y007738D03*
X016827Y008318D03*
X016787Y008968D03*
X016637Y009638D03*
X017507Y010488D03*
X016827Y010698D03*
X016957Y011453D03*
X014967Y010368D03*
X013577Y007568D03*
X011877Y004968D03*
X011377Y004968D03*
X010877Y004968D03*
X010377Y004968D03*
X009877Y004968D03*
X009377Y004968D03*
X008877Y004968D03*
X008377Y004968D03*
X007877Y004968D03*
X007377Y004968D03*
X007377Y003788D03*
X007867Y003808D03*
X008357Y003798D03*
X008867Y003788D03*
X009377Y003778D03*
X009867Y003788D03*
X010367Y003788D03*
X010887Y003808D03*
X011367Y003768D03*
X011887Y003798D03*
X006837Y003748D03*
X005437Y001878D03*
X015592Y016243D03*
X016287Y016548D03*
X016387Y016918D03*
X017312Y017558D03*
X017317Y017868D03*
X017317Y018178D03*
X017007Y018168D03*
X017317Y018488D03*
X017632Y018513D03*
X017627Y018808D03*
X017317Y019118D03*
X017327Y019438D03*
X017637Y019438D03*
X017317Y019748D03*
X017007Y019428D03*
X017017Y018808D03*
X017637Y018178D03*
X017627Y017848D03*
X015737Y019108D03*
X015747Y019758D03*
X015737Y020068D03*
X015747Y020378D03*
X016057Y021008D03*
X014487Y019438D03*
X016597Y022788D03*
X016637Y023208D03*
X018107Y022358D03*
X018007Y024308D03*
X018297Y024468D03*
X019247Y024788D03*
X020067Y023148D03*
X020267Y022708D03*
X020287Y021198D03*
X026807Y027718D03*
X008357Y034898D03*
X025132Y007893D03*
X026577Y007868D03*
X021397Y003538D03*
X019817Y003098D03*
D17*
X018892Y005183D02*
X018847Y005258D01*
X018847Y007058D01*
X019517Y007668D01*
X019937Y007668D01*
X020067Y007798D01*
X020067Y008383D01*
X020922Y009238D01*
X020992Y009238D01*
X021172Y009418D01*
X021197Y009418D01*
X020917Y009473D02*
X019567Y008123D01*
X019567Y007978D01*
X018707Y007118D01*
X018707Y005408D01*
X018577Y005168D01*
X018207Y005728D02*
X018097Y005648D01*
X018207Y005728D02*
X018307Y005728D01*
X018427Y005818D01*
X018427Y007238D01*
X019297Y008188D01*
X019297Y008868D01*
X019417Y009028D01*
X020257Y009028D01*
X020527Y009288D01*
X020687Y009448D01*
X020687Y009708D01*
X020917Y009528D02*
X020917Y009473D01*
X020387Y009358D02*
X020187Y009158D01*
X019317Y009158D01*
X019127Y008918D01*
X019127Y008203D01*
X018287Y007298D01*
X018287Y005978D01*
X018157Y005868D01*
X017947Y005868D01*
X017837Y005778D01*
X017977Y005198D02*
X018567Y005758D01*
X018567Y007178D01*
X019427Y008038D01*
X019427Y008578D01*
X019512Y008663D01*
X019512Y008803D01*
X019487Y008768D01*
X020227Y008238D02*
X020797Y008808D01*
X020387Y009358D02*
X020387Y009678D01*
X021697Y009798D02*
X021767Y009798D01*
X021797Y009838D01*
X021697Y009798D02*
X019467Y012028D01*
X019467Y012208D01*
X019862Y010973D02*
X019997Y010973D01*
X021687Y009288D01*
X021957Y009288D01*
X022447Y008798D01*
X020227Y008238D02*
X020227Y007723D01*
X020022Y007518D01*
X019587Y007518D01*
X019007Y006998D01*
X019007Y005768D01*
X019217Y005558D01*
X013847Y017538D02*
X013846Y017857D01*
X013638Y018109D01*
X013472Y018108D01*
X013257Y017908D01*
X011947Y017908D01*
X011817Y018038D01*
X009357Y018038D01*
X009157Y017838D01*
X009827Y018178D02*
X009307Y018698D01*
X009307Y019618D01*
X009297Y019628D01*
X009827Y018178D02*
X013237Y018178D01*
X017327Y019438D02*
X017337Y019443D01*
X017657Y019768D01*
X022382Y019228D02*
X022482Y019133D01*
X023302Y019123D01*
X023547Y019358D01*
X023777Y019153D01*
X026242Y019153D01*
D18*
X026757Y019688D01*
X026907Y019688D01*
X022382Y019228D02*
X022277Y019318D01*
X020127Y019318D01*
X019927Y019118D01*
X017317Y019118D01*
X016677Y019142D02*
X016625Y019142D01*
X016625Y019168D02*
X016587Y019259D01*
X016577Y019268D01*
X016677Y019268D01*
X016677Y017868D01*
X016295Y017868D01*
X016295Y017908D01*
X016257Y017999D01*
X016187Y018069D01*
X016096Y018106D01*
X015997Y018106D01*
X015906Y018069D01*
X015897Y018059D01*
X015887Y018069D01*
X015796Y018106D01*
X015697Y018106D01*
X015606Y018069D01*
X015537Y017999D01*
X015499Y017908D01*
X015499Y017868D01*
X015375Y017868D01*
X015375Y017918D01*
X015337Y018009D01*
X015267Y018079D01*
X015176Y018116D01*
X015077Y018116D01*
X014986Y018079D01*
X014917Y018009D01*
X014879Y017918D01*
X014879Y017868D01*
X014735Y017868D01*
X014735Y017918D01*
X014697Y018009D01*
X014627Y018079D01*
X014536Y018116D01*
X014437Y018116D01*
X014346Y018079D01*
X014277Y018009D01*
X014239Y017918D01*
X014239Y017868D01*
X014177Y017868D01*
X014177Y018250D01*
X014216Y018250D01*
X014307Y018288D01*
X014317Y018298D01*
X014336Y018278D01*
X014427Y018240D01*
X014526Y018240D01*
X014617Y018278D01*
X014632Y018293D01*
X014656Y018268D01*
X014747Y018230D01*
X014846Y018230D01*
X014937Y018268D01*
X015007Y018338D01*
X015045Y018429D01*
X015045Y018528D01*
X015007Y018619D01*
X014982Y018643D01*
X014997Y018658D01*
X015035Y018749D01*
X015035Y018848D01*
X015014Y018897D01*
X015077Y018870D01*
X015176Y018870D01*
X015267Y018908D01*
X015337Y018978D01*
X015375Y019069D01*
X015375Y019168D01*
X015337Y019259D01*
X015327Y019268D01*
X015546Y019268D01*
X015527Y019249D01*
X015489Y019158D01*
X015489Y019059D01*
X015527Y018968D01*
X015596Y018898D01*
X015687Y018860D01*
X015786Y018860D01*
X015877Y018898D01*
X015947Y018968D01*
X015985Y019059D01*
X015985Y019158D01*
X015962Y019214D01*
X016017Y019190D01*
X016116Y019190D01*
X016143Y019201D01*
X016129Y019168D01*
X016129Y019069D01*
X016167Y018978D01*
X016236Y018908D01*
X016327Y018870D01*
X016426Y018870D01*
X016517Y018908D01*
X016587Y018978D01*
X016625Y019069D01*
X016625Y019168D01*
X016589Y018984D02*
X016677Y018984D01*
X016677Y018825D02*
X015035Y018825D01*
X015001Y018667D02*
X015585Y018667D01*
X015616Y018699D02*
X015547Y018629D01*
X015509Y018538D01*
X015509Y018439D01*
X015547Y018348D01*
X015616Y018278D01*
X015707Y018240D01*
X015806Y018240D01*
X015897Y018278D01*
X015967Y018348D01*
X016005Y018439D01*
X016005Y018538D01*
X015967Y018629D01*
X015897Y018699D01*
X015806Y018736D01*
X015707Y018736D01*
X015616Y018699D01*
X015509Y018508D02*
X015045Y018508D01*
X015012Y018350D02*
X015546Y018350D01*
X015570Y018032D02*
X015313Y018032D01*
X015375Y017874D02*
X015499Y017874D01*
X016047Y017858D02*
X016047Y016688D01*
X015592Y016243D01*
X016295Y017874D02*
X016677Y017874D01*
X016677Y018032D02*
X016223Y018032D01*
X016327Y018240D02*
X016426Y018240D01*
X016517Y018278D01*
X016587Y018348D01*
X016625Y018439D01*
X016625Y018538D01*
X016587Y018629D01*
X016517Y018699D01*
X016426Y018736D01*
X016327Y018736D01*
X016236Y018699D01*
X016167Y018629D01*
X016129Y018538D01*
X016129Y018439D01*
X016167Y018348D01*
X016236Y018278D01*
X016327Y018240D01*
X016166Y018350D02*
X015968Y018350D01*
X016005Y018508D02*
X016129Y018508D01*
X016205Y018667D02*
X015929Y018667D01*
X015954Y018984D02*
X016164Y018984D01*
X016129Y019142D02*
X015985Y019142D01*
X015520Y018984D02*
X015339Y018984D01*
X015375Y019142D02*
X015489Y019142D01*
X016549Y018667D02*
X016677Y018667D01*
X016677Y018508D02*
X016625Y018508D01*
X016588Y018350D02*
X016677Y018350D01*
X016677Y018191D02*
X014177Y018191D01*
X014177Y018032D02*
X014300Y018032D01*
X014239Y017874D02*
X014177Y017874D01*
X014673Y018032D02*
X014940Y018032D01*
X014879Y017874D02*
X014735Y017874D01*
X017657Y019768D02*
X018227Y019768D01*
X018527Y020068D01*
D19*
X018527Y024068D01*
X019247Y024788D01*
D20*
X002377Y002568D03*
X002377Y034568D03*
X034377Y034568D03*
X034377Y007568D03*
M02*
