G75*
G70*
%OFA0B0*%
%FSLAX24Y24*%
%IPPOS*%
%LPD*%
%AMOC8*
5,1,8,0,0,1.08239X$1,22.5*
%
%ADD10C,0.0000*%
%ADD11C,0.0080*%
%ADD12C,0.0020*%
%ADD13C,0.0030*%
%ADD14C,0.0010*%
%ADD15C,0.0040*%
%ADD16C,0.0160*%
%ADD17C,0.0060*%
%ADD18R,0.0280X0.0160*%
%ADD19R,0.0160X0.0280*%
D10*
X001877Y001068D02*
X034877Y001068D01*
X034937Y001070D01*
X034998Y001075D01*
X035057Y001084D01*
X035116Y001097D01*
X035175Y001113D01*
X035232Y001133D01*
X035287Y001156D01*
X035342Y001183D01*
X035394Y001212D01*
X035445Y001245D01*
X035494Y001281D01*
X035540Y001319D01*
X035584Y001361D01*
X035626Y001405D01*
X035664Y001451D01*
X035700Y001500D01*
X035733Y001551D01*
X035762Y001603D01*
X035789Y001658D01*
X035812Y001713D01*
X035832Y001770D01*
X035848Y001829D01*
X035861Y001888D01*
X035870Y001947D01*
X035875Y002008D01*
X035877Y002068D01*
X035877Y035068D01*
X035875Y035128D01*
X035870Y035189D01*
X035861Y035248D01*
X035848Y035307D01*
X035832Y035366D01*
X035812Y035423D01*
X035789Y035478D01*
X035762Y035533D01*
X035733Y035585D01*
X035700Y035636D01*
X035664Y035685D01*
X035626Y035731D01*
X035584Y035775D01*
X035540Y035817D01*
X035494Y035855D01*
X035445Y035891D01*
X035394Y035924D01*
X035342Y035953D01*
X035287Y035980D01*
X035232Y036003D01*
X035175Y036023D01*
X035116Y036039D01*
X035057Y036052D01*
X034998Y036061D01*
X034937Y036066D01*
X034877Y036068D01*
X001877Y036068D01*
X001817Y036066D01*
X001756Y036061D01*
X001697Y036052D01*
X001638Y036039D01*
X001579Y036023D01*
X001522Y036003D01*
X001467Y035980D01*
X001412Y035953D01*
X001360Y035924D01*
X001309Y035891D01*
X001260Y035855D01*
X001214Y035817D01*
X001170Y035775D01*
X001128Y035731D01*
X001090Y035685D01*
X001054Y035636D01*
X001021Y035585D01*
X000992Y035533D01*
X000965Y035478D01*
X000942Y035423D01*
X000922Y035366D01*
X000906Y035307D01*
X000893Y035248D01*
X000884Y035189D01*
X000879Y035128D01*
X000877Y035068D01*
X000877Y002068D01*
X000879Y002008D01*
X000884Y001947D01*
X000893Y001888D01*
X000906Y001829D01*
X000922Y001770D01*
X000942Y001713D01*
X000965Y001658D01*
X000992Y001603D01*
X001021Y001551D01*
X001054Y001500D01*
X001090Y001451D01*
X001128Y001405D01*
X001170Y001361D01*
X001214Y001319D01*
X001260Y001281D01*
X001309Y001245D01*
X001360Y001212D01*
X001412Y001183D01*
X001467Y001156D01*
X001522Y001133D01*
X001579Y001113D01*
X001638Y001097D01*
X001697Y001084D01*
X001756Y001075D01*
X001817Y001070D01*
X001877Y001068D01*
X021582Y026328D02*
X026132Y026328D01*
X026132Y029078D01*
X021582Y029078D01*
X021582Y026328D01*
X030453Y005570D02*
X030455Y005597D01*
X030461Y005624D01*
X030470Y005650D01*
X030483Y005674D01*
X030499Y005697D01*
X030518Y005716D01*
X030540Y005733D01*
X030564Y005747D01*
X030589Y005757D01*
X030616Y005764D01*
X030643Y005767D01*
X030671Y005766D01*
X030698Y005761D01*
X030724Y005753D01*
X030748Y005741D01*
X030771Y005725D01*
X030792Y005707D01*
X030809Y005686D01*
X030824Y005662D01*
X030835Y005637D01*
X030843Y005611D01*
X030847Y005584D01*
X030847Y005556D01*
X030843Y005529D01*
X030835Y005503D01*
X030824Y005478D01*
X030809Y005454D01*
X030792Y005433D01*
X030771Y005415D01*
X030749Y005399D01*
X030724Y005387D01*
X030698Y005379D01*
X030671Y005374D01*
X030643Y005373D01*
X030616Y005376D01*
X030589Y005383D01*
X030564Y005393D01*
X030540Y005407D01*
X030518Y005424D01*
X030499Y005443D01*
X030483Y005466D01*
X030470Y005490D01*
X030461Y005516D01*
X030455Y005543D01*
X030453Y005570D01*
X030472Y005570D02*
X030474Y005597D01*
X030480Y005624D01*
X030489Y005650D01*
X030502Y005674D01*
X030518Y005697D01*
X030537Y005716D01*
X030559Y005733D01*
X030583Y005747D01*
X030608Y005757D01*
X030635Y005764D01*
X030662Y005767D01*
X030690Y005766D01*
X030717Y005761D01*
X030743Y005753D01*
X030767Y005741D01*
X030790Y005725D01*
X030811Y005707D01*
X030828Y005686D01*
X030843Y005662D01*
X030854Y005637D01*
X030862Y005611D01*
X030866Y005584D01*
X030866Y005556D01*
X030862Y005529D01*
X030854Y005503D01*
X030843Y005478D01*
X030828Y005454D01*
X030811Y005433D01*
X030790Y005415D01*
X030768Y005399D01*
X030743Y005387D01*
X030717Y005379D01*
X030690Y005374D01*
X030662Y005373D01*
X030635Y005376D01*
X030608Y005383D01*
X030583Y005393D01*
X030559Y005407D01*
X030537Y005424D01*
X030518Y005443D01*
X030502Y005466D01*
X030489Y005490D01*
X030480Y005516D01*
X030474Y005543D01*
X030472Y005570D01*
X030512Y005570D02*
X030514Y005597D01*
X030520Y005624D01*
X030529Y005650D01*
X030542Y005674D01*
X030558Y005697D01*
X030577Y005716D01*
X030599Y005733D01*
X030623Y005747D01*
X030648Y005757D01*
X030675Y005764D01*
X030702Y005767D01*
X030730Y005766D01*
X030757Y005761D01*
X030783Y005753D01*
X030807Y005741D01*
X030830Y005725D01*
X030851Y005707D01*
X030868Y005686D01*
X030883Y005662D01*
X030894Y005637D01*
X030902Y005611D01*
X030906Y005584D01*
X030906Y005556D01*
X030902Y005529D01*
X030894Y005503D01*
X030883Y005478D01*
X030868Y005454D01*
X030851Y005433D01*
X030830Y005415D01*
X030808Y005399D01*
X030783Y005387D01*
X030757Y005379D01*
X030730Y005374D01*
X030702Y005373D01*
X030675Y005376D01*
X030648Y005383D01*
X030623Y005393D01*
X030599Y005407D01*
X030577Y005424D01*
X030558Y005443D01*
X030542Y005466D01*
X030529Y005490D01*
X030520Y005516D01*
X030514Y005543D01*
X030512Y005570D01*
X030551Y005570D02*
X030553Y005597D01*
X030559Y005624D01*
X030568Y005650D01*
X030581Y005674D01*
X030597Y005697D01*
X030616Y005716D01*
X030638Y005733D01*
X030662Y005747D01*
X030687Y005757D01*
X030714Y005764D01*
X030741Y005767D01*
X030769Y005766D01*
X030796Y005761D01*
X030822Y005753D01*
X030846Y005741D01*
X030869Y005725D01*
X030890Y005707D01*
X030907Y005686D01*
X030922Y005662D01*
X030933Y005637D01*
X030941Y005611D01*
X030945Y005584D01*
X030945Y005556D01*
X030941Y005529D01*
X030933Y005503D01*
X030922Y005478D01*
X030907Y005454D01*
X030890Y005433D01*
X030869Y005415D01*
X030847Y005399D01*
X030822Y005387D01*
X030796Y005379D01*
X030769Y005374D01*
X030741Y005373D01*
X030714Y005376D01*
X030687Y005383D01*
X030662Y005393D01*
X030638Y005407D01*
X030616Y005424D01*
X030597Y005443D01*
X030581Y005466D01*
X030568Y005490D01*
X030559Y005516D01*
X030553Y005543D01*
X030551Y005570D01*
X030590Y005570D02*
X030592Y005597D01*
X030598Y005624D01*
X030607Y005650D01*
X030620Y005674D01*
X030636Y005697D01*
X030655Y005716D01*
X030677Y005733D01*
X030701Y005747D01*
X030726Y005757D01*
X030753Y005764D01*
X030780Y005767D01*
X030808Y005766D01*
X030835Y005761D01*
X030861Y005753D01*
X030885Y005741D01*
X030908Y005725D01*
X030929Y005707D01*
X030946Y005686D01*
X030961Y005662D01*
X030972Y005637D01*
X030980Y005611D01*
X030984Y005584D01*
X030984Y005556D01*
X030980Y005529D01*
X030972Y005503D01*
X030961Y005478D01*
X030946Y005454D01*
X030929Y005433D01*
X030908Y005415D01*
X030886Y005399D01*
X030861Y005387D01*
X030835Y005379D01*
X030808Y005374D01*
X030780Y005373D01*
X030753Y005376D01*
X030726Y005383D01*
X030701Y005393D01*
X030677Y005407D01*
X030655Y005424D01*
X030636Y005443D01*
X030620Y005466D01*
X030607Y005490D01*
X030598Y005516D01*
X030592Y005543D01*
X030590Y005570D01*
X030630Y005570D02*
X030632Y005597D01*
X030638Y005624D01*
X030647Y005650D01*
X030660Y005674D01*
X030676Y005697D01*
X030695Y005716D01*
X030717Y005733D01*
X030741Y005747D01*
X030766Y005757D01*
X030793Y005764D01*
X030820Y005767D01*
X030848Y005766D01*
X030875Y005761D01*
X030901Y005753D01*
X030925Y005741D01*
X030948Y005725D01*
X030969Y005707D01*
X030986Y005686D01*
X031001Y005662D01*
X031012Y005637D01*
X031020Y005611D01*
X031024Y005584D01*
X031024Y005556D01*
X031020Y005529D01*
X031012Y005503D01*
X031001Y005478D01*
X030986Y005454D01*
X030969Y005433D01*
X030948Y005415D01*
X030926Y005399D01*
X030901Y005387D01*
X030875Y005379D01*
X030848Y005374D01*
X030820Y005373D01*
X030793Y005376D01*
X030766Y005383D01*
X030741Y005393D01*
X030717Y005407D01*
X030695Y005424D01*
X030676Y005443D01*
X030660Y005466D01*
X030647Y005490D01*
X030638Y005516D01*
X030632Y005543D01*
X030630Y005570D01*
X030669Y005570D02*
X030671Y005597D01*
X030677Y005624D01*
X030686Y005650D01*
X030699Y005674D01*
X030715Y005697D01*
X030734Y005716D01*
X030756Y005733D01*
X030780Y005747D01*
X030805Y005757D01*
X030832Y005764D01*
X030859Y005767D01*
X030887Y005766D01*
X030914Y005761D01*
X030940Y005753D01*
X030964Y005741D01*
X030987Y005725D01*
X031008Y005707D01*
X031025Y005686D01*
X031040Y005662D01*
X031051Y005637D01*
X031059Y005611D01*
X031063Y005584D01*
X031063Y005556D01*
X031059Y005529D01*
X031051Y005503D01*
X031040Y005478D01*
X031025Y005454D01*
X031008Y005433D01*
X030987Y005415D01*
X030965Y005399D01*
X030940Y005387D01*
X030914Y005379D01*
X030887Y005374D01*
X030859Y005373D01*
X030832Y005376D01*
X030805Y005383D01*
X030780Y005393D01*
X030756Y005407D01*
X030734Y005424D01*
X030715Y005443D01*
X030699Y005466D01*
X030686Y005490D01*
X030677Y005516D01*
X030671Y005543D01*
X030669Y005570D01*
X030709Y005570D02*
X030711Y005597D01*
X030717Y005624D01*
X030726Y005650D01*
X030739Y005674D01*
X030755Y005697D01*
X030774Y005716D01*
X030796Y005733D01*
X030820Y005747D01*
X030845Y005757D01*
X030872Y005764D01*
X030899Y005767D01*
X030927Y005766D01*
X030954Y005761D01*
X030980Y005753D01*
X031004Y005741D01*
X031027Y005725D01*
X031048Y005707D01*
X031065Y005686D01*
X031080Y005662D01*
X031091Y005637D01*
X031099Y005611D01*
X031103Y005584D01*
X031103Y005556D01*
X031099Y005529D01*
X031091Y005503D01*
X031080Y005478D01*
X031065Y005454D01*
X031048Y005433D01*
X031027Y005415D01*
X031005Y005399D01*
X030980Y005387D01*
X030954Y005379D01*
X030927Y005374D01*
X030899Y005373D01*
X030872Y005376D01*
X030845Y005383D01*
X030820Y005393D01*
X030796Y005407D01*
X030774Y005424D01*
X030755Y005443D01*
X030739Y005466D01*
X030726Y005490D01*
X030717Y005516D01*
X030711Y005543D01*
X030709Y005570D01*
X030748Y005570D02*
X030750Y005597D01*
X030756Y005624D01*
X030765Y005650D01*
X030778Y005674D01*
X030794Y005697D01*
X030813Y005716D01*
X030835Y005733D01*
X030859Y005747D01*
X030884Y005757D01*
X030911Y005764D01*
X030938Y005767D01*
X030966Y005766D01*
X030993Y005761D01*
X031019Y005753D01*
X031043Y005741D01*
X031066Y005725D01*
X031087Y005707D01*
X031104Y005686D01*
X031119Y005662D01*
X031130Y005637D01*
X031138Y005611D01*
X031142Y005584D01*
X031142Y005556D01*
X031138Y005529D01*
X031130Y005503D01*
X031119Y005478D01*
X031104Y005454D01*
X031087Y005433D01*
X031066Y005415D01*
X031044Y005399D01*
X031019Y005387D01*
X030993Y005379D01*
X030966Y005374D01*
X030938Y005373D01*
X030911Y005376D01*
X030884Y005383D01*
X030859Y005393D01*
X030835Y005407D01*
X030813Y005424D01*
X030794Y005443D01*
X030778Y005466D01*
X030765Y005490D01*
X030756Y005516D01*
X030750Y005543D01*
X030748Y005570D01*
X030787Y005570D02*
X030789Y005597D01*
X030795Y005624D01*
X030804Y005650D01*
X030817Y005674D01*
X030833Y005697D01*
X030852Y005716D01*
X030874Y005733D01*
X030898Y005747D01*
X030923Y005757D01*
X030950Y005764D01*
X030977Y005767D01*
X031005Y005766D01*
X031032Y005761D01*
X031058Y005753D01*
X031082Y005741D01*
X031105Y005725D01*
X031126Y005707D01*
X031143Y005686D01*
X031158Y005662D01*
X031169Y005637D01*
X031177Y005611D01*
X031181Y005584D01*
X031181Y005556D01*
X031177Y005529D01*
X031169Y005503D01*
X031158Y005478D01*
X031143Y005454D01*
X031126Y005433D01*
X031105Y005415D01*
X031083Y005399D01*
X031058Y005387D01*
X031032Y005379D01*
X031005Y005374D01*
X030977Y005373D01*
X030950Y005376D01*
X030923Y005383D01*
X030898Y005393D01*
X030874Y005407D01*
X030852Y005424D01*
X030833Y005443D01*
X030817Y005466D01*
X030804Y005490D01*
X030795Y005516D01*
X030789Y005543D01*
X030787Y005570D01*
X030827Y005570D02*
X030829Y005597D01*
X030835Y005624D01*
X030844Y005650D01*
X030857Y005674D01*
X030873Y005697D01*
X030892Y005716D01*
X030914Y005733D01*
X030938Y005747D01*
X030963Y005757D01*
X030990Y005764D01*
X031017Y005767D01*
X031045Y005766D01*
X031072Y005761D01*
X031098Y005753D01*
X031122Y005741D01*
X031145Y005725D01*
X031166Y005707D01*
X031183Y005686D01*
X031198Y005662D01*
X031209Y005637D01*
X031217Y005611D01*
X031221Y005584D01*
X031221Y005556D01*
X031217Y005529D01*
X031209Y005503D01*
X031198Y005478D01*
X031183Y005454D01*
X031166Y005433D01*
X031145Y005415D01*
X031123Y005399D01*
X031098Y005387D01*
X031072Y005379D01*
X031045Y005374D01*
X031017Y005373D01*
X030990Y005376D01*
X030963Y005383D01*
X030938Y005393D01*
X030914Y005407D01*
X030892Y005424D01*
X030873Y005443D01*
X030857Y005466D01*
X030844Y005490D01*
X030835Y005516D01*
X030829Y005543D01*
X030827Y005570D01*
X030866Y005570D02*
X030868Y005597D01*
X030874Y005624D01*
X030883Y005650D01*
X030896Y005674D01*
X030912Y005697D01*
X030931Y005716D01*
X030953Y005733D01*
X030977Y005747D01*
X031002Y005757D01*
X031029Y005764D01*
X031056Y005767D01*
X031084Y005766D01*
X031111Y005761D01*
X031137Y005753D01*
X031161Y005741D01*
X031184Y005725D01*
X031205Y005707D01*
X031222Y005686D01*
X031237Y005662D01*
X031248Y005637D01*
X031256Y005611D01*
X031260Y005584D01*
X031260Y005556D01*
X031256Y005529D01*
X031248Y005503D01*
X031237Y005478D01*
X031222Y005454D01*
X031205Y005433D01*
X031184Y005415D01*
X031162Y005399D01*
X031137Y005387D01*
X031111Y005379D01*
X031084Y005374D01*
X031056Y005373D01*
X031029Y005376D01*
X031002Y005383D01*
X030977Y005393D01*
X030953Y005407D01*
X030931Y005424D01*
X030912Y005443D01*
X030896Y005466D01*
X030883Y005490D01*
X030874Y005516D01*
X030868Y005543D01*
X030866Y005570D01*
X030905Y005570D02*
X030907Y005597D01*
X030913Y005624D01*
X030922Y005650D01*
X030935Y005674D01*
X030951Y005697D01*
X030970Y005716D01*
X030992Y005733D01*
X031016Y005747D01*
X031041Y005757D01*
X031068Y005764D01*
X031095Y005767D01*
X031123Y005766D01*
X031150Y005761D01*
X031176Y005753D01*
X031200Y005741D01*
X031223Y005725D01*
X031244Y005707D01*
X031261Y005686D01*
X031276Y005662D01*
X031287Y005637D01*
X031295Y005611D01*
X031299Y005584D01*
X031299Y005556D01*
X031295Y005529D01*
X031287Y005503D01*
X031276Y005478D01*
X031261Y005454D01*
X031244Y005433D01*
X031223Y005415D01*
X031201Y005399D01*
X031176Y005387D01*
X031150Y005379D01*
X031123Y005374D01*
X031095Y005373D01*
X031068Y005376D01*
X031041Y005383D01*
X031016Y005393D01*
X030992Y005407D01*
X030970Y005424D01*
X030951Y005443D01*
X030935Y005466D01*
X030922Y005490D01*
X030913Y005516D01*
X030907Y005543D01*
X030905Y005570D01*
X030945Y005570D02*
X030947Y005597D01*
X030953Y005624D01*
X030962Y005650D01*
X030975Y005674D01*
X030991Y005697D01*
X031010Y005716D01*
X031032Y005733D01*
X031056Y005747D01*
X031081Y005757D01*
X031108Y005764D01*
X031135Y005767D01*
X031163Y005766D01*
X031190Y005761D01*
X031216Y005753D01*
X031240Y005741D01*
X031263Y005725D01*
X031284Y005707D01*
X031301Y005686D01*
X031316Y005662D01*
X031327Y005637D01*
X031335Y005611D01*
X031339Y005584D01*
X031339Y005556D01*
X031335Y005529D01*
X031327Y005503D01*
X031316Y005478D01*
X031301Y005454D01*
X031284Y005433D01*
X031263Y005415D01*
X031241Y005399D01*
X031216Y005387D01*
X031190Y005379D01*
X031163Y005374D01*
X031135Y005373D01*
X031108Y005376D01*
X031081Y005383D01*
X031056Y005393D01*
X031032Y005407D01*
X031010Y005424D01*
X030991Y005443D01*
X030975Y005466D01*
X030962Y005490D01*
X030953Y005516D01*
X030947Y005543D01*
X030945Y005570D01*
X030984Y005570D02*
X030986Y005597D01*
X030992Y005624D01*
X031001Y005650D01*
X031014Y005674D01*
X031030Y005697D01*
X031049Y005716D01*
X031071Y005733D01*
X031095Y005747D01*
X031120Y005757D01*
X031147Y005764D01*
X031174Y005767D01*
X031202Y005766D01*
X031229Y005761D01*
X031255Y005753D01*
X031279Y005741D01*
X031302Y005725D01*
X031323Y005707D01*
X031340Y005686D01*
X031355Y005662D01*
X031366Y005637D01*
X031374Y005611D01*
X031378Y005584D01*
X031378Y005556D01*
X031374Y005529D01*
X031366Y005503D01*
X031355Y005478D01*
X031340Y005454D01*
X031323Y005433D01*
X031302Y005415D01*
X031280Y005399D01*
X031255Y005387D01*
X031229Y005379D01*
X031202Y005374D01*
X031174Y005373D01*
X031147Y005376D01*
X031120Y005383D01*
X031095Y005393D01*
X031071Y005407D01*
X031049Y005424D01*
X031030Y005443D01*
X031014Y005466D01*
X031001Y005490D01*
X030992Y005516D01*
X030986Y005543D01*
X030984Y005570D01*
X031024Y005570D02*
X031026Y005597D01*
X031032Y005624D01*
X031041Y005650D01*
X031054Y005674D01*
X031070Y005697D01*
X031089Y005716D01*
X031111Y005733D01*
X031135Y005747D01*
X031160Y005757D01*
X031187Y005764D01*
X031214Y005767D01*
X031242Y005766D01*
X031269Y005761D01*
X031295Y005753D01*
X031319Y005741D01*
X031342Y005725D01*
X031363Y005707D01*
X031380Y005686D01*
X031395Y005662D01*
X031406Y005637D01*
X031414Y005611D01*
X031418Y005584D01*
X031418Y005556D01*
X031414Y005529D01*
X031406Y005503D01*
X031395Y005478D01*
X031380Y005454D01*
X031363Y005433D01*
X031342Y005415D01*
X031320Y005399D01*
X031295Y005387D01*
X031269Y005379D01*
X031242Y005374D01*
X031214Y005373D01*
X031187Y005376D01*
X031160Y005383D01*
X031135Y005393D01*
X031111Y005407D01*
X031089Y005424D01*
X031070Y005443D01*
X031054Y005466D01*
X031041Y005490D01*
X031032Y005516D01*
X031026Y005543D01*
X031024Y005570D01*
X031063Y005570D02*
X031065Y005597D01*
X031071Y005624D01*
X031080Y005650D01*
X031093Y005674D01*
X031109Y005697D01*
X031128Y005716D01*
X031150Y005733D01*
X031174Y005747D01*
X031199Y005757D01*
X031226Y005764D01*
X031253Y005767D01*
X031281Y005766D01*
X031308Y005761D01*
X031334Y005753D01*
X031358Y005741D01*
X031381Y005725D01*
X031402Y005707D01*
X031419Y005686D01*
X031434Y005662D01*
X031445Y005637D01*
X031453Y005611D01*
X031457Y005584D01*
X031457Y005556D01*
X031453Y005529D01*
X031445Y005503D01*
X031434Y005478D01*
X031419Y005454D01*
X031402Y005433D01*
X031381Y005415D01*
X031359Y005399D01*
X031334Y005387D01*
X031308Y005379D01*
X031281Y005374D01*
X031253Y005373D01*
X031226Y005376D01*
X031199Y005383D01*
X031174Y005393D01*
X031150Y005407D01*
X031128Y005424D01*
X031109Y005443D01*
X031093Y005466D01*
X031080Y005490D01*
X031071Y005516D01*
X031065Y005543D01*
X031063Y005570D01*
X031102Y005570D02*
X031104Y005597D01*
X031110Y005624D01*
X031119Y005650D01*
X031132Y005674D01*
X031148Y005697D01*
X031167Y005716D01*
X031189Y005733D01*
X031213Y005747D01*
X031238Y005757D01*
X031265Y005764D01*
X031292Y005767D01*
X031320Y005766D01*
X031347Y005761D01*
X031373Y005753D01*
X031397Y005741D01*
X031420Y005725D01*
X031441Y005707D01*
X031458Y005686D01*
X031473Y005662D01*
X031484Y005637D01*
X031492Y005611D01*
X031496Y005584D01*
X031496Y005556D01*
X031492Y005529D01*
X031484Y005503D01*
X031473Y005478D01*
X031458Y005454D01*
X031441Y005433D01*
X031420Y005415D01*
X031398Y005399D01*
X031373Y005387D01*
X031347Y005379D01*
X031320Y005374D01*
X031292Y005373D01*
X031265Y005376D01*
X031238Y005383D01*
X031213Y005393D01*
X031189Y005407D01*
X031167Y005424D01*
X031148Y005443D01*
X031132Y005466D01*
X031119Y005490D01*
X031110Y005516D01*
X031104Y005543D01*
X031102Y005570D01*
X031181Y005570D02*
X031183Y005597D01*
X031189Y005624D01*
X031198Y005650D01*
X031211Y005674D01*
X031227Y005697D01*
X031246Y005716D01*
X031268Y005733D01*
X031292Y005747D01*
X031317Y005757D01*
X031344Y005764D01*
X031371Y005767D01*
X031399Y005766D01*
X031426Y005761D01*
X031452Y005753D01*
X031476Y005741D01*
X031499Y005725D01*
X031520Y005707D01*
X031537Y005686D01*
X031552Y005662D01*
X031563Y005637D01*
X031571Y005611D01*
X031575Y005584D01*
X031575Y005556D01*
X031571Y005529D01*
X031563Y005503D01*
X031552Y005478D01*
X031537Y005454D01*
X031520Y005433D01*
X031499Y005415D01*
X031477Y005399D01*
X031452Y005387D01*
X031426Y005379D01*
X031399Y005374D01*
X031371Y005373D01*
X031344Y005376D01*
X031317Y005383D01*
X031292Y005393D01*
X031268Y005407D01*
X031246Y005424D01*
X031227Y005443D01*
X031211Y005466D01*
X031198Y005490D01*
X031189Y005516D01*
X031183Y005543D01*
X031181Y005570D01*
X031220Y005570D02*
X031222Y005597D01*
X031228Y005624D01*
X031237Y005650D01*
X031250Y005674D01*
X031266Y005697D01*
X031285Y005716D01*
X031307Y005733D01*
X031331Y005747D01*
X031356Y005757D01*
X031383Y005764D01*
X031410Y005767D01*
X031438Y005766D01*
X031465Y005761D01*
X031491Y005753D01*
X031515Y005741D01*
X031538Y005725D01*
X031559Y005707D01*
X031576Y005686D01*
X031591Y005662D01*
X031602Y005637D01*
X031610Y005611D01*
X031614Y005584D01*
X031614Y005556D01*
X031610Y005529D01*
X031602Y005503D01*
X031591Y005478D01*
X031576Y005454D01*
X031559Y005433D01*
X031538Y005415D01*
X031516Y005399D01*
X031491Y005387D01*
X031465Y005379D01*
X031438Y005374D01*
X031410Y005373D01*
X031383Y005376D01*
X031356Y005383D01*
X031331Y005393D01*
X031307Y005407D01*
X031285Y005424D01*
X031266Y005443D01*
X031250Y005466D01*
X031237Y005490D01*
X031228Y005516D01*
X031222Y005543D01*
X031220Y005570D01*
X031260Y005570D02*
X031262Y005597D01*
X031268Y005624D01*
X031277Y005650D01*
X031290Y005674D01*
X031306Y005697D01*
X031325Y005716D01*
X031347Y005733D01*
X031371Y005747D01*
X031396Y005757D01*
X031423Y005764D01*
X031450Y005767D01*
X031478Y005766D01*
X031505Y005761D01*
X031531Y005753D01*
X031555Y005741D01*
X031578Y005725D01*
X031599Y005707D01*
X031616Y005686D01*
X031631Y005662D01*
X031642Y005637D01*
X031650Y005611D01*
X031654Y005584D01*
X031654Y005556D01*
X031650Y005529D01*
X031642Y005503D01*
X031631Y005478D01*
X031616Y005454D01*
X031599Y005433D01*
X031578Y005415D01*
X031556Y005399D01*
X031531Y005387D01*
X031505Y005379D01*
X031478Y005374D01*
X031450Y005373D01*
X031423Y005376D01*
X031396Y005383D01*
X031371Y005393D01*
X031347Y005407D01*
X031325Y005424D01*
X031306Y005443D01*
X031290Y005466D01*
X031277Y005490D01*
X031268Y005516D01*
X031262Y005543D01*
X031260Y005570D01*
X031299Y005570D02*
X031301Y005597D01*
X031307Y005624D01*
X031316Y005650D01*
X031329Y005674D01*
X031345Y005697D01*
X031364Y005716D01*
X031386Y005733D01*
X031410Y005747D01*
X031435Y005757D01*
X031462Y005764D01*
X031489Y005767D01*
X031517Y005766D01*
X031544Y005761D01*
X031570Y005753D01*
X031594Y005741D01*
X031617Y005725D01*
X031638Y005707D01*
X031655Y005686D01*
X031670Y005662D01*
X031681Y005637D01*
X031689Y005611D01*
X031693Y005584D01*
X031693Y005556D01*
X031689Y005529D01*
X031681Y005503D01*
X031670Y005478D01*
X031655Y005454D01*
X031638Y005433D01*
X031617Y005415D01*
X031595Y005399D01*
X031570Y005387D01*
X031544Y005379D01*
X031517Y005374D01*
X031489Y005373D01*
X031462Y005376D01*
X031435Y005383D01*
X031410Y005393D01*
X031386Y005407D01*
X031364Y005424D01*
X031345Y005443D01*
X031329Y005466D01*
X031316Y005490D01*
X031307Y005516D01*
X031301Y005543D01*
X031299Y005570D01*
X031339Y005570D02*
X031341Y005597D01*
X031347Y005624D01*
X031356Y005650D01*
X031369Y005674D01*
X031385Y005697D01*
X031404Y005716D01*
X031426Y005733D01*
X031450Y005747D01*
X031475Y005757D01*
X031502Y005764D01*
X031529Y005767D01*
X031557Y005766D01*
X031584Y005761D01*
X031610Y005753D01*
X031634Y005741D01*
X031657Y005725D01*
X031678Y005707D01*
X031695Y005686D01*
X031710Y005662D01*
X031721Y005637D01*
X031729Y005611D01*
X031733Y005584D01*
X031733Y005556D01*
X031729Y005529D01*
X031721Y005503D01*
X031710Y005478D01*
X031695Y005454D01*
X031678Y005433D01*
X031657Y005415D01*
X031635Y005399D01*
X031610Y005387D01*
X031584Y005379D01*
X031557Y005374D01*
X031529Y005373D01*
X031502Y005376D01*
X031475Y005383D01*
X031450Y005393D01*
X031426Y005407D01*
X031404Y005424D01*
X031385Y005443D01*
X031369Y005466D01*
X031356Y005490D01*
X031347Y005516D01*
X031341Y005543D01*
X031339Y005570D01*
X031378Y005570D02*
X031380Y005597D01*
X031386Y005624D01*
X031395Y005650D01*
X031408Y005674D01*
X031424Y005697D01*
X031443Y005716D01*
X031465Y005733D01*
X031489Y005747D01*
X031514Y005757D01*
X031541Y005764D01*
X031568Y005767D01*
X031596Y005766D01*
X031623Y005761D01*
X031649Y005753D01*
X031673Y005741D01*
X031696Y005725D01*
X031717Y005707D01*
X031734Y005686D01*
X031749Y005662D01*
X031760Y005637D01*
X031768Y005611D01*
X031772Y005584D01*
X031772Y005556D01*
X031768Y005529D01*
X031760Y005503D01*
X031749Y005478D01*
X031734Y005454D01*
X031717Y005433D01*
X031696Y005415D01*
X031674Y005399D01*
X031649Y005387D01*
X031623Y005379D01*
X031596Y005374D01*
X031568Y005373D01*
X031541Y005376D01*
X031514Y005383D01*
X031489Y005393D01*
X031465Y005407D01*
X031443Y005424D01*
X031424Y005443D01*
X031408Y005466D01*
X031395Y005490D01*
X031386Y005516D01*
X031380Y005543D01*
X031378Y005570D01*
X031417Y005570D02*
X031419Y005597D01*
X031425Y005624D01*
X031434Y005650D01*
X031447Y005674D01*
X031463Y005697D01*
X031482Y005716D01*
X031504Y005733D01*
X031528Y005747D01*
X031553Y005757D01*
X031580Y005764D01*
X031607Y005767D01*
X031635Y005766D01*
X031662Y005761D01*
X031688Y005753D01*
X031712Y005741D01*
X031735Y005725D01*
X031756Y005707D01*
X031773Y005686D01*
X031788Y005662D01*
X031799Y005637D01*
X031807Y005611D01*
X031811Y005584D01*
X031811Y005556D01*
X031807Y005529D01*
X031799Y005503D01*
X031788Y005478D01*
X031773Y005454D01*
X031756Y005433D01*
X031735Y005415D01*
X031713Y005399D01*
X031688Y005387D01*
X031662Y005379D01*
X031635Y005374D01*
X031607Y005373D01*
X031580Y005376D01*
X031553Y005383D01*
X031528Y005393D01*
X031504Y005407D01*
X031482Y005424D01*
X031463Y005443D01*
X031447Y005466D01*
X031434Y005490D01*
X031425Y005516D01*
X031419Y005543D01*
X031417Y005570D01*
X031457Y005570D02*
X031459Y005597D01*
X031465Y005624D01*
X031474Y005650D01*
X031487Y005674D01*
X031503Y005697D01*
X031522Y005716D01*
X031544Y005733D01*
X031568Y005747D01*
X031593Y005757D01*
X031620Y005764D01*
X031647Y005767D01*
X031675Y005766D01*
X031702Y005761D01*
X031728Y005753D01*
X031752Y005741D01*
X031775Y005725D01*
X031796Y005707D01*
X031813Y005686D01*
X031828Y005662D01*
X031839Y005637D01*
X031847Y005611D01*
X031851Y005584D01*
X031851Y005556D01*
X031847Y005529D01*
X031839Y005503D01*
X031828Y005478D01*
X031813Y005454D01*
X031796Y005433D01*
X031775Y005415D01*
X031753Y005399D01*
X031728Y005387D01*
X031702Y005379D01*
X031675Y005374D01*
X031647Y005373D01*
X031620Y005376D01*
X031593Y005383D01*
X031568Y005393D01*
X031544Y005407D01*
X031522Y005424D01*
X031503Y005443D01*
X031487Y005466D01*
X031474Y005490D01*
X031465Y005516D01*
X031459Y005543D01*
X031457Y005570D01*
X031496Y005570D02*
X031498Y005597D01*
X031504Y005624D01*
X031513Y005650D01*
X031526Y005674D01*
X031542Y005697D01*
X031561Y005716D01*
X031583Y005733D01*
X031607Y005747D01*
X031632Y005757D01*
X031659Y005764D01*
X031686Y005767D01*
X031714Y005766D01*
X031741Y005761D01*
X031767Y005753D01*
X031791Y005741D01*
X031814Y005725D01*
X031835Y005707D01*
X031852Y005686D01*
X031867Y005662D01*
X031878Y005637D01*
X031886Y005611D01*
X031890Y005584D01*
X031890Y005556D01*
X031886Y005529D01*
X031878Y005503D01*
X031867Y005478D01*
X031852Y005454D01*
X031835Y005433D01*
X031814Y005415D01*
X031792Y005399D01*
X031767Y005387D01*
X031741Y005379D01*
X031714Y005374D01*
X031686Y005373D01*
X031659Y005376D01*
X031632Y005383D01*
X031607Y005393D01*
X031583Y005407D01*
X031561Y005424D01*
X031542Y005443D01*
X031526Y005466D01*
X031513Y005490D01*
X031504Y005516D01*
X031498Y005543D01*
X031496Y005570D01*
X031535Y005570D02*
X031537Y005597D01*
X031543Y005624D01*
X031552Y005650D01*
X031565Y005674D01*
X031581Y005697D01*
X031600Y005716D01*
X031622Y005733D01*
X031646Y005747D01*
X031671Y005757D01*
X031698Y005764D01*
X031725Y005767D01*
X031753Y005766D01*
X031780Y005761D01*
X031806Y005753D01*
X031830Y005741D01*
X031853Y005725D01*
X031874Y005707D01*
X031891Y005686D01*
X031906Y005662D01*
X031917Y005637D01*
X031925Y005611D01*
X031929Y005584D01*
X031929Y005556D01*
X031925Y005529D01*
X031917Y005503D01*
X031906Y005478D01*
X031891Y005454D01*
X031874Y005433D01*
X031853Y005415D01*
X031831Y005399D01*
X031806Y005387D01*
X031780Y005379D01*
X031753Y005374D01*
X031725Y005373D01*
X031698Y005376D01*
X031671Y005383D01*
X031646Y005393D01*
X031622Y005407D01*
X031600Y005424D01*
X031581Y005443D01*
X031565Y005466D01*
X031552Y005490D01*
X031543Y005516D01*
X031537Y005543D01*
X031535Y005570D01*
X031575Y005570D02*
X031577Y005597D01*
X031583Y005624D01*
X031592Y005650D01*
X031605Y005674D01*
X031621Y005697D01*
X031640Y005716D01*
X031662Y005733D01*
X031686Y005747D01*
X031711Y005757D01*
X031738Y005764D01*
X031765Y005767D01*
X031793Y005766D01*
X031820Y005761D01*
X031846Y005753D01*
X031870Y005741D01*
X031893Y005725D01*
X031914Y005707D01*
X031931Y005686D01*
X031946Y005662D01*
X031957Y005637D01*
X031965Y005611D01*
X031969Y005584D01*
X031969Y005556D01*
X031965Y005529D01*
X031957Y005503D01*
X031946Y005478D01*
X031931Y005454D01*
X031914Y005433D01*
X031893Y005415D01*
X031871Y005399D01*
X031846Y005387D01*
X031820Y005379D01*
X031793Y005374D01*
X031765Y005373D01*
X031738Y005376D01*
X031711Y005383D01*
X031686Y005393D01*
X031662Y005407D01*
X031640Y005424D01*
X031621Y005443D01*
X031605Y005466D01*
X031592Y005490D01*
X031583Y005516D01*
X031577Y005543D01*
X031575Y005570D01*
X031614Y005570D02*
X031616Y005597D01*
X031622Y005624D01*
X031631Y005650D01*
X031644Y005674D01*
X031660Y005697D01*
X031679Y005716D01*
X031701Y005733D01*
X031725Y005747D01*
X031750Y005757D01*
X031777Y005764D01*
X031804Y005767D01*
X031832Y005766D01*
X031859Y005761D01*
X031885Y005753D01*
X031909Y005741D01*
X031932Y005725D01*
X031953Y005707D01*
X031970Y005686D01*
X031985Y005662D01*
X031996Y005637D01*
X032004Y005611D01*
X032008Y005584D01*
X032008Y005556D01*
X032004Y005529D01*
X031996Y005503D01*
X031985Y005478D01*
X031970Y005454D01*
X031953Y005433D01*
X031932Y005415D01*
X031910Y005399D01*
X031885Y005387D01*
X031859Y005379D01*
X031832Y005374D01*
X031804Y005373D01*
X031777Y005376D01*
X031750Y005383D01*
X031725Y005393D01*
X031701Y005407D01*
X031679Y005424D01*
X031660Y005443D01*
X031644Y005466D01*
X031631Y005490D01*
X031622Y005516D01*
X031616Y005543D01*
X031614Y005570D01*
X031653Y005570D02*
X031655Y005597D01*
X031661Y005624D01*
X031670Y005650D01*
X031683Y005674D01*
X031699Y005697D01*
X031718Y005716D01*
X031740Y005733D01*
X031764Y005747D01*
X031789Y005757D01*
X031816Y005764D01*
X031843Y005767D01*
X031871Y005766D01*
X031898Y005761D01*
X031924Y005753D01*
X031948Y005741D01*
X031971Y005725D01*
X031992Y005707D01*
X032009Y005686D01*
X032024Y005662D01*
X032035Y005637D01*
X032043Y005611D01*
X032047Y005584D01*
X032047Y005556D01*
X032043Y005529D01*
X032035Y005503D01*
X032024Y005478D01*
X032009Y005454D01*
X031992Y005433D01*
X031971Y005415D01*
X031949Y005399D01*
X031924Y005387D01*
X031898Y005379D01*
X031871Y005374D01*
X031843Y005373D01*
X031816Y005376D01*
X031789Y005383D01*
X031764Y005393D01*
X031740Y005407D01*
X031718Y005424D01*
X031699Y005443D01*
X031683Y005466D01*
X031670Y005490D01*
X031661Y005516D01*
X031655Y005543D01*
X031653Y005570D01*
X031693Y005570D02*
X031695Y005597D01*
X031701Y005624D01*
X031710Y005650D01*
X031723Y005674D01*
X031739Y005697D01*
X031758Y005716D01*
X031780Y005733D01*
X031804Y005747D01*
X031829Y005757D01*
X031856Y005764D01*
X031883Y005767D01*
X031911Y005766D01*
X031938Y005761D01*
X031964Y005753D01*
X031988Y005741D01*
X032011Y005725D01*
X032032Y005707D01*
X032049Y005686D01*
X032064Y005662D01*
X032075Y005637D01*
X032083Y005611D01*
X032087Y005584D01*
X032087Y005556D01*
X032083Y005529D01*
X032075Y005503D01*
X032064Y005478D01*
X032049Y005454D01*
X032032Y005433D01*
X032011Y005415D01*
X031989Y005399D01*
X031964Y005387D01*
X031938Y005379D01*
X031911Y005374D01*
X031883Y005373D01*
X031856Y005376D01*
X031829Y005383D01*
X031804Y005393D01*
X031780Y005407D01*
X031758Y005424D01*
X031739Y005443D01*
X031723Y005466D01*
X031710Y005490D01*
X031701Y005516D01*
X031695Y005543D01*
X031693Y005570D01*
X031732Y005570D02*
X031734Y005597D01*
X031740Y005624D01*
X031749Y005650D01*
X031762Y005674D01*
X031778Y005697D01*
X031797Y005716D01*
X031819Y005733D01*
X031843Y005747D01*
X031868Y005757D01*
X031895Y005764D01*
X031922Y005767D01*
X031950Y005766D01*
X031977Y005761D01*
X032003Y005753D01*
X032027Y005741D01*
X032050Y005725D01*
X032071Y005707D01*
X032088Y005686D01*
X032103Y005662D01*
X032114Y005637D01*
X032122Y005611D01*
X032126Y005584D01*
X032126Y005556D01*
X032122Y005529D01*
X032114Y005503D01*
X032103Y005478D01*
X032088Y005454D01*
X032071Y005433D01*
X032050Y005415D01*
X032028Y005399D01*
X032003Y005387D01*
X031977Y005379D01*
X031950Y005374D01*
X031922Y005373D01*
X031895Y005376D01*
X031868Y005383D01*
X031843Y005393D01*
X031819Y005407D01*
X031797Y005424D01*
X031778Y005443D01*
X031762Y005466D01*
X031749Y005490D01*
X031740Y005516D01*
X031734Y005543D01*
X031732Y005570D01*
X031772Y005570D02*
X031774Y005597D01*
X031780Y005624D01*
X031789Y005650D01*
X031802Y005674D01*
X031818Y005697D01*
X031837Y005716D01*
X031859Y005733D01*
X031883Y005747D01*
X031908Y005757D01*
X031935Y005764D01*
X031962Y005767D01*
X031990Y005766D01*
X032017Y005761D01*
X032043Y005753D01*
X032067Y005741D01*
X032090Y005725D01*
X032111Y005707D01*
X032128Y005686D01*
X032143Y005662D01*
X032154Y005637D01*
X032162Y005611D01*
X032166Y005584D01*
X032166Y005556D01*
X032162Y005529D01*
X032154Y005503D01*
X032143Y005478D01*
X032128Y005454D01*
X032111Y005433D01*
X032090Y005415D01*
X032068Y005399D01*
X032043Y005387D01*
X032017Y005379D01*
X031990Y005374D01*
X031962Y005373D01*
X031935Y005376D01*
X031908Y005383D01*
X031883Y005393D01*
X031859Y005407D01*
X031837Y005424D01*
X031818Y005443D01*
X031802Y005466D01*
X031789Y005490D01*
X031780Y005516D01*
X031774Y005543D01*
X031772Y005570D01*
X031811Y005570D02*
X031813Y005597D01*
X031819Y005624D01*
X031828Y005650D01*
X031841Y005674D01*
X031857Y005697D01*
X031876Y005716D01*
X031898Y005733D01*
X031922Y005747D01*
X031947Y005757D01*
X031974Y005764D01*
X032001Y005767D01*
X032029Y005766D01*
X032056Y005761D01*
X032082Y005753D01*
X032106Y005741D01*
X032129Y005725D01*
X032150Y005707D01*
X032167Y005686D01*
X032182Y005662D01*
X032193Y005637D01*
X032201Y005611D01*
X032205Y005584D01*
X032205Y005556D01*
X032201Y005529D01*
X032193Y005503D01*
X032182Y005478D01*
X032167Y005454D01*
X032150Y005433D01*
X032129Y005415D01*
X032107Y005399D01*
X032082Y005387D01*
X032056Y005379D01*
X032029Y005374D01*
X032001Y005373D01*
X031974Y005376D01*
X031947Y005383D01*
X031922Y005393D01*
X031898Y005407D01*
X031876Y005424D01*
X031857Y005443D01*
X031841Y005466D01*
X031828Y005490D01*
X031819Y005516D01*
X031813Y005543D01*
X031811Y005570D01*
X031831Y005570D02*
X031833Y005597D01*
X031839Y005624D01*
X031848Y005650D01*
X031861Y005674D01*
X031877Y005697D01*
X031896Y005716D01*
X031918Y005733D01*
X031942Y005747D01*
X031967Y005757D01*
X031994Y005764D01*
X032021Y005767D01*
X032049Y005766D01*
X032076Y005761D01*
X032102Y005753D01*
X032126Y005741D01*
X032149Y005725D01*
X032170Y005707D01*
X032187Y005686D01*
X032202Y005662D01*
X032213Y005637D01*
X032221Y005611D01*
X032225Y005584D01*
X032225Y005556D01*
X032221Y005529D01*
X032213Y005503D01*
X032202Y005478D01*
X032187Y005454D01*
X032170Y005433D01*
X032149Y005415D01*
X032127Y005399D01*
X032102Y005387D01*
X032076Y005379D01*
X032049Y005374D01*
X032021Y005373D01*
X031994Y005376D01*
X031967Y005383D01*
X031942Y005393D01*
X031918Y005407D01*
X031896Y005424D01*
X031877Y005443D01*
X031861Y005466D01*
X031848Y005490D01*
X031839Y005516D01*
X031833Y005543D01*
X031831Y005570D01*
X032323Y004409D02*
X032325Y004436D01*
X032331Y004463D01*
X032340Y004489D01*
X032353Y004513D01*
X032369Y004536D01*
X032388Y004555D01*
X032410Y004572D01*
X032434Y004586D01*
X032459Y004596D01*
X032486Y004603D01*
X032513Y004606D01*
X032541Y004605D01*
X032568Y004600D01*
X032594Y004592D01*
X032618Y004580D01*
X032641Y004564D01*
X032662Y004546D01*
X032679Y004525D01*
X032694Y004501D01*
X032705Y004476D01*
X032713Y004450D01*
X032717Y004423D01*
X032717Y004395D01*
X032713Y004368D01*
X032705Y004342D01*
X032694Y004317D01*
X032679Y004293D01*
X032662Y004272D01*
X032641Y004254D01*
X032619Y004238D01*
X032594Y004226D01*
X032568Y004218D01*
X032541Y004213D01*
X032513Y004212D01*
X032486Y004215D01*
X032459Y004222D01*
X032434Y004232D01*
X032410Y004246D01*
X032388Y004263D01*
X032369Y004282D01*
X032353Y004305D01*
X032340Y004329D01*
X032331Y004355D01*
X032325Y004382D01*
X032323Y004409D01*
X032323Y004370D02*
X032325Y004397D01*
X032331Y004424D01*
X032340Y004450D01*
X032353Y004474D01*
X032369Y004497D01*
X032388Y004516D01*
X032410Y004533D01*
X032434Y004547D01*
X032459Y004557D01*
X032486Y004564D01*
X032513Y004567D01*
X032541Y004566D01*
X032568Y004561D01*
X032594Y004553D01*
X032618Y004541D01*
X032641Y004525D01*
X032662Y004507D01*
X032679Y004486D01*
X032694Y004462D01*
X032705Y004437D01*
X032713Y004411D01*
X032717Y004384D01*
X032717Y004356D01*
X032713Y004329D01*
X032705Y004303D01*
X032694Y004278D01*
X032679Y004254D01*
X032662Y004233D01*
X032641Y004215D01*
X032619Y004199D01*
X032594Y004187D01*
X032568Y004179D01*
X032541Y004174D01*
X032513Y004173D01*
X032486Y004176D01*
X032459Y004183D01*
X032434Y004193D01*
X032410Y004207D01*
X032388Y004224D01*
X032369Y004243D01*
X032353Y004266D01*
X032340Y004290D01*
X032331Y004316D01*
X032325Y004343D01*
X032323Y004370D01*
X032323Y004311D02*
X032325Y004338D01*
X032331Y004365D01*
X032340Y004391D01*
X032353Y004415D01*
X032369Y004438D01*
X032388Y004457D01*
X032410Y004474D01*
X032434Y004488D01*
X032459Y004498D01*
X032486Y004505D01*
X032513Y004508D01*
X032541Y004507D01*
X032568Y004502D01*
X032594Y004494D01*
X032618Y004482D01*
X032641Y004466D01*
X032662Y004448D01*
X032679Y004427D01*
X032694Y004403D01*
X032705Y004378D01*
X032713Y004352D01*
X032717Y004325D01*
X032717Y004297D01*
X032713Y004270D01*
X032705Y004244D01*
X032694Y004219D01*
X032679Y004195D01*
X032662Y004174D01*
X032641Y004156D01*
X032619Y004140D01*
X032594Y004128D01*
X032568Y004120D01*
X032541Y004115D01*
X032513Y004114D01*
X032486Y004117D01*
X032459Y004124D01*
X032434Y004134D01*
X032410Y004148D01*
X032388Y004165D01*
X032369Y004184D01*
X032353Y004207D01*
X032340Y004231D01*
X032331Y004257D01*
X032325Y004284D01*
X032323Y004311D01*
X032323Y004271D02*
X032325Y004298D01*
X032331Y004325D01*
X032340Y004351D01*
X032353Y004375D01*
X032369Y004398D01*
X032388Y004417D01*
X032410Y004434D01*
X032434Y004448D01*
X032459Y004458D01*
X032486Y004465D01*
X032513Y004468D01*
X032541Y004467D01*
X032568Y004462D01*
X032594Y004454D01*
X032618Y004442D01*
X032641Y004426D01*
X032662Y004408D01*
X032679Y004387D01*
X032694Y004363D01*
X032705Y004338D01*
X032713Y004312D01*
X032717Y004285D01*
X032717Y004257D01*
X032713Y004230D01*
X032705Y004204D01*
X032694Y004179D01*
X032679Y004155D01*
X032662Y004134D01*
X032641Y004116D01*
X032619Y004100D01*
X032594Y004088D01*
X032568Y004080D01*
X032541Y004075D01*
X032513Y004074D01*
X032486Y004077D01*
X032459Y004084D01*
X032434Y004094D01*
X032410Y004108D01*
X032388Y004125D01*
X032369Y004144D01*
X032353Y004167D01*
X032340Y004191D01*
X032331Y004217D01*
X032325Y004244D01*
X032323Y004271D01*
X032323Y004212D02*
X032325Y004239D01*
X032331Y004266D01*
X032340Y004292D01*
X032353Y004316D01*
X032369Y004339D01*
X032388Y004358D01*
X032410Y004375D01*
X032434Y004389D01*
X032459Y004399D01*
X032486Y004406D01*
X032513Y004409D01*
X032541Y004408D01*
X032568Y004403D01*
X032594Y004395D01*
X032618Y004383D01*
X032641Y004367D01*
X032662Y004349D01*
X032679Y004328D01*
X032694Y004304D01*
X032705Y004279D01*
X032713Y004253D01*
X032717Y004226D01*
X032717Y004198D01*
X032713Y004171D01*
X032705Y004145D01*
X032694Y004120D01*
X032679Y004096D01*
X032662Y004075D01*
X032641Y004057D01*
X032619Y004041D01*
X032594Y004029D01*
X032568Y004021D01*
X032541Y004016D01*
X032513Y004015D01*
X032486Y004018D01*
X032459Y004025D01*
X032434Y004035D01*
X032410Y004049D01*
X032388Y004066D01*
X032369Y004085D01*
X032353Y004108D01*
X032340Y004132D01*
X032331Y004158D01*
X032325Y004185D01*
X032323Y004212D01*
X032323Y004173D02*
X032325Y004200D01*
X032331Y004227D01*
X032340Y004253D01*
X032353Y004277D01*
X032369Y004300D01*
X032388Y004319D01*
X032410Y004336D01*
X032434Y004350D01*
X032459Y004360D01*
X032486Y004367D01*
X032513Y004370D01*
X032541Y004369D01*
X032568Y004364D01*
X032594Y004356D01*
X032618Y004344D01*
X032641Y004328D01*
X032662Y004310D01*
X032679Y004289D01*
X032694Y004265D01*
X032705Y004240D01*
X032713Y004214D01*
X032717Y004187D01*
X032717Y004159D01*
X032713Y004132D01*
X032705Y004106D01*
X032694Y004081D01*
X032679Y004057D01*
X032662Y004036D01*
X032641Y004018D01*
X032619Y004002D01*
X032594Y003990D01*
X032568Y003982D01*
X032541Y003977D01*
X032513Y003976D01*
X032486Y003979D01*
X032459Y003986D01*
X032434Y003996D01*
X032410Y004010D01*
X032388Y004027D01*
X032369Y004046D01*
X032353Y004069D01*
X032340Y004093D01*
X032331Y004119D01*
X032325Y004146D01*
X032323Y004173D01*
X032323Y004133D02*
X032325Y004160D01*
X032331Y004187D01*
X032340Y004213D01*
X032353Y004237D01*
X032369Y004260D01*
X032388Y004279D01*
X032410Y004296D01*
X032434Y004310D01*
X032459Y004320D01*
X032486Y004327D01*
X032513Y004330D01*
X032541Y004329D01*
X032568Y004324D01*
X032594Y004316D01*
X032618Y004304D01*
X032641Y004288D01*
X032662Y004270D01*
X032679Y004249D01*
X032694Y004225D01*
X032705Y004200D01*
X032713Y004174D01*
X032717Y004147D01*
X032717Y004119D01*
X032713Y004092D01*
X032705Y004066D01*
X032694Y004041D01*
X032679Y004017D01*
X032662Y003996D01*
X032641Y003978D01*
X032619Y003962D01*
X032594Y003950D01*
X032568Y003942D01*
X032541Y003937D01*
X032513Y003936D01*
X032486Y003939D01*
X032459Y003946D01*
X032434Y003956D01*
X032410Y003970D01*
X032388Y003987D01*
X032369Y004006D01*
X032353Y004029D01*
X032340Y004053D01*
X032331Y004079D01*
X032325Y004106D01*
X032323Y004133D01*
X032323Y004074D02*
X032325Y004101D01*
X032331Y004128D01*
X032340Y004154D01*
X032353Y004178D01*
X032369Y004201D01*
X032388Y004220D01*
X032410Y004237D01*
X032434Y004251D01*
X032459Y004261D01*
X032486Y004268D01*
X032513Y004271D01*
X032541Y004270D01*
X032568Y004265D01*
X032594Y004257D01*
X032618Y004245D01*
X032641Y004229D01*
X032662Y004211D01*
X032679Y004190D01*
X032694Y004166D01*
X032705Y004141D01*
X032713Y004115D01*
X032717Y004088D01*
X032717Y004060D01*
X032713Y004033D01*
X032705Y004007D01*
X032694Y003982D01*
X032679Y003958D01*
X032662Y003937D01*
X032641Y003919D01*
X032619Y003903D01*
X032594Y003891D01*
X032568Y003883D01*
X032541Y003878D01*
X032513Y003877D01*
X032486Y003880D01*
X032459Y003887D01*
X032434Y003897D01*
X032410Y003911D01*
X032388Y003928D01*
X032369Y003947D01*
X032353Y003970D01*
X032340Y003994D01*
X032331Y004020D01*
X032325Y004047D01*
X032323Y004074D01*
X032323Y004015D02*
X032325Y004042D01*
X032331Y004069D01*
X032340Y004095D01*
X032353Y004119D01*
X032369Y004142D01*
X032388Y004161D01*
X032410Y004178D01*
X032434Y004192D01*
X032459Y004202D01*
X032486Y004209D01*
X032513Y004212D01*
X032541Y004211D01*
X032568Y004206D01*
X032594Y004198D01*
X032618Y004186D01*
X032641Y004170D01*
X032662Y004152D01*
X032679Y004131D01*
X032694Y004107D01*
X032705Y004082D01*
X032713Y004056D01*
X032717Y004029D01*
X032717Y004001D01*
X032713Y003974D01*
X032705Y003948D01*
X032694Y003923D01*
X032679Y003899D01*
X032662Y003878D01*
X032641Y003860D01*
X032619Y003844D01*
X032594Y003832D01*
X032568Y003824D01*
X032541Y003819D01*
X032513Y003818D01*
X032486Y003821D01*
X032459Y003828D01*
X032434Y003838D01*
X032410Y003852D01*
X032388Y003869D01*
X032369Y003888D01*
X032353Y003911D01*
X032340Y003935D01*
X032331Y003961D01*
X032325Y003988D01*
X032323Y004015D01*
X032323Y003956D02*
X032325Y003983D01*
X032331Y004010D01*
X032340Y004036D01*
X032353Y004060D01*
X032369Y004083D01*
X032388Y004102D01*
X032410Y004119D01*
X032434Y004133D01*
X032459Y004143D01*
X032486Y004150D01*
X032513Y004153D01*
X032541Y004152D01*
X032568Y004147D01*
X032594Y004139D01*
X032618Y004127D01*
X032641Y004111D01*
X032662Y004093D01*
X032679Y004072D01*
X032694Y004048D01*
X032705Y004023D01*
X032713Y003997D01*
X032717Y003970D01*
X032717Y003942D01*
X032713Y003915D01*
X032705Y003889D01*
X032694Y003864D01*
X032679Y003840D01*
X032662Y003819D01*
X032641Y003801D01*
X032619Y003785D01*
X032594Y003773D01*
X032568Y003765D01*
X032541Y003760D01*
X032513Y003759D01*
X032486Y003762D01*
X032459Y003769D01*
X032434Y003779D01*
X032410Y003793D01*
X032388Y003810D01*
X032369Y003829D01*
X032353Y003852D01*
X032340Y003876D01*
X032331Y003902D01*
X032325Y003929D01*
X032323Y003956D01*
X032323Y003897D02*
X032325Y003924D01*
X032331Y003951D01*
X032340Y003977D01*
X032353Y004001D01*
X032369Y004024D01*
X032388Y004043D01*
X032410Y004060D01*
X032434Y004074D01*
X032459Y004084D01*
X032486Y004091D01*
X032513Y004094D01*
X032541Y004093D01*
X032568Y004088D01*
X032594Y004080D01*
X032618Y004068D01*
X032641Y004052D01*
X032662Y004034D01*
X032679Y004013D01*
X032694Y003989D01*
X032705Y003964D01*
X032713Y003938D01*
X032717Y003911D01*
X032717Y003883D01*
X032713Y003856D01*
X032705Y003830D01*
X032694Y003805D01*
X032679Y003781D01*
X032662Y003760D01*
X032641Y003742D01*
X032619Y003726D01*
X032594Y003714D01*
X032568Y003706D01*
X032541Y003701D01*
X032513Y003700D01*
X032486Y003703D01*
X032459Y003710D01*
X032434Y003720D01*
X032410Y003734D01*
X032388Y003751D01*
X032369Y003770D01*
X032353Y003793D01*
X032340Y003817D01*
X032331Y003843D01*
X032325Y003870D01*
X032323Y003897D01*
X032323Y003838D02*
X032325Y003865D01*
X032331Y003892D01*
X032340Y003918D01*
X032353Y003942D01*
X032369Y003965D01*
X032388Y003984D01*
X032410Y004001D01*
X032434Y004015D01*
X032459Y004025D01*
X032486Y004032D01*
X032513Y004035D01*
X032541Y004034D01*
X032568Y004029D01*
X032594Y004021D01*
X032618Y004009D01*
X032641Y003993D01*
X032662Y003975D01*
X032679Y003954D01*
X032694Y003930D01*
X032705Y003905D01*
X032713Y003879D01*
X032717Y003852D01*
X032717Y003824D01*
X032713Y003797D01*
X032705Y003771D01*
X032694Y003746D01*
X032679Y003722D01*
X032662Y003701D01*
X032641Y003683D01*
X032619Y003667D01*
X032594Y003655D01*
X032568Y003647D01*
X032541Y003642D01*
X032513Y003641D01*
X032486Y003644D01*
X032459Y003651D01*
X032434Y003661D01*
X032410Y003675D01*
X032388Y003692D01*
X032369Y003711D01*
X032353Y003734D01*
X032340Y003758D01*
X032331Y003784D01*
X032325Y003811D01*
X032323Y003838D01*
X032323Y003779D02*
X032325Y003806D01*
X032331Y003833D01*
X032340Y003859D01*
X032353Y003883D01*
X032369Y003906D01*
X032388Y003925D01*
X032410Y003942D01*
X032434Y003956D01*
X032459Y003966D01*
X032486Y003973D01*
X032513Y003976D01*
X032541Y003975D01*
X032568Y003970D01*
X032594Y003962D01*
X032618Y003950D01*
X032641Y003934D01*
X032662Y003916D01*
X032679Y003895D01*
X032694Y003871D01*
X032705Y003846D01*
X032713Y003820D01*
X032717Y003793D01*
X032717Y003765D01*
X032713Y003738D01*
X032705Y003712D01*
X032694Y003687D01*
X032679Y003663D01*
X032662Y003642D01*
X032641Y003624D01*
X032619Y003608D01*
X032594Y003596D01*
X032568Y003588D01*
X032541Y003583D01*
X032513Y003582D01*
X032486Y003585D01*
X032459Y003592D01*
X032434Y003602D01*
X032410Y003616D01*
X032388Y003633D01*
X032369Y003652D01*
X032353Y003675D01*
X032340Y003699D01*
X032331Y003725D01*
X032325Y003752D01*
X032323Y003779D01*
X032323Y003661D02*
X032325Y003688D01*
X032331Y003715D01*
X032340Y003741D01*
X032353Y003765D01*
X032369Y003788D01*
X032388Y003807D01*
X032410Y003824D01*
X032434Y003838D01*
X032459Y003848D01*
X032486Y003855D01*
X032513Y003858D01*
X032541Y003857D01*
X032568Y003852D01*
X032594Y003844D01*
X032618Y003832D01*
X032641Y003816D01*
X032662Y003798D01*
X032679Y003777D01*
X032694Y003753D01*
X032705Y003728D01*
X032713Y003702D01*
X032717Y003675D01*
X032717Y003647D01*
X032713Y003620D01*
X032705Y003594D01*
X032694Y003569D01*
X032679Y003545D01*
X032662Y003524D01*
X032641Y003506D01*
X032619Y003490D01*
X032594Y003478D01*
X032568Y003470D01*
X032541Y003465D01*
X032513Y003464D01*
X032486Y003467D01*
X032459Y003474D01*
X032434Y003484D01*
X032410Y003498D01*
X032388Y003515D01*
X032369Y003534D01*
X032353Y003557D01*
X032340Y003581D01*
X032331Y003607D01*
X032325Y003634D01*
X032323Y003661D01*
X032323Y003602D02*
X032325Y003629D01*
X032331Y003656D01*
X032340Y003682D01*
X032353Y003706D01*
X032369Y003729D01*
X032388Y003748D01*
X032410Y003765D01*
X032434Y003779D01*
X032459Y003789D01*
X032486Y003796D01*
X032513Y003799D01*
X032541Y003798D01*
X032568Y003793D01*
X032594Y003785D01*
X032618Y003773D01*
X032641Y003757D01*
X032662Y003739D01*
X032679Y003718D01*
X032694Y003694D01*
X032705Y003669D01*
X032713Y003643D01*
X032717Y003616D01*
X032717Y003588D01*
X032713Y003561D01*
X032705Y003535D01*
X032694Y003510D01*
X032679Y003486D01*
X032662Y003465D01*
X032641Y003447D01*
X032619Y003431D01*
X032594Y003419D01*
X032568Y003411D01*
X032541Y003406D01*
X032513Y003405D01*
X032486Y003408D01*
X032459Y003415D01*
X032434Y003425D01*
X032410Y003439D01*
X032388Y003456D01*
X032369Y003475D01*
X032353Y003498D01*
X032340Y003522D01*
X032331Y003548D01*
X032325Y003575D01*
X032323Y003602D01*
X032323Y003543D02*
X032325Y003570D01*
X032331Y003597D01*
X032340Y003623D01*
X032353Y003647D01*
X032369Y003670D01*
X032388Y003689D01*
X032410Y003706D01*
X032434Y003720D01*
X032459Y003730D01*
X032486Y003737D01*
X032513Y003740D01*
X032541Y003739D01*
X032568Y003734D01*
X032594Y003726D01*
X032618Y003714D01*
X032641Y003698D01*
X032662Y003680D01*
X032679Y003659D01*
X032694Y003635D01*
X032705Y003610D01*
X032713Y003584D01*
X032717Y003557D01*
X032717Y003529D01*
X032713Y003502D01*
X032705Y003476D01*
X032694Y003451D01*
X032679Y003427D01*
X032662Y003406D01*
X032641Y003388D01*
X032619Y003372D01*
X032594Y003360D01*
X032568Y003352D01*
X032541Y003347D01*
X032513Y003346D01*
X032486Y003349D01*
X032459Y003356D01*
X032434Y003366D01*
X032410Y003380D01*
X032388Y003397D01*
X032369Y003416D01*
X032353Y003439D01*
X032340Y003463D01*
X032331Y003489D01*
X032325Y003516D01*
X032323Y003543D01*
X032323Y003484D02*
X032325Y003511D01*
X032331Y003538D01*
X032340Y003564D01*
X032353Y003588D01*
X032369Y003611D01*
X032388Y003630D01*
X032410Y003647D01*
X032434Y003661D01*
X032459Y003671D01*
X032486Y003678D01*
X032513Y003681D01*
X032541Y003680D01*
X032568Y003675D01*
X032594Y003667D01*
X032618Y003655D01*
X032641Y003639D01*
X032662Y003621D01*
X032679Y003600D01*
X032694Y003576D01*
X032705Y003551D01*
X032713Y003525D01*
X032717Y003498D01*
X032717Y003470D01*
X032713Y003443D01*
X032705Y003417D01*
X032694Y003392D01*
X032679Y003368D01*
X032662Y003347D01*
X032641Y003329D01*
X032619Y003313D01*
X032594Y003301D01*
X032568Y003293D01*
X032541Y003288D01*
X032513Y003287D01*
X032486Y003290D01*
X032459Y003297D01*
X032434Y003307D01*
X032410Y003321D01*
X032388Y003338D01*
X032369Y003357D01*
X032353Y003380D01*
X032340Y003404D01*
X032331Y003430D01*
X032325Y003457D01*
X032323Y003484D01*
X032323Y003425D02*
X032325Y003452D01*
X032331Y003479D01*
X032340Y003505D01*
X032353Y003529D01*
X032369Y003552D01*
X032388Y003571D01*
X032410Y003588D01*
X032434Y003602D01*
X032459Y003612D01*
X032486Y003619D01*
X032513Y003622D01*
X032541Y003621D01*
X032568Y003616D01*
X032594Y003608D01*
X032618Y003596D01*
X032641Y003580D01*
X032662Y003562D01*
X032679Y003541D01*
X032694Y003517D01*
X032705Y003492D01*
X032713Y003466D01*
X032717Y003439D01*
X032717Y003411D01*
X032713Y003384D01*
X032705Y003358D01*
X032694Y003333D01*
X032679Y003309D01*
X032662Y003288D01*
X032641Y003270D01*
X032619Y003254D01*
X032594Y003242D01*
X032568Y003234D01*
X032541Y003229D01*
X032513Y003228D01*
X032486Y003231D01*
X032459Y003238D01*
X032434Y003248D01*
X032410Y003262D01*
X032388Y003279D01*
X032369Y003298D01*
X032353Y003321D01*
X032340Y003345D01*
X032331Y003371D01*
X032325Y003398D01*
X032323Y003425D01*
X032323Y003366D02*
X032325Y003393D01*
X032331Y003420D01*
X032340Y003446D01*
X032353Y003470D01*
X032369Y003493D01*
X032388Y003512D01*
X032410Y003529D01*
X032434Y003543D01*
X032459Y003553D01*
X032486Y003560D01*
X032513Y003563D01*
X032541Y003562D01*
X032568Y003557D01*
X032594Y003549D01*
X032618Y003537D01*
X032641Y003521D01*
X032662Y003503D01*
X032679Y003482D01*
X032694Y003458D01*
X032705Y003433D01*
X032713Y003407D01*
X032717Y003380D01*
X032717Y003352D01*
X032713Y003325D01*
X032705Y003299D01*
X032694Y003274D01*
X032679Y003250D01*
X032662Y003229D01*
X032641Y003211D01*
X032619Y003195D01*
X032594Y003183D01*
X032568Y003175D01*
X032541Y003170D01*
X032513Y003169D01*
X032486Y003172D01*
X032459Y003179D01*
X032434Y003189D01*
X032410Y003203D01*
X032388Y003220D01*
X032369Y003239D01*
X032353Y003262D01*
X032340Y003286D01*
X032331Y003312D01*
X032325Y003339D01*
X032323Y003366D01*
X032323Y003307D02*
X032325Y003334D01*
X032331Y003361D01*
X032340Y003387D01*
X032353Y003411D01*
X032369Y003434D01*
X032388Y003453D01*
X032410Y003470D01*
X032434Y003484D01*
X032459Y003494D01*
X032486Y003501D01*
X032513Y003504D01*
X032541Y003503D01*
X032568Y003498D01*
X032594Y003490D01*
X032618Y003478D01*
X032641Y003462D01*
X032662Y003444D01*
X032679Y003423D01*
X032694Y003399D01*
X032705Y003374D01*
X032713Y003348D01*
X032717Y003321D01*
X032717Y003293D01*
X032713Y003266D01*
X032705Y003240D01*
X032694Y003215D01*
X032679Y003191D01*
X032662Y003170D01*
X032641Y003152D01*
X032619Y003136D01*
X032594Y003124D01*
X032568Y003116D01*
X032541Y003111D01*
X032513Y003110D01*
X032486Y003113D01*
X032459Y003120D01*
X032434Y003130D01*
X032410Y003144D01*
X032388Y003161D01*
X032369Y003180D01*
X032353Y003203D01*
X032340Y003227D01*
X032331Y003253D01*
X032325Y003280D01*
X032323Y003307D01*
X032323Y003248D02*
X032325Y003275D01*
X032331Y003302D01*
X032340Y003328D01*
X032353Y003352D01*
X032369Y003375D01*
X032388Y003394D01*
X032410Y003411D01*
X032434Y003425D01*
X032459Y003435D01*
X032486Y003442D01*
X032513Y003445D01*
X032541Y003444D01*
X032568Y003439D01*
X032594Y003431D01*
X032618Y003419D01*
X032641Y003403D01*
X032662Y003385D01*
X032679Y003364D01*
X032694Y003340D01*
X032705Y003315D01*
X032713Y003289D01*
X032717Y003262D01*
X032717Y003234D01*
X032713Y003207D01*
X032705Y003181D01*
X032694Y003156D01*
X032679Y003132D01*
X032662Y003111D01*
X032641Y003093D01*
X032619Y003077D01*
X032594Y003065D01*
X032568Y003057D01*
X032541Y003052D01*
X032513Y003051D01*
X032486Y003054D01*
X032459Y003061D01*
X032434Y003071D01*
X032410Y003085D01*
X032388Y003102D01*
X032369Y003121D01*
X032353Y003144D01*
X032340Y003168D01*
X032331Y003194D01*
X032325Y003221D01*
X032323Y003248D01*
X032323Y003189D02*
X032325Y003216D01*
X032331Y003243D01*
X032340Y003269D01*
X032353Y003293D01*
X032369Y003316D01*
X032388Y003335D01*
X032410Y003352D01*
X032434Y003366D01*
X032459Y003376D01*
X032486Y003383D01*
X032513Y003386D01*
X032541Y003385D01*
X032568Y003380D01*
X032594Y003372D01*
X032618Y003360D01*
X032641Y003344D01*
X032662Y003326D01*
X032679Y003305D01*
X032694Y003281D01*
X032705Y003256D01*
X032713Y003230D01*
X032717Y003203D01*
X032717Y003175D01*
X032713Y003148D01*
X032705Y003122D01*
X032694Y003097D01*
X032679Y003073D01*
X032662Y003052D01*
X032641Y003034D01*
X032619Y003018D01*
X032594Y003006D01*
X032568Y002998D01*
X032541Y002993D01*
X032513Y002992D01*
X032486Y002995D01*
X032459Y003002D01*
X032434Y003012D01*
X032410Y003026D01*
X032388Y003043D01*
X032369Y003062D01*
X032353Y003085D01*
X032340Y003109D01*
X032331Y003135D01*
X032325Y003162D01*
X032323Y003189D01*
X032323Y003129D02*
X032325Y003156D01*
X032331Y003183D01*
X032340Y003209D01*
X032353Y003233D01*
X032369Y003256D01*
X032388Y003275D01*
X032410Y003292D01*
X032434Y003306D01*
X032459Y003316D01*
X032486Y003323D01*
X032513Y003326D01*
X032541Y003325D01*
X032568Y003320D01*
X032594Y003312D01*
X032618Y003300D01*
X032641Y003284D01*
X032662Y003266D01*
X032679Y003245D01*
X032694Y003221D01*
X032705Y003196D01*
X032713Y003170D01*
X032717Y003143D01*
X032717Y003115D01*
X032713Y003088D01*
X032705Y003062D01*
X032694Y003037D01*
X032679Y003013D01*
X032662Y002992D01*
X032641Y002974D01*
X032619Y002958D01*
X032594Y002946D01*
X032568Y002938D01*
X032541Y002933D01*
X032513Y002932D01*
X032486Y002935D01*
X032459Y002942D01*
X032434Y002952D01*
X032410Y002966D01*
X032388Y002983D01*
X032369Y003002D01*
X032353Y003025D01*
X032340Y003049D01*
X032331Y003075D01*
X032325Y003102D01*
X032323Y003129D01*
X032323Y003070D02*
X032325Y003097D01*
X032331Y003124D01*
X032340Y003150D01*
X032353Y003174D01*
X032369Y003197D01*
X032388Y003216D01*
X032410Y003233D01*
X032434Y003247D01*
X032459Y003257D01*
X032486Y003264D01*
X032513Y003267D01*
X032541Y003266D01*
X032568Y003261D01*
X032594Y003253D01*
X032618Y003241D01*
X032641Y003225D01*
X032662Y003207D01*
X032679Y003186D01*
X032694Y003162D01*
X032705Y003137D01*
X032713Y003111D01*
X032717Y003084D01*
X032717Y003056D01*
X032713Y003029D01*
X032705Y003003D01*
X032694Y002978D01*
X032679Y002954D01*
X032662Y002933D01*
X032641Y002915D01*
X032619Y002899D01*
X032594Y002887D01*
X032568Y002879D01*
X032541Y002874D01*
X032513Y002873D01*
X032486Y002876D01*
X032459Y002883D01*
X032434Y002893D01*
X032410Y002907D01*
X032388Y002924D01*
X032369Y002943D01*
X032353Y002966D01*
X032340Y002990D01*
X032331Y003016D01*
X032325Y003043D01*
X032323Y003070D01*
X032323Y003031D02*
X032325Y003058D01*
X032331Y003085D01*
X032340Y003111D01*
X032353Y003135D01*
X032369Y003158D01*
X032388Y003177D01*
X032410Y003194D01*
X032434Y003208D01*
X032459Y003218D01*
X032486Y003225D01*
X032513Y003228D01*
X032541Y003227D01*
X032568Y003222D01*
X032594Y003214D01*
X032618Y003202D01*
X032641Y003186D01*
X032662Y003168D01*
X032679Y003147D01*
X032694Y003123D01*
X032705Y003098D01*
X032713Y003072D01*
X032717Y003045D01*
X032717Y003017D01*
X032713Y002990D01*
X032705Y002964D01*
X032694Y002939D01*
X032679Y002915D01*
X032662Y002894D01*
X032641Y002876D01*
X032619Y002860D01*
X032594Y002848D01*
X032568Y002840D01*
X032541Y002835D01*
X032513Y002834D01*
X032486Y002837D01*
X032459Y002844D01*
X032434Y002854D01*
X032410Y002868D01*
X032388Y002885D01*
X032369Y002904D01*
X032353Y002927D01*
X032340Y002951D01*
X032331Y002977D01*
X032325Y003004D01*
X032323Y003031D01*
X029922Y003011D02*
X029924Y003041D01*
X029930Y003071D01*
X029939Y003100D01*
X029952Y003127D01*
X029969Y003152D01*
X029988Y003175D01*
X030011Y003196D01*
X030036Y003213D01*
X030062Y003227D01*
X030091Y003237D01*
X030120Y003244D01*
X030150Y003247D01*
X030181Y003246D01*
X030211Y003241D01*
X030240Y003232D01*
X030267Y003220D01*
X030293Y003205D01*
X030317Y003186D01*
X030338Y003164D01*
X030356Y003140D01*
X030371Y003113D01*
X030382Y003085D01*
X030390Y003056D01*
X030394Y003026D01*
X030394Y002996D01*
X030390Y002966D01*
X030382Y002937D01*
X030371Y002909D01*
X030356Y002882D01*
X030338Y002858D01*
X030317Y002836D01*
X030293Y002817D01*
X030267Y002802D01*
X030240Y002790D01*
X030211Y002781D01*
X030181Y002776D01*
X030150Y002775D01*
X030120Y002778D01*
X030091Y002785D01*
X030062Y002795D01*
X030036Y002809D01*
X030011Y002826D01*
X029988Y002847D01*
X029969Y002870D01*
X029952Y002895D01*
X029939Y002922D01*
X029930Y002951D01*
X029924Y002981D01*
X029922Y003011D01*
X029922Y002972D02*
X029924Y003002D01*
X029930Y003032D01*
X029939Y003061D01*
X029952Y003088D01*
X029969Y003113D01*
X029988Y003136D01*
X030011Y003157D01*
X030036Y003174D01*
X030062Y003188D01*
X030091Y003198D01*
X030120Y003205D01*
X030150Y003208D01*
X030181Y003207D01*
X030211Y003202D01*
X030240Y003193D01*
X030267Y003181D01*
X030293Y003166D01*
X030317Y003147D01*
X030338Y003125D01*
X030356Y003101D01*
X030371Y003074D01*
X030382Y003046D01*
X030390Y003017D01*
X030394Y002987D01*
X030394Y002957D01*
X030390Y002927D01*
X030382Y002898D01*
X030371Y002870D01*
X030356Y002843D01*
X030338Y002819D01*
X030317Y002797D01*
X030293Y002778D01*
X030267Y002763D01*
X030240Y002751D01*
X030211Y002742D01*
X030181Y002737D01*
X030150Y002736D01*
X030120Y002739D01*
X030091Y002746D01*
X030062Y002756D01*
X030036Y002770D01*
X030011Y002787D01*
X029988Y002808D01*
X029969Y002831D01*
X029952Y002856D01*
X029939Y002883D01*
X029930Y002912D01*
X029924Y002942D01*
X029922Y002972D01*
X029922Y002933D02*
X029924Y002963D01*
X029930Y002993D01*
X029939Y003022D01*
X029952Y003049D01*
X029969Y003074D01*
X029988Y003097D01*
X030011Y003118D01*
X030036Y003135D01*
X030062Y003149D01*
X030091Y003159D01*
X030120Y003166D01*
X030150Y003169D01*
X030181Y003168D01*
X030211Y003163D01*
X030240Y003154D01*
X030267Y003142D01*
X030293Y003127D01*
X030317Y003108D01*
X030338Y003086D01*
X030356Y003062D01*
X030371Y003035D01*
X030382Y003007D01*
X030390Y002978D01*
X030394Y002948D01*
X030394Y002918D01*
X030390Y002888D01*
X030382Y002859D01*
X030371Y002831D01*
X030356Y002804D01*
X030338Y002780D01*
X030317Y002758D01*
X030293Y002739D01*
X030267Y002724D01*
X030240Y002712D01*
X030211Y002703D01*
X030181Y002698D01*
X030150Y002697D01*
X030120Y002700D01*
X030091Y002707D01*
X030062Y002717D01*
X030036Y002731D01*
X030011Y002748D01*
X029988Y002769D01*
X029969Y002792D01*
X029952Y002817D01*
X029939Y002844D01*
X029930Y002873D01*
X029924Y002903D01*
X029922Y002933D01*
X029922Y003051D02*
X029924Y003081D01*
X029930Y003111D01*
X029939Y003140D01*
X029952Y003167D01*
X029969Y003192D01*
X029988Y003215D01*
X030011Y003236D01*
X030036Y003253D01*
X030062Y003267D01*
X030091Y003277D01*
X030120Y003284D01*
X030150Y003287D01*
X030181Y003286D01*
X030211Y003281D01*
X030240Y003272D01*
X030267Y003260D01*
X030293Y003245D01*
X030317Y003226D01*
X030338Y003204D01*
X030356Y003180D01*
X030371Y003153D01*
X030382Y003125D01*
X030390Y003096D01*
X030394Y003066D01*
X030394Y003036D01*
X030390Y003006D01*
X030382Y002977D01*
X030371Y002949D01*
X030356Y002922D01*
X030338Y002898D01*
X030317Y002876D01*
X030293Y002857D01*
X030267Y002842D01*
X030240Y002830D01*
X030211Y002821D01*
X030181Y002816D01*
X030150Y002815D01*
X030120Y002818D01*
X030091Y002825D01*
X030062Y002835D01*
X030036Y002849D01*
X030011Y002866D01*
X029988Y002887D01*
X029969Y002910D01*
X029952Y002935D01*
X029939Y002962D01*
X029930Y002991D01*
X029924Y003021D01*
X029922Y003051D01*
X029922Y003090D02*
X029924Y003120D01*
X029930Y003150D01*
X029939Y003179D01*
X029952Y003206D01*
X029969Y003231D01*
X029988Y003254D01*
X030011Y003275D01*
X030036Y003292D01*
X030062Y003306D01*
X030091Y003316D01*
X030120Y003323D01*
X030150Y003326D01*
X030181Y003325D01*
X030211Y003320D01*
X030240Y003311D01*
X030267Y003299D01*
X030293Y003284D01*
X030317Y003265D01*
X030338Y003243D01*
X030356Y003219D01*
X030371Y003192D01*
X030382Y003164D01*
X030390Y003135D01*
X030394Y003105D01*
X030394Y003075D01*
X030390Y003045D01*
X030382Y003016D01*
X030371Y002988D01*
X030356Y002961D01*
X030338Y002937D01*
X030317Y002915D01*
X030293Y002896D01*
X030267Y002881D01*
X030240Y002869D01*
X030211Y002860D01*
X030181Y002855D01*
X030150Y002854D01*
X030120Y002857D01*
X030091Y002864D01*
X030062Y002874D01*
X030036Y002888D01*
X030011Y002905D01*
X029988Y002926D01*
X029969Y002949D01*
X029952Y002974D01*
X029939Y003001D01*
X029930Y003030D01*
X029924Y003060D01*
X029922Y003090D01*
X029922Y003129D02*
X029924Y003159D01*
X029930Y003189D01*
X029939Y003218D01*
X029952Y003245D01*
X029969Y003270D01*
X029988Y003293D01*
X030011Y003314D01*
X030036Y003331D01*
X030062Y003345D01*
X030091Y003355D01*
X030120Y003362D01*
X030150Y003365D01*
X030181Y003364D01*
X030211Y003359D01*
X030240Y003350D01*
X030267Y003338D01*
X030293Y003323D01*
X030317Y003304D01*
X030338Y003282D01*
X030356Y003258D01*
X030371Y003231D01*
X030382Y003203D01*
X030390Y003174D01*
X030394Y003144D01*
X030394Y003114D01*
X030390Y003084D01*
X030382Y003055D01*
X030371Y003027D01*
X030356Y003000D01*
X030338Y002976D01*
X030317Y002954D01*
X030293Y002935D01*
X030267Y002920D01*
X030240Y002908D01*
X030211Y002899D01*
X030181Y002894D01*
X030150Y002893D01*
X030120Y002896D01*
X030091Y002903D01*
X030062Y002913D01*
X030036Y002927D01*
X030011Y002944D01*
X029988Y002965D01*
X029969Y002988D01*
X029952Y003013D01*
X029939Y003040D01*
X029930Y003069D01*
X029924Y003099D01*
X029922Y003129D01*
X029922Y003169D02*
X029924Y003199D01*
X029930Y003229D01*
X029939Y003258D01*
X029952Y003285D01*
X029969Y003310D01*
X029988Y003333D01*
X030011Y003354D01*
X030036Y003371D01*
X030062Y003385D01*
X030091Y003395D01*
X030120Y003402D01*
X030150Y003405D01*
X030181Y003404D01*
X030211Y003399D01*
X030240Y003390D01*
X030267Y003378D01*
X030293Y003363D01*
X030317Y003344D01*
X030338Y003322D01*
X030356Y003298D01*
X030371Y003271D01*
X030382Y003243D01*
X030390Y003214D01*
X030394Y003184D01*
X030394Y003154D01*
X030390Y003124D01*
X030382Y003095D01*
X030371Y003067D01*
X030356Y003040D01*
X030338Y003016D01*
X030317Y002994D01*
X030293Y002975D01*
X030267Y002960D01*
X030240Y002948D01*
X030211Y002939D01*
X030181Y002934D01*
X030150Y002933D01*
X030120Y002936D01*
X030091Y002943D01*
X030062Y002953D01*
X030036Y002967D01*
X030011Y002984D01*
X029988Y003005D01*
X029969Y003028D01*
X029952Y003053D01*
X029939Y003080D01*
X029930Y003109D01*
X029924Y003139D01*
X029922Y003169D01*
X029922Y003208D02*
X029924Y003238D01*
X029930Y003268D01*
X029939Y003297D01*
X029952Y003324D01*
X029969Y003349D01*
X029988Y003372D01*
X030011Y003393D01*
X030036Y003410D01*
X030062Y003424D01*
X030091Y003434D01*
X030120Y003441D01*
X030150Y003444D01*
X030181Y003443D01*
X030211Y003438D01*
X030240Y003429D01*
X030267Y003417D01*
X030293Y003402D01*
X030317Y003383D01*
X030338Y003361D01*
X030356Y003337D01*
X030371Y003310D01*
X030382Y003282D01*
X030390Y003253D01*
X030394Y003223D01*
X030394Y003193D01*
X030390Y003163D01*
X030382Y003134D01*
X030371Y003106D01*
X030356Y003079D01*
X030338Y003055D01*
X030317Y003033D01*
X030293Y003014D01*
X030267Y002999D01*
X030240Y002987D01*
X030211Y002978D01*
X030181Y002973D01*
X030150Y002972D01*
X030120Y002975D01*
X030091Y002982D01*
X030062Y002992D01*
X030036Y003006D01*
X030011Y003023D01*
X029988Y003044D01*
X029969Y003067D01*
X029952Y003092D01*
X029939Y003119D01*
X029930Y003148D01*
X029924Y003178D01*
X029922Y003208D01*
X029922Y003248D02*
X029924Y003278D01*
X029930Y003308D01*
X029939Y003337D01*
X029952Y003364D01*
X029969Y003389D01*
X029988Y003412D01*
X030011Y003433D01*
X030036Y003450D01*
X030062Y003464D01*
X030091Y003474D01*
X030120Y003481D01*
X030150Y003484D01*
X030181Y003483D01*
X030211Y003478D01*
X030240Y003469D01*
X030267Y003457D01*
X030293Y003442D01*
X030317Y003423D01*
X030338Y003401D01*
X030356Y003377D01*
X030371Y003350D01*
X030382Y003322D01*
X030390Y003293D01*
X030394Y003263D01*
X030394Y003233D01*
X030390Y003203D01*
X030382Y003174D01*
X030371Y003146D01*
X030356Y003119D01*
X030338Y003095D01*
X030317Y003073D01*
X030293Y003054D01*
X030267Y003039D01*
X030240Y003027D01*
X030211Y003018D01*
X030181Y003013D01*
X030150Y003012D01*
X030120Y003015D01*
X030091Y003022D01*
X030062Y003032D01*
X030036Y003046D01*
X030011Y003063D01*
X029988Y003084D01*
X029969Y003107D01*
X029952Y003132D01*
X029939Y003159D01*
X029930Y003188D01*
X029924Y003218D01*
X029922Y003248D01*
X029922Y003287D02*
X029924Y003317D01*
X029930Y003347D01*
X029939Y003376D01*
X029952Y003403D01*
X029969Y003428D01*
X029988Y003451D01*
X030011Y003472D01*
X030036Y003489D01*
X030062Y003503D01*
X030091Y003513D01*
X030120Y003520D01*
X030150Y003523D01*
X030181Y003522D01*
X030211Y003517D01*
X030240Y003508D01*
X030267Y003496D01*
X030293Y003481D01*
X030317Y003462D01*
X030338Y003440D01*
X030356Y003416D01*
X030371Y003389D01*
X030382Y003361D01*
X030390Y003332D01*
X030394Y003302D01*
X030394Y003272D01*
X030390Y003242D01*
X030382Y003213D01*
X030371Y003185D01*
X030356Y003158D01*
X030338Y003134D01*
X030317Y003112D01*
X030293Y003093D01*
X030267Y003078D01*
X030240Y003066D01*
X030211Y003057D01*
X030181Y003052D01*
X030150Y003051D01*
X030120Y003054D01*
X030091Y003061D01*
X030062Y003071D01*
X030036Y003085D01*
X030011Y003102D01*
X029988Y003123D01*
X029969Y003146D01*
X029952Y003171D01*
X029939Y003198D01*
X029930Y003227D01*
X029924Y003257D01*
X029922Y003287D01*
X029922Y003326D02*
X029924Y003356D01*
X029930Y003386D01*
X029939Y003415D01*
X029952Y003442D01*
X029969Y003467D01*
X029988Y003490D01*
X030011Y003511D01*
X030036Y003528D01*
X030062Y003542D01*
X030091Y003552D01*
X030120Y003559D01*
X030150Y003562D01*
X030181Y003561D01*
X030211Y003556D01*
X030240Y003547D01*
X030267Y003535D01*
X030293Y003520D01*
X030317Y003501D01*
X030338Y003479D01*
X030356Y003455D01*
X030371Y003428D01*
X030382Y003400D01*
X030390Y003371D01*
X030394Y003341D01*
X030394Y003311D01*
X030390Y003281D01*
X030382Y003252D01*
X030371Y003224D01*
X030356Y003197D01*
X030338Y003173D01*
X030317Y003151D01*
X030293Y003132D01*
X030267Y003117D01*
X030240Y003105D01*
X030211Y003096D01*
X030181Y003091D01*
X030150Y003090D01*
X030120Y003093D01*
X030091Y003100D01*
X030062Y003110D01*
X030036Y003124D01*
X030011Y003141D01*
X029988Y003162D01*
X029969Y003185D01*
X029952Y003210D01*
X029939Y003237D01*
X029930Y003266D01*
X029924Y003296D01*
X029922Y003326D01*
X029922Y003366D02*
X029924Y003396D01*
X029930Y003426D01*
X029939Y003455D01*
X029952Y003482D01*
X029969Y003507D01*
X029988Y003530D01*
X030011Y003551D01*
X030036Y003568D01*
X030062Y003582D01*
X030091Y003592D01*
X030120Y003599D01*
X030150Y003602D01*
X030181Y003601D01*
X030211Y003596D01*
X030240Y003587D01*
X030267Y003575D01*
X030293Y003560D01*
X030317Y003541D01*
X030338Y003519D01*
X030356Y003495D01*
X030371Y003468D01*
X030382Y003440D01*
X030390Y003411D01*
X030394Y003381D01*
X030394Y003351D01*
X030390Y003321D01*
X030382Y003292D01*
X030371Y003264D01*
X030356Y003237D01*
X030338Y003213D01*
X030317Y003191D01*
X030293Y003172D01*
X030267Y003157D01*
X030240Y003145D01*
X030211Y003136D01*
X030181Y003131D01*
X030150Y003130D01*
X030120Y003133D01*
X030091Y003140D01*
X030062Y003150D01*
X030036Y003164D01*
X030011Y003181D01*
X029988Y003202D01*
X029969Y003225D01*
X029952Y003250D01*
X029939Y003277D01*
X029930Y003306D01*
X029924Y003336D01*
X029922Y003366D01*
X029922Y003405D02*
X029924Y003435D01*
X029930Y003465D01*
X029939Y003494D01*
X029952Y003521D01*
X029969Y003546D01*
X029988Y003569D01*
X030011Y003590D01*
X030036Y003607D01*
X030062Y003621D01*
X030091Y003631D01*
X030120Y003638D01*
X030150Y003641D01*
X030181Y003640D01*
X030211Y003635D01*
X030240Y003626D01*
X030267Y003614D01*
X030293Y003599D01*
X030317Y003580D01*
X030338Y003558D01*
X030356Y003534D01*
X030371Y003507D01*
X030382Y003479D01*
X030390Y003450D01*
X030394Y003420D01*
X030394Y003390D01*
X030390Y003360D01*
X030382Y003331D01*
X030371Y003303D01*
X030356Y003276D01*
X030338Y003252D01*
X030317Y003230D01*
X030293Y003211D01*
X030267Y003196D01*
X030240Y003184D01*
X030211Y003175D01*
X030181Y003170D01*
X030150Y003169D01*
X030120Y003172D01*
X030091Y003179D01*
X030062Y003189D01*
X030036Y003203D01*
X030011Y003220D01*
X029988Y003241D01*
X029969Y003264D01*
X029952Y003289D01*
X029939Y003316D01*
X029930Y003345D01*
X029924Y003375D01*
X029922Y003405D01*
X029922Y003444D02*
X029924Y003474D01*
X029930Y003504D01*
X029939Y003533D01*
X029952Y003560D01*
X029969Y003585D01*
X029988Y003608D01*
X030011Y003629D01*
X030036Y003646D01*
X030062Y003660D01*
X030091Y003670D01*
X030120Y003677D01*
X030150Y003680D01*
X030181Y003679D01*
X030211Y003674D01*
X030240Y003665D01*
X030267Y003653D01*
X030293Y003638D01*
X030317Y003619D01*
X030338Y003597D01*
X030356Y003573D01*
X030371Y003546D01*
X030382Y003518D01*
X030390Y003489D01*
X030394Y003459D01*
X030394Y003429D01*
X030390Y003399D01*
X030382Y003370D01*
X030371Y003342D01*
X030356Y003315D01*
X030338Y003291D01*
X030317Y003269D01*
X030293Y003250D01*
X030267Y003235D01*
X030240Y003223D01*
X030211Y003214D01*
X030181Y003209D01*
X030150Y003208D01*
X030120Y003211D01*
X030091Y003218D01*
X030062Y003228D01*
X030036Y003242D01*
X030011Y003259D01*
X029988Y003280D01*
X029969Y003303D01*
X029952Y003328D01*
X029939Y003355D01*
X029930Y003384D01*
X029924Y003414D01*
X029922Y003444D01*
X029922Y003484D02*
X029924Y003514D01*
X029930Y003544D01*
X029939Y003573D01*
X029952Y003600D01*
X029969Y003625D01*
X029988Y003648D01*
X030011Y003669D01*
X030036Y003686D01*
X030062Y003700D01*
X030091Y003710D01*
X030120Y003717D01*
X030150Y003720D01*
X030181Y003719D01*
X030211Y003714D01*
X030240Y003705D01*
X030267Y003693D01*
X030293Y003678D01*
X030317Y003659D01*
X030338Y003637D01*
X030356Y003613D01*
X030371Y003586D01*
X030382Y003558D01*
X030390Y003529D01*
X030394Y003499D01*
X030394Y003469D01*
X030390Y003439D01*
X030382Y003410D01*
X030371Y003382D01*
X030356Y003355D01*
X030338Y003331D01*
X030317Y003309D01*
X030293Y003290D01*
X030267Y003275D01*
X030240Y003263D01*
X030211Y003254D01*
X030181Y003249D01*
X030150Y003248D01*
X030120Y003251D01*
X030091Y003258D01*
X030062Y003268D01*
X030036Y003282D01*
X030011Y003299D01*
X029988Y003320D01*
X029969Y003343D01*
X029952Y003368D01*
X029939Y003395D01*
X029930Y003424D01*
X029924Y003454D01*
X029922Y003484D01*
X029922Y003523D02*
X029924Y003553D01*
X029930Y003583D01*
X029939Y003612D01*
X029952Y003639D01*
X029969Y003664D01*
X029988Y003687D01*
X030011Y003708D01*
X030036Y003725D01*
X030062Y003739D01*
X030091Y003749D01*
X030120Y003756D01*
X030150Y003759D01*
X030181Y003758D01*
X030211Y003753D01*
X030240Y003744D01*
X030267Y003732D01*
X030293Y003717D01*
X030317Y003698D01*
X030338Y003676D01*
X030356Y003652D01*
X030371Y003625D01*
X030382Y003597D01*
X030390Y003568D01*
X030394Y003538D01*
X030394Y003508D01*
X030390Y003478D01*
X030382Y003449D01*
X030371Y003421D01*
X030356Y003394D01*
X030338Y003370D01*
X030317Y003348D01*
X030293Y003329D01*
X030267Y003314D01*
X030240Y003302D01*
X030211Y003293D01*
X030181Y003288D01*
X030150Y003287D01*
X030120Y003290D01*
X030091Y003297D01*
X030062Y003307D01*
X030036Y003321D01*
X030011Y003338D01*
X029988Y003359D01*
X029969Y003382D01*
X029952Y003407D01*
X029939Y003434D01*
X029930Y003463D01*
X029924Y003493D01*
X029922Y003523D01*
X029922Y003563D02*
X029924Y003593D01*
X029930Y003623D01*
X029939Y003652D01*
X029952Y003679D01*
X029969Y003704D01*
X029988Y003727D01*
X030011Y003748D01*
X030036Y003765D01*
X030062Y003779D01*
X030091Y003789D01*
X030120Y003796D01*
X030150Y003799D01*
X030181Y003798D01*
X030211Y003793D01*
X030240Y003784D01*
X030267Y003772D01*
X030293Y003757D01*
X030317Y003738D01*
X030338Y003716D01*
X030356Y003692D01*
X030371Y003665D01*
X030382Y003637D01*
X030390Y003608D01*
X030394Y003578D01*
X030394Y003548D01*
X030390Y003518D01*
X030382Y003489D01*
X030371Y003461D01*
X030356Y003434D01*
X030338Y003410D01*
X030317Y003388D01*
X030293Y003369D01*
X030267Y003354D01*
X030240Y003342D01*
X030211Y003333D01*
X030181Y003328D01*
X030150Y003327D01*
X030120Y003330D01*
X030091Y003337D01*
X030062Y003347D01*
X030036Y003361D01*
X030011Y003378D01*
X029988Y003399D01*
X029969Y003422D01*
X029952Y003447D01*
X029939Y003474D01*
X029930Y003503D01*
X029924Y003533D01*
X029922Y003563D01*
X029922Y003602D02*
X029924Y003632D01*
X029930Y003662D01*
X029939Y003691D01*
X029952Y003718D01*
X029969Y003743D01*
X029988Y003766D01*
X030011Y003787D01*
X030036Y003804D01*
X030062Y003818D01*
X030091Y003828D01*
X030120Y003835D01*
X030150Y003838D01*
X030181Y003837D01*
X030211Y003832D01*
X030240Y003823D01*
X030267Y003811D01*
X030293Y003796D01*
X030317Y003777D01*
X030338Y003755D01*
X030356Y003731D01*
X030371Y003704D01*
X030382Y003676D01*
X030390Y003647D01*
X030394Y003617D01*
X030394Y003587D01*
X030390Y003557D01*
X030382Y003528D01*
X030371Y003500D01*
X030356Y003473D01*
X030338Y003449D01*
X030317Y003427D01*
X030293Y003408D01*
X030267Y003393D01*
X030240Y003381D01*
X030211Y003372D01*
X030181Y003367D01*
X030150Y003366D01*
X030120Y003369D01*
X030091Y003376D01*
X030062Y003386D01*
X030036Y003400D01*
X030011Y003417D01*
X029988Y003438D01*
X029969Y003461D01*
X029952Y003486D01*
X029939Y003513D01*
X029930Y003542D01*
X029924Y003572D01*
X029922Y003602D01*
X029922Y003641D02*
X029924Y003671D01*
X029930Y003701D01*
X029939Y003730D01*
X029952Y003757D01*
X029969Y003782D01*
X029988Y003805D01*
X030011Y003826D01*
X030036Y003843D01*
X030062Y003857D01*
X030091Y003867D01*
X030120Y003874D01*
X030150Y003877D01*
X030181Y003876D01*
X030211Y003871D01*
X030240Y003862D01*
X030267Y003850D01*
X030293Y003835D01*
X030317Y003816D01*
X030338Y003794D01*
X030356Y003770D01*
X030371Y003743D01*
X030382Y003715D01*
X030390Y003686D01*
X030394Y003656D01*
X030394Y003626D01*
X030390Y003596D01*
X030382Y003567D01*
X030371Y003539D01*
X030356Y003512D01*
X030338Y003488D01*
X030317Y003466D01*
X030293Y003447D01*
X030267Y003432D01*
X030240Y003420D01*
X030211Y003411D01*
X030181Y003406D01*
X030150Y003405D01*
X030120Y003408D01*
X030091Y003415D01*
X030062Y003425D01*
X030036Y003439D01*
X030011Y003456D01*
X029988Y003477D01*
X029969Y003500D01*
X029952Y003525D01*
X029939Y003552D01*
X029930Y003581D01*
X029924Y003611D01*
X029922Y003641D01*
X029922Y003681D02*
X029924Y003711D01*
X029930Y003741D01*
X029939Y003770D01*
X029952Y003797D01*
X029969Y003822D01*
X029988Y003845D01*
X030011Y003866D01*
X030036Y003883D01*
X030062Y003897D01*
X030091Y003907D01*
X030120Y003914D01*
X030150Y003917D01*
X030181Y003916D01*
X030211Y003911D01*
X030240Y003902D01*
X030267Y003890D01*
X030293Y003875D01*
X030317Y003856D01*
X030338Y003834D01*
X030356Y003810D01*
X030371Y003783D01*
X030382Y003755D01*
X030390Y003726D01*
X030394Y003696D01*
X030394Y003666D01*
X030390Y003636D01*
X030382Y003607D01*
X030371Y003579D01*
X030356Y003552D01*
X030338Y003528D01*
X030317Y003506D01*
X030293Y003487D01*
X030267Y003472D01*
X030240Y003460D01*
X030211Y003451D01*
X030181Y003446D01*
X030150Y003445D01*
X030120Y003448D01*
X030091Y003455D01*
X030062Y003465D01*
X030036Y003479D01*
X030011Y003496D01*
X029988Y003517D01*
X029969Y003540D01*
X029952Y003565D01*
X029939Y003592D01*
X029930Y003621D01*
X029924Y003651D01*
X029922Y003681D01*
X029922Y003759D02*
X029924Y003789D01*
X029930Y003819D01*
X029939Y003848D01*
X029952Y003875D01*
X029969Y003900D01*
X029988Y003923D01*
X030011Y003944D01*
X030036Y003961D01*
X030062Y003975D01*
X030091Y003985D01*
X030120Y003992D01*
X030150Y003995D01*
X030181Y003994D01*
X030211Y003989D01*
X030240Y003980D01*
X030267Y003968D01*
X030293Y003953D01*
X030317Y003934D01*
X030338Y003912D01*
X030356Y003888D01*
X030371Y003861D01*
X030382Y003833D01*
X030390Y003804D01*
X030394Y003774D01*
X030394Y003744D01*
X030390Y003714D01*
X030382Y003685D01*
X030371Y003657D01*
X030356Y003630D01*
X030338Y003606D01*
X030317Y003584D01*
X030293Y003565D01*
X030267Y003550D01*
X030240Y003538D01*
X030211Y003529D01*
X030181Y003524D01*
X030150Y003523D01*
X030120Y003526D01*
X030091Y003533D01*
X030062Y003543D01*
X030036Y003557D01*
X030011Y003574D01*
X029988Y003595D01*
X029969Y003618D01*
X029952Y003643D01*
X029939Y003670D01*
X029930Y003699D01*
X029924Y003729D01*
X029922Y003759D01*
X029922Y003799D02*
X029924Y003829D01*
X029930Y003859D01*
X029939Y003888D01*
X029952Y003915D01*
X029969Y003940D01*
X029988Y003963D01*
X030011Y003984D01*
X030036Y004001D01*
X030062Y004015D01*
X030091Y004025D01*
X030120Y004032D01*
X030150Y004035D01*
X030181Y004034D01*
X030211Y004029D01*
X030240Y004020D01*
X030267Y004008D01*
X030293Y003993D01*
X030317Y003974D01*
X030338Y003952D01*
X030356Y003928D01*
X030371Y003901D01*
X030382Y003873D01*
X030390Y003844D01*
X030394Y003814D01*
X030394Y003784D01*
X030390Y003754D01*
X030382Y003725D01*
X030371Y003697D01*
X030356Y003670D01*
X030338Y003646D01*
X030317Y003624D01*
X030293Y003605D01*
X030267Y003590D01*
X030240Y003578D01*
X030211Y003569D01*
X030181Y003564D01*
X030150Y003563D01*
X030120Y003566D01*
X030091Y003573D01*
X030062Y003583D01*
X030036Y003597D01*
X030011Y003614D01*
X029988Y003635D01*
X029969Y003658D01*
X029952Y003683D01*
X029939Y003710D01*
X029930Y003739D01*
X029924Y003769D01*
X029922Y003799D01*
X029922Y003838D02*
X029924Y003868D01*
X029930Y003898D01*
X029939Y003927D01*
X029952Y003954D01*
X029969Y003979D01*
X029988Y004002D01*
X030011Y004023D01*
X030036Y004040D01*
X030062Y004054D01*
X030091Y004064D01*
X030120Y004071D01*
X030150Y004074D01*
X030181Y004073D01*
X030211Y004068D01*
X030240Y004059D01*
X030267Y004047D01*
X030293Y004032D01*
X030317Y004013D01*
X030338Y003991D01*
X030356Y003967D01*
X030371Y003940D01*
X030382Y003912D01*
X030390Y003883D01*
X030394Y003853D01*
X030394Y003823D01*
X030390Y003793D01*
X030382Y003764D01*
X030371Y003736D01*
X030356Y003709D01*
X030338Y003685D01*
X030317Y003663D01*
X030293Y003644D01*
X030267Y003629D01*
X030240Y003617D01*
X030211Y003608D01*
X030181Y003603D01*
X030150Y003602D01*
X030120Y003605D01*
X030091Y003612D01*
X030062Y003622D01*
X030036Y003636D01*
X030011Y003653D01*
X029988Y003674D01*
X029969Y003697D01*
X029952Y003722D01*
X029939Y003749D01*
X029930Y003778D01*
X029924Y003808D01*
X029922Y003838D01*
X029922Y003877D02*
X029924Y003907D01*
X029930Y003937D01*
X029939Y003966D01*
X029952Y003993D01*
X029969Y004018D01*
X029988Y004041D01*
X030011Y004062D01*
X030036Y004079D01*
X030062Y004093D01*
X030091Y004103D01*
X030120Y004110D01*
X030150Y004113D01*
X030181Y004112D01*
X030211Y004107D01*
X030240Y004098D01*
X030267Y004086D01*
X030293Y004071D01*
X030317Y004052D01*
X030338Y004030D01*
X030356Y004006D01*
X030371Y003979D01*
X030382Y003951D01*
X030390Y003922D01*
X030394Y003892D01*
X030394Y003862D01*
X030390Y003832D01*
X030382Y003803D01*
X030371Y003775D01*
X030356Y003748D01*
X030338Y003724D01*
X030317Y003702D01*
X030293Y003683D01*
X030267Y003668D01*
X030240Y003656D01*
X030211Y003647D01*
X030181Y003642D01*
X030150Y003641D01*
X030120Y003644D01*
X030091Y003651D01*
X030062Y003661D01*
X030036Y003675D01*
X030011Y003692D01*
X029988Y003713D01*
X029969Y003736D01*
X029952Y003761D01*
X029939Y003788D01*
X029930Y003817D01*
X029924Y003847D01*
X029922Y003877D01*
X029922Y003917D02*
X029924Y003947D01*
X029930Y003977D01*
X029939Y004006D01*
X029952Y004033D01*
X029969Y004058D01*
X029988Y004081D01*
X030011Y004102D01*
X030036Y004119D01*
X030062Y004133D01*
X030091Y004143D01*
X030120Y004150D01*
X030150Y004153D01*
X030181Y004152D01*
X030211Y004147D01*
X030240Y004138D01*
X030267Y004126D01*
X030293Y004111D01*
X030317Y004092D01*
X030338Y004070D01*
X030356Y004046D01*
X030371Y004019D01*
X030382Y003991D01*
X030390Y003962D01*
X030394Y003932D01*
X030394Y003902D01*
X030390Y003872D01*
X030382Y003843D01*
X030371Y003815D01*
X030356Y003788D01*
X030338Y003764D01*
X030317Y003742D01*
X030293Y003723D01*
X030267Y003708D01*
X030240Y003696D01*
X030211Y003687D01*
X030181Y003682D01*
X030150Y003681D01*
X030120Y003684D01*
X030091Y003691D01*
X030062Y003701D01*
X030036Y003715D01*
X030011Y003732D01*
X029988Y003753D01*
X029969Y003776D01*
X029952Y003801D01*
X029939Y003828D01*
X029930Y003857D01*
X029924Y003887D01*
X029922Y003917D01*
X029922Y003956D02*
X029924Y003986D01*
X029930Y004016D01*
X029939Y004045D01*
X029952Y004072D01*
X029969Y004097D01*
X029988Y004120D01*
X030011Y004141D01*
X030036Y004158D01*
X030062Y004172D01*
X030091Y004182D01*
X030120Y004189D01*
X030150Y004192D01*
X030181Y004191D01*
X030211Y004186D01*
X030240Y004177D01*
X030267Y004165D01*
X030293Y004150D01*
X030317Y004131D01*
X030338Y004109D01*
X030356Y004085D01*
X030371Y004058D01*
X030382Y004030D01*
X030390Y004001D01*
X030394Y003971D01*
X030394Y003941D01*
X030390Y003911D01*
X030382Y003882D01*
X030371Y003854D01*
X030356Y003827D01*
X030338Y003803D01*
X030317Y003781D01*
X030293Y003762D01*
X030267Y003747D01*
X030240Y003735D01*
X030211Y003726D01*
X030181Y003721D01*
X030150Y003720D01*
X030120Y003723D01*
X030091Y003730D01*
X030062Y003740D01*
X030036Y003754D01*
X030011Y003771D01*
X029988Y003792D01*
X029969Y003815D01*
X029952Y003840D01*
X029939Y003867D01*
X029930Y003896D01*
X029924Y003926D01*
X029922Y003956D01*
X029922Y003996D02*
X029924Y004026D01*
X029930Y004056D01*
X029939Y004085D01*
X029952Y004112D01*
X029969Y004137D01*
X029988Y004160D01*
X030011Y004181D01*
X030036Y004198D01*
X030062Y004212D01*
X030091Y004222D01*
X030120Y004229D01*
X030150Y004232D01*
X030181Y004231D01*
X030211Y004226D01*
X030240Y004217D01*
X030267Y004205D01*
X030293Y004190D01*
X030317Y004171D01*
X030338Y004149D01*
X030356Y004125D01*
X030371Y004098D01*
X030382Y004070D01*
X030390Y004041D01*
X030394Y004011D01*
X030394Y003981D01*
X030390Y003951D01*
X030382Y003922D01*
X030371Y003894D01*
X030356Y003867D01*
X030338Y003843D01*
X030317Y003821D01*
X030293Y003802D01*
X030267Y003787D01*
X030240Y003775D01*
X030211Y003766D01*
X030181Y003761D01*
X030150Y003760D01*
X030120Y003763D01*
X030091Y003770D01*
X030062Y003780D01*
X030036Y003794D01*
X030011Y003811D01*
X029988Y003832D01*
X029969Y003855D01*
X029952Y003880D01*
X029939Y003907D01*
X029930Y003936D01*
X029924Y003966D01*
X029922Y003996D01*
X029922Y004035D02*
X029924Y004065D01*
X029930Y004095D01*
X029939Y004124D01*
X029952Y004151D01*
X029969Y004176D01*
X029988Y004199D01*
X030011Y004220D01*
X030036Y004237D01*
X030062Y004251D01*
X030091Y004261D01*
X030120Y004268D01*
X030150Y004271D01*
X030181Y004270D01*
X030211Y004265D01*
X030240Y004256D01*
X030267Y004244D01*
X030293Y004229D01*
X030317Y004210D01*
X030338Y004188D01*
X030356Y004164D01*
X030371Y004137D01*
X030382Y004109D01*
X030390Y004080D01*
X030394Y004050D01*
X030394Y004020D01*
X030390Y003990D01*
X030382Y003961D01*
X030371Y003933D01*
X030356Y003906D01*
X030338Y003882D01*
X030317Y003860D01*
X030293Y003841D01*
X030267Y003826D01*
X030240Y003814D01*
X030211Y003805D01*
X030181Y003800D01*
X030150Y003799D01*
X030120Y003802D01*
X030091Y003809D01*
X030062Y003819D01*
X030036Y003833D01*
X030011Y003850D01*
X029988Y003871D01*
X029969Y003894D01*
X029952Y003919D01*
X029939Y003946D01*
X029930Y003975D01*
X029924Y004005D01*
X029922Y004035D01*
X029922Y004074D02*
X029924Y004104D01*
X029930Y004134D01*
X029939Y004163D01*
X029952Y004190D01*
X029969Y004215D01*
X029988Y004238D01*
X030011Y004259D01*
X030036Y004276D01*
X030062Y004290D01*
X030091Y004300D01*
X030120Y004307D01*
X030150Y004310D01*
X030181Y004309D01*
X030211Y004304D01*
X030240Y004295D01*
X030267Y004283D01*
X030293Y004268D01*
X030317Y004249D01*
X030338Y004227D01*
X030356Y004203D01*
X030371Y004176D01*
X030382Y004148D01*
X030390Y004119D01*
X030394Y004089D01*
X030394Y004059D01*
X030390Y004029D01*
X030382Y004000D01*
X030371Y003972D01*
X030356Y003945D01*
X030338Y003921D01*
X030317Y003899D01*
X030293Y003880D01*
X030267Y003865D01*
X030240Y003853D01*
X030211Y003844D01*
X030181Y003839D01*
X030150Y003838D01*
X030120Y003841D01*
X030091Y003848D01*
X030062Y003858D01*
X030036Y003872D01*
X030011Y003889D01*
X029988Y003910D01*
X029969Y003933D01*
X029952Y003958D01*
X029939Y003985D01*
X029930Y004014D01*
X029924Y004044D01*
X029922Y004074D01*
X029922Y004114D02*
X029924Y004144D01*
X029930Y004174D01*
X029939Y004203D01*
X029952Y004230D01*
X029969Y004255D01*
X029988Y004278D01*
X030011Y004299D01*
X030036Y004316D01*
X030062Y004330D01*
X030091Y004340D01*
X030120Y004347D01*
X030150Y004350D01*
X030181Y004349D01*
X030211Y004344D01*
X030240Y004335D01*
X030267Y004323D01*
X030293Y004308D01*
X030317Y004289D01*
X030338Y004267D01*
X030356Y004243D01*
X030371Y004216D01*
X030382Y004188D01*
X030390Y004159D01*
X030394Y004129D01*
X030394Y004099D01*
X030390Y004069D01*
X030382Y004040D01*
X030371Y004012D01*
X030356Y003985D01*
X030338Y003961D01*
X030317Y003939D01*
X030293Y003920D01*
X030267Y003905D01*
X030240Y003893D01*
X030211Y003884D01*
X030181Y003879D01*
X030150Y003878D01*
X030120Y003881D01*
X030091Y003888D01*
X030062Y003898D01*
X030036Y003912D01*
X030011Y003929D01*
X029988Y003950D01*
X029969Y003973D01*
X029952Y003998D01*
X029939Y004025D01*
X029930Y004054D01*
X029924Y004084D01*
X029922Y004114D01*
X029922Y004153D02*
X029924Y004183D01*
X029930Y004213D01*
X029939Y004242D01*
X029952Y004269D01*
X029969Y004294D01*
X029988Y004317D01*
X030011Y004338D01*
X030036Y004355D01*
X030062Y004369D01*
X030091Y004379D01*
X030120Y004386D01*
X030150Y004389D01*
X030181Y004388D01*
X030211Y004383D01*
X030240Y004374D01*
X030267Y004362D01*
X030293Y004347D01*
X030317Y004328D01*
X030338Y004306D01*
X030356Y004282D01*
X030371Y004255D01*
X030382Y004227D01*
X030390Y004198D01*
X030394Y004168D01*
X030394Y004138D01*
X030390Y004108D01*
X030382Y004079D01*
X030371Y004051D01*
X030356Y004024D01*
X030338Y004000D01*
X030317Y003978D01*
X030293Y003959D01*
X030267Y003944D01*
X030240Y003932D01*
X030211Y003923D01*
X030181Y003918D01*
X030150Y003917D01*
X030120Y003920D01*
X030091Y003927D01*
X030062Y003937D01*
X030036Y003951D01*
X030011Y003968D01*
X029988Y003989D01*
X029969Y004012D01*
X029952Y004037D01*
X029939Y004064D01*
X029930Y004093D01*
X029924Y004123D01*
X029922Y004153D01*
X029922Y004192D02*
X029924Y004222D01*
X029930Y004252D01*
X029939Y004281D01*
X029952Y004308D01*
X029969Y004333D01*
X029988Y004356D01*
X030011Y004377D01*
X030036Y004394D01*
X030062Y004408D01*
X030091Y004418D01*
X030120Y004425D01*
X030150Y004428D01*
X030181Y004427D01*
X030211Y004422D01*
X030240Y004413D01*
X030267Y004401D01*
X030293Y004386D01*
X030317Y004367D01*
X030338Y004345D01*
X030356Y004321D01*
X030371Y004294D01*
X030382Y004266D01*
X030390Y004237D01*
X030394Y004207D01*
X030394Y004177D01*
X030390Y004147D01*
X030382Y004118D01*
X030371Y004090D01*
X030356Y004063D01*
X030338Y004039D01*
X030317Y004017D01*
X030293Y003998D01*
X030267Y003983D01*
X030240Y003971D01*
X030211Y003962D01*
X030181Y003957D01*
X030150Y003956D01*
X030120Y003959D01*
X030091Y003966D01*
X030062Y003976D01*
X030036Y003990D01*
X030011Y004007D01*
X029988Y004028D01*
X029969Y004051D01*
X029952Y004076D01*
X029939Y004103D01*
X029930Y004132D01*
X029924Y004162D01*
X029922Y004192D01*
X029922Y004232D02*
X029924Y004262D01*
X029930Y004292D01*
X029939Y004321D01*
X029952Y004348D01*
X029969Y004373D01*
X029988Y004396D01*
X030011Y004417D01*
X030036Y004434D01*
X030062Y004448D01*
X030091Y004458D01*
X030120Y004465D01*
X030150Y004468D01*
X030181Y004467D01*
X030211Y004462D01*
X030240Y004453D01*
X030267Y004441D01*
X030293Y004426D01*
X030317Y004407D01*
X030338Y004385D01*
X030356Y004361D01*
X030371Y004334D01*
X030382Y004306D01*
X030390Y004277D01*
X030394Y004247D01*
X030394Y004217D01*
X030390Y004187D01*
X030382Y004158D01*
X030371Y004130D01*
X030356Y004103D01*
X030338Y004079D01*
X030317Y004057D01*
X030293Y004038D01*
X030267Y004023D01*
X030240Y004011D01*
X030211Y004002D01*
X030181Y003997D01*
X030150Y003996D01*
X030120Y003999D01*
X030091Y004006D01*
X030062Y004016D01*
X030036Y004030D01*
X030011Y004047D01*
X029988Y004068D01*
X029969Y004091D01*
X029952Y004116D01*
X029939Y004143D01*
X029930Y004172D01*
X029924Y004202D01*
X029922Y004232D01*
X029922Y004271D02*
X029924Y004301D01*
X029930Y004331D01*
X029939Y004360D01*
X029952Y004387D01*
X029969Y004412D01*
X029988Y004435D01*
X030011Y004456D01*
X030036Y004473D01*
X030062Y004487D01*
X030091Y004497D01*
X030120Y004504D01*
X030150Y004507D01*
X030181Y004506D01*
X030211Y004501D01*
X030240Y004492D01*
X030267Y004480D01*
X030293Y004465D01*
X030317Y004446D01*
X030338Y004424D01*
X030356Y004400D01*
X030371Y004373D01*
X030382Y004345D01*
X030390Y004316D01*
X030394Y004286D01*
X030394Y004256D01*
X030390Y004226D01*
X030382Y004197D01*
X030371Y004169D01*
X030356Y004142D01*
X030338Y004118D01*
X030317Y004096D01*
X030293Y004077D01*
X030267Y004062D01*
X030240Y004050D01*
X030211Y004041D01*
X030181Y004036D01*
X030150Y004035D01*
X030120Y004038D01*
X030091Y004045D01*
X030062Y004055D01*
X030036Y004069D01*
X030011Y004086D01*
X029988Y004107D01*
X029969Y004130D01*
X029952Y004155D01*
X029939Y004182D01*
X029930Y004211D01*
X029924Y004241D01*
X029922Y004271D01*
X029922Y004311D02*
X029924Y004341D01*
X029930Y004371D01*
X029939Y004400D01*
X029952Y004427D01*
X029969Y004452D01*
X029988Y004475D01*
X030011Y004496D01*
X030036Y004513D01*
X030062Y004527D01*
X030091Y004537D01*
X030120Y004544D01*
X030150Y004547D01*
X030181Y004546D01*
X030211Y004541D01*
X030240Y004532D01*
X030267Y004520D01*
X030293Y004505D01*
X030317Y004486D01*
X030338Y004464D01*
X030356Y004440D01*
X030371Y004413D01*
X030382Y004385D01*
X030390Y004356D01*
X030394Y004326D01*
X030394Y004296D01*
X030390Y004266D01*
X030382Y004237D01*
X030371Y004209D01*
X030356Y004182D01*
X030338Y004158D01*
X030317Y004136D01*
X030293Y004117D01*
X030267Y004102D01*
X030240Y004090D01*
X030211Y004081D01*
X030181Y004076D01*
X030150Y004075D01*
X030120Y004078D01*
X030091Y004085D01*
X030062Y004095D01*
X030036Y004109D01*
X030011Y004126D01*
X029988Y004147D01*
X029969Y004170D01*
X029952Y004195D01*
X029939Y004222D01*
X029930Y004251D01*
X029924Y004281D01*
X029922Y004311D01*
X029922Y004350D02*
X029924Y004380D01*
X029930Y004410D01*
X029939Y004439D01*
X029952Y004466D01*
X029969Y004491D01*
X029988Y004514D01*
X030011Y004535D01*
X030036Y004552D01*
X030062Y004566D01*
X030091Y004576D01*
X030120Y004583D01*
X030150Y004586D01*
X030181Y004585D01*
X030211Y004580D01*
X030240Y004571D01*
X030267Y004559D01*
X030293Y004544D01*
X030317Y004525D01*
X030338Y004503D01*
X030356Y004479D01*
X030371Y004452D01*
X030382Y004424D01*
X030390Y004395D01*
X030394Y004365D01*
X030394Y004335D01*
X030390Y004305D01*
X030382Y004276D01*
X030371Y004248D01*
X030356Y004221D01*
X030338Y004197D01*
X030317Y004175D01*
X030293Y004156D01*
X030267Y004141D01*
X030240Y004129D01*
X030211Y004120D01*
X030181Y004115D01*
X030150Y004114D01*
X030120Y004117D01*
X030091Y004124D01*
X030062Y004134D01*
X030036Y004148D01*
X030011Y004165D01*
X029988Y004186D01*
X029969Y004209D01*
X029952Y004234D01*
X029939Y004261D01*
X029930Y004290D01*
X029924Y004320D01*
X029922Y004350D01*
X029922Y004389D02*
X029924Y004419D01*
X029930Y004449D01*
X029939Y004478D01*
X029952Y004505D01*
X029969Y004530D01*
X029988Y004553D01*
X030011Y004574D01*
X030036Y004591D01*
X030062Y004605D01*
X030091Y004615D01*
X030120Y004622D01*
X030150Y004625D01*
X030181Y004624D01*
X030211Y004619D01*
X030240Y004610D01*
X030267Y004598D01*
X030293Y004583D01*
X030317Y004564D01*
X030338Y004542D01*
X030356Y004518D01*
X030371Y004491D01*
X030382Y004463D01*
X030390Y004434D01*
X030394Y004404D01*
X030394Y004374D01*
X030390Y004344D01*
X030382Y004315D01*
X030371Y004287D01*
X030356Y004260D01*
X030338Y004236D01*
X030317Y004214D01*
X030293Y004195D01*
X030267Y004180D01*
X030240Y004168D01*
X030211Y004159D01*
X030181Y004154D01*
X030150Y004153D01*
X030120Y004156D01*
X030091Y004163D01*
X030062Y004173D01*
X030036Y004187D01*
X030011Y004204D01*
X029988Y004225D01*
X029969Y004248D01*
X029952Y004273D01*
X029939Y004300D01*
X029930Y004329D01*
X029924Y004359D01*
X029922Y004389D01*
X029922Y004429D02*
X029924Y004459D01*
X029930Y004489D01*
X029939Y004518D01*
X029952Y004545D01*
X029969Y004570D01*
X029988Y004593D01*
X030011Y004614D01*
X030036Y004631D01*
X030062Y004645D01*
X030091Y004655D01*
X030120Y004662D01*
X030150Y004665D01*
X030181Y004664D01*
X030211Y004659D01*
X030240Y004650D01*
X030267Y004638D01*
X030293Y004623D01*
X030317Y004604D01*
X030338Y004582D01*
X030356Y004558D01*
X030371Y004531D01*
X030382Y004503D01*
X030390Y004474D01*
X030394Y004444D01*
X030394Y004414D01*
X030390Y004384D01*
X030382Y004355D01*
X030371Y004327D01*
X030356Y004300D01*
X030338Y004276D01*
X030317Y004254D01*
X030293Y004235D01*
X030267Y004220D01*
X030240Y004208D01*
X030211Y004199D01*
X030181Y004194D01*
X030150Y004193D01*
X030120Y004196D01*
X030091Y004203D01*
X030062Y004213D01*
X030036Y004227D01*
X030011Y004244D01*
X029988Y004265D01*
X029969Y004288D01*
X029952Y004313D01*
X029939Y004340D01*
X029930Y004369D01*
X029924Y004399D01*
X029922Y004429D01*
X029922Y004468D02*
X029924Y004498D01*
X029930Y004528D01*
X029939Y004557D01*
X029952Y004584D01*
X029969Y004609D01*
X029988Y004632D01*
X030011Y004653D01*
X030036Y004670D01*
X030062Y004684D01*
X030091Y004694D01*
X030120Y004701D01*
X030150Y004704D01*
X030181Y004703D01*
X030211Y004698D01*
X030240Y004689D01*
X030267Y004677D01*
X030293Y004662D01*
X030317Y004643D01*
X030338Y004621D01*
X030356Y004597D01*
X030371Y004570D01*
X030382Y004542D01*
X030390Y004513D01*
X030394Y004483D01*
X030394Y004453D01*
X030390Y004423D01*
X030382Y004394D01*
X030371Y004366D01*
X030356Y004339D01*
X030338Y004315D01*
X030317Y004293D01*
X030293Y004274D01*
X030267Y004259D01*
X030240Y004247D01*
X030211Y004238D01*
X030181Y004233D01*
X030150Y004232D01*
X030120Y004235D01*
X030091Y004242D01*
X030062Y004252D01*
X030036Y004266D01*
X030011Y004283D01*
X029988Y004304D01*
X029969Y004327D01*
X029952Y004352D01*
X029939Y004379D01*
X029930Y004408D01*
X029924Y004438D01*
X029922Y004468D01*
X029922Y004507D02*
X029924Y004537D01*
X029930Y004567D01*
X029939Y004596D01*
X029952Y004623D01*
X029969Y004648D01*
X029988Y004671D01*
X030011Y004692D01*
X030036Y004709D01*
X030062Y004723D01*
X030091Y004733D01*
X030120Y004740D01*
X030150Y004743D01*
X030181Y004742D01*
X030211Y004737D01*
X030240Y004728D01*
X030267Y004716D01*
X030293Y004701D01*
X030317Y004682D01*
X030338Y004660D01*
X030356Y004636D01*
X030371Y004609D01*
X030382Y004581D01*
X030390Y004552D01*
X030394Y004522D01*
X030394Y004492D01*
X030390Y004462D01*
X030382Y004433D01*
X030371Y004405D01*
X030356Y004378D01*
X030338Y004354D01*
X030317Y004332D01*
X030293Y004313D01*
X030267Y004298D01*
X030240Y004286D01*
X030211Y004277D01*
X030181Y004272D01*
X030150Y004271D01*
X030120Y004274D01*
X030091Y004281D01*
X030062Y004291D01*
X030036Y004305D01*
X030011Y004322D01*
X029988Y004343D01*
X029969Y004366D01*
X029952Y004391D01*
X029939Y004418D01*
X029930Y004447D01*
X029924Y004477D01*
X029922Y004507D01*
D11*
X004057Y008698D02*
X003857Y008698D01*
X003857Y008498D01*
X003857Y008698D02*
X003657Y008698D01*
X003857Y008698D02*
X003857Y008898D01*
X003947Y009718D02*
X003947Y009918D01*
X003947Y010118D01*
X003947Y009918D02*
X004137Y009918D01*
X003947Y009918D02*
X003747Y009918D01*
D12*
X009333Y013493D02*
X011262Y013493D01*
X011262Y015028D01*
X009333Y015028D01*
X009333Y013493D01*
X016537Y013688D02*
X016537Y013808D01*
X016537Y013748D02*
X016717Y013748D01*
X016657Y013688D01*
X016727Y014948D02*
X016757Y014978D01*
X016757Y015038D01*
X016727Y015068D01*
X016697Y015068D01*
X016577Y014948D01*
X016577Y015068D01*
D13*
X016528Y015202D02*
X016818Y015202D01*
X016818Y015396D01*
X016818Y015497D02*
X016818Y015642D01*
X016770Y015690D01*
X016722Y015690D01*
X016673Y015642D01*
X016673Y015497D01*
X016673Y015642D02*
X016625Y015690D01*
X016576Y015690D01*
X016528Y015642D01*
X016528Y015497D01*
X016818Y015497D01*
X016673Y015299D02*
X016673Y015202D01*
X017167Y015248D02*
X017215Y015248D01*
X017409Y015441D01*
X017457Y015441D01*
X017457Y015248D01*
X017409Y015147D02*
X017457Y015098D01*
X017457Y015002D01*
X017409Y014953D01*
X017215Y014953D01*
X017167Y015002D01*
X017167Y015098D01*
X017215Y015147D01*
X017215Y015543D02*
X017167Y015591D01*
X017167Y015688D01*
X017215Y015736D01*
X017409Y015736D01*
X017457Y015688D01*
X017457Y015591D01*
X017409Y015543D01*
X017360Y015543D01*
X017312Y015591D01*
X017312Y015736D01*
X017677Y015618D02*
X017725Y015666D01*
X017774Y015666D01*
X017822Y015618D01*
X017822Y015473D01*
X017725Y015473D01*
X017677Y015521D01*
X017677Y015618D01*
X017822Y015473D02*
X017919Y015569D01*
X017967Y015666D01*
X018136Y015639D02*
X018136Y015348D01*
X018233Y015348D02*
X018039Y015348D01*
X017967Y015371D02*
X017919Y015371D01*
X017725Y015178D01*
X017677Y015178D01*
X017725Y015077D02*
X017677Y015028D01*
X017677Y014932D01*
X017725Y014883D01*
X017919Y014883D01*
X017967Y014932D01*
X017967Y015028D01*
X017919Y015077D01*
X017967Y015178D02*
X017967Y015371D01*
X018087Y015199D02*
X018184Y015199D01*
X018233Y015150D01*
X018334Y015053D02*
X018527Y015053D01*
X018382Y015199D01*
X018382Y014908D01*
X018233Y014908D02*
X018039Y015102D01*
X018039Y015150D01*
X018087Y015199D01*
X018039Y014908D02*
X018233Y014908D01*
X018184Y014739D02*
X018087Y014739D01*
X018039Y014690D01*
X018039Y014642D01*
X018087Y014593D01*
X018184Y014593D01*
X018233Y014642D01*
X018233Y014690D01*
X018184Y014739D01*
X018184Y014593D02*
X018233Y014545D01*
X018233Y014497D01*
X018184Y014448D01*
X018087Y014448D01*
X018039Y014497D01*
X018039Y014545D01*
X018087Y014593D01*
X018334Y014545D02*
X018334Y014497D01*
X018382Y014448D01*
X018479Y014448D01*
X018527Y014497D01*
X018628Y014448D02*
X018725Y014545D01*
X018677Y014545D02*
X018822Y014545D01*
X018822Y014448D02*
X018822Y014739D01*
X018677Y014739D01*
X018628Y014690D01*
X018628Y014593D01*
X018677Y014545D01*
X018527Y014690D02*
X018479Y014739D01*
X018382Y014739D01*
X018334Y014690D01*
X018334Y014642D01*
X018382Y014593D01*
X018334Y014545D01*
X018382Y014593D02*
X018430Y014593D01*
X018382Y014289D02*
X018334Y014240D01*
X018334Y014192D01*
X018382Y014143D01*
X018334Y014095D01*
X018334Y014047D01*
X018382Y013998D01*
X018479Y013998D01*
X018527Y014047D01*
X018628Y013998D02*
X018725Y014095D01*
X018677Y014095D02*
X018822Y014095D01*
X018822Y013998D02*
X018822Y014289D01*
X018677Y014289D01*
X018628Y014240D01*
X018628Y014143D01*
X018677Y014095D01*
X018527Y014240D02*
X018479Y014289D01*
X018382Y014289D01*
X018382Y014143D02*
X018430Y014143D01*
X018233Y014143D02*
X018087Y014143D01*
X018039Y014095D01*
X018039Y014047D01*
X018087Y013998D01*
X018184Y013998D01*
X018233Y014047D01*
X018233Y014143D01*
X018136Y014240D01*
X018039Y014289D01*
X018087Y013849D02*
X018184Y013849D01*
X018233Y013800D01*
X018233Y013752D01*
X018184Y013703D01*
X018039Y013703D01*
X018039Y013607D02*
X018039Y013800D01*
X018087Y013849D01*
X018039Y013607D02*
X018087Y013558D01*
X018184Y013558D01*
X018233Y013607D01*
X018334Y013607D02*
X018382Y013558D01*
X018479Y013558D01*
X018527Y013607D01*
X018628Y013558D02*
X018725Y013655D01*
X018677Y013655D02*
X018822Y013655D01*
X018822Y013558D02*
X018822Y013849D01*
X018677Y013849D01*
X018628Y013800D01*
X018628Y013703D01*
X018677Y013655D01*
X018527Y013800D02*
X018479Y013849D01*
X018382Y013849D01*
X018334Y013800D01*
X018334Y013752D01*
X018382Y013703D01*
X018334Y013655D01*
X018334Y013607D01*
X018382Y013703D02*
X018430Y013703D01*
X018628Y014908D02*
X018725Y015005D01*
X018677Y015005D02*
X018822Y015005D01*
X018822Y014908D02*
X018822Y015199D01*
X018677Y015199D01*
X018628Y015150D01*
X018628Y015053D01*
X018677Y015005D01*
X018628Y015348D02*
X018725Y015445D01*
X018677Y015445D02*
X018822Y015445D01*
X018822Y015348D02*
X018822Y015639D01*
X018677Y015639D01*
X018628Y015590D01*
X018628Y015493D01*
X018677Y015445D01*
X018527Y015493D02*
X018334Y015493D01*
X018233Y015542D02*
X018136Y015639D01*
X018184Y015798D02*
X018233Y015847D01*
X018184Y015798D02*
X018087Y015798D01*
X018039Y015847D01*
X018039Y015895D01*
X018087Y015943D01*
X018136Y015943D01*
X018087Y015943D02*
X018039Y015992D01*
X018039Y016040D01*
X018087Y016089D01*
X018184Y016089D01*
X018233Y016040D01*
X018334Y015943D02*
X018527Y015943D01*
X018382Y016089D01*
X018382Y015798D01*
X018382Y015639D02*
X018527Y015493D01*
X018382Y015348D02*
X018382Y015639D01*
X018628Y015798D02*
X018725Y015895D01*
X018677Y015895D02*
X018822Y015895D01*
X018822Y015798D02*
X018822Y016089D01*
X018677Y016089D01*
X018628Y016040D01*
X018628Y015943D01*
X018677Y015895D01*
X018628Y016248D02*
X018725Y016345D01*
X018677Y016345D02*
X018822Y016345D01*
X018822Y016248D02*
X018822Y016539D01*
X018677Y016539D01*
X018628Y016490D01*
X018628Y016393D01*
X018677Y016345D01*
X018527Y016393D02*
X018334Y016393D01*
X018233Y016297D02*
X018039Y016490D01*
X018039Y016297D01*
X018087Y016248D01*
X018184Y016248D01*
X018233Y016297D01*
X018233Y016490D01*
X018184Y016539D01*
X018087Y016539D01*
X018039Y016490D01*
X018087Y016688D02*
X018039Y016737D01*
X018039Y016930D01*
X018087Y016979D01*
X018184Y016979D01*
X018233Y016930D01*
X018233Y016882D01*
X018184Y016833D01*
X018039Y016833D01*
X018087Y016688D02*
X018184Y016688D01*
X018233Y016737D01*
X018334Y016833D02*
X018527Y016833D01*
X018382Y016979D01*
X018382Y016688D01*
X018382Y016539D02*
X018527Y016393D01*
X018382Y016248D02*
X018382Y016539D01*
X018628Y016688D02*
X018725Y016785D01*
X018677Y016785D02*
X018822Y016785D01*
X018822Y016688D02*
X018822Y016979D01*
X018677Y016979D01*
X018628Y016930D01*
X018628Y016833D01*
X018677Y016785D01*
X018628Y017138D02*
X018725Y017235D01*
X018677Y017235D02*
X018822Y017235D01*
X018822Y017138D02*
X018822Y017429D01*
X018677Y017429D01*
X018628Y017380D01*
X018628Y017283D01*
X018677Y017235D01*
X018527Y017283D02*
X018334Y017283D01*
X018233Y017235D02*
X018184Y017283D01*
X018087Y017283D01*
X018039Y017235D01*
X018039Y017187D01*
X018087Y017138D01*
X018184Y017138D01*
X018233Y017187D01*
X018233Y017235D01*
X018184Y017283D02*
X018233Y017332D01*
X018233Y017380D01*
X018184Y017429D01*
X018087Y017429D01*
X018039Y017380D01*
X018039Y017332D01*
X018087Y017283D01*
X018087Y017588D02*
X018184Y017588D01*
X018233Y017637D01*
X018233Y017733D02*
X018136Y017782D01*
X018087Y017782D01*
X018039Y017733D01*
X018039Y017637D01*
X018087Y017588D01*
X018233Y017733D02*
X018233Y017879D01*
X018039Y017879D01*
X018087Y018038D02*
X018039Y018087D01*
X018039Y018280D01*
X018087Y018329D01*
X018184Y018329D01*
X018233Y018280D01*
X018233Y018232D01*
X018184Y018183D01*
X018039Y018183D01*
X018087Y018038D02*
X018184Y018038D01*
X018233Y018087D01*
X018334Y018038D02*
X018527Y018038D01*
X018334Y018232D01*
X018334Y018280D01*
X018382Y018329D01*
X018479Y018329D01*
X018527Y018280D01*
X018628Y018280D02*
X018628Y018183D01*
X018677Y018135D01*
X018822Y018135D01*
X018822Y018038D02*
X018822Y018329D01*
X018677Y018329D01*
X018628Y018280D01*
X018725Y018135D02*
X018628Y018038D01*
X018677Y017879D02*
X018628Y017830D01*
X018628Y017733D01*
X018677Y017685D01*
X018822Y017685D01*
X018822Y017588D02*
X018822Y017879D01*
X018677Y017879D01*
X018527Y017830D02*
X018479Y017879D01*
X018382Y017879D01*
X018334Y017830D01*
X018334Y017782D01*
X018382Y017733D01*
X018334Y017685D01*
X018334Y017637D01*
X018382Y017588D01*
X018479Y017588D01*
X018527Y017637D01*
X018628Y017588D02*
X018725Y017685D01*
X018430Y017733D02*
X018382Y017733D01*
X018382Y017429D02*
X018527Y017283D01*
X018382Y017138D02*
X018382Y017429D01*
X018382Y018498D02*
X018382Y018789D01*
X018527Y018643D01*
X018334Y018643D01*
X018233Y018643D02*
X018039Y018643D01*
X018087Y018498D02*
X018087Y018789D01*
X018233Y018643D01*
X018198Y018938D02*
X018101Y018938D01*
X018053Y018987D01*
X018053Y019180D01*
X018101Y019229D01*
X018198Y019229D01*
X018246Y019180D01*
X018246Y019132D01*
X018198Y019083D01*
X018053Y019083D01*
X018198Y018938D02*
X018246Y018987D01*
X018348Y018938D02*
X018541Y018938D01*
X018444Y018938D02*
X018444Y019229D01*
X018541Y019132D01*
X018642Y019180D02*
X018642Y019083D01*
X018691Y019035D01*
X018836Y019035D01*
X018836Y018938D02*
X018836Y019229D01*
X018691Y019229D01*
X018642Y019180D01*
X018739Y019035D02*
X018642Y018938D01*
X018677Y018789D02*
X018628Y018740D01*
X018628Y018643D01*
X018677Y018595D01*
X018822Y018595D01*
X018822Y018498D02*
X018822Y018789D01*
X018677Y018789D01*
X018725Y018595D02*
X018628Y018498D01*
X018642Y019388D02*
X018739Y019485D01*
X018691Y019485D02*
X018836Y019485D01*
X018836Y019388D02*
X018836Y019679D01*
X018691Y019679D01*
X018642Y019630D01*
X018642Y019533D01*
X018691Y019485D01*
X018541Y019388D02*
X018348Y019582D01*
X018348Y019630D01*
X018396Y019679D01*
X018493Y019679D01*
X018541Y019630D01*
X018541Y019838D02*
X018348Y020032D01*
X018348Y020080D01*
X018396Y020129D01*
X018493Y020129D01*
X018541Y020080D01*
X018642Y020080D02*
X018642Y019983D01*
X018691Y019935D01*
X018836Y019935D01*
X018836Y019838D02*
X018836Y020129D01*
X018691Y020129D01*
X018642Y020080D01*
X018739Y019935D02*
X018642Y019838D01*
X018541Y019838D02*
X018348Y019838D01*
X018246Y019838D02*
X018053Y019838D01*
X018150Y019838D02*
X018150Y020129D01*
X018246Y020032D01*
X018246Y020288D02*
X018053Y020482D01*
X018053Y020530D01*
X018101Y020579D01*
X018198Y020579D01*
X018246Y020530D01*
X018348Y020530D02*
X018396Y020579D01*
X018493Y020579D01*
X018541Y020530D01*
X018642Y020530D02*
X018642Y020433D01*
X018691Y020385D01*
X018836Y020385D01*
X018836Y020288D02*
X018836Y020579D01*
X018691Y020579D01*
X018642Y020530D01*
X018739Y020385D02*
X018642Y020288D01*
X018541Y020288D02*
X018348Y020482D01*
X018348Y020530D01*
X018348Y020738D02*
X018541Y020738D01*
X018444Y020738D02*
X018444Y021029D01*
X018541Y020932D01*
X018642Y020980D02*
X018642Y020883D01*
X018691Y020835D01*
X018836Y020835D01*
X018836Y020738D02*
X018836Y021029D01*
X018691Y021029D01*
X018642Y020980D01*
X018739Y020835D02*
X018642Y020738D01*
X018246Y020787D02*
X018198Y020738D01*
X018101Y020738D01*
X018053Y020787D01*
X018053Y020835D01*
X018101Y020883D01*
X018150Y020883D01*
X018101Y020883D02*
X018053Y020932D01*
X018053Y020980D01*
X018101Y021029D01*
X018198Y021029D01*
X018246Y020980D01*
X018198Y021188D02*
X018101Y021188D01*
X018053Y021237D01*
X018053Y021285D01*
X018101Y021333D01*
X018246Y021333D01*
X018246Y021237D01*
X018198Y021188D01*
X018348Y021188D02*
X018541Y021188D01*
X018348Y021382D01*
X018348Y021430D01*
X018396Y021479D01*
X018493Y021479D01*
X018541Y021430D01*
X018642Y021430D02*
X018642Y021333D01*
X018691Y021285D01*
X018836Y021285D01*
X018836Y021188D02*
X018836Y021479D01*
X018691Y021479D01*
X018642Y021430D01*
X018739Y021285D02*
X018642Y021188D01*
X018246Y021333D02*
X018150Y021430D01*
X018053Y021479D01*
X018053Y021638D02*
X018246Y021638D01*
X018150Y021638D02*
X018150Y021929D01*
X018246Y021832D01*
X018348Y021638D02*
X018541Y021638D01*
X018444Y021638D02*
X018444Y021929D01*
X018541Y021832D01*
X018642Y021880D02*
X018642Y021783D01*
X018691Y021735D01*
X018836Y021735D01*
X018836Y021638D02*
X018836Y021929D01*
X018691Y021929D01*
X018642Y021880D01*
X018739Y021735D02*
X018642Y021638D01*
X018642Y022088D02*
X018739Y022185D01*
X018691Y022185D02*
X018836Y022185D01*
X018836Y022088D02*
X018836Y022379D01*
X018691Y022379D01*
X018642Y022330D01*
X018642Y022233D01*
X018691Y022185D01*
X018541Y022088D02*
X018348Y022088D01*
X018444Y022088D02*
X018444Y022379D01*
X018541Y022282D01*
X018541Y022538D02*
X018348Y022538D01*
X018246Y022587D02*
X018246Y022635D01*
X018198Y022683D01*
X018101Y022683D01*
X018053Y022635D01*
X018053Y022587D01*
X018101Y022538D01*
X018198Y022538D01*
X018246Y022587D01*
X018198Y022683D02*
X018246Y022732D01*
X018246Y022780D01*
X018198Y022829D01*
X018101Y022829D01*
X018053Y022780D01*
X018053Y022732D01*
X018101Y022683D01*
X018348Y022732D02*
X018348Y022780D01*
X018396Y022829D01*
X018493Y022829D01*
X018541Y022780D01*
X018642Y022780D02*
X018642Y022683D01*
X018691Y022635D01*
X018836Y022635D01*
X018836Y022538D02*
X018836Y022829D01*
X018691Y022829D01*
X018642Y022780D01*
X018739Y022635D02*
X018642Y022538D01*
X018541Y022538D02*
X018348Y022732D01*
X018396Y022988D02*
X018396Y023279D01*
X018541Y023133D01*
X018348Y023133D01*
X018246Y023133D02*
X018150Y023182D01*
X018101Y023182D01*
X018053Y023133D01*
X018053Y023037D01*
X018101Y022988D01*
X018198Y022988D01*
X018246Y023037D01*
X018246Y023133D02*
X018246Y023279D01*
X018053Y023279D01*
X018642Y023230D02*
X018642Y023133D01*
X018691Y023085D01*
X018836Y023085D01*
X018836Y022988D02*
X018836Y023279D01*
X018691Y023279D01*
X018642Y023230D01*
X018739Y023085D02*
X018642Y022988D01*
X018198Y022379D02*
X018246Y022330D01*
X018198Y022379D02*
X018101Y022379D01*
X018053Y022330D01*
X018053Y022282D01*
X018246Y022088D01*
X018053Y022088D01*
X018053Y020288D02*
X018246Y020288D01*
X018348Y020288D02*
X018541Y020288D01*
X018198Y019679D02*
X018101Y019679D01*
X018053Y019630D01*
X018246Y019437D01*
X018198Y019388D01*
X018101Y019388D01*
X018053Y019437D01*
X018053Y019630D01*
X018198Y019679D02*
X018246Y019630D01*
X018246Y019437D01*
X018348Y019388D02*
X018541Y019388D01*
X020943Y018508D02*
X021136Y018508D01*
X021040Y018508D02*
X021040Y018799D01*
X021136Y018702D01*
X021238Y018750D02*
X021431Y018557D01*
X021383Y018508D01*
X021286Y018508D01*
X021238Y018557D01*
X021238Y018750D01*
X021286Y018799D01*
X021383Y018799D01*
X021431Y018750D01*
X021431Y018557D01*
X021532Y018508D02*
X021726Y018508D01*
X021629Y018508D02*
X021629Y018799D01*
X021726Y018702D01*
X021827Y018750D02*
X021827Y018653D01*
X021875Y018605D01*
X022020Y018605D01*
X021924Y018605D02*
X021827Y018508D01*
X022020Y018508D02*
X022020Y018799D01*
X021875Y018799D01*
X021827Y018750D01*
X016818Y015936D02*
X016818Y015840D01*
X016770Y015791D01*
X016818Y015936D02*
X016770Y015985D01*
X016722Y015985D01*
X016528Y015791D01*
X016528Y015985D01*
X015167Y015608D02*
X015167Y015511D01*
X015119Y015463D01*
X015070Y015463D01*
X015022Y015511D01*
X015022Y015656D01*
X014925Y015656D02*
X015119Y015656D01*
X015167Y015608D01*
X015167Y015361D02*
X015167Y015168D01*
X015022Y015168D01*
X015070Y015265D01*
X015070Y015313D01*
X015022Y015361D01*
X014925Y015361D01*
X014877Y015313D01*
X014877Y015216D01*
X014925Y015168D01*
X014877Y015067D02*
X014974Y014970D01*
X014974Y015018D02*
X014974Y014873D01*
X014877Y014873D02*
X015167Y014873D01*
X015167Y015018D01*
X015119Y015067D01*
X015022Y015067D01*
X014974Y015018D01*
X014667Y014998D02*
X014667Y014902D01*
X014619Y014853D01*
X014425Y014853D01*
X014377Y014902D01*
X014377Y014998D01*
X014425Y015047D01*
X014425Y015148D02*
X014377Y015196D01*
X014377Y015293D01*
X014425Y015341D01*
X014474Y015341D01*
X014522Y015293D01*
X014522Y015148D01*
X014425Y015148D01*
X014522Y015148D02*
X014619Y015245D01*
X014667Y015341D01*
X014619Y015443D02*
X014667Y015491D01*
X014667Y015588D01*
X014619Y015636D01*
X014570Y015636D01*
X014522Y015588D01*
X014474Y015636D01*
X014425Y015636D01*
X014377Y015588D01*
X014377Y015491D01*
X014425Y015443D01*
X014522Y015539D02*
X014522Y015588D01*
X014187Y015621D02*
X014139Y015573D01*
X014090Y015573D01*
X014042Y015621D01*
X014042Y015766D01*
X014139Y015766D02*
X014187Y015718D01*
X014187Y015621D01*
X014187Y015471D02*
X014187Y015278D01*
X014042Y015278D01*
X014090Y015375D01*
X014090Y015423D01*
X014042Y015471D01*
X013945Y015471D01*
X013897Y015423D01*
X013897Y015326D01*
X013945Y015278D01*
X013945Y015177D02*
X013897Y015128D01*
X013897Y015032D01*
X013945Y014983D01*
X014139Y014983D01*
X014187Y015032D01*
X014187Y015128D01*
X014139Y015177D01*
X013945Y015573D02*
X013897Y015621D01*
X013897Y015718D01*
X013945Y015766D01*
X014139Y015766D01*
X013637Y015598D02*
X013637Y015501D01*
X013589Y015453D01*
X013637Y015351D02*
X013589Y015255D01*
X013492Y015158D01*
X013492Y015303D01*
X013444Y015351D01*
X013395Y015351D01*
X013347Y015303D01*
X013347Y015206D01*
X013395Y015158D01*
X013492Y015158D01*
X013589Y015057D02*
X013637Y015008D01*
X013637Y014912D01*
X013589Y014863D01*
X013395Y014863D01*
X013347Y014912D01*
X013347Y015008D01*
X013395Y015057D01*
X013187Y015018D02*
X013139Y015067D01*
X013042Y015067D01*
X012994Y015018D01*
X012994Y014873D01*
X012994Y014970D02*
X012897Y015067D01*
X012945Y015168D02*
X012897Y015216D01*
X012897Y015313D01*
X012945Y015361D01*
X012994Y015361D01*
X013042Y015313D01*
X013042Y015168D01*
X012945Y015168D01*
X013042Y015168D02*
X013139Y015265D01*
X013187Y015361D01*
X013042Y015463D02*
X013042Y015656D01*
X013187Y015608D02*
X013042Y015463D01*
X012897Y015608D02*
X013187Y015608D01*
X013347Y015646D02*
X013347Y015453D01*
X013540Y015646D01*
X013589Y015646D01*
X013637Y015598D01*
X013187Y015018D02*
X013187Y014873D01*
X012897Y014873D01*
X012727Y014912D02*
X012679Y014863D01*
X012485Y014863D01*
X012437Y014912D01*
X012437Y015008D01*
X012485Y015057D01*
X012437Y015158D02*
X012630Y015351D01*
X012679Y015351D01*
X012727Y015303D01*
X012727Y015206D01*
X012679Y015158D01*
X012679Y015057D02*
X012727Y015008D01*
X012727Y014912D01*
X012437Y015158D02*
X012437Y015351D01*
X012485Y015453D02*
X012437Y015501D01*
X012437Y015598D01*
X012485Y015646D01*
X012679Y015646D01*
X012727Y015598D01*
X012727Y015501D01*
X012679Y015453D01*
X012630Y015453D01*
X012582Y015501D01*
X012582Y015646D01*
X011807Y015536D02*
X011807Y015343D01*
X011807Y015536D02*
X011759Y015536D01*
X011565Y015343D01*
X011517Y015343D01*
X011517Y015241D02*
X011517Y015048D01*
X011517Y015145D02*
X011807Y015145D01*
X011710Y015048D01*
X011759Y014947D02*
X011807Y014898D01*
X011807Y014802D01*
X011759Y014753D01*
X011565Y014753D01*
X011517Y014802D01*
X011517Y014898D01*
X011565Y014947D01*
X011014Y013670D02*
X011016Y013686D01*
X011022Y013702D01*
X011031Y013716D01*
X011043Y013727D01*
X011057Y013735D01*
X011073Y013740D01*
X011089Y013741D01*
X011105Y013738D01*
X011120Y013731D01*
X011134Y013722D01*
X011144Y013709D01*
X011152Y013694D01*
X011156Y013678D01*
X011156Y013662D01*
X011152Y013646D01*
X011144Y013631D01*
X011134Y013618D01*
X011121Y013609D01*
X011105Y013602D01*
X011089Y013599D01*
X011073Y013600D01*
X011057Y013605D01*
X011043Y013613D01*
X011031Y013624D01*
X011022Y013638D01*
X011016Y013654D01*
X011014Y013670D01*
X014619Y015047D02*
X014667Y014998D01*
X014925Y015463D02*
X014877Y015511D01*
X014877Y015608D01*
X014925Y015656D01*
X015301Y013299D02*
X015253Y013250D01*
X015253Y013202D01*
X015301Y013153D01*
X015398Y013153D01*
X015446Y013202D01*
X015446Y013250D01*
X015398Y013299D01*
X015301Y013299D01*
X015301Y013153D02*
X015253Y013105D01*
X015253Y013057D01*
X015301Y013008D01*
X015398Y013008D01*
X015446Y013057D01*
X015446Y013105D01*
X015398Y013153D01*
X015548Y013250D02*
X015548Y013057D01*
X015596Y013008D01*
X015693Y013008D01*
X015741Y013057D01*
X015548Y013250D01*
X015596Y013299D01*
X015693Y013299D01*
X015741Y013250D01*
X015741Y013057D01*
X015842Y013008D02*
X016036Y013008D01*
X015939Y013008D02*
X015939Y013299D01*
X016036Y013202D01*
X016137Y013250D02*
X016185Y013299D01*
X016282Y013299D01*
X016330Y013250D01*
X016330Y013057D01*
X016282Y013008D01*
X016185Y013008D01*
X016137Y013057D01*
X016195Y012879D02*
X016147Y012830D01*
X016195Y012879D02*
X016292Y012879D01*
X016340Y012830D01*
X016340Y012637D01*
X016292Y012588D01*
X016195Y012588D01*
X016147Y012637D01*
X016046Y012588D02*
X015852Y012588D01*
X015949Y012588D02*
X015949Y012879D01*
X016046Y012782D01*
X015751Y012830D02*
X015703Y012879D01*
X015606Y012879D01*
X015558Y012830D01*
X015751Y012637D01*
X015703Y012588D01*
X015606Y012588D01*
X015558Y012637D01*
X015558Y012830D01*
X015456Y012879D02*
X015263Y012879D01*
X015263Y012830D01*
X015456Y012637D01*
X015456Y012588D01*
X015606Y012459D02*
X015558Y012410D01*
X015751Y012217D01*
X015703Y012168D01*
X015606Y012168D01*
X015558Y012217D01*
X015558Y012410D01*
X015606Y012459D02*
X015703Y012459D01*
X015751Y012410D01*
X015751Y012217D01*
X015852Y012168D02*
X016046Y012168D01*
X015949Y012168D02*
X015949Y012459D01*
X016046Y012362D01*
X016147Y012410D02*
X016195Y012459D01*
X016292Y012459D01*
X016340Y012410D01*
X016340Y012217D01*
X016292Y012168D01*
X016195Y012168D01*
X016147Y012217D01*
X015751Y012637D02*
X015751Y012830D01*
X015360Y012410D02*
X015456Y012313D01*
X015311Y012313D01*
X015263Y012265D01*
X015263Y012217D01*
X015311Y012168D01*
X015408Y012168D01*
X015456Y012217D01*
X015456Y012313D01*
X015360Y012410D02*
X015263Y012459D01*
X021795Y005566D02*
X021747Y005518D01*
X021747Y005421D01*
X021795Y005373D01*
X021844Y005373D01*
X021892Y005421D01*
X021892Y005518D01*
X021844Y005566D01*
X021795Y005566D01*
X021892Y005518D02*
X021940Y005566D01*
X021989Y005566D01*
X022037Y005518D01*
X022037Y005421D01*
X021989Y005373D01*
X021940Y005373D01*
X021892Y005421D01*
X021940Y005271D02*
X021989Y005271D01*
X022037Y005223D01*
X022037Y005126D01*
X021989Y005078D01*
X021989Y004977D02*
X022037Y004928D01*
X022037Y004832D01*
X021989Y004783D01*
X021795Y004783D01*
X021747Y004832D01*
X021747Y004928D01*
X021795Y004977D01*
X021747Y005078D02*
X021940Y005271D01*
X021747Y005271D02*
X021747Y005078D01*
X022437Y005058D02*
X022630Y005251D01*
X022679Y005251D01*
X022727Y005203D01*
X022727Y005106D01*
X022679Y005058D01*
X022679Y004957D02*
X022727Y004908D01*
X022727Y004812D01*
X022679Y004763D01*
X022485Y004763D01*
X022437Y004812D01*
X022437Y004908D01*
X022485Y004957D01*
X022437Y005058D02*
X022437Y005251D01*
X022437Y005353D02*
X022485Y005353D01*
X022679Y005546D01*
X022727Y005546D01*
X022727Y005353D01*
X023127Y005391D02*
X023127Y005488D01*
X023175Y005536D01*
X023224Y005536D01*
X023272Y005488D01*
X023272Y005343D01*
X023175Y005343D01*
X023127Y005391D01*
X023127Y005241D02*
X023127Y005048D01*
X023320Y005241D01*
X023369Y005241D01*
X023417Y005193D01*
X023417Y005096D01*
X023369Y005048D01*
X023369Y004947D02*
X023417Y004898D01*
X023417Y004802D01*
X023369Y004753D01*
X023175Y004753D01*
X023127Y004802D01*
X023127Y004898D01*
X023175Y004947D01*
X023272Y005343D02*
X023369Y005439D01*
X023417Y005536D01*
X023837Y005498D02*
X023837Y005401D01*
X023885Y005353D01*
X023982Y005353D02*
X024030Y005449D01*
X024030Y005498D01*
X023982Y005546D01*
X023885Y005546D01*
X023837Y005498D01*
X023982Y005353D02*
X024127Y005353D01*
X024127Y005546D01*
X024079Y005251D02*
X024127Y005203D01*
X024127Y005106D01*
X024079Y005058D01*
X024079Y004957D02*
X024127Y004908D01*
X024127Y004812D01*
X024079Y004763D01*
X023885Y004763D01*
X023837Y004812D01*
X023837Y004908D01*
X023885Y004957D01*
X023837Y005058D02*
X024030Y005251D01*
X024079Y005251D01*
X023837Y005251D02*
X023837Y005058D01*
X024497Y005068D02*
X024690Y005261D01*
X024739Y005261D01*
X024787Y005213D01*
X024787Y005116D01*
X024739Y005068D01*
X024739Y004967D02*
X024787Y004918D01*
X024787Y004822D01*
X024739Y004773D01*
X024545Y004773D01*
X024497Y004822D01*
X024497Y004918D01*
X024545Y004967D01*
X024497Y005068D02*
X024497Y005261D01*
X024642Y005363D02*
X024642Y005556D01*
X024787Y005508D02*
X024642Y005363D01*
X024497Y005508D02*
X024787Y005508D01*
X025217Y005518D02*
X025217Y005421D01*
X025265Y005373D01*
X025217Y005271D02*
X025217Y005078D01*
X025410Y005271D01*
X025459Y005271D01*
X025507Y005223D01*
X025507Y005126D01*
X025459Y005078D01*
X025459Y004977D02*
X025507Y004928D01*
X025507Y004832D01*
X025459Y004783D01*
X025265Y004783D01*
X025217Y004832D01*
X025217Y004928D01*
X025265Y004977D01*
X025459Y005373D02*
X025507Y005421D01*
X025507Y005518D01*
X025459Y005566D01*
X025410Y005566D01*
X025362Y005518D01*
X025314Y005566D01*
X025265Y005566D01*
X025217Y005518D01*
X025362Y005518D02*
X025362Y005469D01*
X025443Y008138D02*
X025636Y008138D01*
X025443Y008332D01*
X025443Y008380D01*
X025491Y008429D01*
X025588Y008429D01*
X025636Y008380D01*
X025738Y008380D02*
X025931Y008187D01*
X025883Y008138D01*
X025786Y008138D01*
X025738Y008187D01*
X025738Y008380D01*
X025786Y008429D01*
X025883Y008429D01*
X025931Y008380D01*
X025931Y008187D01*
X026032Y008138D02*
X026226Y008138D01*
X026129Y008138D02*
X026129Y008429D01*
X026226Y008332D01*
X026327Y008380D02*
X026327Y008283D01*
X026375Y008235D01*
X026520Y008235D01*
X026424Y008235D02*
X026327Y008138D01*
X026520Y008138D02*
X026520Y008429D01*
X026375Y008429D01*
X026327Y008380D01*
X017867Y026813D02*
X017577Y026813D01*
X017674Y026813D02*
X017674Y026958D01*
X017722Y027007D01*
X017819Y027007D01*
X017867Y026958D01*
X017867Y026813D01*
X017674Y026910D02*
X017577Y027007D01*
X017625Y027108D02*
X017577Y027156D01*
X017577Y027253D01*
X017625Y027301D01*
X017674Y027301D01*
X017722Y027253D01*
X017722Y027156D01*
X017770Y027108D01*
X017819Y027108D01*
X017867Y027156D01*
X017867Y027253D01*
X017819Y027301D01*
X017770Y027301D01*
X017722Y027253D01*
X017722Y027156D02*
X017674Y027108D01*
X017625Y027108D01*
X017722Y027403D02*
X017722Y027596D01*
X017867Y027548D02*
X017722Y027403D01*
X017577Y027548D02*
X017867Y027548D01*
X017317Y027596D02*
X017269Y027596D01*
X017075Y027403D01*
X017027Y027403D01*
X017075Y027301D02*
X017027Y027253D01*
X017027Y027156D01*
X017075Y027108D01*
X017124Y027108D01*
X017172Y027156D01*
X017172Y027253D01*
X017124Y027301D01*
X017075Y027301D01*
X017172Y027253D02*
X017220Y027301D01*
X017269Y027301D01*
X017317Y027253D01*
X017317Y027156D01*
X017269Y027108D01*
X017220Y027108D01*
X017172Y027156D01*
X017172Y027007D02*
X017124Y026958D01*
X017124Y026813D01*
X017124Y026910D02*
X017027Y027007D01*
X017172Y027007D02*
X017269Y027007D01*
X017317Y026958D01*
X017317Y026813D01*
X017027Y026813D01*
X016737Y026803D02*
X016737Y026948D01*
X016689Y026997D01*
X016592Y026997D01*
X016544Y026948D01*
X016544Y026803D01*
X016544Y026900D02*
X016447Y026997D01*
X016495Y027098D02*
X016544Y027098D01*
X016592Y027146D01*
X016592Y027243D01*
X016544Y027291D01*
X016495Y027291D01*
X016447Y027243D01*
X016447Y027146D01*
X016495Y027098D01*
X016592Y027146D02*
X016640Y027098D01*
X016689Y027098D01*
X016737Y027146D01*
X016737Y027243D01*
X016689Y027291D01*
X016640Y027291D01*
X016592Y027243D01*
X016592Y027393D02*
X016640Y027489D01*
X016640Y027538D01*
X016592Y027586D01*
X016495Y027586D01*
X016447Y027538D01*
X016447Y027441D01*
X016495Y027393D01*
X016592Y027393D02*
X016737Y027393D01*
X016737Y027586D01*
X016207Y027498D02*
X016159Y027546D01*
X015965Y027353D01*
X015917Y027401D01*
X015917Y027498D01*
X015965Y027546D01*
X016159Y027546D01*
X016207Y027498D02*
X016207Y027401D01*
X016159Y027353D01*
X015965Y027353D01*
X015965Y027251D02*
X016159Y027251D01*
X016207Y027203D01*
X016207Y027106D01*
X016159Y027058D01*
X016110Y027058D01*
X016062Y027106D01*
X016062Y027251D01*
X015965Y027251D02*
X015917Y027203D01*
X015917Y027106D01*
X015965Y027058D01*
X015917Y026957D02*
X016014Y026860D01*
X016014Y026908D02*
X016014Y026763D01*
X015917Y026763D02*
X016207Y026763D01*
X016207Y026908D01*
X016159Y026957D01*
X016062Y026957D01*
X016014Y026908D01*
X015667Y026878D02*
X015667Y026733D01*
X015377Y026733D01*
X015474Y026733D02*
X015474Y026878D01*
X015522Y026927D01*
X015619Y026927D01*
X015667Y026878D01*
X015619Y027028D02*
X015570Y027028D01*
X015522Y027076D01*
X015522Y027173D01*
X015474Y027221D01*
X015425Y027221D01*
X015377Y027173D01*
X015377Y027076D01*
X015425Y027028D01*
X015474Y027028D01*
X015522Y027076D01*
X015522Y027173D02*
X015570Y027221D01*
X015619Y027221D01*
X015667Y027173D01*
X015667Y027076D01*
X015619Y027028D01*
X015474Y026830D02*
X015377Y026927D01*
X014997Y026968D02*
X014997Y026823D01*
X014707Y026823D01*
X014804Y026823D02*
X014804Y026968D01*
X014852Y027017D01*
X014949Y027017D01*
X014997Y026968D01*
X014949Y027118D02*
X014900Y027118D01*
X014852Y027166D01*
X014852Y027311D01*
X014949Y027311D02*
X014997Y027263D01*
X014997Y027166D01*
X014949Y027118D01*
X014949Y027311D02*
X014755Y027311D01*
X014707Y027263D01*
X014707Y027166D01*
X014755Y027118D01*
X014707Y027017D02*
X014804Y026920D01*
X014367Y026968D02*
X014367Y026823D01*
X014077Y026823D01*
X014174Y026823D02*
X014174Y026968D01*
X014222Y027017D01*
X014319Y027017D01*
X014367Y026968D01*
X014319Y027118D02*
X014367Y027166D01*
X014367Y027263D01*
X014319Y027311D01*
X014270Y027311D01*
X014222Y027263D01*
X014222Y027166D01*
X014270Y027118D01*
X014319Y027118D01*
X014222Y027166D02*
X014174Y027118D01*
X014125Y027118D01*
X014077Y027166D01*
X014077Y027263D01*
X014125Y027311D01*
X014174Y027311D01*
X014222Y027263D01*
X014270Y027413D02*
X014222Y027461D01*
X014222Y027606D01*
X014319Y027606D02*
X014367Y027558D01*
X014367Y027461D01*
X014319Y027413D01*
X014270Y027413D01*
X014125Y027413D02*
X014077Y027461D01*
X014077Y027558D01*
X014125Y027606D01*
X014319Y027606D01*
X013707Y027538D02*
X013707Y027441D01*
X013659Y027393D01*
X013659Y027291D02*
X013707Y027243D01*
X013707Y027146D01*
X013659Y027098D01*
X013610Y027098D01*
X013562Y027146D01*
X013562Y027291D01*
X013465Y027291D02*
X013659Y027291D01*
X013465Y027291D02*
X013417Y027243D01*
X013417Y027146D01*
X013465Y027098D01*
X013417Y026997D02*
X013514Y026900D01*
X013514Y026948D02*
X013514Y026803D01*
X013417Y026803D02*
X013707Y026803D01*
X013707Y026948D01*
X013659Y026997D01*
X013562Y026997D01*
X013514Y026948D01*
X013247Y026958D02*
X013199Y027007D01*
X013102Y027007D01*
X013054Y026958D01*
X013054Y026813D01*
X013054Y026910D02*
X012957Y027007D01*
X013005Y027108D02*
X012957Y027156D01*
X012957Y027253D01*
X013005Y027301D01*
X013199Y027301D01*
X013247Y027253D01*
X013247Y027156D01*
X013199Y027108D01*
X013150Y027108D01*
X013102Y027156D01*
X013102Y027301D01*
X013150Y027403D02*
X013102Y027451D01*
X013102Y027596D01*
X013199Y027596D02*
X013247Y027548D01*
X013247Y027451D01*
X013199Y027403D01*
X013150Y027403D01*
X013005Y027403D02*
X012957Y027451D01*
X012957Y027548D01*
X013005Y027596D01*
X013199Y027596D01*
X013417Y027586D02*
X013417Y027393D01*
X013610Y027586D01*
X013659Y027586D01*
X013707Y027538D01*
X014077Y027017D02*
X014174Y026920D01*
X014707Y027413D02*
X014707Y027606D01*
X014707Y027509D02*
X014997Y027509D01*
X014900Y027413D01*
X015377Y027371D02*
X015377Y027468D01*
X015425Y027516D01*
X015474Y027516D01*
X015522Y027468D01*
X015522Y027323D01*
X015425Y027323D01*
X015377Y027371D01*
X015522Y027323D02*
X015619Y027419D01*
X015667Y027516D01*
X016447Y026803D02*
X016737Y026803D01*
X017317Y027403D02*
X017317Y027596D01*
X020960Y027633D02*
X021207Y027633D01*
X020960Y027880D01*
X020960Y027942D01*
X021022Y028004D01*
X021145Y028004D01*
X021207Y027942D01*
X026490Y027623D02*
X026737Y027623D01*
X026613Y027623D02*
X026613Y027994D01*
X026737Y027870D01*
X013247Y026958D02*
X013247Y026813D01*
X012957Y026813D01*
X004707Y019388D02*
X004707Y019291D01*
X004659Y019243D01*
X004610Y019243D01*
X004562Y019291D01*
X004562Y019436D01*
X004659Y019436D02*
X004707Y019388D01*
X004659Y019436D02*
X004465Y019436D01*
X004417Y019388D01*
X004417Y019291D01*
X004465Y019243D01*
X004465Y019141D02*
X004417Y019093D01*
X004417Y018996D01*
X004465Y018948D01*
X004465Y018847D02*
X004417Y018798D01*
X004417Y018702D01*
X004465Y018653D01*
X004659Y018653D01*
X004707Y018702D01*
X004707Y018798D01*
X004659Y018847D01*
X004659Y018948D02*
X004707Y018996D01*
X004707Y019093D01*
X004659Y019141D01*
X004610Y019141D01*
X004562Y019093D01*
X004514Y019141D01*
X004465Y019141D01*
X004562Y019093D02*
X004562Y019045D01*
X004157Y019093D02*
X004109Y019141D01*
X004060Y019141D01*
X004012Y019093D01*
X004012Y018996D01*
X004060Y018948D01*
X004109Y018948D01*
X004157Y018996D01*
X004157Y019093D01*
X004012Y019093D02*
X003964Y019141D01*
X003915Y019141D01*
X003867Y019093D01*
X003867Y018996D01*
X003915Y018948D01*
X003964Y018948D01*
X004012Y018996D01*
X004012Y018847D02*
X003964Y018798D01*
X003964Y018653D01*
X003964Y018750D02*
X003867Y018847D01*
X004012Y018847D02*
X004109Y018847D01*
X004157Y018798D01*
X004157Y018653D01*
X003867Y018653D01*
X003677Y018653D02*
X003677Y018798D01*
X003629Y018847D01*
X003532Y018847D01*
X003484Y018798D01*
X003484Y018653D01*
X003484Y018750D02*
X003387Y018847D01*
X003435Y018948D02*
X003484Y018948D01*
X003532Y018996D01*
X003532Y019093D01*
X003484Y019141D01*
X003435Y019141D01*
X003387Y019093D01*
X003387Y018996D01*
X003435Y018948D01*
X003532Y018996D02*
X003580Y018948D01*
X003629Y018948D01*
X003677Y018996D01*
X003677Y019093D01*
X003629Y019141D01*
X003580Y019141D01*
X003532Y019093D01*
X003629Y019243D02*
X003677Y019291D01*
X003677Y019388D01*
X003629Y019436D01*
X003435Y019243D01*
X003387Y019291D01*
X003387Y019388D01*
X003435Y019436D01*
X003629Y019436D01*
X003629Y019243D02*
X003435Y019243D01*
X003177Y019291D02*
X003129Y019243D01*
X003080Y019243D01*
X003032Y019291D01*
X003032Y019436D01*
X003129Y019436D02*
X003177Y019388D01*
X003177Y019291D01*
X003177Y019141D02*
X003129Y019141D01*
X002935Y018948D01*
X002887Y018948D01*
X002887Y018847D02*
X002984Y018750D01*
X002984Y018798D02*
X002984Y018653D01*
X002887Y018653D02*
X003177Y018653D01*
X003177Y018798D01*
X003129Y018847D01*
X003032Y018847D01*
X002984Y018798D01*
X003177Y018948D02*
X003177Y019141D01*
X002935Y019243D02*
X002887Y019291D01*
X002887Y019388D01*
X002935Y019436D01*
X003129Y019436D01*
X002657Y019378D02*
X002609Y019426D01*
X002560Y019426D01*
X002512Y019378D01*
X002512Y019281D01*
X002560Y019233D01*
X002609Y019233D01*
X002657Y019281D01*
X002657Y019378D01*
X002512Y019378D02*
X002464Y019426D01*
X002415Y019426D01*
X002367Y019378D01*
X002367Y019281D01*
X002415Y019233D01*
X002464Y019233D01*
X002512Y019281D01*
X002609Y019131D02*
X002415Y018938D01*
X002367Y018938D01*
X002367Y018837D02*
X002464Y018740D01*
X002464Y018788D02*
X002464Y018643D01*
X002367Y018643D02*
X002657Y018643D01*
X002657Y018788D01*
X002609Y018837D01*
X002512Y018837D01*
X002464Y018788D01*
X002657Y018938D02*
X002657Y019131D01*
X002609Y019131D01*
X003387Y018653D02*
X003677Y018653D01*
X003915Y019243D02*
X003867Y019291D01*
X003867Y019388D01*
X003915Y019436D01*
X003964Y019436D01*
X004012Y019388D01*
X004012Y019339D01*
X004012Y019388D02*
X004060Y019436D01*
X004109Y019436D01*
X004157Y019388D01*
X004157Y019291D01*
X004109Y019243D01*
X004099Y014576D02*
X004147Y014528D01*
X004147Y014431D01*
X004099Y014383D01*
X004099Y014281D02*
X004050Y014281D01*
X004002Y014233D01*
X004002Y014136D01*
X004050Y014088D01*
X004099Y014088D01*
X004147Y014136D01*
X004147Y014233D01*
X004099Y014281D01*
X004002Y014233D02*
X003954Y014281D01*
X003905Y014281D01*
X003857Y014233D01*
X003857Y014136D01*
X003905Y014088D01*
X003954Y014088D01*
X004002Y014136D01*
X004002Y013987D02*
X003954Y013938D01*
X003954Y013793D01*
X003954Y013890D02*
X003857Y013987D01*
X004002Y013987D02*
X004099Y013987D01*
X004147Y013938D01*
X004147Y013793D01*
X003857Y013793D01*
X003637Y013793D02*
X003637Y013938D01*
X003589Y013987D01*
X003492Y013987D01*
X003444Y013938D01*
X003444Y013793D01*
X003444Y013890D02*
X003347Y013987D01*
X003347Y014088D02*
X003395Y014088D01*
X003589Y014281D01*
X003637Y014281D01*
X003637Y014088D01*
X003637Y013793D02*
X003347Y013793D01*
X003117Y013793D02*
X003117Y013938D01*
X003069Y013987D01*
X002972Y013987D01*
X002924Y013938D01*
X002924Y013793D01*
X002924Y013890D02*
X002827Y013987D01*
X002875Y014088D02*
X002924Y014088D01*
X002972Y014136D01*
X002972Y014233D01*
X002924Y014281D01*
X002875Y014281D01*
X002827Y014233D01*
X002827Y014136D01*
X002875Y014088D01*
X002972Y014136D02*
X003020Y014088D01*
X003069Y014088D01*
X003117Y014136D01*
X003117Y014233D01*
X003069Y014281D01*
X003020Y014281D01*
X002972Y014233D01*
X003020Y014383D02*
X003117Y014479D01*
X002827Y014479D01*
X002827Y014383D02*
X002827Y014576D01*
X002577Y014586D02*
X002529Y014586D01*
X002335Y014393D01*
X002287Y014393D01*
X002529Y014291D02*
X002335Y014098D01*
X002287Y014098D01*
X002287Y013997D02*
X002384Y013900D01*
X002384Y013948D02*
X002384Y013803D01*
X002287Y013803D02*
X002577Y013803D01*
X002577Y013948D01*
X002529Y013997D01*
X002432Y013997D01*
X002384Y013948D01*
X002577Y014098D02*
X002577Y014291D01*
X002529Y014291D01*
X002577Y014393D02*
X002577Y014586D01*
X003347Y014528D02*
X003395Y014576D01*
X003444Y014576D01*
X003492Y014528D01*
X003492Y014383D01*
X003395Y014383D01*
X003347Y014431D01*
X003347Y014528D01*
X003492Y014383D02*
X003589Y014479D01*
X003637Y014576D01*
X003857Y014576D02*
X003857Y014383D01*
X004050Y014576D01*
X004099Y014576D01*
X004447Y014528D02*
X004447Y014431D01*
X004495Y014383D01*
X004544Y014383D01*
X004592Y014431D01*
X004592Y014528D01*
X004544Y014576D01*
X004495Y014576D01*
X004447Y014528D01*
X004592Y014528D02*
X004640Y014576D01*
X004689Y014576D01*
X004737Y014528D01*
X004737Y014431D01*
X004689Y014383D01*
X004640Y014383D01*
X004592Y014431D01*
X004640Y014281D02*
X004592Y014233D01*
X004544Y014281D01*
X004495Y014281D01*
X004447Y014233D01*
X004447Y014136D01*
X004495Y014088D01*
X004495Y013987D02*
X004447Y013938D01*
X004447Y013842D01*
X004495Y013793D01*
X004689Y013793D01*
X004737Y013842D01*
X004737Y013938D01*
X004689Y013987D01*
X004689Y014088D02*
X004737Y014136D01*
X004737Y014233D01*
X004689Y014281D01*
X004640Y014281D01*
X004592Y014233D02*
X004592Y014185D01*
X003117Y013793D02*
X002827Y013793D01*
X004140Y010929D02*
X004140Y010638D01*
X004236Y010638D02*
X004043Y010638D01*
X004236Y010832D02*
X004140Y010929D01*
X004434Y010929D02*
X004434Y010638D01*
X004338Y010638D02*
X004531Y010638D01*
X004632Y010638D02*
X004826Y010638D01*
X004729Y010638D02*
X004729Y010929D01*
X004826Y010832D01*
X004927Y010880D02*
X004975Y010929D01*
X005072Y010929D01*
X005120Y010880D01*
X005120Y010687D01*
X005072Y010638D01*
X004975Y010638D01*
X004927Y010687D01*
X004531Y010832D02*
X004434Y010929D01*
X004426Y009669D02*
X004426Y009378D01*
X004523Y009378D02*
X004329Y009378D01*
X004228Y009427D02*
X004180Y009378D01*
X004083Y009378D01*
X004034Y009427D01*
X004034Y009475D01*
X004083Y009523D01*
X004228Y009523D01*
X004228Y009427D01*
X004228Y009523D02*
X004131Y009620D01*
X004034Y009669D01*
X004426Y009669D02*
X004523Y009572D01*
X004624Y009378D02*
X004817Y009378D01*
X004720Y009378D02*
X004720Y009669D01*
X004817Y009572D01*
X004918Y009620D02*
X004967Y009669D01*
X005064Y009669D01*
X005112Y009620D01*
X005112Y009427D01*
X005064Y009378D01*
X004967Y009378D01*
X004918Y009427D01*
D14*
X009254Y013196D02*
X009254Y013344D01*
X009328Y013270D01*
X009230Y013270D01*
X009234Y015229D02*
X009284Y015229D01*
X009308Y015253D01*
X009308Y015302D02*
X009259Y015327D01*
X009234Y015327D01*
X009210Y015302D01*
X009210Y015253D01*
X009234Y015229D01*
X009308Y015302D02*
X009308Y015376D01*
X009210Y015376D01*
X011325Y015331D02*
X011325Y015306D01*
X011349Y015281D01*
X011398Y015281D01*
X011423Y015306D01*
X011423Y015331D01*
X011398Y015355D01*
X011349Y015355D01*
X011325Y015331D01*
X011349Y015281D02*
X011325Y015257D01*
X011325Y015232D01*
X011349Y015208D01*
X011398Y015208D01*
X011423Y015232D01*
X011423Y015257D01*
X011398Y015281D01*
X011358Y013333D02*
X011358Y013186D01*
X011407Y013186D02*
X011309Y013186D01*
X011407Y013284D02*
X011358Y013333D01*
X016385Y013978D02*
X016871Y013978D01*
X016871Y014175D01*
X016385Y014175D01*
X016385Y014568D01*
X016871Y014568D01*
X016871Y014667D01*
X016871Y014765D01*
X016385Y014765D01*
X016385Y014568D01*
X016385Y014175D01*
X016385Y013978D01*
X016871Y014175D02*
X016871Y014568D01*
D15*
X009066Y014509D02*
X009066Y014126D01*
X008989Y014049D01*
X008836Y014049D01*
X008759Y014126D01*
X008759Y014509D01*
X008606Y014433D02*
X008529Y014509D01*
X008376Y014509D01*
X008299Y014433D01*
X008299Y014356D01*
X008376Y014279D01*
X008299Y014202D01*
X008299Y014126D01*
X008376Y014049D01*
X008529Y014049D01*
X008606Y014126D01*
X008452Y014279D02*
X008376Y014279D01*
X022971Y029218D02*
X022971Y029679D01*
X023201Y029449D01*
X022894Y029449D01*
X023354Y029602D02*
X023661Y029295D01*
X023584Y029218D01*
X023431Y029218D01*
X023354Y029295D01*
X023354Y029602D01*
X023431Y029679D01*
X023584Y029679D01*
X023661Y029602D01*
X023661Y029295D01*
X023815Y029218D02*
X024121Y029218D01*
X023968Y029218D02*
X023968Y029679D01*
X024121Y029525D01*
X024275Y029449D02*
X024352Y029372D01*
X024582Y029372D01*
X024428Y029372D02*
X024275Y029218D01*
X024275Y029449D02*
X024275Y029602D01*
X024352Y029679D01*
X024582Y029679D01*
X024582Y029218D01*
D16*
X017889Y014368D02*
X017865Y014368D01*
X015787Y014160D02*
X015787Y014136D01*
X015787Y013670D02*
X015787Y013646D01*
X015777Y014656D02*
X015777Y014680D01*
X014589Y014418D02*
X014565Y014418D01*
X013489Y014418D02*
X013465Y014418D01*
X012589Y014418D02*
X012565Y014418D01*
X011659Y014278D02*
X011635Y014278D01*
X004589Y017468D02*
X004565Y017468D01*
D17*
X004341Y015896D02*
X004341Y015660D01*
X004813Y015660D02*
X004813Y015896D01*
X004665Y010525D02*
X004429Y010525D01*
X004429Y010052D02*
X004665Y010052D01*
X004605Y009305D02*
X004369Y009305D01*
X004369Y008832D02*
X004605Y008832D01*
X013791Y014300D02*
X013791Y014536D01*
X014263Y014536D02*
X014263Y014300D01*
X017091Y014250D02*
X017091Y014486D01*
X017563Y014486D02*
X017563Y014250D01*
X021601Y004016D02*
X021601Y003780D01*
X022073Y003780D02*
X022073Y004016D01*
X022301Y004016D02*
X022301Y003780D01*
X022773Y003780D02*
X022773Y004016D01*
X023001Y004016D02*
X023001Y003780D01*
X023473Y003780D02*
X023473Y004016D01*
X023701Y004016D02*
X023701Y003780D01*
X024173Y003780D02*
X024173Y004016D01*
X024401Y004016D02*
X024401Y003780D01*
X024873Y003780D02*
X024873Y004016D01*
X025101Y004016D02*
X025101Y003780D01*
X025573Y003780D02*
X025573Y004016D01*
D18*
X015027Y014418D03*
X013027Y014418D03*
X003977Y015818D03*
X003477Y015818D03*
X002977Y015818D03*
X002477Y015818D03*
X002477Y017468D03*
X002977Y017468D03*
X003477Y017468D03*
X003977Y017468D03*
X013097Y028138D03*
X013597Y028138D03*
X014347Y028128D03*
X014847Y028128D03*
X015447Y028128D03*
X016027Y028128D03*
X016597Y028138D03*
X017177Y028138D03*
X017597Y028138D03*
D19*
X019507Y023148D03*
X019507Y022698D03*
X019507Y022248D03*
X019507Y021798D03*
X019507Y021348D03*
X019507Y020898D03*
X019507Y020448D03*
X019507Y019998D03*
X019507Y019548D03*
X019507Y019098D03*
X019507Y018648D03*
X019507Y018188D03*
X019507Y017738D03*
X019507Y017288D03*
X019507Y016838D03*
X019507Y016398D03*
X019507Y015948D03*
X019507Y015498D03*
X019507Y015058D03*
X019507Y014598D03*
X019507Y014148D03*
X019507Y013708D03*
X020477Y018648D03*
X025977Y007888D03*
M02*
