G75*
G70*
%OFA0B0*%
%FSLAX24Y24*%
%IPPOS*%
%LPD*%
%AMOC8*
5,1,8,0,0,1.08239X$1,22.5*
%
%ADD10C,0.0035*%
%ADD11R,0.0354X0.0276*%
%ADD12R,0.0472X0.0315*%
%ADD13R,0.0276X0.0354*%
%ADD14R,0.0579X0.0394*%
%ADD15R,0.0315X0.0472*%
%ADD16R,0.1550X0.2300*%
D10*
X009460Y013444D02*
X009622Y013444D01*
X009622Y013006D01*
X009460Y013006D01*
X009460Y013444D01*
X009460Y013040D02*
X009622Y013040D01*
X009622Y013074D02*
X009460Y013074D01*
X009460Y013108D02*
X009622Y013108D01*
X009622Y013142D02*
X009460Y013142D01*
X009460Y013176D02*
X009622Y013176D01*
X009622Y013210D02*
X009460Y013210D01*
X009460Y013244D02*
X009622Y013244D01*
X009622Y013278D02*
X009460Y013278D01*
X009460Y013312D02*
X009622Y013312D01*
X009622Y013346D02*
X009460Y013346D01*
X009460Y013380D02*
X009622Y013380D01*
X009622Y013414D02*
X009460Y013414D01*
X009964Y013444D02*
X010126Y013444D01*
X010126Y013006D01*
X009964Y013006D01*
X009964Y013444D01*
X009964Y013040D02*
X010126Y013040D01*
X010126Y013074D02*
X009964Y013074D01*
X009964Y013108D02*
X010126Y013108D01*
X010126Y013142D02*
X009964Y013142D01*
X009964Y013176D02*
X010126Y013176D01*
X010126Y013210D02*
X009964Y013210D01*
X009964Y013244D02*
X010126Y013244D01*
X010126Y013278D02*
X009964Y013278D01*
X009964Y013312D02*
X010126Y013312D01*
X010126Y013346D02*
X009964Y013346D01*
X009964Y013380D02*
X010126Y013380D01*
X010126Y013414D02*
X009964Y013414D01*
X010468Y013444D02*
X010630Y013444D01*
X010630Y013006D01*
X010468Y013006D01*
X010468Y013444D01*
X010468Y013040D02*
X010630Y013040D01*
X010630Y013074D02*
X010468Y013074D01*
X010468Y013108D02*
X010630Y013108D01*
X010630Y013142D02*
X010468Y013142D01*
X010468Y013176D02*
X010630Y013176D01*
X010630Y013210D02*
X010468Y013210D01*
X010468Y013244D02*
X010630Y013244D01*
X010630Y013278D02*
X010468Y013278D01*
X010468Y013312D02*
X010630Y013312D01*
X010630Y013346D02*
X010468Y013346D01*
X010468Y013380D02*
X010630Y013380D01*
X010630Y013414D02*
X010468Y013414D01*
X010972Y013444D02*
X011134Y013444D01*
X011134Y013006D01*
X010972Y013006D01*
X010972Y013444D01*
X010972Y013040D02*
X011134Y013040D01*
X011134Y013074D02*
X010972Y013074D01*
X010972Y013108D02*
X011134Y013108D01*
X011134Y013142D02*
X010972Y013142D01*
X010972Y013176D02*
X011134Y013176D01*
X011134Y013210D02*
X010972Y013210D01*
X010972Y013244D02*
X011134Y013244D01*
X011134Y013278D02*
X010972Y013278D01*
X010972Y013312D02*
X011134Y013312D01*
X011134Y013346D02*
X010972Y013346D01*
X010972Y013380D02*
X011134Y013380D01*
X011134Y013414D02*
X010972Y013414D01*
X010972Y015515D02*
X011134Y015515D01*
X011134Y015077D01*
X010972Y015077D01*
X010972Y015515D01*
X010972Y015111D02*
X011134Y015111D01*
X011134Y015145D02*
X010972Y015145D01*
X010972Y015179D02*
X011134Y015179D01*
X011134Y015213D02*
X010972Y015213D01*
X010972Y015247D02*
X011134Y015247D01*
X011134Y015281D02*
X010972Y015281D01*
X010972Y015315D02*
X011134Y015315D01*
X011134Y015349D02*
X010972Y015349D01*
X010972Y015383D02*
X011134Y015383D01*
X011134Y015417D02*
X010972Y015417D01*
X010972Y015451D02*
X011134Y015451D01*
X011134Y015485D02*
X010972Y015485D01*
X010630Y015515D02*
X010468Y015515D01*
X010630Y015515D02*
X010630Y015077D01*
X010468Y015077D01*
X010468Y015515D01*
X010468Y015111D02*
X010630Y015111D01*
X010630Y015145D02*
X010468Y015145D01*
X010468Y015179D02*
X010630Y015179D01*
X010630Y015213D02*
X010468Y015213D01*
X010468Y015247D02*
X010630Y015247D01*
X010630Y015281D02*
X010468Y015281D01*
X010468Y015315D02*
X010630Y015315D01*
X010630Y015349D02*
X010468Y015349D01*
X010468Y015383D02*
X010630Y015383D01*
X010630Y015417D02*
X010468Y015417D01*
X010468Y015451D02*
X010630Y015451D01*
X010630Y015485D02*
X010468Y015485D01*
X010126Y015515D02*
X009964Y015515D01*
X010126Y015515D02*
X010126Y015077D01*
X009964Y015077D01*
X009964Y015515D01*
X009964Y015111D02*
X010126Y015111D01*
X010126Y015145D02*
X009964Y015145D01*
X009964Y015179D02*
X010126Y015179D01*
X010126Y015213D02*
X009964Y015213D01*
X009964Y015247D02*
X010126Y015247D01*
X010126Y015281D02*
X009964Y015281D01*
X009964Y015315D02*
X010126Y015315D01*
X010126Y015349D02*
X009964Y015349D01*
X009964Y015383D02*
X010126Y015383D01*
X010126Y015417D02*
X009964Y015417D01*
X009964Y015451D02*
X010126Y015451D01*
X010126Y015485D02*
X009964Y015485D01*
X009622Y015515D02*
X009460Y015515D01*
X009622Y015515D02*
X009622Y015077D01*
X009460Y015077D01*
X009460Y015515D01*
X009460Y015111D02*
X009622Y015111D01*
X009622Y015145D02*
X009460Y015145D01*
X009460Y015179D02*
X009622Y015179D01*
X009622Y015213D02*
X009460Y015213D01*
X009460Y015247D02*
X009622Y015247D01*
X009622Y015281D02*
X009460Y015281D01*
X009460Y015315D02*
X009622Y015315D01*
X009622Y015349D02*
X009460Y015349D01*
X009460Y015383D02*
X009622Y015383D01*
X009622Y015417D02*
X009460Y015417D01*
X009460Y015451D02*
X009622Y015451D01*
X009622Y015485D02*
X009460Y015485D01*
D11*
X011647Y014534D03*
X011647Y014022D03*
X012577Y014162D03*
X013027Y014162D03*
X013477Y014162D03*
X013477Y014674D03*
X013027Y014674D03*
X012577Y014674D03*
X014577Y014674D03*
X015027Y014674D03*
X015027Y014162D03*
X014577Y014162D03*
X017877Y014112D03*
X017877Y014624D03*
X017597Y027882D03*
X017177Y027882D03*
X016597Y027882D03*
X016597Y028394D03*
X017177Y028394D03*
X017597Y028394D03*
X016027Y028384D03*
X015447Y028384D03*
X015447Y027872D03*
X016027Y027872D03*
X014847Y027872D03*
X014347Y027872D03*
X014347Y028384D03*
X014847Y028384D03*
X013597Y028394D03*
X013097Y028394D03*
X013097Y027882D03*
X013597Y027882D03*
X004577Y017724D03*
X004577Y017212D03*
X003977Y017212D03*
X003477Y017212D03*
X002977Y017212D03*
X002977Y017724D03*
X003477Y017724D03*
X003977Y017724D03*
X002477Y017724D03*
X002477Y017212D03*
X002477Y016074D03*
X002477Y015562D03*
X002977Y015562D03*
X003477Y015562D03*
X003977Y015562D03*
X003977Y016074D03*
X003477Y016074D03*
X002977Y016074D03*
D12*
X004577Y016133D03*
X004577Y015424D03*
X014027Y014773D03*
X014027Y014064D03*
X017327Y014014D03*
X017327Y014723D03*
X021837Y004253D03*
X022537Y004253D03*
X023237Y004253D03*
X023937Y004253D03*
X024637Y004253D03*
X025337Y004253D03*
X025337Y003544D03*
X024637Y003544D03*
X023937Y003544D03*
X023237Y003544D03*
X022537Y003544D03*
X021837Y003544D03*
D13*
X025721Y007888D03*
X026233Y007888D03*
X019763Y013708D03*
X019763Y014148D03*
X019763Y014598D03*
X019763Y015058D03*
X019763Y015498D03*
X019251Y015498D03*
X019251Y015058D03*
X019251Y014598D03*
X019251Y014148D03*
X019251Y013708D03*
X019251Y015948D03*
X019251Y016398D03*
X019251Y016838D03*
X019251Y017288D03*
X019251Y017738D03*
X019763Y017738D03*
X019763Y017288D03*
X019763Y016838D03*
X019763Y016398D03*
X019763Y015948D03*
X019763Y018188D03*
X019763Y018648D03*
X019763Y019098D03*
X019763Y019548D03*
X019763Y019998D03*
X019251Y019998D03*
X019251Y019548D03*
X019251Y019098D03*
X019251Y018648D03*
X019251Y018188D03*
X020221Y018648D03*
X020733Y018648D03*
X019763Y020448D03*
X019763Y020898D03*
X019763Y021348D03*
X019763Y021798D03*
X019763Y022248D03*
X019251Y022248D03*
X019251Y021798D03*
X019251Y021348D03*
X019251Y020898D03*
X019251Y020448D03*
X019251Y022698D03*
X019251Y023148D03*
X019763Y023148D03*
X019763Y022698D03*
X016033Y014668D03*
X015521Y014668D03*
X015531Y014148D03*
X015531Y013658D03*
X016043Y013658D03*
X016043Y014148D03*
D14*
X016637Y014045D03*
X016637Y014694D03*
D15*
X004133Y009068D03*
X004841Y009068D03*
X004901Y010288D03*
X004193Y010288D03*
D16*
X022082Y027728D03*
X025632Y027728D03*
M02*
