G75*
G70*
%OFA0B0*%
%FSLAX24Y24*%
%IPPOS*%
%LPD*%
%AMOC8*
5,1,8,0,0,1.08239X$1,22.5*
%
%ADD10C,0.0557*%
%ADD11C,0.0551*%
%ADD12C,0.0630*%
%ADD13C,0.1063*%
%ADD14C,0.0520*%
%ADD15C,0.0237*%
%ADD16C,0.0050*%
%ADD17C,0.0120*%
%ADD18C,0.0080*%
%ADD19C,0.0160*%
%ADD20C,0.1407*%
D10*
X002227Y005268D03*
X002227Y006268D03*
X002207Y008418D03*
X002207Y009418D03*
X002207Y010418D03*
X012877Y002068D03*
X013877Y002068D03*
X014877Y002068D03*
X015877Y002068D03*
X016877Y002068D03*
X017877Y002068D03*
X018877Y002068D03*
X019877Y002068D03*
X020877Y002068D03*
X021877Y002068D03*
X022877Y002068D03*
X023877Y002068D03*
X024877Y002068D03*
X025877Y002068D03*
X016877Y033068D03*
X015877Y033068D03*
X014877Y033068D03*
X013877Y033068D03*
X012877Y033068D03*
X012877Y034068D03*
X013877Y034068D03*
X013877Y035068D03*
X012877Y035068D03*
X014877Y035068D03*
X014877Y034068D03*
X015877Y034068D03*
X016877Y034068D03*
X016877Y035068D03*
X015877Y035068D03*
X017877Y035068D03*
X017877Y034068D03*
X018877Y034068D03*
X018877Y035068D03*
X019877Y035068D03*
X019877Y034068D03*
X020877Y034068D03*
X020877Y035068D03*
X021877Y035068D03*
X021877Y034068D03*
X022877Y034068D03*
X022877Y035068D03*
X023877Y035068D03*
X023877Y034068D03*
D11*
X031339Y005574D03*
X032520Y003720D03*
D12*
X030158Y003720D03*
D13*
X004966Y020860D03*
X004966Y026057D03*
X004946Y027720D03*
X004946Y032917D03*
D14*
X006009Y031696D03*
X006009Y030712D03*
X006009Y029925D03*
X006009Y028940D03*
X006029Y024836D03*
X006029Y023852D03*
X006029Y023065D03*
X006029Y022080D03*
D15*
X007192Y022323D03*
X007577Y023298D03*
X007177Y023428D03*
X007697Y024488D03*
X008507Y024228D03*
X008917Y024258D03*
X009307Y024208D03*
X009087Y022978D03*
X009087Y022678D03*
X008717Y022678D03*
X008717Y022988D03*
X009067Y021398D03*
X008297Y020638D03*
X007727Y021218D03*
X009497Y020388D03*
X009297Y019628D03*
X009157Y017838D03*
X009407Y017248D03*
X010847Y017128D03*
X011237Y016998D03*
X011327Y017518D03*
X011327Y017818D03*
X011623Y017825D03*
X011629Y017536D03*
X010827Y017718D03*
X010977Y018938D03*
X011217Y019918D03*
X010917Y021058D03*
X010067Y021198D03*
X012747Y022368D03*
X013237Y021638D03*
X013227Y021328D03*
X013547Y021318D03*
X013547Y020998D03*
X013537Y020688D03*
X013547Y020378D03*
X013847Y020378D03*
X013857Y019748D03*
X014177Y019758D03*
X014487Y020048D03*
X014477Y020378D03*
X014487Y020998D03*
X014477Y021338D03*
X014487Y021648D03*
X014487Y021948D03*
X014167Y021958D03*
X014057Y022368D03*
X014497Y022273D03*
X015117Y021648D03*
X015427Y021638D03*
X015427Y021958D03*
X015107Y021318D03*
X015117Y020998D03*
X015427Y020698D03*
X015117Y020388D03*
X015117Y020078D03*
X015127Y019748D03*
X015117Y019428D03*
X015127Y019118D03*
X014787Y018798D03*
X014477Y018798D03*
X014477Y018488D03*
X014167Y018498D03*
X013857Y018498D03*
X013547Y018488D03*
X013227Y018498D03*
X013237Y018178D03*
X013542Y017868D03*
X013857Y018178D03*
X013847Y017538D03*
X013227Y017228D03*
X013207Y017538D03*
X012887Y017548D03*
X012897Y016928D03*
X012737Y016468D03*
X013037Y015838D03*
X013757Y014398D03*
X013497Y013828D03*
X014587Y013668D03*
X015187Y013288D03*
X014477Y012948D03*
X014977Y011818D03*
X015452Y011728D03*
X015922Y011463D03*
X016447Y011738D03*
X016957Y011453D03*
X016827Y010698D03*
X017507Y010488D03*
X016637Y009638D03*
X016787Y008968D03*
X016827Y008318D03*
X016797Y007738D03*
X015607Y006818D03*
X015387Y007778D03*
X015267Y008768D03*
X014977Y009228D03*
X014947Y009558D03*
X014887Y009898D03*
X014557Y009558D03*
X014607Y009218D03*
X014647Y008888D03*
X014187Y009188D03*
X015327Y009578D03*
X014967Y010368D03*
X016477Y012918D03*
X016957Y012918D03*
X016787Y013638D03*
X017277Y013668D03*
X017747Y013308D03*
X017957Y012968D03*
X018257Y013028D03*
X018557Y013073D03*
X018377Y013368D03*
X018077Y013568D03*
X017857Y013798D03*
X018237Y014108D03*
X018377Y013768D03*
X019147Y012968D03*
X019757Y012968D03*
X019467Y012208D03*
X019167Y011758D03*
X019047Y011388D03*
X018547Y011378D03*
X017987Y011488D03*
X017707Y011768D03*
X018277Y012258D03*
X019527Y011378D03*
X019862Y010973D03*
X019907Y010568D03*
X020387Y009678D03*
X020687Y009708D03*
X020917Y009528D03*
X021197Y009418D03*
X021277Y008808D03*
X020797Y008808D03*
X020917Y007878D03*
X020917Y007268D03*
X021507Y007268D03*
X021507Y007878D03*
X022067Y007258D03*
X022462Y008098D03*
X022467Y008408D03*
X022447Y008798D03*
X022372Y009418D03*
X022017Y009618D03*
X021797Y009838D03*
X021887Y008798D03*
X023102Y007543D03*
X023357Y007813D03*
X023602Y007228D03*
X023117Y006928D03*
X022047Y006118D03*
X021127Y006358D03*
X020867Y006148D03*
X020907Y004808D03*
X021077Y004228D03*
X021417Y004228D03*
X021717Y003918D03*
X022097Y003933D03*
X022767Y003888D03*
X023127Y003878D03*
X023247Y003188D03*
X023927Y004578D03*
X024637Y004578D03*
X025357Y004578D03*
X025767Y003548D03*
X026927Y002968D03*
X027827Y003068D03*
X028227Y004368D03*
X029277Y007018D03*
X029927Y007018D03*
X030627Y007018D03*
X030627Y008518D03*
X029927Y008518D03*
X029227Y008518D03*
X029127Y009218D03*
X029627Y009218D03*
X030127Y009218D03*
X030627Y009218D03*
X031127Y009218D03*
X031627Y009218D03*
X032177Y009218D03*
X032127Y010418D03*
X031627Y010418D03*
X031077Y010418D03*
X030627Y010418D03*
X030127Y010418D03*
X029627Y010418D03*
X029127Y010418D03*
X029127Y010968D03*
X029627Y010968D03*
X030127Y010968D03*
X030677Y010968D03*
X031127Y010968D03*
X031627Y010968D03*
X032177Y010968D03*
X032127Y012118D03*
X031627Y012118D03*
X031127Y012118D03*
X030627Y012118D03*
X030127Y012118D03*
X029627Y012118D03*
X029127Y012118D03*
X029177Y013018D03*
X029677Y013018D03*
X030177Y013018D03*
X030677Y013018D03*
X031177Y013018D03*
X031677Y013018D03*
X032177Y013018D03*
X032157Y014238D03*
X031667Y014248D03*
X031157Y014218D03*
X030667Y014228D03*
X030157Y014228D03*
X029687Y014228D03*
X029177Y014218D03*
X028657Y014208D03*
X028167Y014228D03*
X027667Y014218D03*
X027167Y014218D03*
X026697Y014218D03*
X027677Y013018D03*
X028177Y013018D03*
X028677Y013018D03*
X026977Y012168D03*
X026677Y011868D03*
X026377Y012168D03*
X026077Y011868D03*
X025777Y012168D03*
X025377Y011868D03*
X025777Y011468D03*
X026377Y011468D03*
X026977Y011468D03*
X028247Y014968D03*
X028837Y015048D03*
X029357Y015068D03*
X029837Y015058D03*
X030347Y015058D03*
X030847Y015068D03*
X031347Y015068D03*
X031847Y015068D03*
X032357Y015058D03*
X032857Y015068D03*
X033327Y015078D03*
X033277Y016218D03*
X032827Y016218D03*
X032327Y016218D03*
X031827Y016218D03*
X031327Y016218D03*
X030827Y016218D03*
X030327Y016218D03*
X029827Y016218D03*
X029327Y016218D03*
X028827Y016218D03*
X028227Y016368D03*
X028377Y017068D03*
X029127Y017218D03*
X029627Y017218D03*
X030177Y017218D03*
X030627Y017218D03*
X031127Y017218D03*
X031677Y017218D03*
X032177Y017218D03*
X032877Y017068D03*
X032897Y018458D03*
X032147Y018368D03*
X031647Y018358D03*
X031147Y018358D03*
X030627Y018348D03*
X030147Y018358D03*
X029627Y018358D03*
X029147Y018358D03*
X028397Y018498D03*
X028177Y019218D03*
X028177Y019668D03*
X028187Y020168D03*
X029147Y020348D03*
X029647Y020358D03*
X030147Y020348D03*
X030647Y020358D03*
X031127Y020358D03*
X031647Y020358D03*
X032147Y020358D03*
X032177Y020968D03*
X031677Y020968D03*
X031177Y020968D03*
X030677Y020968D03*
X030177Y020968D03*
X029677Y020968D03*
X029177Y020968D03*
X029187Y022098D03*
X029687Y022098D03*
X030187Y022098D03*
X030697Y022108D03*
X031197Y022108D03*
X031697Y022098D03*
X032177Y022108D03*
X032177Y019168D03*
X031627Y019168D03*
X031127Y019168D03*
X030627Y019168D03*
X030177Y019168D03*
X029627Y019168D03*
X029127Y019168D03*
X026907Y019688D03*
X026072Y019673D03*
X026072Y019368D03*
X025727Y019368D03*
X025427Y019368D03*
X025417Y019688D03*
X025437Y019993D03*
X025437Y020308D03*
X025447Y020618D03*
X025427Y020913D03*
X025427Y021233D03*
X025422Y021583D03*
X026057Y021858D03*
X026067Y021238D03*
X025757Y020928D03*
X026112Y020608D03*
X026107Y020298D03*
X026077Y019978D03*
X025747Y019678D03*
X024977Y020468D03*
X024662Y020778D03*
X024277Y020893D03*
X024222Y021408D03*
X023867Y021248D03*
X023857Y021568D03*
X023557Y021568D03*
X023242Y021253D03*
X022977Y021133D03*
X022847Y020793D03*
X023227Y020608D03*
X023537Y020618D03*
X023852Y020623D03*
X023852Y020288D03*
X023537Y019968D03*
X023537Y019668D03*
X023547Y019358D03*
X023547Y019058D03*
X023217Y019338D03*
X022937Y019688D03*
X023187Y019943D03*
X023857Y019683D03*
X023857Y019368D03*
X024267Y019368D03*
X024427Y019678D03*
X024357Y020018D03*
X024997Y018568D03*
X024902Y018168D03*
X024572Y017943D03*
X024702Y017568D03*
X024487Y016923D03*
X023892Y017068D03*
X023667Y016858D03*
X023252Y017473D03*
X022967Y017408D03*
X022672Y017398D03*
X022182Y017578D03*
X021967Y017318D03*
X021962Y016763D03*
X022277Y017958D03*
X021992Y018148D03*
X022187Y018368D03*
X022142Y018668D03*
X022412Y018808D03*
X021967Y018948D03*
X022617Y018078D03*
X022922Y018048D03*
X023217Y018088D03*
X023542Y017798D03*
X023852Y017798D03*
X024162Y018108D03*
X023867Y018408D03*
X023537Y018438D03*
X024442Y018483D03*
X025427Y018398D03*
X025727Y018408D03*
X025897Y018673D03*
X026107Y018888D03*
X026147Y018398D03*
X026077Y017768D03*
X025767Y017788D03*
X025727Y017478D03*
X025427Y017468D03*
X025427Y018708D03*
X022762Y020388D03*
X022302Y020503D03*
X021982Y020343D03*
X022322Y020128D03*
X021972Y020773D03*
X021967Y021218D03*
X022337Y021363D03*
X022157Y021663D03*
X022047Y022218D03*
X021997Y022518D03*
X022277Y022738D03*
X022507Y022533D03*
X022707Y022308D03*
X022897Y022608D03*
X023482Y022633D03*
X024372Y022473D03*
X024792Y022238D03*
X024577Y021763D03*
X020827Y018288D03*
X020797Y016238D03*
X020712Y015783D03*
X020417Y015458D03*
X022102Y014928D03*
X018307Y014978D03*
X017082Y015298D03*
X017107Y016098D03*
X016287Y016548D03*
X016387Y016918D03*
X016367Y017548D03*
X016687Y017568D03*
X016997Y017548D03*
X016987Y017238D03*
X017317Y017218D03*
X017637Y017223D03*
X017637Y016908D03*
X018117Y016508D03*
X017312Y017558D03*
X017317Y017868D03*
X017317Y018178D03*
X017007Y018168D03*
X017317Y018488D03*
X017632Y018513D03*
X017627Y018808D03*
X017317Y019118D03*
X017327Y019438D03*
X017637Y019438D03*
X017317Y019748D03*
X017317Y020068D03*
X017317Y020378D03*
X017317Y020688D03*
X017628Y020708D03*
X017633Y021037D03*
X017323Y021000D03*
X017322Y021308D03*
X017007Y021330D03*
X016697Y021318D03*
X016377Y021328D03*
X016057Y021008D03*
X016377Y020688D03*
X016377Y020378D03*
X016687Y020698D03*
X016387Y019748D03*
X016067Y019438D03*
X016377Y019118D03*
X016377Y018488D03*
X016377Y018168D03*
X016047Y017858D03*
X015747Y017858D03*
X015737Y017558D03*
X015747Y017218D03*
X015427Y017248D03*
X015127Y017228D03*
X015427Y016928D03*
X015592Y016243D03*
X014777Y014958D03*
X014807Y017548D03*
X015127Y017868D03*
X015437Y017858D03*
X015747Y018168D03*
X015757Y018488D03*
X015737Y019108D03*
X015747Y019758D03*
X015737Y020068D03*
X015747Y020378D03*
X014487Y019438D03*
X013857Y019118D03*
X013527Y019118D03*
X012917Y018808D03*
X014487Y017868D03*
X014797Y018478D03*
X017017Y018808D03*
X017007Y019428D03*
X017635Y020045D03*
X017633Y020377D03*
X017957Y021328D03*
X017967Y021638D03*
X017633Y021961D03*
X017297Y021638D03*
X017007Y021648D03*
X016597Y022788D03*
X016637Y023208D03*
X018107Y022358D03*
X018007Y024308D03*
X018297Y024468D03*
X019247Y024788D03*
X020067Y023148D03*
X020267Y022708D03*
X020287Y021198D03*
X017637Y018178D03*
X017627Y017848D03*
X013857Y020998D03*
X013227Y020698D03*
X012077Y024418D03*
X011777Y024768D03*
X012027Y025068D03*
X011477Y025068D03*
X011477Y024418D03*
X012577Y025308D03*
X013597Y026888D03*
X014487Y027228D03*
X015277Y027258D03*
X016297Y027288D03*
X017447Y027198D03*
X017597Y028708D03*
X016597Y028728D03*
X016592Y029088D03*
X016547Y029388D03*
X016477Y029698D03*
X016037Y028738D03*
X015447Y028728D03*
X014697Y029028D03*
X014387Y028748D03*
X013587Y028728D03*
X015077Y030488D03*
X017787Y030598D03*
X018087Y030538D03*
X018397Y030388D03*
X019827Y030268D03*
X020187Y029928D03*
X019427Y033118D03*
X019177Y033368D03*
X018657Y033388D03*
X018637Y033088D03*
X017957Y033358D03*
X010307Y029178D03*
X009547Y029388D03*
X008827Y029388D03*
X008077Y029168D03*
X007477Y030208D03*
X007767Y031298D03*
X007067Y031338D03*
X008117Y032438D03*
X008807Y032198D03*
X009177Y032218D03*
X009627Y032128D03*
X009387Y030928D03*
X009397Y030608D03*
X009047Y030608D03*
X009047Y030918D03*
X008107Y026918D03*
X002307Y020008D03*
X002977Y018528D03*
X003477Y018478D03*
X002477Y018518D03*
X002487Y016708D03*
X002987Y016728D03*
X003487Y016718D03*
X003987Y016718D03*
X004547Y016708D03*
X004567Y018068D03*
X004797Y018728D03*
X005707Y018558D03*
X007247Y015168D03*
X009547Y015788D03*
X011427Y015068D03*
X012207Y014158D03*
X011647Y013668D03*
X010797Y012748D03*
X009807Y012778D03*
X008377Y010468D03*
X008597Y009748D03*
X007777Y009178D03*
X007617Y008718D03*
X007597Y010258D03*
X007637Y010968D03*
X006177Y010968D03*
X005252Y010298D03*
X005287Y009063D03*
X003757Y009068D03*
X003777Y010418D03*
X003357Y014248D03*
X003477Y014868D03*
X002977Y014878D03*
X002477Y014908D03*
X002037Y014348D03*
X003977Y015168D03*
X004567Y015068D03*
X013577Y007568D03*
X011877Y004968D03*
X011377Y004968D03*
X010877Y004968D03*
X010377Y004968D03*
X009877Y004968D03*
X009377Y004968D03*
X008877Y004968D03*
X008377Y004968D03*
X007877Y004968D03*
X007377Y004968D03*
X007377Y003788D03*
X007867Y003808D03*
X008357Y003798D03*
X008867Y003788D03*
X009377Y003778D03*
X009867Y003788D03*
X010367Y003788D03*
X010887Y003808D03*
X011367Y003768D03*
X011887Y003798D03*
X016467Y005428D03*
X016457Y006118D03*
X017837Y005778D03*
X018097Y005648D03*
X017977Y005198D03*
X018577Y005168D03*
X018892Y005183D03*
X019217Y005558D03*
X018077Y007068D03*
X018457Y008398D03*
X019512Y008803D03*
X019757Y008613D03*
X019767Y007908D03*
X021837Y004638D03*
X022377Y004668D03*
X021397Y003538D03*
X019817Y003098D03*
X025132Y007893D03*
X026577Y007868D03*
X026807Y027718D03*
X008357Y034898D03*
X006837Y003748D03*
X005437Y001878D03*
D16*
X011527Y013068D02*
X013377Y012218D01*
X014777Y016668D01*
X014877Y016768D01*
X014877Y017355D01*
X014727Y017355D01*
X014614Y017468D01*
X014614Y017628D01*
X014727Y017741D01*
X014887Y017741D01*
X014918Y017710D01*
X015377Y018168D01*
X015577Y018968D01*
X014980Y018869D01*
X014980Y018718D01*
X014905Y018643D01*
X014990Y018558D01*
X014990Y018398D01*
X015434Y018398D01*
X015422Y018350D02*
X014941Y018350D01*
X014893Y018301D02*
X015410Y018301D01*
X015398Y018253D02*
X014050Y018253D01*
X014050Y018258D02*
X013970Y018338D01*
X014050Y018418D01*
X014050Y018578D01*
X013937Y018691D01*
X013914Y018691D01*
X014284Y018753D01*
X014284Y018718D01*
X014359Y018643D01*
X014284Y018568D01*
X014284Y018408D01*
X014397Y018295D01*
X014557Y018295D01*
X014632Y018370D01*
X014717Y018285D01*
X014877Y018285D01*
X014990Y018398D01*
X014990Y018447D02*
X015446Y018447D01*
X015459Y018495D02*
X014990Y018495D01*
X014990Y018544D02*
X015471Y018544D01*
X015483Y018592D02*
X014956Y018592D01*
X014907Y018641D02*
X015495Y018641D01*
X015507Y018690D02*
X014951Y018690D01*
X014980Y018738D02*
X015519Y018738D01*
X015531Y018787D02*
X014980Y018787D01*
X014980Y018835D02*
X015544Y018835D01*
X015556Y018884D02*
X015069Y018884D01*
X015360Y018932D02*
X015568Y018932D01*
X016143Y018932D02*
X016290Y018932D01*
X016297Y018925D02*
X016457Y018925D01*
X016570Y019038D01*
X016570Y019198D01*
X016457Y019311D01*
X016297Y019311D01*
X016184Y019198D01*
X016184Y019038D01*
X016297Y018925D01*
X016241Y018981D02*
X016144Y018981D01*
X016146Y019029D02*
X016193Y019029D01*
X016184Y019078D02*
X016148Y019078D01*
X016150Y019126D02*
X016184Y019126D01*
X016184Y019175D02*
X016151Y019175D01*
X016153Y019224D02*
X016209Y019224D01*
X016173Y019272D02*
X016258Y019272D01*
X016222Y019321D02*
X017172Y019321D01*
X017209Y019283D02*
X017124Y019198D01*
X017124Y019038D01*
X017237Y018925D01*
X017397Y018925D01*
X017510Y019038D01*
X017510Y019198D01*
X017435Y019273D01*
X017482Y019320D01*
X017557Y019245D01*
X017717Y019245D01*
X017830Y019358D01*
X017830Y019518D01*
X017717Y019631D01*
X017557Y019631D01*
X017482Y019556D01*
X017440Y019598D01*
X017510Y019668D01*
X017510Y019828D01*
X017430Y019908D01*
X017431Y019910D01*
X017447Y019908D01*
X017497Y019910D01*
X017555Y019852D01*
X017715Y019852D01*
X017796Y019934D01*
X020277Y021918D01*
X020707Y022358D01*
X022727Y026468D01*
X023127Y027618D01*
X026634Y027618D01*
X026727Y027525D01*
X026887Y027525D01*
X026980Y027618D01*
X035277Y027618D01*
X035734Y027161D01*
X035734Y017975D01*
X034627Y016868D01*
X023977Y016618D01*
X022527Y016418D01*
X021327Y016418D01*
X020917Y016391D01*
X020877Y016431D01*
X020717Y016431D01*
X020659Y016374D01*
X019827Y016318D01*
X019077Y015768D01*
X018477Y015407D01*
X017912Y014992D01*
X017387Y014528D01*
X016907Y014018D01*
X016898Y013800D01*
X016867Y013831D01*
X016707Y013831D01*
X016594Y013718D01*
X016594Y013558D01*
X016707Y013445D01*
X016867Y013445D01*
X016885Y013463D01*
X016877Y013268D01*
X016877Y013111D01*
X016764Y012998D01*
X016764Y012838D01*
X016877Y012725D01*
X016877Y012568D01*
X016077Y012568D01*
X016077Y013168D01*
X016107Y015798D01*
X016117Y016078D01*
X016108Y016454D01*
X016207Y016355D01*
X016367Y016355D01*
X016480Y016468D01*
X016480Y016628D01*
X016383Y016725D01*
X016467Y016725D01*
X016580Y016838D01*
X016580Y016998D01*
X016467Y017111D01*
X016307Y017111D01*
X016194Y016998D01*
X016194Y016838D01*
X016291Y016741D01*
X016207Y016741D01*
X016104Y016638D01*
X016087Y017358D01*
X016098Y017665D01*
X016127Y017665D01*
X016240Y017778D01*
X016240Y017938D01*
X016127Y018051D01*
X016111Y018051D01*
X016154Y019253D01*
X016260Y019358D01*
X016260Y019518D01*
X016168Y019610D01*
X016194Y019681D01*
X016194Y019668D01*
X016307Y019555D01*
X016467Y019555D01*
X016580Y019668D01*
X016580Y019828D01*
X016467Y019941D01*
X016307Y019941D01*
X016281Y019915D01*
X016297Y019958D01*
X016837Y019968D01*
X017157Y019938D01*
X017176Y019936D01*
X017204Y019908D01*
X017124Y019828D01*
X017124Y019668D01*
X017204Y019588D01*
X017134Y019518D01*
X017134Y019358D01*
X017209Y019283D01*
X017198Y019272D02*
X016496Y019272D01*
X016544Y019224D02*
X017149Y019224D01*
X017124Y019175D02*
X016570Y019175D01*
X016570Y019126D02*
X017124Y019126D01*
X017124Y019078D02*
X016570Y019078D01*
X016561Y019029D02*
X017133Y019029D01*
X017181Y018981D02*
X016512Y018981D01*
X016464Y018932D02*
X017230Y018932D01*
X017404Y018932D02*
X017478Y018932D01*
X017452Y018981D02*
X017526Y018981D01*
X017547Y019001D02*
X017434Y018888D01*
X017434Y018728D01*
X017504Y018658D01*
X017462Y018616D01*
X017397Y018681D01*
X017237Y018681D01*
X017124Y018568D01*
X017124Y018408D01*
X017199Y018333D01*
X017124Y018258D01*
X017124Y018098D01*
X017199Y018023D01*
X017124Y017948D01*
X017124Y017788D01*
X017196Y017716D01*
X017149Y017669D01*
X017077Y017741D01*
X016917Y017741D01*
X016852Y017676D01*
X016767Y017761D01*
X016607Y017761D01*
X016517Y017671D01*
X016447Y017741D01*
X016287Y017741D01*
X016174Y017628D01*
X016174Y017468D01*
X016287Y017355D01*
X016447Y017355D01*
X016537Y017445D01*
X016607Y017375D01*
X016767Y017375D01*
X016832Y017440D01*
X016874Y017398D01*
X016794Y017318D01*
X016794Y017158D01*
X016907Y017045D01*
X017067Y017045D01*
X017142Y017120D01*
X017237Y017025D01*
X017397Y017025D01*
X017479Y017108D01*
X017521Y017066D01*
X017444Y016988D01*
X017444Y016828D01*
X017557Y016715D01*
X017717Y016715D01*
X017830Y016828D01*
X017830Y016988D01*
X017752Y017066D01*
X017830Y017143D01*
X017830Y017303D01*
X017717Y017416D01*
X017557Y017416D01*
X017474Y017334D01*
X017417Y017391D01*
X017505Y017478D01*
X017505Y017638D01*
X017432Y017711D01*
X017462Y017740D01*
X017547Y017655D01*
X017707Y017655D01*
X017820Y017768D01*
X017820Y017928D01*
X017740Y018008D01*
X017830Y018098D01*
X017830Y018258D01*
X017740Y018348D01*
X017825Y018433D01*
X017825Y018593D01*
X017755Y018663D01*
X017820Y018728D01*
X017820Y018888D01*
X017707Y019001D01*
X017547Y019001D01*
X017501Y019029D02*
X021775Y019029D01*
X021774Y019028D02*
X021774Y018868D01*
X021887Y018755D01*
X021956Y018755D01*
X021949Y018748D01*
X021949Y018588D01*
X022041Y018496D01*
X021994Y018448D01*
X021994Y018341D01*
X021912Y018341D01*
X021799Y018228D01*
X021799Y018068D01*
X021912Y017955D01*
X022072Y017955D01*
X022084Y017968D01*
X022084Y017878D01*
X022191Y017771D01*
X022102Y017771D01*
X021989Y017658D01*
X021989Y017511D01*
X021887Y017511D01*
X021774Y017398D01*
X021774Y017238D01*
X021887Y017125D01*
X022047Y017125D01*
X022160Y017238D01*
X022160Y017385D01*
X022262Y017385D01*
X022375Y017498D01*
X022375Y017658D01*
X022268Y017765D01*
X022357Y017765D01*
X022470Y017878D01*
X022470Y017953D01*
X022537Y017885D01*
X022697Y017885D01*
X022754Y017943D01*
X022842Y017855D01*
X023002Y017855D01*
X023089Y017943D01*
X023137Y017895D01*
X023297Y017895D01*
X023410Y018008D01*
X023410Y018168D01*
X023297Y018281D01*
X023137Y018281D01*
X023049Y018194D01*
X023002Y018241D01*
X022842Y018241D01*
X022784Y018184D01*
X022697Y018271D01*
X022537Y018271D01*
X022424Y018158D01*
X022424Y018084D01*
X022357Y018151D01*
X022197Y018151D01*
X022185Y018139D01*
X022185Y018175D01*
X022267Y018175D01*
X022380Y018288D01*
X022380Y018448D01*
X022287Y018541D01*
X022335Y018588D01*
X022335Y018615D01*
X022492Y018615D01*
X022605Y018728D01*
X022605Y018888D01*
X022492Y019001D01*
X022332Y019001D01*
X022219Y018888D01*
X022219Y018861D01*
X022153Y018861D01*
X022160Y018868D01*
X022160Y019028D01*
X022047Y019141D01*
X021887Y019141D01*
X021774Y019028D01*
X021774Y018981D02*
X017727Y018981D01*
X017776Y018932D02*
X021774Y018932D01*
X021774Y018884D02*
X017820Y018884D01*
X017820Y018835D02*
X021807Y018835D01*
X021856Y018787D02*
X017820Y018787D01*
X017820Y018738D02*
X021949Y018738D01*
X021949Y018690D02*
X017781Y018690D01*
X017777Y018641D02*
X021949Y018641D01*
X021949Y018592D02*
X017825Y018592D01*
X017825Y018544D02*
X021993Y018544D01*
X022041Y018495D02*
X017825Y018495D01*
X017825Y018447D02*
X020712Y018447D01*
X020747Y018481D02*
X020634Y018368D01*
X020634Y018208D01*
X020747Y018095D01*
X020907Y018095D01*
X021020Y018208D01*
X021020Y018368D01*
X020907Y018481D01*
X020747Y018481D01*
X020664Y018398D02*
X017790Y018398D01*
X017741Y018350D02*
X020634Y018350D01*
X020634Y018301D02*
X017787Y018301D01*
X017830Y018253D02*
X020634Y018253D01*
X020638Y018204D02*
X017830Y018204D01*
X017830Y018156D02*
X020687Y018156D01*
X020735Y018107D02*
X017830Y018107D01*
X017790Y018059D02*
X021809Y018059D01*
X021799Y018107D02*
X020918Y018107D01*
X020967Y018156D02*
X021799Y018156D01*
X021799Y018204D02*
X021016Y018204D01*
X021020Y018253D02*
X021823Y018253D01*
X021872Y018301D02*
X021020Y018301D01*
X021020Y018350D02*
X021994Y018350D01*
X021994Y018398D02*
X020990Y018398D01*
X020941Y018447D02*
X021994Y018447D01*
X022290Y018544D02*
X023370Y018544D01*
X023344Y018518D02*
X023457Y018631D01*
X023617Y018631D01*
X023717Y018531D01*
X023787Y018601D01*
X023947Y018601D01*
X024060Y018488D01*
X024060Y018328D01*
X023947Y018215D01*
X023787Y018215D01*
X023687Y018315D01*
X023617Y018245D01*
X023457Y018245D01*
X023344Y018358D01*
X023344Y018518D01*
X023344Y018495D02*
X022333Y018495D01*
X022380Y018447D02*
X023344Y018447D01*
X023344Y018398D02*
X022380Y018398D01*
X022380Y018350D02*
X023353Y018350D01*
X023401Y018301D02*
X022380Y018301D01*
X022344Y018253D02*
X022518Y018253D01*
X022470Y018204D02*
X022296Y018204D01*
X022185Y018156D02*
X022424Y018156D01*
X022424Y018107D02*
X022401Y018107D01*
X022470Y017913D02*
X022509Y017913D01*
X022456Y017864D02*
X022833Y017864D01*
X022784Y017913D02*
X022724Y017913D01*
X023011Y017864D02*
X023349Y017864D01*
X023349Y017878D02*
X023349Y017718D01*
X023462Y017605D01*
X023622Y017605D01*
X023697Y017680D01*
X023772Y017605D01*
X023932Y017605D01*
X024045Y017718D01*
X024045Y017878D01*
X023932Y017991D01*
X023772Y017991D01*
X023697Y017916D01*
X023622Y017991D01*
X023462Y017991D01*
X023349Y017878D01*
X023314Y017913D02*
X023384Y017913D01*
X023363Y017961D02*
X023432Y017961D01*
X023410Y018010D02*
X023987Y018010D01*
X023969Y018028D02*
X024082Y017915D01*
X024242Y017915D01*
X024355Y018028D01*
X024355Y018188D01*
X024242Y018301D01*
X024351Y018301D01*
X024362Y018290D02*
X024522Y018290D01*
X024635Y018403D01*
X024635Y018563D01*
X024522Y018676D01*
X024362Y018676D01*
X024249Y018563D01*
X024249Y018403D01*
X024362Y018290D01*
X024290Y018253D02*
X024713Y018253D01*
X024709Y018248D02*
X024709Y018088D01*
X024822Y017975D01*
X024982Y017975D01*
X025095Y018088D01*
X025095Y018248D01*
X024982Y018361D01*
X024822Y018361D01*
X024709Y018248D01*
X024709Y018204D02*
X024339Y018204D01*
X024355Y018156D02*
X024709Y018156D01*
X024709Y018107D02*
X024681Y018107D01*
X024652Y018136D02*
X024492Y018136D01*
X024379Y018023D01*
X024379Y017863D01*
X024492Y017750D01*
X024611Y017750D01*
X024509Y017648D01*
X024509Y017488D01*
X024622Y017375D01*
X024782Y017375D01*
X024895Y017488D01*
X024895Y017648D01*
X024782Y017761D01*
X024663Y017761D01*
X024765Y017863D01*
X024765Y018023D01*
X024652Y018136D01*
X024730Y018059D02*
X024739Y018059D01*
X024765Y018010D02*
X024787Y018010D01*
X024765Y017961D02*
X025667Y017961D01*
X025687Y017981D02*
X025574Y017868D01*
X025574Y017708D01*
X025629Y017653D01*
X025572Y017596D01*
X025507Y017661D01*
X025347Y017661D01*
X025234Y017548D01*
X025234Y017388D01*
X025347Y017275D01*
X025507Y017275D01*
X025582Y017350D01*
X025647Y017285D01*
X025807Y017285D01*
X025920Y017398D01*
X025920Y017558D01*
X025865Y017613D01*
X025912Y017660D01*
X025997Y017575D01*
X026157Y017575D01*
X026270Y017688D01*
X026270Y017848D01*
X026157Y017961D01*
X025997Y017961D01*
X025932Y017896D01*
X025847Y017981D01*
X025687Y017981D01*
X025619Y017913D02*
X024765Y017913D01*
X024765Y017864D02*
X025574Y017864D01*
X025574Y017816D02*
X024717Y017816D01*
X024669Y017767D02*
X025574Y017767D01*
X025574Y017719D02*
X024824Y017719D01*
X024873Y017670D02*
X025612Y017670D01*
X025597Y017622D02*
X025546Y017622D01*
X025307Y017622D02*
X024895Y017622D01*
X024895Y017573D02*
X025259Y017573D01*
X025234Y017525D02*
X024895Y017525D01*
X024882Y017476D02*
X025234Y017476D01*
X025234Y017427D02*
X024834Y017427D01*
X024785Y017379D02*
X025243Y017379D01*
X025292Y017330D02*
X023160Y017330D01*
X023160Y017328D02*
X023047Y017215D01*
X022887Y017215D01*
X022824Y017278D01*
X022752Y017205D01*
X022592Y017205D01*
X022479Y017318D01*
X022479Y017478D01*
X022592Y017591D01*
X022752Y017591D01*
X022814Y017529D01*
X022887Y017601D01*
X023047Y017601D01*
X023160Y017488D01*
X023160Y017328D01*
X023160Y017379D02*
X024618Y017379D01*
X024570Y017427D02*
X023160Y017427D01*
X023160Y017476D02*
X024521Y017476D01*
X024509Y017525D02*
X023124Y017525D01*
X023075Y017573D02*
X024509Y017573D01*
X024509Y017622D02*
X023948Y017622D01*
X023997Y017670D02*
X024531Y017670D01*
X024579Y017719D02*
X024045Y017719D01*
X024045Y017767D02*
X024475Y017767D01*
X024426Y017816D02*
X024045Y017816D01*
X024045Y017864D02*
X024379Y017864D01*
X024379Y017913D02*
X024010Y017913D01*
X024036Y017961D02*
X023962Y017961D01*
X023969Y018028D02*
X023969Y018188D01*
X024082Y018301D01*
X024033Y018301D01*
X024033Y018253D02*
X023984Y018253D01*
X023985Y018204D02*
X023374Y018204D01*
X023410Y018156D02*
X023969Y018156D01*
X023969Y018107D02*
X023410Y018107D01*
X023410Y018059D02*
X023969Y018059D01*
X023742Y017961D02*
X023652Y017961D01*
X023686Y017670D02*
X023707Y017670D01*
X023756Y017622D02*
X023638Y017622D01*
X023446Y017622D02*
X022375Y017622D01*
X022375Y017573D02*
X022574Y017573D01*
X022525Y017525D02*
X022375Y017525D01*
X022352Y017476D02*
X022479Y017476D01*
X022479Y017427D02*
X022304Y017427D01*
X022160Y017379D02*
X022479Y017379D01*
X022479Y017330D02*
X022160Y017330D01*
X022160Y017282D02*
X022515Y017282D01*
X022564Y017233D02*
X022155Y017233D01*
X022106Y017185D02*
X023735Y017185D01*
X023699Y017148D02*
X023699Y017051D01*
X023587Y017051D01*
X023474Y016938D01*
X023474Y016778D01*
X023587Y016665D01*
X023747Y016665D01*
X023860Y016778D01*
X023860Y016875D01*
X023972Y016875D01*
X024085Y016988D01*
X024085Y017148D01*
X023972Y017261D01*
X023812Y017261D01*
X023699Y017148D01*
X023699Y017136D02*
X022058Y017136D01*
X022042Y016956D02*
X021882Y016956D01*
X021769Y016843D01*
X021769Y016683D01*
X021882Y016570D01*
X022042Y016570D01*
X022155Y016683D01*
X022155Y016843D01*
X022042Y016956D01*
X022056Y016942D02*
X023478Y016942D01*
X023474Y016893D02*
X022105Y016893D01*
X022153Y016845D02*
X023474Y016845D01*
X023474Y016796D02*
X022155Y016796D01*
X022155Y016748D02*
X023504Y016748D01*
X023553Y016699D02*
X022155Y016699D01*
X022122Y016651D02*
X025357Y016651D01*
X025340Y017282D02*
X023113Y017282D01*
X023065Y017233D02*
X023784Y017233D01*
X023699Y017088D02*
X017774Y017088D01*
X017779Y017039D02*
X023575Y017039D01*
X023526Y016991D02*
X017827Y016991D01*
X017830Y016942D02*
X021868Y016942D01*
X021819Y016893D02*
X017830Y016893D01*
X017830Y016845D02*
X021771Y016845D01*
X021769Y016796D02*
X017798Y016796D01*
X017749Y016748D02*
X021769Y016748D01*
X021769Y016699D02*
X018199Y016699D01*
X018197Y016701D02*
X018037Y016701D01*
X017924Y016588D01*
X017924Y016428D01*
X018037Y016315D01*
X018197Y016315D01*
X018310Y016428D01*
X018310Y016588D01*
X018197Y016701D01*
X018247Y016651D02*
X021802Y016651D01*
X021850Y016602D02*
X018296Y016602D01*
X018310Y016554D02*
X023508Y016554D01*
X023781Y016699D02*
X027425Y016699D01*
X028184Y016988D02*
X028297Y016875D01*
X028457Y016875D01*
X028570Y016988D01*
X028570Y017148D01*
X028457Y017261D01*
X028297Y017261D01*
X028184Y017148D01*
X028184Y016988D01*
X028184Y016991D02*
X024680Y016991D01*
X024680Y017003D02*
X024567Y017116D01*
X024407Y017116D01*
X024294Y017003D01*
X024294Y016843D01*
X024407Y016730D01*
X024567Y016730D01*
X024680Y016843D01*
X024680Y017003D01*
X024644Y017039D02*
X028184Y017039D01*
X028184Y017088D02*
X024595Y017088D01*
X024680Y016942D02*
X028230Y016942D01*
X028279Y016893D02*
X024680Y016893D01*
X024680Y016845D02*
X033629Y016845D01*
X033070Y016988D02*
X033070Y017148D01*
X032957Y017261D01*
X032797Y017261D01*
X032684Y017148D01*
X032684Y016988D01*
X032797Y016875D01*
X032957Y016875D01*
X033070Y016988D01*
X033070Y016991D02*
X034749Y016991D01*
X034798Y017039D02*
X033070Y017039D01*
X033070Y017088D02*
X034846Y017088D01*
X034895Y017136D02*
X033070Y017136D01*
X033033Y017185D02*
X034943Y017185D01*
X034992Y017233D02*
X032985Y017233D01*
X032769Y017233D02*
X032370Y017233D01*
X032370Y017185D02*
X032720Y017185D01*
X032684Y017136D02*
X032368Y017136D01*
X032370Y017138D02*
X032257Y017025D01*
X032097Y017025D01*
X031984Y017138D01*
X031984Y017298D01*
X032097Y017411D01*
X032257Y017411D01*
X032370Y017298D01*
X032370Y017138D01*
X032319Y017088D02*
X032684Y017088D01*
X032684Y017039D02*
X032270Y017039D01*
X032083Y017039D02*
X031770Y017039D01*
X031757Y017025D02*
X031870Y017138D01*
X031870Y017298D01*
X031757Y017411D01*
X031597Y017411D01*
X031484Y017298D01*
X031484Y017138D01*
X031597Y017025D01*
X031757Y017025D01*
X031819Y017088D02*
X032035Y017088D01*
X031986Y017136D02*
X031868Y017136D01*
X031870Y017185D02*
X031984Y017185D01*
X031984Y017233D02*
X031870Y017233D01*
X031870Y017282D02*
X031984Y017282D01*
X032016Y017330D02*
X031838Y017330D01*
X031789Y017379D02*
X032065Y017379D01*
X032289Y017379D02*
X035137Y017379D01*
X035089Y017330D02*
X032338Y017330D01*
X032370Y017282D02*
X035040Y017282D01*
X035186Y017427D02*
X025920Y017427D01*
X025920Y017476D02*
X035234Y017476D01*
X035283Y017525D02*
X025920Y017525D01*
X025905Y017573D02*
X035332Y017573D01*
X035380Y017622D02*
X026203Y017622D01*
X026252Y017670D02*
X035429Y017670D01*
X035477Y017719D02*
X026270Y017719D01*
X026270Y017767D02*
X035526Y017767D01*
X035574Y017816D02*
X026270Y017816D01*
X026254Y017864D02*
X035623Y017864D01*
X035671Y017913D02*
X026205Y017913D01*
X025949Y017913D02*
X025915Y017913D01*
X025867Y017961D02*
X035720Y017961D01*
X035734Y018010D02*
X025016Y018010D01*
X025065Y018059D02*
X035734Y018059D01*
X035734Y018107D02*
X025095Y018107D01*
X025095Y018156D02*
X035734Y018156D01*
X035734Y018204D02*
X025095Y018204D01*
X025090Y018253D02*
X025300Y018253D01*
X025347Y018205D02*
X025234Y018318D01*
X025234Y018478D01*
X025309Y018553D01*
X025234Y018628D01*
X025234Y018788D01*
X025347Y018901D01*
X025507Y018901D01*
X025620Y018788D01*
X025620Y018628D01*
X025545Y018553D01*
X025572Y018526D01*
X025647Y018601D01*
X025704Y018601D01*
X025704Y018753D01*
X025817Y018866D01*
X025914Y018866D01*
X025914Y018968D01*
X026027Y019081D01*
X026187Y019081D01*
X026300Y018968D01*
X026300Y018808D01*
X026187Y018695D01*
X026090Y018695D01*
X026090Y018593D01*
X025977Y018480D01*
X025920Y018480D01*
X025920Y018328D01*
X025807Y018215D01*
X025647Y018215D01*
X025582Y018280D01*
X025507Y018205D01*
X025347Y018205D01*
X025251Y018301D02*
X025042Y018301D01*
X024993Y018350D02*
X025234Y018350D01*
X025234Y018398D02*
X025100Y018398D01*
X025077Y018375D02*
X025190Y018488D01*
X025190Y018648D01*
X025077Y018761D01*
X024917Y018761D01*
X024804Y018648D01*
X024804Y018488D01*
X024917Y018375D01*
X025077Y018375D01*
X025148Y018447D02*
X025234Y018447D01*
X025251Y018495D02*
X025190Y018495D01*
X025190Y018544D02*
X025300Y018544D01*
X025270Y018592D02*
X025190Y018592D01*
X025190Y018641D02*
X025234Y018641D01*
X025234Y018690D02*
X025148Y018690D01*
X025100Y018738D02*
X025234Y018738D01*
X025234Y018787D02*
X022605Y018787D01*
X022605Y018835D02*
X025281Y018835D01*
X025329Y018884D02*
X023645Y018884D01*
X023627Y018865D02*
X023740Y018978D01*
X023740Y019138D01*
X023670Y019208D01*
X023707Y019245D01*
X023777Y019175D01*
X023937Y019175D01*
X024050Y019288D01*
X024050Y019448D01*
X023937Y019561D01*
X023777Y019561D01*
X023697Y019481D01*
X023660Y019518D01*
X023730Y019588D01*
X023730Y019748D01*
X023660Y019818D01*
X023730Y019888D01*
X023730Y020048D01*
X023617Y020161D01*
X023457Y020161D01*
X023344Y020048D01*
X023344Y019888D01*
X023414Y019818D01*
X023344Y019748D01*
X023344Y019588D01*
X023424Y019508D01*
X023354Y019438D01*
X023354Y019278D01*
X023424Y019208D01*
X023354Y019138D01*
X023354Y018978D01*
X023467Y018865D01*
X023627Y018865D01*
X023694Y018932D02*
X025914Y018932D01*
X025914Y018884D02*
X025524Y018884D01*
X025573Y018835D02*
X025786Y018835D01*
X025737Y018787D02*
X025620Y018787D01*
X025620Y018738D02*
X025704Y018738D01*
X025704Y018690D02*
X025620Y018690D01*
X025620Y018641D02*
X025704Y018641D01*
X025638Y018592D02*
X025584Y018592D01*
X025590Y018544D02*
X025554Y018544D01*
X025554Y018253D02*
X025610Y018253D01*
X025844Y018253D02*
X035734Y018253D01*
X035734Y018301D02*
X025893Y018301D01*
X025920Y018350D02*
X035734Y018350D01*
X035734Y018398D02*
X025920Y018398D01*
X025920Y018447D02*
X035734Y018447D01*
X035734Y018495D02*
X025992Y018495D01*
X026040Y018544D02*
X035734Y018544D01*
X035734Y018592D02*
X026089Y018592D01*
X026090Y018641D02*
X035734Y018641D01*
X035734Y018690D02*
X026090Y018690D01*
X026229Y018738D02*
X035734Y018738D01*
X035734Y018787D02*
X026278Y018787D01*
X026300Y018835D02*
X035734Y018835D01*
X035734Y018884D02*
X026300Y018884D01*
X026300Y018932D02*
X035734Y018932D01*
X035734Y018981D02*
X032262Y018981D01*
X032257Y018975D02*
X032370Y019088D01*
X032370Y019248D01*
X032257Y019361D01*
X032097Y019361D01*
X031984Y019248D01*
X031984Y019088D01*
X032097Y018975D01*
X032257Y018975D01*
X032311Y019029D02*
X035734Y019029D01*
X035734Y019078D02*
X032359Y019078D01*
X032370Y019126D02*
X035734Y019126D01*
X035734Y019175D02*
X032370Y019175D01*
X032370Y019224D02*
X035734Y019224D01*
X035734Y019272D02*
X032346Y019272D01*
X032297Y019321D02*
X035734Y019321D01*
X035734Y019369D02*
X028299Y019369D01*
X028257Y019411D02*
X028370Y019298D01*
X028370Y019138D01*
X028257Y019025D01*
X028097Y019025D01*
X027984Y019138D01*
X027984Y019298D01*
X028097Y019411D01*
X028257Y019411D01*
X028257Y019475D02*
X028370Y019588D01*
X028370Y019748D01*
X028257Y019861D01*
X028097Y019861D01*
X027984Y019748D01*
X027984Y019588D01*
X028097Y019475D01*
X028257Y019475D01*
X028296Y019515D02*
X035734Y019515D01*
X035734Y019563D02*
X028345Y019563D01*
X028370Y019612D02*
X035734Y019612D01*
X035734Y019660D02*
X028370Y019660D01*
X028370Y019709D02*
X035734Y019709D01*
X035734Y019758D02*
X028361Y019758D01*
X028312Y019806D02*
X035734Y019806D01*
X035734Y019855D02*
X028263Y019855D01*
X028090Y019855D02*
X027013Y019855D01*
X026987Y019881D02*
X026827Y019881D01*
X026714Y019768D01*
X026714Y019608D01*
X026827Y019495D01*
X026987Y019495D01*
X027100Y019608D01*
X027100Y019768D01*
X026987Y019881D01*
X027062Y019806D02*
X028042Y019806D01*
X027993Y019758D02*
X027100Y019758D01*
X027100Y019709D02*
X027984Y019709D01*
X027984Y019660D02*
X027100Y019660D01*
X027100Y019612D02*
X027984Y019612D01*
X028009Y019563D02*
X027055Y019563D01*
X027006Y019515D02*
X028057Y019515D01*
X028055Y019369D02*
X025920Y019369D01*
X025920Y019321D02*
X028006Y019321D01*
X027984Y019272D02*
X025903Y019272D01*
X025920Y019288D02*
X025807Y019175D01*
X025647Y019175D01*
X025577Y019245D01*
X025507Y019175D01*
X025347Y019175D01*
X025234Y019288D01*
X025234Y019448D01*
X025309Y019523D01*
X025224Y019608D01*
X025224Y019768D01*
X025337Y019881D01*
X025497Y019881D01*
X025587Y019791D01*
X025667Y019871D01*
X025827Y019871D01*
X025912Y019786D01*
X025992Y019866D01*
X026152Y019866D01*
X026265Y019753D01*
X026265Y019593D01*
X026152Y019480D01*
X025992Y019480D01*
X025907Y019565D01*
X025855Y019513D01*
X025920Y019448D01*
X025920Y019288D01*
X025855Y019224D02*
X027984Y019224D01*
X027984Y019175D02*
X023703Y019175D01*
X023685Y019224D02*
X023729Y019224D01*
X023740Y019126D02*
X027996Y019126D01*
X028044Y019078D02*
X026190Y019078D01*
X026239Y019029D02*
X028093Y019029D01*
X028261Y019029D02*
X028993Y019029D01*
X029041Y018981D02*
X026287Y018981D01*
X026024Y019078D02*
X023740Y019078D01*
X023740Y019029D02*
X025975Y019029D01*
X025926Y018981D02*
X023740Y018981D01*
X023449Y018884D02*
X022605Y018884D01*
X022561Y018932D02*
X023400Y018932D01*
X023354Y018981D02*
X022512Y018981D01*
X022311Y018981D02*
X022160Y018981D01*
X022159Y019029D02*
X023354Y019029D01*
X023354Y019078D02*
X022110Y019078D01*
X022062Y019126D02*
X023354Y019126D01*
X023391Y019175D02*
X017510Y019175D01*
X017510Y019126D02*
X021872Y019126D01*
X021824Y019078D02*
X017510Y019078D01*
X017484Y019224D02*
X023409Y019224D01*
X023360Y019272D02*
X017743Y019272D01*
X017792Y019321D02*
X023354Y019321D01*
X023354Y019369D02*
X017830Y019369D01*
X017830Y019418D02*
X023354Y019418D01*
X023382Y019466D02*
X017830Y019466D01*
X017830Y019515D02*
X022837Y019515D01*
X022857Y019495D02*
X023017Y019495D01*
X023130Y019608D01*
X023130Y019768D01*
X023017Y019881D01*
X022857Y019881D01*
X022744Y019768D01*
X022744Y019608D01*
X022857Y019495D01*
X022789Y019563D02*
X017785Y019563D01*
X017736Y019612D02*
X022744Y019612D01*
X022744Y019660D02*
X017502Y019660D01*
X017510Y019709D02*
X022744Y019709D01*
X022744Y019758D02*
X017510Y019758D01*
X017510Y019806D02*
X022782Y019806D01*
X022830Y019855D02*
X017717Y019855D01*
X017766Y019903D02*
X023344Y019903D01*
X023344Y019952D02*
X022418Y019952D01*
X022402Y019935D02*
X022515Y020048D01*
X022515Y020208D01*
X022402Y020321D01*
X022393Y020321D01*
X022495Y020423D01*
X022495Y020583D01*
X023344Y020583D01*
X023344Y020538D02*
X023457Y020425D01*
X023617Y020425D01*
X023697Y020505D01*
X023746Y020456D01*
X023659Y020368D01*
X023659Y020208D01*
X023772Y020095D01*
X023932Y020095D01*
X024045Y020208D01*
X024045Y020368D01*
X023957Y020456D01*
X024045Y020543D01*
X024045Y020703D01*
X023932Y020816D01*
X023772Y020816D01*
X023692Y020736D01*
X023617Y020811D01*
X023457Y020811D01*
X023344Y020698D01*
X023344Y020538D01*
X023348Y020534D02*
X022889Y020534D01*
X022842Y020581D02*
X022682Y020581D01*
X022569Y020468D01*
X022569Y020308D01*
X022682Y020195D01*
X022842Y020195D01*
X022955Y020308D01*
X022955Y020468D01*
X022842Y020581D01*
X022767Y020600D02*
X022927Y020600D01*
X023040Y020713D01*
X023040Y020873D01*
X022973Y020940D01*
X023057Y020940D01*
X023170Y021053D01*
X023170Y021213D01*
X023057Y021326D01*
X022897Y021326D01*
X022784Y021213D01*
X022784Y021053D01*
X022851Y020986D01*
X022767Y020986D01*
X022654Y020873D01*
X022654Y020713D01*
X022767Y020600D01*
X022736Y020631D02*
X022447Y020631D01*
X022495Y020583D02*
X022382Y020696D01*
X022222Y020696D01*
X022109Y020583D01*
X022054Y020583D01*
X022052Y020580D02*
X022165Y020693D01*
X022165Y020853D01*
X022052Y020966D01*
X021892Y020966D01*
X021779Y020853D01*
X021779Y020693D01*
X021892Y020580D01*
X022052Y020580D01*
X022062Y020536D02*
X021902Y020536D01*
X021789Y020423D01*
X021789Y020263D01*
X021902Y020150D01*
X022062Y020150D01*
X022175Y020263D01*
X022175Y020358D01*
X022222Y020310D01*
X022231Y020310D01*
X022129Y020208D01*
X022129Y020048D01*
X022242Y019935D01*
X022402Y019935D01*
X022467Y020000D02*
X023344Y020000D01*
X023344Y020049D02*
X022515Y020049D01*
X022515Y020097D02*
X023393Y020097D01*
X023441Y020146D02*
X022515Y020146D01*
X022515Y020194D02*
X023673Y020194D01*
X023659Y020243D02*
X022889Y020243D01*
X022938Y020291D02*
X023659Y020291D01*
X023659Y020340D02*
X022955Y020340D01*
X022955Y020389D02*
X023679Y020389D01*
X023728Y020437D02*
X023628Y020437D01*
X023677Y020486D02*
X023717Y020486D01*
X023976Y020437D02*
X024784Y020437D01*
X024784Y020389D02*
X024024Y020389D01*
X024045Y020340D02*
X024832Y020340D01*
X024784Y020388D02*
X024897Y020275D01*
X025057Y020275D01*
X025170Y020388D01*
X025170Y020548D01*
X025057Y020661D01*
X024897Y020661D01*
X024784Y020548D01*
X024784Y020388D01*
X024784Y020486D02*
X023987Y020486D01*
X024036Y020534D02*
X024784Y020534D01*
X024818Y020583D02*
X024045Y020583D01*
X024045Y020631D02*
X024536Y020631D01*
X024582Y020585D02*
X024742Y020585D01*
X024855Y020698D01*
X024855Y020858D01*
X024742Y020971D01*
X025234Y020971D01*
X025234Y020993D02*
X025234Y020833D01*
X025311Y020756D01*
X025254Y020698D01*
X025254Y020538D01*
X025324Y020468D01*
X025244Y020388D01*
X025244Y020228D01*
X025357Y020115D01*
X025517Y020115D01*
X025630Y020228D01*
X025630Y020388D01*
X025560Y020458D01*
X025640Y020538D01*
X025640Y020698D01*
X025562Y020776D01*
X025599Y020813D01*
X025677Y020735D01*
X025837Y020735D01*
X025950Y020848D01*
X025950Y021008D01*
X025837Y021121D01*
X025677Y021121D01*
X025584Y021029D01*
X025507Y021106D01*
X025347Y021106D01*
X025234Y020993D01*
X025260Y021020D02*
X024423Y021020D01*
X024470Y020973D02*
X024357Y021086D01*
X024197Y021086D01*
X024084Y020973D01*
X024084Y020813D01*
X024197Y020700D01*
X024357Y020700D01*
X024469Y020813D01*
X024469Y020698D01*
X024582Y020585D01*
X024487Y020680D02*
X024045Y020680D01*
X024020Y020728D02*
X024169Y020728D01*
X024120Y020777D02*
X023971Y020777D01*
X024084Y020825D02*
X023040Y020825D01*
X023040Y020777D02*
X023423Y020777D01*
X023374Y020728D02*
X023040Y020728D01*
X023006Y020680D02*
X023344Y020680D01*
X023344Y020631D02*
X022958Y020631D01*
X022937Y020486D02*
X023397Y020486D01*
X023445Y020437D02*
X022955Y020437D01*
X022635Y020534D02*
X022495Y020534D01*
X022495Y020486D02*
X022586Y020486D01*
X022569Y020437D02*
X022495Y020437D01*
X022460Y020389D02*
X022569Y020389D01*
X022569Y020340D02*
X022411Y020340D01*
X022432Y020291D02*
X022586Y020291D01*
X022634Y020243D02*
X022480Y020243D01*
X022212Y020291D02*
X022175Y020291D01*
X022175Y020340D02*
X022192Y020340D01*
X022164Y020243D02*
X022154Y020243D01*
X022129Y020194D02*
X022106Y020194D01*
X022129Y020146D02*
X018061Y020146D01*
X018001Y020097D02*
X022129Y020097D01*
X022129Y020049D02*
X017940Y020049D01*
X017879Y020000D02*
X022177Y020000D01*
X022226Y019952D02*
X017819Y019952D01*
X017553Y019855D02*
X017483Y019855D01*
X017504Y019903D02*
X017435Y019903D01*
X017199Y019903D02*
X016505Y019903D01*
X016553Y019855D02*
X017150Y019855D01*
X017124Y019806D02*
X016580Y019806D01*
X016580Y019758D02*
X017124Y019758D01*
X017124Y019709D02*
X016580Y019709D01*
X016572Y019660D02*
X017132Y019660D01*
X017180Y019612D02*
X016523Y019612D01*
X016475Y019563D02*
X017179Y019563D01*
X017134Y019515D02*
X016260Y019515D01*
X016260Y019466D02*
X017134Y019466D01*
X017134Y019418D02*
X016260Y019418D01*
X016260Y019369D02*
X017134Y019369D01*
X017436Y019272D02*
X017530Y019272D01*
X017489Y019563D02*
X017475Y019563D01*
X017453Y019612D02*
X017538Y019612D01*
X017014Y019952D02*
X016294Y019952D01*
X016202Y019660D02*
X016186Y019660D01*
X016168Y019612D02*
X016250Y019612D01*
X016215Y019563D02*
X016299Y019563D01*
X016141Y018884D02*
X017434Y018884D01*
X017434Y018835D02*
X016139Y018835D01*
X016138Y018787D02*
X017434Y018787D01*
X017434Y018738D02*
X016136Y018738D01*
X016134Y018690D02*
X017473Y018690D01*
X017487Y018641D02*
X017437Y018641D01*
X017197Y018641D02*
X016497Y018641D01*
X016457Y018681D02*
X016297Y018681D01*
X016184Y018568D01*
X016184Y018408D01*
X016264Y018328D01*
X016184Y018248D01*
X016184Y018088D01*
X016297Y017975D01*
X016457Y017975D01*
X016570Y018088D01*
X016570Y018248D01*
X016490Y018328D01*
X016570Y018408D01*
X016570Y018568D01*
X016457Y018681D01*
X016546Y018592D02*
X017148Y018592D01*
X017124Y018544D02*
X016570Y018544D01*
X016570Y018495D02*
X017124Y018495D01*
X017124Y018447D02*
X016570Y018447D01*
X016560Y018398D02*
X017134Y018398D01*
X017183Y018350D02*
X016511Y018350D01*
X016517Y018301D02*
X017167Y018301D01*
X017124Y018253D02*
X016565Y018253D01*
X016570Y018204D02*
X017124Y018204D01*
X017124Y018156D02*
X016570Y018156D01*
X016570Y018107D02*
X017124Y018107D01*
X017164Y018059D02*
X016540Y018059D01*
X016491Y018010D02*
X017186Y018010D01*
X017137Y017961D02*
X016217Y017961D01*
X016240Y017913D02*
X017124Y017913D01*
X017124Y017864D02*
X016240Y017864D01*
X016240Y017816D02*
X017124Y017816D01*
X017145Y017767D02*
X016229Y017767D01*
X016264Y017719D02*
X016180Y017719D01*
X016216Y017670D02*
X016132Y017670D01*
X016096Y017622D02*
X016174Y017622D01*
X016174Y017573D02*
X016094Y017573D01*
X016093Y017525D02*
X016174Y017525D01*
X016174Y017476D02*
X016091Y017476D01*
X016089Y017427D02*
X016215Y017427D01*
X016263Y017379D02*
X016088Y017379D01*
X016088Y017330D02*
X016806Y017330D01*
X016794Y017282D02*
X016089Y017282D01*
X016090Y017233D02*
X016794Y017233D01*
X016794Y017185D02*
X016091Y017185D01*
X016092Y017136D02*
X016816Y017136D01*
X016865Y017088D02*
X016490Y017088D01*
X016539Y017039D02*
X017223Y017039D01*
X017175Y017088D02*
X017109Y017088D01*
X017410Y017039D02*
X017495Y017039D01*
X017500Y017088D02*
X017459Y017088D01*
X017446Y016991D02*
X016580Y016991D01*
X016580Y016942D02*
X017444Y016942D01*
X017444Y016893D02*
X016580Y016893D01*
X016580Y016845D02*
X017444Y016845D01*
X017476Y016796D02*
X016538Y016796D01*
X016489Y016748D02*
X017524Y016748D01*
X017938Y016602D02*
X016480Y016602D01*
X016480Y016554D02*
X017924Y016554D01*
X017924Y016505D02*
X016480Y016505D01*
X016468Y016457D02*
X017924Y016457D01*
X017944Y016408D02*
X016419Y016408D01*
X016371Y016359D02*
X017993Y016359D01*
X018241Y016359D02*
X020444Y016359D01*
X020694Y016408D02*
X018289Y016408D01*
X018310Y016457D02*
X022804Y016457D01*
X023156Y016505D02*
X018310Y016505D01*
X018035Y016699D02*
X016409Y016699D01*
X016457Y016651D02*
X017986Y016651D01*
X017823Y017136D02*
X021876Y017136D01*
X021828Y017185D02*
X017830Y017185D01*
X017830Y017233D02*
X021779Y017233D01*
X021774Y017282D02*
X017830Y017282D01*
X017803Y017330D02*
X021774Y017330D01*
X021774Y017379D02*
X017754Y017379D01*
X017520Y017379D02*
X017429Y017379D01*
X017454Y017427D02*
X021803Y017427D01*
X021852Y017476D02*
X017502Y017476D01*
X017505Y017525D02*
X021989Y017525D01*
X021989Y017573D02*
X017505Y017573D01*
X017505Y017622D02*
X021989Y017622D01*
X022001Y017670D02*
X017722Y017670D01*
X017770Y017719D02*
X022049Y017719D01*
X022098Y017767D02*
X017819Y017767D01*
X017820Y017816D02*
X022146Y017816D01*
X022098Y017864D02*
X017820Y017864D01*
X017820Y017913D02*
X022084Y017913D01*
X022078Y017961D02*
X022084Y017961D01*
X021906Y017961D02*
X017787Y017961D01*
X017741Y018010D02*
X021857Y018010D01*
X022314Y017719D02*
X023349Y017719D01*
X023349Y017767D02*
X022359Y017767D01*
X022407Y017816D02*
X023349Y017816D01*
X023397Y017670D02*
X022363Y017670D01*
X022770Y017573D02*
X022859Y017573D01*
X022869Y017233D02*
X022780Y017233D01*
X023059Y017913D02*
X023119Y017913D01*
X023060Y018204D02*
X023039Y018204D01*
X023108Y018253D02*
X022715Y018253D01*
X022764Y018204D02*
X022805Y018204D01*
X023325Y018253D02*
X023450Y018253D01*
X023624Y018253D02*
X023750Y018253D01*
X023701Y018301D02*
X023673Y018301D01*
X023704Y018544D02*
X023730Y018544D01*
X023778Y018592D02*
X023656Y018592D01*
X023418Y018592D02*
X022335Y018592D01*
X022517Y018641D02*
X024327Y018641D01*
X024278Y018592D02*
X023956Y018592D01*
X024004Y018544D02*
X024249Y018544D01*
X024249Y018495D02*
X024053Y018495D01*
X024060Y018447D02*
X024249Y018447D01*
X024254Y018398D02*
X024060Y018398D01*
X024060Y018350D02*
X024303Y018350D01*
X024242Y018301D02*
X024082Y018301D01*
X024355Y018107D02*
X024463Y018107D01*
X024414Y018059D02*
X024355Y018059D01*
X024336Y018010D02*
X024379Y018010D01*
X024379Y017961D02*
X024288Y017961D01*
X024533Y018301D02*
X024762Y018301D01*
X024810Y018350D02*
X024581Y018350D01*
X024630Y018398D02*
X024894Y018398D01*
X024845Y018447D02*
X024635Y018447D01*
X024635Y018495D02*
X024804Y018495D01*
X024804Y018544D02*
X024635Y018544D01*
X024606Y018592D02*
X024804Y018592D01*
X024804Y018641D02*
X024557Y018641D01*
X024845Y018690D02*
X022566Y018690D01*
X022605Y018738D02*
X024894Y018738D01*
X025299Y019224D02*
X024395Y019224D01*
X024443Y019272D02*
X025250Y019272D01*
X025234Y019321D02*
X024460Y019321D01*
X024460Y019288D02*
X024347Y019175D01*
X024187Y019175D01*
X024074Y019288D01*
X024074Y019448D01*
X024187Y019561D01*
X024271Y019561D01*
X024234Y019598D01*
X024234Y019758D01*
X024301Y019825D01*
X024277Y019825D01*
X024164Y019938D01*
X024164Y020098D01*
X024277Y020211D01*
X024437Y020211D01*
X024550Y020098D01*
X024550Y019938D01*
X024483Y019871D01*
X024507Y019871D01*
X024620Y019758D01*
X024620Y019598D01*
X024507Y019485D01*
X024423Y019485D01*
X024460Y019448D01*
X024460Y019288D01*
X024460Y019369D02*
X025234Y019369D01*
X025234Y019418D02*
X024460Y019418D01*
X024442Y019466D02*
X025252Y019466D01*
X025300Y019515D02*
X024536Y019515D01*
X024585Y019563D02*
X025269Y019563D01*
X025224Y019612D02*
X024620Y019612D01*
X024620Y019660D02*
X025224Y019660D01*
X025224Y019709D02*
X024620Y019709D01*
X024620Y019758D02*
X025224Y019758D01*
X025262Y019806D02*
X024572Y019806D01*
X024523Y019855D02*
X025310Y019855D01*
X025523Y019855D02*
X025650Y019855D01*
X025602Y019806D02*
X025572Y019806D01*
X025843Y019855D02*
X025980Y019855D01*
X025932Y019806D02*
X025892Y019806D01*
X025905Y019563D02*
X025909Y019563D01*
X025957Y019515D02*
X025856Y019515D01*
X025902Y019466D02*
X035734Y019466D01*
X035734Y019418D02*
X025920Y019418D01*
X026186Y019515D02*
X026807Y019515D01*
X026759Y019563D02*
X026235Y019563D01*
X026265Y019612D02*
X026714Y019612D01*
X026714Y019660D02*
X026265Y019660D01*
X026265Y019709D02*
X026714Y019709D01*
X026714Y019758D02*
X026261Y019758D01*
X026212Y019806D02*
X026752Y019806D01*
X026800Y019855D02*
X026163Y019855D01*
X026187Y020105D02*
X026027Y020105D01*
X025914Y020218D01*
X025914Y020378D01*
X026027Y020491D01*
X026187Y020491D01*
X026300Y020378D01*
X026300Y020218D01*
X026187Y020105D01*
X026227Y020146D02*
X035734Y020146D01*
X035734Y020194D02*
X026276Y020194D01*
X026300Y020243D02*
X035734Y020243D01*
X035734Y020291D02*
X026300Y020291D01*
X026300Y020340D02*
X035734Y020340D01*
X035734Y020389D02*
X026289Y020389D01*
X026241Y020437D02*
X035734Y020437D01*
X035734Y020486D02*
X026192Y020486D01*
X026021Y020486D02*
X025587Y020486D01*
X025581Y020437D02*
X025973Y020437D01*
X025924Y020389D02*
X025629Y020389D01*
X025630Y020340D02*
X025914Y020340D01*
X025914Y020291D02*
X025630Y020291D01*
X025630Y020243D02*
X025914Y020243D01*
X025938Y020194D02*
X025596Y020194D01*
X025547Y020146D02*
X025986Y020146D01*
X025636Y020534D02*
X035734Y020534D01*
X035734Y020583D02*
X025640Y020583D01*
X025640Y020631D02*
X035734Y020631D01*
X035734Y020680D02*
X025640Y020680D01*
X025610Y020728D02*
X035734Y020728D01*
X035734Y020777D02*
X032258Y020777D01*
X032257Y020775D02*
X032370Y020888D01*
X032370Y021048D01*
X032257Y021161D01*
X032097Y021161D01*
X031984Y021048D01*
X031984Y020888D01*
X032097Y020775D01*
X032257Y020775D01*
X032307Y020825D02*
X035734Y020825D01*
X035734Y020874D02*
X032355Y020874D01*
X032370Y020923D02*
X035734Y020923D01*
X035734Y020971D02*
X032370Y020971D01*
X032370Y021020D02*
X035734Y021020D01*
X035734Y021068D02*
X032350Y021068D01*
X032301Y021117D02*
X035734Y021117D01*
X035734Y021165D02*
X023170Y021165D01*
X023170Y021117D02*
X025672Y021117D01*
X025624Y021068D02*
X025545Y021068D01*
X025309Y021068D02*
X024375Y021068D01*
X024470Y020973D02*
X024470Y020859D01*
X024582Y020971D01*
X024470Y020971D01*
X024470Y020923D02*
X024533Y020923D01*
X024582Y020971D02*
X024742Y020971D01*
X024790Y020923D02*
X025234Y020923D01*
X025234Y020874D02*
X024839Y020874D01*
X024855Y020825D02*
X025242Y020825D01*
X025290Y020777D02*
X024855Y020777D01*
X024855Y020728D02*
X025284Y020728D01*
X025254Y020680D02*
X024836Y020680D01*
X024867Y020631D02*
X024788Y020631D01*
X025087Y020631D02*
X025254Y020631D01*
X025254Y020583D02*
X025135Y020583D01*
X025170Y020534D02*
X025258Y020534D01*
X025307Y020486D02*
X025170Y020486D01*
X025170Y020437D02*
X025293Y020437D01*
X025244Y020389D02*
X025170Y020389D01*
X025121Y020340D02*
X025244Y020340D01*
X025244Y020291D02*
X025073Y020291D01*
X025244Y020243D02*
X024045Y020243D01*
X024045Y020291D02*
X024881Y020291D01*
X024550Y020097D02*
X035734Y020097D01*
X035734Y020049D02*
X024550Y020049D01*
X024550Y020000D02*
X035734Y020000D01*
X035734Y019952D02*
X024550Y019952D01*
X024514Y019903D02*
X035734Y019903D01*
X035734Y021214D02*
X023169Y021214D01*
X023121Y021262D02*
X024095Y021262D01*
X024142Y021215D02*
X024302Y021215D01*
X024415Y021328D01*
X024415Y021488D01*
X024302Y021601D01*
X024142Y021601D01*
X024050Y021509D01*
X024050Y021648D01*
X023937Y021761D01*
X023777Y021761D01*
X023664Y021648D01*
X023664Y021488D01*
X023777Y021375D01*
X023937Y021375D01*
X024029Y021468D01*
X024029Y021328D01*
X024142Y021215D01*
X024046Y021311D02*
X023072Y021311D01*
X022882Y021311D02*
X022530Y021311D01*
X022530Y021283D02*
X022530Y021443D01*
X022417Y021556D01*
X022323Y021556D01*
X022350Y021583D01*
X022350Y021743D01*
X022237Y021856D01*
X022077Y021856D01*
X021964Y021743D01*
X021964Y021583D01*
X022077Y021470D01*
X022171Y021470D01*
X022144Y021443D01*
X022144Y021314D01*
X022047Y021411D01*
X021887Y021411D01*
X021774Y021298D01*
X021774Y021138D01*
X021887Y021025D01*
X022047Y021025D01*
X022160Y021138D01*
X022160Y021268D01*
X022257Y021170D01*
X022417Y021170D01*
X022530Y021283D01*
X022509Y021262D02*
X022833Y021262D01*
X022784Y021214D02*
X022460Y021214D01*
X022530Y021359D02*
X024029Y021359D01*
X024029Y021408D02*
X023969Y021408D01*
X024018Y021457D02*
X024029Y021457D01*
X024050Y021554D02*
X024094Y021554D01*
X024050Y021602D02*
X024465Y021602D01*
X024497Y021570D02*
X024657Y021570D01*
X024770Y021683D01*
X024770Y021843D01*
X024657Y021956D01*
X024497Y021956D01*
X024384Y021843D01*
X024384Y021683D01*
X024497Y021570D01*
X024417Y021651D02*
X024047Y021651D01*
X023999Y021699D02*
X024384Y021699D01*
X024384Y021748D02*
X023950Y021748D01*
X023763Y021748D02*
X022345Y021748D01*
X022350Y021699D02*
X023715Y021699D01*
X023666Y021651D02*
X022350Y021651D01*
X022350Y021602D02*
X023664Y021602D01*
X023664Y021554D02*
X022419Y021554D01*
X022468Y021505D02*
X023664Y021505D01*
X023696Y021457D02*
X022516Y021457D01*
X022530Y021408D02*
X023744Y021408D01*
X024130Y021020D02*
X023136Y021020D01*
X023170Y021068D02*
X024179Y021068D01*
X024084Y020971D02*
X023087Y020971D01*
X022990Y020923D02*
X024084Y020923D01*
X024084Y020874D02*
X023039Y020874D01*
X022818Y021020D02*
X020381Y021020D01*
X020367Y021005D02*
X020480Y021118D01*
X020480Y021278D01*
X020367Y021391D01*
X020207Y021391D01*
X020094Y021278D01*
X020094Y021118D01*
X020207Y021005D01*
X020367Y021005D01*
X020430Y021068D02*
X021844Y021068D01*
X021796Y021117D02*
X020478Y021117D01*
X020480Y021165D02*
X021774Y021165D01*
X021774Y021214D02*
X020480Y021214D01*
X020480Y021262D02*
X021774Y021262D01*
X021787Y021311D02*
X020447Y021311D01*
X020399Y021359D02*
X021835Y021359D01*
X021884Y021408D02*
X019639Y021408D01*
X019700Y021457D02*
X022157Y021457D01*
X022144Y021408D02*
X022050Y021408D01*
X022099Y021359D02*
X022144Y021359D01*
X022160Y021262D02*
X022165Y021262D01*
X022160Y021214D02*
X022213Y021214D01*
X022160Y021165D02*
X022784Y021165D01*
X022784Y021117D02*
X022138Y021117D01*
X022090Y021068D02*
X022784Y021068D01*
X022752Y020971D02*
X019093Y020971D01*
X019153Y021020D02*
X020193Y021020D01*
X020144Y021068D02*
X019214Y021068D01*
X019275Y021117D02*
X020096Y021117D01*
X020094Y021165D02*
X019336Y021165D01*
X019396Y021214D02*
X020094Y021214D01*
X020094Y021262D02*
X019457Y021262D01*
X019518Y021311D02*
X020127Y021311D01*
X020175Y021359D02*
X019578Y021359D01*
X019760Y021505D02*
X022042Y021505D01*
X021994Y021554D02*
X019821Y021554D01*
X019882Y021602D02*
X021964Y021602D01*
X021964Y021651D02*
X019942Y021651D01*
X020003Y021699D02*
X021964Y021699D01*
X021968Y021748D02*
X020064Y021748D01*
X020124Y021796D02*
X022017Y021796D01*
X022066Y021845D02*
X020185Y021845D01*
X020246Y021893D02*
X024434Y021893D01*
X024386Y021845D02*
X022248Y021845D01*
X022297Y021796D02*
X024384Y021796D01*
X024483Y021942D02*
X020300Y021942D01*
X020347Y021991D02*
X035734Y021991D01*
X035734Y022039D02*
X022140Y022039D01*
X022127Y022025D02*
X022240Y022138D01*
X022240Y022298D01*
X022145Y022393D01*
X022190Y022438D01*
X022190Y022553D01*
X022197Y022545D01*
X022314Y022545D01*
X022314Y022453D01*
X022427Y022340D01*
X022514Y022340D01*
X022514Y022228D01*
X022627Y022115D01*
X022787Y022115D01*
X022900Y022228D01*
X022900Y022388D01*
X022873Y022415D01*
X022977Y022415D01*
X023090Y022528D01*
X023090Y022688D01*
X022977Y022801D01*
X022817Y022801D01*
X022704Y022688D01*
X022704Y022528D01*
X022731Y022501D01*
X022700Y022501D01*
X022700Y022613D01*
X022587Y022726D01*
X022470Y022726D01*
X022470Y022818D01*
X022357Y022931D01*
X022197Y022931D01*
X022084Y022818D01*
X022084Y022704D01*
X022077Y022711D01*
X021917Y022711D01*
X021804Y022598D01*
X021804Y022438D01*
X021899Y022343D01*
X021854Y022298D01*
X021854Y022138D01*
X021967Y022025D01*
X022127Y022025D01*
X022189Y022088D02*
X024670Y022088D01*
X024712Y022045D02*
X024872Y022045D01*
X024985Y022158D01*
X024985Y022318D01*
X024872Y022431D01*
X024712Y022431D01*
X024599Y022318D01*
X024599Y022158D01*
X024712Y022045D01*
X024671Y021942D02*
X035734Y021942D01*
X035734Y021893D02*
X024720Y021893D01*
X024768Y021845D02*
X035734Y021845D01*
X035734Y021796D02*
X024770Y021796D01*
X024770Y021748D02*
X025313Y021748D01*
X025342Y021776D02*
X025229Y021663D01*
X025229Y021503D01*
X025342Y021390D01*
X025502Y021390D01*
X025615Y021503D01*
X025615Y021663D01*
X025502Y021776D01*
X025342Y021776D01*
X025265Y021699D02*
X024770Y021699D01*
X024737Y021651D02*
X025229Y021651D01*
X025229Y021602D02*
X024689Y021602D01*
X024398Y021505D02*
X025229Y021505D01*
X025229Y021554D02*
X024349Y021554D01*
X024415Y021457D02*
X025276Y021457D01*
X025324Y021408D02*
X024415Y021408D01*
X024415Y021359D02*
X035734Y021359D01*
X035734Y021311D02*
X024397Y021311D01*
X024349Y021262D02*
X035734Y021262D01*
X035734Y021408D02*
X025519Y021408D01*
X025568Y021457D02*
X035734Y021457D01*
X035734Y021505D02*
X025615Y021505D01*
X025615Y021554D02*
X035734Y021554D01*
X035734Y021602D02*
X025615Y021602D01*
X025615Y021651D02*
X035734Y021651D01*
X035734Y021699D02*
X025579Y021699D01*
X025530Y021748D02*
X035734Y021748D01*
X035734Y022088D02*
X024914Y022088D01*
X024963Y022136D02*
X035734Y022136D01*
X035734Y022185D02*
X024985Y022185D01*
X024985Y022233D02*
X035734Y022233D01*
X035734Y022282D02*
X024985Y022282D01*
X024973Y022330D02*
X035734Y022330D01*
X035734Y022379D02*
X024924Y022379D01*
X024876Y022427D02*
X035734Y022427D01*
X035734Y022476D02*
X024565Y022476D01*
X024565Y022524D02*
X035734Y022524D01*
X035734Y022573D02*
X024545Y022573D01*
X024565Y022553D02*
X024452Y022666D01*
X024292Y022666D01*
X024179Y022553D01*
X024179Y022393D01*
X024292Y022280D01*
X024452Y022280D01*
X024565Y022393D01*
X024565Y022553D01*
X024496Y022622D02*
X035734Y022622D01*
X035734Y022670D02*
X023675Y022670D01*
X023675Y022713D02*
X023675Y022553D01*
X023562Y022440D01*
X023402Y022440D01*
X023289Y022553D01*
X023289Y022713D01*
X023402Y022826D01*
X023562Y022826D01*
X023675Y022713D01*
X023669Y022719D02*
X035734Y022719D01*
X035734Y022767D02*
X023621Y022767D01*
X023572Y022816D02*
X035734Y022816D01*
X035734Y022864D02*
X022424Y022864D01*
X022470Y022816D02*
X023391Y022816D01*
X023343Y022767D02*
X023011Y022767D01*
X023059Y022719D02*
X023294Y022719D01*
X023289Y022670D02*
X023090Y022670D01*
X023090Y022622D02*
X023289Y022622D01*
X023289Y022573D02*
X023090Y022573D01*
X023086Y022524D02*
X023318Y022524D01*
X023366Y022476D02*
X023037Y022476D01*
X022989Y022427D02*
X024179Y022427D01*
X024179Y022476D02*
X023597Y022476D01*
X023646Y022524D02*
X024179Y022524D01*
X024199Y022573D02*
X023675Y022573D01*
X023675Y022622D02*
X024247Y022622D01*
X024193Y022379D02*
X022900Y022379D01*
X022900Y022330D02*
X024242Y022330D01*
X024291Y022282D02*
X022900Y022282D01*
X022900Y022233D02*
X024599Y022233D01*
X024599Y022185D02*
X022856Y022185D01*
X022808Y022136D02*
X024621Y022136D01*
X024599Y022282D02*
X024453Y022282D01*
X024502Y022330D02*
X024611Y022330D01*
X024659Y022379D02*
X024550Y022379D01*
X024565Y022427D02*
X024708Y022427D01*
X024485Y020874D02*
X024470Y020874D01*
X024469Y020777D02*
X024433Y020777D01*
X024469Y020728D02*
X024385Y020728D01*
X024454Y020194D02*
X025278Y020194D01*
X025326Y020146D02*
X024502Y020146D01*
X024260Y020194D02*
X024031Y020194D01*
X023982Y020146D02*
X024211Y020146D01*
X024164Y020097D02*
X023934Y020097D01*
X023770Y020097D02*
X023681Y020097D01*
X023721Y020146D02*
X023632Y020146D01*
X023729Y020049D02*
X024164Y020049D01*
X024164Y020000D02*
X023730Y020000D01*
X023730Y019952D02*
X024164Y019952D01*
X024199Y019903D02*
X023730Y019903D01*
X023696Y019855D02*
X024248Y019855D01*
X024282Y019806D02*
X023672Y019806D01*
X023721Y019758D02*
X024234Y019758D01*
X024234Y019709D02*
X023730Y019709D01*
X023730Y019660D02*
X024234Y019660D01*
X024234Y019612D02*
X023730Y019612D01*
X023705Y019563D02*
X024269Y019563D01*
X024140Y019515D02*
X023983Y019515D01*
X024032Y019466D02*
X024092Y019466D01*
X024074Y019418D02*
X024050Y019418D01*
X024050Y019369D02*
X024074Y019369D01*
X024074Y019321D02*
X024050Y019321D01*
X024033Y019272D02*
X024090Y019272D01*
X024139Y019224D02*
X023985Y019224D01*
X023730Y019515D02*
X023663Y019515D01*
X023417Y019515D02*
X023036Y019515D01*
X023085Y019563D02*
X023369Y019563D01*
X023344Y019612D02*
X023130Y019612D01*
X023130Y019660D02*
X023344Y019660D01*
X023344Y019709D02*
X023130Y019709D01*
X023130Y019758D02*
X023353Y019758D01*
X023402Y019806D02*
X023092Y019806D01*
X023043Y019855D02*
X023378Y019855D01*
X023651Y020777D02*
X023733Y020777D01*
X022703Y020923D02*
X022095Y020923D01*
X022144Y020874D02*
X022655Y020874D01*
X022654Y020825D02*
X022165Y020825D01*
X022165Y020777D02*
X022654Y020777D01*
X022654Y020728D02*
X022165Y020728D01*
X022151Y020680D02*
X022205Y020680D01*
X022157Y020631D02*
X022103Y020631D01*
X022109Y020583D02*
X022109Y020489D01*
X022062Y020536D01*
X022064Y020534D02*
X022109Y020534D01*
X021900Y020534D02*
X018547Y020534D01*
X018607Y020583D02*
X021890Y020583D01*
X021841Y020631D02*
X018668Y020631D01*
X018729Y020680D02*
X021792Y020680D01*
X021779Y020728D02*
X018789Y020728D01*
X018850Y020777D02*
X021779Y020777D01*
X021779Y020825D02*
X018911Y020825D01*
X018971Y020874D02*
X021800Y020874D01*
X021848Y020923D02*
X019032Y020923D01*
X018486Y020486D02*
X021851Y020486D01*
X021803Y020437D02*
X018425Y020437D01*
X018365Y020389D02*
X021789Y020389D01*
X021789Y020340D02*
X018304Y020340D01*
X018243Y020291D02*
X021789Y020291D01*
X021809Y020243D02*
X018183Y020243D01*
X018122Y020194D02*
X021858Y020194D01*
X022398Y020680D02*
X022687Y020680D01*
X022606Y022136D02*
X022238Y022136D01*
X022240Y022185D02*
X022558Y022185D01*
X022514Y022233D02*
X022240Y022233D01*
X022240Y022282D02*
X022514Y022282D01*
X022514Y022330D02*
X022208Y022330D01*
X022159Y022379D02*
X022388Y022379D01*
X022340Y022427D02*
X022179Y022427D01*
X022190Y022476D02*
X022314Y022476D01*
X022314Y022524D02*
X022190Y022524D01*
X022084Y022719D02*
X020884Y022719D01*
X020908Y022767D02*
X022084Y022767D01*
X022084Y022816D02*
X020932Y022816D01*
X020956Y022864D02*
X022130Y022864D01*
X022178Y022913D02*
X020979Y022913D01*
X021003Y022961D02*
X035734Y022961D01*
X035734Y022913D02*
X022375Y022913D01*
X022470Y022767D02*
X022783Y022767D01*
X022734Y022719D02*
X022594Y022719D01*
X022643Y022670D02*
X022704Y022670D01*
X022704Y022622D02*
X022691Y022622D01*
X022700Y022573D02*
X022704Y022573D01*
X022700Y022524D02*
X022708Y022524D01*
X021886Y022330D02*
X020679Y022330D01*
X020717Y022379D02*
X021863Y022379D01*
X021815Y022427D02*
X020741Y022427D01*
X020765Y022476D02*
X021804Y022476D01*
X021804Y022524D02*
X020789Y022524D01*
X020812Y022573D02*
X021804Y022573D01*
X021827Y022622D02*
X020836Y022622D01*
X020860Y022670D02*
X021876Y022670D01*
X021854Y022282D02*
X020632Y022282D01*
X020585Y022233D02*
X021854Y022233D01*
X021854Y022185D02*
X020537Y022185D01*
X020490Y022136D02*
X021856Y022136D01*
X021905Y022088D02*
X020442Y022088D01*
X020395Y022039D02*
X021953Y022039D01*
X021027Y023010D02*
X035734Y023010D01*
X035734Y023058D02*
X021051Y023058D01*
X021075Y023107D02*
X035734Y023107D01*
X035734Y023156D02*
X021099Y023156D01*
X021123Y023204D02*
X035734Y023204D01*
X035734Y023253D02*
X021146Y023253D01*
X021170Y023301D02*
X035734Y023301D01*
X035734Y023350D02*
X021194Y023350D01*
X021218Y023398D02*
X035734Y023398D01*
X035734Y023447D02*
X021242Y023447D01*
X021266Y023495D02*
X035734Y023495D01*
X035734Y023544D02*
X021290Y023544D01*
X021313Y023592D02*
X035734Y023592D01*
X035734Y023641D02*
X021337Y023641D01*
X021361Y023690D02*
X035734Y023690D01*
X035734Y023738D02*
X021385Y023738D01*
X021409Y023787D02*
X035734Y023787D01*
X035734Y023835D02*
X021433Y023835D01*
X021457Y023884D02*
X035734Y023884D01*
X035734Y023932D02*
X021480Y023932D01*
X021504Y023981D02*
X035734Y023981D01*
X035734Y024029D02*
X021528Y024029D01*
X021552Y024078D02*
X035734Y024078D01*
X035734Y024126D02*
X021576Y024126D01*
X021600Y024175D02*
X035734Y024175D01*
X035734Y024224D02*
X021624Y024224D01*
X021647Y024272D02*
X035734Y024272D01*
X035734Y024321D02*
X021671Y024321D01*
X021695Y024369D02*
X035734Y024369D01*
X035734Y024418D02*
X021719Y024418D01*
X021743Y024466D02*
X035734Y024466D01*
X035734Y024515D02*
X021767Y024515D01*
X021791Y024563D02*
X035734Y024563D01*
X035734Y024612D02*
X021814Y024612D01*
X021838Y024660D02*
X035734Y024660D01*
X035734Y024709D02*
X021862Y024709D01*
X021886Y024757D02*
X035734Y024757D01*
X035734Y024806D02*
X021910Y024806D01*
X021934Y024855D02*
X035734Y024855D01*
X035734Y024903D02*
X021958Y024903D01*
X021981Y024952D02*
X035734Y024952D01*
X035734Y025000D02*
X022005Y025000D01*
X022029Y025049D02*
X035734Y025049D01*
X035734Y025097D02*
X022053Y025097D01*
X022077Y025146D02*
X035734Y025146D01*
X035734Y025194D02*
X022101Y025194D01*
X022125Y025243D02*
X035734Y025243D01*
X035734Y025291D02*
X022148Y025291D01*
X022172Y025340D02*
X035734Y025340D01*
X035734Y025389D02*
X022196Y025389D01*
X022220Y025437D02*
X035734Y025437D01*
X035734Y025486D02*
X022244Y025486D01*
X022268Y025534D02*
X035734Y025534D01*
X035734Y025583D02*
X022292Y025583D01*
X022315Y025631D02*
X035734Y025631D01*
X035734Y025680D02*
X022339Y025680D01*
X022363Y025728D02*
X035734Y025728D01*
X035734Y025777D02*
X022387Y025777D01*
X022411Y025825D02*
X035734Y025825D01*
X035734Y025874D02*
X022435Y025874D01*
X022459Y025923D02*
X035734Y025923D01*
X035734Y025971D02*
X022482Y025971D01*
X022506Y026020D02*
X035734Y026020D01*
X035734Y026068D02*
X022530Y026068D01*
X022554Y026117D02*
X035734Y026117D01*
X035734Y026165D02*
X022578Y026165D01*
X022602Y026214D02*
X035734Y026214D01*
X035734Y026262D02*
X022626Y026262D01*
X022649Y026311D02*
X035734Y026311D01*
X035734Y026359D02*
X022673Y026359D01*
X022697Y026408D02*
X035734Y026408D01*
X035734Y026456D02*
X022721Y026456D01*
X022740Y026505D02*
X035734Y026505D01*
X035734Y026554D02*
X022756Y026554D01*
X022773Y026602D02*
X035734Y026602D01*
X035734Y026651D02*
X022790Y026651D01*
X022807Y026699D02*
X035734Y026699D01*
X035734Y026748D02*
X022824Y026748D01*
X022841Y026796D02*
X035734Y026796D01*
X035734Y026845D02*
X022858Y026845D01*
X022875Y026893D02*
X035734Y026893D01*
X035734Y026942D02*
X022892Y026942D01*
X022908Y026990D02*
X035734Y026990D01*
X035734Y027039D02*
X022925Y027039D01*
X022942Y027088D02*
X035734Y027088D01*
X035734Y027136D02*
X022959Y027136D01*
X022976Y027185D02*
X035711Y027185D01*
X035662Y027233D02*
X022993Y027233D01*
X023010Y027282D02*
X035613Y027282D01*
X035565Y027330D02*
X023027Y027330D01*
X023044Y027379D02*
X035516Y027379D01*
X035468Y027427D02*
X023060Y027427D01*
X023077Y027476D02*
X035419Y027476D01*
X035371Y027524D02*
X023094Y027524D01*
X023111Y027573D02*
X026679Y027573D01*
X026934Y027573D02*
X035322Y027573D01*
X032052Y021117D02*
X031801Y021117D01*
X031757Y021161D02*
X031597Y021161D01*
X031484Y021048D01*
X031484Y020888D01*
X031597Y020775D01*
X031757Y020775D01*
X031870Y020888D01*
X031870Y021048D01*
X031757Y021161D01*
X031850Y021068D02*
X032004Y021068D01*
X031984Y021020D02*
X031870Y021020D01*
X031870Y020971D02*
X031984Y020971D01*
X031984Y020923D02*
X031870Y020923D01*
X031855Y020874D02*
X031998Y020874D01*
X032047Y020825D02*
X031807Y020825D01*
X031758Y020777D02*
X032095Y020777D01*
X031595Y020777D02*
X031258Y020777D01*
X031257Y020775D02*
X031370Y020888D01*
X031370Y021048D01*
X031257Y021161D01*
X031097Y021161D01*
X030984Y021048D01*
X030984Y020888D01*
X031097Y020775D01*
X031257Y020775D01*
X031307Y020825D02*
X031547Y020825D01*
X031498Y020874D02*
X031355Y020874D01*
X031370Y020923D02*
X031484Y020923D01*
X031484Y020971D02*
X031370Y020971D01*
X031370Y021020D02*
X031484Y021020D01*
X031504Y021068D02*
X031350Y021068D01*
X031301Y021117D02*
X031552Y021117D01*
X031052Y021117D02*
X030801Y021117D01*
X030757Y021161D02*
X030597Y021161D01*
X030484Y021048D01*
X030484Y020888D01*
X030597Y020775D01*
X030757Y020775D01*
X030870Y020888D01*
X030870Y021048D01*
X030757Y021161D01*
X030850Y021068D02*
X031004Y021068D01*
X030984Y021020D02*
X030870Y021020D01*
X030870Y020971D02*
X030984Y020971D01*
X030984Y020923D02*
X030870Y020923D01*
X030855Y020874D02*
X030998Y020874D01*
X031047Y020825D02*
X030807Y020825D01*
X030758Y020777D02*
X031095Y020777D01*
X030595Y020777D02*
X030258Y020777D01*
X030257Y020775D02*
X030370Y020888D01*
X030370Y021048D01*
X030257Y021161D01*
X030097Y021161D01*
X029984Y021048D01*
X029984Y020888D01*
X030097Y020775D01*
X030257Y020775D01*
X030307Y020825D02*
X030547Y020825D01*
X030498Y020874D02*
X030355Y020874D01*
X030370Y020923D02*
X030484Y020923D01*
X030484Y020971D02*
X030370Y020971D01*
X030370Y021020D02*
X030484Y021020D01*
X030504Y021068D02*
X030350Y021068D01*
X030301Y021117D02*
X030552Y021117D01*
X030052Y021117D02*
X029801Y021117D01*
X029757Y021161D02*
X029597Y021161D01*
X029484Y021048D01*
X029484Y020888D01*
X029597Y020775D01*
X029757Y020775D01*
X029870Y020888D01*
X029870Y021048D01*
X029757Y021161D01*
X029850Y021068D02*
X030004Y021068D01*
X029984Y021020D02*
X029870Y021020D01*
X029870Y020971D02*
X029984Y020971D01*
X029984Y020923D02*
X029870Y020923D01*
X029855Y020874D02*
X029998Y020874D01*
X030047Y020825D02*
X029807Y020825D01*
X029758Y020777D02*
X030095Y020777D01*
X029595Y020777D02*
X029258Y020777D01*
X029257Y020775D02*
X029370Y020888D01*
X029370Y021048D01*
X029257Y021161D01*
X029097Y021161D01*
X028984Y021048D01*
X028984Y020888D01*
X029097Y020775D01*
X029257Y020775D01*
X029307Y020825D02*
X029547Y020825D01*
X029498Y020874D02*
X029355Y020874D01*
X029370Y020923D02*
X029484Y020923D01*
X029484Y020971D02*
X029370Y020971D01*
X029370Y021020D02*
X029484Y021020D01*
X029504Y021068D02*
X029350Y021068D01*
X029301Y021117D02*
X029552Y021117D01*
X029052Y021117D02*
X025841Y021117D01*
X025890Y021068D02*
X029004Y021068D01*
X028984Y021020D02*
X025938Y021020D01*
X025950Y020971D02*
X028984Y020971D01*
X028984Y020923D02*
X025950Y020923D01*
X025950Y020874D02*
X028998Y020874D01*
X029047Y020825D02*
X025927Y020825D01*
X025878Y020777D02*
X029095Y020777D01*
X029047Y019361D02*
X028934Y019248D01*
X028934Y019088D01*
X029047Y018975D01*
X029207Y018975D01*
X029320Y019088D01*
X029320Y019248D01*
X029207Y019361D01*
X029047Y019361D01*
X029006Y019321D02*
X028347Y019321D01*
X028370Y019272D02*
X028958Y019272D01*
X028934Y019224D02*
X028370Y019224D01*
X028370Y019175D02*
X028934Y019175D01*
X028934Y019126D02*
X028358Y019126D01*
X028309Y019078D02*
X028944Y019078D01*
X029212Y018981D02*
X029541Y018981D01*
X029547Y018975D02*
X029707Y018975D01*
X029820Y019088D01*
X029820Y019248D01*
X029707Y019361D01*
X029547Y019361D01*
X029434Y019248D01*
X029434Y019088D01*
X029547Y018975D01*
X029493Y019029D02*
X029261Y019029D01*
X029309Y019078D02*
X029444Y019078D01*
X029434Y019126D02*
X029320Y019126D01*
X029320Y019175D02*
X029434Y019175D01*
X029434Y019224D02*
X029320Y019224D01*
X029296Y019272D02*
X029458Y019272D01*
X029506Y019321D02*
X029247Y019321D01*
X029712Y018981D02*
X030091Y018981D01*
X030097Y018975D02*
X030257Y018975D01*
X030370Y019088D01*
X030370Y019248D01*
X030257Y019361D01*
X030097Y019361D01*
X029984Y019248D01*
X029984Y019088D01*
X030097Y018975D01*
X030043Y019029D02*
X029761Y019029D01*
X029809Y019078D02*
X029994Y019078D01*
X029984Y019126D02*
X029820Y019126D01*
X029820Y019175D02*
X029984Y019175D01*
X029984Y019224D02*
X029820Y019224D01*
X029796Y019272D02*
X030008Y019272D01*
X030056Y019321D02*
X029747Y019321D01*
X030297Y019321D02*
X030506Y019321D01*
X030547Y019361D02*
X030434Y019248D01*
X030434Y019088D01*
X030547Y018975D01*
X030707Y018975D01*
X030820Y019088D01*
X030820Y019248D01*
X030707Y019361D01*
X030547Y019361D01*
X030458Y019272D02*
X030346Y019272D01*
X030370Y019224D02*
X030434Y019224D01*
X030434Y019175D02*
X030370Y019175D01*
X030370Y019126D02*
X030434Y019126D01*
X030444Y019078D02*
X030359Y019078D01*
X030311Y019029D02*
X030493Y019029D01*
X030541Y018981D02*
X030262Y018981D01*
X030712Y018981D02*
X031041Y018981D01*
X031047Y018975D02*
X031207Y018975D01*
X031320Y019088D01*
X031320Y019248D01*
X031207Y019361D01*
X031047Y019361D01*
X030934Y019248D01*
X030934Y019088D01*
X031047Y018975D01*
X030993Y019029D02*
X030761Y019029D01*
X030809Y019078D02*
X030944Y019078D01*
X030934Y019126D02*
X030820Y019126D01*
X030820Y019175D02*
X030934Y019175D01*
X030934Y019224D02*
X030820Y019224D01*
X030796Y019272D02*
X030958Y019272D01*
X031006Y019321D02*
X030747Y019321D01*
X031247Y019321D02*
X031506Y019321D01*
X031547Y019361D02*
X031434Y019248D01*
X031434Y019088D01*
X031547Y018975D01*
X031707Y018975D01*
X031820Y019088D01*
X031820Y019248D01*
X031707Y019361D01*
X031547Y019361D01*
X031458Y019272D02*
X031296Y019272D01*
X031320Y019224D02*
X031434Y019224D01*
X031434Y019175D02*
X031320Y019175D01*
X031320Y019126D02*
X031434Y019126D01*
X031444Y019078D02*
X031309Y019078D01*
X031261Y019029D02*
X031493Y019029D01*
X031541Y018981D02*
X031212Y018981D01*
X031712Y018981D02*
X032091Y018981D01*
X032043Y019029D02*
X031761Y019029D01*
X031809Y019078D02*
X031994Y019078D01*
X031984Y019126D02*
X031820Y019126D01*
X031820Y019175D02*
X031984Y019175D01*
X031984Y019224D02*
X031820Y019224D01*
X031796Y019272D02*
X032008Y019272D01*
X032056Y019321D02*
X031747Y019321D01*
X031207Y017411D02*
X031047Y017411D01*
X030934Y017298D01*
X030934Y017138D01*
X031047Y017025D01*
X031207Y017025D01*
X031320Y017138D01*
X031320Y017298D01*
X031207Y017411D01*
X031239Y017379D02*
X031565Y017379D01*
X031516Y017330D02*
X031288Y017330D01*
X031320Y017282D02*
X031484Y017282D01*
X031484Y017233D02*
X031320Y017233D01*
X031320Y017185D02*
X031484Y017185D01*
X031486Y017136D02*
X031318Y017136D01*
X031269Y017088D02*
X031535Y017088D01*
X031583Y017039D02*
X031220Y017039D01*
X031033Y017039D02*
X030720Y017039D01*
X030707Y017025D02*
X030820Y017138D01*
X030820Y017298D01*
X030707Y017411D01*
X030547Y017411D01*
X030434Y017298D01*
X030434Y017138D01*
X030547Y017025D01*
X030707Y017025D01*
X030769Y017088D02*
X030985Y017088D01*
X030936Y017136D02*
X030818Y017136D01*
X030820Y017185D02*
X030934Y017185D01*
X030934Y017233D02*
X030820Y017233D01*
X030820Y017282D02*
X030934Y017282D01*
X030966Y017330D02*
X030788Y017330D01*
X030739Y017379D02*
X031015Y017379D01*
X030515Y017379D02*
X030289Y017379D01*
X030257Y017411D02*
X030370Y017298D01*
X030370Y017138D01*
X030257Y017025D01*
X030097Y017025D01*
X029984Y017138D01*
X029984Y017298D01*
X030097Y017411D01*
X030257Y017411D01*
X030338Y017330D02*
X030466Y017330D01*
X030434Y017282D02*
X030370Y017282D01*
X030370Y017233D02*
X030434Y017233D01*
X030434Y017185D02*
X030370Y017185D01*
X030368Y017136D02*
X030436Y017136D01*
X030485Y017088D02*
X030319Y017088D01*
X030270Y017039D02*
X030533Y017039D01*
X030083Y017039D02*
X029720Y017039D01*
X029707Y017025D02*
X029820Y017138D01*
X029820Y017298D01*
X029707Y017411D01*
X029547Y017411D01*
X029434Y017298D01*
X029434Y017138D01*
X029547Y017025D01*
X029707Y017025D01*
X029769Y017088D02*
X030035Y017088D01*
X029986Y017136D02*
X029818Y017136D01*
X029820Y017185D02*
X029984Y017185D01*
X029984Y017233D02*
X029820Y017233D01*
X029820Y017282D02*
X029984Y017282D01*
X030016Y017330D02*
X029788Y017330D01*
X029739Y017379D02*
X030065Y017379D01*
X029515Y017379D02*
X029239Y017379D01*
X029207Y017411D02*
X029320Y017298D01*
X029320Y017138D01*
X029207Y017025D01*
X029047Y017025D01*
X028934Y017138D01*
X028934Y017298D01*
X029047Y017411D01*
X029207Y017411D01*
X029288Y017330D02*
X029466Y017330D01*
X029434Y017282D02*
X029320Y017282D01*
X029320Y017233D02*
X029434Y017233D01*
X029434Y017185D02*
X029320Y017185D01*
X029318Y017136D02*
X029436Y017136D01*
X029485Y017088D02*
X029269Y017088D01*
X029220Y017039D02*
X029533Y017039D01*
X029493Y016748D02*
X024584Y016748D01*
X024633Y016796D02*
X031561Y016796D01*
X032684Y016991D02*
X028570Y016991D01*
X028570Y017039D02*
X029033Y017039D01*
X028985Y017088D02*
X028570Y017088D01*
X028570Y017136D02*
X028936Y017136D01*
X028934Y017185D02*
X028533Y017185D01*
X028485Y017233D02*
X028934Y017233D01*
X028934Y017282D02*
X025513Y017282D01*
X025562Y017330D02*
X025602Y017330D01*
X025852Y017330D02*
X028966Y017330D01*
X029015Y017379D02*
X025900Y017379D01*
X025873Y017622D02*
X025951Y017622D01*
X025599Y019224D02*
X025555Y019224D01*
X025563Y020777D02*
X025635Y020777D01*
X022263Y018932D02*
X022160Y018932D01*
X022160Y018884D02*
X022219Y018884D01*
X024000Y017233D02*
X028269Y017233D01*
X028220Y017185D02*
X024048Y017185D01*
X024085Y017136D02*
X028184Y017136D01*
X028475Y016893D02*
X032779Y016893D01*
X032730Y016942D02*
X028523Y016942D01*
X024389Y016748D02*
X023829Y016748D01*
X023860Y016796D02*
X024341Y016796D01*
X024294Y016845D02*
X023860Y016845D01*
X023990Y016893D02*
X024294Y016893D01*
X024294Y016942D02*
X024038Y016942D01*
X024085Y016991D02*
X024294Y016991D01*
X024330Y017039D02*
X024085Y017039D01*
X024085Y017088D02*
X024378Y017088D01*
X023860Y016602D02*
X022074Y016602D01*
X021172Y016408D02*
X020900Y016408D01*
X019817Y016311D02*
X016111Y016311D01*
X016110Y016359D02*
X016203Y016359D01*
X016154Y016408D02*
X016109Y016408D01*
X016113Y016262D02*
X016998Y016262D01*
X017027Y016291D02*
X016914Y016178D01*
X016914Y016018D01*
X017027Y015905D01*
X017187Y015905D01*
X017300Y016018D01*
X017300Y016178D01*
X017187Y016291D01*
X017027Y016291D01*
X016949Y016214D02*
X016114Y016214D01*
X016115Y016165D02*
X016914Y016165D01*
X016914Y016117D02*
X016116Y016117D01*
X016116Y016068D02*
X016914Y016068D01*
X016914Y016020D02*
X016115Y016020D01*
X016113Y015971D02*
X016961Y015971D01*
X017010Y015923D02*
X016111Y015923D01*
X016110Y015874D02*
X019221Y015874D01*
X019155Y015826D02*
X016108Y015826D01*
X016107Y015777D02*
X019089Y015777D01*
X019011Y015728D02*
X016106Y015728D01*
X016105Y015680D02*
X018930Y015680D01*
X018850Y015631D02*
X016105Y015631D01*
X016104Y015583D02*
X018769Y015583D01*
X018689Y015534D02*
X016104Y015534D01*
X016103Y015486D02*
X016996Y015486D01*
X017002Y015491D02*
X016889Y015378D01*
X016889Y015218D01*
X017002Y015105D01*
X017162Y015105D01*
X017275Y015218D01*
X017275Y015378D01*
X017162Y015491D01*
X017002Y015491D01*
X016948Y015437D02*
X016103Y015437D01*
X016102Y015389D02*
X016899Y015389D01*
X016889Y015340D02*
X016102Y015340D01*
X016101Y015292D02*
X016889Y015292D01*
X016889Y015243D02*
X016101Y015243D01*
X016100Y015194D02*
X016913Y015194D01*
X016961Y015146D02*
X016099Y015146D01*
X016099Y015097D02*
X018056Y015097D01*
X018122Y015146D02*
X017202Y015146D01*
X017251Y015194D02*
X018188Y015194D01*
X018254Y015243D02*
X017275Y015243D01*
X017275Y015292D02*
X018320Y015292D01*
X018386Y015340D02*
X017275Y015340D01*
X017264Y015389D02*
X018452Y015389D01*
X018528Y015437D02*
X017216Y015437D01*
X017167Y015486D02*
X018608Y015486D01*
X017990Y015049D02*
X016098Y015049D01*
X016098Y015000D02*
X017923Y015000D01*
X017867Y014952D02*
X016097Y014952D01*
X016097Y014903D02*
X017812Y014903D01*
X017757Y014855D02*
X016096Y014855D01*
X016096Y014806D02*
X017702Y014806D01*
X017647Y014758D02*
X016095Y014758D01*
X016094Y014709D02*
X017592Y014709D01*
X017537Y014660D02*
X016094Y014660D01*
X016093Y014612D02*
X017482Y014612D01*
X017427Y014563D02*
X016093Y014563D01*
X016092Y014515D02*
X017375Y014515D01*
X017329Y014466D02*
X016092Y014466D01*
X016091Y014418D02*
X017283Y014418D01*
X017238Y014369D02*
X016091Y014369D01*
X016090Y014321D02*
X017192Y014321D01*
X017146Y014272D02*
X016089Y014272D01*
X016089Y014224D02*
X017100Y014224D01*
X017055Y014175D02*
X016088Y014175D01*
X016088Y014126D02*
X017009Y014126D01*
X016963Y014078D02*
X016087Y014078D01*
X016087Y014029D02*
X016917Y014029D01*
X016905Y013981D02*
X016086Y013981D01*
X016086Y013932D02*
X016903Y013932D01*
X016901Y013884D02*
X016085Y013884D01*
X016084Y013835D02*
X016900Y013835D01*
X016662Y013787D02*
X016084Y013787D01*
X016083Y013738D02*
X016614Y013738D01*
X016594Y013690D02*
X016083Y013690D01*
X016082Y013641D02*
X016594Y013641D01*
X016594Y013593D02*
X016082Y013593D01*
X016081Y013544D02*
X016608Y013544D01*
X016657Y013495D02*
X016081Y013495D01*
X016080Y013447D02*
X016705Y013447D01*
X016868Y013447D02*
X016884Y013447D01*
X016882Y013398D02*
X016079Y013398D01*
X016079Y013350D02*
X016880Y013350D01*
X016878Y013301D02*
X016078Y013301D01*
X016078Y013253D02*
X016877Y013253D01*
X016877Y013204D02*
X016077Y013204D01*
X016077Y013156D02*
X016877Y013156D01*
X016873Y013107D02*
X016077Y013107D01*
X016077Y013059D02*
X016824Y013059D01*
X016776Y013010D02*
X016077Y013010D01*
X016077Y012961D02*
X016764Y012961D01*
X016764Y012913D02*
X016077Y012913D01*
X016077Y012864D02*
X016764Y012864D01*
X016786Y012816D02*
X016077Y012816D01*
X016077Y012767D02*
X016835Y012767D01*
X016877Y012719D02*
X016077Y012719D01*
X016077Y012670D02*
X016877Y012670D01*
X016877Y012622D02*
X016077Y012622D01*
X016077Y012573D02*
X016877Y012573D01*
X013962Y014078D02*
X012399Y014078D01*
X012400Y014078D02*
X012287Y013965D01*
X012127Y013965D01*
X012014Y014078D01*
X006358Y014078D01*
X006343Y014126D02*
X012014Y014126D01*
X012014Y014078D02*
X012014Y014238D01*
X012127Y014351D01*
X012287Y014351D01*
X012400Y014238D01*
X012400Y014078D01*
X012400Y014126D02*
X013977Y014126D01*
X013992Y014175D02*
X012400Y014175D01*
X012400Y014224D02*
X013659Y014224D01*
X013677Y014205D02*
X013837Y014205D01*
X013950Y014318D01*
X013950Y014478D01*
X013837Y014591D01*
X013677Y014591D01*
X013564Y014478D01*
X013564Y014318D01*
X013677Y014205D01*
X013610Y014272D02*
X012366Y014272D01*
X012317Y014321D02*
X013564Y014321D01*
X013564Y014369D02*
X006266Y014369D01*
X006281Y014321D02*
X012096Y014321D01*
X012048Y014272D02*
X006297Y014272D01*
X006312Y014224D02*
X012014Y014224D01*
X012014Y014175D02*
X006327Y014175D01*
X006373Y014029D02*
X012063Y014029D01*
X012111Y013981D02*
X006389Y013981D01*
X006404Y013932D02*
X013328Y013932D01*
X013304Y013908D02*
X013304Y013748D01*
X013417Y013635D01*
X013577Y013635D01*
X013690Y013748D01*
X013690Y013908D01*
X013577Y014021D01*
X013417Y014021D01*
X013304Y013908D01*
X013304Y013884D02*
X006419Y013884D01*
X006435Y013835D02*
X011541Y013835D01*
X011567Y013861D02*
X011454Y013748D01*
X011454Y013588D01*
X011567Y013475D01*
X011727Y013475D01*
X011840Y013588D01*
X011840Y013748D01*
X011727Y013861D01*
X011567Y013861D01*
X011492Y013787D02*
X006450Y013787D01*
X006465Y013738D02*
X011454Y013738D01*
X011454Y013690D02*
X006481Y013690D01*
X006496Y013641D02*
X011454Y013641D01*
X011454Y013593D02*
X006511Y013593D01*
X006527Y013544D02*
X011498Y013544D01*
X011547Y013495D02*
X006542Y013495D01*
X006557Y013447D02*
X013763Y013447D01*
X013779Y013495D02*
X011747Y013495D01*
X011795Y013544D02*
X013794Y013544D01*
X013809Y013593D02*
X011840Y013593D01*
X011840Y013641D02*
X013411Y013641D01*
X013363Y013690D02*
X011840Y013690D01*
X011840Y013738D02*
X013314Y013738D01*
X013304Y013787D02*
X011801Y013787D01*
X011753Y013835D02*
X013304Y013835D01*
X013376Y013981D02*
X012302Y013981D01*
X012351Y014029D02*
X013947Y014029D01*
X013931Y013981D02*
X013617Y013981D01*
X013666Y013932D02*
X013916Y013932D01*
X013901Y013884D02*
X013690Y013884D01*
X013690Y013835D02*
X013886Y013835D01*
X013870Y013787D02*
X013690Y013787D01*
X013680Y013738D02*
X013855Y013738D01*
X013840Y013690D02*
X013631Y013690D01*
X013582Y013641D02*
X013824Y013641D01*
X013748Y013398D02*
X006573Y013398D01*
X006588Y013350D02*
X013733Y013350D01*
X013718Y013301D02*
X006603Y013301D01*
X006619Y013253D02*
X013702Y013253D01*
X013687Y013204D02*
X006634Y013204D01*
X006649Y013156D02*
X013672Y013156D01*
X013656Y013107D02*
X006665Y013107D01*
X006677Y013068D02*
X006077Y014968D01*
X005777Y014968D01*
X005377Y015368D01*
X005377Y017668D01*
X005827Y018118D01*
X007177Y016768D01*
X011877Y016768D01*
X012694Y017585D01*
X012694Y017468D01*
X012807Y017355D01*
X012967Y017355D01*
X013042Y017430D01*
X013099Y017373D01*
X013034Y017308D01*
X013034Y017148D01*
X013147Y017035D01*
X013307Y017035D01*
X013420Y017148D01*
X013420Y017308D01*
X013335Y017393D01*
X013400Y017458D01*
X013400Y017618D01*
X013287Y017731D01*
X013127Y017731D01*
X013052Y017656D01*
X012967Y017741D01*
X012850Y017741D01*
X013125Y018017D01*
X013157Y017985D01*
X013317Y017985D01*
X013430Y018098D01*
X013430Y018258D01*
X013398Y018290D01*
X013435Y018327D01*
X013467Y018295D01*
X013627Y018295D01*
X013707Y018375D01*
X013744Y018338D01*
X013664Y018258D01*
X013664Y018098D01*
X013777Y017985D01*
X013937Y017985D01*
X014050Y018098D01*
X014050Y018258D01*
X014050Y018204D02*
X015386Y018204D01*
X015364Y018156D02*
X014050Y018156D01*
X014050Y018107D02*
X015316Y018107D01*
X015267Y018059D02*
X014010Y018059D01*
X013961Y018010D02*
X015218Y018010D01*
X015170Y017961D02*
X013722Y017961D01*
X013735Y017948D02*
X013622Y018061D01*
X013462Y018061D01*
X013349Y017948D01*
X013349Y017788D01*
X013462Y017675D01*
X013622Y017675D01*
X013735Y017788D01*
X013735Y017948D01*
X013735Y017913D02*
X015121Y017913D01*
X015073Y017864D02*
X013735Y017864D01*
X013735Y017816D02*
X015024Y017816D01*
X014976Y017767D02*
X013714Y017767D01*
X013754Y017719D02*
X013665Y017719D01*
X013706Y017670D02*
X013348Y017670D01*
X013396Y017622D02*
X013657Y017622D01*
X013654Y017618D02*
X013654Y017458D01*
X013767Y017345D01*
X013927Y017345D01*
X014040Y017458D01*
X014040Y017618D01*
X013927Y017731D01*
X013767Y017731D01*
X013654Y017618D01*
X013654Y017573D02*
X013400Y017573D01*
X013400Y017525D02*
X013654Y017525D01*
X013654Y017476D02*
X013400Y017476D01*
X013369Y017427D02*
X013685Y017427D01*
X013733Y017379D02*
X013349Y017379D01*
X013398Y017330D02*
X014877Y017330D01*
X014877Y017282D02*
X013420Y017282D01*
X013420Y017233D02*
X014877Y017233D01*
X014877Y017185D02*
X013420Y017185D01*
X013408Y017136D02*
X014877Y017136D01*
X014877Y017088D02*
X013359Y017088D01*
X013310Y017039D02*
X014877Y017039D01*
X014877Y016991D02*
X013090Y016991D01*
X013090Y017008D02*
X012977Y017121D01*
X012817Y017121D01*
X012704Y017008D01*
X012704Y016848D01*
X012817Y016735D01*
X012977Y016735D01*
X013090Y016848D01*
X013090Y017008D01*
X013059Y017039D02*
X013143Y017039D01*
X013095Y017088D02*
X013010Y017088D01*
X013046Y017136D02*
X012245Y017136D01*
X012293Y017185D02*
X013034Y017185D01*
X013034Y017233D02*
X012342Y017233D01*
X012390Y017282D02*
X013034Y017282D01*
X013056Y017330D02*
X012439Y017330D01*
X012487Y017379D02*
X012783Y017379D01*
X012735Y017427D02*
X012536Y017427D01*
X012584Y017476D02*
X012694Y017476D01*
X012694Y017525D02*
X012633Y017525D01*
X012682Y017573D02*
X012694Y017573D01*
X012876Y017767D02*
X013370Y017767D01*
X013349Y017816D02*
X012924Y017816D01*
X012973Y017864D02*
X013349Y017864D01*
X013349Y017913D02*
X013021Y017913D01*
X013070Y017961D02*
X013362Y017961D01*
X013341Y018010D02*
X013411Y018010D01*
X013390Y018059D02*
X013459Y018059D01*
X013430Y018107D02*
X013664Y018107D01*
X013664Y018156D02*
X013430Y018156D01*
X013430Y018204D02*
X013664Y018204D01*
X013664Y018253D02*
X013430Y018253D01*
X013410Y018301D02*
X013461Y018301D01*
X013633Y018301D02*
X013707Y018301D01*
X013681Y018350D02*
X013733Y018350D01*
X013981Y018350D02*
X014343Y018350D01*
X014391Y018301D02*
X014007Y018301D01*
X014030Y018398D02*
X014294Y018398D01*
X014284Y018447D02*
X014050Y018447D01*
X014050Y018495D02*
X014284Y018495D01*
X014284Y018544D02*
X014050Y018544D01*
X014036Y018592D02*
X014308Y018592D01*
X014357Y018641D02*
X013987Y018641D01*
X013938Y018690D02*
X014313Y018690D01*
X014284Y018738D02*
X014196Y018738D01*
X014611Y018350D02*
X014653Y018350D01*
X014701Y018301D02*
X014563Y018301D01*
X014704Y017719D02*
X013939Y017719D01*
X013988Y017670D02*
X014656Y017670D01*
X014614Y017622D02*
X014036Y017622D01*
X014040Y017573D02*
X014614Y017573D01*
X014614Y017525D02*
X014040Y017525D01*
X014040Y017476D02*
X014614Y017476D01*
X014655Y017427D02*
X014009Y017427D01*
X013960Y017379D02*
X014703Y017379D01*
X014909Y017719D02*
X014927Y017719D01*
X014877Y016942D02*
X013090Y016942D01*
X013090Y016893D02*
X014877Y016893D01*
X014877Y016845D02*
X013086Y016845D01*
X013038Y016796D02*
X014877Y016796D01*
X014856Y016748D02*
X012989Y016748D01*
X012876Y016602D02*
X014756Y016602D01*
X014741Y016554D02*
X012924Y016554D01*
X012930Y016548D02*
X012817Y016661D01*
X012657Y016661D01*
X012544Y016548D01*
X012544Y016388D01*
X012657Y016275D01*
X012817Y016275D01*
X012930Y016388D01*
X012930Y016548D01*
X012930Y016505D02*
X014726Y016505D01*
X014710Y016457D02*
X012930Y016457D01*
X012930Y016408D02*
X014695Y016408D01*
X014680Y016359D02*
X012901Y016359D01*
X012852Y016311D02*
X014664Y016311D01*
X014649Y016262D02*
X005377Y016262D01*
X005377Y016214D02*
X014634Y016214D01*
X014619Y016165D02*
X005377Y016165D01*
X005377Y016117D02*
X014603Y016117D01*
X014588Y016068D02*
X005377Y016068D01*
X005377Y016020D02*
X012945Y016020D01*
X012957Y016031D02*
X012844Y015918D01*
X012844Y015758D01*
X012957Y015645D01*
X013117Y015645D01*
X013230Y015758D01*
X013230Y015918D01*
X013117Y016031D01*
X012957Y016031D01*
X012897Y015971D02*
X009637Y015971D01*
X009627Y015981D02*
X009467Y015981D01*
X009354Y015868D01*
X009354Y015708D01*
X009467Y015595D01*
X009627Y015595D01*
X009740Y015708D01*
X009740Y015868D01*
X009627Y015981D01*
X009685Y015923D02*
X012848Y015923D01*
X012844Y015874D02*
X009734Y015874D01*
X009740Y015826D02*
X012844Y015826D01*
X012844Y015777D02*
X009740Y015777D01*
X009740Y015728D02*
X012874Y015728D01*
X012922Y015680D02*
X009711Y015680D01*
X009663Y015631D02*
X014451Y015631D01*
X014435Y015583D02*
X005377Y015583D01*
X005377Y015631D02*
X009431Y015631D01*
X009382Y015680D02*
X005377Y015680D01*
X005377Y015728D02*
X009354Y015728D01*
X009354Y015777D02*
X005377Y015777D01*
X005377Y015826D02*
X009354Y015826D01*
X009360Y015874D02*
X005377Y015874D01*
X005377Y015923D02*
X009408Y015923D01*
X009457Y015971D02*
X005377Y015971D01*
X005377Y016311D02*
X012621Y016311D01*
X012573Y016359D02*
X005377Y016359D01*
X005377Y016408D02*
X012544Y016408D01*
X012544Y016457D02*
X005377Y016457D01*
X005377Y016505D02*
X012544Y016505D01*
X012549Y016554D02*
X005377Y016554D01*
X005377Y016602D02*
X012598Y016602D01*
X012646Y016651D02*
X005377Y016651D01*
X005377Y016699D02*
X014808Y016699D01*
X014771Y016651D02*
X012827Y016651D01*
X012804Y016748D02*
X005377Y016748D01*
X005377Y016796D02*
X007149Y016796D01*
X007100Y016845D02*
X005377Y016845D01*
X005377Y016893D02*
X007052Y016893D01*
X007003Y016942D02*
X005377Y016942D01*
X005377Y016991D02*
X006955Y016991D01*
X006906Y017039D02*
X005377Y017039D01*
X005377Y017088D02*
X006858Y017088D01*
X006809Y017136D02*
X005377Y017136D01*
X005377Y017185D02*
X006760Y017185D01*
X006712Y017233D02*
X005377Y017233D01*
X005377Y017282D02*
X006663Y017282D01*
X006615Y017330D02*
X005377Y017330D01*
X005377Y017379D02*
X006566Y017379D01*
X006518Y017427D02*
X005377Y017427D01*
X005377Y017476D02*
X006469Y017476D01*
X006421Y017525D02*
X005377Y017525D01*
X005377Y017573D02*
X006372Y017573D01*
X006324Y017622D02*
X005377Y017622D01*
X005379Y017670D02*
X006275Y017670D01*
X006226Y017719D02*
X005427Y017719D01*
X005476Y017767D02*
X006178Y017767D01*
X006129Y017816D02*
X005524Y017816D01*
X005573Y017864D02*
X006081Y017864D01*
X006032Y017913D02*
X005621Y017913D01*
X005670Y017961D02*
X005984Y017961D01*
X005935Y018010D02*
X005718Y018010D01*
X005767Y018059D02*
X005887Y018059D01*
X005838Y018107D02*
X005816Y018107D01*
X005377Y015534D02*
X014420Y015534D01*
X014405Y015486D02*
X005377Y015486D01*
X005377Y015437D02*
X014390Y015437D01*
X014374Y015389D02*
X005377Y015389D01*
X005405Y015340D02*
X007146Y015340D01*
X007167Y015361D02*
X007054Y015248D01*
X007054Y015088D01*
X007167Y014975D01*
X007327Y014975D01*
X007440Y015088D01*
X007440Y015248D01*
X007327Y015361D01*
X007167Y015361D01*
X007097Y015292D02*
X005454Y015292D01*
X005502Y015243D02*
X007054Y015243D01*
X007054Y015194D02*
X005551Y015194D01*
X005599Y015146D02*
X007054Y015146D01*
X007054Y015097D02*
X005648Y015097D01*
X005696Y015049D02*
X007093Y015049D01*
X007142Y015000D02*
X005745Y015000D01*
X006082Y014952D02*
X011271Y014952D01*
X011234Y014988D02*
X011347Y014875D01*
X011507Y014875D01*
X011620Y014988D01*
X011620Y015148D01*
X011507Y015261D01*
X011347Y015261D01*
X011234Y015148D01*
X011234Y014988D01*
X011234Y015000D02*
X007352Y015000D01*
X007400Y015049D02*
X011234Y015049D01*
X011234Y015097D02*
X007440Y015097D01*
X007440Y015146D02*
X011234Y015146D01*
X011280Y015194D02*
X007440Y015194D01*
X007440Y015243D02*
X011329Y015243D01*
X011525Y015243D02*
X014328Y015243D01*
X014313Y015194D02*
X011574Y015194D01*
X011620Y015146D02*
X014298Y015146D01*
X014283Y015097D02*
X011620Y015097D01*
X011620Y015049D02*
X014267Y015049D01*
X014252Y015000D02*
X011620Y015000D01*
X011583Y014952D02*
X014237Y014952D01*
X014222Y014903D02*
X011535Y014903D01*
X011319Y014903D02*
X006097Y014903D01*
X006113Y014855D02*
X014206Y014855D01*
X014191Y014806D02*
X006128Y014806D01*
X006143Y014758D02*
X014176Y014758D01*
X014160Y014709D02*
X006159Y014709D01*
X006174Y014660D02*
X014145Y014660D01*
X014130Y014612D02*
X006189Y014612D01*
X006205Y014563D02*
X013649Y014563D01*
X013600Y014515D02*
X006220Y014515D01*
X006235Y014466D02*
X013564Y014466D01*
X013564Y014418D02*
X006251Y014418D01*
X007348Y015340D02*
X014359Y015340D01*
X014344Y015292D02*
X007396Y015292D01*
X006677Y013068D02*
X011527Y013068D01*
X011548Y013059D02*
X013641Y013059D01*
X013626Y013010D02*
X011654Y013010D01*
X011760Y012961D02*
X013611Y012961D01*
X013595Y012913D02*
X011865Y012913D01*
X011971Y012864D02*
X013580Y012864D01*
X013565Y012816D02*
X012076Y012816D01*
X012182Y012767D02*
X013550Y012767D01*
X013534Y012719D02*
X012288Y012719D01*
X012393Y012670D02*
X013519Y012670D01*
X013504Y012622D02*
X012499Y012622D01*
X012605Y012573D02*
X013488Y012573D01*
X013473Y012525D02*
X012710Y012525D01*
X012816Y012476D02*
X013458Y012476D01*
X013443Y012427D02*
X012922Y012427D01*
X013027Y012379D02*
X013427Y012379D01*
X013412Y012330D02*
X013133Y012330D01*
X013239Y012282D02*
X013397Y012282D01*
X013382Y012233D02*
X013344Y012233D01*
X013855Y014224D02*
X014008Y014224D01*
X014023Y014272D02*
X013904Y014272D01*
X013950Y014321D02*
X014038Y014321D01*
X014054Y014369D02*
X013950Y014369D01*
X013950Y014418D02*
X014069Y014418D01*
X014084Y014466D02*
X013950Y014466D01*
X013913Y014515D02*
X014099Y014515D01*
X014115Y014563D02*
X013865Y014563D01*
X014466Y015680D02*
X013151Y015680D01*
X013200Y015728D02*
X014481Y015728D01*
X014496Y015777D02*
X013230Y015777D01*
X013230Y015826D02*
X014512Y015826D01*
X014527Y015874D02*
X013230Y015874D01*
X013225Y015923D02*
X014542Y015923D01*
X014558Y015971D02*
X013177Y015971D01*
X013128Y016020D02*
X014573Y016020D01*
X016103Y016651D02*
X016116Y016651D01*
X016102Y016699D02*
X016165Y016699D01*
X016101Y016748D02*
X016284Y016748D01*
X016236Y016796D02*
X016100Y016796D01*
X016099Y016845D02*
X016194Y016845D01*
X016194Y016893D02*
X016098Y016893D01*
X016097Y016942D02*
X016194Y016942D01*
X016194Y016991D02*
X016095Y016991D01*
X016094Y017039D02*
X016235Y017039D01*
X016283Y017088D02*
X016093Y017088D01*
X016470Y017379D02*
X016603Y017379D01*
X016555Y017427D02*
X016519Y017427D01*
X016770Y017379D02*
X016855Y017379D01*
X016845Y017427D02*
X016819Y017427D01*
X016809Y017719D02*
X016894Y017719D01*
X017099Y017719D02*
X017194Y017719D01*
X017151Y017670D02*
X017148Y017670D01*
X017440Y017719D02*
X017484Y017719D01*
X017473Y017670D02*
X017532Y017670D01*
X016564Y017719D02*
X016469Y017719D01*
X016262Y018010D02*
X016168Y018010D01*
X016214Y018059D02*
X016112Y018059D01*
X016113Y018107D02*
X016184Y018107D01*
X016184Y018156D02*
X016115Y018156D01*
X016117Y018204D02*
X016184Y018204D01*
X016188Y018253D02*
X016119Y018253D01*
X016120Y018301D02*
X016237Y018301D01*
X016243Y018350D02*
X016122Y018350D01*
X016124Y018398D02*
X016194Y018398D01*
X016184Y018447D02*
X016126Y018447D01*
X016127Y018495D02*
X016184Y018495D01*
X016184Y018544D02*
X016129Y018544D01*
X016131Y018592D02*
X016208Y018592D01*
X016257Y018641D02*
X016132Y018641D01*
X016164Y020923D02*
X016986Y020923D01*
X016994Y020971D02*
X015435Y020971D01*
X015227Y021165D02*
X016267Y021165D01*
X016297Y021135D02*
X016457Y021135D01*
X016532Y021210D01*
X016617Y021125D01*
X016777Y021125D01*
X016858Y021206D01*
X016927Y021137D01*
X017021Y021137D01*
X016977Y020868D01*
X014050Y021063D01*
X014050Y021078D01*
X013937Y021191D01*
X013777Y021191D01*
X013702Y021116D01*
X013627Y021191D01*
X013467Y021191D01*
X013354Y021078D01*
X013354Y021032D01*
X013127Y021018D01*
X013093Y021190D01*
X013147Y021135D01*
X013307Y021135D01*
X013420Y021248D01*
X013420Y021408D01*
X014284Y021408D01*
X014284Y021418D02*
X014284Y021258D01*
X014397Y021145D01*
X014557Y021145D01*
X014670Y021258D01*
X014670Y021418D01*
X014600Y021488D01*
X014680Y021568D01*
X014680Y021728D01*
X014610Y021798D01*
X014680Y021868D01*
X014680Y022028D01*
X014602Y022106D01*
X014690Y022193D01*
X014690Y022353D01*
X014577Y022466D01*
X014417Y022466D01*
X014304Y022353D01*
X014304Y022193D01*
X014381Y022116D01*
X014332Y022066D01*
X014247Y022151D01*
X014087Y022151D01*
X013974Y022038D01*
X013974Y021878D01*
X014087Y021765D01*
X014247Y021765D01*
X014322Y021840D01*
X014364Y021798D01*
X014294Y021728D01*
X014294Y021568D01*
X014364Y021498D01*
X014284Y021418D01*
X014322Y021457D02*
X013371Y021457D01*
X013350Y021478D02*
X013430Y021558D01*
X013430Y021718D01*
X013317Y021831D01*
X013157Y021831D01*
X013044Y021718D01*
X013044Y021558D01*
X013114Y021488D01*
X013046Y021421D01*
X012977Y021768D01*
X012977Y027268D01*
X013413Y026977D01*
X013404Y026968D01*
X013404Y026808D01*
X013517Y026695D01*
X013677Y026695D01*
X013790Y026808D01*
X013790Y026868D01*
X014077Y026868D01*
X017977Y026918D01*
X017130Y021798D01*
X017087Y021841D01*
X016927Y021841D01*
X016814Y021728D01*
X016814Y021568D01*
X016893Y021489D01*
X016846Y021442D01*
X016777Y021511D01*
X016617Y021511D01*
X016542Y021436D01*
X016457Y021521D01*
X016297Y021521D01*
X016184Y021408D01*
X015290Y021408D01*
X015300Y021398D02*
X015220Y021478D01*
X015267Y021525D01*
X015347Y021445D01*
X015507Y021445D01*
X015620Y021558D01*
X015620Y021718D01*
X015540Y021798D01*
X015620Y021878D01*
X015620Y022038D01*
X015507Y022151D01*
X015347Y022151D01*
X015234Y022038D01*
X015234Y021878D01*
X015314Y021798D01*
X015277Y021761D01*
X015197Y021841D01*
X015037Y021841D01*
X014924Y021728D01*
X014924Y021568D01*
X015004Y021488D01*
X014914Y021398D01*
X014914Y021238D01*
X015027Y021125D01*
X015187Y021125D01*
X015300Y021238D01*
X015300Y021398D01*
X015300Y021359D02*
X016184Y021359D01*
X016184Y021311D02*
X015300Y021311D01*
X015300Y021262D02*
X016184Y021262D01*
X016184Y021248D02*
X016297Y021135D01*
X016218Y021214D02*
X015275Y021214D01*
X015241Y021457D02*
X015336Y021457D01*
X015287Y021505D02*
X015246Y021505D01*
X014987Y021505D02*
X014616Y021505D01*
X014631Y021457D02*
X014972Y021457D01*
X014924Y021408D02*
X014670Y021408D01*
X014670Y021359D02*
X014914Y021359D01*
X014914Y021311D02*
X014670Y021311D01*
X014670Y021262D02*
X014914Y021262D01*
X014938Y021214D02*
X014625Y021214D01*
X014577Y021165D02*
X014987Y021165D01*
X014707Y021020D02*
X017002Y021020D01*
X017010Y021068D02*
X014050Y021068D01*
X014011Y021117D02*
X017018Y021117D01*
X016899Y021165D02*
X016817Y021165D01*
X016577Y021165D02*
X016487Y021165D01*
X016521Y021457D02*
X016562Y021457D01*
X016611Y021505D02*
X016473Y021505D01*
X016281Y021505D02*
X015566Y021505D01*
X015518Y021457D02*
X016232Y021457D01*
X016184Y021408D02*
X016184Y021248D01*
X015615Y021554D02*
X016829Y021554D01*
X016814Y021602D02*
X015620Y021602D01*
X015620Y021651D02*
X016814Y021651D01*
X016814Y021699D02*
X015620Y021699D01*
X015590Y021748D02*
X016833Y021748D01*
X016882Y021796D02*
X015542Y021796D01*
X015586Y021845D02*
X017138Y021845D01*
X017146Y021893D02*
X015620Y021893D01*
X015620Y021942D02*
X017154Y021942D01*
X017162Y021991D02*
X015620Y021991D01*
X015619Y022039D02*
X017170Y022039D01*
X017178Y022088D02*
X015570Y022088D01*
X015522Y022136D02*
X017186Y022136D01*
X017194Y022185D02*
X014681Y022185D01*
X014690Y022233D02*
X017202Y022233D01*
X017210Y022282D02*
X014690Y022282D01*
X014690Y022330D02*
X017219Y022330D01*
X017227Y022379D02*
X014664Y022379D01*
X014616Y022427D02*
X017235Y022427D01*
X017243Y022476D02*
X014222Y022476D01*
X014250Y022448D02*
X014137Y022561D01*
X013977Y022561D01*
X013864Y022448D01*
X013864Y022288D01*
X013977Y022175D01*
X014137Y022175D01*
X014250Y022288D01*
X014250Y022448D01*
X014250Y022427D02*
X014378Y022427D01*
X014329Y022379D02*
X014250Y022379D01*
X014250Y022330D02*
X014304Y022330D01*
X014304Y022282D02*
X014243Y022282D01*
X014195Y022233D02*
X014304Y022233D01*
X014313Y022185D02*
X014146Y022185D01*
X014072Y022136D02*
X012977Y022136D01*
X012977Y022088D02*
X014023Y022088D01*
X013975Y022039D02*
X012977Y022039D01*
X012977Y021991D02*
X013974Y021991D01*
X013974Y021942D02*
X012977Y021942D01*
X012977Y021893D02*
X013974Y021893D01*
X014007Y021845D02*
X012977Y021845D01*
X012977Y021796D02*
X013122Y021796D01*
X013073Y021748D02*
X012981Y021748D01*
X012991Y021699D02*
X013044Y021699D01*
X013044Y021651D02*
X013000Y021651D01*
X013010Y021602D02*
X013044Y021602D01*
X013049Y021554D02*
X013020Y021554D01*
X013029Y021505D02*
X013097Y021505D01*
X013082Y021457D02*
X013039Y021457D01*
X013097Y021165D02*
X013117Y021165D01*
X013107Y021117D02*
X013392Y021117D01*
X013354Y021068D02*
X013117Y021068D01*
X013127Y021020D02*
X013149Y021020D01*
X013337Y021165D02*
X013441Y021165D01*
X013385Y021214D02*
X014328Y021214D01*
X014284Y021262D02*
X013420Y021262D01*
X013420Y021311D02*
X014284Y021311D01*
X014284Y021359D02*
X013420Y021359D01*
X013420Y021408D02*
X013350Y021478D01*
X013376Y021505D02*
X014357Y021505D01*
X014309Y021554D02*
X013425Y021554D01*
X013430Y021602D02*
X014294Y021602D01*
X014294Y021651D02*
X013430Y021651D01*
X013430Y021699D02*
X014294Y021699D01*
X014313Y021748D02*
X013400Y021748D01*
X013352Y021796D02*
X014056Y021796D01*
X014278Y021796D02*
X014362Y021796D01*
X014612Y021796D02*
X014992Y021796D01*
X014943Y021748D02*
X014660Y021748D01*
X014680Y021699D02*
X014924Y021699D01*
X014924Y021651D02*
X014680Y021651D01*
X014680Y021602D02*
X014924Y021602D01*
X014939Y021554D02*
X014665Y021554D01*
X014656Y021845D02*
X015267Y021845D01*
X015242Y021796D02*
X015312Y021796D01*
X015234Y021893D02*
X014680Y021893D01*
X014680Y021942D02*
X015234Y021942D01*
X015234Y021991D02*
X014680Y021991D01*
X014669Y022039D02*
X015235Y022039D01*
X015283Y022088D02*
X014620Y022088D01*
X014632Y022136D02*
X015332Y022136D01*
X014361Y022136D02*
X014262Y022136D01*
X014310Y022088D02*
X014353Y022088D01*
X013968Y022185D02*
X012977Y022185D01*
X012977Y022233D02*
X013919Y022233D01*
X013871Y022282D02*
X012977Y022282D01*
X012977Y022330D02*
X013864Y022330D01*
X013864Y022379D02*
X012977Y022379D01*
X012977Y022427D02*
X013864Y022427D01*
X013892Y022476D02*
X012977Y022476D01*
X012977Y022524D02*
X013940Y022524D01*
X014174Y022524D02*
X017251Y022524D01*
X017259Y022573D02*
X012977Y022573D01*
X012977Y022622D02*
X016491Y022622D01*
X016517Y022595D02*
X016677Y022595D01*
X016790Y022708D01*
X016790Y022868D01*
X016677Y022981D01*
X016517Y022981D01*
X016404Y022868D01*
X016404Y022708D01*
X016517Y022595D01*
X016442Y022670D02*
X012977Y022670D01*
X012977Y022719D02*
X016404Y022719D01*
X016404Y022767D02*
X012977Y022767D01*
X012977Y022816D02*
X016404Y022816D01*
X016404Y022864D02*
X012977Y022864D01*
X012977Y022913D02*
X016448Y022913D01*
X016497Y022961D02*
X012977Y022961D01*
X012977Y023010D02*
X017331Y023010D01*
X017339Y023058D02*
X016760Y023058D01*
X016717Y023015D02*
X016830Y023128D01*
X016830Y023288D01*
X016717Y023401D01*
X016557Y023401D01*
X016444Y023288D01*
X016444Y023128D01*
X016557Y023015D01*
X016717Y023015D01*
X016697Y022961D02*
X017323Y022961D01*
X017315Y022913D02*
X016745Y022913D01*
X016790Y022864D02*
X017307Y022864D01*
X017299Y022816D02*
X016790Y022816D01*
X016790Y022767D02*
X017291Y022767D01*
X017283Y022719D02*
X016790Y022719D01*
X016751Y022670D02*
X017275Y022670D01*
X017267Y022622D02*
X016703Y022622D01*
X016514Y023058D02*
X012977Y023058D01*
X012977Y023107D02*
X016465Y023107D01*
X016444Y023156D02*
X012977Y023156D01*
X012977Y023204D02*
X016444Y023204D01*
X016444Y023253D02*
X012977Y023253D01*
X012977Y023301D02*
X016457Y023301D01*
X016505Y023350D02*
X012977Y023350D01*
X012977Y023398D02*
X016554Y023398D01*
X016720Y023398D02*
X017395Y023398D01*
X017387Y023350D02*
X016768Y023350D01*
X016817Y023301D02*
X017379Y023301D01*
X017371Y023253D02*
X016830Y023253D01*
X016830Y023204D02*
X017363Y023204D01*
X017355Y023156D02*
X016830Y023156D01*
X016808Y023107D02*
X017347Y023107D01*
X017403Y023447D02*
X012977Y023447D01*
X012977Y023495D02*
X017411Y023495D01*
X017419Y023544D02*
X012977Y023544D01*
X012977Y023592D02*
X017427Y023592D01*
X017435Y023641D02*
X012977Y023641D01*
X012977Y023690D02*
X017443Y023690D01*
X017451Y023738D02*
X012977Y023738D01*
X012977Y023787D02*
X017459Y023787D01*
X017467Y023835D02*
X012977Y023835D01*
X012977Y023884D02*
X017475Y023884D01*
X017483Y023932D02*
X012977Y023932D01*
X012977Y023981D02*
X017491Y023981D01*
X017499Y024029D02*
X012977Y024029D01*
X012977Y024078D02*
X017507Y024078D01*
X017515Y024126D02*
X012977Y024126D01*
X012977Y024175D02*
X017523Y024175D01*
X017531Y024224D02*
X012977Y024224D01*
X012977Y024272D02*
X017539Y024272D01*
X017547Y024321D02*
X012977Y024321D01*
X012977Y024369D02*
X017556Y024369D01*
X017564Y024418D02*
X012977Y024418D01*
X012977Y024466D02*
X017572Y024466D01*
X017580Y024515D02*
X012977Y024515D01*
X012977Y024563D02*
X017588Y024563D01*
X017596Y024612D02*
X012977Y024612D01*
X012977Y024660D02*
X017604Y024660D01*
X017612Y024709D02*
X012977Y024709D01*
X012977Y024757D02*
X017620Y024757D01*
X017628Y024806D02*
X012977Y024806D01*
X012977Y024855D02*
X017636Y024855D01*
X017644Y024903D02*
X012977Y024903D01*
X012977Y024952D02*
X017652Y024952D01*
X017660Y025000D02*
X012977Y025000D01*
X012977Y025049D02*
X017668Y025049D01*
X017676Y025097D02*
X012977Y025097D01*
X012977Y025146D02*
X017684Y025146D01*
X017692Y025194D02*
X012977Y025194D01*
X012977Y025243D02*
X017700Y025243D01*
X017708Y025291D02*
X012977Y025291D01*
X012977Y025340D02*
X017716Y025340D01*
X017724Y025389D02*
X012977Y025389D01*
X012977Y025437D02*
X017732Y025437D01*
X017740Y025486D02*
X012977Y025486D01*
X012977Y025534D02*
X017748Y025534D01*
X017756Y025583D02*
X012977Y025583D01*
X012977Y025631D02*
X017764Y025631D01*
X017772Y025680D02*
X012977Y025680D01*
X012977Y025728D02*
X017780Y025728D01*
X017788Y025777D02*
X012977Y025777D01*
X012977Y025825D02*
X017796Y025825D01*
X017804Y025874D02*
X012977Y025874D01*
X012977Y025923D02*
X017812Y025923D01*
X017820Y025971D02*
X012977Y025971D01*
X012977Y026020D02*
X017828Y026020D01*
X017836Y026068D02*
X012977Y026068D01*
X012977Y026117D02*
X017844Y026117D01*
X017852Y026165D02*
X012977Y026165D01*
X012977Y026214D02*
X017860Y026214D01*
X017868Y026262D02*
X012977Y026262D01*
X012977Y026311D02*
X017876Y026311D01*
X017884Y026359D02*
X012977Y026359D01*
X012977Y026408D02*
X017893Y026408D01*
X017901Y026456D02*
X012977Y026456D01*
X012977Y026505D02*
X017909Y026505D01*
X017917Y026554D02*
X012977Y026554D01*
X012977Y026602D02*
X017925Y026602D01*
X017933Y026651D02*
X012977Y026651D01*
X012977Y026699D02*
X013513Y026699D01*
X013465Y026748D02*
X012977Y026748D01*
X012977Y026796D02*
X013416Y026796D01*
X013404Y026845D02*
X012977Y026845D01*
X012977Y026893D02*
X013404Y026893D01*
X013404Y026942D02*
X012977Y026942D01*
X012977Y026990D02*
X013394Y026990D01*
X013321Y027039D02*
X012977Y027039D01*
X012977Y027088D02*
X013248Y027088D01*
X013175Y027136D02*
X012977Y027136D01*
X012977Y027185D02*
X013102Y027185D01*
X013030Y027233D02*
X012977Y027233D01*
X013681Y026699D02*
X017941Y026699D01*
X017949Y026748D02*
X013729Y026748D01*
X013778Y026796D02*
X017957Y026796D01*
X017965Y026845D02*
X013790Y026845D01*
X016030Y026893D02*
X017973Y026893D01*
X016877Y021505D02*
X016783Y021505D01*
X016831Y021457D02*
X016860Y021457D01*
X016892Y020874D02*
X016978Y020874D01*
X014377Y021165D02*
X013963Y021165D01*
X013751Y021165D02*
X013653Y021165D01*
X013701Y021117D02*
X013702Y021117D01*
X013625Y018059D02*
X013704Y018059D01*
X013673Y018010D02*
X013752Y018010D01*
X013419Y017719D02*
X013299Y017719D01*
X013114Y017719D02*
X012989Y017719D01*
X013038Y017670D02*
X013066Y017670D01*
X013045Y017427D02*
X013039Y017427D01*
X012990Y017379D02*
X013093Y017379D01*
X012783Y017088D02*
X012196Y017088D01*
X012148Y017039D02*
X012735Y017039D01*
X012704Y016991D02*
X012099Y016991D01*
X012051Y016942D02*
X012704Y016942D01*
X012704Y016893D02*
X012002Y016893D01*
X011953Y016845D02*
X012707Y016845D01*
X012756Y016796D02*
X011905Y016796D01*
X013118Y018010D02*
X013132Y018010D01*
X017216Y016262D02*
X019751Y016262D01*
X019684Y016214D02*
X017264Y016214D01*
X017300Y016165D02*
X019618Y016165D01*
X019552Y016117D02*
X017300Y016117D01*
X017300Y016068D02*
X019486Y016068D01*
X019420Y016020D02*
X017300Y016020D01*
X017253Y015971D02*
X019353Y015971D01*
X019287Y015923D02*
X017204Y015923D01*
X032975Y016893D02*
X034652Y016893D01*
X034701Y016942D02*
X033023Y016942D01*
D17*
X032677Y012368D02*
X025777Y012368D01*
X025177Y011768D01*
X025177Y011668D01*
X025477Y011368D01*
X027977Y011368D01*
X028277Y011068D01*
X028277Y007468D01*
X028477Y007268D01*
X031377Y007268D01*
X033077Y008668D01*
X033077Y011968D01*
X032677Y012368D01*
X032715Y012330D02*
X025738Y012330D01*
X025620Y012211D02*
X032834Y012211D01*
X032952Y012093D02*
X025501Y012093D01*
X025383Y011974D02*
X033071Y011974D01*
X033077Y011856D02*
X025264Y011856D01*
X025177Y011737D02*
X033077Y011737D01*
X033077Y011619D02*
X025226Y011619D01*
X025345Y011500D02*
X033077Y011500D01*
X033077Y011382D02*
X025464Y011382D01*
X023229Y011145D02*
X021461Y011145D01*
X021595Y011263D02*
X023217Y011263D01*
X023204Y011382D02*
X021730Y011382D01*
X021864Y011500D02*
X023191Y011500D01*
X023179Y011619D02*
X021999Y011619D01*
X022134Y011737D02*
X023166Y011737D01*
X023153Y011856D02*
X022268Y011856D01*
X022403Y011974D02*
X023140Y011974D01*
X023128Y012093D02*
X022537Y012093D01*
X022672Y012211D02*
X023115Y012211D01*
X023102Y012330D02*
X022806Y012330D01*
X022941Y012449D02*
X023090Y012449D01*
X023075Y012567D02*
X023077Y012567D01*
X023077Y012568D02*
X023377Y009768D01*
X023077Y008768D01*
X022777Y009268D01*
X022544Y009268D01*
X022600Y009324D01*
X022600Y009513D01*
X022466Y009646D01*
X022277Y009646D01*
X022245Y009614D01*
X022245Y009713D01*
X022111Y009846D01*
X022025Y009846D01*
X022025Y009933D01*
X021891Y010066D01*
X021702Y010066D01*
X021569Y009933D01*
X021569Y009744D01*
X021702Y009610D01*
X021789Y009610D01*
X021789Y009524D01*
X021922Y009390D01*
X022111Y009390D01*
X022144Y009423D01*
X022144Y009324D01*
X022199Y009268D01*
X021369Y009268D01*
X021425Y009324D01*
X021425Y009513D01*
X021291Y009646D01*
X021121Y009646D01*
X021011Y009756D01*
X020915Y009756D01*
X020915Y009803D01*
X020781Y009936D01*
X020592Y009936D01*
X020522Y009866D01*
X020481Y009906D01*
X020292Y009906D01*
X020159Y009773D01*
X020159Y009584D01*
X020292Y009450D01*
X020481Y009450D01*
X020552Y009521D01*
X020592Y009480D01*
X020689Y009480D01*
X020689Y009434D01*
X020822Y009300D01*
X020992Y009300D01*
X021024Y009268D01*
X018577Y009268D01*
X017577Y008468D01*
X016999Y008468D01*
X016921Y008546D01*
X016732Y008546D01*
X016654Y008468D01*
X016477Y008468D01*
X016377Y008668D01*
X016377Y009068D01*
X016277Y010468D01*
X016725Y010478D01*
X016732Y010470D01*
X016921Y010470D01*
X017055Y010604D01*
X017055Y010793D01*
X016982Y010865D01*
X017348Y010652D01*
X017279Y010583D01*
X017279Y010394D01*
X017412Y010260D01*
X017601Y010260D01*
X017735Y010394D01*
X017735Y010426D01*
X018177Y010168D01*
X018177Y009868D01*
X017977Y009668D01*
X016865Y009668D01*
X016865Y009733D01*
X016731Y009866D01*
X016542Y009866D01*
X016409Y009733D01*
X016409Y009668D01*
X016277Y009668D01*
X013377Y012268D01*
X013377Y013626D01*
X013402Y013600D01*
X013591Y013600D01*
X013725Y013734D01*
X013725Y013923D01*
X013591Y014056D01*
X013402Y014056D01*
X013377Y014031D01*
X013377Y017056D01*
X013455Y017134D01*
X013455Y017323D01*
X013384Y017393D01*
X013435Y017444D01*
X013435Y017633D01*
X013377Y017691D01*
X013377Y017711D01*
X013447Y017640D01*
X013627Y017640D01*
X013619Y017633D01*
X013619Y017444D01*
X013752Y017310D01*
X013941Y017310D01*
X014075Y017444D01*
X014075Y017633D01*
X013941Y017766D01*
X013762Y017766D01*
X013770Y017774D01*
X013770Y017950D01*
X013951Y017950D01*
X014085Y018084D01*
X014085Y018221D01*
X014877Y018168D01*
X015277Y018168D01*
X015359Y018086D01*
X015342Y018086D01*
X015209Y017953D01*
X015209Y017764D01*
X015342Y017630D01*
X015399Y017630D01*
X015407Y017476D01*
X015332Y017476D01*
X015267Y017411D01*
X015221Y017456D01*
X015035Y017456D01*
X015035Y017643D01*
X014901Y017776D01*
X014712Y017776D01*
X014579Y017643D01*
X014579Y017454D01*
X014712Y017320D01*
X014899Y017320D01*
X014899Y017134D01*
X015032Y017000D01*
X015199Y017000D01*
X015199Y016834D01*
X015332Y016700D01*
X015448Y016700D01*
X015461Y016435D01*
X015364Y016338D01*
X015364Y016149D01*
X015482Y016031D01*
X015677Y012268D01*
X016877Y011968D01*
X016903Y011681D01*
X016862Y011681D01*
X016729Y011548D01*
X016729Y011359D01*
X016862Y011225D01*
X016944Y011225D01*
X016977Y010871D01*
X016921Y010926D01*
X016732Y010926D01*
X016599Y010793D01*
X016599Y010604D01*
X016732Y010470D01*
X016921Y010470D01*
X016934Y010483D01*
X017279Y010490D01*
X017279Y010394D01*
X017412Y010260D01*
X017601Y010260D01*
X017735Y010394D01*
X017735Y010501D01*
X019679Y010543D01*
X019679Y010474D01*
X019812Y010340D01*
X020001Y010340D01*
X020135Y010474D01*
X020135Y010554D01*
X020807Y010568D01*
X023077Y012568D01*
X023242Y011026D02*
X021326Y011026D01*
X021192Y010907D02*
X023255Y010907D01*
X023267Y010789D02*
X021057Y010789D01*
X020923Y010670D02*
X023280Y010670D01*
X023293Y010552D02*
X020135Y010552D01*
X020094Y010433D02*
X023306Y010433D01*
X023318Y010315D02*
X017656Y010315D01*
X017926Y010315D01*
X017735Y010433D02*
X019720Y010433D01*
X020227Y009841D02*
X016757Y009841D01*
X018149Y009841D01*
X018177Y009959D02*
X015953Y009959D01*
X016085Y009841D02*
X016517Y009841D01*
X016322Y009841D01*
X016313Y009959D02*
X021595Y009959D01*
X021569Y009841D02*
X020877Y009841D01*
X021046Y009722D02*
X021591Y009722D01*
X021789Y009603D02*
X021334Y009603D01*
X021425Y009485D02*
X021828Y009485D01*
X022144Y009366D02*
X021425Y009366D01*
X021734Y008968D02*
X020959Y008968D01*
X021025Y008903D01*
X021025Y008714D01*
X020891Y008580D01*
X020702Y008580D01*
X020569Y008714D01*
X020569Y008903D01*
X020634Y008968D01*
X019877Y008968D01*
X019740Y008763D01*
X019740Y008709D01*
X019677Y008646D01*
X019677Y006268D01*
X020909Y005036D01*
X021001Y005036D01*
X021135Y004903D01*
X021135Y004810D01*
X021489Y004456D01*
X021511Y004456D01*
X021645Y004323D01*
X021645Y004300D01*
X021799Y004146D01*
X021811Y004146D01*
X021899Y004058D01*
X022002Y004161D01*
X022191Y004161D01*
X022325Y004028D01*
X022325Y003839D01*
X022216Y003730D01*
X022477Y003468D01*
X025539Y003468D01*
X025539Y003643D01*
X025672Y003776D01*
X025861Y003776D01*
X025923Y003714D01*
X025977Y003768D01*
X025977Y004168D01*
X025477Y004668D01*
X023077Y004668D01*
X022777Y004968D01*
X022777Y008568D01*
X022645Y008674D01*
X022541Y008570D01*
X022352Y008570D01*
X022219Y008704D01*
X022219Y008893D01*
X022287Y008960D01*
X022277Y008968D01*
X022039Y008968D01*
X022115Y008893D01*
X022115Y008704D01*
X021981Y008570D01*
X021792Y008570D01*
X021659Y008704D01*
X021659Y008893D01*
X021734Y008968D01*
X021659Y008892D02*
X021025Y008892D01*
X021025Y008774D02*
X021659Y008774D01*
X021708Y008655D02*
X020966Y008655D01*
X020628Y008655D02*
X019686Y008655D01*
X019677Y008537D02*
X022777Y008537D01*
X022777Y008418D02*
X019677Y008418D01*
X019677Y008299D02*
X022341Y008299D01*
X022367Y008326D02*
X022234Y008193D01*
X022234Y008004D01*
X022367Y007870D01*
X022556Y007870D01*
X022690Y008004D01*
X022690Y008193D01*
X022556Y008326D01*
X022367Y008326D01*
X022234Y008181D02*
X019677Y008181D01*
X019677Y008062D02*
X020779Y008062D01*
X020822Y008106D02*
X020689Y007973D01*
X020689Y007784D01*
X020822Y007650D01*
X021011Y007650D01*
X021145Y007784D01*
X021145Y007973D01*
X021011Y008106D01*
X020822Y008106D01*
X020689Y007944D02*
X019677Y007944D01*
X019677Y007825D02*
X020689Y007825D01*
X020766Y007707D02*
X019677Y007707D01*
X019677Y007588D02*
X022777Y007588D01*
X022777Y007470D02*
X022178Y007470D01*
X022161Y007486D02*
X021972Y007486D01*
X021839Y007353D01*
X021839Y007164D01*
X021972Y007030D01*
X022161Y007030D01*
X022295Y007164D01*
X022295Y007353D01*
X022161Y007486D01*
X022295Y007351D02*
X022777Y007351D01*
X022777Y007233D02*
X022295Y007233D01*
X022245Y007114D02*
X022777Y007114D01*
X022777Y006996D02*
X019677Y006996D01*
X019677Y007114D02*
X020749Y007114D01*
X020689Y007174D02*
X020822Y007040D01*
X021011Y007040D01*
X021145Y007174D01*
X021145Y007363D01*
X021011Y007496D01*
X020822Y007496D01*
X020689Y007363D01*
X020689Y007174D01*
X020689Y007233D02*
X019677Y007233D01*
X019677Y007351D02*
X020689Y007351D01*
X020796Y007470D02*
X019677Y007470D01*
X019677Y006877D02*
X022777Y006877D01*
X022777Y006758D02*
X019677Y006758D01*
X019677Y006640D02*
X022777Y006640D01*
X022777Y006521D02*
X021286Y006521D01*
X021221Y006586D02*
X021032Y006586D01*
X020899Y006453D01*
X020899Y006264D01*
X021032Y006130D01*
X021221Y006130D01*
X021355Y006264D01*
X021355Y006453D01*
X021221Y006586D01*
X021355Y006403D02*
X022777Y006403D01*
X022777Y006284D02*
X022203Y006284D01*
X022141Y006346D02*
X021952Y006346D01*
X021819Y006213D01*
X021819Y006024D01*
X021952Y005890D01*
X022141Y005890D01*
X022275Y006024D01*
X022275Y006213D01*
X022141Y006346D01*
X022275Y006166D02*
X022777Y006166D01*
X022777Y006047D02*
X022275Y006047D01*
X022179Y005929D02*
X022777Y005929D01*
X022777Y005810D02*
X020135Y005810D01*
X020017Y005929D02*
X021914Y005929D01*
X021819Y006047D02*
X019898Y006047D01*
X019779Y006166D02*
X020997Y006166D01*
X020899Y006284D02*
X019677Y006284D01*
X019677Y006403D02*
X020899Y006403D01*
X020967Y006521D02*
X019677Y006521D01*
X020254Y005692D02*
X022777Y005692D01*
X022777Y005573D02*
X020372Y005573D01*
X020491Y005454D02*
X022777Y005454D01*
X022777Y005336D02*
X020609Y005336D01*
X020728Y005217D02*
X022777Y005217D01*
X022777Y005099D02*
X020846Y005099D01*
X021057Y004980D02*
X022777Y004980D01*
X022883Y004862D02*
X022506Y004862D01*
X022471Y004896D02*
X022282Y004896D01*
X022149Y004763D01*
X022149Y004574D01*
X022282Y004440D01*
X022471Y004440D01*
X022605Y004574D01*
X022605Y004763D01*
X022471Y004896D01*
X022605Y004743D02*
X023002Y004743D01*
X022605Y004625D02*
X025521Y004625D01*
X025639Y004506D02*
X022537Y004506D01*
X022217Y004506D02*
X021439Y004506D01*
X021321Y004625D02*
X022149Y004625D01*
X022149Y004743D02*
X021202Y004743D01*
X021135Y004862D02*
X022248Y004862D01*
X021676Y004269D02*
X025876Y004269D01*
X025977Y004150D02*
X022202Y004150D01*
X022321Y004032D02*
X022588Y004032D01*
X022539Y003983D02*
X022539Y003794D01*
X022672Y003660D01*
X022861Y003660D01*
X022942Y003741D01*
X023032Y003650D01*
X023221Y003650D01*
X023355Y003784D01*
X023355Y003973D01*
X023221Y004106D01*
X023032Y004106D01*
X022952Y004026D01*
X022861Y004116D01*
X022672Y004116D01*
X022539Y003983D01*
X022539Y003913D02*
X022325Y003913D01*
X022281Y003795D02*
X022539Y003795D01*
X022656Y003676D02*
X022269Y003676D01*
X022387Y003558D02*
X025539Y003558D01*
X025572Y003676D02*
X023247Y003676D01*
X023355Y003795D02*
X025977Y003795D01*
X025977Y003913D02*
X023355Y003913D01*
X023296Y004032D02*
X025977Y004032D01*
X025758Y004388D02*
X021580Y004388D01*
X021795Y004150D02*
X021992Y004150D01*
X022946Y004032D02*
X022958Y004032D01*
X023006Y003676D02*
X022877Y003676D01*
X021819Y006166D02*
X021257Y006166D01*
X021355Y006284D02*
X021890Y006284D01*
X021601Y007040D02*
X021735Y007174D01*
X021735Y007363D01*
X021601Y007496D01*
X021412Y007496D01*
X021279Y007363D01*
X021279Y007174D01*
X021412Y007040D01*
X021601Y007040D01*
X021675Y007114D02*
X021889Y007114D01*
X021839Y007233D02*
X021735Y007233D01*
X021735Y007351D02*
X021839Y007351D01*
X021956Y007470D02*
X021628Y007470D01*
X021601Y007650D02*
X021735Y007784D01*
X021735Y007973D01*
X021601Y008106D01*
X021412Y008106D01*
X021279Y007973D01*
X021279Y007784D01*
X021412Y007650D01*
X021601Y007650D01*
X021658Y007707D02*
X022777Y007707D01*
X022777Y007825D02*
X021735Y007825D01*
X021735Y007944D02*
X022294Y007944D01*
X022234Y008062D02*
X021645Y008062D01*
X021369Y008062D02*
X021055Y008062D01*
X021145Y007944D02*
X021279Y007944D01*
X021279Y007825D02*
X021145Y007825D01*
X021068Y007707D02*
X021356Y007707D01*
X021386Y007470D02*
X021038Y007470D01*
X021145Y007351D02*
X021279Y007351D01*
X021279Y007233D02*
X021145Y007233D01*
X021085Y007114D02*
X021339Y007114D01*
X022630Y007944D02*
X022777Y007944D01*
X022777Y008062D02*
X022690Y008062D01*
X022690Y008181D02*
X022777Y008181D01*
X022777Y008299D02*
X022583Y008299D01*
X022626Y008655D02*
X022668Y008655D01*
X022268Y008655D02*
X022066Y008655D01*
X022115Y008774D02*
X022219Y008774D01*
X022219Y008892D02*
X022115Y008892D01*
X022600Y009366D02*
X023256Y009366D01*
X023221Y009248D02*
X022789Y009248D01*
X022860Y009129D02*
X023185Y009129D01*
X023150Y009011D02*
X022931Y009011D01*
X023003Y008892D02*
X023114Y008892D01*
X023078Y008774D02*
X023074Y008774D01*
X023292Y009485D02*
X022600Y009485D01*
X022509Y009603D02*
X023327Y009603D01*
X023363Y009722D02*
X022236Y009722D01*
X022117Y009841D02*
X023369Y009841D01*
X023356Y009959D02*
X021998Y009959D01*
X020756Y009366D02*
X016356Y009366D01*
X016364Y009248D02*
X018551Y009248D01*
X018403Y009129D02*
X016373Y009129D01*
X016377Y009011D02*
X018255Y009011D01*
X018107Y008892D02*
X016377Y008892D01*
X016377Y008774D02*
X017959Y008774D01*
X017810Y008655D02*
X016383Y008655D01*
X016443Y008537D02*
X016723Y008537D01*
X016931Y008537D02*
X017662Y008537D01*
X018031Y009722D02*
X016865Y009722D01*
X020159Y009722D01*
X020159Y009603D02*
X016865Y009603D01*
X016865Y009544D02*
X016731Y009410D01*
X016542Y009410D01*
X016409Y009544D01*
X016409Y009733D01*
X016542Y009866D01*
X016731Y009866D01*
X016865Y009733D01*
X016865Y009544D01*
X016806Y009485D02*
X020258Y009485D01*
X020516Y009485D02*
X020588Y009485D01*
X020569Y008892D02*
X019826Y008892D01*
X019747Y008774D02*
X020569Y008774D01*
X018177Y010078D02*
X015820Y010078D01*
X015688Y010196D02*
X018129Y010196D01*
X017358Y010315D02*
X015556Y010315D01*
X015424Y010433D02*
X017279Y010433D01*
X016279Y010433D01*
X016288Y010315D02*
X017358Y010315D01*
X017279Y010552D02*
X017003Y010552D01*
X017055Y010670D02*
X017316Y010670D01*
X017113Y010789D02*
X017055Y010789D01*
X016973Y010907D02*
X016940Y010907D01*
X016962Y011026D02*
X014763Y011026D01*
X014895Y010907D02*
X016714Y010907D01*
X016599Y010789D02*
X015027Y010789D01*
X015159Y010670D02*
X016599Y010670D01*
X016651Y010552D02*
X015291Y010552D01*
X015177Y010068D02*
X014877Y010068D01*
X010777Y005968D01*
X007377Y005968D01*
X007177Y005768D01*
X007177Y004468D01*
X007477Y004168D01*
X011777Y004168D01*
X015226Y007617D01*
X015159Y007684D01*
X015159Y007873D01*
X015292Y008006D01*
X015391Y008006D01*
X015426Y008605D01*
X015361Y008540D01*
X015172Y008540D01*
X015039Y008674D01*
X015039Y008863D01*
X015172Y008996D01*
X015361Y008996D01*
X015444Y008913D01*
X015477Y009468D01*
X015477Y009768D01*
X015177Y010068D01*
X015286Y009959D02*
X014768Y009959D01*
X014649Y009841D02*
X015405Y009841D01*
X015477Y009722D02*
X014531Y009722D01*
X014412Y009603D02*
X015477Y009603D01*
X015477Y009485D02*
X014293Y009485D01*
X014175Y009366D02*
X015471Y009366D01*
X015464Y009248D02*
X014056Y009248D01*
X013938Y009129D02*
X015457Y009129D01*
X015450Y009011D02*
X013819Y009011D01*
X013701Y008892D02*
X015068Y008892D01*
X015039Y008774D02*
X013582Y008774D01*
X013464Y008655D02*
X015058Y008655D01*
X015422Y008537D02*
X013345Y008537D01*
X013227Y008418D02*
X015415Y008418D01*
X015408Y008299D02*
X013108Y008299D01*
X012989Y008181D02*
X015401Y008181D01*
X015394Y008062D02*
X012871Y008062D01*
X012752Y007944D02*
X015230Y007944D01*
X015159Y007825D02*
X012634Y007825D01*
X012515Y007707D02*
X013393Y007707D01*
X013349Y007663D02*
X013349Y007474D01*
X013482Y007340D01*
X013671Y007340D01*
X013805Y007474D01*
X013805Y007663D01*
X013671Y007796D01*
X013482Y007796D01*
X013349Y007663D01*
X013349Y007588D02*
X012397Y007588D01*
X012278Y007470D02*
X013353Y007470D01*
X013472Y007351D02*
X012160Y007351D01*
X012041Y007233D02*
X014841Y007233D01*
X014960Y007351D02*
X013682Y007351D01*
X013801Y007470D02*
X015078Y007470D01*
X015197Y007588D02*
X013805Y007588D01*
X013761Y007707D02*
X015159Y007707D01*
X014723Y007114D02*
X011923Y007114D01*
X011804Y006996D02*
X014604Y006996D01*
X014485Y006877D02*
X011685Y006877D01*
X011567Y006758D02*
X014367Y006758D01*
X014248Y006640D02*
X011448Y006640D01*
X011330Y006521D02*
X014130Y006521D01*
X014011Y006403D02*
X011211Y006403D01*
X011093Y006284D02*
X013893Y006284D01*
X013774Y006166D02*
X010974Y006166D01*
X010856Y006047D02*
X013656Y006047D01*
X013537Y005929D02*
X007337Y005929D01*
X007219Y005810D02*
X013419Y005810D01*
X013300Y005692D02*
X007177Y005692D01*
X007177Y005573D02*
X013181Y005573D01*
X013063Y005454D02*
X007177Y005454D01*
X007177Y005336D02*
X012944Y005336D01*
X012826Y005217D02*
X007177Y005217D01*
X007177Y005099D02*
X012707Y005099D01*
X012589Y004980D02*
X007177Y004980D01*
X007177Y004862D02*
X012470Y004862D01*
X012352Y004743D02*
X007177Y004743D01*
X007177Y004625D02*
X012233Y004625D01*
X012115Y004506D02*
X007177Y004506D01*
X007258Y004388D02*
X011996Y004388D01*
X011878Y004269D02*
X007376Y004269D01*
X014101Y011619D02*
X014854Y011619D01*
X014882Y011590D02*
X015071Y011590D01*
X015205Y011724D01*
X015205Y011913D01*
X015071Y012046D01*
X014882Y012046D01*
X014749Y011913D01*
X014749Y011724D01*
X014882Y011590D01*
X014749Y011737D02*
X013969Y011737D01*
X013837Y011856D02*
X014749Y011856D01*
X014810Y011974D02*
X013705Y011974D01*
X013573Y012093D02*
X016379Y012093D01*
X016352Y011966D02*
X016219Y011833D01*
X016219Y011644D01*
X016352Y011510D01*
X016541Y011510D01*
X016675Y011644D01*
X016675Y011833D01*
X016541Y011966D01*
X016352Y011966D01*
X016242Y011856D02*
X015647Y011856D01*
X015680Y011823D02*
X015546Y011956D01*
X015357Y011956D01*
X015224Y011823D01*
X015224Y011634D01*
X015357Y011500D01*
X015546Y011500D01*
X015680Y011634D01*
X015680Y011823D01*
X015680Y011737D02*
X016219Y011737D01*
X016244Y011619D02*
X016089Y011619D01*
X016150Y011558D02*
X016016Y011691D01*
X015827Y011691D01*
X015694Y011558D01*
X015694Y011369D01*
X015827Y011235D01*
X016016Y011235D01*
X016150Y011369D01*
X016150Y011558D01*
X016150Y011500D02*
X016729Y011500D01*
X016729Y011382D02*
X016150Y011382D01*
X016044Y011263D02*
X016825Y011263D01*
X016952Y011145D02*
X014630Y011145D01*
X014498Y011263D02*
X015800Y011263D01*
X015694Y011382D02*
X014366Y011382D01*
X014234Y011500D02*
X015694Y011500D01*
X015665Y011619D02*
X015755Y011619D01*
X015239Y011619D02*
X015100Y011619D01*
X015205Y011737D02*
X015224Y011737D01*
X015205Y011856D02*
X015257Y011856D01*
X015143Y011974D02*
X016853Y011974D01*
X016887Y011856D02*
X016652Y011856D01*
X016675Y011737D02*
X016898Y011737D01*
X016800Y011619D02*
X016650Y011619D01*
X015905Y012211D02*
X013440Y012211D01*
X013377Y012330D02*
X015674Y012330D01*
X015668Y012449D02*
X013377Y012449D01*
X013377Y012567D02*
X015661Y012567D01*
X015655Y012686D02*
X013377Y012686D01*
X013377Y012804D02*
X014299Y012804D01*
X014249Y012854D02*
X014382Y012720D01*
X014571Y012720D01*
X014705Y012854D01*
X014705Y013043D01*
X014571Y013176D01*
X014382Y013176D01*
X014249Y013043D01*
X014249Y012854D01*
X014249Y012923D02*
X013377Y012923D01*
X013377Y013041D02*
X014249Y013041D01*
X014366Y013160D02*
X013377Y013160D01*
X013377Y013278D02*
X014959Y013278D01*
X014959Y013194D02*
X014959Y013383D01*
X015092Y013516D01*
X015281Y013516D01*
X015415Y013383D01*
X015415Y013194D01*
X015281Y013060D01*
X015092Y013060D01*
X014959Y013194D01*
X014993Y013160D02*
X014588Y013160D01*
X014705Y013041D02*
X015637Y013041D01*
X015643Y012923D02*
X014705Y012923D01*
X014655Y012804D02*
X015649Y012804D01*
X015631Y013160D02*
X015381Y013160D01*
X015415Y013278D02*
X015625Y013278D01*
X015618Y013397D02*
X015401Y013397D01*
X015282Y013515D02*
X015612Y013515D01*
X015606Y013634D02*
X014815Y013634D01*
X014815Y013574D02*
X014815Y013763D01*
X014681Y013896D01*
X014492Y013896D01*
X014359Y013763D01*
X014359Y013574D01*
X014492Y013440D01*
X014681Y013440D01*
X014815Y013574D01*
X014756Y013515D02*
X015092Y013515D01*
X014973Y013397D02*
X013377Y013397D01*
X013377Y013515D02*
X014417Y013515D01*
X014359Y013634D02*
X013625Y013634D01*
X013725Y013752D02*
X014359Y013752D01*
X014467Y013871D02*
X013725Y013871D01*
X013658Y013990D02*
X015588Y013990D01*
X015582Y014108D02*
X013377Y014108D01*
X013377Y014227D02*
X013606Y014227D01*
X013662Y014170D02*
X013851Y014170D01*
X013985Y014304D01*
X013985Y014493D01*
X013851Y014626D01*
X013662Y014626D01*
X013529Y014493D01*
X013529Y014304D01*
X013662Y014170D01*
X013529Y014345D02*
X013377Y014345D01*
X013377Y014464D02*
X013529Y014464D01*
X013618Y014582D02*
X013377Y014582D01*
X013377Y014701D02*
X015551Y014701D01*
X015545Y014819D02*
X014960Y014819D01*
X015005Y014864D02*
X014871Y014730D01*
X014682Y014730D01*
X014549Y014864D01*
X014549Y015053D01*
X014682Y015186D01*
X014871Y015186D01*
X015005Y015053D01*
X015005Y014864D01*
X015005Y014938D02*
X015539Y014938D01*
X015533Y015056D02*
X015001Y015056D01*
X014883Y015175D02*
X015526Y015175D01*
X015520Y015294D02*
X013377Y015294D01*
X013377Y015412D02*
X015514Y015412D01*
X015508Y015531D02*
X013377Y015531D01*
X013377Y015649D02*
X015502Y015649D01*
X015496Y015768D02*
X013377Y015768D01*
X013377Y015886D02*
X015490Y015886D01*
X015484Y016005D02*
X013377Y016005D01*
X013377Y016123D02*
X015389Y016123D01*
X015364Y016242D02*
X013377Y016242D01*
X013377Y016360D02*
X015387Y016360D01*
X015459Y016479D02*
X013377Y016479D01*
X013377Y016598D02*
X015453Y016598D01*
X015317Y016716D02*
X013377Y016716D01*
X013377Y016835D02*
X015199Y016835D01*
X015199Y016953D02*
X013377Y016953D01*
X013393Y017072D02*
X014961Y017072D01*
X014899Y017190D02*
X013455Y017190D01*
X013455Y017309D02*
X014899Y017309D01*
X015035Y017546D02*
X015404Y017546D01*
X015308Y017664D02*
X015013Y017664D01*
X015209Y017783D02*
X013770Y017783D01*
X013770Y017901D02*
X015209Y017901D01*
X015276Y018020D02*
X014021Y018020D01*
X014085Y018139D02*
X015307Y018139D01*
X015284Y017427D02*
X015250Y017427D01*
X014605Y017427D02*
X014058Y017427D01*
X014075Y017546D02*
X014579Y017546D01*
X014601Y017664D02*
X014043Y017664D01*
X013619Y017546D02*
X013435Y017546D01*
X013423Y017664D02*
X013403Y017664D01*
X013418Y017427D02*
X013635Y017427D01*
X012866Y018257D02*
X010477Y018257D01*
X010477Y018139D02*
X012747Y018139D01*
X012629Y018020D02*
X010477Y018020D01*
X010477Y017901D02*
X012510Y017901D01*
X012391Y017783D02*
X010477Y017783D01*
X010477Y017664D02*
X012273Y017664D01*
X012154Y017546D02*
X010477Y017546D01*
X010477Y017427D02*
X012036Y017427D01*
X011917Y017309D02*
X010989Y017309D01*
X011029Y017268D02*
X010941Y017356D01*
X010752Y017356D01*
X010664Y017268D01*
X010477Y017268D01*
X010477Y019568D01*
X013477Y019568D01*
X013577Y018968D01*
X013328Y018719D01*
X013321Y018726D01*
X013145Y018726D01*
X013145Y018903D01*
X013011Y019036D01*
X012822Y019036D01*
X012689Y018903D01*
X012689Y018714D01*
X012822Y018580D01*
X012999Y018580D01*
X012999Y018404D01*
X013006Y018397D01*
X011877Y017268D01*
X011029Y017268D01*
X010705Y017309D02*
X010477Y017309D01*
X010477Y018376D02*
X012984Y018376D01*
X012999Y018494D02*
X010477Y018494D01*
X010477Y018613D02*
X012790Y018613D01*
X012689Y018731D02*
X011092Y018731D01*
X011071Y018710D02*
X011205Y018844D01*
X011205Y019033D01*
X011071Y019166D01*
X010882Y019166D01*
X010749Y019033D01*
X010749Y018844D01*
X010882Y018710D01*
X011071Y018710D01*
X011205Y018850D02*
X012689Y018850D01*
X012755Y018968D02*
X011205Y018968D01*
X011151Y019087D02*
X013557Y019087D01*
X013537Y019205D02*
X010477Y019205D01*
X010477Y019087D02*
X010803Y019087D01*
X010749Y018968D02*
X010477Y018968D01*
X010477Y018850D02*
X010749Y018850D01*
X010861Y018731D02*
X010477Y018731D01*
X010477Y019324D02*
X013518Y019324D01*
X013498Y019443D02*
X010477Y019443D01*
X010477Y019561D02*
X013478Y019561D01*
X013577Y018968D02*
X013079Y018968D01*
X013145Y018850D02*
X013458Y018850D01*
X013340Y018731D02*
X013145Y018731D01*
X013377Y015175D02*
X014671Y015175D01*
X014553Y015056D02*
X013377Y015056D01*
X013377Y014938D02*
X014549Y014938D01*
X014593Y014819D02*
X013377Y014819D01*
X013895Y014582D02*
X015557Y014582D01*
X015563Y014464D02*
X013985Y014464D01*
X013985Y014345D02*
X015569Y014345D01*
X015576Y014227D02*
X013908Y014227D01*
X014706Y013871D02*
X015594Y013871D01*
X015600Y013752D02*
X014815Y013752D01*
X016296Y010196D02*
X023331Y010196D01*
X023344Y010078D02*
X016305Y010078D01*
X016330Y009722D02*
X016409Y009722D01*
X016217Y009722D01*
X016339Y009603D02*
X016409Y009603D01*
X016468Y009485D02*
X016347Y009485D01*
X028082Y011263D02*
X033077Y011263D01*
X033077Y011145D02*
X032323Y011145D01*
X032271Y011196D02*
X032405Y011063D01*
X032405Y010874D01*
X032271Y010740D01*
X032082Y010740D01*
X031949Y010874D01*
X031949Y011063D01*
X032082Y011196D01*
X032271Y011196D01*
X032405Y011026D02*
X033077Y011026D01*
X033077Y010907D02*
X032405Y010907D01*
X032320Y010789D02*
X033077Y010789D01*
X033077Y010670D02*
X028277Y010670D01*
X028277Y010552D02*
X033077Y010552D01*
X033077Y010433D02*
X028277Y010433D01*
X028277Y010315D02*
X033077Y010315D01*
X033077Y010196D02*
X028277Y010196D01*
X028277Y010078D02*
X033077Y010078D01*
X033077Y009959D02*
X028277Y009959D01*
X028277Y009841D02*
X033077Y009841D01*
X033077Y009722D02*
X028277Y009722D01*
X028277Y009603D02*
X033077Y009603D01*
X033077Y009485D02*
X028277Y009485D01*
X028277Y009366D02*
X028953Y009366D01*
X028899Y009313D02*
X028899Y009124D01*
X029032Y008990D01*
X029221Y008990D01*
X029355Y009124D01*
X029355Y009313D01*
X029221Y009446D01*
X029032Y009446D01*
X028899Y009313D01*
X028899Y009248D02*
X028277Y009248D01*
X028277Y009129D02*
X028899Y009129D01*
X029012Y009011D02*
X028277Y009011D01*
X028277Y008892D02*
X033077Y008892D01*
X033077Y008774D02*
X028277Y008774D01*
X028277Y008655D02*
X033061Y008655D01*
X032917Y008537D02*
X028277Y008537D01*
X028277Y008418D02*
X032773Y008418D01*
X032629Y008299D02*
X028277Y008299D01*
X028277Y008181D02*
X032485Y008181D01*
X032341Y008062D02*
X028277Y008062D01*
X028277Y007944D02*
X032197Y007944D01*
X032053Y007825D02*
X028277Y007825D01*
X028277Y007707D02*
X031909Y007707D01*
X031765Y007588D02*
X028277Y007588D01*
X028277Y007470D02*
X031621Y007470D01*
X031477Y007351D02*
X028394Y007351D01*
X029242Y009011D02*
X029512Y009011D01*
X029532Y008990D02*
X029721Y008990D01*
X029855Y009124D01*
X029855Y009313D01*
X029721Y009446D01*
X029532Y009446D01*
X029399Y009313D01*
X029399Y009124D01*
X029532Y008990D01*
X029399Y009129D02*
X029355Y009129D01*
X029355Y009248D02*
X029399Y009248D01*
X029453Y009366D02*
X029301Y009366D01*
X029801Y009366D02*
X029953Y009366D01*
X029899Y009313D02*
X029899Y009124D01*
X030032Y008990D01*
X030221Y008990D01*
X030355Y009124D01*
X030355Y009313D01*
X030221Y009446D01*
X030032Y009446D01*
X029899Y009313D01*
X029899Y009248D02*
X029855Y009248D01*
X029855Y009129D02*
X029899Y009129D01*
X030012Y009011D02*
X029742Y009011D01*
X030242Y009011D02*
X030512Y009011D01*
X030532Y008990D02*
X030721Y008990D01*
X030855Y009124D01*
X030855Y009313D01*
X030721Y009446D01*
X030532Y009446D01*
X030399Y009313D01*
X030399Y009124D01*
X030532Y008990D01*
X030399Y009129D02*
X030355Y009129D01*
X030355Y009248D02*
X030399Y009248D01*
X030453Y009366D02*
X030301Y009366D01*
X030801Y009366D02*
X030953Y009366D01*
X030899Y009313D02*
X030899Y009124D01*
X031032Y008990D01*
X031221Y008990D01*
X031355Y009124D01*
X031355Y009313D01*
X031221Y009446D01*
X031032Y009446D01*
X030899Y009313D01*
X030899Y009248D02*
X030855Y009248D01*
X030855Y009129D02*
X030899Y009129D01*
X031012Y009011D02*
X030742Y009011D01*
X031242Y009011D02*
X031512Y009011D01*
X031532Y008990D02*
X031721Y008990D01*
X031855Y009124D01*
X031855Y009313D01*
X031721Y009446D01*
X031532Y009446D01*
X031399Y009313D01*
X031399Y009124D01*
X031532Y008990D01*
X031399Y009129D02*
X031355Y009129D01*
X031355Y009248D02*
X031399Y009248D01*
X031453Y009366D02*
X031301Y009366D01*
X031801Y009366D02*
X032003Y009366D01*
X031949Y009313D02*
X031949Y009124D01*
X032082Y008990D01*
X032271Y008990D01*
X032405Y009124D01*
X032405Y009313D01*
X032271Y009446D01*
X032082Y009446D01*
X031949Y009313D01*
X031949Y009248D02*
X031855Y009248D01*
X031855Y009129D02*
X031949Y009129D01*
X032062Y009011D02*
X031742Y009011D01*
X032292Y009011D02*
X033077Y009011D01*
X033077Y009129D02*
X032405Y009129D01*
X032405Y009248D02*
X033077Y009248D01*
X033077Y009366D02*
X032351Y009366D01*
X032034Y010789D02*
X031770Y010789D01*
X031721Y010740D02*
X031855Y010874D01*
X031855Y011063D01*
X031721Y011196D01*
X031532Y011196D01*
X031399Y011063D01*
X031399Y010874D01*
X031532Y010740D01*
X031721Y010740D01*
X031855Y010907D02*
X031949Y010907D01*
X031949Y011026D02*
X031855Y011026D01*
X031773Y011145D02*
X032031Y011145D01*
X031481Y011145D02*
X031273Y011145D01*
X031221Y011196D02*
X031032Y011196D01*
X030902Y011066D01*
X030771Y011196D01*
X030582Y011196D01*
X030449Y011063D01*
X030449Y010874D01*
X030582Y010740D01*
X030771Y010740D01*
X030902Y010871D01*
X031032Y010740D01*
X031221Y010740D01*
X031355Y010874D01*
X031355Y011063D01*
X031221Y011196D01*
X031355Y011026D02*
X031399Y011026D01*
X031399Y010907D02*
X031355Y010907D01*
X031270Y010789D02*
X031484Y010789D01*
X030984Y010789D02*
X030820Y010789D01*
X030534Y010789D02*
X030270Y010789D01*
X030221Y010740D02*
X030355Y010874D01*
X030355Y011063D01*
X030221Y011196D01*
X030032Y011196D01*
X029899Y011063D01*
X029899Y010874D01*
X030032Y010740D01*
X030221Y010740D01*
X030355Y010907D02*
X030449Y010907D01*
X030449Y011026D02*
X030355Y011026D01*
X030273Y011145D02*
X030531Y011145D01*
X030823Y011145D02*
X030981Y011145D01*
X029981Y011145D02*
X029773Y011145D01*
X029721Y011196D02*
X029855Y011063D01*
X029855Y010874D01*
X029721Y010740D01*
X029532Y010740D01*
X029399Y010874D01*
X029399Y011063D01*
X029532Y011196D01*
X029721Y011196D01*
X029855Y011026D02*
X029899Y011026D01*
X029899Y010907D02*
X029855Y010907D01*
X029770Y010789D02*
X029984Y010789D01*
X029484Y010789D02*
X029270Y010789D01*
X029221Y010740D02*
X029355Y010874D01*
X029355Y011063D01*
X029221Y011196D01*
X029032Y011196D01*
X028899Y011063D01*
X028899Y010874D01*
X029032Y010740D01*
X029221Y010740D01*
X029355Y010907D02*
X029399Y010907D01*
X029399Y011026D02*
X029355Y011026D01*
X029273Y011145D02*
X029481Y011145D01*
X028981Y011145D02*
X028201Y011145D01*
X028277Y011026D02*
X028899Y011026D01*
X028899Y010907D02*
X028277Y010907D01*
X028277Y010789D02*
X028984Y010789D01*
D18*
X028969Y012968D02*
X028885Y012968D01*
X028885Y013104D01*
X028763Y013226D01*
X028591Y013226D01*
X028469Y013104D01*
X028469Y012968D01*
X028385Y012968D01*
X028385Y013104D01*
X028263Y013226D01*
X028091Y013226D01*
X027969Y013104D01*
X027969Y012968D01*
X027885Y012968D01*
X027885Y013104D01*
X027763Y013226D01*
X027591Y013226D01*
X027469Y013104D01*
X027469Y012968D01*
X025777Y012968D01*
X024177Y011268D01*
X024177Y007668D01*
X023271Y007668D01*
X023188Y007751D01*
X023077Y007751D01*
X023077Y012568D01*
X026277Y015668D01*
X033877Y015668D01*
X034177Y015168D01*
X034177Y014368D01*
X032777Y012968D01*
X032385Y012968D01*
X032385Y013104D01*
X032263Y013226D01*
X032091Y013226D01*
X031969Y013104D01*
X031969Y012968D01*
X031885Y012968D01*
X031885Y013104D01*
X031763Y013226D01*
X031591Y013226D01*
X031469Y013104D01*
X031469Y012968D01*
X031385Y012968D01*
X031385Y013104D01*
X031263Y013226D01*
X031091Y013226D01*
X030969Y013104D01*
X030969Y012968D01*
X030885Y012968D01*
X030885Y013104D01*
X030763Y013226D01*
X030591Y013226D01*
X030469Y013104D01*
X030469Y012968D01*
X030385Y012968D01*
X030385Y013104D01*
X030263Y013226D01*
X030091Y013226D01*
X029969Y013104D01*
X029969Y012968D01*
X029885Y012968D01*
X029885Y013104D01*
X029763Y013226D01*
X029591Y013226D01*
X029469Y013104D01*
X029469Y012968D01*
X029385Y012968D01*
X029385Y013104D01*
X029263Y013226D01*
X029091Y013226D01*
X028969Y013104D01*
X028969Y012968D01*
X028969Y013007D02*
X028885Y013007D01*
X028885Y013085D02*
X028969Y013085D01*
X029028Y013164D02*
X028825Y013164D01*
X028528Y013164D02*
X028325Y013164D01*
X028385Y013085D02*
X028469Y013085D01*
X028469Y013007D02*
X028385Y013007D01*
X028028Y013164D02*
X027825Y013164D01*
X027885Y013085D02*
X027969Y013085D01*
X027969Y013007D02*
X027885Y013007D01*
X027528Y013164D02*
X023692Y013164D01*
X023773Y013243D02*
X033051Y013243D01*
X033130Y013321D02*
X023854Y013321D01*
X023935Y013400D02*
X033208Y013400D01*
X033287Y013478D02*
X024016Y013478D01*
X024097Y013557D02*
X033365Y013557D01*
X033444Y013635D02*
X024178Y013635D01*
X024259Y013714D02*
X033522Y013714D01*
X033601Y013792D02*
X024340Y013792D01*
X024421Y013871D02*
X033679Y013871D01*
X033758Y013949D02*
X024502Y013949D01*
X024584Y014028D02*
X033836Y014028D01*
X033915Y014107D02*
X024665Y014107D01*
X024746Y014185D02*
X033994Y014185D01*
X034072Y014264D02*
X024827Y014264D01*
X024908Y014342D02*
X034151Y014342D01*
X034177Y014421D02*
X024989Y014421D01*
X025070Y014499D02*
X034177Y014499D01*
X034177Y014578D02*
X025151Y014578D01*
X025232Y014656D02*
X034177Y014656D01*
X034177Y014735D02*
X025313Y014735D01*
X025394Y014813D02*
X034177Y014813D01*
X034177Y014892D02*
X025475Y014892D01*
X025556Y014971D02*
X034177Y014971D01*
X034177Y015049D02*
X025638Y015049D01*
X025719Y015128D02*
X034177Y015128D01*
X034154Y015206D02*
X025800Y015206D01*
X025881Y015285D02*
X034107Y015285D01*
X034060Y015363D02*
X025962Y015363D01*
X026043Y015442D02*
X034013Y015442D01*
X033966Y015520D02*
X026124Y015520D01*
X026205Y015599D02*
X033919Y015599D01*
X032973Y013164D02*
X032325Y013164D01*
X032385Y013085D02*
X032894Y013085D01*
X032815Y013007D02*
X032385Y013007D01*
X032028Y013164D02*
X031825Y013164D01*
X031885Y013085D02*
X031969Y013085D01*
X031969Y013007D02*
X031885Y013007D01*
X031528Y013164D02*
X031325Y013164D01*
X031385Y013085D02*
X031469Y013085D01*
X031469Y013007D02*
X031385Y013007D01*
X031028Y013164D02*
X030825Y013164D01*
X030885Y013085D02*
X030969Y013085D01*
X030969Y013007D02*
X030885Y013007D01*
X030528Y013164D02*
X030325Y013164D01*
X030385Y013085D02*
X030469Y013085D01*
X030469Y013007D02*
X030385Y013007D01*
X030028Y013164D02*
X029825Y013164D01*
X029885Y013085D02*
X029969Y013085D01*
X029969Y013007D02*
X029885Y013007D01*
X029528Y013164D02*
X029325Y013164D01*
X029385Y013085D02*
X029469Y013085D01*
X029469Y013007D02*
X029385Y013007D01*
X027469Y013007D02*
X023530Y013007D01*
X023611Y013085D02*
X027469Y013085D01*
X025739Y012928D02*
X023449Y012928D01*
X023367Y012850D02*
X025665Y012850D01*
X025591Y012771D02*
X023286Y012771D01*
X023205Y012693D02*
X025517Y012693D01*
X025444Y012614D02*
X023124Y012614D01*
X023077Y012536D02*
X025370Y012536D01*
X025296Y012457D02*
X023077Y012457D01*
X023077Y012379D02*
X025222Y012379D01*
X025148Y012300D02*
X023077Y012300D01*
X023077Y012221D02*
X025074Y012221D01*
X025000Y012143D02*
X023077Y012143D01*
X023077Y012064D02*
X024926Y012064D01*
X024852Y011986D02*
X023077Y011986D01*
X023077Y011907D02*
X024778Y011907D01*
X024704Y011829D02*
X023077Y011829D01*
X023077Y011750D02*
X024630Y011750D01*
X024556Y011672D02*
X023077Y011672D01*
X023077Y011593D02*
X024483Y011593D01*
X024409Y011515D02*
X023077Y011515D01*
X023077Y011436D02*
X024335Y011436D01*
X024261Y011358D02*
X023077Y011358D01*
X023077Y011279D02*
X024187Y011279D01*
X024177Y011200D02*
X023077Y011200D01*
X023077Y011122D02*
X024177Y011122D01*
X024177Y011043D02*
X023077Y011043D01*
X023077Y010965D02*
X024177Y010965D01*
X024177Y010886D02*
X023077Y010886D01*
X023077Y010808D02*
X024177Y010808D01*
X024177Y010729D02*
X023077Y010729D01*
X023077Y010651D02*
X024177Y010651D01*
X024177Y010572D02*
X023077Y010572D01*
X023077Y010494D02*
X024177Y010494D01*
X024177Y010415D02*
X023077Y010415D01*
X023077Y010336D02*
X024177Y010336D01*
X024177Y010258D02*
X023077Y010258D01*
X023077Y010179D02*
X024177Y010179D01*
X024177Y010101D02*
X023077Y010101D01*
X023077Y010022D02*
X024177Y010022D01*
X024177Y009944D02*
X023077Y009944D01*
X023077Y009865D02*
X024177Y009865D01*
X024177Y009787D02*
X023077Y009787D01*
X023077Y009708D02*
X024177Y009708D01*
X024177Y009630D02*
X023077Y009630D01*
X023077Y009551D02*
X024177Y009551D01*
X024177Y009472D02*
X023077Y009472D01*
X023077Y009394D02*
X024177Y009394D01*
X024177Y009315D02*
X023077Y009315D01*
X023077Y009237D02*
X024177Y009237D01*
X024177Y009158D02*
X023077Y009158D01*
X023077Y009080D02*
X024177Y009080D01*
X024177Y009001D02*
X023077Y009001D01*
X023077Y008923D02*
X024177Y008923D01*
X024177Y008844D02*
X023077Y008844D01*
X023077Y008766D02*
X024177Y008766D01*
X024177Y008687D02*
X023077Y008687D01*
X023077Y008609D02*
X024177Y008609D01*
X024177Y008530D02*
X023077Y008530D01*
X023077Y008451D02*
X024177Y008451D01*
X024177Y008373D02*
X023077Y008373D01*
X023077Y008294D02*
X024177Y008294D01*
X024177Y008216D02*
X023077Y008216D01*
X023077Y008137D02*
X024177Y008137D01*
X024177Y008059D02*
X023077Y008059D01*
X023077Y007980D02*
X024177Y007980D01*
X024177Y007902D02*
X023077Y007902D01*
X023077Y007823D02*
X024177Y007823D01*
X024177Y007745D02*
X023195Y007745D01*
X014275Y018396D02*
X014036Y018294D01*
X013991Y018338D01*
X014065Y018412D01*
X014065Y018584D01*
X013943Y018706D01*
X013921Y018706D01*
X013927Y018718D01*
X013927Y018818D01*
X013827Y019218D01*
X013837Y019408D01*
X013667Y019898D01*
X012977Y020448D01*
X012977Y021598D01*
X013029Y021589D01*
X013029Y021552D01*
X013093Y021488D01*
X013019Y021414D01*
X013019Y021242D01*
X013141Y021120D01*
X013313Y021120D01*
X013435Y021242D01*
X013435Y021414D01*
X013371Y021478D01*
X013415Y021523D01*
X013617Y021488D01*
X013987Y021488D01*
X014387Y021088D01*
X016907Y021088D01*
X017017Y020978D01*
X017017Y020848D01*
X016987Y020818D01*
X016607Y020428D01*
X016585Y020424D01*
X016585Y020464D01*
X016516Y020533D01*
X016585Y020602D01*
X016585Y020774D01*
X016463Y020896D01*
X016291Y020896D01*
X016169Y020774D01*
X016169Y020602D01*
X016238Y020533D01*
X016169Y020464D01*
X016169Y020334D01*
X015949Y020286D01*
X015955Y020292D01*
X015955Y020464D01*
X015833Y020586D01*
X015661Y020586D01*
X015539Y020464D01*
X015539Y020292D01*
X015603Y020228D01*
X015529Y020154D01*
X015325Y020154D01*
X015325Y020164D02*
X015256Y020233D01*
X015598Y020233D01*
X015539Y020311D02*
X015325Y020311D01*
X015325Y020302D02*
X015325Y020474D01*
X015203Y020596D01*
X015031Y020596D01*
X014909Y020474D01*
X014909Y020302D01*
X014978Y020233D01*
X014909Y020164D01*
X014909Y019992D01*
X014993Y019908D01*
X014919Y019834D01*
X014919Y019662D01*
X014988Y019593D01*
X014909Y019514D01*
X014909Y019342D01*
X014983Y019268D01*
X014919Y019204D01*
X014919Y019032D01*
X015041Y018910D01*
X015213Y018910D01*
X015335Y019032D01*
X015335Y019204D01*
X015261Y019278D01*
X015325Y019342D01*
X015325Y019514D01*
X015256Y019583D01*
X015335Y019662D01*
X015335Y019834D01*
X015251Y019918D01*
X015325Y019992D01*
X015325Y020164D01*
X015325Y020076D02*
X015529Y020076D01*
X015529Y020025D02*
X015529Y020154D01*
X015529Y020025D02*
X015477Y019968D01*
X015477Y019568D01*
X015529Y019165D01*
X015529Y019022D01*
X015550Y019001D01*
X015557Y018948D01*
X014985Y018702D01*
X014995Y018712D01*
X014995Y018884D01*
X014873Y019006D01*
X014701Y019006D01*
X014632Y018937D01*
X014563Y019006D01*
X014391Y019006D01*
X014269Y018884D01*
X014269Y018712D01*
X014338Y018643D01*
X014269Y018574D01*
X014269Y018402D01*
X014275Y018396D01*
X014269Y018426D02*
X014065Y018426D01*
X014065Y018505D02*
X014269Y018505D01*
X014278Y018584D02*
X014065Y018584D01*
X013987Y018662D02*
X014319Y018662D01*
X014269Y018741D02*
X013927Y018741D01*
X013927Y018819D02*
X014269Y018819D01*
X014282Y018898D02*
X013907Y018898D01*
X013887Y018976D02*
X014361Y018976D01*
X014593Y018976D02*
X014671Y018976D01*
X014903Y018976D02*
X014975Y018976D01*
X014982Y018898D02*
X015439Y018898D01*
X015553Y018976D02*
X015279Y018976D01*
X015335Y019055D02*
X015529Y019055D01*
X015529Y019133D02*
X015335Y019133D01*
X015327Y019212D02*
X015523Y019212D01*
X015513Y019290D02*
X015273Y019290D01*
X015325Y019369D02*
X015503Y019369D01*
X015492Y019447D02*
X015325Y019447D01*
X015313Y019526D02*
X015482Y019526D01*
X015477Y019605D02*
X015277Y019605D01*
X015335Y019683D02*
X015477Y019683D01*
X015477Y019762D02*
X015335Y019762D01*
X015329Y019840D02*
X015477Y019840D01*
X015477Y019919D02*
X015251Y019919D01*
X015325Y019997D02*
X015504Y019997D01*
X015256Y020233D02*
X015325Y020302D01*
X015325Y020390D02*
X015539Y020390D01*
X015543Y020469D02*
X015325Y020469D01*
X015341Y020490D02*
X015513Y020490D01*
X015635Y020612D01*
X015635Y020784D01*
X015513Y020906D01*
X015341Y020906D01*
X015219Y020784D01*
X015219Y020612D01*
X015341Y020490D01*
X015284Y020547D02*
X015252Y020547D01*
X015219Y020626D02*
X013435Y020626D01*
X013435Y020612D02*
X013313Y020490D01*
X013141Y020490D01*
X013019Y020612D01*
X013019Y020784D01*
X013141Y020906D01*
X013313Y020906D01*
X013435Y020784D01*
X013435Y020612D01*
X013461Y020586D02*
X013339Y020464D01*
X013339Y020292D01*
X013461Y020170D01*
X013633Y020170D01*
X013697Y020234D01*
X013761Y020170D01*
X013933Y020170D01*
X014055Y020292D01*
X014055Y020464D01*
X013933Y020586D01*
X013761Y020586D01*
X013697Y020522D01*
X013633Y020586D01*
X013461Y020586D01*
X013422Y020547D02*
X013370Y020547D01*
X013343Y020469D02*
X012977Y020469D01*
X012977Y020547D02*
X013084Y020547D01*
X013019Y020626D02*
X012977Y020626D01*
X012977Y020704D02*
X013019Y020704D01*
X013019Y020783D02*
X012977Y020783D01*
X012977Y020861D02*
X013096Y020861D01*
X012977Y020940D02*
X013339Y020940D01*
X013339Y020912D02*
X013461Y020790D01*
X013633Y020790D01*
X013702Y020859D01*
X013771Y020790D01*
X013943Y020790D01*
X014065Y020912D01*
X014065Y021084D01*
X013943Y021206D01*
X013771Y021206D01*
X013702Y021137D01*
X013633Y021206D01*
X013461Y021206D01*
X013339Y021084D01*
X013339Y020912D01*
X013358Y020861D02*
X013390Y020861D01*
X013435Y020783D02*
X015219Y020783D01*
X015219Y020704D02*
X013435Y020704D01*
X013672Y020547D02*
X013722Y020547D01*
X013972Y020547D02*
X014352Y020547D01*
X014391Y020586D02*
X014269Y020464D01*
X014269Y020292D01*
X014353Y020208D01*
X014279Y020134D01*
X014279Y019962D01*
X014401Y019840D01*
X014573Y019840D01*
X014695Y019962D01*
X014695Y020134D01*
X014611Y020218D01*
X014685Y020292D01*
X014685Y020464D01*
X014563Y020586D01*
X014391Y020586D01*
X014273Y020469D02*
X014051Y020469D01*
X014055Y020390D02*
X014269Y020390D01*
X014269Y020311D02*
X014055Y020311D01*
X013995Y020233D02*
X014328Y020233D01*
X014299Y020154D02*
X013346Y020154D01*
X013398Y020233D02*
X013247Y020233D01*
X013339Y020311D02*
X013149Y020311D01*
X013050Y020390D02*
X013339Y020390D01*
X013444Y020076D02*
X014279Y020076D01*
X014279Y019997D02*
X013543Y019997D01*
X013641Y019919D02*
X014043Y019919D01*
X014091Y019966D02*
X013969Y019844D01*
X013969Y019672D01*
X014091Y019550D01*
X014263Y019550D01*
X014385Y019672D01*
X014385Y019844D01*
X014263Y019966D01*
X014091Y019966D01*
X013969Y019840D02*
X013687Y019840D01*
X013714Y019762D02*
X013969Y019762D01*
X013969Y019683D02*
X013742Y019683D01*
X013769Y019605D02*
X014037Y019605D01*
X013796Y019526D02*
X014280Y019526D01*
X014279Y019524D02*
X014279Y019352D01*
X014401Y019230D01*
X014573Y019230D01*
X014695Y019352D01*
X014695Y019524D01*
X014573Y019646D01*
X014401Y019646D01*
X014279Y019524D01*
X014279Y019447D02*
X013823Y019447D01*
X013835Y019369D02*
X014279Y019369D01*
X014341Y019290D02*
X013831Y019290D01*
X013829Y019212D02*
X014926Y019212D01*
X014919Y019133D02*
X013848Y019133D01*
X013868Y019055D02*
X014919Y019055D01*
X014961Y019290D02*
X014633Y019290D01*
X014695Y019369D02*
X014909Y019369D01*
X014909Y019447D02*
X014695Y019447D01*
X014693Y019526D02*
X014920Y019526D01*
X014977Y019605D02*
X014615Y019605D01*
X014385Y019683D02*
X014919Y019683D01*
X014919Y019762D02*
X014385Y019762D01*
X014385Y019840D02*
X014925Y019840D01*
X014982Y019919D02*
X014651Y019919D01*
X014695Y019997D02*
X014909Y019997D01*
X014909Y020076D02*
X014695Y020076D01*
X014675Y020154D02*
X014909Y020154D01*
X014977Y020233D02*
X014625Y020233D01*
X014685Y020311D02*
X014909Y020311D01*
X014909Y020390D02*
X014685Y020390D01*
X014681Y020469D02*
X014909Y020469D01*
X014982Y020547D02*
X014602Y020547D01*
X014378Y021097D02*
X014052Y021097D01*
X014065Y021018D02*
X016977Y021018D01*
X017017Y020940D02*
X014065Y020940D01*
X014014Y020861D02*
X015296Y020861D01*
X015558Y020861D02*
X016256Y020861D01*
X016177Y020783D02*
X015635Y020783D01*
X015635Y020704D02*
X016169Y020704D01*
X016169Y020626D02*
X015635Y020626D01*
X015622Y020547D02*
X015570Y020547D01*
X015872Y020547D02*
X016224Y020547D01*
X016173Y020469D02*
X015951Y020469D01*
X015955Y020390D02*
X016169Y020390D01*
X016066Y020311D02*
X015955Y020311D01*
X016530Y020547D02*
X016723Y020547D01*
X016799Y020626D02*
X016585Y020626D01*
X016585Y020704D02*
X016876Y020704D01*
X016952Y020783D02*
X016576Y020783D01*
X016498Y020861D02*
X017017Y020861D01*
X016646Y020469D02*
X016581Y020469D01*
X015257Y018819D02*
X014995Y018819D01*
X014995Y018741D02*
X015074Y018741D01*
X014359Y019605D02*
X014317Y019605D01*
X014310Y019919D02*
X014322Y019919D01*
X013698Y020233D02*
X013695Y020233D01*
X013339Y021018D02*
X012977Y021018D01*
X012977Y021097D02*
X013351Y021097D01*
X013368Y021175D02*
X013430Y021175D01*
X013435Y021254D02*
X014221Y021254D01*
X014143Y021333D02*
X013435Y021333D01*
X013435Y021411D02*
X014064Y021411D01*
X013974Y021175D02*
X014300Y021175D01*
X013740Y021175D02*
X013664Y021175D01*
X013609Y021490D02*
X013382Y021490D01*
X013091Y021490D02*
X012977Y021490D01*
X012977Y021568D02*
X013029Y021568D01*
X013019Y021411D02*
X012977Y021411D01*
X012977Y021333D02*
X013019Y021333D01*
X013019Y021254D02*
X012977Y021254D01*
X012977Y021175D02*
X013086Y021175D01*
X014000Y018348D02*
X014162Y018348D01*
X009452Y015988D02*
X009339Y015874D01*
X009339Y015702D01*
X009357Y015684D01*
X005877Y012768D01*
X001877Y012768D01*
X001477Y013168D01*
X001477Y017968D01*
X001677Y018168D01*
X004373Y018168D01*
X004359Y018154D01*
X004359Y017982D01*
X004481Y017860D01*
X004653Y017860D01*
X004775Y017982D01*
X004775Y018154D01*
X004761Y018168D01*
X007177Y018168D01*
X009452Y015988D01*
X009448Y015992D02*
X001477Y015992D01*
X001477Y016070D02*
X009366Y016070D01*
X009284Y016149D02*
X001477Y016149D01*
X001477Y016227D02*
X009202Y016227D01*
X009120Y016306D02*
X001477Y016306D01*
X001477Y016384D02*
X009038Y016384D01*
X008956Y016463D02*
X001477Y016463D01*
X001477Y016541D02*
X003870Y016541D01*
X003901Y016510D02*
X004073Y016510D01*
X004195Y016632D01*
X004195Y016804D01*
X004073Y016926D01*
X003901Y016926D01*
X003779Y016804D01*
X003779Y016632D01*
X003901Y016510D01*
X003791Y016620D02*
X001477Y016620D01*
X001477Y016698D02*
X003779Y016698D01*
X003779Y016777D02*
X001477Y016777D01*
X001477Y016856D02*
X003830Y016856D01*
X004144Y016856D02*
X008547Y016856D01*
X008465Y016934D02*
X001477Y016934D01*
X001477Y017013D02*
X008383Y017013D01*
X008301Y017091D02*
X001477Y017091D01*
X001477Y017170D02*
X008219Y017170D01*
X008137Y017248D02*
X001477Y017248D01*
X001477Y017327D02*
X008055Y017327D01*
X007973Y017405D02*
X001477Y017405D01*
X001477Y017484D02*
X007891Y017484D01*
X007809Y017562D02*
X001477Y017562D01*
X001477Y017641D02*
X007727Y017641D01*
X007645Y017720D02*
X001477Y017720D01*
X001477Y017798D02*
X007563Y017798D01*
X007481Y017877D02*
X004669Y017877D01*
X004748Y017955D02*
X007399Y017955D01*
X007317Y018034D02*
X004775Y018034D01*
X004775Y018112D02*
X007235Y018112D01*
X008629Y016777D02*
X004195Y016777D01*
X004195Y016698D02*
X008711Y016698D01*
X008793Y016620D02*
X004182Y016620D01*
X004104Y016541D02*
X008874Y016541D01*
X009377Y015913D02*
X001477Y015913D01*
X001477Y015834D02*
X009339Y015834D01*
X009339Y015756D02*
X001477Y015756D01*
X001477Y015677D02*
X009349Y015677D01*
X009255Y015599D02*
X001477Y015599D01*
X001477Y015520D02*
X009161Y015520D01*
X009068Y015442D02*
X001477Y015442D01*
X001477Y015363D02*
X003878Y015363D01*
X003891Y015376D02*
X003769Y015254D01*
X003769Y015082D01*
X003891Y014960D01*
X004063Y014960D01*
X004185Y015082D01*
X004185Y015254D01*
X004063Y015376D01*
X003891Y015376D01*
X003799Y015285D02*
X001477Y015285D01*
X001477Y015206D02*
X003769Y015206D01*
X003769Y015128D02*
X001477Y015128D01*
X001477Y015049D02*
X002324Y015049D01*
X002269Y014994D02*
X002269Y014822D01*
X002391Y014700D01*
X002563Y014700D01*
X002685Y014822D01*
X002685Y014994D01*
X002563Y015116D01*
X002391Y015116D01*
X002269Y014994D01*
X002269Y014971D02*
X001477Y014971D01*
X001477Y014892D02*
X002269Y014892D01*
X002278Y014813D02*
X001477Y014813D01*
X001477Y014735D02*
X002356Y014735D01*
X002597Y014735D02*
X002826Y014735D01*
X002769Y014792D02*
X002891Y014670D01*
X003063Y014670D01*
X003185Y014792D01*
X003185Y014964D01*
X003063Y015086D01*
X002891Y015086D01*
X002769Y014964D01*
X002769Y014792D01*
X002769Y014813D02*
X002676Y014813D01*
X002685Y014892D02*
X002769Y014892D01*
X002775Y014971D02*
X002685Y014971D01*
X002630Y015049D02*
X002854Y015049D01*
X003100Y015049D02*
X003364Y015049D01*
X003391Y015076D02*
X003269Y014954D01*
X003269Y014782D01*
X003391Y014660D01*
X003563Y014660D01*
X003685Y014782D01*
X003685Y014954D01*
X003563Y015076D01*
X003391Y015076D01*
X003285Y014971D02*
X003179Y014971D01*
X003185Y014892D02*
X003269Y014892D01*
X003269Y014813D02*
X003185Y014813D01*
X003127Y014735D02*
X003316Y014735D01*
X003271Y014456D02*
X003443Y014456D01*
X003565Y014334D01*
X003565Y014162D01*
X003443Y014040D01*
X003271Y014040D01*
X003149Y014162D01*
X003149Y014334D01*
X003271Y014456D01*
X003235Y014421D02*
X001477Y014421D01*
X001477Y014499D02*
X007943Y014499D01*
X008037Y014578D02*
X001477Y014578D01*
X001477Y014656D02*
X008130Y014656D01*
X008224Y014735D02*
X003637Y014735D01*
X003685Y014813D02*
X008318Y014813D01*
X008412Y014892D02*
X004685Y014892D01*
X004653Y014860D02*
X004775Y014982D01*
X004775Y015154D01*
X004653Y015276D01*
X004481Y015276D01*
X004359Y015154D01*
X004359Y014982D01*
X004481Y014860D01*
X004653Y014860D01*
X004763Y014971D02*
X007151Y014971D01*
X007161Y014960D02*
X007333Y014960D01*
X007455Y015082D01*
X007455Y015254D01*
X007333Y015376D01*
X007161Y015376D01*
X007039Y015254D01*
X007039Y015082D01*
X007161Y014960D01*
X007072Y015049D02*
X004775Y015049D01*
X004775Y015128D02*
X007039Y015128D01*
X007039Y015206D02*
X004723Y015206D01*
X004411Y015206D02*
X004185Y015206D01*
X004185Y015128D02*
X004359Y015128D01*
X004359Y015049D02*
X004152Y015049D01*
X004073Y014971D02*
X004371Y014971D01*
X004449Y014892D02*
X003685Y014892D01*
X003669Y014971D02*
X003881Y014971D01*
X003802Y015049D02*
X003590Y015049D01*
X003479Y014421D02*
X007849Y014421D01*
X007755Y014342D02*
X003557Y014342D01*
X003565Y014264D02*
X007662Y014264D01*
X007568Y014185D02*
X003565Y014185D01*
X003509Y014107D02*
X007474Y014107D01*
X007380Y014028D02*
X001477Y014028D01*
X001477Y014107D02*
X003205Y014107D01*
X003149Y014185D02*
X001477Y014185D01*
X001477Y014264D02*
X003149Y014264D01*
X003157Y014342D02*
X001477Y014342D01*
X001477Y013949D02*
X007287Y013949D01*
X007193Y013871D02*
X001477Y013871D01*
X001477Y013792D02*
X007099Y013792D01*
X007005Y013714D02*
X001477Y013714D01*
X001477Y013635D02*
X006912Y013635D01*
X006818Y013557D02*
X001477Y013557D01*
X001477Y013478D02*
X006724Y013478D01*
X006630Y013400D02*
X001477Y013400D01*
X001477Y013321D02*
X006537Y013321D01*
X006443Y013243D02*
X001477Y013243D01*
X001481Y013164D02*
X006349Y013164D01*
X006255Y013085D02*
X001560Y013085D01*
X001638Y013007D02*
X006162Y013007D01*
X006068Y012928D02*
X001717Y012928D01*
X001795Y012850D02*
X005974Y012850D01*
X005880Y012771D02*
X001874Y012771D01*
X004155Y015285D02*
X007069Y015285D01*
X007148Y015363D02*
X004076Y015363D01*
X004464Y017877D02*
X001477Y017877D01*
X001477Y017955D02*
X004386Y017955D01*
X004359Y018034D02*
X001542Y018034D01*
X001621Y018112D02*
X004359Y018112D01*
X007343Y014971D02*
X008505Y014971D01*
X008599Y015049D02*
X007422Y015049D01*
X007455Y015128D02*
X008693Y015128D01*
X008787Y015206D02*
X007455Y015206D01*
X007425Y015285D02*
X008880Y015285D01*
X008974Y015363D02*
X007346Y015363D01*
D19*
X006677Y014668D02*
X007877Y013108D01*
X006687Y011878D01*
X006777Y004768D01*
X006907Y004218D01*
X006987Y003838D01*
X006927Y003598D01*
X006657Y003598D01*
X004777Y004068D01*
X003987Y012118D01*
X002307Y013358D01*
X005077Y013368D01*
X005377Y013668D01*
X006677Y014668D01*
X006772Y014545D02*
X006516Y014545D01*
X006310Y014386D02*
X006894Y014386D01*
X007016Y014227D02*
X006104Y014227D01*
X005898Y014069D02*
X007138Y014069D01*
X007260Y013910D02*
X005691Y013910D01*
X005485Y013752D02*
X007382Y013752D01*
X007504Y013593D02*
X005302Y013593D01*
X005143Y013435D02*
X007626Y013435D01*
X007748Y013276D02*
X002418Y013276D01*
X002633Y013118D02*
X007870Y013118D01*
X007732Y012959D02*
X002848Y012959D01*
X003063Y012801D02*
X007579Y012801D01*
X007426Y012642D02*
X003277Y012642D01*
X003492Y012483D02*
X007272Y012483D01*
X007119Y012325D02*
X003707Y012325D01*
X003922Y012166D02*
X006966Y012166D01*
X006812Y012008D02*
X003998Y012008D01*
X004013Y011849D02*
X006687Y011849D01*
X006689Y011691D02*
X004029Y011691D01*
X004044Y011532D02*
X006691Y011532D01*
X006693Y011374D02*
X004060Y011374D01*
X004076Y011215D02*
X006125Y011215D01*
X006127Y011216D02*
X006036Y011179D01*
X005967Y011109D01*
X005929Y011018D01*
X005929Y010919D01*
X005967Y010828D01*
X006036Y010758D01*
X006127Y010720D01*
X006226Y010720D01*
X006317Y010758D01*
X006387Y010828D01*
X006425Y010919D01*
X006425Y011018D01*
X006387Y011109D01*
X006317Y011179D01*
X006226Y011216D01*
X006127Y011216D01*
X006229Y011215D02*
X006695Y011215D01*
X006697Y011057D02*
X006409Y011057D01*
X006416Y010898D02*
X006699Y010898D01*
X006701Y010739D02*
X006272Y010739D01*
X006081Y010739D02*
X004122Y010739D01*
X004138Y010581D02*
X006703Y010581D01*
X006705Y010422D02*
X005469Y010422D01*
X005462Y010439D02*
X005392Y010509D01*
X005301Y010546D01*
X005202Y010546D01*
X005111Y010509D01*
X005042Y010439D01*
X005004Y010348D01*
X005004Y010249D01*
X005042Y010158D01*
X005111Y010088D01*
X005202Y010050D01*
X005301Y010050D01*
X005392Y010088D01*
X005462Y010158D01*
X005500Y010249D01*
X005500Y010348D01*
X005462Y010439D01*
X005500Y010264D02*
X006707Y010264D01*
X006709Y010105D02*
X005409Y010105D01*
X005094Y010105D02*
X004184Y010105D01*
X004200Y009947D02*
X006711Y009947D01*
X006713Y009788D02*
X004216Y009788D01*
X004231Y009630D02*
X006715Y009630D01*
X006717Y009471D02*
X004247Y009471D01*
X004262Y009313D02*
X006719Y009313D01*
X006721Y009154D02*
X005518Y009154D01*
X005535Y009113D02*
X005497Y009204D01*
X005427Y009274D01*
X005336Y009311D01*
X005237Y009311D01*
X005146Y009274D01*
X005077Y009204D01*
X005039Y009113D01*
X005039Y009014D01*
X005077Y008923D01*
X005146Y008853D01*
X005237Y008815D01*
X005336Y008815D01*
X005427Y008853D01*
X005497Y008923D01*
X005535Y009014D01*
X005535Y009113D01*
X005527Y008996D02*
X006723Y008996D01*
X006725Y008837D02*
X005388Y008837D01*
X005185Y008837D02*
X004309Y008837D01*
X004293Y008996D02*
X005047Y008996D01*
X005056Y009154D02*
X004278Y009154D01*
X004324Y008678D02*
X006727Y008678D01*
X006729Y008520D02*
X004340Y008520D01*
X004356Y008361D02*
X006731Y008361D01*
X006733Y008203D02*
X004371Y008203D01*
X004387Y008044D02*
X006735Y008044D01*
X006737Y007886D02*
X004402Y007886D01*
X004418Y007727D02*
X006739Y007727D01*
X006741Y007569D02*
X004433Y007569D01*
X004449Y007410D02*
X006743Y007410D01*
X006745Y007252D02*
X004464Y007252D01*
X004480Y007093D02*
X006747Y007093D01*
X006749Y006934D02*
X004496Y006934D01*
X004511Y006776D02*
X006751Y006776D01*
X006753Y006617D02*
X004527Y006617D01*
X004542Y006459D02*
X006755Y006459D01*
X006757Y006300D02*
X004558Y006300D01*
X004573Y006142D02*
X006759Y006142D01*
X006761Y005983D02*
X004589Y005983D01*
X004605Y005825D02*
X006763Y005825D01*
X006765Y005666D02*
X004620Y005666D01*
X004636Y005508D02*
X006767Y005508D01*
X006769Y005349D02*
X004651Y005349D01*
X004667Y005190D02*
X006771Y005190D01*
X006774Y005032D02*
X004682Y005032D01*
X004698Y004873D02*
X006776Y004873D01*
X006789Y004715D02*
X004713Y004715D01*
X004729Y004556D02*
X006827Y004556D01*
X006864Y004398D02*
X004745Y004398D01*
X004760Y004239D02*
X006902Y004239D01*
X006936Y004081D02*
X004776Y004081D01*
X005362Y003922D02*
X006969Y003922D01*
X006968Y003764D02*
X005996Y003764D01*
X006630Y003605D02*
X006929Y003605D01*
X005004Y010264D02*
X004169Y010264D01*
X004153Y010422D02*
X005035Y010422D01*
X005938Y010898D02*
X004107Y010898D01*
X004091Y011057D02*
X005945Y011057D01*
X014042Y018013D02*
X014067Y018038D01*
X014105Y018129D01*
X014105Y018228D01*
X014067Y018319D01*
X014047Y018338D01*
X014067Y018358D01*
X014073Y018372D01*
X014307Y018138D01*
X015277Y018138D01*
X015332Y018083D01*
X015296Y018069D01*
X015227Y017999D01*
X015189Y017908D01*
X015189Y017858D01*
X014197Y017858D01*
X014042Y018013D01*
X014062Y018032D02*
X015260Y018032D01*
X015189Y017874D02*
X014181Y017874D01*
X014105Y018191D02*
X014254Y018191D01*
X014096Y018350D02*
X014059Y018350D01*
X017577Y013868D02*
X017577Y011983D01*
X017657Y012016D01*
X017756Y012016D01*
X017847Y011979D01*
X017917Y011909D01*
X017955Y011818D01*
X017955Y011719D01*
X017917Y011628D01*
X017847Y011558D01*
X017756Y011520D01*
X017657Y011520D01*
X017577Y011554D01*
X017577Y011068D01*
X017777Y010868D01*
X019637Y010868D01*
X019614Y010924D01*
X019614Y011023D01*
X019652Y011114D01*
X019721Y011184D01*
X019812Y011221D01*
X019911Y011221D01*
X020002Y011184D01*
X020072Y011114D01*
X020110Y011023D01*
X020110Y011001D01*
X020177Y011068D01*
X020177Y012168D01*
X019715Y012168D01*
X019715Y012159D01*
X019677Y012068D01*
X019607Y011998D01*
X019516Y011960D01*
X019417Y011960D01*
X019326Y011998D01*
X019257Y012068D01*
X019219Y012159D01*
X019219Y012258D01*
X019257Y012349D01*
X019326Y012419D01*
X019417Y012456D01*
X019477Y012456D01*
X019477Y013868D01*
X018305Y013868D01*
X018286Y013860D01*
X018187Y013860D01*
X018168Y013868D01*
X017577Y013868D01*
X017577Y013752D02*
X019477Y013752D01*
X019477Y013593D02*
X017577Y013593D01*
X017577Y013435D02*
X019477Y013435D01*
X019477Y013276D02*
X018306Y013276D01*
X018207Y013276D01*
X017577Y013276D01*
X017577Y013118D02*
X018025Y013118D01*
X018009Y013078D02*
X018009Y012979D01*
X018047Y012888D01*
X018116Y012818D01*
X018207Y012780D01*
X018306Y012780D01*
X018397Y012818D01*
X018467Y012888D01*
X018505Y012979D01*
X018505Y013078D01*
X018467Y013169D01*
X018397Y013239D01*
X018306Y013276D01*
X018207Y013276D02*
X018116Y013239D01*
X018047Y013169D01*
X018009Y013078D01*
X018017Y012959D02*
X017577Y012959D01*
X017577Y012801D02*
X018159Y012801D01*
X018355Y012801D02*
X018964Y012801D01*
X018937Y012828D02*
X019006Y012758D01*
X019097Y012720D01*
X019196Y012720D01*
X019287Y012758D01*
X019357Y012828D01*
X019395Y012919D01*
X019395Y013018D01*
X019357Y013109D01*
X019287Y013179D01*
X019196Y013216D01*
X019097Y013216D01*
X019006Y013179D01*
X018937Y013109D01*
X018899Y013018D01*
X018899Y012919D01*
X018937Y012828D01*
X018899Y012959D02*
X018496Y012959D01*
X018488Y013118D02*
X018946Y013118D01*
X019348Y013118D02*
X019477Y013118D01*
X019477Y012959D02*
X019395Y012959D01*
X019330Y012801D02*
X019477Y012801D01*
X019477Y012642D02*
X017577Y012642D01*
X017577Y012483D02*
X018172Y012483D01*
X018136Y012469D02*
X018227Y012506D01*
X018326Y012506D01*
X018417Y012469D01*
X018487Y012399D01*
X018525Y012308D01*
X018525Y012209D01*
X018487Y012118D01*
X018417Y012048D01*
X018326Y012010D01*
X018227Y012010D01*
X018136Y012048D01*
X018067Y012118D01*
X018029Y012209D01*
X018029Y012308D01*
X018067Y012399D01*
X018136Y012469D01*
X018036Y012325D02*
X017577Y012325D01*
X017577Y012166D02*
X018047Y012166D01*
X017777Y012008D02*
X019317Y012008D01*
X019307Y011969D02*
X019216Y012006D01*
X019117Y012006D01*
X019026Y011969D01*
X018957Y011899D01*
X018919Y011808D01*
X018919Y011709D01*
X018957Y011618D01*
X019026Y011548D01*
X019117Y011510D01*
X019216Y011510D01*
X019307Y011548D01*
X019377Y011618D01*
X019415Y011709D01*
X019415Y011808D01*
X019377Y011899D01*
X019307Y011969D01*
X019398Y011849D02*
X020177Y011849D01*
X020177Y011691D02*
X019407Y011691D01*
X019269Y011532D02*
X020177Y011532D01*
X020177Y011374D02*
X017577Y011374D01*
X017577Y011532D02*
X017629Y011532D01*
X017785Y011532D02*
X019065Y011532D01*
X018926Y011691D02*
X017943Y011691D01*
X017942Y011849D02*
X018936Y011849D01*
X019219Y012166D02*
X018507Y012166D01*
X018518Y012325D02*
X019247Y012325D01*
X019477Y012483D02*
X018381Y012483D01*
X017637Y012008D02*
X017577Y012008D01*
X017577Y011215D02*
X019798Y011215D01*
X019926Y011215D02*
X020177Y011215D01*
X020165Y011057D02*
X020096Y011057D01*
X019628Y011057D02*
X017589Y011057D01*
X017747Y010898D02*
X019625Y010898D01*
X019617Y012008D02*
X020177Y012008D01*
X020177Y012166D02*
X019715Y012166D01*
X017877Y026668D02*
X013714Y026668D01*
X013737Y026678D01*
X013807Y026748D01*
X013845Y026839D01*
X013845Y026938D01*
X013807Y027029D01*
X013737Y027099D01*
X013646Y027136D01*
X013547Y027136D01*
X013456Y027099D01*
X013387Y027029D01*
X013349Y026938D01*
X013349Y026839D01*
X013387Y026748D01*
X013456Y026678D01*
X013480Y026668D01*
X013177Y026668D01*
X012877Y026968D01*
X012877Y028568D01*
X013277Y028968D01*
X013518Y028968D01*
X013446Y028939D01*
X013377Y028869D01*
X013339Y028778D01*
X013339Y028679D01*
X013377Y028588D01*
X013446Y028518D01*
X013537Y028480D01*
X013636Y028480D01*
X013727Y028518D01*
X013797Y028588D01*
X013835Y028679D01*
X013835Y028778D01*
X013797Y028869D01*
X013727Y028939D01*
X013655Y028968D01*
X014270Y028968D01*
X014246Y028959D01*
X014177Y028889D01*
X014139Y028798D01*
X014139Y028699D01*
X014177Y028608D01*
X014246Y028538D01*
X014337Y028500D01*
X014436Y028500D01*
X014527Y028538D01*
X014597Y028608D01*
X014635Y028699D01*
X014635Y028786D01*
X014647Y028780D01*
X014746Y028780D01*
X014837Y028818D01*
X014907Y028888D01*
X014940Y028968D01*
X015944Y028968D01*
X015896Y028949D01*
X015827Y028879D01*
X015789Y028788D01*
X015789Y028689D01*
X015827Y028598D01*
X015896Y028528D01*
X015987Y028490D01*
X016086Y028490D01*
X016177Y028528D01*
X016247Y028598D01*
X016285Y028689D01*
X016285Y028788D01*
X016247Y028879D01*
X016177Y028949D01*
X016129Y028968D01*
X016373Y028968D01*
X016382Y028948D01*
X016451Y028878D01*
X016542Y028840D01*
X016641Y028840D01*
X016732Y028878D01*
X016802Y028948D01*
X016810Y028968D01*
X017577Y028968D01*
X018077Y028468D01*
X018077Y026868D01*
X017877Y026668D01*
X017961Y026752D02*
X013809Y026752D01*
X013845Y026911D02*
X018077Y026911D01*
X018077Y027069D02*
X017662Y027069D01*
X017657Y027058D02*
X017695Y027149D01*
X017695Y027248D01*
X017657Y027339D01*
X017587Y027409D01*
X017496Y027446D01*
X017397Y027446D01*
X017306Y027409D01*
X017237Y027339D01*
X017199Y027248D01*
X017199Y027149D01*
X017237Y027058D01*
X017306Y026988D01*
X017397Y026950D01*
X017496Y026950D01*
X017587Y026988D01*
X017657Y027058D01*
X017695Y027228D02*
X018077Y027228D01*
X018077Y027387D02*
X017609Y027387D01*
X017284Y027387D02*
X016525Y027387D01*
X016507Y027429D02*
X016545Y027338D01*
X016545Y027239D01*
X016507Y027148D01*
X016437Y027078D01*
X016346Y027040D01*
X016247Y027040D01*
X016156Y027078D01*
X016087Y027148D01*
X016049Y027239D01*
X016049Y027338D01*
X016087Y027429D01*
X016156Y027499D01*
X016247Y027536D01*
X016346Y027536D01*
X016437Y027499D01*
X016507Y027429D01*
X016540Y027228D02*
X017199Y027228D01*
X017232Y027069D02*
X016416Y027069D01*
X016177Y027069D02*
X015439Y027069D01*
X015417Y027048D02*
X015487Y027118D01*
X015525Y027209D01*
X015525Y027308D01*
X015487Y027399D01*
X015417Y027469D01*
X015326Y027506D01*
X015227Y027506D01*
X015136Y027469D01*
X015067Y027399D01*
X015029Y027308D01*
X015029Y027209D01*
X015067Y027118D01*
X015136Y027048D01*
X015227Y027010D01*
X015326Y027010D01*
X015417Y027048D01*
X015525Y027228D02*
X016053Y027228D01*
X016069Y027387D02*
X015492Y027387D01*
X015062Y027387D02*
X012877Y027387D01*
X012877Y027545D02*
X018077Y027545D01*
X018077Y027704D02*
X012877Y027704D01*
X012877Y027862D02*
X018077Y027862D01*
X018077Y028021D02*
X012877Y028021D01*
X012877Y028179D02*
X018077Y028179D01*
X018077Y028338D02*
X012877Y028338D01*
X012877Y028496D02*
X013499Y028496D01*
X013675Y028496D02*
X015973Y028496D01*
X016101Y028496D02*
X018049Y028496D01*
X017890Y028655D02*
X016271Y028655D01*
X016274Y028813D02*
X017732Y028813D01*
X015800Y028813D02*
X014826Y028813D01*
X014616Y028655D02*
X015803Y028655D01*
X015029Y027228D02*
X012877Y027228D01*
X012877Y027069D02*
X013427Y027069D01*
X013349Y026911D02*
X012934Y026911D01*
X013093Y026752D02*
X013385Y026752D01*
X013766Y027069D02*
X015115Y027069D01*
X014157Y028655D02*
X013825Y028655D01*
X013820Y028813D02*
X014145Y028813D01*
X013354Y028813D02*
X013122Y028813D01*
X012963Y028655D02*
X013349Y028655D01*
D20*
X002377Y002568D03*
X002377Y034568D03*
X034377Y034568D03*
X034377Y007568D03*
M02*
