G75*
G70*
%OFA0B0*%
%FSLAX24Y24*%
%IPPOS*%
%LPD*%
%AMOC8*
5,1,8,0,0,1.08239X$1,22.5*
%
%ADD10C,0.0130*%
%ADD11R,0.0276X0.0354*%
%ADD12R,0.0354X0.0276*%
%ADD13R,0.0472X0.0315*%
%ADD14C,0.0079*%
%ADD15R,0.0433X0.0433*%
%ADD16R,0.0512X0.0748*%
%ADD17R,0.0551X0.0453*%
%ADD18C,0.0024*%
%ADD19R,0.0512X0.0453*%
%ADD20R,0.0394X0.0433*%
%ADD21R,0.0315X0.0118*%
%ADD22R,0.1929X0.0827*%
%ADD23R,0.0630X0.1969*%
%ADD24R,0.0315X0.0472*%
%ADD25R,0.0472X0.0472*%
%ADD26R,0.0394X0.0472*%
%ADD27R,0.0354X0.0197*%
%ADD28R,0.0787X0.0354*%
%ADD29R,0.0177X0.0354*%
%ADD30R,0.0591X0.0433*%
%ADD31R,0.0394X0.0579*%
%ADD32R,0.0315X0.0669*%
%ADD33R,0.0315X0.0433*%
%ADD34R,0.0315X0.0157*%
%ADD35R,0.0709X0.0591*%
%ADD36R,0.0157X0.0630*%
%ADD37R,0.0118X0.0205*%
%ADD38R,0.1181X0.0787*%
D10*
X012751Y016759D03*
X013066Y016759D03*
X013381Y016759D03*
X013696Y016759D03*
X014011Y016759D03*
X014326Y016759D03*
X014641Y016759D03*
X014956Y016759D03*
X015271Y016759D03*
X015586Y016759D03*
X015900Y016759D03*
X015900Y017074D03*
X015586Y017074D03*
X015586Y017389D03*
X015900Y017389D03*
X015900Y017704D03*
X015586Y017704D03*
X015586Y018019D03*
X015900Y018019D03*
X015900Y018334D03*
X015586Y018334D03*
X015586Y018649D03*
X015900Y018649D03*
X015900Y018964D03*
X015586Y018964D03*
X015586Y019279D03*
X015900Y019279D03*
X015900Y019594D03*
X015586Y019594D03*
X015586Y019909D03*
X015900Y019909D03*
X015900Y020224D03*
X015586Y020224D03*
X015586Y020539D03*
X015900Y020539D03*
X015900Y020854D03*
X015586Y020854D03*
X015586Y021169D03*
X015900Y021169D03*
X015900Y021484D03*
X015586Y021484D03*
X015586Y021799D03*
X015900Y021799D03*
X015900Y022114D03*
X015586Y022114D03*
X015271Y022114D03*
X015271Y021799D03*
X015271Y021484D03*
X015271Y021169D03*
X015271Y020854D03*
X015271Y020539D03*
X015271Y020224D03*
X015271Y019909D03*
X015271Y019594D03*
X015271Y019279D03*
X015271Y018964D03*
X015271Y018649D03*
X015271Y018334D03*
X015271Y018019D03*
X015271Y017704D03*
X015271Y017389D03*
X015271Y017074D03*
X014956Y017074D03*
X014641Y017074D03*
X014326Y017074D03*
X014011Y017074D03*
X013696Y017074D03*
X013381Y017074D03*
X013066Y017074D03*
X012751Y017074D03*
X012751Y017389D03*
X013066Y017389D03*
X013381Y017389D03*
X013696Y017389D03*
X014011Y017389D03*
X014326Y017389D03*
X014641Y017389D03*
X014956Y017389D03*
X014956Y017704D03*
X014956Y018019D03*
X014956Y018334D03*
X014956Y018649D03*
X014956Y018964D03*
X014956Y019279D03*
X014956Y019594D03*
X014956Y019909D03*
X014956Y020224D03*
X014956Y020539D03*
X014956Y020854D03*
X014956Y021169D03*
X014956Y021484D03*
X014956Y021799D03*
X014956Y022114D03*
X014641Y022114D03*
X014641Y021799D03*
X014641Y021484D03*
X014641Y021169D03*
X014641Y020854D03*
X014641Y020539D03*
X014641Y020224D03*
X014641Y019909D03*
X014641Y019594D03*
X014641Y019279D03*
X014641Y018964D03*
X014641Y018649D03*
X014641Y018334D03*
X014641Y018019D03*
X014641Y017704D03*
X014326Y017704D03*
X014011Y017704D03*
X013696Y017704D03*
X013381Y017704D03*
X013066Y017704D03*
X012751Y017704D03*
X012751Y018019D03*
X013066Y018019D03*
X013381Y018019D03*
X013696Y018019D03*
X014011Y018019D03*
X014326Y018019D03*
X014326Y018334D03*
X014326Y018649D03*
X014326Y018964D03*
X014326Y019279D03*
X014326Y019594D03*
X014326Y019909D03*
X014326Y020224D03*
X014326Y020539D03*
X014326Y020854D03*
X014326Y021169D03*
X014326Y021484D03*
X014326Y021799D03*
X014326Y022114D03*
X014011Y022114D03*
X014011Y021799D03*
X014011Y021484D03*
X014011Y021169D03*
X014011Y020854D03*
X014011Y020539D03*
X014011Y020224D03*
X014011Y019909D03*
X014011Y019594D03*
X014011Y019279D03*
X014011Y018964D03*
X014011Y018649D03*
X014011Y018334D03*
X013696Y018334D03*
X013381Y018334D03*
X013066Y018334D03*
X012751Y018334D03*
X012751Y018649D03*
X013066Y018649D03*
X013381Y018649D03*
X013696Y018649D03*
X013696Y018964D03*
X013696Y019279D03*
X013696Y019594D03*
X013696Y019909D03*
X013696Y020224D03*
X013696Y020539D03*
X013696Y020854D03*
X013696Y021169D03*
X013696Y021484D03*
X013696Y021799D03*
X013696Y022114D03*
X013381Y022114D03*
X013381Y021799D03*
X013381Y021484D03*
X013381Y021169D03*
X013381Y020854D03*
X013381Y020539D03*
X013381Y020224D03*
X013381Y019909D03*
X013381Y019594D03*
X013381Y019279D03*
X013381Y018964D03*
X013066Y018964D03*
X012751Y018964D03*
X012751Y019279D03*
X013066Y019279D03*
X013066Y019594D03*
X013066Y019909D03*
X013066Y020224D03*
X013066Y020539D03*
X013066Y020854D03*
X013066Y021169D03*
X013066Y021484D03*
X013066Y021799D03*
X013066Y022114D03*
X012751Y022114D03*
X012751Y021799D03*
X012751Y021484D03*
X012751Y021169D03*
X012751Y020854D03*
X012751Y020539D03*
X012751Y020224D03*
X012751Y019909D03*
X012751Y019594D03*
X016215Y019594D03*
X016215Y019279D03*
X016215Y018964D03*
X016215Y018649D03*
X016215Y018334D03*
X016215Y018019D03*
X016215Y017704D03*
X016215Y017389D03*
X016215Y017074D03*
X016215Y016759D03*
X016530Y016759D03*
X016845Y016759D03*
X017160Y016759D03*
X017475Y016759D03*
X017790Y016759D03*
X018105Y016759D03*
X018105Y017074D03*
X017790Y017074D03*
X017475Y017074D03*
X017160Y017074D03*
X016845Y017074D03*
X016530Y017074D03*
X016530Y017389D03*
X016845Y017389D03*
X017160Y017389D03*
X017475Y017389D03*
X017790Y017389D03*
X018105Y017389D03*
X018105Y017704D03*
X017790Y017704D03*
X017475Y017704D03*
X017160Y017704D03*
X016845Y017704D03*
X016530Y017704D03*
X016530Y018019D03*
X016530Y018334D03*
X016530Y018649D03*
X016530Y018964D03*
X016530Y019279D03*
X016530Y019594D03*
X016530Y019909D03*
X016215Y019909D03*
X016215Y020224D03*
X016215Y020539D03*
X016215Y020854D03*
X016215Y021169D03*
X016215Y021484D03*
X016215Y021799D03*
X016215Y022114D03*
X016530Y022114D03*
X016530Y021799D03*
X016530Y021484D03*
X016530Y021169D03*
X016530Y020854D03*
X016530Y020539D03*
X016530Y020224D03*
X016845Y020224D03*
X016845Y019909D03*
X016845Y019594D03*
X016845Y019279D03*
X016845Y018964D03*
X016845Y018649D03*
X016845Y018334D03*
X016845Y018019D03*
X017160Y018019D03*
X017160Y018334D03*
X017160Y018649D03*
X017160Y018964D03*
X017160Y019279D03*
X017160Y019594D03*
X017160Y019909D03*
X017160Y020224D03*
X017160Y020539D03*
X016845Y020539D03*
X016845Y020854D03*
X016845Y021169D03*
X016845Y021484D03*
X016845Y021799D03*
X016845Y022114D03*
X017160Y022114D03*
X017160Y021799D03*
X017160Y021484D03*
X017160Y021169D03*
X017160Y020854D03*
X017475Y020854D03*
X017475Y021169D03*
X017475Y021484D03*
X017475Y021799D03*
X017475Y022114D03*
X017790Y022114D03*
X017790Y021799D03*
X017790Y021484D03*
X017790Y021169D03*
X017790Y020854D03*
X017790Y020539D03*
X017475Y020539D03*
X017475Y020224D03*
X017475Y019909D03*
X017475Y019594D03*
X017475Y019279D03*
X017475Y018964D03*
X017475Y018649D03*
X017475Y018334D03*
X017475Y018019D03*
X017790Y018019D03*
X018105Y018019D03*
X018105Y018334D03*
X017790Y018334D03*
X017790Y018649D03*
X017790Y018964D03*
X017790Y019279D03*
X017790Y019594D03*
X017790Y019909D03*
X017790Y020224D03*
X018105Y020224D03*
X018105Y019909D03*
X018105Y019594D03*
X018105Y019279D03*
X018105Y018964D03*
X018105Y018649D03*
X018105Y020539D03*
X018105Y020854D03*
X018105Y021169D03*
X018105Y021484D03*
X018105Y021799D03*
X018105Y022114D03*
X023379Y021722D03*
X023379Y021407D03*
X023379Y021093D03*
X023694Y021093D03*
X023694Y021407D03*
X024009Y021407D03*
X024009Y021093D03*
X024009Y020778D03*
X024009Y020463D03*
X024009Y020148D03*
X024009Y019833D03*
X024009Y019518D03*
X024009Y019203D03*
X024009Y018888D03*
X024009Y018573D03*
X024009Y018258D03*
X024009Y017943D03*
X024009Y017628D03*
X024009Y017313D03*
X023694Y017313D03*
X023694Y017628D03*
X023694Y017943D03*
X023694Y018258D03*
X023694Y018573D03*
X023694Y018888D03*
X023694Y019203D03*
X023694Y019518D03*
X023694Y019833D03*
X023694Y020148D03*
X023694Y020463D03*
X023694Y020778D03*
X023379Y020778D03*
X023379Y020463D03*
X023379Y020148D03*
X023379Y019833D03*
X023379Y019518D03*
X023379Y019203D03*
X023379Y018573D03*
X023379Y017943D03*
X023379Y017313D03*
X025268Y017313D03*
X025268Y017628D03*
X025268Y017943D03*
X025268Y018258D03*
X025268Y018573D03*
X025268Y018888D03*
X025268Y019203D03*
X025268Y019518D03*
X025268Y019833D03*
X025268Y020148D03*
X025268Y020463D03*
X025268Y020778D03*
X025268Y021093D03*
X025268Y021407D03*
X025583Y021407D03*
X025583Y021093D03*
X025898Y021093D03*
X025898Y021407D03*
X025898Y021722D03*
X025583Y021722D03*
X025268Y021722D03*
X025583Y020778D03*
X025898Y020778D03*
X025898Y020463D03*
X025583Y020463D03*
X025583Y020148D03*
X025583Y019833D03*
X025583Y019518D03*
X025583Y019203D03*
X025583Y018888D03*
X025583Y018573D03*
X025583Y018258D03*
X025583Y017943D03*
X025583Y017628D03*
X025583Y017313D03*
X025898Y017628D03*
X025898Y018258D03*
X025898Y018888D03*
X025898Y019203D03*
X025898Y019518D03*
X025898Y019833D03*
X025898Y020148D03*
X024009Y021722D03*
X023694Y021722D03*
D11*
X021683Y021678D03*
X021683Y021228D03*
X021683Y020778D03*
X021683Y020328D03*
X021683Y019878D03*
X021683Y019428D03*
X021683Y018978D03*
X021683Y018528D03*
X021683Y018078D03*
X021683Y017628D03*
X021683Y017178D03*
X021683Y016728D03*
X021683Y016278D03*
X021683Y015828D03*
X021683Y015378D03*
X021683Y014928D03*
X021683Y014478D03*
X021683Y014028D03*
X021171Y014028D03*
X021171Y014478D03*
X021171Y014928D03*
X021171Y015378D03*
X021171Y015828D03*
X021171Y016278D03*
X021171Y016728D03*
X021171Y017178D03*
X021171Y017628D03*
X021171Y018078D03*
X021171Y018528D03*
X021171Y018978D03*
X021171Y019428D03*
X021171Y019878D03*
X021171Y020328D03*
X021171Y020778D03*
X021171Y021228D03*
X021171Y021678D03*
X021171Y022128D03*
X021171Y022578D03*
X021171Y023028D03*
X021171Y023478D03*
X021171Y023928D03*
X021171Y024378D03*
X021171Y024828D03*
X021683Y024828D03*
X021683Y024378D03*
X021683Y023928D03*
X021683Y023478D03*
X021683Y023028D03*
X021683Y022578D03*
X021683Y022128D03*
X027311Y020168D03*
X027311Y019688D03*
X027823Y019688D03*
X027823Y020168D03*
X027823Y019208D03*
X027311Y019208D03*
X017653Y008968D03*
X017653Y008318D03*
X017141Y008318D03*
X017141Y008968D03*
X017141Y007718D03*
X017653Y007718D03*
X017553Y006818D03*
X017041Y006818D03*
X016453Y006818D03*
X015941Y006818D03*
X014523Y007328D03*
X014011Y007328D03*
X024611Y008338D03*
X025123Y008338D03*
X014903Y023048D03*
X014391Y023048D03*
X014401Y024958D03*
X014913Y024958D03*
X009133Y020908D03*
X008621Y020908D03*
X008621Y020388D03*
X009133Y020388D03*
D12*
X010077Y021562D03*
X010077Y022074D03*
X007727Y022074D03*
X007727Y021562D03*
X007677Y023662D03*
X007677Y024174D03*
X012577Y024512D03*
X012577Y025024D03*
X013987Y026382D03*
X014487Y026382D03*
X014487Y026894D03*
X013987Y026894D03*
X015177Y026894D03*
X015677Y026894D03*
X015677Y026382D03*
X015177Y026382D03*
X016387Y026382D03*
X016887Y026382D03*
X016887Y026894D03*
X016387Y026894D03*
X017447Y026894D03*
X017447Y026382D03*
X010327Y029512D03*
X010327Y030024D03*
X008127Y031612D03*
X008127Y032124D03*
X008077Y030024D03*
X008077Y029512D03*
X009827Y017774D03*
X009827Y017262D03*
X010427Y017262D03*
X010427Y017774D03*
X014477Y012634D03*
X014957Y012624D03*
X014957Y012112D03*
X014477Y012122D03*
X015457Y012102D03*
X015957Y012102D03*
X016457Y012102D03*
X016457Y012614D03*
X015957Y012614D03*
X015457Y012614D03*
X016957Y012614D03*
X017457Y012614D03*
X017957Y012614D03*
X017957Y012102D03*
X017457Y012102D03*
X016957Y012102D03*
X018547Y011064D03*
X019047Y011064D03*
X019537Y011074D03*
X019537Y010562D03*
X019047Y010552D03*
X018547Y010552D03*
X019147Y012092D03*
X019147Y012604D03*
X017947Y014972D03*
X017477Y014972D03*
X017477Y015484D03*
X017947Y015484D03*
X026697Y013874D03*
X026697Y013362D03*
X027177Y013362D03*
X027677Y013362D03*
X028177Y013362D03*
X028177Y013874D03*
X027677Y013874D03*
X027177Y013874D03*
X028677Y013874D03*
X029177Y013874D03*
X029677Y013874D03*
X029677Y013362D03*
X029177Y013362D03*
X028677Y013362D03*
X030177Y013362D03*
X030677Y013362D03*
X031177Y013362D03*
X031177Y013874D03*
X030677Y013874D03*
X030177Y013874D03*
X031677Y013874D03*
X032177Y013874D03*
X032177Y013362D03*
X031677Y013362D03*
X031637Y011794D03*
X032137Y011794D03*
X032137Y011282D03*
X031637Y011282D03*
X031127Y011282D03*
X030647Y011282D03*
X030127Y011282D03*
X029647Y011282D03*
X029127Y011282D03*
X029127Y011794D03*
X029647Y011794D03*
X030127Y011794D03*
X030647Y011794D03*
X031127Y011794D03*
X031107Y010084D03*
X030627Y010084D03*
X030127Y010084D03*
X030127Y009572D03*
X030627Y009572D03*
X031107Y009572D03*
X031627Y009572D03*
X032127Y009572D03*
X032127Y010084D03*
X031627Y010084D03*
X029627Y010084D03*
X029127Y010084D03*
X029127Y009572D03*
X029627Y009572D03*
X029837Y015412D03*
X030337Y015412D03*
X030837Y015412D03*
X031337Y015412D03*
X031837Y015412D03*
X032337Y015412D03*
X032837Y015412D03*
X033317Y015402D03*
X033317Y015914D03*
X032837Y015924D03*
X032337Y015924D03*
X031837Y015924D03*
X031337Y015924D03*
X030837Y015924D03*
X030337Y015924D03*
X029837Y015924D03*
X029337Y015924D03*
X028837Y015924D03*
X028837Y015412D03*
X029337Y015412D03*
X029147Y017522D03*
X029627Y017522D03*
X029627Y018034D03*
X029147Y018034D03*
X030147Y018034D03*
X030627Y018034D03*
X030627Y017522D03*
X030147Y017522D03*
X031147Y017522D03*
X031147Y018034D03*
X031647Y018034D03*
X032147Y018034D03*
X032147Y017522D03*
X031647Y017522D03*
X031647Y019522D03*
X032147Y019522D03*
X032147Y020034D03*
X031647Y020034D03*
X031127Y020034D03*
X030647Y020034D03*
X030147Y020034D03*
X030147Y019522D03*
X030647Y019522D03*
X031127Y019522D03*
X029647Y019522D03*
X029147Y019522D03*
X029147Y020034D03*
X029647Y020034D03*
X029687Y021272D03*
X029187Y021272D03*
X029187Y021784D03*
X029687Y021784D03*
X030187Y021784D03*
X030697Y021784D03*
X031197Y021784D03*
X031197Y021272D03*
X030697Y021272D03*
X030187Y021272D03*
X031697Y021272D03*
X032177Y021272D03*
X032177Y021784D03*
X031697Y021784D03*
X019927Y005684D03*
X019927Y005172D03*
X020897Y005112D03*
X020897Y005624D03*
X011857Y004654D03*
X011357Y004654D03*
X010867Y004654D03*
X010367Y004654D03*
X009867Y004654D03*
X009367Y004654D03*
X008867Y004654D03*
X008367Y004654D03*
X007877Y004654D03*
X007377Y004654D03*
X007377Y004142D03*
X007877Y004142D03*
X008367Y004142D03*
X008867Y004142D03*
X009367Y004142D03*
X009867Y004142D03*
X010367Y004142D03*
X010867Y004142D03*
X011357Y004142D03*
X011857Y004142D03*
X006827Y004142D03*
X006317Y004152D03*
X006317Y004664D03*
X006827Y004654D03*
D13*
X004507Y008704D03*
X004507Y009413D03*
X004537Y009944D03*
X004537Y010653D03*
X014987Y010704D03*
X014987Y011413D03*
X016427Y011413D03*
X016427Y010704D03*
X017997Y010454D03*
X017997Y011163D03*
X018557Y011904D03*
X018557Y012613D03*
X019757Y012613D03*
X019757Y011904D03*
X016937Y014284D03*
X016937Y014993D03*
X016297Y014994D03*
X016297Y015703D03*
X013177Y023164D03*
X013177Y023873D03*
X013177Y024414D03*
X013177Y025123D03*
X028237Y016023D03*
X028237Y015314D03*
X028397Y017424D03*
X028397Y018133D03*
X032897Y018133D03*
X032897Y017424D03*
X030617Y008143D03*
X029917Y008143D03*
X029247Y008143D03*
X029247Y007434D03*
X029917Y007434D03*
X030617Y007434D03*
X021837Y005733D03*
X021837Y005024D03*
D14*
X021824Y006639D02*
X021824Y006895D01*
X021824Y006639D02*
X021824Y006639D01*
X021824Y006895D01*
X021824Y006895D01*
X021824Y006717D02*
X021824Y006717D01*
X021824Y006795D02*
X021824Y006795D01*
X021824Y006873D02*
X021824Y006873D01*
X021667Y006895D02*
X021667Y006639D01*
X021667Y006639D01*
X021667Y006895D01*
X021667Y006895D01*
X021667Y006717D02*
X021667Y006717D01*
X021667Y006795D02*
X021667Y006795D01*
X021667Y006873D02*
X021667Y006873D01*
X021509Y006895D02*
X021509Y006639D01*
X021509Y006639D01*
X021509Y006895D01*
X021509Y006895D01*
X021509Y006717D02*
X021509Y006717D01*
X021509Y006795D02*
X021509Y006795D01*
X021509Y006873D02*
X021509Y006873D01*
X021352Y006895D02*
X021352Y006639D01*
X021352Y006639D01*
X021352Y006895D01*
X021352Y006895D01*
X021352Y006717D02*
X021352Y006717D01*
X021352Y006795D02*
X021352Y006795D01*
X021352Y006873D02*
X021352Y006873D01*
X021194Y006895D02*
X021194Y006639D01*
X021194Y006639D01*
X021194Y006895D01*
X021194Y006895D01*
X021194Y006717D02*
X021194Y006717D01*
X021194Y006795D02*
X021194Y006795D01*
X021194Y006873D02*
X021194Y006873D01*
X021037Y006895D02*
X021037Y006639D01*
X021037Y006639D01*
X021037Y006895D01*
X021037Y006895D01*
X021037Y006717D02*
X021037Y006717D01*
X021037Y006795D02*
X021037Y006795D01*
X021037Y006873D02*
X021037Y006873D01*
X020879Y006895D02*
X020879Y006639D01*
X020879Y006639D01*
X020879Y006895D01*
X020879Y006895D01*
X020879Y006717D02*
X020879Y006717D01*
X020879Y006795D02*
X020879Y006795D01*
X020879Y006873D02*
X020879Y006873D01*
X020722Y006895D02*
X020722Y006639D01*
X020722Y006639D01*
X020722Y006895D01*
X020722Y006895D01*
X020722Y006717D02*
X020722Y006717D01*
X020722Y006795D02*
X020722Y006795D01*
X020722Y006873D02*
X020722Y006873D01*
X020546Y007071D02*
X020290Y007071D01*
X020546Y007071D02*
X020546Y007071D01*
X020290Y007071D01*
X020290Y007071D01*
X020290Y007229D02*
X020546Y007229D01*
X020546Y007229D01*
X020290Y007229D01*
X020290Y007229D01*
X020290Y007386D02*
X020546Y007386D01*
X020546Y007386D01*
X020290Y007386D01*
X020290Y007386D01*
X020290Y007544D02*
X020546Y007544D01*
X020546Y007544D01*
X020290Y007544D01*
X020290Y007544D01*
X020290Y007701D02*
X020546Y007701D01*
X020546Y007701D01*
X020290Y007701D01*
X020290Y007701D01*
X020290Y007859D02*
X020546Y007859D01*
X020546Y007859D01*
X020290Y007859D01*
X020290Y007859D01*
X020290Y008016D02*
X020546Y008016D01*
X020546Y008016D01*
X020290Y008016D01*
X020290Y008016D01*
X020290Y008174D02*
X020546Y008174D01*
X020546Y008174D01*
X020290Y008174D01*
X020290Y008174D01*
X020290Y008331D02*
X020546Y008331D01*
X020546Y008331D01*
X020290Y008331D01*
X020290Y008331D01*
X020290Y008489D02*
X020546Y008489D01*
X020546Y008489D01*
X020290Y008489D01*
X020290Y008489D01*
X020290Y008646D02*
X020546Y008646D01*
X020546Y008646D01*
X020290Y008646D01*
X020290Y008646D01*
X020290Y008804D02*
X020546Y008804D01*
X020546Y008804D01*
X020290Y008804D01*
X020290Y008804D01*
X020722Y008982D02*
X020722Y009238D01*
X020722Y009238D01*
X020722Y008982D01*
X020722Y008982D01*
X020722Y009060D02*
X020722Y009060D01*
X020722Y009138D02*
X020722Y009138D01*
X020722Y009216D02*
X020722Y009216D01*
X020879Y009238D02*
X020879Y008982D01*
X020879Y009238D02*
X020879Y009238D01*
X020879Y008982D01*
X020879Y008982D01*
X020879Y009060D02*
X020879Y009060D01*
X020879Y009138D02*
X020879Y009138D01*
X020879Y009216D02*
X020879Y009216D01*
X021037Y009238D02*
X021037Y008982D01*
X021037Y009238D02*
X021037Y009238D01*
X021037Y008982D01*
X021037Y008982D01*
X021037Y009060D02*
X021037Y009060D01*
X021037Y009138D02*
X021037Y009138D01*
X021037Y009216D02*
X021037Y009216D01*
X021194Y009238D02*
X021194Y008982D01*
X021194Y009238D02*
X021194Y009238D01*
X021194Y008982D01*
X021194Y008982D01*
X021194Y009060D02*
X021194Y009060D01*
X021194Y009138D02*
X021194Y009138D01*
X021194Y009216D02*
X021194Y009216D01*
X021352Y009238D02*
X021352Y008982D01*
X021352Y009238D02*
X021352Y009238D01*
X021352Y008982D01*
X021352Y008982D01*
X021352Y009060D02*
X021352Y009060D01*
X021352Y009138D02*
X021352Y009138D01*
X021352Y009216D02*
X021352Y009216D01*
X021509Y009238D02*
X021509Y008982D01*
X021509Y009238D02*
X021509Y009238D01*
X021509Y008982D01*
X021509Y008982D01*
X021509Y009060D02*
X021509Y009060D01*
X021509Y009138D02*
X021509Y009138D01*
X021509Y009216D02*
X021509Y009216D01*
X021667Y009238D02*
X021667Y008982D01*
X021667Y009238D02*
X021667Y009238D01*
X021667Y008982D01*
X021667Y008982D01*
X021667Y009060D02*
X021667Y009060D01*
X021667Y009138D02*
X021667Y009138D01*
X021667Y009216D02*
X021667Y009216D01*
X021824Y009238D02*
X021824Y008982D01*
X021824Y009238D02*
X021824Y009238D01*
X021824Y008982D01*
X021824Y008982D01*
X021824Y009060D02*
X021824Y009060D01*
X021824Y009138D02*
X021824Y009138D01*
X021824Y009216D02*
X021824Y009216D01*
X021982Y009238D02*
X021982Y008982D01*
X021982Y009238D02*
X021982Y009238D01*
X021982Y008982D01*
X021982Y008982D01*
X021982Y009060D02*
X021982Y009060D01*
X021982Y009138D02*
X021982Y009138D01*
X021982Y009216D02*
X021982Y009216D01*
X022139Y009238D02*
X022139Y008982D01*
X022139Y009238D02*
X022139Y009238D01*
X022139Y008982D01*
X022139Y008982D01*
X022139Y009060D02*
X022139Y009060D01*
X022139Y009138D02*
X022139Y009138D01*
X022139Y009216D02*
X022139Y009216D01*
X022297Y009238D02*
X022297Y008982D01*
X022297Y009238D02*
X022297Y009238D01*
X022297Y008982D01*
X022297Y008982D01*
X022297Y009060D02*
X022297Y009060D01*
X022297Y009138D02*
X022297Y009138D01*
X022297Y009216D02*
X022297Y009216D01*
X022454Y009238D02*
X022454Y008982D01*
X022454Y009238D02*
X022454Y009238D01*
X022454Y008982D01*
X022454Y008982D01*
X022454Y009060D02*
X022454Y009060D01*
X022454Y009138D02*
X022454Y009138D01*
X022454Y009216D02*
X022454Y009216D01*
X022632Y008804D02*
X022888Y008804D01*
X022632Y008804D02*
X022632Y008804D01*
X022888Y008804D01*
X022888Y008804D01*
X022888Y008646D02*
X022632Y008646D01*
X022632Y008646D01*
X022888Y008646D01*
X022888Y008646D01*
X022888Y008489D02*
X022632Y008489D01*
X022632Y008489D01*
X022888Y008489D01*
X022888Y008489D01*
X022888Y008331D02*
X022632Y008331D01*
X022632Y008331D01*
X022888Y008331D01*
X022888Y008331D01*
X022888Y008174D02*
X022632Y008174D01*
X022632Y008174D01*
X022888Y008174D01*
X022888Y008174D01*
X022888Y008016D02*
X022632Y008016D01*
X022632Y008016D01*
X022888Y008016D01*
X022888Y008016D01*
X022888Y007859D02*
X022632Y007859D01*
X022632Y007859D01*
X022888Y007859D01*
X022888Y007859D01*
X022888Y007701D02*
X022632Y007701D01*
X022632Y007701D01*
X022888Y007701D01*
X022888Y007701D01*
X022888Y007544D02*
X022632Y007544D01*
X022632Y007544D01*
X022888Y007544D01*
X022888Y007544D01*
X022888Y007386D02*
X022632Y007386D01*
X022632Y007386D01*
X022888Y007386D01*
X022888Y007386D01*
X022888Y007229D02*
X022632Y007229D01*
X022632Y007229D01*
X022888Y007229D01*
X022888Y007229D01*
X022888Y007071D02*
X022632Y007071D01*
X022632Y007071D01*
X022888Y007071D01*
X022888Y007071D01*
X022454Y006895D02*
X022454Y006639D01*
X022454Y006639D01*
X022454Y006895D01*
X022454Y006895D01*
X022454Y006717D02*
X022454Y006717D01*
X022454Y006795D02*
X022454Y006795D01*
X022454Y006873D02*
X022454Y006873D01*
X022297Y006895D02*
X022297Y006639D01*
X022297Y006639D01*
X022297Y006895D01*
X022297Y006895D01*
X022297Y006717D02*
X022297Y006717D01*
X022297Y006795D02*
X022297Y006795D01*
X022297Y006873D02*
X022297Y006873D01*
X022139Y006895D02*
X022139Y006639D01*
X022139Y006639D01*
X022139Y006895D01*
X022139Y006895D01*
X022139Y006717D02*
X022139Y006717D01*
X022139Y006795D02*
X022139Y006795D01*
X022139Y006873D02*
X022139Y006873D01*
X021982Y006895D02*
X021982Y006639D01*
X021982Y006639D01*
X021982Y006895D01*
X021982Y006895D01*
X021982Y006717D02*
X021982Y006717D01*
X021982Y006795D02*
X021982Y006795D01*
X021982Y006873D02*
X021982Y006873D01*
D15*
X022080Y007268D03*
X022084Y007863D03*
X022086Y008430D03*
X021509Y008430D03*
X021509Y007863D03*
X021513Y007280D03*
X020919Y007272D03*
X020919Y007859D03*
X020923Y008430D03*
D16*
X015240Y013806D03*
X015242Y015068D03*
X012995Y015068D03*
X012995Y013808D03*
D17*
X014237Y023669D03*
X014237Y024299D03*
X015104Y024299D03*
X015104Y023669D03*
D18*
X027696Y004153D02*
X027696Y004009D01*
X027696Y004153D02*
X027804Y004153D01*
X027804Y004009D01*
X027696Y004009D01*
X027696Y004032D02*
X027804Y004032D01*
X027804Y004055D02*
X027696Y004055D01*
X027696Y004078D02*
X027804Y004078D01*
X027804Y004101D02*
X027696Y004101D01*
X027696Y004124D02*
X027804Y004124D01*
X027804Y004147D02*
X027696Y004147D01*
X027893Y004153D02*
X027893Y004009D01*
X027893Y004153D02*
X028001Y004153D01*
X028001Y004009D01*
X027893Y004009D01*
X027893Y004032D02*
X028001Y004032D01*
X028001Y004055D02*
X027893Y004055D01*
X027893Y004078D02*
X028001Y004078D01*
X028001Y004101D02*
X027893Y004101D01*
X027893Y004124D02*
X028001Y004124D01*
X028001Y004147D02*
X027893Y004147D01*
X028090Y004153D02*
X028090Y004009D01*
X028090Y004153D02*
X028198Y004153D01*
X028198Y004009D01*
X028090Y004009D01*
X028090Y004032D02*
X028198Y004032D01*
X028198Y004055D02*
X028090Y004055D01*
X028090Y004078D02*
X028198Y004078D01*
X028198Y004101D02*
X028090Y004101D01*
X028090Y004124D02*
X028198Y004124D01*
X028198Y004147D02*
X028090Y004147D01*
X028090Y003405D02*
X028090Y003261D01*
X028090Y003405D02*
X028198Y003405D01*
X028198Y003261D01*
X028090Y003261D01*
X028090Y003284D02*
X028198Y003284D01*
X028198Y003307D02*
X028090Y003307D01*
X028090Y003330D02*
X028198Y003330D01*
X028198Y003353D02*
X028090Y003353D01*
X028090Y003376D02*
X028198Y003376D01*
X028198Y003399D02*
X028090Y003399D01*
X027893Y003405D02*
X027893Y003261D01*
X027893Y003405D02*
X028001Y003405D01*
X028001Y003261D01*
X027893Y003261D01*
X027893Y003284D02*
X028001Y003284D01*
X028001Y003307D02*
X027893Y003307D01*
X027893Y003330D02*
X028001Y003330D01*
X028001Y003353D02*
X027893Y003353D01*
X027893Y003376D02*
X028001Y003376D01*
X028001Y003399D02*
X027893Y003399D01*
X027696Y003405D02*
X027696Y003261D01*
X027696Y003405D02*
X027804Y003405D01*
X027804Y003261D01*
X027696Y003261D01*
X027696Y003284D02*
X027804Y003284D01*
X027804Y003307D02*
X027696Y003307D01*
X027696Y003330D02*
X027804Y003330D01*
X027804Y003353D02*
X027696Y003353D01*
X027696Y003376D02*
X027804Y003376D01*
X027804Y003399D02*
X027696Y003399D01*
D19*
X027947Y003708D03*
D20*
X026947Y004033D03*
X026947Y003364D03*
D21*
X014865Y007922D03*
X014865Y008119D03*
X014865Y008315D03*
X014865Y008512D03*
X013644Y008512D03*
X013644Y008315D03*
X013644Y008119D03*
X013644Y007922D03*
D22*
X025412Y007167D03*
X025408Y005828D03*
X025422Y009020D03*
X025426Y010358D03*
D23*
X022767Y011249D03*
X021389Y011249D03*
D24*
X017701Y009668D03*
X016993Y009668D03*
X016411Y008968D03*
X015703Y008968D03*
X015723Y007798D03*
X016431Y007798D03*
X016843Y006118D03*
X016843Y005418D03*
X017551Y005418D03*
X017551Y006118D03*
X007241Y010938D03*
X006533Y010938D03*
D25*
X019917Y004522D03*
X019917Y003695D03*
D26*
X007027Y015705D03*
X007027Y018067D03*
D27*
X006751Y019071D03*
X006751Y015233D03*
D28*
X005353Y013865D03*
X005865Y019573D03*
D29*
X002857Y019573D03*
X002582Y019573D03*
X002306Y019573D03*
X002030Y019573D03*
X002030Y013865D03*
X002306Y013865D03*
X002582Y013865D03*
X002853Y013865D03*
D30*
X001534Y013904D03*
X001534Y019534D03*
D31*
X009851Y019309D03*
X010501Y019309D03*
X010501Y018559D03*
X009851Y018559D03*
D32*
X005887Y001907D03*
X007226Y001914D03*
D33*
X006556Y002560D03*
D34*
X005695Y008643D03*
X005695Y008899D03*
X005695Y009155D03*
X005695Y009411D03*
X005695Y009667D03*
X005695Y009923D03*
X005695Y010179D03*
X005695Y010435D03*
X008077Y010435D03*
X008077Y010179D03*
X008077Y009923D03*
X008077Y009667D03*
X008077Y009411D03*
X008077Y009155D03*
X008077Y008899D03*
X008077Y008643D03*
D35*
X008907Y022838D03*
X009217Y030778D03*
D36*
X009335Y029991D03*
X009591Y029991D03*
X009079Y029991D03*
X008823Y029991D03*
X008823Y031605D03*
X009079Y031605D03*
X009355Y031605D03*
X009611Y031605D03*
X009301Y023665D03*
X009045Y023665D03*
X008769Y023665D03*
X008513Y023665D03*
X008513Y022051D03*
X008769Y022051D03*
X009025Y022051D03*
X009281Y022051D03*
D37*
X007574Y022715D03*
X007377Y022715D03*
X007180Y022715D03*
X007180Y023022D03*
X007377Y023022D03*
X007574Y023022D03*
X007577Y030715D03*
X007774Y030715D03*
X007774Y031022D03*
X007577Y031022D03*
X007380Y031022D03*
X007380Y030715D03*
D38*
X009216Y032884D03*
X009216Y034892D03*
X008966Y026942D03*
X008966Y024934D03*
M02*
